<svg style="position: absolute; width: 0; height: 0;" width="0" height="0" version="1.1" xmlns="http://www.w3.org/2000/svg" xmlns:xlink="http://www.w3.org/1999/xlink">
    <defs>
        <symbol id="v2alpha" viewBox="0 0 200 111">
            <title>spaCy v2.0.0 alpha</title>
            <path fill="#ddd" d="M183.3 89.2l-164.6-40-1-29.2 164.6 40M3.8 106.8l41.6-1.4-1-29.2-41.6 1.4L13.2 92"/>
            <path fill="#a3cad3" d="M45.4 105.4L19.6 94.6l25.4-1"/>
            <path fill="#ddd" d="M196.6 2L155 3.4l1 29.2 41.6-1.4L187.2 17"/>
            <path fill="#a3cad3" d="M155 3.4l25.8 10.8-25.4 1"/>
            <path fill="#fff" d="M17.6 19.4l163-5.6 1 29.2-163 5.6zM19.2 65.6l163-5.6 1 29.2-163 5.6z"/>
            <path fill="#008EBC" d="M45.8 29h-3.6v-2.4l10-.4.2 2.5h-3.6l.4 10.8h-3L45.8 29zM62 39L59 34.5h-1.6l.2 5h-3l-.5-13.2L59 26c3 0 5.2.8 5.3 4 0 1.8-.8 3-2.2 3.8l3.3 5.2H62zm-4.5-6.8H59c1.6-.2 2.4-.8 2.3-2 0-1.4-1-1.8-2.5-1.8h-1.5l.2 3.8zM69 34.2l-4.3-8.4H68l1.2 3 1.2 2.8c.4-1 .8-2 1-3l1.2-3 3-.2L72 34l.2 4.7h-3l-.2-4.5zM79.5 25.3h3.2l1.8 6 1.2 4.2c.5-1.5.7-2.8 1-4.3L88 25h3L87.7 38H84l-4.5-13zM92.4 25l8.3-.4V27l-5.2.3V30l4.6-.3.2 2.5-4.5.2v3l5.6-.2v2.5L93 38l-.6-13zM111 37.4l-2.6-4.7h-1.6l.2 5h-3l-.5-13.2 4.8-.2c2.8 0 5 .8 5.2 4 0 1.8-.8 3-2.2 3.8l3.2 5.3H111zm-4.3-7h1.5c1.6 0 2.4-.7 2.3-2 0-1.3-1-1.7-2.5-1.7h-1.5l.2 3.8zM116.8 33.5c1 .8 2.2 1.3 3.3 1.3 1.3 0 2-.5 2-1.3s-1-1-2-1.5l-1.8-.7c-1.4-.5-2.7-1.6-2.8-3.5 0-2.2 1.8-4 4.6-4 1.5-.2 3 .4 4.3 1.5l-1.4 2c-1-.7-1.8-1-3-1-1 0-1.6.4-1.5 1.2 0 .8 1 1 2 1.5l1.8.6c1.6.6 2.7 1.6 2.7 3.5 0 2.3-1.7 4.2-4.8 4.4-1.7 0-3.6-.5-5-1.7l1.6-2.2zM126.8 23.7h3l.5 13-3 .2-.5-13.3zM132.5 30c0-4.3 2.2-7 5.8-7 3.6 0 6 2.3 6.2 6.6 0 4.3-2.2 7-5.8 7-3.5.3-6-2.3-6.2-6.6zm9-.3c-.2-2.6-1.4-4.2-3.2-4-1.8 0-3 1.6-2.8 4.2 0 2.5 1.3 4.2 3 4 2 0 3-1.6 3-4.3zM146.7 23h3l3.8 6.3 1.4 3c-.2-1.5-.5-3.3-.5-5l-.2-4.6h2.8l.6 13-3 .2-3.8-6.6-1.4-2.8c0 1.5.4 3.2.4 4.8l.2 4.7-3 .2-.3-13.2z"/>
            <path fill="#1A1E23" d="M50.2 84.7c3.2-3.2 5.4-5.5 5.3-7.3 0-1.3-.8-2-2-2-.8 0-1.5.8-2 1.5l-1.8-1.6c1.2-1.4 2.4-2 4.2-2.2 2.4 0 4.2 1.5 4.3 4 0 2-2 4.4-4 6.7.7-.2 1.6-.3 2.2-.3H59l.2 2.4-9 .4v-1.7zM63 82.4c1 0 2 .7 2 1.8 0 1-.7 2-1.7 2s-1.8-.8-2-2c0-1 .7-1.8 1.8-1.8zM66.7 79.3c-.2-4.4 1.6-6.7 4.4-6.8 3 0 4.8 2 5 6.5s-1.7 6.8-4.5 7c-2.7 0-4.6-2.3-4.8-6.7zM73 79c0-3.4-.8-4.2-1.8-4-1 0-1.8.7-1.6 4.3 0 3.5 1 4.4 2 4.3 1 0 1.6-1 1.5-4.5zM79.8 81.8c1 0 1.8.7 2 1.8 0 1-.8 2-1.8 2s-1.8-.8-2-2c0-1 .8-1.7 1.8-1.8zM83.5 78.7C83.3 74.3 85 72 88 72c2.7-.2 4.6 2 4.7 6.4s-1.6 6.8-4.4 7c-2.8 0-4.7-2.3-4.8-6.7zm6.3-.2c0-3.5-1-4.3-2-4.2-1 0-1.7.8-1.5 4.4 0 3.5 1 4.4 2 4.3 1 0 1.7-1 1.5-4.5zM105.5 81.3h-4l-.7 3.3h-3l3.7-13.2h3.6l4.7 13h-3.2l-1-3zm-.7-2.3l-.4-1.2-1.2-4.2-1 4.3-.3 1h2.8zM110.5 71h3l.4 10.7 5-.2.2 2.5-8.2.3-.5-13.2zM121 70.7l4.7-.2c3 0 5.2 1 5.3 4 0 3.2-2.2 4.7-5 4.7h-1.8l.2 4.6h-3l-.5-13zm4.7 6.2c1.6-.2 2.4-1 2.4-2.3 0-1.4-.8-2-2.4-1.8H124v4h1.7zM133 70.3h3l.3 5 4.5-.2-.2-5h3l.5 13-3 .2v-5.5l-4.6.2.2 5.4h-3l-.5-13zM153.3 79.7h-4l-.7 3.3h-3l3.7-13.2h3.6l4.5 13h-3.2l-1-3zm-.7-2.3l-.4-1.2L151 72l-1 4.3-.3 1.2h3z"/>
        </symbol>

        <symbol id="usersurvey" viewBox="0 0 200 111">
            <title>spaCy user survey 2017</title>
            <path fill="#ddd" d="M183.3 89.2l-164.6-40-1-29.2 164.6 40M3.8 106.8l41.6-1.4-1-29.2-41.6 1.4L13.2 92"/>
            <path fill="#a3cad3" d="M45.4 105.4L19.6 94.6l25.4-1"/>
            <path fill="#ddd" d="M196.6 2L155 3.4l1 29.2 41.6-1.4L187.2 17"/>
            <path fill="#a3cad3" d="M155 3.4l25.8 10.8-25.4 1"/>
            <path fill="#fff" d="M17.6 19.4l163-5.6 1 29.2-163 5.6zM19.2 65.6l163-5.6 1 29.2-163 5.6z"/>
            <path fill="#008EBC" d="M56.8 29h-3.6v-2.4l10-.4.2 2.5h-3.6l.4 10.8h-3L56.8 29zM71 36l-4 .2-.6 3.2h-3L67 26.2h3.6l4.6 13-3.2.2-1-3zm-.6-2.3l-.4-1.2-1.2-4.2-1 4.3-.3 1.2h3zM76 25.8h3l.3 5.3 4-5.4h3.2l-3.8 5.3 5 7.7h-3.3L81 33.4l-1.5 2V39h-3l-.4-13.2zM88.5 25.4l8.3-.3v2.6l-5.2.2v2.6l4.6-.2v2.5L92 33v3l5.6-.3v2.5l-8.4.3-.5-13zM106.4 27.3h-3.6V25l10-.5.2 2.5h-3.6l.4 10.8h-3l-.4-10.5zM115 24.5h3v5l4.7-.2-.2-5 3-.2.5 13.3h-3l-.2-5.4h-4.6l.2 5.6h-3l-.5-13zM128.5 24l8.3-.3v2.5l-5.2.2V29l4.6-.2v2.5l-4.4.2v3l5.6-.2v2.5l-8.4.3-.5-13z"/>
            <path fill="#1A1E23" d="M44.5 73h3l.3 7.4c0 2.6 1 3.4 2.4 3.4s2.3-1 2.2-3.6l-.3-7.4h3l.2 7c.2 4.4-1.6 6.4-5 6.5-3.4 0-5.3-1.7-5.5-6.2l-.2-7zM59 82c1 1 2.2 1.4 3.3 1.4 1.2 0 1.8-.5 1.8-1.3 0-.7-.7-1-2-1.4l-1.6-.7c-1.4-.6-2.7-1.7-2.8-3.6 0-2.2 1.8-4 4.6-4 1.5-.2 3 .4 4.3 1.5L65 75.7c-1-.6-1.7-1-2.8-1-1 0-1.7.5-1.6 1.2 0 .8 1 1 2 1.5l1.8.6c1.6.7 2.7 1.7 2.7 3.6.2 2.2-1.6 4-4.7 4.3-1.7 0-3.6-.6-5-1.8l1.7-2zM69 72.3l8.3-.3v2.5l-5.2.2.2 2.7 4.5-.2v2.5l-4.4.2v3l5.6-.3v2.5l-8.5.3-.5-13.2zM87.6 84.8L85 80l-1.7.2.2 4.8h-3L80 72l4.8-.3c2.8 0 5 .8 5.2 4 0 1.8-.8 3-2.2 3.8l3.2 5.2h-3.4zm-4.4-7h1.5c1.6 0 2.4-.7 2.3-2 0-1.3-1-1.7-2.5-1.7l-1.5.2.2 3.7zM98 80.8c1 .8 2 1.3 3.2 1.3 1.2 0 1.8-.4 1.8-1.2 0-.8-.8-1-2-1.5l-1.7-.7C98 78 96.6 77 96.5 75c0-2 1.8-4 4.6-4 1.6 0 3.2.5 4.4 1.6l-1.4 2c-1-.7-1.7-1-2.8-1-1 0-1.7.4-1.6 1 0 1 1 1.2 2 1.6l1.8.6c1.6.6 2.7 1.6 2.7 3.5.2 2.2-1.6 4-4.7 4.3-1.7 0-3.6-.5-5-1.7l1.6-2.2zM107.8 71l3-.2.3 7.4c.2 2.6 1 3.4 2.5 3.4s2.3-1 2.2-3.6l-.3-7.4h3v7c.3 4.4-1.5 6.4-5 6.5-3.3.2-5.2-1.6-5.4-6l-.2-7zM129 83.4l-2.8-4.7h-1.6l.2 5h-3l-.5-13.2 4.8-.2c3 0 5.2.8 5.3 4 0 1.8-.8 3-2.2 3.8l3.3 5.3H129zm-4.5-7h1.5c1.6-.2 2.4-1 2.3-2 0-1.4-1-1.8-2.5-1.8h-1.5l.2 3.8zM131.6 70h3.2l1.8 6 1.2 4.3c.5-1.5.7-2.8 1-4.3l1.3-6.2h3.2L139.7 83H136l-4.4-13zM144.6 69.7l8.3-.3V72h-5.3V75l4.6-.2V77l-4.4.3v3l5.5-.2v2.6l-8.4.3-.4-13.3zM158.2 77.7l-4.3-8.4h3l1.4 3 1.2 2.8c.4-1 .8-1.8 1-3l1.2-3h3l-3.6 8.5.2 4.7h-3l-.2-4.5z"/>
        </symbol>

        <symbol id="brain" viewBox="0 0 300 150">
            <!-- by Kemal Sanli: https://dribbble.com/kemal -->
            <title>brain</title>
            <path stroke-width="4" stroke-miterlimit="10" fill="none" stroke="currentColor" d="M187.2 76.1h-5c-1.6 0-2.9-1.3-2.9-2.9V62.7c0-1.6 1.3-2.9 2.9-2.9h5c1.6 0 2.9 1.3 2.9 2.9v10.4c0 1.6-1.3 3-2.9 3zM221.1 63.8h-5c-1.6 0-2.9-1.3-2.9-2.9V50.5c0-1.6 1.3-2.9 2.9-2.9h5c1.6 0 2.9 1.3 2.9 2.9v10.4c0 1.6-1.3 2.9-2.9 2.9zM221.1 88.3h-5c-1.6 0-2.9-1.3-2.9-2.9V74.9c0-1.6 1.3-2.9 2.9-2.9h5c1.6 0 2.9 1.3 2.9 2.9v10.4c0 1.7-1.3 3-2.9 3zM221.1 112.7h-5c-1.6 0-2.9-1.3-2.9-2.9V99.4c0-1.6 1.3-2.9 2.9-2.9h5c1.6 0 2.9 1.3 2.9 2.9v10.4c0 1.6-1.3 2.9-2.9 2.9zM221.1 39.4h-5c-1.6 0-2.9-1.3-2.9-2.9V26.1c0-1.6 1.3-2.9 2.9-2.9h5c1.6 0 2.9 1.3 2.9 2.9v10.4c0 1.6-1.3 2.9-2.9 2.9zM263.2 63.8h-5c-1.6 0-2.9-1.3-2.9-2.9V50.5c0-1.6 1.3-2.9 2.9-2.9h5c1.6 0 2.9 1.3 2.9 2.9v10.4c0 1.6-1.3 2.9-2.9 2.9zM263.2 88.3h-5c-1.6 0-2.9-1.3-2.9-2.9V74.9c0-1.6 1.3-2.9 2.9-2.9h5c1.6 0 2.9 1.3 2.9 2.9v10.4c0 1.7-1.3 3-2.9 3zM263.2 112.7h-5c-1.6 0-2.9-1.3-2.9-2.9V99.4c0-1.6 1.3-2.9 2.9-2.9h5c1.6 0 2.9 1.3 2.9 2.9v10.4c0 1.6-1.3 2.9-2.9 2.9zM263.2 39.4h-5c-1.6 0-2.9-1.3-2.9-2.9V26.1c0-1.6 1.3-2.9 2.9-2.9h5c1.6 0 2.9 1.3 2.9 2.9v10.4c0 1.6-1.3 2.9-2.9 2.9zM191.5 54.3L207.8 34M195.5 61.1l12.3-4M191.5 80.1l16.3 20.4M195.5 73.3l12.3 4.1M236 39.1l11.4 13.6c1.4 1.7 1.5 4.2.1 6l-15.6 19.7c-1.4 1.8-1.4 4.3.1 6L243.4 98c2.6 3.1.4 7.8-3.7 7.8-4 0-6.3-4.7-3.7-7.8l11.4-13.6c1.4-1.7 1.5-4.2.1-6L232 58.8c-1.4-1.8-1.4-4.4.2-6.1l12-13.5c2.7-3.1.6-7.9-3.6-7.9h-.9c-4.1 0-6.3 4.7-3.7 7.8z"/>
            <path fill="none" stroke="currentColor" stroke-width="4" stroke-miterlimit="10" d="M96.1 124.1H63v-11.7c0-12.6-3.7-25-10.7-35.5l-5.9-8.8c-3.2-4.8-4.9-10.4-4.9-16.1 0-22.3 18.1-40.4 40.4-40.4 17.6 0 33.1 11.4 38.5 28.1l10.8 33.8h-11v16.9c0 3.7-3 6.7-6.7 6.7h-12v12.3H77.3V90.2c0-.8-.2-1.6-.5-2.3l-4.5-11.3c-1.7-4.1 1.4-8.6 5.8-8.6 2 0 4-1 5.1-2.7L91.8 53h15.6c0-14-11.3-25.3-25.3-25.3h-.3c-14 0-25.3 11.3-25.3 25.3v1c0 4 3.2 7.2 7.2 7.2 2.4 0 4.6-1.2 6-3.2l11.2-16.8h10.8M139 68.7h29.4"/>
        </symbol>

        <symbol id="computer" viewBox="0 0 300 150">
            <!-- by Kemal Sanli: https://dribbble.com/kemal -->
            <title>computer</title>
            <path fill="none" stroke="currentColor" stroke-width="4" stroke-miterlimit="10" d="M56.2 87.7h-5c-1.6 0-2.9-1.3-2.9-2.9V74.4c0-1.6 1.3-2.9 2.9-2.9h5c1.6 0 2.9 1.3 2.9 2.9v10.4c0 1.6-1.3 2.9-2.9 2.9zM90.1 75.5h-5c-1.6 0-2.9-1.3-2.9-2.9V62.2c0-1.6 1.3-2.9 2.9-2.9h5c1.6 0 2.9 1.3 2.9 2.9v10.4c0 1.6-1.3 2.9-2.9 2.9zM90.1 99.9h-5c-1.6 0-2.9-1.3-2.9-2.9V86.6c0-1.6 1.3-2.9 2.9-2.9h5c1.6 0 2.9 1.3 2.9 2.9V97c0 1.6-1.3 2.9-2.9 2.9zM90.1 124.4h-5c-1.6 0-2.9-1.3-2.9-2.9V111c0-1.6 1.3-2.9 2.9-2.9h5c1.6 0 2.9 1.3 2.9 2.9v10.4c0 1.7-1.3 3-2.9 3zM90.1 51.1h-5c-1.6 0-2.9-1.3-2.9-2.9V37.7c0-1.6 1.3-2.9 2.9-2.9h5c1.6 0 2.9 1.3 2.9 2.9v10.4c0 1.7-1.3 3-2.9 3zM132.2 75.5h-5c-1.6 0-2.9-1.3-2.9-2.9V62.2c0-1.6 1.3-2.9 2.9-2.9h5c1.6 0 2.9 1.3 2.9 2.9v10.4c0 1.6-1.3 2.9-2.9 2.9zM132.2 99.9h-5c-1.6 0-2.9-1.3-2.9-2.9V86.6c0-1.6 1.3-2.9 2.9-2.9h5c1.6 0 2.9 1.3 2.9 2.9V97c0 1.6-1.3 2.9-2.9 2.9zM132.2 124.4h-5c-1.6 0-2.9-1.3-2.9-2.9V111c0-1.6 1.3-2.9 2.9-2.9h5c1.6 0 2.9 1.3 2.9 2.9v10.4c0 1.7-1.3 3-2.9 3zM132.2 51.1h-5c-1.6 0-2.9-1.3-2.9-2.9V37.7c0-1.6 1.3-2.9 2.9-2.9h5c1.6 0 2.9 1.3 2.9 2.9v10.4c0 1.7-1.3 3-2.9 3zM60.5 66l16.3-20.3M64.5 72.8l12.3-4.1M60.5 91.8l16.3 20.4M64.5 85l12.3 4.1M105 50.8l11.4 13.6c1.4 1.7 1.5 4.2.1 6l-15.6 19.7c-1.4 1.8-1.4 4.3.1 6l11.4 13.6c2.6 3.1.4 7.8-3.7 7.8-4 0-6.3-4.7-3.7-7.8l11.4-13.6c1.4-1.7 1.5-4.2.1-6L101 70.5c-1.4-1.8-1.4-4.4.2-6.1l12-13.5c2.7-3.1.6-7.9-3.6-7.9h-.9c-4.1-.1-6.3 4.7-3.7 7.8z"/>
            <path fill="none" stroke="currentColor" stroke-width="4" stroke-miterlimit="10" d="M195.1 42.4h49v40.5h-49z" />
            <path fill="none" stroke="currentColor" stroke-width="4" stroke-miterlimit="10" d="M251.9 116.7h-64.6c-2.2 0-4-1.8-4-4V34.6c0-2.2 1.8-4 4-4h64.6c2.2 0 4 1.8 4 4v78.1c0 2.2-1.8 4-4 4z" />
            <path fill="currentColor" d="M191.8 103.2h6.8v6.8h-6.8zM235.6 91.3v3.4h-21.9v5.1h21.9v3.4h11.9V91.3" />
            <path fill="none" stroke="currentColor" stroke-width="4" stroke-miterlimit="10" d="M245.5 130.2h-51.8c-3.9 0-7-3.1-7-7v-6.5h65.8v6.5c0 3.8-3.1 7-7 7zM146 79.6h25.3" />
        </symbol>

        <symbol id="eye" viewBox="0 0 300 150">
            <!-- by Kemal Sanli: https://dribbble.com/kemal -->
            <title>eye</title>
            <path fill="none" stroke="currentColor" stroke-width="4" stroke-miterlimit="10" d="M40.7 37.1h95.7v71.7H40.7z" />
            <path fill="currentColor" d="M30.4 43.9h10.2v13.7H30.4z" />
            <path fill="none" stroke="currentColor" stroke-width="4" stroke-miterlimit="10" d="M30.4 64.4h10.2v13.7H30.4zM30.4 88.3h10.2V102H30.4zM146 59.3h-9.7V45.6h9.7c3.1 0 5.7 2.5 5.7 5.7v2.3c0 3.2-2.5 5.7-5.7 5.7zM146 96.9h-9.7V83.2h9.7c3.1 0 5.7 2.5 5.7 5.7v2.3c0 3.1-2.5 5.7-5.7 5.7zM59.5 108.8v15.4M117.5 108.8v15.4M40.7 98.3h72V70.6H125M40.7 50.8h53.6M55.3 68.2h10.8v8.7H55.3zM74.7 68.2h10.8v8.7H74.7z"/>
            <path fill="none" stroke="currentColor" stroke-width="4" stroke-miterlimit="10" d="M101.3 77h-3.6c-2 0-3.6-1.6-3.6-3.6v-1.5c0-2 1.6-3.6 3.6-3.6h3.6c2 0 3.6 1.6 3.6 3.6v1.5c0 1.9-1.6 3.6-3.6 3.6zM40.7 88.3h58.8v-7M80.1 88.3v-7M60.7 88.3v-7M80.1 61.7V50.8M60.7 50.8v10.9M104.1 47.8c2.8 5.1-2.4 10.3-7.6 7.6-.7-.4-1.3-1-1.7-1.7-2.8-5.1 2.4-10.3 7.6-7.6.7.4 1.3 1 1.7 1.7z"/>
            <path fill="none" stroke="currentColor" stroke-width="4" stroke-miterlimit="10" d="M104.9 50.8H125V37.1M136.3 90H123" />
            <path fill="none" stroke="currentColor" stroke-width="4" stroke-miterlimit="10" d="M269.5 56.4c15.3 30-14.5 59.8-44.5 44.5-4.9-2.5-8.9-6.5-11.4-11.4C198.2 59.5 228 29.7 258 45c4.9 2.5 8.9 6.5 11.5 11.4z" />
            <path fill="none" stroke="currentColor" stroke-width="4" stroke-miterlimit="10" d="M269.5 56.4c15.3 30-14.5 59.8-44.5 44.5-4.9-2.5-8.9-6.5-11.4-11.4C198.2 59.5 228 29.7 258 45c4.9 2.5 8.9 6.5 11.5 11.4z" />
            <path fill="currentColor" d="M249.5 73c-4.4 0-8-3.6-8-8 0-2.3 1-4.3 2.5-5.8-.8-.1-1.6-.2-2.5-.2-7.8 0-14 6.3-14 14 0 7.8 6.3 14 14 14s14-6.3 14-14c0-.9-.1-1.7-.2-2.5-1.4 1.5-3.5 2.5-5.8 2.5z" />
            <path fill="none" stroke="currentColor" stroke-width="4" stroke-miterlimit="10" d="M195 73h-36.7" />
        </symbol>

        <symbol id="bubble" viewBox="0 0 300 150">
            <!-- by Kemal Sanli: https://dribbble.com/kemal -->
            <title>bubble</title>
            <path fill="none" stroke="currentColor" stroke-width="4" stroke-miterlimit="10" d="M153.5 69h-32.2M88.2 68.6c1.2 9.2-6.6 17-15.8 15.8-6.3-.8-11.4-5.9-12.2-12.2C59 63 66.8 55.2 76 56.4c6.3.9 11.4 5.9 12.2 12.2z" />
            <path fill="none" stroke="currentColor" stroke-width="4" stroke-miterlimit="10" d="M88.2 68.6c1.2 9.2-6.6 17-15.8 15.8-6.3-.8-11.4-5.9-12.2-12.2C59 63 66.8 55.2 76 56.4c6.3.9 11.4 5.9 12.2 12.2z" />
            <path fill="currentColor" d="M77.7 70.5c-1.9 0-3.5-1.6-3.5-3.5 0-1 .4-1.9 1.1-2.5-.4-.1-.7-.1-1.1-.1-3.4 0-6.2 2.8-6.2 6.2 0 3.4 2.8 6.2 6.2 6.2s6.2-2.8 6.2-6.2c0-.4 0-.7-.1-1.1-.7.5-1.6 1-2.6 1z" />
            <path d="M43.9 38.3h60.5v62.6H43.9z" fill="none" stroke="currentColor" stroke-width="4" stroke-miterlimit="10" />
            <path d="M43.9 112.3c0 5.8 4.7 10.5 10.5 10.5h39.4c5.8 0 10.5-4.7 10.5-10.5v-11.4H43.9v11.4zM93.9 20.2H54.5c-5.8 0-10.5 4.7-10.5 10.5v7.6h60.5v-7.6c-.1-5.8-4.8-10.5-10.6-10.5z" fill="none" stroke="currentColor" stroke-width="4" stroke-miterlimit="10"/>
            <path fill="none" stroke="currentColor" stroke-width="4" stroke-miterlimit="10" d="M79.3 110.3c.8 3.8-2.5 7.1-6.3 6.3-1.9-.4-3.5-2-3.9-3.9-.8-3.8 2.5-7.1 6.3-6.3 1.9.5 3.4 2 3.9 3.9zM69.3 30.1h9.8" />
            <path fill="none" stroke="currentColor" stroke-width="4" stroke-miterlimit="10" d="M264 41h-93c-2.3 0-4.2 1.9-4.2 4.2v42.3c0 2.3 1.9 4.2 4.2 4.2h7v22.5l22.5-22.5H264c2.3 0 4.2-1.9 4.2-4.2V45.2c0-2.3-1.9-4.2-4.2-4.2z" />
            <path fill="currentColor" d="M183.4 53.8c1.2 2.5-1.3 5-3.8 3.8-.5-.2-1-.7-1.2-1.2-1.2-2.5 1.3-5 3.8-3.8.5.2 1 .6 1.2 1.2zM189.4 52.2h16.9v5.6h-16.9zM211.9 52.2h33.8v5.6h-33.8zM178.1 74.8h5.6v5.6h-5.6zM189.4 74.8h33.8v5.6h-33.8zM240.1 74.8H257v5.6h-16.9zM251.3 52.2h5.6v5.6h-5.6zM178.1 63.5h22.5v5.6h-22.5zM217.5 63.5h12.7v5.6h-12.7zM234.4 63.5h22.5v5.6h-22.5zM209.2 69.1h-.3c-1.5 0-2.7-1.2-2.7-2.7v-.3c0-1.5 1.2-2.7 2.7-2.7h.3c1.5 0 2.7 1.2 2.7 2.7v.3c0 1.5-1.2 2.7-2.7 2.7zM234.1 76.3c1.2 2.5-1.3 5-3.8 3.8-.5-.2-1-.7-1.2-1.2-1.2-2.5 1.3-5 3.8-3.8.6.2 1 .7 1.2 1.2z"/>
        </symbol>

        <symbol id="spacy" viewBox="0 0 675 215">
            <title>spacy</title>
            <path fill="currentColor" d="M83.6 83.3C68.3 81.5 67.2 61 47.5 62.8c-9.5 0-18.4 4-18.4 12.7 0 13.2 20.3 14.4 32.5 17.7 20.9 6.3 41 10.7 41 33.3 0 28.8-22.6 38.8-52.4 38.8-24.9 0-50.2-8.9-50.2-31.8 0-6.4 6.1-11.3 12-11.3 7.5 0 10.1 3.2 12.7 8.4 5.8 10.2 12.3 15.6 28.3 15.6 10.2 0 20.6-3.9 20.6-12.7 0-12.6-12.8-15.3-26.1-18.4-23.5-6.6-43.6-10-46-36.1C-1 34.5 91.7 32.9 97 71.9c.1 7.1-6.5 11.4-13.4 11.4zm110.2-39c32.5 0 51 27.2 51 60.8 0 33.7-17.9 60.8-51 60.8-18.4 0-29.8-7.8-38.1-19.8v44.5c0 13.4-4.3 19.8-14.1 19.8-11.9 0-14.1-7.6-14.1-19.8V61.3c0-10.6 4.4-17 14.1-17 9.1 0 14.1 7.2 14.1 17v3.6c9.2-11.6 19.7-20.6 38.1-20.6zm-7.7 98.4c19.1 0 27.6-17.6 27.6-38.1 0-20.1-8.6-38.1-27.6-38.1-19.8 0-29 16.3-29 38.1 0 21.2 9.2 38.1 29 38.1zM266.9 76c0-23.4 26.9-31.7 52.9-31.7 36.6 0 51.7 10.7 51.7 46v34c0 8.1 5 24.1 5 29 0 7.4-6.8 12-14.1 12-8.1 0-14.1-9.5-18.4-16.3-11.9 9.5-24.5 16.3-43.8 16.3-21.3 0-38.1-12.6-38.1-33.3 0-18.4 13.2-28.9 29-32.5 0 .1 51-12 51-12.1 0-15.7-5.5-22.6-22-22.6-14.5 0-21.9 4-27.5 12.7-4.5 6.6-4 10.6-12.7 10.6-6.9-.1-13-4.9-13-12.1zm43.6 70.2c22.3 0 31.8-11.8 31.8-35.3v-5c-6 2-30.3 8-36.8 9.1-7 1.4-14.1 6.6-14.1 14.9.1 9.1 9.4 16.3 19.1 16.3zM474.5 0c31.5 0 65.7 18.8 65.7 48.8 0 7.7-5.8 14.1-13.4 14.1-10.3 0-11.8-5.5-16.3-13.4-7.6-13.9-16.5-23.3-36.1-23.3-30.2-.2-43.7 25.6-43.7 57.8 0 32.4 11.2 55.8 42.4 55.8 20.7 0 32.2-12 38.1-27.6 2.4-7.1 6.7-14.1 15.6-14.1 7 0 14.1 7.2 14.1 14.8 0 31.8-32.4 53.8-65.8 53.8-36.5 0-57.2-15.4-68.5-41-5.5-12.2-9.1-24.9-9.1-42.4-.1-49.2 28.6-83.3 77-83.3zm180.3 44.3c8 0 12.7 5.2 12.7 13.4 0 3.3-2.6 9.9-3.6 13.4L625.1 173c-8.6 22.1-15.1 37.4-44.5 37.4-14 0-26.1-1.2-26.1-13.4 0-7 5.3-10.6 12.7-10.6 1.4 0 3.6.7 5 .7 2.1 0 3.6.7 5 .7 14.7 0 16.8-15.1 22-25.5l-37.4-92.6c-2.1-5-3.6-8.4-3.6-11.3 0-8.2 6.4-14.1 14.8-14.1 9.5 0 13.3 7.5 15.6 15.6l24.7 73.5L638 65.5c3.9-10.5 4.2-21.2 16.8-21.2z" />
        </symbol>

        <symbol id="explosion" viewBox="0 0 500 500">
            <title>explosion</title>
            <path fill="currentColor" d="M111.7 74.9L91.2 93.1l9.1 10.2 17.8-15.8 7.4 8.4-17.8 15.8 10.1 11.4 20.6-18.2 7.7 8.7-30.4 26.9-41.9-47.3 30.3-26.9 7.6 8.6zM190.8 59.6L219 84.3l-14.4 4.5-20.4-18.2-6.4 26.6-14.4 4.5 8.9-36.4-26.9-24.1 14.3-4.5L179 54.2l5.7-25.2 14.3-4.5-8.2 35.1zM250.1 21.2l27.1 3.4c6.1.8 10.8 3.1 14 7.2 3.2 4.1 4.5 9.2 3.7 15.5-.8 6.3-3.2 11-7.4 14.1-4.1 3.1-9.2 4.3-15.3 3.5L258 63.2l-2.8 22.3-13-1.6 7.9-62.7zm11.5 13l-2.2 17.5 12.6 1.6c5.1.6 9.1-2 9.8-7.6.7-5.6-2.5-9.2-7.6-9.9l-12.6-1.6zM329.1 95.4l23.8 13.8-5.8 10L312 98.8l31.8-54.6 11.3 6.6-26 44.6zM440.5 145c-1.3 8.4-5.9 15.4-13.9 21.1s-16.2 7.7-24.6 6.1c-8.4-1.6-15.3-6.3-20.8-14.1-5.5-7.9-7.6-16-6.4-24.4 1.3-8.5 6-15.5 14-21.1 8-5.6 16.2-7.7 24.5-6 8.4 1.6 15.4 6.3 20.9 14.2 5.5 7.6 7.6 15.7 6.3 24.2zM412 119c-5.1-.8-10.3.6-15.6 4.4-5.2 3.7-8.4 8.1-9.4 13.2-1 5.2.2 10.1 3.5 14.8 3.4 4.8 7.5 7.5 12.7 8.2 5.2.8 10.4-.7 15.6-4.4 5.3-3.7 8.4-8.1 9.4-13.2 1.1-5.1-.1-9.9-3.4-14.7-3.4-4.8-7.6-7.6-12.8-8.3zM471.5 237.9c-2.8 4.8-7.1 7.6-13 8.7l-2.6-13.1c5.3-.9 8.1-5 7.2-11-.9-5.8-4.3-8.8-8.9-8.2-2.3.3-3.7 1.4-4.5 3.3-.7 1.9-1.4 5.2-1.7 10.1-.8 7.5-2.2 13.1-4.3 16.9-2.1 3.9-5.7 6.2-10.9 7-6.3.9-11.3-.5-15.2-4.4-3.9-3.8-6.3-9-7.3-15.7-1.1-7.4-.2-13.7 2.6-18.8 2.8-5.1 7.4-8.2 13.7-9.2l2.6 13c-5.6 1.1-8.7 6.6-7.7 13.4 1 6.6 3.9 9.5 8.6 8.8 4.4-.7 5.7-4.5 6.7-14.1.3-3.5.7-6.2 1.1-8.4.4-2.2 1.2-4.4 2.2-6.8 2.1-4.7 6-7.2 11.8-8.1 5.4-.8 10.3.4 14.5 3.7 4.2 3.3 6.9 8.5 8 15.6.9 6.9-.1 12.6-2.9 17.3zM408.6 293.5l2.4-12.9 62 11.7-2.4 12.9-62-11.7zM419.6 396.9c-8.3 2-16.5.3-24.8-5-8.2-5.3-13.2-12.1-14.9-20.5-1.6-8.4.1-16.6 5.3-24.6 5.2-8.1 11.9-13.1 20.2-15.1 8.4-1.9 16.6-.3 24.9 5 8.2 5.3 13.2 12.1 14.8 20.5 1.7 8.4 0 16.6-5.2 24.7-5.2 8-12 13-20.3 15zm13.4-36.3c-1.2-5.1-4.5-9.3-9.9-12.8s-10.6-4.7-15.8-3.7-9.3 4-12.4 8.9-4.1 9.8-2.8 14.8c1.2 5.1 4.5 9.3 9.9 12.8 5.5 3.5 10.7 4.8 15.8 3.7 5.1-.9 9.2-3.8 12.3-8.7s4.1-9.9 2.9-15zM303.6 416.5l9.6-5.4 43.3 20.4-19.2-34 11.4-6.4 31 55-9.6 5.4-43.4-20.5 19.2 34.1-11.3 6.4-31-55zM238.2 468.8c-49 0-96.9-17.4-134.8-49-38.3-32-64-76.7-72.5-125.9-2-11.9-3.1-24-3.1-35.9 0-36.5 9.6-72.6 27.9-104.4 2.1-3.6 6.7-4.9 10.3-2.8 3.6 2.1 4.9 6.7 2.8 10.3-16.9 29.5-25.9 63.1-25.9 96.9 0 11.1 1 22.3 2.9 33.4 7.9 45.7 31.8 87.2 67.3 116.9 35.2 29.3 79.6 45.5 125.1 45.5 11.1 0 22.3-1 33.4-2.9 4.1-.7 8 2 8.7 6.1.7 4.1-2 8-6.1 8.7-11.9 2-24 3.1-36 3.1z"/>
        </symbol>

        <symbol id="matt-signature" viewBox="0 0 500 250">
            <title>matt-signature</title>
            <path fill="currentColor" d="M18.6 207c-.3-18.8-.8-37.5-1.4-56.2-.6-18.7-1-37.5-1-56.2v-7.2c0-3.5 0-7 .2-11v-18c.8-2.7 1.8-5 3-6.5 1.6-2 3.6-3 6.4-3 3 0 5.4 1 7.6 2 2.2 2 4 4 5.3 6l36.6 71 1.8 3c1 1 2 3 3 3h1l1 1 1-3 22-76c2-3 3-5 4-8l2-9c1-3 2-6 4-8 1-3 4-5 7-7h2c5 0 8 1 10 4 3 2 4 5 5 9 1 3 2 7 1 12v11l1 7c0 3 0 7 1 12 0 4 1 9 1 14l1 14.2 1 12 .6 6v1l1 7.5 1 11.6 1.4 12 1.4 8 1 4 1.7 5.5 1.7 6c.7 1.7 1 3 1.5 3.6-.5 4-1.5 7-3 9-1 2-4 3-8 3h-6l-3-3c-1-1.4-2-2.3-2-3l-4-14-7.6-58V88c0-3.5-1-7-2-10l-2 1.7-18 74v6c0 2-.2 4-1 6 0 2-1 3.5-3 5-1 1.3-3 2-5 2.2-1 0-2 0-3-1l-3.4-2-3-3c-1-1-1.7-2-2-3l-35-52-5.3-10.6v22c0 10.2.2 20.3.6 30.2.4 10 .6 20 .6 30.2v22c0 2-1 4-3 5.4s-3 3-5 3c-3 0-5 0-7-1-1-1-3-3-4-5zm205-63.2c-1.6 2.7-3.4 6-5.3 9.8l-6.2 12.2c-2 4.3-4 8.6-7 13-2 4.2-5 8.2-8 11.7s-5 6.6-9 9c-3 2.5-6 4-9 4.4-1 0-3-1-4-1l-5-2c-1-1-3-2-4-3s-1-3-1-5c1-18 2-33 4-47s6-27 11-38 12-20 20-27 18-12 29-15l2-1h2c5 0 9 2 11 7s4 12 5 23c1 10 2 24 2 40 1 16 2 36 3 59l1 4v5c0 2.6-1 4.5-2 6s-3 2-5 2c-5 0-8-1.7-10-4s-3-6.6-4-11v-4l-1-9s-1-6.7-1-10l-1-8.5v-1l-.2-6-1-7-.5-8.6-1-1zM218 93.5c-4.7 3.4-9.2 8-13.6 13.7-4.4 5.8-7.5 11.3-9.4 16.8-.8 2.5-1.8 6-2.8 10.4-1 4.4-2 8.8-2.7 13l-2 12-.7 7c.2 0 .4-.2.6-.5l.6-1c10.5-10 18-21 22.2-33 4.6-12 7-25 7.7-39zm72 47c-2.3 0-4.4.6-6.2 1.8-2 1.2-4 1.8-6.6 1.8h-5.4c-.7-1-1.4-1-2.3-2l-2.5-2c-.8 0-1.6-1-2.2-2-.6-1-1-2-1-3 0-2 1-4 3-6 2-1 4.5-3 7.2-4l8.3-3s5-2 6.7-3v-11c0-12-.6-25-1.8-38-1.2-12-1.8-25-1.8-37 0-3 .8-6 2.5-7 1-1 4-1 6-1 3 0 6 1 7 3s2 4 3 7c0 3 1 6 1 9v20l1 18 1 18 1 12 4-1 6-2 6-2 4-1 14-6c4-2.3 9-3.4 14-3.4 3 0 6 1 7 3.5s3 5 3 8c0 2-1 4-3 5l-6 3-46 17-1.5 1s-1 0-1.5 1v8c0 6 0 12 .5 18s1 12.3 2 18.3l3 15c1 5 1.4 10 1.4 15 0 1.4-.6 3.5-1.6 6s-2 4-4.7 4c-5 0-8.7-1.6-11.6-4-3-3-4.3-6.6-4.6-11l-2.2-29-2.7-30h-1zm112 0c-2.4 0-4.5.6-6.3 1.8-2 1.2-4 1.8-6.6 1.8h-5c0-1-1-1-2-2l-2-2c-1 0-1-1-2-2 0-1-1-2-1-3 0-2 1-4 3-6 2-1 5-3 7-4l8-3s5-2 7-3v-11c0-12 0-25-2-38-1-12-1-25-1-37 0-3 1-6 3-7s4-1 7-1c4 0 6 1 8 3s3 4 3 7c1 3 1 6 1 9s0 6 1 8v11l1 18 1 18 1 12 4-1 6-2 6-2 4-1 14-6c4-2 9-4 14-4 4 0 6 1 8 4s3 5 3 8c0 2-1 4-2 5l-5.3 3-49 13.8-1.5 1s-1 .5-1.5 1V157l1 18.3c0 5 1 10 2 15s1 10 1 15c0 1.5-1 3.6-2 6s-3 4-5 4c-5 0-9-1.5-12-4.2s-5-6-5-11l-3-28.3-3-30.3h-1z"/>
        </symbol>
    </defs>
</svg>
