<svg style="position: absolute; width: 0; height: 0;" width="0" height="0" version="1.1" xmlns="http://www.w3.org/2000/svg" xmlns:xlink="http://www.w3.org/1999/xlink">
    <defs>
        <symbol id="icon-mail" viewBox="0 0 32 32">
            <title>mail</title>
            <path class="path1" d="M29 4h-26c-1.657 0-3 1.343-3 3v18c0 1.656 1.343 3 3 3h26c1.657 0 3-1.344 3-3v-18c0-1.657-1.343-3-3-3zM2.741 25.99l-0.731-0.732 8.249-8.248 0.731 0.732-8.249 8.248zM29.259 25.99l-8.249-8.248 0.731-0.732 8.249 8.248-0.731 0.732zM17 19.325v0.675h-2v-0.675l-12.997-12.050 1.272-1.272 12.725 11.798 12.725-11.798 1.272 1.272-12.997 12.050z"></path>
        </symbol>
        <symbol id="icon-menu" viewBox="0 0 24 24">
            <title>menu</title>
            <path class="path1" d="M3 5h18q0.414 0 0.707 0.293t0.293 0.707-0.293 0.707-0.707 0.293h-18q-0.414 0-0.707-0.293t-0.293-0.707 0.293-0.707 0.707-0.293zM3 17h18q0.414 0 0.707 0.293t0.293 0.707-0.293 0.707-0.707 0.293h-18q-0.414 0-0.707-0.293t-0.293-0.707 0.293-0.707 0.707-0.293zM3 11h18q0.414 0 0.707 0.293t0.293 0.707-0.293 0.707-0.707 0.293h-18q-0.414 0-0.707-0.293t-0.293-0.707 0.293-0.707 0.707-0.293z"></path>
        </symbol>
        <symbol id="icon-link" viewBox="0 0 32 32">
            <title>link</title>
            <path class="path1" d="M13.757 19.868c-0.416 0-0.832-0.159-1.149-0.476-2.973-2.973-2.973-7.81 0-10.783l6-6c1.44-1.44 3.355-2.233 5.392-2.233s3.951 0.793 5.392 2.233c2.973 2.973 2.973 7.81 0 10.783l-2.743 2.743c-0.635 0.635-1.663 0.635-2.298 0s-0.635-1.663 0-2.298l2.743-2.743c1.706-1.706 1.706-4.481 0-6.187-0.826-0.826-1.925-1.281-3.094-1.281s-2.267 0.455-3.094 1.281l-6 6c-1.706 1.706-1.706 4.481 0 6.187 0.635 0.635 0.635 1.663 0 2.298-0.317 0.317-0.733 0.476-1.149 0.476z"></path>
            <path class="path2" d="M8 31.625c-2.037 0-3.952-0.793-5.392-2.233-2.973-2.973-2.973-7.81 0-10.783l2.743-2.743c0.635-0.635 1.664-0.635 2.298 0s0.635 1.663 0 2.298l-2.743 2.743c-1.706 1.706-1.706 4.481 0 6.187 0.826 0.826 1.925 1.281 3.094 1.281s2.267-0.455 3.094-1.281l6-6c1.706-1.706 1.706-4.481 0-6.187-0.635-0.635-0.635-1.663 0-2.298s1.663-0.635 2.298 0c2.973 2.973 2.973 7.81 0 10.783l-6 6c-1.44 1.44-3.355 2.233-5.392 2.233z"></path>
        </symbol>
        <symbol id="icon-github" viewBox="0 0 27 32">
            <title>github</title>
            <path class="path1" d="M13.714 2.286q3.732 0 6.884 1.839t4.991 4.991 1.839 6.884q0 4.482-2.616 8.063t-6.759 4.955q-0.482 0.089-0.714-0.125t-0.232-0.536q0-0.054 0.009-1.366t0.009-2.402q0-1.732-0.929-2.536 1.018-0.107 1.83-0.321t1.679-0.696 1.446-1.188 0.946-1.875 0.366-2.688q0-2.125-1.411-3.679 0.661-1.625-0.143-3.643-0.5-0.161-1.446 0.196t-1.643 0.786l-0.679 0.429q-1.661-0.464-3.429-0.464t-3.429 0.464q-0.286-0.196-0.759-0.482t-1.491-0.688-1.518-0.241q-0.804 2.018-0.143 3.643-1.411 1.554-1.411 3.679 0 1.518 0.366 2.679t0.938 1.875 1.438 1.196 1.679 0.696 1.83 0.321q-0.696 0.643-0.875 1.839-0.375 0.179-0.804 0.268t-1.018 0.089-1.17-0.384-0.991-1.116q-0.339-0.571-0.866-0.929t-0.884-0.429l-0.357-0.054q-0.375 0-0.518 0.080t-0.089 0.205 0.161 0.25 0.232 0.214l0.125 0.089q0.393 0.179 0.777 0.679t0.563 0.911l0.179 0.411q0.232 0.679 0.786 1.098t1.196 0.536 1.241 0.125 0.991-0.063l0.411-0.071q0 0.679 0.009 1.58t0.009 0.973q0 0.321-0.232 0.536t-0.714 0.125q-4.143-1.375-6.759-4.955t-2.616-8.063q0-3.732 1.839-6.884t4.991-4.991 6.884-1.839zM5.196 21.982q0.054-0.125-0.125-0.214-0.179-0.054-0.232 0.036-0.054 0.125 0.125 0.214 0.161 0.107 0.232-0.036zM5.75 22.589q0.125-0.089-0.036-0.286-0.179-0.161-0.286-0.054-0.125 0.089 0.036 0.286 0.179 0.179 0.286 0.054zM6.286 23.393q0.161-0.125 0-0.339-0.143-0.232-0.304-0.107-0.161 0.089 0 0.321t0.304 0.125zM7.036 24.143q0.143-0.143-0.071-0.339-0.214-0.214-0.357-0.054-0.161 0.143 0.071 0.339 0.214 0.214 0.357 0.054zM8.054 24.589q0.054-0.196-0.232-0.286-0.268-0.071-0.339 0.125t0.232 0.268q0.268 0.107 0.339-0.107zM9.179 24.679q0-0.232-0.304-0.196-0.286 0-0.286 0.196 0 0.232 0.304 0.196 0.286 0 0.286-0.196zM10.214 24.5q-0.036-0.196-0.321-0.161-0.286 0.054-0.25 0.268t0.321 0.143 0.25-0.25z"></path>
        </symbol>
        <symbol id="icon-twitter" viewBox="0 0 30 32">
            <title>twitter</title>
            <path class="path1" d="M28.929 7.286q-1.196 1.75-2.893 2.982 0.018 0.25 0.018 0.75 0 2.321-0.679 4.634t-2.063 4.437-3.295 3.759-4.607 2.607-5.768 0.973q-4.839 0-8.857-2.589 0.625 0.071 1.393 0.071 4.018 0 7.161-2.464-1.875-0.036-3.357-1.152t-2.036-2.848q0.589 0.089 1.089 0.089 0.768 0 1.518-0.196-2-0.411-3.313-1.991t-1.313-3.67v-0.071q1.214 0.679 2.607 0.732-1.179-0.786-1.875-2.054t-0.696-2.75q0-1.571 0.786-2.911 2.161 2.661 5.259 4.259t6.634 1.777q-0.143-0.679-0.143-1.321 0-2.393 1.688-4.080t4.080-1.688q2.5 0 4.214 1.821 1.946-0.375 3.661-1.393-0.661 2.054-2.536 3.179 1.661-0.179 3.321-0.893z"></path>
        </symbol>
        <symbol id="icon-reddit" viewBox="0 0 32 32">
            <title>reddit</title>
            <path class="path1" d="M19.554 20.839q0.286 0.286 0 0.554-1.107 1.107-3.554 1.107t-3.554-1.107q-0.286-0.268 0-0.554 0.107-0.107 0.268-0.107t0.268 0.107q0.857 0.875 3.018 0.875 2.143 0 3.018-0.875 0.107-0.107 0.268-0.107t0.268 0.107zM14.071 17.607q0 0.661-0.464 1.125t-1.125 0.464-1.134-0.464-0.473-1.125q0-0.679 0.473-1.143t1.134-0.464 1.125 0.473 0.464 1.134zM21.125 17.607q0 0.661-0.473 1.125t-1.134 0.464-1.125-0.464-0.464-1.125 0.464-1.134 1.125-0.473 1.134 0.464 0.473 1.143zM25.607 15.464q0-0.875-0.625-1.5t-1.518-0.625-1.536 0.643q-2.321-1.607-5.554-1.714l1.125-5.054 3.571 0.804q0 0.661 0.464 1.125t1.125 0.464 1.134-0.473 0.473-1.134-0.473-1.134-1.134-0.473q-0.964 0-1.429 0.893l-3.946-0.875q-0.339-0.089-0.446 0.286l-1.232 5.571q-3.214 0.125-5.518 1.732-0.625-0.661-1.554-0.661-0.893 0-1.518 0.625t-0.625 1.5q0 0.625 0.33 1.143t0.884 0.786q-0.107 0.482-0.107 1 0 2.536 2.5 4.339t6.018 1.804q3.536 0 6.036-1.804t2.5-4.339q0-0.571-0.125-1.018 0.536-0.268 0.857-0.777t0.321-1.134zM32 16q0 3.25-1.268 6.214t-3.411 5.107-5.107 3.411-6.214 1.268-6.214-1.268-5.107-3.411-3.411-5.107-1.268-6.214 1.268-6.214 3.411-5.107 5.107-3.411 6.214-1.268 6.214 1.268 5.107 3.411 3.411 5.107 1.268 6.214z"></path>
        </symbol>
    </defs>
</svg>
