<svg xmlns="http://www.w3.org/2000/svg" width="220" height="37" viewBox="0 0 610 103">
<defs>
    <radialGradient id="gradient_allenai1 "cx="75.721" cy="20.894" r="11.05" gradientUnits="userSpaceOnUse">
        <stop offset=".3" stop-color="#FDEA65" />
        <stop offset="1" stop-color="#FCB431" />
    </radialGradient>
    <radialGradient id="gradient_allenai2" cx="75.4" cy="42.297" r="82.993" gradientUnits="userSpaceOnUse">
        <stop offset="0" stop-color="#3FA9D0" />
        <stop offset="1" stop-color="#183A74" />
    </radialGradient>
</defs>

<path fill="#FFE266" d="M87.446 21.648c-.8 0-1.6-.014-2.397.01-.177.006-.42.11-.5.247-.062.104.047.363.152.497.63.803 1.292 1.58 1.917 2.388.115.15.21.452.135.574-.08.13-.38.194-.57.174-1.09-.113-2.173-.263-3.26-.395-.607-.074-.776.146-.548.71.447 1.11.9 2.218 1.35 3.327.09.222.218.49-.05.626-.15.078-.43.04-.593-.052-1.16-.65-2.303-1.333-3.458-1.993-.39-.222-.52-.504-.41-.955.3-1.227.998-2.204 1.893-3.046 1.4-1.317 2.212-2.923 2.533-4.812.756-4.46-2.55-8.847-6.994-9.385-4.702-.57-9.366 3.225-9.05 8.6.128 2.157.943 4.006 2.517 5.508.923.882 1.675 1.868 1.98 3.143.1.42.002.71-.38.93-1.166.67-2.32 1.36-3.495 2.018-.16.09-.398.043-.6.06-.014-.204-.096-.432-.03-.605.422-1.104.877-2.194 1.32-3.29.26-.648.097-.86-.586-.774-1.07.137-2.14.28-3.215.39-.187.02-.49-.062-.56-.19-.068-.13.04-.42.156-.573.607-.783 1.252-1.537 1.86-2.318.12-.155.24-.434.177-.57-.062-.136-.355-.228-.548-.23-1.54-.013-3.078 0-4.617.005-.255 0-.583.026-.59-.296-.006-.18.212-.436.397-.538 1.243-.684 2.508-1.326 3.753-2.007.177-.097.282-.33.42-.498-.18-.127-.342-.323-.54-.373-1.52-.377-3.048-.716-4.567-1.097-.185-.046-.327-.266-.49-.405.163-.14.306-.36.49-.402 1.698-.395 3.405-.752 5.105-1.142.188-.043.345-.224.517-.34-.12-.17-.2-.393-.36-.5-1.32-.874-2.654-1.726-3.983-2.584-.063-.04-.152-.064-.184-.12-.09-.167-.158-.345-.235-.518.174-.076.358-.234.518-.212 1.084.145 2.163.328 3.244.5.467.074.932.172 1.402.212.177.015.43-.053.528-.178.073-.093.003-.37-.087-.51-.944-1.484-1.906-2.958-2.863-4.435-.04-.062-.108-.12-.117-.186-.026-.2-.03-.4-.04-.602.2.002.444-.07.596.018 1.178.683 2.336 1.396 3.5 2.1.494.297.98.613 1.486.885.156.084.44.132.55.047.112-.088.146-.372.105-.545-.45-1.943-.92-3.88-1.392-5.82-.063-.26-.12-.51.176-.65.315-.15.455.108.598.31 1.164 1.642 2.32 3.29 3.494 4.92.12.17.354.26.535.387.12-.2.316-.39.347-.602.45-2.39 1.082-4.377 1.354-5.93.04-.268.08-.543.4-.555.36-.013.39.28.43.557.336 1.762 1.266 3.96 1.33 5.71.043.28.156.69.352.777.387.172.517-.284.694-.53 1.093-1.53 2.174-3.065 3.26-4.6.05-.07.087-.172.157-.21.174-.094.364-.16.547-.237.063.19.214.402.176.57-.366 1.614-.763 3.22-1.15 4.83-.087.36-.197.715-.247 1.08-.026.178 0 .455.11.535.116.083.398.037.548-.052 1.628-.964 3.245-1.95 4.865-2.928.228-.138.5-.353.69-.047.093.15.026.484-.086.66-.93 1.478-1.893 2.932-2.827 4.406-.12.19-.13.45-.19.676.245.045.498.16.73.126 1.448-.21 2.89-.454 4.336-.686.25-.04.522-.102.633.225.107.32-.144.45-.354.587-1.34.868-2.69 1.725-4.02 2.607-.168.11-.25.353-.373.533.174.11.334.28.523.322 1.628.37 3.26.717 4.893 1.073.115.025.25.024.34.088.13.095.323.245.313.355-.013.146-.17.348-.312.4-.372.133-.77.2-1.158.29-1.18.275-2.363.536-3.537.835-.21.053-.378.262-.566.4.146.163.262.383.445.482 1.206.66 2.426 1.292 3.64 1.935.066.035.154.054.192.108.115.164.21.342.313.514-.166.09-.33.252-.5.26-.797.026-1.597.01-2.396.01.002-.003.002-.008.002-.012z" />
<path fill="url(#gradient_allenai1)" d="M71.603 33.652c-.09-.64-.137-1.244-.264-1.832-.712-3.286-1.683-6.49-3.134-9.532-.502-1.054-1.07-2.076-1.304-3.233-.475-2.357-.127-4.583 1.133-6.643 1.34-2.192 3.3-3.552 5.795-4.066 2.904-.598 5.526.072 7.798 2.007 1.602 1.365 2.556 3.113 2.95 5.163.406 2.103.066 4.105-.988 5.968-.82 1.452-1.652 2.897-2.143 4.503-.34 1.117-.653 2.24-.99 3.36-.034.11-.138.253-.236.28-2.556.677-4.873 1.887-7.142 3.203-.476.276-.963.537-1.475.822z" />
<path fill="#3D3D3D" d="M610.03 87.8v2.818h-13.405v-17.93h13.277v2.817h-10.13v4.663h8.98v2.818h-8.98V87.8zM584.123 75.272c-3.404 0-5.912 2.818-5.912 6.328v.05c0 3.51 2.484 6.354 5.913 6.354 2.2 0 3.607-.87 5.14-2.307l2.024 2.05c-1.866 1.946-3.914 3.177-7.27 3.177-5.217.004-9.104-4.07-9.104-9.22v-.053c0-5.097 3.81-9.27 9.233-9.27 3.303 0 5.298 1.15 7.013 2.792l-2.022 2.327c-1.435-1.332-2.967-2.228-5.015-2.228zM566.425 90.618L556.55 77.86v12.758h-3.1v-17.93h2.919l9.6 12.4v-12.4h3.09v17.93zM547.68 87.8v2.818h-13.406v-17.93h13.28v2.817H537.42v4.663h8.98v2.818h-8.98V87.8zM520.52 83.345V80.6h7.627v7.535c-1.766 1.51-4.298 2.794-7.472 2.794-5.608 0-9.292-4-9.292-9.226v-.052c0-5.02 3.838-9.27 9.236-9.27 3.12 0 5.04.87 6.885 2.433l-1.996 2.382c-1.385-1.178-2.737-1.922-5.015-1.922-3.303 0-5.81 2.896-5.81 6.328v.05c0 3.688 2.434 6.406 6.094 6.406 1.685 0 3.22-.54 4.322-1.36v-3.355h-4.58zM502.203 72.687h3.146V90.62h-3.147zM484.148 90.618v-17.93h3.147v15.06h9.418v2.87zM466.272 90.618v-17.93h3.15v15.06h9.413v2.87zM460.495 87.8v2.818h-13.402v-17.93h13.274v2.817h-10.13v4.663h8.982v2.818h-8.984V87.8zM436.045 75.606v15.012h-3.17V75.606h-5.685v-2.92h14.533v2.92zM419.19 90.618l-9.874-12.758v12.758h-3.097v-17.93h2.915l9.595 12.4v-12.4h3.095v17.93zM396.25 72.687h3.145V90.62h-3.146zM368.475 90.618v-17.93h3.146v15.06h9.415v2.87zM355.488 72.56h-2.92l-7.878 18.06h3.225l1.842-4.33h8.47l1.814 4.33h3.327l-7.88-18.06zm-4.58 10.936l3.068-7.172 3.097 7.172h-6.166zM336.25 72.687h3.145V90.62h-3.144zM323.568 75.272c-3.4 0-5.91 2.818-5.91 6.328v.05c0 3.51 2.484 6.354 5.91 6.354 2.202 0 3.61-.87 5.143-2.307l2.024 2.05c-1.867 1.946-3.916 3.177-7.27 3.177-5.218.004-9.104-4.07-9.104-9.22v-.053c0-5.097 3.81-9.27 9.234-9.27 3.302 0 5.298 1.15 7.01 2.792l-2.02 2.327c-1.434-1.332-2.967-2.228-5.016-2.228zM305.18 72.687h3.143V90.62h-3.144zM289.323 75.557v4.89h9.032v2.87h-9.032v7.3h-3.146v-17.93h13.33v2.87zM276.203 72.687h3.146V90.62h-3.147zM264.98 75.606v15.012h-3.173V75.606h-5.682v-2.92h14.534v2.92zM247.33 83.83c2.483-.718 4.25-2.483 4.25-5.43v-.052c0-1.562-.537-2.896-1.485-3.868-1.148-1.128-2.916-1.794-5.168-1.794h-7.982v17.932h3.146v-6.25h3.94l4.403 6.25h3.734l-4.836-6.788zm-7.237-2.254v-6.02h4.58c2.328 0 3.71 1.05 3.71 2.97v.054c0 1.816-1.434 2.996-3.686 2.996h-4.604zM223.96 72.56h-2.92l-7.883 18.06h3.226l1.842-4.33h8.47l1.816 4.33h3.327l-7.878-18.06zm-4.583 10.936l3.068-7.172 3.098 7.172h-6.166zM199.913 79.702c-.742 0-.972-.485-.972-.947 0-.486.13-.616.13-.744 0-.178-.103-.253-.333-.253-1.202 0-3.326 2.74-3.684 3.945l-1.866 6.353h-1.994l2.966-10.09h-1.767l.102-.412h.948c1.306 0 2.354-.053 3.044-.562l-1.05 3.175.05.053c.694-1.254 2.508-3.074 4.12-3.074 1.126 0 1.636.616 1.636 1.28 0 .845-.69 1.278-1.33 1.278zM184.16 76.99c-3.785 0-6.65 3.69-6.65 6.89 0 2.486 1.33 4.484 4.145 4.484 3.07 0 6.422-3.098 6.422-7.25 0-2.588-2.126-4.124-3.916-4.124zm.025 9.428c-.23.36-1.02 1.538-2.608 1.538-1.46 0-2.226-1-2.226-2.23 0-1.205 1.383-5.635 1.92-6.558.563-.974 1.435-1.768 2.737-1.77 1.458 0 2.226.794 2.226 2.052 0 1.487-1.382 5.842-2.048 6.968zM179.1 71.816c-.743 0-1.23-.538-1.23-1.1 0-.69.41-.82.41-1.05 0-.21-.207-.21-.36-.21-1.535 0-2.915 3.947-3.25 5.18l-.793 2.92h2.688l-.076.41h-2.687c-1.51 5.226-2.662 10.144-3.814 12.474-1.74 3.536-2.765 4.228-4.375 4.228-.87 0-1.538-.77-1.538-1.485 0-.77.566-1.278 1.152-1.278.69 0 1.15.433 1.15 1.05 0 .742-.487.742-.487 1.05 0 .18.156.255.384.255.436 0 1.434-.385 2.124-2.51.897-2.767 2-9.017 3.305-13.782h-2.254l.105-.41h2.252c.742-2.92 1.968-5.204 3.352-6.64 1.253-1.278 2.33-1.866 3.453-1.866.92 0 1.712.64 1.712 1.588 0 .69-.56 1.176-1.226 1.176zM517.48 56.98v2.395h-16.987v-23.3h16.818v2.398h-14.19v7.955h12.698v2.398H503.12v8.154zM484.43 38.508v20.87h-2.66v-20.87h-7.81v-2.434h18.285v2.434zM456.373 59.742c-5.752 0-9.676-3.525-9.676-10.117v-13.55h2.628v13.384c0 5.024 2.69 7.854 7.11 7.854 4.293 0 7.02-2.594 7.02-7.69v-13.55h2.624v13.35c0 6.793-3.892 10.318-9.707 10.318zM431.003 38.508v20.87h-2.656v-20.87h-7.814v-2.434h18.28v2.434zM409.43 36.074h2.623v23.303h-2.624zM393.133 38.508v20.87h-2.656v-20.87h-7.814v-2.434h18.284v2.434zM368.566 46.467c5.185 1.132 7.578 3.027 7.578 6.588v.066c0 3.996-3.32 6.593-7.945 6.593-3.693-.002-6.716-1.232-9.508-3.732l1.63-1.93c2.427 2.196 4.753 3.3 7.98 3.3 3.123 0 5.185-1.67 5.185-3.963v-.068c0-2.163-1.163-3.396-6.052-4.427-5.352-1.164-7.81-2.896-7.81-6.723v-.065c0-3.662 3.224-6.358 7.646-6.358 3.39 0 5.82.967 8.18 2.862l-1.528 2.03c-2.162-1.765-4.324-2.53-6.718-2.53-3.024 0-4.954 1.665-4.954 3.762v.067c0 2.195 1.197 3.426 6.316 4.527zM348.22 59.377L333.19 40.27v19.107h-2.56V36.074h2.46l14.66 18.676V36.074h2.56v23.303zM317.865 36.074h2.626v23.303h-2.625zM292.33 59.377L277.306 40.27v19.107h-2.56V36.074h2.46l14.66 18.676V36.074h2.56v23.303zM266.13 56.98v2.395h-16.987v-23.3h16.822v2.398H251.77v7.955h12.7v2.398h-12.7v8.154zM225.24 59.377V36.074h2.625v20.874h13.1v2.43zM201.335 59.377V36.074h2.626v20.874h13.1v2.43zM182.815 35.908h-2.46l-10.604 23.47h2.693l2.76-6.16h12.664l2.726 6.16h2.828l-10.605-23.47zm-6.582 14.914l5.32-11.848 5.284 11.848h-10.604z" />
<path fill="url(#gradient_allenai2)" d="M108.15 90.71l15.184-23.13c5.5-8.402 8.25-15.42 8.25-21.055 0-6.14-2.144-10.94-6.428-14.4-4-3.227-10.812-4.947-17.815-5.163v-.023c-.167 0-.335.008-.503.01-.16-.003-.322-.01-.483-.01l.003.022C86.763 27.352 66 39.38 48.067 53.756L39.15 28.02H25.99L0 103.018h14.627S25.14 88.742 40.887 73.58l9.625 29.437h14.626l-13.546-39.09c5.52-4.648 11.43-9.11 17.588-12.973v52.063h13.16V43.88c8.4-3.722 17.02-5.946 25.504-5.757 6.715 0 10.073 2.802 10.073 8.402 0 4.725-2.346 10.544-7.035 17.46l-23.484 34.57v3.846h48.59V90.71h-27.84zM23.33 76.395l9.237-28.252 4.81 14.715c-5.06 4.56-9.782 9.158-14.048 13.537z" />
<path fill="#3181AF" d="M71.614 33.688c.03.13.08.244.14.35 2.87-1.623 5.767-3.1 8.676-4.432.037-.115.08-.228.113-.343.037-.13.072-.26.11-.39H70.58c.25.998.478 2.003.658 3.02.107.602.24 1.2.376 1.795z" />
</svg>
