<svg xmlns="http://www.w3.org/2000/svg" width="90" height="26" viewBox="0 0 1000 285">
<path fill="#111" d="M542.1 184.3c0 30.97-38.56 29.14-38.56 29.14H465v-56h38.54c39.7-.23 38.56 26.85 38.56 26.85M465 72.05h29.36c30.53 1.6 29.38 24.33 29.38 24.33 0 28.22-33.74 28.68-33.74 28.68h-25V72.06zm70 64.03s26.38-11.25 26.15-41.1c0 0 4-48.87-60.76-54.84h-71.9V245.1h82.4s68.84.24 68.84-57.83c0 0 1.6-39.47-44.75-51.18M348.95 0h302.6v285.17h-302.6V0zM193.14 184.3c0 30.97-38.56 29.14-38.56 29.14h-38.56v-56h38.56c39.7-.23 38.56 26.85 38.56 26.85M116.02 72.05h29.38c30.52 1.6 29.38 24.33 29.38 24.33 0 28.22-33.74 28.68-33.74 28.68h-25.02V72.06zm70 64.03s26.4-11.25 26.17-41.1c0 0 4-48.87-60.78-54.84h-71.9V245.1h82.4s68.86.24 68.86-57.83c0 0 1.6-39.47-44.76-51.18M0 0h302.6v285.17H0V0zM938.8 54.85v37.87S901.85 70 861 69.54c0 0-76.2-1.5-79.64 73.04 0 0-2.75 68.57 78.72 72.47 0 0 34.2 4.13 80.56-25.48v39.25s-62.2 36.95-134.26 8.5c0 0-60.6-22.15-62.9-94.74 0 0-2.52-74.65 78.27-99.43 0 0 21.58-8.26 60.36-4.6 0 0 23.2 2.3 56.7 16.3M697.93 285.17h302.6V0h-302.6v285.17z" />
</svg>
