<svg xmlns="http://www.w3.org/2000/svg" width="180" height="25" viewBox="0 0 915.7 130.1">
<path fill="#51a4da" d="M157.8 8.6c-8.1 6.8-15.5 13-23 19.1-.8.7-2.2.7-3.4.7H23.3c-.8 0-1.6-.3-2.6-.4V8.6h137.1z" />
<path fill="#b3e4fa" d="M0 33.9c2-.1 4.1-.3 6.1-.3H129c-8.7 7.2-16.2 13.5-23.8 19.6-.8.6-2.3.7-3.4.7H2.4c-.8 0-1.7-.3-2.5-.5.1-6.5.1-13 .1-19.5z" />
<path fill="#5bc4bf" d="M36 79.2V59.4h63.2C91 66.3 83.6 72.5 76.1 78.7c-.5.4-1.3.5-1.9.5H36z" />
<path fill="#657d8c" d="M613.3 49.4c6.5-3.8 12.5-8.7 19.3-10.9 19.6-6.4 39.7 2.9 48 21.8 6.8 15.4 6.3 31-1.3 46-12.1 24.2-47.3 28-66 8-.1 2-.3 3.6-.3 5.2.1 4.3-2 6.4-6.2 6.3-4.2 0-6.2-2.2-6.2-6.4V8.2c0-4.3 2-6.1 6.3-6.1 4.4 0 6.2 2.1 6.2 6.3.2 13.9.2 27.7.2 41zm-.2 30.1c0 2.6-.1 5.1 0 7.7.5 19.7 19.2 33.3 38.2 27.7 13.9-4.1 22.5-18.7 21-35.8-1.2-13.7-6.6-24.9-20.5-29.7-9.8-3.4-19.3-1.6-27.7 4.4-8.7 6.3-13.1 14.7-11 25.7z M561.7 39h27.7c.3 8.4-2.3 11.2-9.9 11.2-5.3 0-10.6 0-15.9.1-.3 0-.6.2-1.3.3-.2 1-.5 2.1-.5 3.2v45.6c0 1.5.1 3.1.2 4.6 1.2 10.6 8.8 15.1 18.7 10.8 3.5-1.5 7-4.1 9.7.8 1.8 3.2-.7 6.9-5.8 9.4-16.6 8-34.1-1.7-34.8-20-.7-16-.2-32.1-.3-48.2v-6.1c-7.6 0-14.6-.6-21.5.2-7.7.9-13.5 5.7-16.1 12.8-2.4 6.6-3.9 13.8-4.4 20.8-.7 11.4-.1 22.9-.2 34.3-.1 5.5-2.7 7.7-7.6 7-4.5-.6-5.2-3.8-5.2-7.5V72.2 45.5c0-4.3 1.1-7.4 6.2-7.5 5.1-.1 6.4 3 6.4 7.3 0 3.1 0 6.1.4 9.9 9-17.9 25.3-17 41.9-16.2 0-5.1.1-9.5 0-13.9s1.6-6.8 6.2-6.7c4.8 0 6.2 2.7 6.1 6.9-.1 4.3 0 8.6 0 13.7z M267.1 127.1c-36.6 0-61.2-28.5-57.6-66.8 4.8-50.7 52.1-62.9 83-48.9 6.3 2.8 11.5 8.2 16.6 13.1 2.6 2.5 3.4 6.6-.4 9.5-3.6 2.8-6.5 1.2-9.3-1.8-12.7-13.6-28.3-17.6-45.8-12.3-17.9 5.4-27 18.9-30.1 36.7-2.4 13.4-.5 26.3 6.5 38.1 14.1 23.7 48.5 28.7 67.2 9.7 2-2 3.8-4.4 5.3-6.9 1.8-2.9 4.4-4 6.9-2.3 1.9 1.3 4 4.7 3.5 6.4-1.1 3.8-3.2 7.6-5.9 10.5-10.8 11-24.7 15-39.9 15z M704.6 85.7c1.5 13.7 7.5 23.6 20 28 13 4.5 25.6 3.4 36.1-6.9 5.2-5.1 7.6-5.9 10.5-3.1 2.8 2.8 1.9 7-2.4 11.7-.6.6-1.2 1.2-1.9 1.8-15.4 11.7-32.5 13.2-49.8 6-16.7-6.9-24.3-20.9-24.9-38.5-.9-24 11.8-42.2 33-46.7 28.6-6.1 50.8 11.2 50.4 43-.1 4.4-2.9 4.8-6.2 4.8h-58.9c-1.9-.1-3.7-.1-5.9-.1zm1.2-11.4h55.9c-.1-15.3-11-26.2-26-26.3-15.6-.2-29.6 12.1-29.9 26.3zM842.8 73.1c1.4-14-5.1-22.5-18.2-24.3-11.1-1.5-20.7 1.6-28 10.3-2.5 2.9-4.9 5.1-8.6 2.4-3.7-2.8-2.7-6.3-.5-9.5 1.5-2.2 3.3-4.5 5.4-6.1 14.4-10.7 30.2-12.1 46.5-5.1 9.5 4.1 15.2 12.3 15.6 22.5.9 18.9.7 37.9.8 56.9 0 3.9-2.3 5.9-6.3 5.8-4-.1-6-2-5.8-6.1.1-1.8 0-3.7 0-6.5-1.6 1.3-2.4 1.9-3.2 2.6-12.4 11.4-26.8 13.7-42.4 8.8-9.1-2.9-14.5-9.4-15.5-19.1-1-9.9 2.6-17.8 11.3-22.9 10.8-6.3 22.9-7.7 35-8.7 4.5-.5 9.1-.7 13.9-1zm-.2 9.7c-9.8 1.2-19.4 2.1-28.9 3.6-3.8.6-7.5 2.2-10.9 4-5.9 3.1-8.4 8.4-7.4 14.4 1 6.2 5.3 9.5 11 10.7 17.7 3.9 40.5-6.1 36.2-32.7z M338.5 50.2c.7-1.1 1.3-2.4 2.2-3.3 10.5-10.7 23.3-12.4 36.9-8.2 13.3 4.1 20 14.6 20.9 27.7 1.2 18 .8 36.2.9 54.3 0 4-2.5 5.4-6.1 5.2-3.9-.1-5.8-2.1-5.8-6.2.1-13.7.1-27.3 0-41 0-3.2-.2-6.5-.7-9.7-1.9-11.5-8.4-18.5-18.2-20-12.1-1.8-23.5 3.1-28.1 13.2-2.1 4.7-3.2 10.1-3.4 15.3-.5 13.7-.1 27.3-.2 41 0 6-3.2 8.7-8.8 7.1-1.8-.5-3.2-2.9-4.5-4.6-.5-.7-.2-2-.2-3V9.9c0-6.2 1.2-7.5 6.3-7.6 5.3-.1 7.1 1.4 7.1 6.9.1 11.8 0 23.6 0 35.4 0 1.6.1 3.3.2 4.9.7.2 1.1.5 1.5.7z M469 73.1c1.3-13.6-5.3-22.3-17.9-24.2-11.3-1.7-21 1.4-28.5 10.2-2.5 2.9-5 5.1-8.6 2.4-3.7-2.8-2.7-6.4-.5-9.6 6.2-9.2 15.4-13.3 25.9-14.6 5.2-.7 10.6-.7 15.8.1 16.6 2.7 26.4 14.3 26.5 31.3.2 16.6.1 33.1 0 49.7 0 5.6-1.6 7.5-6 7.5-5 0-6.4-3.1-6.1-7.5.1-1.4 0-2.7 0-4.8-1.3 1-2.3 1.5-3 2.2-12.1 11.4-26.4 13.7-41.8 9.1-9.8-2.9-15.5-9.9-16.2-20.2-.9-10.1 3.4-17.8 12.4-22.7 10.6-5.7 22.3-7.1 34.1-8.1 4.6-.3 9.2-.5 13.9-.8zm0 9.9c-8.8.9-17.4 1.5-25.9 2.9-4.8.8-9.6 2.4-14 4.6-6.3 3.1-8.8 8.6-7.7 14.7.9 5.3 5.2 9.5 11.7 10.7 18.7 3.1 39.3-7.4 35.9-32.9z M63.9 127.4c-5.1-1.2-8.2-3.2-9.7-7.3-1.7-4.6-.3-8.3 3.2-11.5C68 98.9 78.6 89.2 89.1 79.5c24.2-22.1 48.4-44.3 72.7-66.4.5-.5.9-1.2 1.5-1.3 2-.6 4.1-1 6.1-1.5-.6 2.1-.5 4.7-1.8 6.1-31.8 35.3-63.8 70.4-95.8 105.5-2 2.3-5.2 3.7-7.9 5.5z M873.9 49.4h-8.8c-3.2 0-5.1-2-4.4-4.9.5-2 2.3-4.5 4.2-5.3 2.4-.9 5.3-.2 9-.2 0-4.6-.1-8.8 0-12.9.1-5.9 1.7-7.6 6.5-7.7 5.3-.1 6.1 3.3 6.1 7.4v12.9h27.8c-.2 8.1-2.7 10.6-9.7 10.7h-18.3v12.9l.3 35.9c0 1.5 0 3.1.2 4.6.9 12 8.5 16.6 19.5 11.6 3.3-1.5 6.6-3.2 8.8 1.1 2.1 4-.9 6.4-3.8 8.4-14.4 9.7-34.8 1-36.3-16.2-1.3-14.2-.8-28.7-1-43-.1-4.8-.1-9.6-.1-15.3z" />
</svg>
