<svg xmlns="http://www.w3.org/2000/svg" width="36" height="22" viewBox="0 0 36 22">
    <path d="M0 16.584V.696A.44.44 0 01.132.372a.413.413 0 01.3-.132h5.856c2.32 0 4.304.82 5.952 2.46 1.648 1.64 2.472 3.612 2.472 5.916 0 2.32-.824 4.304-2.472 5.952-1.648 1.648-3.632 2.472-5.952 2.472H.432a.413.413 0 01-.3-.132.44.44 0 01-.132-.324zm3.744-3.096h2.304c1.344 0 2.46-.468 3.348-1.404.888-.936 1.332-2.092 1.332-3.468 0-1.36-.444-2.508-1.332-3.444-.888-.936-2.004-1.404-3.348-1.404H3.744v9.72z" fill="#13ADC7"></path>
    <path d="M17.121 21.016L9.633 4.864c-.08-.16-.076-.304.012-.432s.22-.192.396-.192h3.192c.208 0 .344.088.408.264l3.96 8.76h.144l3.96-8.76c.064-.176.2-.264.408-.264h3.192c.176 0 .308.064.396.192.088.128.092.272.012.432l-7.536 16.152c-.096.176-.232.264-.408.264h-.24c-.176 0-.312-.088-.408-.264z" fill="#945DD6"></path>
    <path d="M23.196 14.784c-1.68-1.68-2.52-3.72-2.52-6.12s.844-4.444 2.532-6.132C24.896.844 26.94 0 29.34 0c2.24 0 4.176.744 5.808 2.232.24.224.248.448.024.672L33.3 4.848c-.208.192-.408.192-.6 0-.912-.816-1.992-1.224-3.24-1.224-1.344 0-2.464.484-3.36 1.452-.896.968-1.344 2.132-1.344 3.492 0 1.344.452 2.492 1.356 3.444.904.952 2.028 1.428 3.372 1.428 1.248 0 2.32-.384 3.216-1.152.224-.192.432-.184.624.024l1.872 1.992c.208.208.2.424-.024.648-1.6 1.552-3.544 2.328-5.832 2.328-2.4 0-4.448-.832-6.144-2.496z" fill="#F46737"></path>
</svg>
