<svg xmlns="http://www.w3.org/2000/svg" width="1309.1" height="241.8" viewBox="0 0 346.4 64">
  <g fill="#009688">
    <path d="M32 0a32 32 0 100 64 32 32 0 000-64zm-1.7 57.6v-20H19.2l16-31.3v20.1h10.7z"/>
    <g stroke-width="2">
      <path d="M89.5 59.4V4.2h33.3v6.6H97.3v16.6H120V34H97.3v25.4z" />
      <path d="M141.8 54h4.7l3.4-.5V41.2q-.8-.4-2.6-.7-1.8-.3-4.3-.3l-3.6.2q-1.9.3-3.5 1-1.5.8-2.5 2.1t-1 3.5q0 4 2.5 5.6 2.6 1.5 7 1.5zm-.6-37q4.5 0 7.5 1.1 3.1 1.1 5 3.3 1.9 2 2.7 5 .7 2.9.7 6.4v25.9l-2.7.5-3.8.4q-2.1.3-4.7.4-2.5.3-5 .3-3.4 0-6.4-.7-3-.7-5-2.3-2.2-1.6-3.4-4.1-1.2-2.6-1.2-6.1 0-3.5 1.3-6 1.5-2.4 3.8-4 2.4-1.4 5.6-2.2 3.2-.7 6.7-.7l2.3.2q1.2 0 2.3.3l1.9.3 1 .3v-2.1q0-1.8-.3-3.6-.4-1.8-1.4-3.2-1-1.4-3-2.2-1.7-.9-4.5-.9-3.7 0-6.5.6-2.7.4-4 1l-1-6.1q1.5-.7 4.9-1.2 3.3-.7 7.2-.7z" />
      <path d="M179 54q4.6 0 6.7-1.1 2.3-1.2 2.3-3.9t-2.2-4.3q-2.1-1.6-7-3.5l-4.7-2q-2.2-1-3.8-2.3-1.6-1.4-2.5-3.3-1-2-1-4.7 0-5.5 4.1-8.7 4-3.3 11-3.3 1.8 0 3.6.3 1.7.1 3.3.4l2.6.6 1.8.6L192 25q-1.2-.6-3.8-1.2-2.5-.8-6.1-.8-3.1 0-5.4 1.3-2.4 1.2-2.4 3.8 0 1.4.5 2.4.6 1 1.6 2L179 34l3.9 1.5q2.9 1 5.2 2.2 2.3 1 4 2.5 1.6 1.4 2.5 3.5.8 2 .8 5 0 5.7-4.3 8.6-4.2 3-12 3-5.6 0-8.7-1l-4.2-1.3 1.3-6.4 4.1 1.4q2.8 1 7.4 1z" />
      <path d="M211.8 18h15.7v6.2h-15.7v19.1q0 3.1.5 5.2.5 2 1.4 3.2 1 1 2.4 1.6 1.5.5 3.4.5 3.3 0 5.3-.8t2.9-1l1.4 6q-1.1.6-3.9 1.4-2.8.9-6.4.9-4.2 0-7-1-2.7-1.2-4.4-3.3-1.6-2.2-2.4-5.3-.6-3.2-.6-7.3v-37l7.4-1.3z" />
      <path d="M274.3 59.4l-2.5-7-2.5-7.1h-25l-5 14.1h-8l5.9-16.2 5.4-14.2q2.7-6.7 5.4-12.7 2.6-6.2 5.5-12.1h7q3 6 5.5 12 2.7 6.1 5.3 12.8l5.5 14.2 6 16.2zM267.1 39L262 25.5q-2.5-6.5-5.2-12.5-2.8 6-5.3 12.5l-5 13.4z" />
      <path d="M304.9 3.6q11.6 0 17.8 4.5 6.3 4.4 6.3 13.1 0 4.8-1.7 8.2-1.7 3.4-5 5.5-3.2 2.1-7.8 3-4.6 1-10.4 1h-6.2v20.5h-7.7V5q3.3-.8 7.3-1 4-.4 7.4-.4zm.6 6.8q-5 0-7.6.2v21.7h5.9q4 0 7.1-.5 3.2-.5 5.4-1.7 2.2-1.3 3.4-3.5 1.2-2.1 1.2-5.5 0-3.1-1.3-5.2-1.2-2-3.3-3.3-2-1.3-4.9-1.7-2.8-.5-5.9-.5z" />
      <path d="M338.6 4.2h7.8v55.2h-7.8z" />
    </g>
  </g>
</svg>
