<svg width="2258" height="309" viewBox="0 0 2258 309" fill="none" xmlns="http://www.w3.org/2000/svg">
<path d="M1592.43 22.3918H2224.99V273.72H1592.43V22.3918Z" fill="#FF6108"/>
<path d="M1592.43 22.3918H2224.99V273.72H1592.43V22.3918Z" fill="url(#paint0_linear)"/>
<path fill-rule="evenodd" clip-rule="evenodd" d="M1616.42 65.0073C1616.42 56.5344 1621.28 50.4248 1628.08 49.4956H1663.32C1669.96 50.4019 1674.74 56.2368 1674.97 64.3857V110.101C1674.97 123.369 1685.41 134.125 1698.3 134.125C1711.19 134.125 1721.63 123.369 1721.63 110.101V65.0073H1721.79C1721.79 56.5344 1726.65 50.4248 1733.45 49.4956H1767.69C1773.98 50.3555 1778.61 55.6504 1779.27 63.1489V245.17C1778.57 253.17 1773.35 258.662 1766.4 258.936H1734.74C1727.27 258.641 1721.79 252.309 1721.79 243.312H1721.63V194.385C1721.63 181.117 1711.19 172.282 1698.3 172.282C1685.41 172.282 1674.97 181.117 1674.97 194.385V243.933C1674.72 252.599 1669.33 258.648 1662.03 258.936H1629.31C1621.84 258.641 1616.37 252.309 1616.37 243.312H1616.36V65.0073H1616.42ZM1827.12 57.2922C1827.12 54.5674 1826.7 51.946 1825.9 49.4956H1884.78C1883.87 52.0574 1883.38 54.8223 1883.38 57.7058V172.282C1883.38 185.55 1893.82 196.306 1906.71 196.306C1919.6 196.306 1930.04 185.55 1930.04 172.282V57.7058C1930.04 54.8223 1929.55 52.0574 1928.64 49.4956H1987.18C1986.39 51.9458 1985.96 54.5674 1985.96 57.2922V225.885C1984.96 244.146 1969.84 258.647 1951.34 258.647V258.936H1861.84V258.647C1842.69 258.647 1827.17 243.124 1827.17 223.975L1827.12 224.038V57.2922ZM2033.88 236.861H2033.82V66.6709C2034.12 53.4836 2036.11 50.1069 2049.31 49.4956H2171.32V49.5181L2171.76 49.4956H2174.63C2187.96 50.0525 2209.41 58.3354 2209.41 89.0737C2209.41 112.256 2203.22 121.2 2197.7 129.168C2193.27 135.568 2189.27 141.339 2189.27 153.352C2189.27 165.827 2193.58 172.628 2198.21 179.938C2203.59 188.432 2209.41 197.613 2209.41 217.181C2209.41 238.143 2198.67 257.833 2173.56 258.936H2055.01C2036.6 258.871 2033.88 257.714 2033.88 236.861ZM1625.93 0.215576C1594.21 0.215576 1568.5 26.6917 1568.5 59.3516V249.08C1568.5 281.74 1594.21 308.216 1625.93 308.216H2200.07C2231.79 308.216 2257.5 281.74 2257.5 249.08V59.3516C2257.5 26.6917 2231.79 0.215576 2200.07 0.215576H1625.93ZM2141.55 116.024C2141.55 104.28 2132.3 94.7593 2120.9 94.7593H2109.72C2098.32 94.7593 2089.07 104.28 2089.07 116.024C2089.07 127.768 2098.32 137.288 2109.72 137.288H2120.9C2132.3 137.288 2141.55 127.768 2141.55 116.024ZM2120.9 178.787C2132.3 178.787 2141.55 188.307 2141.55 200.051C2141.55 211.795 2132.3 221.316 2120.9 221.316H2109.72C2098.32 221.316 2089.07 211.795 2089.07 200.051C2089.07 188.307 2098.32 178.787 2109.72 178.787H2120.9Z" fill="black"/>
<path d="M0.669922 234.41V71.0908H43.8868V131.896H92.6314V71.0908H135.848V234.41H92.6314V169.585H43.8868V234.41H0.669922Z" fill="url(#paint1_linear)"/>
<path d="M206.614 237.426C199.746 237.426 193.799 236.253 188.774 233.908C183.916 231.395 179.896 227.961 176.714 223.606C173.531 219.084 171.186 213.723 169.678 207.525C168.171 201.16 167.417 194.041 167.417 186.168V108.78H210.634V180.641C210.634 188.681 211.639 194.041 213.649 196.721C215.659 199.401 218.842 200.741 223.197 200.741C227.217 200.741 230.483 199.904 232.996 198.229C235.676 196.554 238.44 193.706 241.288 189.686V108.78H284.505V234.41H249.328L246.313 217.827H245.308C240.283 223.857 234.671 228.631 228.473 232.149C222.443 235.667 215.156 237.426 206.614 237.426Z" fill="url(#paint2_linear)"/>
<path d="M359.412 286.17C352.209 286.17 345.425 285.584 339.06 284.411C332.694 283.406 327.083 281.647 322.225 279.135C317.535 276.622 313.766 273.356 310.918 269.336C308.071 265.483 306.647 260.709 306.647 255.014C306.647 245.131 312.51 237.091 324.235 230.893V229.888C320.885 227.543 318.121 224.695 315.944 221.345C313.766 217.995 312.677 213.64 312.677 208.279C312.677 203.924 313.933 199.653 316.446 195.465C318.959 191.277 322.393 187.676 326.748 184.661V183.656C322.225 180.641 318.205 176.369 314.687 170.841C311.337 165.314 309.662 158.865 309.662 151.494C309.662 143.789 311.17 137.089 314.185 131.393C317.2 125.531 321.22 120.757 326.245 117.072C331.27 113.219 336.966 110.371 343.331 108.529C349.864 106.686 356.564 105.765 363.432 105.765C370.802 105.765 377.503 106.77 383.533 108.78H430.267V139.936H412.177C412.679 141.444 413.098 143.37 413.433 145.715C413.935 148.06 414.187 150.489 414.187 153.002C414.187 160.372 412.847 166.737 410.166 172.098C407.486 177.29 403.885 181.562 399.362 184.912C394.84 188.262 389.479 190.775 383.281 192.45C377.084 193.957 370.467 194.711 363.432 194.711C359.244 194.711 354.554 194.125 349.361 192.952C348.021 194.125 347.184 195.214 346.849 196.219C346.514 197.056 346.346 198.396 346.346 200.239C346.346 203.087 347.686 205.097 350.366 206.269C353.046 207.274 357.569 207.777 363.934 207.777H382.779C398.525 207.777 410.669 210.373 419.212 215.566C427.922 220.591 432.277 228.883 432.277 240.441C432.277 247.308 430.519 253.506 427.001 259.034C423.651 264.729 418.793 269.587 412.428 273.607C406.23 277.627 398.608 280.726 389.563 282.904C380.685 285.081 370.635 286.17 359.412 286.17ZM363.432 169.083C367.452 169.083 370.718 167.659 373.231 164.811C375.744 161.964 377 157.525 377 151.494C377 145.632 375.744 141.36 373.231 138.68C370.718 135.832 367.452 134.409 363.432 134.409C359.412 134.409 356.145 135.832 353.633 138.68C351.12 141.36 349.864 145.632 349.864 151.494C349.864 157.525 351.12 161.964 353.633 164.811C356.145 167.659 359.412 169.083 363.432 169.083ZM366.447 259.537C373.482 259.537 379.345 258.448 384.035 256.27C388.725 254.26 391.071 251.496 391.071 247.979C391.071 244.628 389.563 242.535 386.548 241.697C383.7 240.859 379.596 240.441 374.236 240.441H364.437C359.412 240.441 355.559 240.273 352.879 239.938C350.366 239.771 348.189 239.436 346.346 238.933C344.839 240.441 343.666 241.865 342.828 243.205C342.158 244.545 341.823 246.136 341.823 247.979C341.823 251.999 344.085 254.93 348.607 256.773C353.13 258.615 359.077 259.537 366.447 259.537Z" fill="url(#paint3_linear)"/>
<path d="M496.575 286.17C489.372 286.17 482.588 285.584 476.223 284.411C469.857 283.406 464.246 281.647 459.388 279.135C454.698 276.622 450.929 273.356 448.081 269.336C445.234 265.483 443.81 260.709 443.81 255.014C443.81 245.131 449.673 237.091 461.398 230.893V229.888C458.048 227.543 455.284 224.695 453.107 221.345C450.929 217.995 449.84 213.64 449.84 208.279C449.84 203.924 451.096 199.653 453.609 195.465C456.122 191.277 459.556 187.676 463.911 184.661V183.656C459.388 180.641 455.368 176.369 451.85 170.841C448.5 165.314 446.825 158.865 446.825 151.494C446.825 143.789 448.333 137.089 451.348 131.393C454.363 125.531 458.383 120.757 463.408 117.072C468.433 113.219 474.129 110.371 480.494 108.529C487.027 106.686 493.727 105.765 500.595 105.765C507.965 105.765 514.665 106.77 520.696 108.78H567.43V139.936H549.339C549.842 141.444 550.261 143.37 550.596 145.715C551.098 148.06 551.35 150.489 551.35 153.002C551.35 160.372 550.01 166.737 547.329 172.098C544.649 177.29 541.048 181.562 536.525 184.912C532.002 188.262 526.642 190.775 520.444 192.45C514.247 193.957 507.63 194.711 500.595 194.711C496.407 194.711 491.717 194.125 486.524 192.952C485.184 194.125 484.347 195.214 484.012 196.219C483.677 197.056 483.509 198.396 483.509 200.239C483.509 203.087 484.849 205.097 487.529 206.269C490.209 207.274 494.732 207.777 501.097 207.777H519.942C535.688 207.777 547.832 210.373 556.375 215.566C565.085 220.591 569.44 228.883 569.44 240.441C569.44 247.308 567.682 253.506 564.164 259.034C560.814 264.729 555.956 269.587 549.591 273.607C543.393 277.627 535.771 280.726 526.726 282.904C517.848 285.081 507.798 286.17 496.575 286.17ZM500.595 169.083C504.615 169.083 507.881 167.659 510.394 164.811C512.907 161.964 514.163 157.525 514.163 151.494C514.163 145.632 512.907 141.36 510.394 138.68C507.881 135.832 504.615 134.409 500.595 134.409C496.575 134.409 493.308 135.832 490.796 138.68C488.283 141.36 487.027 145.632 487.027 151.494C487.027 157.525 488.283 161.964 490.796 164.811C493.308 167.659 496.575 169.083 500.595 169.083ZM503.61 259.537C510.645 259.537 516.508 258.448 521.198 256.27C525.888 254.26 528.234 251.496 528.234 247.979C528.234 244.628 526.726 242.535 523.711 241.697C520.863 240.859 516.759 240.441 511.399 240.441H501.6C496.575 240.441 492.722 240.273 490.042 239.938C487.529 239.771 485.352 239.436 483.509 238.933C482.002 240.441 480.829 241.865 479.991 243.205C479.321 244.545 478.986 246.136 478.986 247.979C478.986 251.999 481.248 254.93 485.77 256.773C490.293 258.615 496.24 259.537 503.61 259.537Z" fill="url(#paint4_linear)"/>
<path d="M588.008 234.41V108.78H631.225V234.41H588.008ZM609.617 93.2018C602.581 93.2018 596.802 91.1917 592.28 87.1715C587.757 83.1513 585.496 77.9586 585.496 71.5933C585.496 65.228 587.757 60.0353 592.28 56.0151C596.802 51.995 602.581 49.9849 609.617 49.9849C616.652 49.9849 622.431 51.995 626.954 56.0151C631.476 60.0353 633.738 65.228 633.738 71.5933C633.738 77.9586 631.476 83.1513 626.954 87.1715C622.431 91.1917 616.652 93.2018 609.617 93.2018Z" fill="url(#paint5_linear)"/>
<path d="M660.393 234.41V108.78H695.569L698.585 123.856H699.59C704.615 118.998 710.31 114.81 716.675 111.293C723.208 107.607 730.746 105.765 739.289 105.765C753.024 105.765 762.991 110.455 769.189 119.835C775.387 129.048 778.486 141.444 778.486 157.022V234.41H735.269V162.55C735.269 154.509 734.264 149.149 732.254 146.469C730.243 143.789 727.061 142.449 722.706 142.449C718.685 142.449 715.335 143.286 712.655 144.962C709.975 146.637 706.96 148.982 703.61 151.997V234.41H660.393Z" fill="url(#paint6_linear)"/>
<path d="M852.364 286.17C845.161 286.17 838.377 285.584 832.012 284.411C825.647 283.406 820.035 281.647 815.177 279.135C810.487 276.622 806.718 273.356 803.871 269.336C801.023 265.483 799.599 260.709 799.599 255.014C799.599 245.131 805.462 237.091 817.188 230.893V229.888C813.837 227.543 811.074 224.695 808.896 221.345C806.718 217.995 805.63 213.64 805.63 208.279C805.63 203.924 806.886 199.653 809.398 195.465C811.911 191.277 815.345 187.676 819.7 184.661V183.656C815.177 180.641 811.157 176.369 807.64 170.841C804.29 165.314 802.614 158.865 802.614 151.494C802.614 143.789 804.122 137.089 807.137 131.393C810.152 125.531 814.172 120.757 819.198 117.072C824.223 113.219 829.918 110.371 836.283 108.529C842.816 106.686 849.516 105.765 856.384 105.765C863.755 105.765 870.455 106.77 876.485 108.78H923.22V139.936H905.129C905.631 141.444 906.05 143.37 906.385 145.715C906.888 148.06 907.139 150.489 907.139 153.002C907.139 160.372 905.799 166.737 903.119 172.098C900.439 177.29 896.837 181.562 892.315 184.912C887.792 188.262 882.432 190.775 876.234 192.45C870.036 193.957 863.42 194.711 856.384 194.711C852.197 194.711 847.506 194.125 842.314 192.952C840.974 194.125 840.136 195.214 839.801 196.219C839.466 197.056 839.299 198.396 839.299 200.239C839.299 203.087 840.639 205.097 843.319 206.269C845.999 207.274 850.522 207.777 856.887 207.777H875.731C891.477 207.777 903.621 210.373 912.164 215.566C920.875 220.591 925.23 228.883 925.23 240.441C925.23 247.308 923.471 253.506 919.953 259.034C916.603 264.729 911.745 269.587 905.38 273.607C899.182 277.627 891.561 280.726 882.515 282.904C873.638 285.081 863.587 286.17 852.364 286.17ZM856.384 169.083C860.404 169.083 863.671 167.659 866.183 164.811C868.696 161.964 869.952 157.525 869.952 151.494C869.952 145.632 868.696 141.36 866.183 138.68C863.671 135.832 860.404 134.409 856.384 134.409C852.364 134.409 849.098 135.832 846.585 138.68C844.072 141.36 842.816 145.632 842.816 151.494C842.816 157.525 844.072 161.964 846.585 164.811C849.098 167.659 852.364 169.083 856.384 169.083ZM859.399 259.537C866.435 259.537 872.297 258.448 876.988 256.27C881.678 254.26 884.023 251.496 884.023 247.979C884.023 244.628 882.515 242.535 879.5 241.697C876.653 240.859 872.549 240.441 867.188 240.441H857.389C852.364 240.441 848.511 240.273 845.831 239.938C843.319 239.771 841.141 239.436 839.299 238.933C837.791 240.441 836.618 241.865 835.781 243.205C835.111 244.545 834.776 246.136 834.776 247.979C834.776 251.999 837.037 254.93 841.56 256.773C846.083 258.615 852.029 259.537 859.399 259.537Z" fill="url(#paint7_linear)"/>
<path d="M997.617 234.41V71.0908H1104.15V107.272H1040.83V138.429H1095.11V174.61H1040.83V234.41H997.617Z" fill="url(#paint8_linear)"/>
<path d="M1151.41 237.426C1145.55 237.426 1140.27 236.421 1135.58 234.41C1130.89 232.233 1126.87 229.385 1123.52 225.868C1120.34 222.35 1117.91 218.246 1116.24 213.556C1114.56 208.866 1113.72 203.924 1113.72 198.731C1113.72 185.666 1119.08 175.448 1129.8 168.078C1140.52 160.54 1157.94 155.514 1182.07 153.002C1181.06 144.291 1175.2 139.936 1164.48 139.936C1159.95 139.936 1155.18 140.858 1150.16 142.7C1145.13 144.375 1139.35 146.972 1132.82 150.489L1117.74 122.348C1126.62 116.988 1135.58 112.884 1144.63 110.036C1153.67 107.189 1163.14 105.765 1173.02 105.765C1189.27 105.765 1202 110.455 1211.21 119.835C1220.59 129.048 1225.28 143.956 1225.28 164.56V234.41H1190.11L1187.09 222.35H1186.09C1181.06 226.873 1175.7 230.558 1170.01 233.405C1164.48 236.085 1158.28 237.426 1151.41 237.426ZM1166.49 204.259C1170.01 204.259 1172.85 203.505 1175.03 201.998C1177.38 200.323 1179.72 198.229 1182.07 195.716V178.63C1171.68 180.138 1164.56 182.399 1160.71 185.415C1156.86 188.43 1154.93 191.696 1154.93 195.214C1154.93 201.244 1158.78 204.259 1166.49 204.259Z" fill="url(#paint9_linear)"/>
<path d="M1310.24 237.426C1301.36 237.426 1293.07 236.002 1285.37 233.154C1277.66 230.139 1270.96 225.868 1265.27 220.34C1259.57 214.645 1255.05 207.693 1251.7 199.485C1248.52 191.277 1246.92 181.981 1246.92 171.595C1246.92 161.21 1248.77 151.913 1252.45 143.705C1256.14 135.497 1261.08 128.63 1267.28 123.102C1273.47 117.407 1280.59 113.135 1288.63 110.287C1296.84 107.272 1305.38 105.765 1314.26 105.765C1321.8 105.765 1328.58 106.937 1334.61 109.282C1340.64 111.628 1346.09 114.81 1350.95 118.83L1330.85 146.469C1328 144.124 1325.49 142.533 1323.31 141.695C1321.3 140.858 1319.12 140.439 1316.77 140.439C1308.73 140.439 1302.45 143.286 1297.93 148.982C1293.41 154.509 1291.15 162.047 1291.15 171.595C1291.15 181.143 1293.41 188.765 1297.93 194.46C1302.62 199.988 1308.4 202.752 1315.27 202.752C1318.78 202.752 1322.22 201.998 1325.57 200.49C1329.09 198.983 1332.35 197.056 1335.37 194.711L1351.95 222.852C1345.59 228.38 1338.63 232.233 1331.1 234.41C1323.73 236.421 1316.77 237.426 1310.24 237.426Z" fill="url(#paint10_linear)"/>
<path d="M1422.66 237.426C1413.45 237.426 1404.9 236.002 1397.03 233.154C1389.16 230.139 1382.29 225.868 1376.43 220.34C1370.73 214.645 1366.21 207.693 1362.86 199.485C1359.51 191.277 1357.83 181.981 1357.83 171.595C1357.83 161.377 1359.51 152.248 1362.86 144.208C1366.38 136 1370.9 129.048 1376.43 123.353C1382.12 117.658 1388.57 113.303 1395.77 110.287C1402.98 107.272 1410.43 105.765 1418.14 105.765C1427.35 105.765 1435.39 107.356 1442.26 110.539C1449.12 113.721 1454.82 118.077 1459.34 123.604C1463.86 129.132 1467.21 135.581 1469.39 142.951C1471.74 150.322 1472.91 158.195 1472.91 166.57C1472.91 170.423 1472.66 174.024 1472.16 177.374C1471.82 180.724 1471.49 183.153 1471.15 184.661H1399.54C1401.55 192.199 1405.15 197.475 1410.35 200.49C1415.54 203.338 1421.65 204.762 1428.69 204.762C1433.04 204.762 1437.23 204.175 1441.25 203.003C1445.44 201.663 1449.79 199.736 1454.32 197.224L1468.39 222.852C1461.52 227.71 1453.9 231.395 1445.52 233.908C1437.31 236.253 1429.69 237.426 1422.66 237.426ZM1399.04 156.52H1436.23C1436.23 151.662 1434.97 147.474 1432.46 143.956C1430.11 140.271 1425.67 138.429 1419.14 138.429C1414.28 138.429 1410.01 139.853 1406.33 142.7C1402.81 145.548 1400.38 150.154 1399.04 156.52Z" fill="url(#paint11_linear)"/>
<defs>
<linearGradient id="paint0_linear" x1="1908.71" y1="22.3918" x2="1908.71" y2="273.72" gradientUnits="userSpaceOnUse">
<stop stop-color="#FF7C04"/>
<stop offset="1" stop-color="#FFD21E"/>
</linearGradient>
<linearGradient id="paint1_linear" x1="736.79" y1="8.06926" x2="736.79" y2="315.693" gradientUnits="userSpaceOnUse">
<stop stop-color="#00183D"/>
<stop offset="1" stop-color="#0E0E0E"/>
</linearGradient>
<linearGradient id="paint2_linear" x1="736.79" y1="8.06926" x2="736.79" y2="315.693" gradientUnits="userSpaceOnUse">
<stop stop-color="#00183D"/>
<stop offset="1" stop-color="#0E0E0E"/>
</linearGradient>
<linearGradient id="paint3_linear" x1="736.79" y1="8.06926" x2="736.79" y2="315.693" gradientUnits="userSpaceOnUse">
<stop stop-color="#00183D"/>
<stop offset="1" stop-color="#0E0E0E"/>
</linearGradient>
<linearGradient id="paint4_linear" x1="736.79" y1="8.06926" x2="736.79" y2="315.693" gradientUnits="userSpaceOnUse">
<stop stop-color="#00183D"/>
<stop offset="1" stop-color="#0E0E0E"/>
</linearGradient>
<linearGradient id="paint5_linear" x1="736.79" y1="8.06926" x2="736.79" y2="315.693" gradientUnits="userSpaceOnUse">
<stop stop-color="#00183D"/>
<stop offset="1" stop-color="#0E0E0E"/>
</linearGradient>
<linearGradient id="paint6_linear" x1="736.79" y1="8.06926" x2="736.79" y2="315.693" gradientUnits="userSpaceOnUse">
<stop stop-color="#00183D"/>
<stop offset="1" stop-color="#0E0E0E"/>
</linearGradient>
<linearGradient id="paint7_linear" x1="736.79" y1="8.06926" x2="736.79" y2="315.693" gradientUnits="userSpaceOnUse">
<stop stop-color="#00183D"/>
<stop offset="1" stop-color="#0E0E0E"/>
</linearGradient>
<linearGradient id="paint8_linear" x1="736.79" y1="8.06926" x2="736.79" y2="315.693" gradientUnits="userSpaceOnUse">
<stop stop-color="#00183D"/>
<stop offset="1" stop-color="#0E0E0E"/>
</linearGradient>
<linearGradient id="paint9_linear" x1="736.79" y1="8.06926" x2="736.79" y2="315.693" gradientUnits="userSpaceOnUse">
<stop stop-color="#00183D"/>
<stop offset="1" stop-color="#0E0E0E"/>
</linearGradient>
<linearGradient id="paint10_linear" x1="736.79" y1="8.06926" x2="736.79" y2="315.693" gradientUnits="userSpaceOnUse">
<stop stop-color="#00183D"/>
<stop offset="1" stop-color="#0E0E0E"/>
</linearGradient>
<linearGradient id="paint11_linear" x1="736.79" y1="8.06926" x2="736.79" y2="315.693" gradientUnits="userSpaceOnUse">
<stop stop-color="#00183D"/>
<stop offset="1" stop-color="#0E0E0E"/>
</linearGradient>
</defs>
</svg>
