<svg xmlns="http://www.w3.org/2000/svg" width="120" height="34" viewBox="0 0 201 56">
<path fill="#b92b27" d="M29 43.62c-1.93-3.77-4.18-7.6-8.57-7.6-.84 0-1.68.15-2.45.5l-1.5-2.98c1.83-1.56 4.77-2.8 8.54-2.8 5.87 0 8.88 2.83 11.27 6.44 1.42-3.08 2.1-7.24 2.1-12.4 0-12.88-4.04-19.5-13.45-19.5-9.27 0-13.28 6.62-13.28 19.5 0 12.82 4 19.36 13.28 19.36 1.47 0 2.8-.16 4.04-.52zm2.3 4.5c-2.05.54-4.2.85-6.35.85C12.6 48.96.5 39.1.5 24.76.5 10.32 12.6.48 24.96.48c12.56 0 24.53 9.77 24.53 24.3 0 8.1-3.77 14.67-9.26 18.9 1.78 2.67 3.6 4.43 6.14 4.43 2.77 0 3.9-2.14 4.08-3.82h3.6c.22 2.24-.9 11.53-11 11.53-6.1 0-9.33-3.53-11.76-7.68zm26.12-12.3V19.27c0-1.9-.7-2.73-2.86-2.73h-2.3v-4.4H67.3v23.5c0 3.95 2.15 5.7 5.4 5.7 2.7 0 5.37-1.2 6.8-3.9V19.26c0-1.9-.7-2.73-2.85-2.73h-2.45v-4.4h15.2v24.6c0 2.45.92 3.57 3.72 3.57h.5v4.54L80 47v-4.67h-.28c-2.63 3.2-6.34 5.38-11.62 5.38-5.95 0-10.7-3-10.7-11.87m56 7.48c5.36 0 7.4-4.66 7.5-14.04.1-9.2-2.14-13.63-7.5-13.63-4.68 0-7.62 4.45-7.62 13.63 0 9.38 2.9 14.04 7.62 14.04zm0 4.4c-9.7 0-18.43-7.4-18.43-18.44 0-10.84 8.52-18.04 18.42-18.04 10.32 0 18.6 7.34 18.6 18.04 0 11.04-8.28 18.45-18.6 18.45zm18.9-.7v-4.4h1.47c3.62 0 3.97-1.04 3.97-4.2V19.27c0-1.9-.98-2.72-3.2-2.72h-1.97v-4.4h13.82l.7 7.2h.27c1.53-5.18 5.66-7.9 9.52-7.9 3.2 0 5.7 1.8 5.7 5.5 0 2.55-1.25 5.28-4.7 5.28-3.1 0-3.7-2.1-6.26-2.1-2.3 0-4.06 2.17-4.06 5.36V38.4c0 3.16.77 4.2 4.34 4.2h2.02V47h-21.64m46-5.12c4.4 0 6.2-4.17 6.2-8.36v-5.6c-3.2 3.34-10.68 3.46-10.68 9.4 0 2.9 1.72 4.56 4.47 4.56zm6.42-.02c-1.82 3.5-5.55 5.85-10.76 5.85-6.06 0-9.97-3.2-9.97-8.87 0-11.4 15.87-8.36 20.53-15.9v-.83c0-5.8-2.28-6.7-4.8-6.7-7.06 0-3.84 7.6-10.34 7.6-3.14 0-4.35-1.9-4.35-4.02 0-4.3 5.13-7.76 14.75-7.76 9.1 0 14.7 2.52 14.7 11.58v14.47c0 2.24.82 3.45 2.77 3.45.84 0 1.54-.23 2.08-.6l1.16 2.83c-.94 1.47-3.48 4.06-8.3 4.06-4.2 0-6.83-1.95-7.18-5.14h-.28z"></path>
</svg>
