<svg xmlns="http://www.w3.org/2000/svg" width="945.3" height="350" viewBox="90 90 850 300">
  <path fill="#231f20" d="M549.5 308.7h18.7L534.6 260c20.7-6.7 32.1-22.7 32.1-46.4 0-30.5-20.6-48-56.4-48h-54.4v143h16.3v-45.1h38c3.3 0 6.6-.2 9.7-.4zm-77.3-61v-66.4h38c26 0 40.8 11 40.8 32.7 0 22.3-14.8 33.7-40.7 33.7zm224.2 24.8l16 36.2H730l-64-143.2h-17L585 308.7h17.4l16-36.2zm-7-15.8h-64.2l32-72.6zm106.6 3l54.4-94.2h-16.8l-45.8 74.7-46.4-74.7h-17l55.4 94.7v48.5H796v-49"/>
  <path fill="#00adef" d="M204.3 227.2a40.5 40.5 0 0178.7 0H313c1-3.9 2.5-7.6 4.5-11l-53-52.8a40.4 40.4 0 01-49.4-6.2A40.4 40.4 0 01243.7 88a40.5 40.5 0 0134.8 61.4l53 53a40.4 40.4 0 0149.4 6.1 40.5 40.5 0 01-28.7 69.3c-7.6 0-14.7-2.1-20.8-5.8l-53 53a40.4 40.4 0 01-6 49.5 40.5 40.5 0 01-69.3-28.7 40.4 40.4 0 0161.4-34.8l52.9-53c-2-3.3-3.5-7-4.5-10.9H283a40.5 40.5 0 01-78.7 0h-29.9a40.5 40.5 0 110-19.8zM229 360.4a20.7 20.7 0 0035.4-14.7A20.7 20.7 0 00229 331a20.7 20.7 0 000 29.4zm138-108.6a20.7 20.7 0 00-14.8-35.4 20.7 20.7 0 00-14.6 35.4 20.7 20.7 0 0029.3 0zm-108.7-138a20.7 20.7 0 00-35.4 14.7 20.7 20.7 0 0035.4 14.7 20.7 20.7 0 000-29.4zm-138 108.6a20.7 20.7 0 0014.8 35.5 20.7 20.7 0 0014.6-35.5 20.7 20.7 0 00-29.3 0zm108.7 0a20.7 20.7 0 0014.7 35.5 20.7 20.7 0 0014.6-35.5 20.7 20.7 0 00-29.3 0"/>
</svg>
