<svg xmlns="http://www.w3.org/2000/svg" width="100" height="24" viewBox="0 0 824 203">
<path fill="#EE2C24" d="M84.8 90V49c-18 0-30.7 7.6-38 22.8v-20H4.6v148.1h45v-72.4c0-27.9 5.9-37.4 34.1-37.4h1.1zM823.4 137c0-54.5-31.9-88-78.5-88-19.9 0-39.2 8.2-54 22.9-7.9 7.9-13.8 17.1-17.6 27.2V4.2h-44.5v63.9c-10-13-24.1-19.1-42.4-19.1-19.1 0-36.3 7-50.4 20.8-10.2 9.8-17.3 21.3-21 34.1-3.8-12.5-10.8-24.2-20.8-33.7-14.7-13.9-33-21.3-54.3-21.3-19.9 0-39.3 8.2-54 22.9C378 79.7 372 89 368.2 99.2c-12.8-32.6-38.6-50.2-73-50.2-15.5 0-29.3 4.2-41.5 12.5l-21.2 51.3c-8.1-40-36.9-63.8-76.1-63.8-19.9 0-39.2 8.2-54 22.9C87.9 86.3 80 105.1 80 125.5c0 20.7 7.4 39.2 21.5 54.2 15 15.8 33 23.4 55.3 23.4 16.7 0 31.2-4.1 43.3-12.1l14-34h-33.6c-6.5 5.7-13.6 8.2-22.3 8.2-18.8 0-30-8.2-33.8-23.7h96.2c2.9 14.2 9.5 27.3 19.9 38.2 15 15.8 32.9 23.4 55.2 23.4 33.5 0 60.4-18.5 72.6-49.8 3.6 9.7 9.2 18.5 16.6 26.3 15 15.8 33 23.5 55.4 23.5 22.1 0 40.7-7.9 55.7-22.9 9.1-9.1 15.4-19.5 18.8-31.4 4 14 11.8 26.3 23.3 36.6 13.2 11.8 29 17.7 47.3 17.7 18 0 31.5-4.8 44.7-17.7v14.4h43.1v-47c3.6 9.8 9.2 18.9 16.8 26.9 15 15.8 33 23.4 55.3 23.4 32.7 0 57-15.5 71.1-46.1H769c-6.5 5.7-13.6 8.2-22.3 8.2-18.8 0-30-8.2-33.8-23.7h110.4V137zm-700.3-25.9c3-13.9 15.8-23.2 33.8-23.2 17.2 0 29.4 8.2 34.6 23.2h-68.4zm201.5 36c-7.1 9.5-16.6 14.4-28.3 14.4-20.7 0-34.8-13.9-34.8-36.2 0-20.1 14.1-34.8 33.5-34.8 14.1 0 24.2 5.4 30.2 15.5H366c-1.7 6.3-2.5 12.8-2.5 19.6 0 7.4 1 14.6 2.9 21.5h-41.8zm116.1 16.1c-19.3 0-35.6-16.5-35.6-37 0-20.7 16-37.3 35.6-37.3s35.6 16.5 35.6 37.3c0 20.5-16 37-35.6 37m154.7 0c-22.7 0-39-16-39-37 0-20.2 16.3-37.3 37.3-37.3 20.7 0 36.7 16.3 36.7 37.8.1 20.8-15.9 36.5-35 36.5m116.3-52.1c3-13.9 15.8-23.2 33.8-23.2 17.2 0 29.4 8.2 34.6 23.2h-68.4z"></path>
</svg>
