<svg xmlns="http://www.w3.org/2000/svg" width="150" height="18" viewBox="0 0 224.6 26.6">
<path fill="#2F3237" d="M9.7 11.7l-.3-.1c-4-1.1-5.9-1.9-5.9-5.1 0-2.7 1.6-4.2 4.3-4.2 0 0 5.7 0 7.3 4.7l.1.2H17V0h-1.8l-.7 2.6C12.8 1 10.6 0 8.1 0c-4.7 0-8 3-8 7.3 0 4.8 4 6.2 8.5 7.3 4.5 1.1 6.4 2 6.4 5.3 0 2.9-2.4 4.3-4.5 4.3-3.8 0-6.5-1.5-8.6-4.6l-.1-.2H0v7.2h1.8l.8-3.1c2.2 2.1 4.6 3.1 7.6 3.1 4.8 0 8.2-3.3 8.2-7.7 0-4.9-4-6-8.7-7.2 M22.1 5.5h1.7l.1-.5c.6-2.9.7-2.9 2.7-2.9h4.6v22.3h-2.5v2.1h8.7v-2.1H35V2.1h4.5c2.1 0 2.3 0 2.9 2.9l.1.5h1.7V0H22.1v5.5z M63.2 5.5h1.7L65 5c.6-2.9.7-2.9 2.7-2.9h4.6v22.3h-2.4v2.1h8.7v-2.1h-2.4V2.1h4.5c2.1 0 2.3 0 2.9 2.9l.1.5h1.7V0H63.2v5.5zM49.3 0v2.1h2.5v22.4h-2.5v2.1H58v-2.1h-2.4V2.1H58V0zM132.4 0v2.1h2.5V13h-12.4V2.1h2.4V0h-8.7v2.1h2.6v22.4h-2.5v2.1h8.7v-2.1h-2.5v-9.4h12.4v9.4h-2.5v2.1h8.7v-2.1h-2.4V2.1h2.4V0zM186.4 0v2.1h2.5v22.4h-2.5v2.1h8.7v-2.1h-2.4V2.1h2.4V0zM215.9 0v2.1h2l-5.6 8.1-5.4-8.1h2V0h-8.7v2.1h2.5l7.6 11.3-7.5 11.1h-2.7v2.1h8.7v-2.1H206l5.8-8.7 5.8 8.7h-2.2v2.1h8.7v-2.1h-2.4l-7.8-11.9 7.2-10.5h3.5V0z M161.4 2.1h2.6v22.3h-2.6v2.1h8.7v-2.1h-2.3V15h4c1.5 0 1.6.2 2.1 1.7l.1.2v.2h1.7v-6.6H174v.2c0 .2-.1.3-.2.4-.5 1.2-.7 1.8-2.1 1.8h-4V2.1h9.1c1.7 0 2.1.5 3.1 3v.2h2V0h-20.6l.1 2.1z M108.2 16.1c-.8 5.2-3.6 8.1-7.9 8.1-5.1 0-8.2-4.3-8.2-11.1 0-6.5 3.1-10.7 7.9-10.7 4.6 0 7 2.9 8.1 5.4l.1.2h1.8V0h-2l-.7 2.8C105.4.9 103 0 100.1 0c-6.8 0-12 5.7-12 13.3 0 3.9 1.2 7.2 3.3 9.6 2.1 2.4 5.1 3.6 8.4 3.6 6 0 9.8-3.7 10.6-10.4v-.3h-2.3v.3z"></path>
</svg>
