<svg xmlns="http://www.w3.org/2000/svg" width="800" height="200" viewBox="130 250 550 100">
  <path fill="#262730" d="M300.4 316.8h8c1 8.4 4.3 15.4 18.2 15.4 8.8 0 15.6-5.3 15.6-13.2 0-8-3.6-11.3-16.6-13.5-14.4-2.3-23-6.9-23-19.3 0-10.8 9.2-19.1 22.1-19.1 13.8 0 22.3 6.9 23.6 19.4H341c-1.7-8.9-6.7-12.5-16.2-12.5-9.4 0-14.3 4.8-14.3 11.4 0 6.8 2.5 10.4 16.5 12.5 15.3 2.5 23.4 7.2 23.4 20.5 0 11.8-10.1 20.7-23.7 20.7-18.4 0-25-10.3-26.2-22.3z"/>
  <path fill="#262730" d="M362.4 325.4v-33h-7.2v-6.8h7.2v-12.2h8v12.2H382v6.8h-11.7v32.3c0 5 2.2 7.4 6.2 7.4 2.5 0 4.4-.4 6.1-1v6.7c-1.6.6-3.5 1.1-6.8 1.1-9 0-13.5-5.5-13.5-13.4z"/>
  <path fill="#262730" d="M390.3 285.6h8v9.2c3.1-5.8 7.5-9.8 16.5-10v7.5c-10 .5-16.5 4.8-16.5 17.4v28.5h-8v-52.6z"/>
  <path fill="#262730" d="M454.5 307.4c-.4-11.2-6.1-16-14.4-16-8.1 0-13.7 6-15 16h29.4zm-37.9 5.5V311c0-16.8 9.7-26.4 23.5-26.4 11.6 0 22.6 7 22.6 25.8v3.4h-37.8c.3 11.6 5.8 18.5 16 18.5 7.9 0 12.4-3 13.4-8.9h8c-1.7 10.2-10 15.6-21.4 15.6-14.2 0-24.3-10.5-24.3-26.2z"/>
  <path fill="#262730" d="M500.8 320.4v-6.8H494c-10.9 0-17.5 2.7-17.5 10.2 0 5.2 2.5 8.9 9.5 8.9 8.5 0 15-4.4 15-12.3zm-32.3 3.4c0-11.8 11.3-16 25.1-16h7.2V303c0-8-3-11.5-10.7-11.5-7 0-10.8 3-11.6 9.2h-8c1.1-11.6 10.3-15.9 20-15.9 9.6 0 18.3 3 18.3 17.2v36.3h-8v-6.4a18 18 0 01-15.6 7.3c-9.3 0-16.7-4.9-16.7-15.3z"/>
  <path fill="#262730" d="M519.4 285.6h8v7.8c2.2-4.8 7.7-8.7 15-8.7 6.3 0 12 2.7 14.6 9.6 3.5-6.7 11-9.6 17.2-9.6 9 0 16.9 5.5 16.9 20.3v33.2h-8v-33.8c0-9-3.7-12.7-10.6-12.7a13 13 0 00-13.3 13.7v32.8h-8v-33.8c0-9-3.7-12.7-10.6-12.7a13 13 0 00-13.3 13.7v32.8h-8v-52.6z"/>
  <path fill="#262730" d="M602.1 338.2h8v-72.9h-8v73z"/>
  <path fill="#262730" d="M623 338.2h8v-52.6h-8v52.6zm-1.4-67.5c0-3 2.4-5.4 5.3-5.4a5.4 5.4 0 010 10.8 5.4 5.4 0 01-5.3-5.4z"/>
  <path fill="#262730" d="M646.6 325.4v-33h-7.2v-6.8h7.2v-12.2h8v12.2h11.7v6.8h-11.7v32.3c0 5 2.2 7.4 6.2 7.4 2.5 0 4.5-.4 6.2-1v6.7c-1.7.6-3.6 1.1-6.8 1.1-9.2 0-13.6-5.5-13.6-13.4z"/>
  <path fill="#FFC7C7" d="M276.4 276v.1l-22.2 57.7c-1.5 2.7-3.7 4.4-7 4.4h-84.7c-2 0-4.2-1-5.3-2l116.4-62.5c1.6-1 3.3.6 2.8 2.3z"/>
  <path fill="#FF8C8C" d="M254.1 333.8c-1.5 2.8-3.7 4.4-7 4.4h-84.6c-3 0-5.8-1.6-7.1-4.4l47-71.3c1.1-1.6 3.5-1.6 4.7 0l47 71.3z"/>
  <path fill="#FF4B4B" d="M252.4 336.2c-1 1.1-2.9 2-5.2 2h-84.7c-3 0-6-1.5-7.1-4.4L133 276c-.6-1.6 1-3.2 2.7-2.5h.1l116.5 62.6z"/>
</svg>
