<svg  xmlns="http://www.w3.org/2000/svg" width="150" height="28" viewBox="35 20 150 25">
<path fill="#001e2b" d="M175.1 28.47a2 2 0 1 1 2 2 2 2 0 0 1-2-2m3.46 0A1.47 1.47 0 1 0 177.1 30a1.45 1.45 0 0 0 1.46-1.53m-.48 1.1h-.52l-.48-.92h-.36v.92h-.46V27.4h1.05c.57 0 .84.16.84.67 0 .4-.2.56-.58.58zm-.77-1.24c.26 0 .42-.05.42-.32 0-.3-.3-.26-.5-.26h-.5v.6zM49.68 24.5h-4.6v14.74h-3.56V24.5h-4.6v-3h12.76v3M54.4 27.8a6.14 6.14 0 0 1 3.8-1.6c1.4 0 3.36.84 3.36 3.98v9.05h-3.38v-7.68c0-1.02.08-2.64-1.38-2.64a3.5 3.5 0 0 0-2.4 1.4v8.94h-3.37V21.5h3.37v6.3M62.95 32.85c0-3.4 1.87-6.65 5.6-6.65s5.62 3.26 5.62 6.65c0 3.38-1.9 6.66-5.6 6.66s-5.62-3.27-5.62-6.65m7.76 0c0-1.6-.32-4.17-2.14-4.17s-2.14 2.58-2.14 4.17.32 4.17 2.14 4.17 2.14-2.57 2.14-4.17M82.8 37.92a6.16 6.16 0 0 1-3.8 1.6c-1.4 0-3.35-.86-3.35-4v-9.05h3.37v7.68c0 1.03-.06 2.65 1.4 2.65a3.5 3.5 0 0 0 2.4-1.4v-8.93h3.37v12.77h-3.4v-1.32M91.7 35.04a.87.87 0 0 0-.96.8c0 1.66 8.85-1.23 8.85 3.76 0 1.9-1.3 3.9-6.35 3.9-4.4 0-5.9-1.55-5.9-3.2a2.2 2.2 0 0 1 1.4-1.95 2.03 2.03 0 0 1-1-1.62 2.9 2.9 0 0 1 1.65-2.55 4.8 4.8 0 0 1-1.6-3.5c0-2.84 2.4-4.48 5.15-4.48a6.13 6.13 0 0 1 3.15.9 3.13 3.13 0 0 1 2.3-1.06 4.97 4.97 0 0 1 .98.1v2.36a3 3 0 0 0-1.07-.27 1.86 1.86 0 0 0-.9.27 5.1 5.1 0 0 1 .68 2.17c0 2.82-2.37 4.46-5.13 4.46l-1.25-.1m-1.07 4.23a.88.88 0 0 0-.53.8c0 1.18 2.4 1.25 3.2 1.25.57 0 3.53-.06 3.53-1.08 0-.66-.45-.6-2.46-.7zm2.32-6.36c1.42 0 1.83-1.16 1.83-2.37 0-1.17-.55-2.15-1.83-2.15-1.4 0-1.84 1.2-1.84 2.4 0 1.16.55 2.12 1.85 2.12M104.2 27.8a6.14 6.14 0 0 1 3.82-1.6c1.4 0 3.35.84 3.35 3.98v9.05H108v-7.68c0-1.02.07-2.64-1.4-2.64a3.5 3.5 0 0 0-2.4 1.4v8.94h-3.36V21.5h3.37v6.3M117.5 26.47h2.63v2.8h-2.62v6.5c0 .62.2 1.25 1.28 1.25a2.4 2.4 0 0 0 1.35-.47v2.57a7.83 7.83 0 0 1-2.17.4c-2.1 0-3.83-1.2-3.83-3.98v-6.27h-1.57v-2.8h1.57v-3.2h3.38v3.2M134.17 39.24h-1.82l-3-14.5h-.06l-3.18 14.5h-1.82l-3.72-17.74h1.78l2.92 14.32h.05l3.2-14.32h1.74l3.04 14.32h.05l3.12-14.32h1.75l-4.05 17.74M137.46 32.94c0-4.7 2.23-6.65 5.03-6.65s5.03 1.93 5.03 6.64-2.24 6.66-5.04 6.66-5.04-1.94-5.04-6.66m8.3 0c0-2.14-.53-5.15-3.27-5.15s-3.26 3-3.26 5.14.52 5.16 3.25 5.16 3.26-3 3.26-5.16M150.7 29.36h.05c.7-1.5 1.6-2.9 3.48-2.9h.7v1.63c-2.34-.33-3.55 2.18-4.23 4v7.14h-1.78v-12.6h1.78v2.72M158.13 32.5l4.68-5.85h2l-3.48 4.3 4 8.3h-1.92l-3.22-6.85-2.05 2.53v4.3h-1.78V21.5h1.78v11M173.02 29.46a3.26 3.26 0 0 0-2.88-1.67c-1.16 0-2.25.58-2.25 1.86 0 3.08 6.62 1.73 6.62 5.97a3.84 3.84 0 0 1-4.12 3.97 5.17 5.17 0 0 1-4.7-2.64l1.4-.9a3.5 3.5 0 0 0 3.3 2.04 2.2 2.2 0 0 0 2.46-2.14c0-3.17-6.63-1.66-6.63-6.18a3.56 3.56 0 0 1 3.85-3.5 4.83 4.83 0 0 1 4.2 2.2l-1.26.98"></path>
</svg>
