<svg xmlns="http://www.w3.org/2000/svg" width="150" height="19" viewBox="0 0 1743 222.2">
<path d="M208 0v44.4c-3.5 0-6.5.4-9.4-.1-4.1-.8-5.5.9-6.6 4.5-13.9 45-28 89.9-42 134.8-3.2 10.3-6.3 20.7-9.8 30.9-.5 1.4-2.5 3.3-3.8 3.3-22.5.2-45 .1-67.8.1-.5-1.4-1.1-2.7-1.6-4.1-17.4-55-34.8-110.1-52-165.1-1.2-3.7-2.7-5.1-6.7-4.5-2.6.5-5.5-.1-8.3-.2V0h94v44.3H74.9c10.5 41.1 20.9 81.7 31.3 122.3.3 0 .6.1 1 .1 11.2-40.6 22.4-81.3 33.8-122.5h-18.9V0H208z M356 58.3h63.2c.6 7.4 1.2 14.7 1.9 22.2 3.8-4.4 7-8.9 11-12.4 17.9-15.4 38.5-18.4 60.2-10.4 16.4 6.1 23.4 19.6 23.7 36.5.4 24.1.2 48.3.2 72.5v6.6l12.9.6v43.7h-70.8V212v-92.5c0-8.4-2.9-12.7-9.3-14.8-6.7-2.2-13.6 0-18.2 6-1.1 1.4-1.9 3.1-2.7 4.8-.5 1.2-1 2.6-1 3.8-.1 17.9 0 35.8 0 54.2h9.7v44.1H356v-43.9h12.3v-70.8h-12.2c-.1-15.2-.1-29.7-.1-44.6zM741.9 102.4h-10.8v-44c.8-.1 1.6-.3 2.4-.3h66.6v115.6H813v43.9h-65.5v-16.5c-2.9 3.1-4.9 5.4-7.2 7.5-15.9 14.1-43.9 17.9-62.9 8.3-14.5-7.3-21.7-19.7-22.3-35.4-.9-24.3-.7-48.6-1-72.9v-6.3h-12.7v-44H712v5.6c0 29.3-.1 58.6.1 88 0 4.1.7 8.3 2 12.2 2 5.9 7 8.9 13.2 8.7 6.1-.2 10.5-3.1 12.6-8.8.8-2.2 1.7-4.5 1.7-6.7.4-18.1.3-36.3.3-54.9z M345.7 149h-98.5c-.2 9.1.1 17.6 4.5 25.4 3.6 6.5 9.6 8.9 16.8 8.6 7.2-.3 12.9-3.3 15.9-10.1 1.3-3 2.1-6.2 3.3-9.6h54.6c-2.2 17.5-8.9 32.3-22.9 43.3-9.9 7.8-21.4 12-33.8 13.8-16.7 2.5-33.2 1.8-49.4-3.4-21.7-7-36.3-21.4-43-43-7.3-23.3-7.6-47 .1-70.3 9.4-28.7 30.1-44.2 59.5-48.6 13.2-2 26.3-1.1 39.1 2.4 29.9 8.1 45.9 28.7 50.8 58.4 1.8 10.6 2 21.5 3 33.1zm-96.9-30.8H287c.5-8.5-.7-16.1-8.2-20.9-6.8-4.3-14.3-4.7-21.2-.4-7.7 4.9-8.7 12.8-8.8 21.3zM1114 148.9h-98.2c-.2 9-.2 17.6 4.3 25.4 3.8 6.7 9.9 9.1 17.3 8.7 7.4-.4 13.1-3.8 15.9-10.9 1.1-2.8 1.8-5.7 2.8-8.8h54.7c-3.5 32.1-26 53.9-59.4 57.6-15.6 1.7-30.9 1-46-3.7-22.3-7-37.2-21.7-44-44-6.9-23-7.2-46.3.3-69.3 9.5-28.9 30.3-44.5 59.9-48.8 13.9-2 27.6-.9 41 3.1 27.5 8.3 43 27.6 48.1 55.2 2.1 11.4 2.2 23.1 3.3 35.5zm-96.4-30.8h38c.1-16-7.7-24.9-20.6-23.9-11.9.9-19.2 11-17.4 23.9z M535.6 58h18c0-10.6.4-20.9-.1-31.2-.3-5.4 1.5-7.4 6.8-8.5 15.2-3.1 30.2-6.7 46-10.3v50h25.6v44.7h-25c-.2 1.8-.4 3.3-.4 4.7v51.5c0 1.8.2 3.7.4 5.5 1.3 9.8 8.2 14.9 18 13.3 1.6-.3 3.2-.6 5.6-1v27.7c0 12.9 0 12.9-12.7 14.9-13.6 2.2-27.1 2.9-40.7-.3-19.1-4.6-27.8-15.5-27.9-35.3V103h-13.7c.1-15.3.1-29.8.1-45zM826.2 217.6v-43.9h12.7v-70.9h-12.6V58.3h62.1l1.9 25.3 2-4.4c5.1-12.9 14.4-20.7 28.3-22.2 6.7-.7 13.6-.1 20.3.3 1.2.1 3.4 2 3.4 3.1.2 15.8 0 31.6 0 47.5 0 .3-.3.6-.6 1.1-7.6 0-15.5-1-23.1.2-16.2 2.6-23.8 12-24.5 28.5-.2 5.8-.2 11.7-.3 17.5v18.2h18v44.3c-29.1-.1-58.1-.1-87.6-.1z" />
<path fill="#ED1E25" d="M1237 .3c8.5 1.4 17.1 2.2 25.4 4.3 34.3 8.6 51.7 50.6 33.5 80.3-4.4 7.2-10.5 12.4-17.7 16.5-3.2 1.8-6.4 3.5-10.3 5.5 2 .8 3.4 1.6 4.9 2 23.7 6.9 34.2 24.4 35.9 47.6 2.4 31.9-17.7 55.7-49.6 59.6-9.9 1.2-19.9 1.9-29.9 1.9-31.7.2-63.3.1-95 .1h-5.8v-43.8h18.9V44.4H1128V.2c36.3.1 72.7.1 109 .1zm-32.3 128.8c0 14.9-.1 28.5.1 42.2 0 .9 2 2.7 3 2.7 8.3 0 16.7 0 24.9-.7 6.1-.5 11.7-2.8 15.1-8.4 8-13.2.4-31.6-14.7-34.2-9-1.6-18.4-1.1-28.4-1.6zm.2-40.5c8.7-.5 16.9-.2 24.8-1.6 9.6-1.7 16.2-11 16.3-21.2 0-10.2-5.9-19.7-14.7-21.3-8.5-1.5-17.4-1.4-26.4-2v46.1z M1743 103.3c-7.5-.1-15-.4-22.4-.2-1.1 0-3.2 1.9-3.2 3-.2 18.8-.6 37.7.1 56.5.4 12.3 7.9 17.4 20 15.2 1-.2 2-.2 3.2-.3.2 1.2.5 2.3.5 3.4 0 10.8 0 21.7.1 32.5 0 2.4-.3 4.2-3.1 4.7-16.5 2.7-32.9 5.1-49.6 1.2-18.7-4.4-27.7-14.3-28.1-33.4-.5-25.5-.2-51-.3-76.5V103h-6.4c-8.3-.1-7.3.9-7.4-7.6V58.5h18.4c0-10.1-.1-19.8 0-29.4.1-10.6-1.5-8.2 8.7-10.7 14.2-3.4 28.5-6.5 43.5-10v49.9h26v45z M1569.2 119.2c0-5.4.3-10-.1-14.6-.6-8.5-6.1-14.1-13.8-14.3-7.7-.2-14.1 5.5-15.3 13.7-.3 1.8-.3 3.6-.5 5.8h-53.3c-1.9-20.2 8.6-38.7 28.2-47.2 28.5-12.3 57.2-11.2 85.1 2.2 17.1 8.2 25.9 22.7 26.2 41.7.4 20.3.2 40.7.3 61v6.6h12.8v43.8h-66.2c-.5-5.4-1-11-1.6-17.4-1.5 1.7-2.5 2.7-3.4 3.8-17.3 21.3-50.3 21.2-67.2 11.3-13.4-7.9-19.2-20.5-20.1-35.4-2-32.6 15.1-53.7 48.1-58.7 11.6-1.8 23.5-1.6 35.3-2.3 1.6-.1 3.2 0 5.5 0zm.7 28.2c-5.4 0-9.7-.6-13.9.1-12.9 2.1-19.5 11.1-18.1 24.1 1.2 10.7 10.4 16.1 20.3 11.9 5.3-2.2 8.9-6.3 9.7-11.8 1.2-7.9 1.4-16 2-24.3z M1475.6 149.2h-98.5c0 9.7.1 18.9 5.6 27 4.2 6.2 10.6 7.7 17.6 7 6.8-.7 11.9-4.1 14.6-10.5 1.2-2.7 1.8-5.7 2.8-9h54.4c-2.2 17.5-8.9 32.5-23.3 43.3-17 12.8-36.8 15.8-57.3 14.4-8.4-.5-16.9-2-25-4.5-21.4-6.5-36-20.6-42.8-41.9-8-25-8.2-50.2 1.1-74.9 10.3-27.1 31.1-41 59.2-44.8 13.7-1.8 27.3-.7 40.5 3.4 28.2 8.7 43.2 28.8 47.9 57 2.1 10.8 2.3 21.8 3.2 33.5zm-58.1-30.5c.1-9-.9-17.2-9.5-21.8-7.3-3.9-14.9-4-21.6 1.2-6.6 5.1-7.8 12.5-7.3 20.6h38.4z" />
</svg>
