<svg xmlns="http://www.w3.org/2000/svg" width="700" height="109" fill="none" viewBox="0 0 700 109">
  <path fill="#000" d="M181.2 83.4h3.2l12.8-47.1 6.3-1v-3h-17.1v3l6.9 1-9.6 35-11.3-35 7.6-1v-3h-20.5v3l7.5 1L155.5 71l-9.3-34.8 7-.8v-3.1h-20.6v3l6.3.8 13.6 47.3h3.3L168 44l13 39.3z"/>
  <path fill="#000" d="M219.2 49.4c4.6 0 8.2 3.9 8.2 8.2 0 2.2-.8 4-4.5 4h-13.7c.8-8.8 5.7-12.2 10-12.2zm.4-3.5c-9.4 0-17.4 7.8-17.4 19.3 0 11.6 6.7 18.6 16.9 18.6 6.9 0 11.7-3.4 14.5-8.7l-1.8-1.5C229 76.8 226 79 221.3 79c-7.3 0-12.1-5-12.3-14.2h24.1c.3-1 .6-2.5.6-4.2 0-9.2-6.2-14.6-14-14.6z"/>
  <path fill="#000" d="M249 37.6c2.7 0 5-2 5-4.8 0-3-2.3-4.8-5-4.8-3 0-5.1 1.8-5.1 4.8 0 2.8 2.1 4.8 5 4.8zm8.5 42.5l-5.3-1-.1-12.1V57l.2-10.3-1.1-.8-11.7 4.7v2.6l6 .7c.2 3 .3 5.4.3 9.5V67l-.1 12-5.7 1.1v2.7h17.5v-2.7z"/>
  <path fill="#000" d="M278 49c4.8 0 7.5 3.8 7.5 9.1 0 5.6-2.9 9.6-7.7 9.6-4.7 0-7.3-3.8-7.3-9.3 0-5.5 2.8-9.4 7.6-9.4zm-13.7 9.3c0 5.2 2.2 8.7 5.8 10.7-3.7 3.5-5 6-5 8.4 0 3 1.6 4.8 4.9 5.7-5.6 2.8-7.4 5.4-7.4 8.7 0 5.3 4.7 9.1 15.6 9.1 12.4 0 18.7-6.5 18.7-13 0-6.2-3.8-9.8-12.2-9.8h-9.9c-3.5 0-4.3-1.3-4.3-3.4 0-1.7.6-3.1 1.8-4.8 1.7.5 3.6.8 5.6.8 7.9 0 13.7-4.4 13.7-12.4 0-2.7-.6-5-1.7-6.8h7.4v-4.8l-1.1-.8-8.6 3a15 15 0 00-9.6-3c-7.9 0-13.7 4.5-13.7 12.4zm14.2 39.1c-6 0-9.7-2-9.7-6.9 0-2.4.8-4.5 3-6.8l3 .2h8.9c5.4 0 7.5 2.6 7.5 5.9 0 4.2-4.4 7.6-12.7 7.6z"/>
  <path fill="#000" d="M306.3 67l-.1 12-5.7 1.1v2.7h17.6v-2.7l-5.3-1-.1-12.1V56.3c3.8-3.5 7-5 10.7-5 4.4 0 6.1 2.3 6.1 9.2V67l-.1 12.1-5.5 1v2.7h17.5v-2.7l-5.3-1L336 67v-7c0-10-3.2-14-9.7-14a20 20 0 00-13.8 7V38.3l.3-10.7-1-.6-11.7 3.4V33l6.2.8V67z"/>
  <path fill="#000" d="M356.7 74.4V50.9h10.2v-4h-10l.3-10.2h-4.5l-2 10-6.7 1v3.2h6.2V75.2c0 5.9 3.3 8.6 8.6 8.6 3.8 0 7-1.4 8.9-4l-1.8-2c-2 1.4-3.4 2-5 2-2.7 0-4.2-1.6-4.2-5.4z"/>
  <path fill="#000" d="M383 83.8c9.7 0 14.7-5 14.7-10.8 0-4.8-2.9-8.3-10.4-11.1l-2.4-.8c-5-2-7-3.2-7-6.5 0-3.1 2.5-5.2 7.1-5.2 1.8 0 3.6.5 5.2 1.3l1.2 6h4l.3-7.7c-3.3-2-6.5-3-10.6-3-8.5 0-13.2 5-13.2 10.6 0 5.1 3.7 8.2 9.2 10.2l3.5 1.3c4.7 1.7 7 3.3 7 6.6 0 3.4-2.7 5.7-8.5 5.7-2.3 0-4.3-.4-6-1.2l-1.5-6.6h-4.2l.3 8.3c3.7 2 7 3 11.3 3z"/>
  <path fill="#000" d="M435 49.4c-2.7-3.5-3.3-5.9-3.3-8.6 0-4 3-7 6.8-7 3.7 0 6.6 2.7 6.6 7 0 4.5-3.3 7.8-8 11-.7-.7-1.4-1.5-2-2.4zM469 83l.2-3.4-7.3-1-6.2-6.5a55.5 55.5 0 007.9-17.7l5.7-1v-3H454v3l6 1c-1.4 5.9-3.5 10.8-6.3 15.5-3-3.2-5.7-6-8.7-9.4a335 335 0 01-6-6.7c7.6-4.2 11.1-7.9 11.1-13 0-5.8-4-9.8-11.5-9.8-7 0-12.4 4.1-12.4 10.8 0 4 1.5 7.8 5.2 12.1l.3.4c-7.5 3.8-11.4 8.9-11.4 15.7 0 7.6 6.5 13.7 16 13.7 7.2 0 12-2.8 15.4-6.4l2.6 3c2.5 2.5 4.9 3.4 8.9 3.4 2 0 3.5-.2 5.7-.7zm-27.2-16.8l7.7 8.7c-2.9 2.5-7 4-11.2 4-7.3 0-11.4-5.5-11.4-11a13 13 0 016.6-11.5c2.5 2.9 4.9 5.6 8.3 9.8z"/>
  <path fill="#000" d="M500.8 59.4c0 6.6 0 13.2-.2 19.5l-7 .8v3.1h20.8c14.6 0 20.2-7 20.2-13.8 0-6.1-4.2-11-14.3-12.5 8.4-1.7 11.8-6.5 11.8-12 0-7-6-12.2-16.5-12.2h-22v3l7 .9c.2 6.5.2 13 .2 19.5v3.7zm11.3-1c10.4 0 15 3.6 15 10.6 0 6.7-4.7 10.3-14.4 10.3h-4.6c-.2-6.4-.2-13-.2-20.9h4.2zm1.2-22.7c7.7 0 11.6 2.5 11.6 9.4S521 55 512 55h-4c0-6 0-12.7.2-19.2h5.2z"/>
  <path fill="#000" d="M549.4 37.6c2.8 0 5-2 5-4.8 0-3-2.2-4.8-5-4.8s-5 1.8-5 4.8c0 2.8 2.2 4.8 5 4.8zm8.6 42.5l-5.2-1-.2-12.1V57l.2-10.3-1.1-.8-11.6 4.7v2.6l6 .7c.2 3 .2 5.4.2 9.5V67l-.1 12-5.7 1.1v2.7H558v-2.7z"/>
  <path fill="#000" d="M591.8 83.6c2.7 0 4.8-1 6.6-4l-1.5-1.6c-.8 1-1.7 1.7-3 1.7-1.6 0-2.7-1.2-2.7-4.5V59.1c0-9.5-3.8-13.2-11.7-13.2-7.7 0-13.3 3.7-14.7 9.4.2 2 1.4 3.1 3.5 3.1 2 0 3.3-1.3 4-3.6l1.4-5c1.6-.3 3-.4 4-.4 5 0 7.2 1.8 7.2 9.2v1.9c-3 .6-6.2 1.6-8.6 2.5-10.2 3.7-12.5 7-12.5 11.4 0 6.2 4.6 9.4 10.1 9.4 4.5 0 7-2 11.1-6a6.6 6.6 0 006.8 5.8zm-21.3-10.4c0-2.2.8-5.1 7.4-7.7 1.6-.6 4.3-1.5 7-2.2v11.6c-4.3 3-5.8 4-8.3 4-3.5 0-6-1.7-6-5.7z"/>
  <path fill="#000" d="M614 83.8c9.7 0 14.7-5 14.7-10.8 0-4.8-2.9-8.3-10.4-11.1l-2.4-.8c-5.1-2-7-3.2-7-6.5 0-3.1 2.5-5.2 7-5.2 2 0 3.6.5 5.3 1.3l1.2 6h4l.3-7.7c-3.3-2-6.5-3-10.6-3-8.5 0-13.2 5-13.2 10.6 0 5.1 3.6 8.2 9.2 10.2l3.4 1.3c4.8 1.7 7 3.3 7 6.6 0 3.4-2.7 5.7-8.4 5.7-2.3 0-4.3-.4-6.1-1.2l-1.5-6.6h-4.1l.3 8.3c3.7 2 7 3 11.3 3z"/>
  <path fill="#000" d="M652 49.4c4.6 0 8.2 3.9 8.2 8.2 0 2.2-.8 4-4.5 4H642c.8-8.8 5.7-12.2 10-12.2zm.4-3.5c-9.5 0-17.4 7.8-17.4 19.3 0 11.6 6.7 18.6 16.9 18.6 6.8 0 11.7-3.4 14.5-8.7l-1.8-1.5c-2.8 3.2-5.7 5.3-10.5 5.3-7.3 0-12.1-5-12.3-14.2H666c.3-1 .6-2.5.6-4.2 0-9.2-6.2-14.6-14.1-14.6z"/>
  <path fill="#000" d="M685.3 83.8c9.7 0 14.7-5 14.7-10.8 0-4.8-2.9-8.3-10.4-11.1l-2.4-.8c-5.1-2-7-3.2-7-6.5 0-3.1 2.5-5.2 7.1-5.2 1.8 0 3.6.5 5.2 1.3l1.2 6h4l.3-7.7c-3.3-2-6.5-3-10.6-3-8.5 0-13.2 5-13.2 10.6 0 5.1 3.7 8.2 9.2 10.2l3.4 1.3c4.8 1.7 7 3.3 7 6.6 0 3.4-2.6 5.7-8.4 5.7-2.3 0-4.3-.4-6.1-1.2l-1.4-6.6h-4.2l.3 8.3c3.7 2 7 3 11.3 3z"/>
  <path fill="#FC3" d="M0 35.1a11.2 11.2 0 1022.5 0 11.2 11.2 0 00-22.5 0z"/>
  <path fill="#FC3" d="M0 91.3a11.2 11.2 0 1022.5 0 11.2 11.2 0 00-22.5 0z"/>
  <path fill="#FC3" d="M4.2 63.2a7 7 0 1014 0 7 7 0 00-14 0z"/>
  <path fill="#FC3" d="M4.2 7a7 7 0 1014 0 7 7 0 00-14 0z"/>
  <path fill="#FC3" d="M43.1 73.6a11.2 11.2 0 1022.5 0 11.2 11.2 0 00-22.5 0z"/>
  <path fill="#FC3" d="M47.3 101.7a7 7 0 1014 0 7 7 0 00-14 0z"/>
  <path fill="#FC3" d="M47.3 45.5a7 7 0 1014 0 7 7 0 00-14 0z"/>
  <path fill="#FC3" d="M47.3 17.4a7 7 0 1014 0 7 7 0 00-14 0z"/>
  <path fill="#FC3" d="M86.2 35.1a11.2 11.2 0 1022.5 0 11.2 11.2 0 00-22.5 0z"/>
  <path fill="#FC3" d="M90.5 7a7 7 0 1014 0 7 7 0 00-14 0z"/>
  <path fill="#FC3" d="M90.5 63.2a7 7 0 1014 0 7 7 0 00-14 0z"/>
  <path fill="#FC3" d="M90.5 91.3a7 7 0 1014 0 7 7 0 00-14 0z"/>
</svg>
