<svg xmlns="http://www.w3.org/2000/svg" width="100" height="77" viewBox="0 0 268 206">
<path fill="#111" d="M118.13 17.98v25.04c3.4-1.83 5.76-5 6.9-8.6l.28.14c-.74 8.93-6.83 17.86-16.3 17.86-9.54 0-16.58-7.1-16.58-18.47 0-8.53 5.55-13.88 12.65-18.68-1-.27-2.1-.4-3.18-.4-4.88 0-7.72 3.3-7.72 6.7h-.4c-.08-.48-.08-.95-.08-1.43 0-6.02 3.2-13.33 10.9-13.33 4.94 0 8.73 4.54 14.48 4.54 2.3 0 5.15-1.08 6.3-3.58h.2c-.07 4.4-1.42 8.93-7.45 10.22zm3.66 25.64c-3.4 3.6-7.05 6.64-11.8 6.64-8.78 0-15.55-6.9-15.55-16.92 0-5.9 2.44-9.07 5.14-12.8h-.28c-1.7 1.7-6.16 5.96-6.16 13.2 0 11.1 6.97 17.94 16.1 17.94 6.37 0 10.7-4.4 12.66-8l-.13-.05zm2.7-32.81c-1.16 2.17-3.6 4.94-8.53 4.94-4.94 0-9.48-3.38-13.47-3.38-3.65 0-6.16 2.44-7.1 4.26l.06.14c1.3-1.3 3.25-2.57 6.43-2.57 5.27 0 8.65 3.24 14 3.24 5.7 0 8.26-3.73 8.73-6.57l-.14-.06zm-18.82 4.67c-3.45 3.6-6.63 7.52-6.63 15.16 0 4.2 1.42 8.53 4.6 11.24l1.96-1.02V22.7l-1.8.96-.35-.68 9.47-5.14c-2.57-.54-4.87-1.7-7.24-2.37zm11.7 2.64c-.47.08-.94.08-1.48.08-.95 0-1.83-.07-2.7-.27v19.77l-8.87 4.8c1.83 1.36 4.06 2.17 6.9 2.17 2.3 0 4.33-.48 6.16-1.3V18.12zm-9.74 3.46l-1.28.75v18.14l1.28-.67v-18.2zm38.9 2.58v23.4c0 6.5-5.74 10.9-12.17 12.2l-.13-.28c3.18-1.56 5-4.74 5-8.12V27.1l-3.65-3.3-1.43 1.55v18.88l2.03 1.83v.14l-5.48 5.95-6.3-5.75v-.27l2.44-2.57v-29.9L134.04 6l.13.07V24.2l5.9-6.36 6.15 5.55 1.15-1.23.54.48-1.35 1.5zm-18.93 22.12v-.13l1.43-1.42V12.5L127.6 14v30.03l-2.16 2.17v.13l5.28 4.74.95-1.08-4.06-3.74zm13.8-20.23l-4.4-3.8-.93 1.02 3.92 3.52v24.37c0 1.62-.35 3.3-.96 4.26l.07.07c1.7-1.22 2.3-3.05 2.3-5.42V26.03zm15.9 11.7v3.46l6.58 5.13 3.8-4.06.53.54-8.8 9.42-8.92-7.18-1.36 1.43-.54-.55 1.56-1.62V27.18l12.8-9.34 6.7 10.83-12.33 9.07zm-5 5.96V26.5l-1.42 1.02v16.85l8.4 6.83 1.08-1.14-8.05-6.37zm5.15-20.85l-.14.07V36.8l6.04-4.4-5.9-9.55zm1.76-1.35l-1.2.88 5.95 9.54 1.22-.88-5.96-9.54zM31.74 115.16l-9.4-8.13-7.18 8.13-9.75-8.4V93.5H3.53c-1.7 0-2.57 1.08-2.98 2.37h-.2C.2 95.33 0 94.37 0 93.3c0-1.76.47-6.36 5.4-6.36V75.3c0-2.24-2.63-3.12-2.63-6.1 0-3.85 3.66-7.64 10.36-10l.27.2c-2.44 1.4-3.72 2.77-3.72 5.68 0 4.46 4.33 3.3 4.33 10.35v2.7l7.93-8.32 8.32 8.2 7.85-8.2 7.58 7.46v25.04l-13.94 12.86zm-24.16-9.48V91.4h-3.8c-1.95 0-2.83 1.3-2.97 2.44l.08.07c.68-.74 1.35-1.14 2.9-1.14h2.38v13.67l8.93 7.7 1-1.2-8.52-7.25zm0-31.06c0-2.78-2.44-3.72-2.44-5.48 0-2.44.95-4.47 2.44-6.36l-.14-.07c-2.03 1.57-3.92 4.07-3.92 6.5 0 2.44 2.64 3.6 2.64 5.76v11.98h1.42V74.62zm14.28 6.77l-5.14-5.02-2.7 2.77v23.96l6.15 5.22 1.7-1.9V81.4zm2.16 24.15v-25.1l-5.75-5.7-1.08 1.1 5.4 5.2v25.24l9.14 7.9 1.08-1-8.8-7.65zM37.15 80.5l-4.26-4.05-2.45 2.5v24.1l6.64 5.8.05-.06V80.5zm2.17-.94l-4.94-4.8-1.02 1.08 4.54 4.33v28.3l1.42-1.37V79.56zM68.07 115.16l-6.43-5.82-5.75 5.8-7.05-6.2-.94 1-.53-.54 1.2-1.28V89.98l12.74-9.2 7.3 5.68 1.3-1.35.54.55-1.5 1.56v18.75l3.6 3.32 1.15-1.22.53.47-6.16 6.64zm-17.32-7.52V89.37l-1.42 1.02v17.92l6.5 5.82 1.08-1.08-6.15-5.42zm10.9-17.8l-5.56-4.33-.2.15v19.7l4.6 4 1.14-1.16V89.84zm2.16 18.4v-19.4l-5.74-4.68-1.36.95 5.7 4.48v19.35l5.67 5.14L69.1 113l-5.3-4.75zM87.77 93.1h6.97v14.47l-10.76 7.58c-1.42-1.62-3.45-2.77-5.95-2.77-2.03 0-3.66.68-5.82 2.5l-.34-.13 9.2-13.4h-5.68v-12.6l11.3-7.84c1.35 1.1 2.37 1.7 4.13 1.7 1.36 0 3.32-.27 4.8-1.48l.28.13-8.12 11.84zM80.2 110.4c-1.98 0-3.53.68-4.9 1.62v.14c1.1-.48 2.18-.6 3.2-.6 1.55 0 4 .74 5.6 2.63l1.57-1.14c-1.3-1.5-2.85-2.64-5.48-2.64zm7.22-11.37h-3.8l-7.9 11.44.06.12c1.97-1.42 3.86-2.37 6.16-2.37 2.03 0 4.13.95 5.42 2.57l.06-.06v-11.7zm-9.87 0v-10.9l-1.43 1.02v11.37h5.48l1.1-1.5h-5.16zM91.7 85.78c-1.43 1.02-2.24 1.56-4.6 1.56-1.37 0-3-.6-4.28-1.96l-.13.07v9.88h2.56l6.5-9.48-.07-.06zm-3.26-.6c-1.22 0-2.77-.6-3.8-1.97l-1.68 1.16c1.28 1.56 2.5 2.24 4.4 2.24 1.2 0 2.97-.34 4.8-1.9l.07-.2c-1.15.47-2.57.67-3.8.67zm1.15 11.64h-4.4l-1.02 1.42h4v13.13l1.4-1.02V96.82zm28.48-9.68v23.4c0 6.5-5.75 10.9-12.18 12.2l-.14-.27c3.18-1.56 5-4.74 5-8.13V90.13l-3.64-3.32-1.42 1.56v18.88l2.03 1.82v.14l-5.48 5.96-6.3-5.76v-.27l2.44-2.57v-29.9l7.16-7.66.14.07V87.2l5.9-6.36 6.14 5.55 1.15-1.22.53.47-1.35 1.5zm-18.95 22.13v-.14l1.42-1.42V75.5L99.13 77v30.03l-2.16 2.17v.14l5.27 4.73.95-1.08-4.07-3.73zm13.8-20.24l-4.4-3.8-.94 1.03 3.92 3.52v24.36c0 1.62-.34 3.32-.95 4.26l.07.07c1.7-1.22 2.3-3.05 2.3-5.4V89.02zm17.47 26.13l-5.82-5.35-1.36 1.43-.54-.54 1.56-1.7V89.44l-2.84-2.7-1.1 1.2-.53-.53 6.1-6.62 5.4 4.87 1.36-1.5.6.48-1.7 1.83v19.76l3.26 3.05 1.48-1.56.54.55-6.42 6.9zm-4-6.64V88.36l-3.52-3.25-.94 1.1 3.04 2.9v20.1l5.42 4.87 1-1.08-5-4.48zm2.03-28.28l-5.55-5.08 5.08-5.4 5.55 5.06-5.07 5.42zm-3.45-6.16l-1 1 4.4 4.14 1-1.15-4.4-4zM159 115.16l-5.88-5.35V90.06l-3.6-3.25-1.88 2.03v18.27l2.1 1.96v.27l-5.55 5.82-6.3-5.75v-.2l2.43-2.57V89.57l-3.18-2.9-1.3 1.4-.53-.53 6.16-6.7 6.16 5.5v1.34l6.43-6.84 6.02 5.42 1.34-1.42.6.54-1.6 1.7v19.34l3.03 2.85 1.5-1.63.53.54-6.5 6.97zm-17.86-5.9v-.13c0 .14 1.36-1.35 1.36-1.35V88.56l-3.86-3.52-.95 1 3.38 3.13v17.86l-2.1 2.17v.13l5.2 4.74 1.1-1.15-4.14-3.65zm14.15-.53V88.9l-4.2-3.8-1.1 1.16 3.87 3.45v19.7l5.07 4.74 1.08-1.15-4.73-4.27zm22.8 18.6c-2.24-2.43-3.8-3.45-5.9-3.45-2.23 0-4.8.9-7.44 2.3l-.2-.2 9.34-10.82-6.63-5.28-1.3 1.35-.53-.47 1.5-1.63V89.98l12.84-9.2 7.18 5.68 1.22-1.35.54.55-1.42 1.56v23.15c0 3.52 1.96 3.4 1.96 6.02 0 3.05-4.4 5.9-11.17 10.97zm-9-18.74V89.43l-1.43 1.02v18.74l6.7 5.4 1.02-1.2-6.3-4.8zm4.73 13.53c-2.23 0-4.26.68-6.16 1.96v.13c1.22-.48 2.57-1.1 4.88-1.1 2.1 0 3.85 1.16 5.6 3.2l1.37-1.1c-1.7-1.95-3.73-3.1-5.7-3.1zm8.26-6.5c-1.7-1.08-2.1-2.23-2.1-5.15v-1.22l-11.25 13 .07.07c2.17-1.3 4.13-2.24 7.3-2.24 2.72 0 4.54 1.08 6.64 2.84 1.3-1.1 2.17-2.17 2.17-3.86 0-1.35-1.15-2.37-2.84-3.45zM180 89.85l-5.63-4.4-.13.13v20.78l4.33 3.38 1.42-1.62V89.85zm4.12 24.83c-1.76-1.35-1.97-2.5-1.97-5.4V88.7l-5.68-4.6-1.3.87 5.56 4.4v20.84c0 2.92.14 3.74 1.96 4.95 1.62 1.08 2.9 2.23 2.9 3.8 0 .4-.06 1.07-.06 1.07l.06.07c.34-.35.75-.9.75-1.77 0-1.48-.75-2.5-2.23-3.65zm16.24.47l-6.23-4.87-1.3 1.43-.53-.54 1.5-1.62v-23.7h-3.93l-.14-.12 2.37-3.52h1.7v-4.53l7.16-7.65.14.13V82.2h5.4l.15.13-2.37 3.52h-3.18v20.5l3.72 2.85 1.42-1.56.54.55-6.42 6.95zm-4.4-38.64l-1.42 1.57v4.13h1.42v-5.7zm0 32.36v-23h-1.42v23.8l5.75 4.48 1-1.08-5.34-4.2zm32.96-21.05v18.96l-11.44 8.46-8.6-6.5-1 1.16-.56-.54 1.22-1.36V89.44l11.98-8.6 7.98 6.23 1.3-1.35.53.54-1.4 1.55v.02zm-18.2 19.5V88.84l-1.43 1.02v18.2l8.1 6.23 1.3-.95-8-6.02zm10.9-17.25l-5.7-4.47-.07.07v20.17l5.76 4.33v-20.1zm2.15-1.22l-6.3-4.87-1.28.95 6.15 4.74v21.05l1.42-1.1V88.84zm31 26.33l-5.9-5.35V90.06l-3.58-3.25-1.9 2.03v18.27l2.1 1.96v.27l-5.56 5.82-6.3-5.75v-.2l2.45-2.57V89.57l-3.2-2.9-1.28 1.4-.54-.53 6.16-6.7 6.15 5.5v1.34l6.42-6.84 6.03 5.42 1.35-1.42.6.54-1.62 1.7v19.34l3.05 2.85 1.5-1.63.53.54-6.5 6.97zm-17.87-5.9v-.13c0 .14 1.35-1.35 1.35-1.35V88.56l-3.85-3.52-.95 1 3.4 3.13v17.86l-2.1 2.17v.13l5.2 4.74 1.08-1.15-4.13-3.65zm14.14-.53V88.9l-4.2-3.8-1.07 1.16 3.85 3.45v19.7l5.08 4.74 1.08-1.15-4.74-4.27zM105.56 182.32c-1.9-2.03-2.57-2.7-4.8-3.32v13.27l-.14.06-2.7-2.44-7.86 7.24-.14-.07v-18.2c-2.36.54-4.87 1.76-7.3 4.2l-.14-.07c.47-5.22 3.04-9.07 7.44-10.56v-13.2H88.5c-1.96 0-3.05 1.02-4 2.85h-.2c-.2-.62-.33-1.57-.33-3.12 0-2.85 2.1-5.82 5.55-5.82h.4v-7.32l-2.77-2.5-1.36 1.35-.48-.48 6.83-7.24 6.36 5.82v6.16l1.5-1.63v-7.78h.74v7.1l9-9.67 7.65 6.97v29.44l-11.84 8.92zm-15.63-5.96c-2.78.54-4.74 2.24-6.02 4.47l.07.14c1.9-1.62 3.66-2.37 5.96-2.9v-1.7zm2.16-19.42h-3.73c-2.57 0-3.6 1.63-3.65 3.52l.06.07c.82-1.35 1.63-1.83 3.25-2.03h2.64v36.88l1.42-1.35v-37.1zm0-12.18l-3.4-3.1-1.07 1.14 3.04 2.7v7.65h1.42v-8.4zm7.9 3.86l-1.48 1.55v39.2l1.5 1.34v-42.08zm8.88-1.56l-4-3.65-4.12 4.48v23.82c3.52.34 5.95 1.35 8.05 3.65l.07-.07v-28.22zm-8.12 29.3v1.77c2.3.54 3.24 1.22 4.87 3.1l1.55-1.2c-1.62-2.04-3.24-3.26-6.42-3.67zm10.28-30.38l-4.6-4.27-1.1 1.16 4.28 3.93v31.46l1.42-1.08v-31.2zm29.98 9v18.95l-11.44 8.46-8.6-6.5-1 1.14-.55-.54 1.22-1.36V156.6l11.97-8.6 8 6.24 1.27-1.36.53.54-1.4 1.56zm-18.2 19.5v-18.5l-1.43 1.03v18.2l8.1 6.24 1.3-.94-8-6.03zm10.9-17.27l-5.7-4.46-.06.07V173l5.75 4.33v-20.1zm2.15-1.2l-6.3-4.88-1.27.95 6.15 4.74v21.05l1.42-1.08V156zm20.84 4.26h7v14.48l-10.77 7.58c-1.43-1.63-3.46-2.78-5.96-2.78-2.03 0-3.65.68-5.82 2.5l-.34-.13 9.22-13.38h-5.7v-12.6l11.3-7.85c1.37 1.1 2.38 1.7 4.14 1.7 1.35 0 3.3-.28 4.8-1.5l.28.14-8.13 11.86zm-7.56 17.32c-1.97 0-3.52.68-4.88 1.63v.15c1.1-.48 2.17-.6 3.18-.6 1.56 0 4 .73 5.62 2.63l1.56-1.15c-1.3-1.5-2.85-2.65-5.48-2.65zm7.24-11.37h-3.8l-7.9 11.45.05.14c1.97-1.44 3.86-2.38 6.16-2.38 2.02 0 4.12.94 5.4 2.57l.07-.08v-11.7zm-9.88 0v-10.88l-1.43 1v11.38h5.48l1.1-1.5h-5.15zm14.14-13.25c-1.42 1.02-2.23 1.56-4.6 1.56-1.36 0-2.98-.6-4.27-1.96l-.14.07v9.9h2.57l6.5-9.48-.06-.07zm-3.25-.6c-1.23 0-2.78-.62-3.8-1.97l-1.7 1.15c1.3 1.55 2.52 2.23 4.4 2.23 1.23 0 3-.34 4.8-1.9l.08-.2c-1.15.48-2.57.68-3.8.68zm1.14 11.63h-4.4l-1 1.42h3.98v13.13l1.42-1v-13.55zm16.38 18.34l-6.23-4.87-1.3 1.42-.54-.54 1.5-1.63v-23.68h-3.93l-.14-.14 2.36-3.52h1.7v-4.53l7.16-7.65.14.14v12.04h5.4l.15.14-2.36 3.52h-3.18v20.5l3.72 2.85 1.42-1.56.54.55-6.42 6.97zm-4.4-38.64l-1.42 1.55v4.13h1.42v-5.68zm0 32.35v-23h-1.42v23.8l5.75 4.47 1.02-1.08-5.35-4.2z"></path>
</svg>
