<?xml version="1.0" encoding="utf-8"?>
<!-- Generator: Adobe Illustrator 18.0.0, SVG Export Plug-In . SVG Version: 6.00 Build 0)  -->
<!DOCTYPE svg PUBLIC "-//W3C//DTD SVG 1.1//EN" "http://www.w3.org/Graphics/SVG/1.1/DTD/svg11.dtd">
<svg version="1.1" id="logo.svg_1_" xmlns="http://www.w3.org/2000/svg" xmlns:xlink="http://www.w3.org/1999/xlink" x="0px"
	 y="0px" viewBox="0 0 220 70" enable-background="new 0 0 220 70" xml:space="preserve">
<g id="logo.svg">
	<g>
		<path fill-rule="evenodd" clip-rule="evenodd" fill="#FFFFFF" d="M30.2,33c-1.8-1-4.2-1.8-7.1-2.5c-2.4-0.6-4.3-1.1-5.7-1.5
			c-1.4-0.4-2.5-0.9-3.3-1.6c-0.8-0.6-1.2-1.4-1.2-2.4c0-1.1,0.6-2,1.7-2.7c1.1-0.7,2.5-1.1,4.2-1.1c1.6,0,2.9,0.3,3.9,0.8
			s1.8,1.3,2.5,2.2c0.9,1.1,1.6,1.9,2.3,2.5c0.7,0.5,1.5,0.8,2.4,0.8c1.3,0,2.3-0.3,3.1-1c0.7-0.7,1.1-1.6,1.1-2.6c0-1-0.3-2-1-3
			c-0.7-1-1.6-2-2.9-2.8c-1.3-0.8-2.9-1.5-4.8-2c-1.9-0.5-4.1-0.8-6.5-0.8c-3.1,0-5.7,0.5-7.9,1.5c-2.2,1-3.8,2.3-4.9,4
			c-1.1,1.7-1.7,3.4-1.7,5.3c0,2.1,0.6,3.9,1.8,5.3c1.2,1.4,2.8,2.6,4.8,3.5c2,0.9,4.6,1.7,7.8,2.5c2.8,0.7,4.9,1.4,6.1,2.1
			c1.2,0.8,1.9,1.9,1.9,3.6c0,1.1-0.6,2-1.8,2.8c-1.2,0.8-2.7,1.2-4.6,1.2c-2.3,0-4.1-0.4-5.4-1.2c-1.3-0.8-2.5-2.1-3.4-3.7
			c-0.5-0.9-1-1.5-1.5-2c-0.5-0.5-1.3-0.7-2.3-0.7c-1.1,0-2,0.4-2.8,1.1c-0.7,0.7-1.1,1.6-1.1,2.6c0,1.5,0.6,3.1,1.7,4.6
			c1.1,1.5,2.9,2.8,5.3,3.8s5.3,1.5,8.6,1.5c3.5,0,6.5-0.5,8.9-1.4c2.4-0.9,4.3-2.3,5.5-4.2c1.3-1.8,1.9-4,1.9-6.6
			c0-1.7-0.5-3.2-1.4-4.6C33.4,35.2,32.1,34,30.2,33z M72.1,17.6c-2.4-1.5-5.1-2.2-7.9-2.2c-2.4,0-4.5,0.5-6.4,1.5
			c-1.9,1-3.7,2.6-5.5,4.8v-1.1c0-1.7-0.4-3-1.2-3.9c-0.8-0.9-1.9-1.3-3.2-1.3c-1.3,0-2.4,0.4-3.2,1.3c-0.8,0.9-1.2,2.2-1.2,4v40.2
			c0,2,0.3,3.6,0.9,4.6c0.6,1.1,1.7,1.6,3.5,1.6c3,0,4.5-2,4.5-6.1v-14c1.6,2.1,3.4,3.6,5.2,4.7c1.8,1.1,4,1.6,6.7,1.6
			c2.2,0,4.3-0.4,6.2-1.3c1.9-0.9,3.6-2.1,5-3.8c1.4-1.6,2.5-3.6,3.3-6c0.8-2.4,1.2-5,1.2-7.9c0-3.9-0.7-7.3-2.1-10.1
			C76.4,21.3,74.5,19.1,72.1,17.6z M69.3,40.6c-0.8,1.8-1.9,3.1-3.2,4c-1.3,0.9-2.8,1.3-4.3,1.3c-2.6,0-4.8-1-6.5-3.1
			c-1.8-2.1-2.6-4.9-2.6-8.6c0-3.9,0.9-6.9,2.6-8.9c1.8-2,3.9-3,6.5-3c1.6,0,3.1,0.5,4.4,1.4c1.3,0.9,2.4,2.3,3.1,4.1
			c0.8,1.8,1.1,3.9,1.1,6.3C70.5,36.7,70.1,38.8,69.3,40.6z M119.4,40.3c0-1.9,0-3.6,0.1-5.1c0-1.5,0-3.4,0-5.6
			c0-3.5-0.5-6.2-1.5-8.3c-1-2.1-2.6-3.6-5-4.6c-2.3-1-5.6-1.4-9.7-1.4c-3.7,0-6.7,0.5-9.2,1.5c-2.5,1-4.3,2.3-5.4,3.8
			c-1.2,1.5-1.7,3.1-1.7,4.8c0,1,0.4,1.9,1.1,2.6c0.8,0.7,1.7,1,2.7,1c1.2,0,1.9-0.2,2.3-0.6c0.4-0.4,1-1.3,1.8-2.6
			c0.9-1.3,1.9-2.3,3.1-3c1.2-0.7,3-1,5.3-1c2.8,0,4.6,0.6,5.4,1.7c0.9,1.1,1.4,3,1.5,5.4c-2,0.6-3.8,1.1-5.4,1.4
			c-1.7,0.4-3.7,0.8-6,1.3c-2.3,0.5-3.8,0.8-4.4,0.9c-2.8,0.6-5,1.8-6.7,3.6c-1.6,1.8-2.4,4-2.4,6.5c0,1.9,0.5,3.6,1.5,5.3
			c1,1.6,2.4,2.9,4.2,3.8c1.8,0.9,3.9,1.4,6.3,1.4c2.6,0,5-0.4,7.1-1.3c2.1-0.9,4.3-2.2,6.5-3.9c1,1.7,2,3,3,3.9
			c0.9,0.9,1.9,1.3,2.8,1.3c1.1,0,2.2-0.4,3.1-1.2c0.9-0.8,1.3-1.7,1.3-2.6c0-0.5-0.3-1.8-0.9-3.7C119.7,43.9,119.4,42,119.4,40.3z
			 M110.3,35.8c0,3.2-0.4,5.5-1.3,7c-0.7,1.3-1.9,2.3-3.4,3.1c-1.6,0.8-3.3,1.2-5.1,1.2c-1.7,0-3.1-0.5-4.2-1.5
			c-1.1-1-1.6-2.2-1.6-3.6c0-1.4,0.5-2.4,1.4-3.2c0.9-0.8,1.9-1.3,2.9-1.5c1-0.3,2.8-0.7,5.4-1.2c2.6-0.6,4.6-1.1,6-1.6V35.8z
			 M167.8,32.2c-1.4,0-2.4,0.4-3.1,1.2c-0.6,0.8-1.2,1.9-1.6,3.2c-1,2.8-2.5,4.9-4.6,6.4c-2,1.4-4.5,2.2-7.4,2.2c-2.7,0-5-0.6-7-1.9
			c-2-1.3-3.5-3.2-4.6-5.8c-1.1-2.6-1.6-5.8-1.6-9.7c0-5.8,1.2-10.3,3.7-13.5c2.5-3.2,5.8-4.7,9.9-4.7c2.6,0,4.8,0.6,6.6,1.8
			c1.8,1.2,3.3,3.1,4.7,5.6c0.8,1.5,1.5,2.6,2.2,3.2c0.6,0.6,1.6,0.9,2.9,0.9c1.2,0,2.1-0.4,3-1.3s1.2-1.9,1.2-3.1
			c0-2.1-0.8-4.4-2.5-6.7c-1.7-2.4-4.1-4.4-7.3-6c-3.2-1.6-6.8-2.4-10.8-2.4c-3.3,0-6.4,0.6-9.4,1.8c-2.9,1.2-5.5,2.9-7.7,5.2
			c-2.2,2.3-3.9,5-5,8.2c-1.2,3.2-1.8,6.8-1.8,10.8c0,2.5,0.2,4.8,0.7,7c0.5,2.2,1.2,4.3,2.1,6.2c0.9,1.9,2.1,3.7,3.4,5.3
			c1.5,1.7,3.1,3.1,4.9,4.2c1.8,1.1,3.7,1.8,5.9,2.3c2.2,0.5,4.6,0.8,7.2,0.8c3.5,0,6.5-0.6,9.1-1.7c2.6-1.1,4.8-2.6,6.4-4.3
			c1.7-1.8,2.9-3.6,3.7-5.5c0.8-1.9,1.2-3.6,1.2-5.2c0-1.3-0.4-2.3-1.3-3.1C170,32.6,169,32.2,167.8,32.2z M211.2,17.4
			c-0.4-0.6-0.9-1.1-1.5-1.5c-0.6-0.4-1.3-0.6-2-0.6c-1,0-1.7,0.2-2.3,0.5c-0.5,0.3-1,1-1.5,2c-0.5,1-1,2.3-1.6,4.1l-7.5,21.3
			l-7.9-22.9c-0.5-1.6-1.1-2.8-1.8-3.7s-1.7-1.3-3-1.3c-0.8,0-1.5,0.2-2.2,0.6s-1.3,1-1.7,1.6c-0.4,0.7-0.6,1.4-0.6,2.2
			c0,0.8,0.4,2,1.1,3.6l11.5,28.9l-0.9,2.1c-0.6,1.5-1.2,2.7-1.7,3.5c-0.5,0.8-1,1.3-1.7,1.7c-0.6,0.3-1.5,0.5-2.5,0.5
			c-0.4,0-0.9-0.1-1.5-0.2c-0.5-0.1-1-0.2-1.5-0.2c-1.3,0-2.2,0.3-2.9,0.9s-1,1.4-1,2.5c0,1.6,0.7,2.6,2,3.2
			c1.4,0.6,3.4,0.9,6.1,0.9c2.8,0,5-0.4,6.7-1.3c1.6-0.9,3-2.1,4-3.7c1-1.6,2-3.8,3.1-6.6l12.1-31.8c0.3-0.8,0.5-1.6,0.8-2.4
			c0.2-0.8,0.4-1.4,0.4-1.8C211.7,18.7,211.6,18.1,211.2,17.4z"/>
	</g>
</g>
</svg>
