<svg  xmlns="http://www.w3.org/2000/svg" width="24" height="24" viewBox="0 0 24 24">
<path d="M16.707 7.404c-0.189-0.188-0.448-0.283-0.707-0.283s-0.518 0.095-0.707 0.283l-2.293 2.293v-6.697c0-0.552-0.448-1-1-1s-1 0.448-1 1v6.697l-2.293-2.293c-0.189-0.188-0.44-0.293-0.707-0.293s-0.518 0.105-0.707 0.293c-0.39 0.39-0.39 1.024 0 1.414l4.707 4.682 4.709-4.684c0.388-0.387 0.388-1.022-0.002-1.412z"></path>
<path d="M20.987 16c0-0.105-0.004-0.211-0.039-0.316l-2-6c-0.136-0.409-0.517-0.684-0.948-0.684h-0.219c-0.094 0.188-0.21 0.368-0.367 0.525l-1.482 1.475h1.348l1.667 5h-13.893l1.667-5h1.348l-1.483-1.475c-0.157-0.157-0.274-0.337-0.367-0.525h-0.219c-0.431 0-0.812 0.275-0.948 0.684l-2 6c-0.035 0.105-0.039 0.211-0.039 0.316-0.013 0-0.013 5-0.013 5 0 0.553 0.447 1 1 1h16c0.553 0 1-0.447 1-1 0 0 0-5-0.013-5z"></path>
</svg>
