<svg xmlns="http://www.w3.org/2000/svg" viewBox="0 0 100 100" width="24" height="24">
  <path d="M88.17,69.32A22,22,0,0,0,77.79,37.77a22,22,0,0,0-21.91-20.2,20.29,20.29,0,0,0-13.67,4.81l4.57,5.3a13.31,13.31,0,0,1,9.1-3.11,15,15,0,0,1,15,15c0,.06,0,.13,0,.19s0,.26,0,.39l-.1,2.75,2.65.75a15,15,0,0,1,8.79,22.1Z M28.76,80H60.44V73H28.76a15,15,0,0,1-15-15A17,17,0,0,1,23.6,42.7l-2.79-6.42A23.91,23.91,0,0,0,6.78,58,22,22,0,0,0,28.76,80Z" />
  <rect x="45.53" y="-4.58" width="7" height="106.75" transform="translate(-20.14 48.96) rotate(-45)"></rect>
</svg>
