<svg  xmlns="http://www.w3.org/2000/svg" width="24" height="24" viewBox="0 0 24 24">
<path d="M21.171 15.398l-5.912-9.854c-0.776-1.293-1.963-2.033-3.259-2.033s-2.483 0.74-3.259 2.031l-5.912 9.856c-0.786 1.309-0.872 2.705-0.235 3.83 0.636 1.126 1.878 1.772 3.406 1.772h12c1.528 0 2.77-0.646 3.406-1.771 0.637-1.125 0.551-2.521-0.235-3.831zM12 17.549c-0.854 0-1.55-0.695-1.55-1.549s0.695-1.551 1.55-1.551 1.55 0.696 1.55 1.551c0 0.854-0.696 1.549-1.55 1.549zM13.633 10.125c-0.011 0.031-1.401 3.468-1.401 3.468-0.038 0.094-0.13 0.156-0.231 0.156s-0.193-0.062-0.231-0.156l-1.391-3.438c-0.090-0.233-0.129-0.443-0.129-0.655 0-0.965 0.785-1.75 1.75-1.75s1.75 0.785 1.75 1.75c0 0.212-0.039 0.422-0.117 0.625z"></path>
</svg>
