<svg xmlns="http://www.w3.org/2000/svg" width="1014" height="221" viewBox="0 0 1014 221">
  <g fill="none" fill-rule="evenodd">
    <rect width="202.5" height="59.5" x="19.3" y="85.3" fill="#C3E7F1" stroke="#3AC" stroke-width="4.5" rx="12"/>
    <rect width="296.5" height="59.5" x="682.3" y="135.3" fill="#C3E7F1" stroke="#3AC" stroke-width="4.5" rx="12"/>
    <rect width="173.5" height="59.5" x="368.3" y="24.3" fill="#C3E7F1" stroke="#3AC" stroke-width="4.5" rx="12"/>
    <rect width="173.5" height="59.5" x="368.3" y="133.3" fill="#C3E7F1" stroke="#3AC" stroke-width="4.5" rx="12"/>
    <rect width="123.5" height="21.5" x="54.8" y="71.8" fill="#3AC" stroke="#3AC" stroke-width="3.5" rx="10.8"/>
    <rect width="135.5" height="21.5" x="762.8" y="121.8" fill="#3AC" stroke="#3AC" stroke-width="3.5" rx="10.8"/>
    <rect width="123.5" height="21.5" x="392.8" y="13.8" fill="#3AC" stroke="#3AC" stroke-width="3.5" rx="10.8"/>
    <rect width="123.5" height="21.5" x="392.8" y="119.8" fill="#3AC" stroke="#3AC" stroke-width="3.5" rx="10.8"/>
    <g transform="translate(553 144)">
      <path fill="#3D4251" fill-rule="nonzero" d="M97.3 16.8V9.2l20 10-20 10v-7.4H.8v-5h96.5z"/>
      <circle cx="60" cy="19" r="19" fill="#F5FF87" stroke="#3D4251" stroke-width="5"/>
    </g>
    <g transform="rotate(-25 312.3 -483.3)">
      <path fill="#3D4251" fill-rule="nonzero" d="M97.3 16.8V9.2l20 10-20 10v-7.4H.8v-5h96.5z"/>
      <circle cx="60" cy="19" r="19" fill="#F5FF87" stroke="#3D4251" stroke-width="5"/>
    </g>
    <g transform="scale(1 -1) rotate(-25 -197.4 -596.3)">
      <path fill="#3D4251" fill-rule="nonzero" d="M97.3 16.8V9.2l20 10-20 10v-7.4H.8v-5h96.5z"/>
      <circle cx="60" cy="19" r="19" fill="#F5FF87" stroke="#3D4251" stroke-width="5"/>
    </g>
    <g fill-rule="nonzero">
      <path fill="#3D4251" d="M621.2 164.2l-13 6.7v-3.4l.2-.7.6-.5 4.6-2.5.9-.3 1-.3a15.4 15.4 0 01-2-.6L609 160l-.6-.5-.2-.7v-3.4l13 6.7v2zM304.2 79.2l-13 6.7v-3.4l.2-.7.6-.5 4.6-2.5.9-.3 1-.3a15.4 15.4 0 01-2-.6L292 75l-.6-.5-.2-.7v-3.4l13 6.7v2zM304.2 149.2l-13 6.7v-3.4l.2-.7.6-.5 4.6-2.5.9-.3 1-.3a15.4 15.4 0 01-2-.6L292 145l-.6-.5-.2-.7v-3.4l13 6.7v2zM41.9 126.2c-.8 0-1.6 0-2.3-.3l-1.7-1c-.5-.5-.9-1-1.1-1.7-.3-.6-.4-1.3-.4-2v-7c0-.7.1-1.4.4-2a4.6 4.6 0 012.8-2.6c.7-.3 1.5-.4 2.3-.4.8 0 1.6.1 2.3.4a4.6 4.6 0 012.8 2.6c.3.6.4 1.3.4 2v7c0 .7-.1 1.4-.4 2-.3.6-.6 1.2-1.1 1.6-.5.5-1 .8-1.8 1-.6.3-1.4.4-2.2.4zm-2.6-5c0 .7.2 1.3.7 1.8.5.5 1.1.7 1.9.7.8 0 1.4-.2 1.9-.7.5-.5.7-1 .7-1.9v-6.8c0-.8-.2-1.4-.7-1.9-.5-.5-1.1-.7-2-.7-.7 0-1.3.2-1.8.7-.5.5-.7 1-.7 1.9v6.8zm16.6-11.8c.9 0 1.6.2 2.3.4.7.2 1.3.6 1.8 1 .4.4.8 1 1 1.6a4.8 4.8 0 01-.4 4.9c-.5.7-1.3 1.3-2.2 1.6l3.3 7.1h-3.2l-3-6.6h-2.1v6.6h-2.9v-16.6H56zm-2.5 7.7h2.5c.8 0 1.5-.3 2-.7.4-.5.6-1.1.6-1.9 0-.8-.2-1.4-.7-2-.4-.4-1-.6-1.9-.6h-2.5v5.2zm10-5v-2.7h12.1v2.7h-4.6V126H68v-14h-4.5zM78.2 126v-16.6H81v6.7h4.6v-6.7h2.8V126h-2.8v-7.3H81v7.3H78zm16.9-1.8c0-.7.2-1.2.6-1.6a2 2 0 011.5-.6c.6 0 1.1.2 1.5.6.4.4.6 1 .6 1.6 0 .6-.2 1-.6 1.5-.4.3-.9.5-1.5.5a2 2 0 01-1.5-.5 2 2 0 01-.6-1.5zm0-9c0-.6.2-1.1.6-1.5a2 2 0 011.5-.6c.6 0 1.1.2 1.5.6.4.4.6 1 .6 1.6 0 .6-.2 1-.6 1.4-.4.4-.9.6-1.5.6a2 2 0 01-1.5-.6 2 2 0 01-.6-1.4zm16.3 10.8v-11l-1.2-.1-.6-.3a.7.7 0 01-.2-.5v-1.3h2v-1c0-.8.1-1.5.3-2a4.3 4.3 0 012.6-2.6 6 6 0 013.8 0v1.5c0 .3-.2.4-.4.5h-.8l-1 .2a1.7 1.7 0 00-1.2 1.3 4 4 0 00-.2 1.2v.9h3.5v2.3h-3.4V126h-3.2zm14.2-13.5c1 0 2 .1 2.7.4a5.8 5.8 0 013.4 3.6c.4.8.5 1.8.5 2.8 0 1-.1 2-.5 2.9a5.8 5.8 0 01-3.4 3.5c-.8.3-1.7.5-2.7.5-1 0-1.9-.2-2.7-.5a5.8 5.8 0 01-3.4-3.5c-.3-.9-.5-1.8-.5-2.9 0-1 .2-2 .5-2.8a5.9 5.9 0 013.4-3.5c.8-.4 1.7-.5 2.7-.5zm0 11.2c1.1 0 2-.3 2.5-1 .5-.8.8-2 .8-3.4s-.3-2.5-.8-3.3c-.5-.7-1.4-1-2.5-1-1 0-2 .3-2.5 1-.5.8-.8 1.9-.8 3.3 0 1.5.3 2.6.8 3.3.6.8 1.4 1.1 2.5 1.1zm12-11v8.4c0 .9.2 1.5.6 2 .4.4 1 .6 1.7.6.6 0 1.1-.1 1.6-.4.5-.2 1-.6 1.4-1v-9.6h3.2V126h-2c-.4 0-.7-.2-.8-.6l-.2-1-.9.7a5.2 5.2 0 01-3.3 1.1c-.7 0-1.3-.1-1.9-.4-.5-.2-1-.6-1.4-1-.4-.5-.7-1-.9-1.6-.2-.6-.3-1.3-.3-2v-8.5h3.3zm11.9 13.3v-13.3h2c.4 0 .7.2.8.5l.2 1.1a7.3 7.3 0 011.8-1.3 4.8 4.8 0 012.3-.5c.8 0 1.4 0 2 .3l1.4 1a6.8 6.8 0 011.2 3.6v8.6h-3.3v-8.5c0-.8-.2-1.4-.6-1.9-.3-.4-.9-.6-1.6-.6-.6 0-1.1 0-1.6.3l-1.4 1v9.7h-3.2zm24.2 0c-.4 0-.7-.2-.8-.6l-.3-1.3a8 8 0 01-.9.9 5.5 5.5 0 01-2 1l-1.4.2a4.4 4.4 0 01-3.6-1.8c-.4-.6-.7-1.3-1-2.1a10.8 10.8 0 010-5.7c.3-.8.7-1.6 1.2-2.2.5-.6 1.1-1.1 1.8-1.5.7-.3 1.5-.5 2.4-.5a4.6 4.6 0 013.3 1.3v-7h3.2V126h-2zm-4.3-2.4c.7 0 1.2 0 1.7-.4a5 5 0 001.3-1.2v-6a3.2 3.2 0 00-2.6-1.1c-.4 0-.9 0-1.3.2s-.7.5-1 .9a4 4 0 00-.6 1.4 9 9 0 000 4c0 .5.3 1 .5 1.3.2.3.5.6.9.7.3.2.7.2 1 .2zm15.2-11.1c.9 0 1.6 0 2.3.4a5 5 0 013 3 7.2 7.2 0 01.5 3.2l-.2.4-.2.2a1 1 0 01-.4 0h-8.2c.1 1.4.5 2.4 1.1 3 .7.7 1.5 1 2.6 1 .5 0 1 0 1.3-.2.4 0 .7-.2 1-.4l.7-.4.7-.2.3.1.2.2 1 1.2c-.4.4-.8.8-1.2 1a6.7 6.7 0 01-2.9 1c-.5.2-1 .2-1.4.2-1 0-1.8-.2-2.6-.5s-1.5-.7-2-1.3c-.7-.6-1.1-1.4-1.5-2.3a8.7 8.7 0 010-5.6c.2-.8.7-1.5 1.2-2.1a6 6 0 012-1.4c.8-.4 1.7-.5 2.7-.5zm0 2.3a3 3 0 00-2.1.7 4 4 0 00-1 2.3h6c0-.4 0-.8-.2-1.2 0-.3-.3-.7-.5-1l-.9-.6a3 3 0 00-1.2-.2zm17.8 11.2c-.4 0-.7-.2-.8-.6l-.3-1.3a8 8 0 01-.9.9 5.5 5.5 0 01-2 1l-1.4.2a4.4 4.4 0 01-3.6-1.8c-.4-.6-.7-1.3-1-2.1a10.8 10.8 0 010-5.7c.4-.8.7-1.6 1.2-2.2.5-.6 1.1-1.1 1.8-1.5.7-.3 1.5-.5 2.4-.5a4.6 4.6 0 013.3 1.3v-7h3.3V126h-2zm-4.3-2.4c.7 0 1.2 0 1.7-.4a5 5 0 001.3-1.2v-6a3.2 3.2 0 00-2.5-1.1c-.5 0-1 0-1.4.2l-1 .9a4 4 0 00-.6 1.4 9 9 0 000 4l.5 1.3c.3.3.5.6.9.7.3.2.7.2 1.1.2zM699.1 159.4h5.1c.9 0 1.6.2 2.3.4.7.3 1.3.6 1.8 1a5.5 5.5 0 011.5 3.8v6.1c0 .8 0 1.5-.4 2.2a4.7 4.7 0 01-2.9 2.7c-.7.3-1.4.4-2.3.4h-5v-16.6zm3 14h2.1c.9 0 1.5-.3 2-.8s.7-1 .7-1.9v-6c0-.8-.2-1.4-.7-1.9-.5-.5-1.1-.7-2-.7H702v11.3zm11.1 2.6v-16.6h10.2v2.6h-7.3v4.2h6.5v2.6h-6.5v4.7h7.3v2.5h-10.2zm19.3-16.6c.8 0 1.6.2 2.2.4a4.5 4.5 0 012.8 2.6c.3.6.5 1.3.5 2 0 .8-.2 1.5-.4 2.1-.3.7-.6 1.2-1.1 1.6a5 5 0 01-1.8 1c-.6.3-1.4.4-2.2.4h-2.9v6.5h-2.8v-16.6h5.7zm-2.9 7.7h2.9c.8 0 1.4-.3 1.9-.7.4-.5.7-1.1.7-2 0-.7-.3-1.3-.7-1.8-.5-.5-1.1-.7-2-.7h-2.8v5.2zm14 7c0-.6.2-1 .6-1.5a2 2 0 011.6-.6c.6 0 1 .2 1.5.6.4.4.6 1 .6 1.6 0 .6-.2 1-.6 1.5-.4.3-1 .5-1.5.5a2 2 0 01-1.6-.5 2 2 0 01-.6-1.5zm0-8.8c0-.7.2-1.2.6-1.6a2 2 0 011.6-.6c.6 0 1 .2 1.5.6.4.4.6 1 .6 1.6 0 .6-.2 1-.6 1.4-.4.4-1 .6-1.5.6a2 2 0 01-1.6-.6 2 2 0 01-.6-1.4zm26.2 10.7h-1.4l-.7-.1c-.2-.1-.3-.3-.4-.6l-.3-1a11 11 0 01-2 1.4l-1.1.4a6.6 6.6 0 01-2.9-.1c-.4-.2-.9-.4-1.2-.7l-.8-1.1a4 4 0 01-.3-1.6c0-.5.2-1 .4-1.5.3-.5.7-1 1.3-1.3.7-.4 1.5-.7 2.5-1 1-.3 2.3-.4 3.8-.4v-.8c0-1-.2-1.6-.6-2-.3-.4-.9-.7-1.6-.7a4 4 0 00-2.2.6l-.7.5-.7.1a1 1 0 01-.6-.1l-.4-.5-.6-1a8 8 0 015.6-2c.8 0 1.5 0 2 .3a4.4 4.4 0 012.6 2.7c.2.6.3 1.3.3 2v8.5zm-6.2-2h1a3.4 3.4 0 001.4-.8l.7-.6v-2.3l-2.3.2-1.6.5a2 2 0 00-.8.6l-.2.8c0 .6.2 1 .5 1.2.3.3.8.4 1.3.4zm9.4 2v-13.3h2c.4 0 .6.2.8.5l.2 1 .7-.7a4.7 4.7 0 011.8-1h1c1 0 1.6.2 2.1.6.6.5 1 1.1 1.3 1.8a4 4 0 011.8-1.9l1.2-.4a5.7 5.7 0 013.2.2c.6.2 1 .5 1.4 1 .4.4.7 1 1 1.6l.2 2.1v8.5h-3.2v-8.5c0-.8-.2-1.5-.5-2-.4-.3-1-.6-1.7-.6l-.9.2a2.2 2.2 0 00-1.2 1.3c-.2.3-.2.7-.2 1.1v8.5h-3.2v-8.5c0-.9-.2-1.5-.6-2-.3-.3-.9-.6-1.6-.6-.4 0-.9.2-1.3.4s-.7.5-1 1v9.7H773zm27.6-13.5c1 0 1.9.1 2.7.4a5.8 5.8 0 013.4 3.6 8.2 8.2 0 010 5.7 5.8 5.8 0 01-3.4 3.5c-.8.3-1.7.5-2.7.5-1 0-2-.2-2.7-.5a5.8 5.8 0 01-3.5-3.5c-.3-.9-.4-1.8-.4-2.9 0-1 .1-2 .4-2.8a5.9 5.9 0 013.4-3.5c.9-.4 1.8-.5 2.8-.5zm0 11.2c1 0 2-.3 2.4-1 .6-.8.8-2 .8-3.4s-.2-2.5-.8-3.3c-.5-.7-1.3-1-2.4-1-1.1 0-2 .3-2.5 1-.6.8-.8 1.9-.8 3.3 0 1.5.2 2.6.8 3.3.5.8 1.4 1.1 2.5 1.1zM819 176c-.5 0-.7-.2-.9-.6l-.2-1.3a8 8 0 01-.9.9 5.5 5.5 0 01-2.1 1l-1.3.2a4.4 4.4 0 01-3.6-1.8c-.4-.6-.8-1.3-1-2.1a10.8 10.8 0 010-5.7c.3-.8.7-1.6 1.2-2.2.5-.6 1.1-1.1 1.8-1.5.7-.3 1.5-.5 2.4-.5a4.6 4.6 0 013.3 1.3v-7h3.2V176h-2zm-4.3-2.4c.6 0 1.2 0 1.7-.4a5 5 0 001.3-1.2v-6a3.2 3.2 0 00-2.6-1.1c-.5 0-.9 0-1.3.2s-.7.5-1 .9a4 4 0 00-.6 1.4 9 9 0 000 4c0 .5.3 1 .5 1.3.2.3.5.6.8.7.4.2.8.2 1.2.2zm15.6-17.7h2.5v24.5h-2.5v-24.5zm21.3 9.6l-.3.3h-.9a15.5 15.5 0 00-1.3-.8l-1.1-.1c-.6 0-1 .1-1.5.3-.4.2-.8.5-1 .9a4 4 0 00-.7 1.4l-.2 1.8c0 .7 0 1.3.2 1.9l.7 1.4c.3.4.6.7 1 .9.4.2 1 .3 1.4.3a3.4 3.4 0 002-.7c.3-.1.5-.2.6-.4l.6-.2c.2 0 .4.1.5.3l1 1.2a5.8 5.8 0 01-2.5 1.7l-1.4.4h-1.4a6 6 0 01-2.3-.4c-.7-.3-1.4-.7-2-1.3a8.4 8.4 0 01-1.8-5c.1-1 .3-2 .6-2.8.2-.9.6-1.6 1.2-2.2.5-.6 1.2-1 2-1.4a7 7 0 012.8-.5c1 0 1.9.1 2.6.4.8.4 1.4.8 2 1.4l-.8 1.2zm8.7-3c1 0 2 .1 2.7.4a5.8 5.8 0 013.4 3.6 8.2 8.2 0 010 5.7 5.8 5.8 0 01-3.4 3.5c-.8.3-1.7.5-2.7.5-1 0-1.9-.2-2.7-.5a5.8 5.8 0 01-3.4-3.5c-.3-.9-.5-1.8-.5-2.9 0-1 .2-2 .5-2.8a5.9 5.9 0 013.4-3.5c.8-.4 1.7-.5 2.7-.5zm0 11.2c1.1 0 2-.3 2.5-1 .5-.8.8-2 .8-3.4s-.3-2.5-.8-3.3c-.5-.7-1.4-1-2.5-1s-2 .3-2.5 1c-.5.8-.8 1.9-.8 3.3 0 1.5.3 2.6.8 3.3.6.8 1.4 1.1 2.5 1.1zm9.1 2.3v-13.3h2c.4 0 .7.2.8.5l.2 1 .7-.7a4.7 4.7 0 011.8-1h1c1 0 1.6.2 2.2.6.5.5 1 1.1 1.2 1.8a4 4 0 011.8-1.9l1.2-.4a5.7 5.7 0 013.2.2c.6.2 1 .5 1.4 1 .4.4.7 1 1 1.6l.2 2.1v8.5H885v-8.5c0-.8-.2-1.5-.5-2-.4-.3-1-.6-1.7-.6l-.9.2a2.2 2.2 0 00-1.2 1.3l-.2 1.1v8.5h-3.2v-8.5c0-.9-.2-1.5-.6-2-.3-.3-.9-.6-1.6-.6-.4 0-.9.2-1.3.4s-.7.5-1 1v9.7h-3.3zm21.9 4.4v-17.7h2l.5.1.3.4.2 1.3c.6-.6 1.2-1.1 1.9-1.5a5 5 0 014.4-.1c.6.3 1.2.7 1.6 1.3.4.6.8 1.3 1 2.1a10.7 10.7 0 010 5.7c-.3.8-.7 1.6-1.2 2.2a5.3 5.3 0 01-6 1.7l-1.5-1v5.5h-3.2zm6.2-15.5c-.6 0-1.2.2-1.7.5a5 5 0 00-1.3 1.2v6a3 3 0 002.6 1.2c.5 0 1-.1 1.3-.3.4-.2.7-.5 1-.9.3-.3.5-.8.6-1.4a9 9 0 000-4c0-.5-.2-1-.5-1.3-.2-.3-.5-.6-.8-.7-.4-.2-.7-.3-1.2-.3zm14.2-2.4c1 0 1.9.1 2.7.4a5.8 5.8 0 013.4 3.6 8.2 8.2 0 010 5.7 5.8 5.8 0 01-3.4 3.5c-.8.3-1.7.5-2.7.5-1 0-2-.2-2.7-.5a5.8 5.8 0 01-3.4-3.5c-.4-.9-.5-1.8-.5-2.9 0-1 .1-2 .5-2.8a5.9 5.9 0 013.4-3.5c.8-.4 1.7-.5 2.7-.5zm0 11.2c1.1 0 2-.3 2.5-1 .5-.8.8-2 .8-3.4s-.3-2.5-.8-3.3c-.6-.7-1.4-1-2.5-1s-2 .3-2.5 1c-.5.8-.8 1.9-.8 3.3 0 1.5.3 2.6.8 3.3.5.8 1.4 1.1 2.5 1.1zm12-11v8.4c0 .9.2 1.5.6 2 .4.4 1 .6 1.7.6.5 0 1-.1 1.5-.4.5-.2 1-.6 1.4-1v-9.6h3.2V176h-2c-.3 0-.6-.2-.7-.6l-.3-1-.8.7a5.2 5.2 0 01-3.3 1.1c-.7 0-1.4-.1-2-.4-.5-.2-1-.6-1.3-1-.4-.5-.7-1-.9-1.6-.2-.6-.3-1.3-.3-2v-8.5h3.2zm11.9 13.3v-13.3h2c.3 0 .6.2.7.5l.3 1.1a7.3 7.3 0 011.8-1.3 4.8 4.8 0 012.3-.5c.7 0 1.4 0 2 .3.5.3 1 .6 1.3 1 .4.5.7 1 .9 1.7.2.6.3 1.3.3 2v8.5H944v-8.5c0-.8-.2-1.4-.6-1.9-.4-.4-1-.7-1.7-.7-.5 0-1 .2-1.5.4l-1.4 1v9.7h-3.2zm24.1 0c-.4 0-.7-.2-.8-.6l-.2-1.3a8 8 0 01-1 .9 5.5 5.5 0 01-2 1l-1.3.2a4.4 4.4 0 01-3.6-1.8c-.4-.6-.8-1.3-1-2.1a10.8 10.8 0 010-5.7c.3-.8.7-1.6 1.2-2.2.5-.6 1-1.1 1.8-1.5.7-.3 1.5-.5 2.4-.5a4.6 4.6 0 013.3 1.3v-7h3.2V176h-2zm-4.2-2.4c.6 0 1.2 0 1.7-.4a5 5 0 001.3-1.2v-6a3.2 3.2 0 00-2.6-1.1c-.5 0-1 0-1.3.2-.4.2-.7.5-1 .9a4 4 0 00-.6 1.4 9 9 0 000 4c0 .5.2 1 .5 1.3.2.3.5.6.8.7.4.2.7.2 1.2.2zM395.2 48.4h5.1c.9 0 1.6.2 2.3.4.7.3 1.3.6 1.8 1 .5.5.8 1.1 1.1 1.7.3.7.4 1.4.4 2.2v6c0 .8-.1 1.5-.4 2.2a4.7 4.7 0 01-2.9 2.7c-.7.3-1.4.4-2.3.4h-5.1V48.4zm2.9 14h2.2c.8 0 1.5-.3 2-.8s.7-1 .7-1.9v-6c0-.8-.2-1.4-.7-1.9-.5-.5-1.2-.7-2-.7h-2.2v11.3zm11.2 2.6V48.4h10.2V51h-7.3v4.2h6.5v2.6h-6.5v4.7h7.3V65h-10.2zm19.3-16.6c.8 0 1.5.2 2.2.4a4.5 4.5 0 012.8 2.6c.3.6.4 1.3.4 2 0 .8 0 1.5-.3 2.1-.3.7-.7 1.2-1.2 1.6a5 5 0 01-1.7 1c-.7.3-1.4.4-2.2.4h-2.9V65h-2.9V48.4h5.8zm-2.9 7.7h2.9c.7 0 1.4-.3 1.8-.7.5-.5.7-1.1.7-2 0-.7-.2-1.3-.7-1.8-.4-.5-1-.7-1.8-.7h-2.9V56zm14 7c0-.6.2-1 .6-1.5a2 2 0 011.5-.6c.7 0 1.2.2 1.6.6.4.4.6 1 .6 1.6 0 .6-.2 1-.6 1.5-.4.3-1 .5-1.6.5a2 2 0 01-1.5-.5 2 2 0 01-.6-1.5zm0-8.8c0-.7.2-1.2.6-1.6a2 2 0 011.5-.6c.7 0 1.2.2 1.6.6.4.4.6 1 .6 1.6 0 .6-.2 1-.6 1.4-.4.4-1 .6-1.6.6a2 2 0 01-1.5-.6 2 2 0 01-.6-1.4zM455.5 65V51.7h2c.3 0 .6.2.7.5l.3 1.1a7.3 7.3 0 011.8-1.3 4.8 4.8 0 012.3-.5c.7 0 1.4 0 2 .3.5.3 1 .6 1.3 1 .4.5.7 1 .9 1.7.2.6.3 1.3.3 2V65h-3.2v-8.5c0-.8-.2-1.4-.6-1.9-.4-.4-1-.6-1.7-.6-.5 0-1 0-1.6.3l-1.3 1V65h-3.2zm22.7-10.7l-.3.3h-.9a34.2 34.2 0 00-1.4-.7l-1-.1c-.7 0-1.2.1-1.6.4-.3.3-.5.6-.5 1 0 .3 0 .6.3.8l.7.5 1 .4a34.3 34.3 0 012.5.8l1 .7c.3.3.6.6.7 1 .2.4.3.8.3 1.4 0 .6 0 1.2-.3 1.7l-1 1.5c-.5.3-1 .7-1.7.9a7.2 7.2 0 01-3.7.2 8 8 0 01-2.3-.9l-1-.6.8-1.3.3-.3.5-.1c.2 0 .4 0 .6.2a12.5 12.5 0 001.4.7l1.3.2c.3 0 .7 0 1-.2l.6-.3.4-.5.1-.7c0-.3 0-.5-.3-.7-.1-.2-.4-.4-.7-.5l-1-.4a34.8 34.8 0 01-2.5-1c-.4 0-.7-.3-1-.6l-.8-1-.2-1.6a3.8 3.8 0 011.2-2.8l1.6-1 2.2-.2c1 0 1.7.1 2.5.4.8.3 1.4.7 1.9 1.2l-.7 1.2zm6.3-2.6V60c0 .9.2 1.5.6 2 .4.4 1 .6 1.7.6.6 0 1-.1 1.6-.4l1.3-1v-9.6h3.2V65h-2c-.3 0-.6-.2-.7-.6l-.3-1-.8.7a5.2 5.2 0 01-3.3 1.1c-.7 0-1.3-.1-2-.4-.5-.2-1-.6-1.3-1-.4-.5-.7-1-.9-1.6-.2-.6-.3-1.3-.3-2v-8.5h3.2zm12 13.3V45.7h3.1v7.6c.6-.6 1.2-1 1.8-1.3a5.2 5.2 0 014.4-.1c.6.3 1 .7 1.5 1.3.5.6.8 1.3 1 2.1a10.7 10.7 0 010 5.7c-.3.8-.7 1.6-1.2 2.2a5.3 5.3 0 01-4.1 2 4.7 4.7 0 01-2-.5 4 4 0 01-.9-.5l-.6-.7-.2.9-.2.5-.6.1h-2zm6.2-11c-.7 0-1.3 0-1.8.4a5 5 0 00-1.3 1.2v6a3 3 0 002.6 1.2c.5 0 1-.1 1.3-.3.4-.2.8-.5 1-.9.3-.3.5-.8.7-1.4a9 9 0 000-4c-.1-.5-.3-1-.6-1.3-.2-.3-.5-.6-.8-.7-.3-.2-.7-.3-1.1-.3zm12-2.3v13.8l-.3 1.6c-.2.5-.4 1-.7 1.3l-1.3 1c-.6.2-1.3.3-2 .3a5.7 5.7 0 01-1.7-.3l.1-1.7c0-.2.1-.3.2-.3l.7-.1.8-.1c.2 0 .4-.2.5-.3.2-.2.3-.3.3-.6l.1-.8V51.7h3.2zm.4-4c0 .4 0 .6-.2.9a2.1 2.1 0 01-1 1 2 2 0 01-2.3-.4l-.4-.6c-.2-.3-.2-.5-.2-.8a2 2 0 01.6-1.5 2 2 0 011.4-.6c.3 0 .6 0 .8.2a2.1 2.1 0 011.1 1l.2.9zM400.9 157.4h5c1 0 1.7.2 2.4.4l1.7 1c.5.5 1 1.1 1.2 1.7.2.7.4 1.4.4 2.2v6c0 .8-.2 1.5-.4 2.2a4.7 4.7 0 01-3 2.7c-.6.3-1.4.4-2.2.4h-5.1v-16.6zm2.9 14h2.2c.8 0 1.5-.3 2-.8.4-.5.7-1 .7-1.9v-6c0-.8-.3-1.4-.8-1.9-.4-.5-1.1-.7-2-.7h-2.1v11.3zM415 174v-16.6h10.2v2.6h-7.4v4.2h6.5v2.6h-6.5v4.7h7.4v2.5H415zm19.2-16.6c.8 0 1.6.2 2.3.4a4.5 4.5 0 012.8 2.6c.3.6.4 1.3.4 2 0 .8-.1 1.5-.4 2.1-.2.7-.6 1.2-1.1 1.6a5 5 0 01-1.7 1c-.7.3-1.5.4-2.3.4h-2.8v6.5h-3v-16.6h5.8zm-2.8 7.7h2.8c.8 0 1.4-.3 1.9-.7.5-.5.7-1.1.7-2 0-.7-.2-1.3-.7-1.8-.5-.5-1-.7-1.9-.7h-2.8v5.2zm14 7c0-.6.2-1 .6-1.5a2 2 0 011.5-.6c.6 0 1.1.2 1.5.6.4.4.6 1 .6 1.6 0 .6-.2 1-.6 1.5-.4.3-.9.5-1.5.5a2 2 0 01-1.5-.5 2 2 0 01-.6-1.5zm0-8.8c0-.7.2-1.2.6-1.6a2 2 0 011.5-.6c.6 0 1.1.2 1.5.6.4.4.6 1 .6 1.6 0 .6-.2 1-.6 1.4-.4.4-.9.6-1.5.6a2 2 0 01-1.5-.6 2 2 0 01-.6-1.4zm25.1 10.7c-.4 0-.7-.2-.8-.6l-.3-1.3a8 8 0 01-.8.9 5.5 5.5 0 01-2.2 1l-1.3.2a4.4 4.4 0 01-3.5-1.8c-.5-.6-.8-1.3-1-2.1a10.8 10.8 0 010-5.7c.3-.8.7-1.6 1.2-2.2.5-.6 1-1.1 1.8-1.5.7-.3 1.5-.5 2.3-.5a4.6 4.6 0 013.4 1.3v-7h3.2V174h-2zm-4.3-2.4c.7 0 1.3 0 1.7-.4a5 5 0 001.4-1.2v-6a3.2 3.2 0 00-2.6-1.1c-.5 0-1 0-1.3.2-.4.2-.8.5-1 .9a4 4 0 00-.7 1.4 9 9 0 000 4l.5 1.3c.3.3.6.6.9.7.3.2.7.2 1.1.2zm15.4-11.1c1 0 2 .1 2.7.4a5.8 5.8 0 013.4 3.6c.4.8.5 1.8.5 2.8 0 1-.1 2-.5 2.9a5.8 5.8 0 01-3.4 3.5c-.8.3-1.7.5-2.7.5-1 0-1.9-.2-2.7-.5a5.8 5.8 0 01-3.4-3.5c-.3-.9-.5-1.8-.5-2.9 0-1 .2-2 .5-2.8a5.9 5.9 0 013.4-3.5c.8-.4 1.7-.5 2.7-.5zm0 11.2c1.1 0 2-.3 2.5-1 .5-.8.8-2 .8-3.4s-.3-2.5-.8-3.3c-.5-.7-1.4-1-2.5-1s-2 .3-2.5 1c-.5.8-.8 1.9-.8 3.3 0 1.5.3 2.6.8 3.3.6.8 1.4 1.1 2.5 1.1zm9.2 2.3v-19.3h3.2v7.6c.5-.6 1.1-1 1.8-1.3a5.2 5.2 0 014.3-.1c.6.3 1.1.7 1.6 1.3.4.6.7 1.3 1 2.1a10.7 10.7 0 010 5.7c-.3.8-.7 1.6-1.2 2.2a5.3 5.3 0 01-4.2 2 4.7 4.7 0 01-2-.5 4 4 0 01-.8-.5l-.7-.7-.1.9-.3.5-.5.1h-2.1zm6.2-11c-.7 0-1.2 0-1.7.4a5 5 0 00-1.3 1.2v6a3 3 0 002.6 1.2c.4 0 .9-.1 1.3-.3.4-.2.7-.5 1-.9l.6-1.4a9 9 0 000-4l-.5-1.3c-.2-.3-.5-.6-.9-.7-.3-.2-.7-.3-1.1-.3zm12-2.3v13.8l-.3 1.6c-.1.5-.4 1-.7 1.3-.3.4-.8.7-1.3 1-.6.2-1.2.3-2 .3a5.7 5.7 0 01-1.6-.3v-1.7l.3-.3.6-.1.8-.1c.3 0 .4-.2.6-.3l.3-.6V160.7h3.3zm.4-4l-.1.9a2.1 2.1 0 01-1.1 1 2 2 0 01-2.3-.4l-.4-.6-.2-.8a2 2 0 01.6-1.5 2 2 0 011.5-.6c.2 0 .5 0 .8.2a2.1 2.1 0 011 1c.2.3.2.6.2.9z"/>
      <path fill="#F5FF87" d="M64.3 78v-2h7.9v2h-2.8v9h2.8v2h-7.9v-2h2.8v-9h-2.8zm10.2-2h4l1.8.3c.5.2 1 .5 1.3.9.4.3.7.8 1 1.3.1.5.3 1 .3 1.6V85c0 .6-.2 1.2-.4 1.7a3.7 3.7 0 01-2.2 2.1l-1.8.3h-4V76zm2.2 11h1.8c.6 0 1.1-.3 1.5-.6.4-.4.6-1 .6-1.5V80a2 2 0 00-.6-1.4c-.4-.4-.9-.6-1.5-.6h-1.8V87zm10.5.6c0-.5.1-1 .5-1.2.3-.3.7-.5 1.1-.5.5 0 1 .2 1.3.5.3.3.4.7.4 1.2 0 .4-.1.8-.4 1.1-.4.3-.8.5-1.2.5-.5 0-1-.2-1.2-.5-.4-.3-.5-.7-.5-1.1zm0-7c0-.5.1-1 .5-1.2.3-.3.7-.5 1.1-.5.5 0 1 .2 1.3.5.3.3.4.7.4 1.2s-.1.8-.4 1.1c-.4.3-.8.5-1.2.5-.5 0-1-.2-1.2-.5-.4-.3-.5-.6-.5-1.1z"/>
      <path fill="#FFF" d="M99 82.2v-2h2.7v-1.3c0-.9.3-1.6.9-2.1.6-.5 1.3-.8 2.3-.8h2.9v2h-2.9a1 1 0 00-.6.3c-.2.1-.3.3-.3.6v1.3h3.8v2H104V89h-2.3v-6.8H99zm14.7 7c-.6 0-1.2-.1-1.7-.3a4 4 0 01-1.4-.8c-.4-.4-.6-.8-.8-1.2a4 4 0 01-.4-1.6v-2.5c0-.6.1-1.1.4-1.6a3.5 3.5 0 012.2-2c.5-.2 1.1-.3 1.8-.3.6 0 1.2.1 1.7.3a3.5 3.5 0 012.2 2c.3.5.4 1 .4 1.6v2.5c0 .5-.1 1-.4 1.6a3.5 3.5 0 01-2.2 2c-.5.2-1 .3-1.8.3zm-2-4c0 .7.2 1.1.5 1.5.4.3 1 .5 1.6.5a2 2 0 001.5-.5c.3-.4.5-.8.5-1.4v-2.5c0-.6-.2-1-.5-1.4a2 2 0 00-1.5-.5 2 2 0 00-1.6.5c-.3.4-.5.8-.5 1.4v2.5zm10.6-6.1v6.2c0 1.3.5 2 1.8 2 1.2 0 1.8-.7 1.8-2V79h2.2v6.2c0 1.2-.4 2.2-1 2.9-.8.6-1.8 1-3 1-1.3 0-2.3-.4-3-1-.7-.7-1.1-1.7-1.1-3v-6.1h2.3zm8 0h2v1.7h.2c.2-.6.4-1 .9-1.4a3 3 0 011.8-.5c1 0 1.8.3 2.4 1 .5.7.8 1.5.8 2.6V89h-2.2v-6.2c0-.6-.2-1-.5-1.4-.3-.4-.8-.5-1.3-.5-.6 0-1 .1-1.4.5a2 2 0 00-.5 1.4V89h-2.3v-9.9zm10 3.7c0-.6.1-1.1.3-1.6.2-.5.4-.9.7-1.2a3 3 0 011-.8l1.4-.3a3 3 0 011.8.5c.5.4.8.8.9 1.4h.2v-.6a5.6 5.6 0 01-.1-1.1v-3h2.2V89h-2.1v-1.7h-.2c-.1.6-.4 1-.9 1.4a3 3 0 01-1.8.5c-.5 0-1-.1-1.3-.3a3 3 0 01-1.1-.8c-.3-.3-.5-.7-.7-1.2-.2-.5-.3-1-.3-1.6v-2.5zm2.3 0v2.4c0 .6.2 1.1.5 1.5.4.3.8.5 1.5.5.5 0 1-.2 1.4-.5.3-.4.5-.9.5-1.4v-2.5c0-.6-.2-1-.5-1.4-.4-.4-.9-.5-1.4-.5a2 2 0 00-1.5.5 2 2 0 00-.5 1.4zm8 0c0-.6.1-1.1.4-1.6.2-.5.4-.9.8-1.2.4-.4.8-.6 1.4-.8.5-.2 1-.3 1.8-.3.6 0 1.2.1 1.7.3.5.2 1 .4 1.3.8.4.3.7.7 1 1.2l.2 1.6v1.8H153v.7c0 .6.2 1.1.5 1.5.4.4.9.6 1.5.6.5 0 1-.1 1.3-.3.3-.1.6-.3.7-.6h2.2c0 .4-.2.8-.5 1.1l-1 .9-1.2.5a5.6 5.6 0 01-3.2 0c-.6-.3-1-.5-1.4-.9-.4-.3-.6-.7-.8-1.2a4 4 0 01-.4-1.6v-2.5zm2.3.3h4.1v-.3a2 2 0 00-.5-1.5 2 2 0 00-1.5-.6 2 2 0 00-1.6.6 2 2 0 00-.5 1.5v.3zm8-.3c0-.6.1-1.1.3-1.6.2-.5.4-.9.7-1.2a3 3 0 011-.8l1.5-.3a3 3 0 011.7.5c.5.4.8.8.9 1.4h.2v-.6a5.6 5.6 0 01-.1-1.1v-3h2.2V89h-2.1v-1.7h-.2c-.1.6-.4 1-.9 1.4a3 3 0 01-1.8.5c-.5 0-1-.1-1.3-.3a3 3 0 01-1.1-.8c-.3-.3-.5-.7-.7-1.2-.2-.5-.3-1-.3-1.6v-2.5zm2.3 0v2.4c0 .6.2 1.1.5 1.5.4.3.8.5 1.5.5.5 0 1-.2 1.4-.5.3-.4.5-.9.5-1.4v-2.5c0-.6-.2-1-.5-1.4-.4-.4-.9-.5-1.4-.5a2 2 0 00-1.5.5 2 2 0 00-.5 1.4z"/>
      <path fill="#F5FF87" d="M773.2 128v-2h7.8v2h-2.8v9h2.8v2h-7.8v-2h2.8v-9h-2.8zm10.1-2h4c.7 0 1.3.1 1.8.3.6.2 1 .5 1.4.9.4.3.7.8.9 1.3.2.5.3 1 .3 1.6v4.8c0 .6-.1 1.2-.3 1.7a3.7 3.7 0 01-2.3 2.1c-.5.2-1.1.3-1.8.3h-4v-13zm2.3 11h1.7c.7 0 1.2-.3 1.6-.6.3-.4.5-1 .5-1.5V130a2 2 0 00-.5-1.4c-.4-.4-1-.6-1.6-.6h-1.7v8.8zm10.4.6c0-.5.2-1 .5-1.2.3-.3.7-.5 1.2-.5s.9.2 1.2.5c.3.3.5.7.5 1.2 0 .4-.2.8-.5 1.1-.3.3-.7.5-1.2.5s-.9-.2-1.2-.5c-.3-.3-.5-.7-.5-1.1zm0-7c0-.5.2-1 .5-1.2.3-.3.7-.5 1.2-.5s.9.2 1.2.5c.3.3.5.7.5 1.2s-.2.8-.5 1.1c-.3.3-.7.5-1.2.5s-.9-.2-1.2-.5c-.3-.3-.5-.6-.5-1.1z"/>
      <path fill="#FFF" d="M807.8 139v-9.9h1.8v1.4h.2c0-.5.2-.9.4-1.1.3-.3.7-.5 1.2-.5s.8.2 1 .4c.3.3.5.7.6 1.2h.2c0-.5.2-.9.4-1.1.3-.3.7-.5 1.2-.5.6 0 1.1.2 1.5.7.4.4.5 1 .5 1.8v7.6h-2v-7.4c0-.7-.3-1.1-.8-1.1-.3 0-.5.1-.7.3l-.2.9v7.3h-1.6v-7.4c0-.3 0-.6-.2-.8a.8.8 0 00-.7-.3c-.3 0-.5.1-.6.3-.2.2-.2.5-.2.9v7.3h-2zm14.8.2l-1.8-.3a4 4 0 01-1.3-.8l-.9-1.2a4 4 0 01-.3-1.6v-2.5c0-.6.1-1.1.3-1.6a3.5 3.5 0 012.2-2l1.8-.3 1.8.3c.5.2 1 .4 1.3.8.4.3.7.7.9 1.2.2.5.3 1 .3 1.6v2.5l-.3 1.6a3.5 3.5 0 01-2.2 2c-.5.2-1.1.3-1.8.3zm-2-4c0 .7.1 1.1.5 1.5.4.3.9.5 1.5.5a2 2 0 001.5-.5c.4-.4.6-.8.6-1.4v-2.5c0-.6-.2-1-.6-1.4a2 2 0 00-1.5-.5 2 2 0 00-1.5.5c-.4.4-.6.8-.6 1.4v2.5zm8-2.4c0-.6 0-1.1.2-1.6s.4-.9.7-1.2a3 3 0 011.1-.8c.4-.2.9-.3 1.4-.3a3 3 0 011.8.5c.5.4.7.8.8 1.4h.2v-.6a5.6 5.6 0 010-1.1v-3h2.2V139h-2.2v-1.7h-.2c0 .6-.3 1-.8 1.4a3 3 0 01-1.8.5c-.5 0-1-.1-1.4-.3a3 3 0 01-1-.8c-.4-.3-.6-.7-.8-1.2l-.2-1.6v-2.5zm2.2 0v2.4c0 .6.2 1.1.6 1.5.3.3.8.5 1.4.5.6 0 1-.2 1.4-.5.4-.4.5-.9.5-1.4v-2.5c0-.6-.1-1-.5-1.4-.3-.4-.8-.5-1.4-.5a2 2 0 00-1.4.5 2 2 0 00-.6 1.4zm8.5 4.1h3.5v-5.8h-3v-2h5.2v7.8h2.9v2.1h-8.6v-2zm2.9-10.5c0-.3.1-.6.3-.8.3-.3.6-.4 1-.4h.4c.4 0 .7.1 1 .4.2.2.3.5.3.8 0 .4-.1.7-.3.9-.3.2-.6.3-1 .3h-.4c-.4 0-.7-.1-1-.3-.2-.2-.3-.5-.3-.9zm6.9 5.8v-2h2.7v-1.3c0-.9.3-1.6.8-2 .6-.6 1.4-.9 2.3-.9h3v2h-3a1 1 0 00-.6.3c-.2.1-.2.3-.2.6v1.3h3.7v2h-3.7v6.8h-2.3v-6.8H849zm10.8 4.7h3.5v-5.8h-3v-2h5.2v7.8h2.9v2.1h-8.6v-2zm2.9-10.5c0-.3.1-.6.3-.8.3-.3.6-.4 1-.4h.4c.4 0 .7.1 1 .4.2.2.3.5.3.8 0 .4-.1.7-.3.9-.3.2-.6.3-1 .3h-.4c-.4 0-.7-.1-1-.3-.2-.2-.3-.5-.3-.9zm7 6.4c0-.6.1-1.1.3-1.6.2-.5.5-.9.9-1.2.3-.4.8-.6 1.3-.8.5-.2 1.1-.3 1.8-.3l1.8.3c.5.2 1 .4 1.3.8.4.3.7.7.9 1.2.2.5.3 1 .3 1.6v1.8H872v.7c0 .6.2 1.1.6 1.5.3.4.9.6 1.5.6.5 0 .9-.1 1.2-.3.4-.1.6-.3.8-.6h2.2l-.5 1.1-1 .9-1.2.5a5.6 5.6 0 01-3.3 0c-.5-.3-1-.5-1.3-.9-.4-.3-.7-.7-.9-1.2a4 4 0 01-.3-1.6v-2.5zm2.2.3h4.2v-.3a2 2 0 00-.6-1.5 2 2 0 00-1.5-.6 2 2 0 00-1.5.6 2 2 0 00-.6 1.5v.3zm10.8-4v1.7h.2c.1-.6.4-1 .9-1.4.5-.3 1-.5 1.8-.5 1.1 0 2 .3 2.5 1 .6.7 1 1.6 1 2.7v.8h-2.4v-.6a2 2 0 00-.5-1.4 2 2 0 00-1.5-.6c-.6 0-1 .2-1.3.6-.4.3-.5.8-.5 1.4v6.2h-2.3v-9.9h2.1z"/>
      <g>
        <path fill="#F5FF87" d="M402.3 20v-2h7.9v2h-2.8v9h2.8v2h-7.9v-2h2.8v-9h-2.8zm10.2-2h4l1.8.3c.5.2 1 .5 1.3.9.4.3.7.8 1 1.3.1.5.3 1 .3 1.6V27c0 .6-.2 1.2-.4 1.7a3.7 3.7 0 01-2.2 2.1l-1.8.3h-4V18zm2.2 11h1.8c.6 0 1.1-.3 1.5-.6.4-.4.6-1 .6-1.5V22a2 2 0 00-.6-1.4c-.4-.4-.9-.6-1.5-.6h-1.8V29zm10.5.6c0-.5.1-1 .5-1.2.3-.3.7-.5 1.1-.5.5 0 1 .2 1.3.5.3.3.4.7.4 1.2 0 .4-.1.8-.4 1.1-.4.3-.8.5-1.3.5-.4 0-.8-.2-1.1-.5-.4-.3-.5-.7-.5-1.1zm0-7c0-.5.1-1 .5-1.2.3-.3.7-.5 1.1-.5.5 0 1 .2 1.3.5.3.3.4.7.4 1.2s-.1.8-.4 1.1c-.4.3-.8.5-1.3.5-.4 0-.8-.2-1.1-.5-.4-.3-.5-.6-.5-1.1z"/>
        <path fill="#FFF" d="M437 28.5h2.4c0 .3.3.5.6.7.3.2.6.3 1 .3h.8c.6 0 1-.2 1.3-.4.3-.2.5-.5.5-.9 0-.7-.6-1-1.6-1.2l-1.4-.2c-1.1-.1-2-.4-2.5-.9s-.8-1.2-.8-2c0-1 .3-1.7 1-2.2.6-.5 1.6-.8 2.8-.8h.7c1.1 0 2 .3 2.7.7.6.5 1 1.1 1.2 2h-2.3a1 1 0 00-.5-.7 2 2 0 00-1-.3h-.8c-1 0-1.6.4-1.6 1.2 0 .6.5 1 1.4 1l1.4.3c1.2.1 2 .4 2.6 1 .6.4.9 1.1.9 2 0 1-.4 1.8-1 2.3-.7.5-1.7.8-3 .8h-.7c-1.2 0-2.1-.3-2.8-.7-.7-.5-1.1-1.2-1.2-2zm13-7.4v6.2c0 1.3.5 2 1.7 2 1.3 0 1.9-.7 1.9-2V21h2.2v6.2c0 1.2-.4 2.2-1 2.9-.8.6-1.8 1-3 1-1.3 0-2.3-.4-3-1-.7-.7-1.1-1.7-1.1-3v-6.1h2.3zm8-3h2.2v3a20 20 0 010 1.7h.1c.1-.6.4-1 .9-1.4a3 3 0 011.7-.5c.6 0 1 .1 1.5.3.4.2.7.4 1 .8.3.3.5.7.7 1.2.2.5.3 1 .3 1.6v2.5c0 .6-.1 1.1-.3 1.6-.2.5-.4.9-.7 1.2-.3.4-.6.6-1 .8l-1.4.3a3 3 0 01-1.8-.5c-.5-.4-.8-.8-.9-1.4h-.2V31H458V18zm2.2 9.2c0 .5.2 1 .5 1.4.4.3.9.5 1.4.5.7 0 1.1-.2 1.5-.5.3-.4.5-.9.5-1.5v-2.4c0-.6-.2-1-.5-1.4a2 2 0 00-1.5-.5c-.5 0-1 .1-1.3.5a2 2 0 00-.6 1.4v2.5zm8.2 4.7h2.7c.6 0 1-.2 1.3-.5.4-.4.5-.8.5-1.3v-7h-4V21h6.3v9c0 .6-.1 1.2-.3 1.7l-.8 1.2-1.2.8c-.5.2-1 .3-1.7.3h-2.8V32zm4-13.6c0-.3.2-.6.4-.8.2-.3.5-.4 1-.4h.4c.4 0 .7.1 1 .4.1.2.3.5.3.8 0 .4-.2.7-.4.9-.2.2-.5.3-1 .3h-.4c-.4 0-.7-.1-1-.3-.1-.2-.3-.5-.3-.9zm6 6.4c0-.6 0-1.1.3-1.6.2-.5.4-.9.8-1.2.4-.4.8-.6 1.4-.8.5-.2 1-.3 1.8-.3.6 0 1.2.1 1.7.3.5.2 1 .4 1.3.8.4.3.7.7 1 1.2l.2 1.6v1.8h-6.3v.7c0 .6.2 1.1.5 1.5.4.4.9.6 1.5.6.5 0 1-.1 1.3-.3.3-.1.6-.3.7-.6h2.2c0 .4-.2.8-.5 1.1l-1 .9-1.2.5a5.6 5.6 0 01-3.2 0c-.6-.3-1-.5-1.4-.9-.4-.3-.6-.7-.8-1.2a4 4 0 01-.4-1.6v-2.5zm2.2.3h4.1v-.3a2 2 0 00-.5-1.5 2 2 0 00-1.5-.6 2 2 0 00-1.6.6 2 2 0 00-.5 1.5v.3zm12.5 6c-.7 0-1.3 0-1.8-.2s-1-.4-1.4-.8a4 4 0 01-1.2-2.8v-2.5c0-.6.2-1.1.4-1.6s.5-.9.8-1.2a4 4 0 011.4-.8 5.3 5.3 0 013.4 0 4 4 0 012.7 3.2H495c0-.4-.3-.8-.7-1-.3-.4-.8-.5-1.3-.5-.7 0-1.2.1-1.5.5-.4.3-.6.8-.6 1.4v2.5c0 .6.2 1 .6 1.4.3.4.8.5 1.5.5.5 0 1-.1 1.3-.4.4-.3.6-.7.7-1.1h2.3l-.5 1.4a4 4 0 01-2.2 1.8 5 5 0 01-1.6.3zm5.6-10h2.7v-3h2.2v3h3.8v2h-3.8V28c0 .4.1.6.3.8.2.2.5.3.8.3h2.5v2h-2.7c-1 0-1.7-.3-2.3-.8a3 3 0 01-.8-2.3v-4.8h-2.7v-2z"/>
      </g>
      <g>
        <path fill="#F5FF87" d="M407.5 126v-2h7.8v2h-2.8v9h2.8v2h-7.8v-2h2.8v-9h-2.8zm10.1-2h4c.7 0 1.3.1 1.8.3.6.2 1 .5 1.4.9.4.3.7.8.9 1.3.2.5.3 1 .3 1.6v4.8c0 .6-.1 1.2-.3 1.7a3.7 3.7 0 01-2.3 2.1c-.5.2-1.1.3-1.8.3h-4v-13zm2.3 11h1.7c.7 0 1.2-.3 1.6-.6.3-.4.5-1 .5-1.5V128a2 2 0 00-.5-1.4c-.4-.4-1-.6-1.6-.6H420v8.8zm10.4.6c0-.5.2-1 .5-1.2.3-.3.7-.5 1.2-.5s.9.2 1.2.5c.3.3.5.7.5 1.2 0 .4-.2.8-.5 1.1-.3.3-.7.5-1.2.5s-.9-.2-1.2-.5c-.3-.3-.5-.7-.5-1.1zm0-7c0-.5.2-1 .5-1.2.3-.3.7-.5 1.2-.5s.9.2 1.2.5c.3.3.5.7.5 1.2s-.2.8-.5 1.1c-.3.3-.7.5-1.2.5s-.9-.2-1.2-.5c-.3-.3-.5-.6-.5-1.1z"/>
        <path fill="#FFF" d="M446.6 137.2l-1.8-.3a4 4 0 01-1.3-.8l-.9-1.2a4 4 0 01-.3-1.6v-2.5c0-.6.1-1.1.3-1.6a3.5 3.5 0 012.2-2l1.8-.3 1.8.3c.5.2 1 .4 1.3.8.4.3.7.7.9 1.2.2.5.3 1 .3 1.6v2.5l-.3 1.6a3.5 3.5 0 01-2.2 2c-.5.2-1.1.3-1.8.3zm-2-4c0 .7.1 1.1.5 1.5.4.3.9.5 1.5.5a2 2 0 001.5-.5c.4-.4.6-.8.6-1.4v-2.5c0-.6-.2-1-.6-1.4a2 2 0 00-1.5-.5 2 2 0 00-1.5.5c-.4.4-.6.8-.6 1.4v2.5zm8.2-9.2h2.3v3a20 20 0 01-.1 1.8h.2c0-.6.4-1 .8-1.4a3 3 0 011.8-.5c.5 0 1 .1 1.4.3.4.2.8.4 1 .8.4.3.6.7.8 1.2l.2 1.6v2.5c0 .6 0 1.1-.2 1.6s-.4.9-.7 1.2c-.3.4-.7.6-1.1.8-.4.2-.9.3-1.4.3a3 3 0 01-1.8-.5c-.4-.4-.7-.8-.8-1.4h-.2v1.7h-2.2v-13zm2.3 9.3c0 .5.2 1 .5 1.4.3.3.8.5 1.4.5.6 0 1-.2 1.4-.5.4-.4.6-.9.6-1.5v-2.4c0-.6-.2-1-.6-1.4a2 2 0 00-1.4-.5c-.6 0-1 .1-1.4.5a2 2 0 00-.5 1.4v2.5zm8.2 4.7h2.7c.5 0 1-.2 1.3-.5.3-.4.5-.8.5-1.3v-7h-4V127h6.2v9c0 .6 0 1.2-.2 1.7l-.8 1.2-1.3.8c-.5.2-1 .3-1.6.3h-2.8V138zm4-13.6c0-.3.1-.6.3-.8.3-.3.6-.4 1-.4h.4c.4 0 .7.1 1 .4.2.2.3.5.3.8 0 .4-.1.7-.3.9-.3.2-.6.3-1 .3h-.4c-.4 0-.7-.1-1-.3-.2-.2-.3-.5-.3-.9zm5.9 6.4c0-.6.1-1.1.3-1.6.2-.5.5-.9.9-1.2.3-.4.8-.6 1.3-.8.5-.2 1.1-.3 1.8-.3l1.8.3c.5.2 1 .4 1.3.8.4.3.7.7.9 1.2.2.5.3 1 .3 1.6v1.8h-6.4v.7c0 .6.2 1.1.6 1.5.3.4.9.6 1.5.6.5 0 .9-.1 1.2-.3.4-.1.6-.3.8-.6h2.2l-.5 1.1-1 .9-1.2.5a5.6 5.6 0 01-3.3 0c-.5-.3-1-.5-1.3-.9-.4-.3-.7-.7-.9-1.2a4 4 0 01-.3-1.6v-2.5zm2.2.3h4.2v-.3a2 2 0 00-.6-1.5 2 2 0 00-1.5-.6 2 2 0 00-1.5.6 2 2 0 00-.6 1.5v.3zm12.5 6c-.6 0-1.2 0-1.8-.2-.5-.2-1-.4-1.3-.8-.4-.3-.7-.7-.9-1.2a4 4 0 01-.3-1.6v-2.5c0-.6.1-1.1.3-1.6.2-.5.5-.9.9-1.2a4 4 0 011.3-.8 5.3 5.3 0 013.4 0 4 4 0 012.7 3.2H490c-.1-.4-.3-.8-.7-1-.4-.4-.8-.5-1.4-.5-.6 0-1.1.1-1.5.5-.3.3-.5.8-.5 1.4v2.5c0 .6.2 1 .5 1.4.4.4.9.5 1.5.5.5 0 1-.1 1.4-.4.4-.3.6-.7.7-1.1h2.2c0 .5-.2 1-.5 1.4a4 4 0 01-2.2 1.8 5 5 0 01-1.6.3zm5.6-10h2.7v-3h2.3v3h3.8v2h-3.8v4.8c0 .4 0 .6.3.8.2.2.4.3.8.3h2.5v2h-2.7c-1 0-1.7-.3-2.3-.8a3 3 0 01-.9-2.3v-4.8h-2.7v-2z"/>
      </g>
    </g>
  </g>
</svg>
