<svg xmlns="http://www.w3.org/2000/svg" width="1788" height="925" viewBox="0 0 1788 925">
  <!-- Icons: Twemoji (https://twemoji.twitter.com/) -->
  <g fill="none" fill-rule="evenodd">
    <rect width="710" height="525" x="13" y="271" fill="#FFE6ED" stroke="#F03969" stroke-width="6" rx="25"/>
    <rect width="710" height="393" x="1064" y="274" fill="#E1F9FF" stroke="#3AC" stroke-width="6" rx="25"/>
    <path stroke="#CCD6DD" stroke-dasharray="3 15" stroke-width="5" d="M896.9 85v772.3h2-2V85h-2 2zm0 0v-1 1h324.6-324.6zm0 772.3L480 859.5l416.9-2.2v2-2z"/>
    <path fill="#CCD6DD" d="M1237 84.5l-19 9.5V75z"/>
    <rect width="212" height="203" x="786" y="373" fill="#EAEFF3" rx="22"/>
    <path fill="#F03969" fill-rule="nonzero" d="M818.6 540.1a9.5 9.5 0 11-18.2 5.3 9.5 9.5 0 0118.2-5.3zm-238.6 71l-.9-2.9 3.9-1 .8 2.8-3.8 1.1zm8.6-2.5l-.8-2.9 3.8-1.1.9 2.9-3.9 1zm8.7-2.5l-.9-2.9 3.9-1.1.8 2.9-3.8 1zm8.6-2.5l-.8-3 3.8-1 .8 2.8-3.8 1.2zm8.6-2.6l-.8-2.8 3.8-1.1.9 2.8-3.9 1.1zm8.7-2.5l-.9-2.8 3.9-1.2.8 3-3.8 1zm8.6-2.5l-.8-2.9 3.8-1 .9 2.8-3.9 1.1zm8.7-2.5l-.9-2.9 3.9-1 .8 2.8-3.8 1.1zm8.6-2.5l-.8-2.9 3.8-1.1.9 2.9-3.9 1zm8.7-2.5l-.9-3 3.9-1 .8 2.9-3.8 1zm8.6-2.5l-.8-3 3.8-1 .8 2.8-3.8 1.2zm8.6-2.6l-.8-2.8 3.8-1.2.9 3-3.9 1zm8.7-2.5l-.9-2.9 3.9-1 .8 2.8-3.8 1.1zm8.6-2.5l-.8-2.9 3.8-1 .9 2.8-3.9 1.1zm8.7-2.5l-.9-2.9 3.9-1.1.8 2.9-3.8 1.1zm8.6-2.5l-.8-2.9 3.8-1.1.8 2.9-3.8 1zm8.6-2.5l-.8-3 3.8-1 .9 2.9-3.9 1zm8.7-2.5l-.9-3 3.9-1 .8 2.8-3.8 1.2zm8.6-2.6l-.8-2.8 3.8-1.2.9 3-3.9 1zm8.7-2.5l-.9-2.9 3.9-1 .8 2.8-3.8 1.1zm8.6-2.5l-.8-2.9 3.8-1 .8 2.8-3.8 1.1zm8.7-2.5l-.9-2.9 3.9-1.1.8 2.9-3.8 1.1zm8.6-2.5l-.8-2.9 3.8-1.1.8 2.9-3.8 1zm8.6-2.5l-.8-3 3.8-1 .9 2.8-3.9 1.2zm8.7-2.5l-.9-3 3.9-1 .8 2.8-3.8 1.2zm8.6-2.6l-.8-2.8 3.8-1.2.9 3-3.9 1zM819 501.9a9.5 9.5 0 11-19 2.2 9.5 9.5 0 0119-2.2zm-176.3 22.3l-.4-3 4-.5.4 3-4 .5zm9-1l-.4-3 4-.5.3 3-4 .4zm8.9-1.1l-.4-3 4-.5.3 3-4 .5zm8.9-1l-.4-3 4-.5.4 3-4 .4zm9-1.1l-.4-3 4-.5.3 3-4 .5zm8.9-1.1l-.4-3 4-.4.3 3-4 .4zm9-1l-.4-3 4-.5.3 3-4 .4zm8.9-1.1l-.4-3 4-.5.3 3-4 .5zm8.9-1l-.4-3 4-.5.4 3-4 .4zm9-1.1l-.4-3 4-.5.3 3-4 .5zm8.9-1l-.4-3 4-.5.3 3-4 .4zm9-1.1l-.4-3 4-.5.3 3-4 .5zm8.8-1l-.3-3 4-.5.3 3-4 .4zm9-1.1l-.4-3 4-.5.4 3-4 .5zm9-1l-.4-3 4-.5.3 3-4 .4zm8.9-1.1l-.4-3 4-.5.3 3-4 .5zm8.9-1l-.4-3 4-.5.4 3-4 .4zm9-1.1l-.4-3 4-.5.3 3-4 .5zM804 423l-.6.1-.3-3h.7a9.5 9.5 0 11.3 3zM696 434l-.4-3 4-.4.3 3-4 .4zm8.9-1l-.3-2.9 4-.4.2 3-4 .4zm9-.8l-.4-3 4-.4.3 3-4 .4zm8.9-.9l-.3-3 4-.4.3 3-4 .4zm9-.9l-.4-3 4-.4.3 3-4 .4zm8.9-.9l-.3-3 4-.4.3 3-4 .4zm9-.9l-.4-3 4-.4.3 3-4 .4zm8.9-.9l-.3-3 4-.4.3 3-4 .4zm9-.9l-.4-3 4-.4.3 3-4 .4zm8.9-.9l-.3-3 4-.4.3 3-4 .4zm9-.9l-.3-3 4-.4.2 3-4 .4zm9-.9l-.4-3 4-.4.3 3-4 .4zM823.7 459.4a9.5 9.5 0 11-19-1.6 9.5 9.5 0 0119 1.6zm-126.3-8.8l.2-3 4 .3-.2 3-4-.3zm9 .7l.2-3 4 .3-.3 3-4-.3zm9 .7l.2-3 4 .4-.3 3-4-.4zm8.9.8l.2-3 4 .3-.2 3-4-.3zm9 .7l.2-3 4 .3-.3 3-4-.3zm9 .7l.2-3 4 .4-.3 3-4-.4zm8.9.8l.2-3 4 .3-.2 3-4-.3zm9 .7l.2-3 4 .3-.2 3-4-.3zm9 .7l.2-3 4 .4-.3 3-4-.4zm9 .8l.2-3 4 .3-.3 3-4-.3zm8.9.7l.2-3 4 .3-.2 3-4-.3zm9 .7l.2-3 4 .4-.3 3-4-.4z"/>
    <path fill="#3AC" fill-rule="nonzero" d="M993.7 456.5h.7l.3 3h-.7a9.5 9.5 0 11-.3-3zm90.3-8.6l.3 3-4 .3-.3-3 4-.3zm-9 .8l.3 3-4 .4-.3-3 4-.4zm-9 .9l.3 3-4 .4-.2-3 4-.4zm-8.9.8l.3 3-4 .4-.3-3 4-.4zm-9 1l.3 2.9-4 .4-.2-3 4-.4zm-9 .8l.4 3-4 .3-.3-3 4-.3zm-8.9.8l.3 3-4 .4-.3-3 4-.4zm-9 .9l.4 3-4 .4-.3-3 4-.4zm-8.9.9l.3 3-4 .3-.3-3 4-.3zm-9 .8l.3 3-4 .4-.2-3 4-.4zM898.6 421a9.5 9.5 0 1119 .6 9.5 9.5 0 01-19-.6zm185.2 4.6l-.1 3h-4l.1-3h4zm-9-.3l-.1 3h-4l.1-3h4zm-9-.3v3h-4v-3h4zm-9-.3v3h-4v-3h4zm-9-.3v3h-4v-3h4zm-9-.3v3h-4v-3h4zm-9-.3v3h-4v-3h4zm-9-.3v3h-4v-3h4zm-9-.3v3h-4v-3h4zm-9-.3v3h-4v-3h4zm-9-.3v3h-4v-3h4zm-9-.3v3h-4v-3h4zm-9-.3v3h-4v-3h4zm-9-.3v3h-4v-3h4zm-9-.3v3h-4v-3h4zm-9-.3v3h-4v-3h4zm-9-.3v3h-4v-3h4zm-9-.3v3h-4v-3h4zm-9-.3v3l-4-.1v-3l4 .1z"/>
    <rect width="135.5" height="23.5" x="4.8" y="1.8" fill="#3D4251" stroke="#3D4251" stroke-width="3.5" rx="11.8" transform="translate(814 361)"/>
    <rect width="638" height="56" fill="#FFF" rx="28" transform="translate(50 409)"/>
    <rect width="638" height="56" fill="#FFF" rx="28" transform="translate(1099 412)"/>
    <rect width="448" height="56" x="92" fill="#3D4251" rx="28" transform="translate(47 321)"/>
    <rect width="421" height="56" x="107" fill="#3D4251" rx="28" transform="translate(1101 324)"/>
    <rect width="520" height="56" x="56" fill="#FFF" rx="28" transform="translate(51 495)"/>
    <rect width="386" height="56" x="123" fill="#FFF" rx="28" transform="translate(50 581)"/>
    <rect width="333" height="56" x="150" fill="#FFF" rx="28" transform="translate(50 667)"/>
    <rect width="385" height="56" x="128" fill="#FFF" rx="28" transform="translate(1099 498)"/>
    <g fill-rule="nonzero">
      <path fill="#E1E8ED" d="M416 67l-30-30a6.7 6.7 0 00-9.4 9.4l-12.8 12.8 30 30 12.8-12.8A6.7 6.7 0 00416 67z"/>
      <path fill="#CCD6DD" d="M381.3 35h-50C324 35 318 41 318 48.3v93.4c0 7.3 6 13.3 13.3 13.3h73.4c7.3 0 13.3-6 13.3-13.3v-70h-30a7.2 7.2 0 01-6.7-6.7V35z"/>
      <path fill="#99AAB5" d="M381.3 35h-6.6v30c0 7.4 6 13.3 13.3 13.3h30v-6.6h-30a7.2 7.2 0 01-6.7-6.7V35zm-16.6 29.3c0 2.2-1.5 4-3.4 4h-26.6c-1.9 0-3.4-1.8-3.4-4s1.5-4 3.4-4h26.6c1.9 0 3.4 1.8 3.4 4zm0 13.4c0 2.2-1.5 4-3.4 4h-26.6c-1.9 0-3.4-1.8-3.4-4s1.5-4 3.4-4h26.6c1.9 0 3.4 1.8 3.4 4zm40 13.3c0 2.2-1.5 4-3.4 4h-66.6c-1.9 0-3.4-1.8-3.4-4s1.5-4 3.4-4h66.6c1.9 0 3.4 1.8 3.4 4zm0 13.3c0 2.2-1.5 4-3.4 4h-66.6c-1.9 0-3.4-1.8-3.4-4s1.5-4 3.4-4h66.6c1.9 0 3.4 1.8 3.4 4zm0 13.4c0 2.2-1.5 4-3.4 4h-66.6c-1.9 0-3.4-1.8-3.4-4s1.5-4 3.4-4h66.6c1.9 0 3.4 1.8 3.4 4zm0 13.3c0 2.2-1.5 4-3.4 4h-66.6c-1.9 0-3.4-1.8-3.4-4s1.5-4 3.4-4h66.6c1.9 0 3.4 1.8 3.4 4z"/>
    </g>
    <rect width="121.5" height="23.5" x="4.8" y="1.8" fill="#3D4251" stroke="#3D4251" stroke-width="3.5" rx="11.8" transform="translate(303 141)"/>
    <g fill-rule="nonzero">
      <path fill="#662113" d="M298.4 787.9v55c0 9 4.9 11 4.9 11l51.4 40.5c8.1 6.3 6-7 6-7v-50.6l-62.3-49z"/>
      <path fill="#C1694F" d="M422.9 787.9v55c0 9-4.7 11-4.7 11l-51.5 40.5c-8.1 6.3-6-7-6-7v-50.6l62.2-49z"/>
      <path fill="#D99E82" d="M366.4 741.2a10.1 10.1 0 00-12.2 0L301 783.6c-3.4 2.7-3.4 7.1 0 9.8l53.4 42.9c3.3 2.7 8.8 2.7 12.2 0l53.8-43.3c3.3-2.7 3.3-7 0-9.8l-54-42z"/>
      <path fill="#D99E82" d="M361.4 897.9c-2.8 0-5.2-2.2-5.2-4.8v-57.5c0-2.6 2.4-4.7 5.2-4.7 2.9 0 5.2 2.1 5.2 4.7v57.5c0 2.6-2.3 4.8-5.2 4.8z"/>
      <path fill="#D0A800" d="M405.1 822.7c0 5 .5 7.3-4.4 10.9l-11 8.3c-5 3.6-6.8.5-6.8-4.4v-13.2c0-.8-.1-1.7-1.2-2.7-11.5-9.4-56-44.7-64.1-51.3l20.6-16.3c5.6 4.1 47.7 36.7 65.4 50.6.9.6 1.5 1.4 1.5 2.2v16z"/>
      <path fill="#FFDA3C" d="M403.6 804.6a5735 5735 0 00-65.4-50.6l-7.7 6-12.9 10.3c8.1 6.6 52.6 41.9 64 51.3.6.5 1 1 1.2 1.7l21.9-17.6c-.3-.5-.7-.8-1.1-1.1z"/>
      <path fill="#CFC59C" d="M405.1 806.8c0-.8-.6-1.5-1.5-2.2a5735 5735 0 00-65.4-50.6l-9.3 7.3c15.1 11.9 55.5 43 66 51.5a3 3 0 011.3 2.7V837l4.5-3.4c4.9-3.6 4.4-6 4.4-10.9v-15.9z"/>
      <path fill="#FFF9DF" d="M403.6 804.6a5735 5735 0 00-65.4-50.6l-9.3 7.3c15.1 11.9 55.5 43 66 51.5.3 0 .4.2.5.3l9.3-7.4c-.3-.5-.7-.8-1.1-1.1z"/>
    </g>
    <rect width="179.5" height="47.5" x="1.8" y="1.8" fill="#F03969" stroke="#F03969" stroke-width="3.5" rx="23.8" transform="translate(278 243)"/>
    <rect width="193.5" height="47.5" x="1.8" y="1.8" fill="#3AC" stroke="#3AC" stroke-width="3.5" rx="23.8" transform="translate(1320 246)"/>
    <path fill="#F03969" fill-rule="nonzero" d="M371.8 211h7.2l-9.5 19-9.5-19h7.8v-28h4v28z"/>
    <path fill="#3AC" fill-rule="nonzero" d="M1421.8 214h7.2l-9.5 19-9.5-19h7.8v-28h4v28z"/>
    <g fill-rule="nonzero">
      <path fill="#662113" d="M1356.4 61.9v55c0 9 4.9 11 4.9 11l51.4 40.5c8.1 6.3 6-7 6-7v-50.6l-62.3-49z"/>
      <path fill="#C1694F" d="M1480.9 61.9v55c0 9-4.7 11-4.7 11l-51.5 40.5c-8.1 6.3-6-7-6-7v-50.6l62.2-49z"/>
      <path fill="#D99E82" d="M1424.4 15.2a10.1 10.1 0 00-12.2 0L1359 57.6c-3.4 2.7-3.4 7.1 0 9.8l53.4 42.9c3.3 2.7 8.8 2.7 12.2 0l53.8-43.3c3.3-2.7 3.3-7 0-9.8l-54-42z"/>
      <path fill="#D99E82" d="M1419.4 171.9c-2.8 0-5.2-2.2-5.2-4.8v-57.5c0-2.6 2.4-4.7 5.2-4.7 2.9 0 5.2 2.1 5.2 4.7v57.5c0 2.6-2.3 4.8-5.2 4.8z"/>
      <path fill="#D0A800" d="M1463.1 96.7c0 5 .5 7.3-4.4 10.9l-11 8.3c-5 3.6-6.8.5-6.8-4.4V98.3c0-.8-.1-1.7-1.2-2.7-11.5-9.4-56-44.7-64.1-51.3l20.6-16.3c5.6 4.1 47.7 36.7 65.4 50.6.9.6 1.5 1.4 1.5 2.2v16z"/>
      <path fill="#FFDA3C" d="M1461.6 78.6a5735 5735 0 00-65.4-50.6l-7.7 6-12.9 10.3c8.1 6.6 52.6 41.9 64 51.3.6.5 1 1 1.2 1.7l21.9-17.6c-.3-.5-.7-.8-1.1-1.1z"/>
      <path fill="#CFC59C" d="M1463.1 80.8c0-.8-.6-1.5-1.5-2.2a5735 5735 0 00-65.4-50.6l-9.3 7.3c15.1 11.9 55.5 43 66 51.5a3 3 0 011.3 2.7V111l4.5-3.4c4.9-3.6 4.4-6 4.4-10.9V80.8z"/>
      <path fill="#FFF9DF" d="M1461.6 78.6a5735 5735 0 00-65.4-50.6l-9.3 7.3c15.1 11.9 55.5 43 66 51.5.3 0 .4.2.5.3l9.3-7.4c-.3-.5-.7-.8-1.1-1.1z"/>
    </g>
    <g fill-rule="nonzero">
      <path fill="#E1E8ED" d="M1445.6 64l-.7-20.4a3.2 3.2 0 00-6.4.3l-8.7.3.7 20.3 8.7-.3a3.2 3.2 0 006.4-.2z"/>
      <path fill="#CCD6DD" d="M1444 41.4L1426.3 25a6.4 6.4 0 00-9 .4L1386.7 58a6.4 6.4 0 00.3 9l25.7 24a6.4 6.4 0 009-.2l23-24.6-10.5-9.8a3.4 3.4 0 01-.2-4.6l9.8-10.5z"/>
      <path fill="#99AAB5" d="M1444 41.4l-2.4-2.2-9.8 10.6a6.4 6.4 0 00.3 9l10.5 9.8 2.2-2.3-10.5-9.8a3.4 3.4 0 01-.2-4.6l9.8-10.5zm-15.5 4.9c-.8.7-1.9.9-2.5.3l-9.4-8.8c-.6-.6-.6-1.7.2-2.5.7-.7 1.8-.9 2.4-.3l9.4 8.8c.7.6.6 1.7-.1 2.5zm-4.4 4.6c-.7.8-1.8 1-2.5.4l-9.3-8.8c-.7-.6-.6-1.7.1-2.5.7-.7 1.8-.9 2.5-.3l9.3 8.7c.7.6.6 1.8-.1 2.5zm9.7 17.8c-.7.8-1.9 1-2.5.3l-23.4-21.8c-.7-.6-.6-1.7.1-2.5.8-.8 1.9-1 2.5-.3l23.4 21.8c.7.6.6 1.7-.1 2.5zm-4.4 4.7c-.7.8-1.8 1-2.5.3L1403.5 52c-.6-.6-.6-1.7.2-2.5.7-.8 1.8-1 2.4-.3l23.5 21.8c.6.6.5 1.7-.2 2.5zM1425 78c-.7.7-1.8.9-2.4.3l-23.4-21.8c-.7-.6-.6-1.8.1-2.5.7-.8 1.8-1 2.5-.3l23.4 21.8c.6.6.6 1.7-.2 2.5zm-4.3 4.7c-.7.7-1.8.9-2.5.3l-23.4-21.9c-.6-.6-.6-1.7.1-2.5.8-.7 1.9-.9 2.5-.3l23.4 21.9c.7.6.6 1.7-.1 2.5z"/>
    </g>
    <rect width="58.3" height="11.3" x="2.3" y=".8" fill="#3D4251" stroke="#3D4251" stroke-width="1.7" rx="5.6" transform="rotate(43 623.6 1780.3)"/>
    <g fill-rule="nonzero">
      <path fill="#CCD6DD" d="M1484 704.4c-1.7-3.9-3.6-8-8-8h-4a8 8 0 008-8V620a8 8 0 00-8-8h-104a8 8 0 00-8 8v68.3a8 8 0 008 8h-4c-4.4 0-6.7 4-8 8l-8 19.7a8 8 0 008 8h128a8 8 0 008-8l-8-19.6z"/>
      <path fill="#9AAAB4" d="M1348 724.3v.4l.7 5.2c1.3 5.3 4.2 8.8 7.3 8.8h128c4.3 0 7.8-6.4 8-14.4h-144z"/>
      <path fill="#4CC0E6" d="M1472 684.3a4 4 0 01-4 4h-96a4 4 0 01-4-4v-60.2a4 4 0 014-4h96a4 4 0 014 4v60.2z"/>
      <path fill="#AEBBC1" d="M1479.6 712.2l-3-8.7c-1-1.9-2.6-3.4-4.8-3.4h-103.4c-2.2 0-3.6 1.7-4.6 4.2l-2.7 7.9c-1 2.4 1.8 4 4 4h30.3s3.7-.2 4.4-2.4c.8-2.6 1.6-6.5 1.8-7.2.3-1 1.6-2.2 3.5-2.2h34.3c2 0 3 1 3.2 2.3.2.8 1.3 4.6 1.8 7.1.4 2.3 4.9 2.4 4.9 2.4h26.3c2.2 0 4.9-1.9 4-4z"/>
      <path fill="#9AAAB4" d="M1437.5 722.8h-31.1c-1.5 0-2.2-1.6-2-3.2l1.6-9.4c0-.8 1-1.8 2-1.8h28.1c1.2 0 2 .8 2.2 2.3l1.3 9.3c0 1.5-.7 2.8-2.1 2.8z"/>
      <g fill="#FFF">
        <path d="M1390.2 651.3c-1.8-.2-2-2.8-4.4-2.6-1.2 0-2.3.5-2.3 1.6 0 1.6 2.5 1.8 4 2.2 2.6.8 5 1.3 5 4.1 0 3.6-2.7 4.8-6.3 4.8-3 0-6.2-1-6.2-3.9 0-.8.7-1.4 1.5-1.4.9 0 1.2.4 1.5 1 .8 1.3 1.6 2 3.5 2 1.3 0 2.6-.5 2.6-1.6 0-1.6-1.6-1.9-3.2-2.3-3-.8-5.4-1.2-5.7-4.4-.3-5.5 11.1-5.7 11.7-1 0 1-.8 1.5-1.7 1.5zm13.6-4.8c4 0 6.2 3.3 6.2 7.5 0 4.1-2.2 7.5-6.2 7.5-2.3 0-3.7-1-4.7-2.5v5.5c0 1.7-.5 2.5-1.7 2.5-1.5 0-1.8-1-1.8-2.5v-16c0-1.3.6-2 1.8-2 1 0 1.7.8 1.7 2v.5c1.1-1.4 2.4-2.5 4.7-2.5zm-1 12.1c2.4 0 3.4-2.1 3.4-4.7 0-2.4-1-4.7-3.4-4.7s-3.5 2-3.5 4.7c0 2.6 1.1 4.7 3.5 4.7zm10-8.2c0-2.9 3.3-4 6.5-4 4.5 0 6.3 1.4 6.3 5.8v4.2c0 1 .6 3 .6 3.6 0 .9-.8 1.4-1.7 1.4-1 0-1.7-1.1-2.2-2a8 8 0 01-5.4 2c-2.7 0-4.7-1.5-4.7-4 0-2.4 1.6-3.7 3.6-4.1l6.2-1.5c0-2-.7-2.8-2.7-2.8-1.8 0-2.7.5-3.4 1.6-.5.8-.5 1.3-1.5 1.3-.9 0-1.6-.6-1.6-1.5zm5.3 8.7c2.8 0 4-1.5 4-4.4v-.6l-4.6 1.1c-.9.2-1.7.8-1.7 1.8 0 1.2 1.1 2 2.3 2zm20.2-18.1c3.9 0 8 2.3 8 6 0 1-.7 1.8-1.6 1.8-1.2 0-1.4-.7-2-1.7-1-1.7-2-2.9-4.4-2.9-3.7 0-5.4 3.2-5.4 7.2s1.4 6.9 5.2 6.9c2.6 0 4-1.5 4.7-3.4.3-1 .8-1.8 2-1.8.8 0 1.7 1 1.7 1.9 0 3.9-4 6.6-8.1 6.6-4.5 0-7-1.9-8.4-5a12 12 0 01-1.1-5.3c-.1-6 3.4-10.3 9.4-10.3zm22.1 5.5c1 0 1.6.6 1.6 1.6l-.4 1.7-4.8 12.6c-1 2.7-1.9 4.6-5.5 4.6-1.7 0-3.2-.2-3.2-1.7 0-.8.7-1.3 1.6-1.3l.6.1.6.1c1.8 0 2-1.9 2.7-3.1l-4.6-11.5c-.3-.6-.4-1-.4-1.4 0-1 .7-1.7 1.8-1.7s1.6.9 2 2l3 9 3-8.4c.4-1.3.5-2.6 2-2.6z"/>
      </g>
    </g>
    <g fill-rule="nonzero">
      <path fill="#535D64" d="M829.4 429.2v-18.8h6.1v2.8h-3.1v13.2h3.1v2.8h-6.1zm9.8-13.2h2.9v1.9h.2c0-.7.3-1.2.8-1.6.5-.3 1.2-.5 2-.5 1.1 0 2 .4 2.6 1 .7.8 1 1.8 1 3.1v7.1h-3v-6.8c0-.6-.2-1-.5-1.3-.3-.3-.7-.5-1.2-.5-.6 0-1 .2-1.3.5-.3.3-.5.7-.5 1.3v6.8h-3v-11zm11.3-.7v-2.7h6.4v10.6c0 .3.1.6.3.8.2.2.5.3.8.3h3.3v2.7h-3.6c-1.2 0-2.1-.3-2.8-1-.7-.7-1-1.6-1-2.8v-7.9h-3.4zm12.8.7h2.9v1.9h.2c0-.7.4-1.2.9-1.5.5-.4 1.1-.6 1.9-.6a4 4 0 011.6.3l1.2.9.8 1.3c.2.6.2 1.1.2 1.8v2.7c0 .7 0 1.3-.2 1.8-.2.6-.5 1-.8 1.4a3.5 3.5 0 01-2.8 1.2c-.8 0-1.4-.2-2-.6-.4-.3-.7-.9-.8-1.5h-.2a18.1 18.1 0 010 1.9v3.4h-3V416zm3 4.2v2.6c0 .5.1 1 .5 1.3.3.3.8.5 1.4.5.6 0 1-.2 1.3-.5.4-.4.5-.8.5-1.4v-2.5c0-.6-.1-1-.5-1.3a2 2 0 00-1.3-.5 2 2 0 00-1.4.5c-.4.3-.5.8-.5 1.3zm10.2 9v-2.8h3.1v-13.2h-3.1v-2.8h6.1v18.8h-6.1zm-47.1 38v-18.8h6.1v2.8h-3.1v13.2h3.1v2.8h-6.1zm14.7-2c-.8 0-1.4-.1-2-.3-.7-.2-1.2-.5-1.7-.9-.4-.3-.7-.8-1-1.3-.2-.5-.3-1.1-.3-1.8v-2.8c0-.7 0-1.2.3-1.8.3-.5.6-1 1-1.3.5-.4 1-.7 1.6-.9a6.5 6.5 0 014 0c.5.2 1 .4 1.5.8a4.5 4.5 0 011.7 2.9h-3c-.1-.4-.3-.8-.7-1-.4-.3-.9-.4-1.4-.4-.6 0-1.1.1-1.5.5-.4.3-.5.7-.5 1.2v2.8c0 .6.1 1 .5 1.3.4.3.9.4 1.5.4.5 0 1-.1 1.4-.4.3-.3.6-.6.7-1h3a4.8 4.8 0 01-1.7 3l-1.5.7a6 6 0 01-1.9.3zm11.9 0c-.8 0-1.4-.1-2-.3-.7-.2-1.2-.5-1.7-1a4 4 0 01-1.3-3.1v-2.6c0-.7 0-1.2.3-1.8l1-1.4c.5-.4 1-.7 1.6-.9.7-.2 1.3-.3 2.1-.3s1.4.1 2 .3c.7.2 1.2.5 1.7 1 .4.3.7.8 1 1.3.2.6.3 1.1.3 1.8v2.6c0 .6 0 1.2-.3 1.8a4 4 0 01-1 1.4c-.5.4-1 .7-1.6.9-.7.2-1.3.3-2.1.3zm-2-4.4c0 .5.1 1 .5 1.3.4.3.9.5 1.5.5s1.1-.2 1.5-.5c.4-.3.5-.8.5-1.3v-2.6c0-.6-.1-1-.5-1.3-.4-.3-.9-.5-1.5-.5s-1.1.2-1.5.5c-.4.3-.5.7-.5 1.3v2.6zm8.8 4.2v-11h2.4v1.6h.2c0-.6.2-1 .5-1.3.4-.3.8-.5 1.3-.5.6 0 1 .2 1.2.5.3.3.4.7.5 1.3h.2c0-.6.2-1 .5-1.3.4-.3.8-.5 1.4-.5a2 2 0 011.6.8c.4.5.6 1.1.6 2v8.4h-2.6v-8c0-.8-.2-1.2-.8-1.2-.5 0-.8.4-.8 1.1v8.1h-2v-8c0-.8-.3-1.2-.9-1.2l-.6.3-.1.8v8.1h-2.6zm12.5-11h2.9v1.9h.2c0-.7.4-1.2.9-1.5.5-.4 1.1-.6 1.9-.6a4 4 0 011.6.3l1.2.9.8 1.3c.2.6.2 1.1.2 1.8v2.7c0 .7 0 1.3-.2 1.8-.2.6-.5 1-.8 1.4a3.5 3.5 0 01-2.8 1.2c-.8 0-1.4-.2-2-.6-.4-.3-.7-.9-.8-1.5h-.2a18.1 18.1 0 010 1.9v3.4h-3V454zm3 4.2v2.6c0 .5.1 1 .5 1.3.3.3.8.5 1.4.5.6 0 1-.2 1.3-.5.4-.4.5-.8.5-1.4v-2.5c0-.6-.1-1-.5-1.3a2 2 0 00-1.3-.5 2 2 0 00-1.4.5c-.4.3-.5.8-.5 1.3zm13.7 7c-.8 0-1.4-.1-2-.3-.7-.2-1.2-.5-1.7-1a4 4 0 01-1.3-3.1v-2.6c0-.7 0-1.2.3-1.8l1-1.4c.5-.4 1-.7 1.6-.9.7-.2 1.3-.3 2.1-.3s1.4.1 2 .3c.7.2 1.2.5 1.7 1 .4.3.7.8 1 1.3.2.6.3 1.1.3 1.8v2.6c0 .6 0 1.2-.3 1.8a4 4 0 01-1 1.4c-.5.4-1 .7-1.6.9-.7.2-1.3.3-2.1.3zm-2-4.4c0 .5.1 1 .5 1.3.4.3.9.5 1.5.5s1.1-.2 1.5-.5c.4-.3.5-.8.5-1.3v-2.6c0-.6-.1-1-.5-1.3-.4-.3-.9-.5-1.5-.5s-1.1.2-1.5.5c-.4.3-.5.7-.5 1.3v2.6zm9.2-6.8h2.9v1.9h.2c0-.7.3-1.2.8-1.6.5-.3 1.2-.5 2-.5 1.1 0 2 .4 2.6 1 .7.8 1 1.8 1 3.1v7.1h-3v-6.8c0-.6-.2-1-.5-1.3-.3-.3-.7-.5-1.2-.5-.6 0-1 .2-1.3.5-.3.3-.5.7-.5 1.3v6.8h-3v-11zm11.8 4.2c0-.7 0-1.3.3-1.8.3-.6.6-1 1-1.4.5-.4 1-.7 1.6-.9.7-.2 1.3-.3 2.1-.3.7 0 1.4.1 2 .3.7.2 1.2.5 1.6 1 .5.3.8.8 1 1.3.3.6.4 1.1.4 1.8v2h-7v.6c0 .7.1 1.2.5 1.6.3.3.8.5 1.5.5.5 0 1 0 1.3-.2l.7-.7h2.9c-.1.5-.3 1-.6 1.3l-1.1 1c-.4.3-1 .5-1.5.7l-1.7.2c-.8 0-1.4-.1-2-.3-.7-.2-1.2-.5-1.7-1-.4-.3-.7-.8-1-1.3-.2-.5-.3-1.1-.3-1.8v-2.6zm3 .2h4.1v-.2c0-.7-.2-1.2-.6-1.6-.3-.3-.8-.5-1.5-.5a2 2 0 00-1.5.5 2 2 0 00-.6 1.6v.2zm9.2-4.4h2.9v1.9h.2c0-.7.3-1.2.8-1.6.5-.3 1.2-.5 2-.5 1.1 0 2 .4 2.6 1 .7.8 1 1.8 1 3.1v7.1h-3v-6.8c0-.6-.2-1-.5-1.3-.3-.3-.7-.5-1.2-.5-.6 0-1 .2-1.3.5-.3.3-.5.7-.5 1.3v6.8h-3v-11zm11.5 0h2.9v-3.4h3v3.4h4.1v2.7h-4.1v4.5c0 .3.1.6.3.8.2.2.5.3.8.3h2.8v2.7h-3.1c-1.2 0-2.1-.3-2.8-1-.7-.7-1-1.6-1-2.8v-4.5h-2.9V454zm15.2 8.1c0 .3.3.5.6.7.2.2.6.2 1 .2h1c.5 0 1 0 1.3-.3.3-.2.4-.4.4-.8 0-.7-.5-1-1.6-1.2l-1.5-.1a5.5 5.5 0 01-3-1 3 3 0 01-1-2.5c0-1 .4-1.9 1.1-2.4.8-.6 1.9-.9 3.3-.9h1c1.3 0 2.4.3 3.1.8a3 3 0 011.3 2.2h-3c-.1-.6-.6-.9-1.4-.9h-1c-1 0-1.5.4-1.5 1 0 .7.5 1 1.4 1.2l1.6.1c2.7.4 4.1 1.5 4.1 3.6 0 1-.4 2-1.2 2.5-.8.6-2 .9-3.4.9h-1c-1.4 0-2.5-.3-3.2-.8a3.1 3.1 0 01-1.4-2.3h3zm10.6 5.1v-2.8h3.1v-13.2h-3.1v-2.8h6.1v18.8h-6.1zm-131.1 38v-18.8h6.1v2.8h-3.1v13.2h3.1v2.8h-6.1zm10.1-5h3.9v-5.5H840V492h6.2v8.3h3.1v2.7h-9.8v-2.7zm3.3-11.1c0-.4.1-.8.4-1 .3-.3.6-.4 1.1-.4h.6c.5 0 .8.1 1 .4.4.2.5.6.5 1s-.1.8-.4 1c-.3.3-.7.4-1.1.4h-.6c-.5 0-.8-.1-1-.4-.4-.2-.5-.6-.5-1zm8.4 2.9h2.9v1.9h.2c0-.7.3-1.2.8-1.6.5-.3 1.2-.5 2-.5 1.1 0 2 .4 2.6 1 .7.8 1 1.8 1 3.1v7.1h-3v-6.8c0-.6-.2-1-.5-1.3-.3-.3-.7-.5-1.2-.5-.6 0-1 .2-1.3.5-.3.3-.5.7-.5 1.3v6.8h-3v-11zm12.3 8.3h3.9v-5.6H864V492h6.2v8.3h3.1v2.7h-9.8v-2.7zm3.3-11.2c0-.4.1-.8.4-1 .3-.3.6-.4 1.1-.4h.6c.5 0 .8.1 1 .4.4.2.5.6.5 1s-.1.8-.4 1c-.3.3-.7.4-1.1.4h-.6c-.5 0-.8-.1-1-.4-.4-.2-.5-.6-.5-1zm7.9 2.9h2.9v-3.4h3v3.4h4.1v2.7h-4.1v4.5c0 .3.1.6.3.8.2.2.5.3.8.3h2.8v2.7h-3.1c-1.2 0-2.1-.3-2.8-1-.7-.7-1-1.6-1-2.8v-4.5h-2.9V492zm12.8 8.3h3.9v-5.6H888V492h6.2v8.3h3.1v2.7h-9.8v-2.7zm3.3-11.2c0-.4.1-.8.4-1 .3-.3.6-.4 1.1-.4h.6c.5 0 .8.1 1 .4.4.2.5.6.5 1s-.1.8-.4 1c-.3.3-.7.4-1.1.4h-.6c-.5 0-.8-.1-1-.4-.4-.2-.5-.6-.5-1zm8 10.9c0-1.1.5-2 1.3-2.6.8-.7 1.9-1 3.3-1h2.4v-1c0-.4-.2-.7-.5-1-.3-.2-.8-.3-1.3-.3s-1 0-1.3.3c-.3.2-.5.4-.6.7h-2.9a3.5 3.5 0 011.5-2.4c.4-.3 1-.5 1.5-.7l1.8-.2a7 7 0 012 .3c.5.1 1 .4 1.5.7l1 1.1.3 1.5v7.6h-2.9v-2.2h-.2c0 .7-.4 1.3-1 1.8a4 4 0 01-2.4.6c-1 0-1.9-.3-2.5-.9a3 3 0 01-1-2.3zm3-.5c0 .4.2.8.5 1 .3.3.7.4 1.3.4.6 0 1.2-.1 1.6-.4.4-.4.6-.7.6-1.2v-1.1h-2.4c-.5 0-.8.1-1.1.3-.3.3-.4.6-.4 1zm8.7-8.2v-2.7h6.4v10.6c0 .3.1.6.3.8.2.2.5.3.8.3h3.3v2.7h-3.6c-1.2 0-2.1-.3-2.8-1-.7-.7-1-1.6-1-2.8v-7.9h-3.4zm13 9h3.9v-5.6H924V492h6.2v8.3h3.1v2.7h-9.8v-2.7zm3.3-11.2c0-.4.1-.8.4-1 .3-.3.6-.4 1.1-.4h.6c.5 0 .8.1 1 .4.4.2.5.6.5 1s-.1.8-.4 1c-.3.3-.7.4-1.1.4h-.6c-.5 0-.8-.1-1-.4-.4-.2-.5-.6-.5-1zm8.5 11.3l5.5-5.9v-.1a5.2 5.2 0 01-1 .2h-4.3V492h9v2.6l-5.6 6a35.3 35.3 0 011.7-.2h4.1v2.6h-9.4v-2.6zm11.7-4.2c0-.7 0-1.3.3-1.8.3-.6.6-1 1-1.4.5-.4 1-.7 1.6-.9.7-.2 1.3-.3 2.1-.3.7 0 1.4.1 2 .3.7.2 1.2.5 1.6 1 .5.3.8.8 1 1.3.3.6.4 1.1.4 1.8v2h-7v.6c0 .7.1 1.2.5 1.6.3.3.8.5 1.5.5.5 0 1 0 1.3-.2l.7-.7h2.9c-.1.5-.3 1-.6 1.3l-1.1 1c-.4.3-1 .5-1.5.7l-1.7.2c-.8 0-1.4-.1-2-.3-.7-.2-1.2-.5-1.7-1-.4-.3-.7-.8-1-1.3-.2-.5-.3-1.1-.3-1.8v-2.6zm3 .2h4.1v-.2c0-.7-.2-1.2-.6-1.6-.3-.3-.8-.5-1.5-.5a2 2 0 00-1.5.5 2 2 0 00-.6 1.6v.2zm10.5 8.8v-2.8h3.1v-13.2h-3.1v-2.8h6.1v18.8h-6.1zm-131.1 38v-18.8h6.1v2.8h-3.1v13.2h3.1v2.8h-6.1zm9.3-13.2h2.9v-3.4h3v3.4h4.1v2.7h-4.1v4.5c0 .3.1.6.3.8.2.2.5.3.8.3h2.8v2.7h-3.1c-1.2 0-2.1-.3-2.8-1-.7-.7-1-1.6-1-2.8v-4.5h-2.9V530zm15.8 0v1.9h.2c0-.7.4-1.2 1-1.6.4-.3 1.1-.5 2-.5 1.2 0 2.1.4 2.8 1.1.7.8 1 1.8 1 3.1v.9h-3.2v-.7c0-.6-.2-1-.5-1.4a2 2 0 00-1.4-.5c-.6 0-1 .2-1.3.5a2 2 0 00-.5 1.4v6.8h-3v-11h2.9zm8.4 8c0-1.1.4-2 1.2-2.6.8-.7 1.9-1 3.3-1h2.4v-1c0-.4-.2-.7-.5-1-.3-.2-.8-.3-1.3-.3s-1 0-1.3.3c-.3.2-.5.4-.6.7h-2.9a3.5 3.5 0 011.5-2.4c.4-.3 1-.5 1.5-.7l1.8-.2a7 7 0 012 .3c.5.1 1 .4 1.5.7l1 1.1.3 1.5v7.6h-2.9v-2.2h-.2c0 .7-.4 1.3-1 1.8a4 4 0 01-2.4.6c-1 0-1.9-.3-2.5-.9a3 3 0 01-1-2.3zm3-.5c0 .4.1.8.4 1 .3.3.7.4 1.3.4.6 0 1.2-.1 1.6-.4.4-.4.6-.7.6-1.2v-1.1h-2.4c-.5 0-.8.1-1.1.3-.3.3-.4.6-.4 1zm9.6.8h3.9v-5.6H876V530h6.2v8.3h3.1v2.7h-9.8v-2.7zm3.3-11.2c0-.4.1-.8.4-1 .3-.3.6-.4 1.1-.4h.6c.5 0 .8.1 1 .4.4.2.5.6.5 1s-.1.8-.4 1c-.3.3-.7.4-1.1.4h-.6c-.5 0-.8-.1-1-.4-.4-.2-.5-.6-.5-1zm8.4 2.9h2.9v1.9h.2c0-.7.3-1.2.8-1.6.5-.3 1.2-.5 2-.5 1.1 0 2 .4 2.6 1 .7.8 1 1.8 1 3.1v7.1h-3v-6.8c0-.6-.2-1-.5-1.3-.3-.3-.7-.5-1.2-.5-.6 0-1 .2-1.3.5-.3.3-.5.7-.5 1.3v6.8h-3v-11zm12.3 8.3h3.9v-5.6H900V530h6.2v8.3h3.1v2.7h-9.8v-2.7zm3.3-11.2c0-.4.1-.8.4-1 .3-.3.6-.4 1.1-.4h.6c.5 0 .8.1 1 .4.4.2.5.6.5 1s-.1.8-.4 1c-.3.3-.7.4-1.1.4h-.6c-.5 0-.8-.1-1-.4-.4-.2-.5-.6-.5-1zm8.4 2.9h2.9v1.9h.2c0-.7.3-1.2.8-1.6.5-.3 1.2-.5 2-.5 1.1 0 2 .4 2.6 1 .7.8 1 1.8 1 3.1v7.1h-3v-6.8c0-.6-.2-1-.5-1.3-.3-.3-.7-.5-1.2-.5-.6 0-1 .2-1.3.5-.3.3-.5.7-.5 1.3v6.8h-3v-11zm11.8 4.1c0-.6 0-1.2.2-1.8l.8-1.3c.3-.4.7-.7 1.2-.9.5-.2 1-.3 1.6-.3.8 0 1.5.2 2 .6.5.4.8 1 .9 1.6h.1v-2h3v10.4c0 .6-.2 1.2-.4 1.6-.2.5-.5 1-1 1.3-.4.3-.9.6-1.5.8-.5.2-1.2.3-1.9.3h-3.1V542h3.1c.5 0 1-.1 1.3-.4.3-.3.4-.7.4-1.2v-.1l.1-2.2h-.1c0 .7-.4 1.2-.9 1.6-.5.4-1.2.6-2 .6a3.5 3.5 0 01-2.8-1.2l-.8-1.3c-.2-.6-.2-1.2-.2-1.8v-1.9zm3 1.8c0 .6.1 1 .5 1.3.3.3.8.5 1.3.5.6 0 1-.2 1.4-.5.4-.3.5-.8.5-1.3v-1.7c0-.5-.1-1-.5-1.3a2 2 0 00-1.4-.5 2 2 0 00-1.3.5c-.4.3-.5.7-.5 1.3v1.7zm10.5 7.3v-2.8h3.1v-13.2h-3.1v-2.8h6.1v18.8h-6.1z"/>
      <path fill="#FFF" d="M836.4 381.2a6 6 0 01-2-.3l-1.5-.9c-.4-.3-.7-.8-1-1.3-.1-.5-.3-1.1-.3-1.8v-2.8c0-.7.2-1.2.4-1.8.2-.5.5-1 1-1.3.4-.4.9-.7 1.4-.9a5.9 5.9 0 013.8 0 4.4 4.4 0 013 3.6h-2.5c-.1-.5-.3-1-.8-1.3-.4-.3-.9-.4-1.5-.4-.7 0-1.3.2-1.7.5a2 2 0 00-.6 1.6v2.8c0 .7.2 1.2.6 1.6.4.3 1 .5 1.7.5.6 0 1.1-.1 1.5-.4.4-.4.7-.8.8-1.3h2.5c-.1.6-.3 1.2-.6 1.6a4.4 4.4 0 01-2.4 2l-1.8.3zm11.3 0c-.7 0-1.4-.1-2-.3-.5-.2-1-.5-1.5-1a4 4 0 01-1-1.3c-.1-.5-.3-1.1-.3-1.8v-2.7c0-.6.2-1.2.4-1.7a4 4 0 012.5-2.3 6 6 0 012-.3 6 6 0 011.9.3c.6.2 1 .5 1.5.9.4.4.7.8 1 1.4.2.5.3 1 .3 1.7v2.7c0 .7-.1 1.3-.3 1.8a3.9 3.9 0 01-2.5 2.3 6 6 0 01-2 .3zm-2.3-4.4c0 .7.2 1.2.7 1.6.4.4 1 .6 1.6.6.7 0 1.3-.2 1.7-.6.4-.4.6-.9.6-1.6v-2.7a2 2 0 00-.6-1.5c-.4-.4-1-.6-1.7-.6s-1.2.2-1.6.6a2 2 0 00-.7 1.5v2.7zm9.2-6.8h2.4v1.9h.1c.2-.7.5-1.2 1-1.6.5-.3 1.2-.5 2-.5 1.1 0 2 .4 2.6 1.1.7.7 1 1.7 1 3v7.1h-2.5v-6.9c0-.7-.2-1.2-.6-1.6a2 2 0 00-1.4-.5 2 2 0 00-1.5.6c-.4.3-.6.9-.6 1.6v6.8h-2.5v-11zm11 3.5v-2.3h3.1v-1.5a3 3 0 011-2.3c.6-.5 1.4-.8 2.5-.8h3.2v2.2h-3.1a1 1 0 00-.8.3 1 1 0 00-.3.7v1.4h4.2v2.3h-4.2v7.5h-2.5v-7.5h-3zm12.1 5.2h4v-6.4h-3.5V370h5.9v8.7h3.1v2.3h-9.5v-2.3zM881 367c0-.4.2-.7.4-1 .3-.2.6-.3 1-.3h.6c.4 0 .7.1 1 .4.3.2.4.5.4 1 0 .3-.1.6-.4.9-.3.2-.6.3-1 .3h-.5c-.5 0-.8 0-1-.3-.3-.3-.5-.6-.5-1zm7.8 7c0-.6 0-1.2.2-1.7l.8-1.3c.3-.4.7-.7 1.2-.9a4 4 0 011.6-.3c.8 0 1.5.2 2 .6.5.4.9 1 1 1.6h.1v-2h2.4v10.4c0 .6 0 1.1-.3 1.6-.2.5-.5 1-.9 1.3l-1.4.8c-.6.2-1.2.3-2 .3h-2.9v-2h3c.6 0 1.1-.3 1.5-.6.4-.4.5-.8.5-1.4v-.3l.1-2h-.1c-.1.6-.5 1.1-1 1.5-.6.4-1.2.6-2 .6-.6 0-1.1 0-1.6-.3a3.5 3.5 0 01-2-2.2c-.2-.5-.2-1.1-.2-1.7v-2zm2.5 1.9c0 .7.2 1.2.6 1.6.3.4.9.5 1.6.5.6 0 1.2-.1 1.6-.5.3-.4.5-1 .5-1.6v-1.8c0-.6-.2-1.2-.5-1.6-.4-.3-1-.5-1.6-.5-.7 0-1.3.2-1.6.5-.4.4-.6 1-.6 1.6v1.8zm11.8 3.3c0-.6.2-1 .5-1.4a2 2 0 011.4-.5c.6 0 1.1.2 1.5.5.3.4.5.8.5 1.4 0 .6-.2 1.1-.5 1.5-.4.3-.9.5-1.5.5-.5 0-1-.2-1.4-.5a2 2 0 01-.5-1.5zm13.5 2a6 6 0 01-2-.3l-1.5-.9c-.4-.3-.7-.8-1-1.3-.1-.5-.3-1.1-.3-1.8v-2.8c0-.7.2-1.2.4-1.8.2-.5.5-1 1-1.3.4-.4.9-.7 1.4-.9a5.9 5.9 0 013.8 0 4.4 4.4 0 013 3.6h-2.5c0-.5-.3-1-.8-1.3-.4-.3-.9-.4-1.5-.4-.7 0-1.3.2-1.7.5a2 2 0 00-.6 1.6v2.8c0 .7.2 1.2.6 1.6.4.3 1 .5 1.7.5.6 0 1.1-.1 1.5-.4.5-.4.7-.8.8-1.3h2.5c0 .6-.3 1.2-.5 1.6a4.4 4.4 0 01-2.5 2l-1.8.3zm6.4-7.7v-2.3h3v-1.5a3 3 0 011-2.3c.6-.5 1.5-.8 2.5-.8h3.3v2.2h-3.2a1 1 0 00-.8.3 1 1 0 00-.2.7v1.4h4.2v2.3h-4.2v7.5h-2.6v-7.5h-3zm11.5.6c0-.7.1-1.3.3-1.8.2-.5.4-1 .8-1.3.3-.4.7-.7 1.2-.9a4 4 0 011.5-.3c.9 0 1.5.2 2 .6.6.4 1 1 1 1.6h.2v-2h2.4v10.4c0 .6 0 1.1-.3 1.6-.2.5-.5 1-1 1.3-.3.3-.8.6-1.4.8-.5.2-1.2.3-1.9.3h-2.9v-2h3c.6 0 1-.3 1.5-.6.3-.4.5-.8.5-1.4v-.3l.1-2h-.1c-.2.6-.5 1.1-1 1.5-.6.4-1.2.6-2 .6-.6 0-1.2 0-1.6-.3a3.5 3.5 0 01-2-2.2c-.2-.5-.3-1.1-.3-1.7v-2zm2.6 1.8c0 .7.2 1.2.5 1.6.4.4 1 .5 1.6.5.7 0 1.2-.1 1.6-.5.4-.4.6-1 .6-1.6v-1.8c0-.6-.2-1.2-.6-1.6-.4-.3-.9-.5-1.6-.5-.6 0-1.2.2-1.6.5-.3.4-.5 1-.5 1.6v1.8z"/>
      <path fill="#3D4251" d="M85.4 430.6h3.3v2.7h.3c.2-1 .6-1.7 1.3-2.2.7-.5 1.6-.8 2.8-.8 1.5 0 2.8.5 3.7 1.6a6 6 0 011.3 4V446h-3.5v-9.6c0-1-.2-1.7-.7-2.3-.5-.5-1.2-.8-2.1-.8-.9 0-1.6.3-2.1.9-.5.5-.8 1.3-.8 2.2v9.6h-3.5v-15.4zm15.7-1.7v-3.2h8.4V441c0 .6.1 1 .5 1.4.3.3.7.4 1.3.4h4.6v3.2H111a5 5 0 01-3.7-1.3 4.9 4.9 0 01-1.3-3.7V429h-5zm18 1.7h3.3v2.7h.3c.2-1 .6-1.7 1.3-2.2a5.5 5.5 0 015-.4c.6.3 1.2.7 1.7 1.2a7.7 7.7 0 011.4 4.4v3.9a8 8 0 01-.4 2.5c-.2.8-.6 1.4-1 2-.5.5-1 .9-1.7 1.2-.7.2-1.4.4-2.2.4-1.1 0-2-.3-2.8-.8a3.4 3.4 0 01-1.3-2.2h-.3v.4l.1.6a28.8 28.8 0 000 1.7v4.8H119v-20.2zm3.5 5.8v3.8c0 .9.2 1.6.8 2.2.5.5 1.2.8 2.1.8a3 3 0 002.3-.8c.5-.6.8-1.4.8-2.3v-3.7a3 3 0 00-.8-2.2 3 3 0 00-2.3-.9c-.9 0-1.6.3-2.1.9a3 3 0 00-.8 2.2zm42.6-4.7v3.2h-12.4v-3.2h12.4zm-12.4 6.9h12.4v3.2h-12.4v-3.2zm37.7-12.8v17h8.8v3.2H187v-20.2h3.5zm12 15.9c0-.8 0-1.5.3-2 .3-.7.7-1.2 1.3-1.6.5-.5 1.1-.8 1.8-1 .8-.3 1.6-.4 2.5-.4h3.9v-1.3a2 2 0 00-.8-1.7c-.5-.4-1.3-.6-2.2-.6a4 4 0 00-2 .4 2 2 0 00-1 1.2H203a4.6 4.6 0 012-3.2c.6-.4 1.3-.7 2-.9a9.6 9.6 0 015 0 6 6 0 012.1 1 4.6 4.6 0 011.8 3.8V446h-3.3v-3h-.3c-.1 1-.7 1.8-1.5 2.4-1 .6-2 .9-3.3.9-1.5 0-2.7-.4-3.6-1.3-1-.8-1.4-2-1.4-3.3zm3.4-.4c0 .7.3 1.2.7 1.6a3 3 0 002 .6c1 0 2-.2 2.6-.7.7-.5 1-1.2 1-2V439h-3.8c-.7 0-1.4.2-1.8.6a2 2 0 00-.7 1.7zm14-10.7h3.2v2.7h.3c.2-1 .6-1.7 1.3-2.2.7-.5 1.6-.8 2.8-.8 1.5 0 2.8.5 3.7 1.6a6 6 0 011.3 4V446H229v-9.6c0-1-.2-1.7-.7-2.3-.5-.5-1.2-.8-2.1-.8-.9 0-1.6.3-2.1.9-.5.5-.8 1.3-.8 2.2v9.6h-3.5v-15.4zm16.3 5.7c0-1 .1-1.7.4-2.5l1-1.9a5.5 5.5 0 013.9-1.6c1.2 0 2.2.3 2.9.8.7.6 1.2 1.3 1.4 2.3h.2v-2.8h3.4v14.5c0 .9-.2 1.6-.5 2.3-.3.7-.7 1.3-1.3 1.8a6 6 0 01-2 1.2c-.8.2-1.7.4-2.7.4h-4v-3h4a3 3 0 002.2-.7c.5-.5.8-1.2.8-2v-3.3h-.1c-.2 1-.7 1.7-1.4 2.3-.8.5-1.7.8-2.9.8a5 5 0 01-5-3.5c-.2-.7-.3-1.6-.3-2.5v-2.6zm3.6 2.6c0 .9.2 1.6.8 2.2a3 3 0 002.2.8 3 3 0 002.2-.8 3 3 0 00.9-2.2v-2.5a3 3 0 00-.9-2.2 3 3 0 00-2.2-.9 3 3 0 00-2.2.9 3 3 0 00-.8 2.2v2.5zm17.2-8.3v9.6c0 2 1 3 2.8 3 1.9 0 2.8-1 2.8-3v-9.6h3.5v9.6c0 2-.6 3.4-1.7 4.5a6.4 6.4 0 01-4.6 1.6c-2 0-3.5-.6-4.6-1.6a5.9 5.9 0 01-1.7-4.5v-9.6h3.5zm12.6 11c0-.7.2-1.4.4-2a5.6 5.6 0 013-2.5c.9-.3 1.7-.4 2.6-.4h3.9v-1.3a2 2 0 00-.8-1.7c-.5-.4-1.3-.6-2.2-.6a4 4 0 00-2 .4 2 2 0 00-1 1.2h-3.4a4.6 4.6 0 012-3.2c.6-.4 1.3-.7 2-.9a9.6 9.6 0 015 0 6 6 0 012.1 1 4.6 4.6 0 011.8 3.8V446h-3.3v-3h-.3c-.1 1-.7 1.8-1.5 2.4-1 .6-2 .9-3.3.9-1.5 0-2.7-.4-3.6-1.3-1-.8-1.4-2-1.4-3.3zm3.5-.3c0 .7.3 1.2.7 1.6a3 3 0 002 .6c1 0 2-.2 2.6-.7.7-.5 1-1.2 1-2V439h-3.8c-.7 0-1.4.2-1.8.6a2 2 0 00-.7 1.7zm13.5-5c0-1 .1-1.7.4-2.5l1-1.9a5.5 5.5 0 013.9-1.6c1.2 0 2.2.3 2.9.8.7.6 1.2 1.3 1.4 2.3h.2v-2.8h3.4v14.5c0 .9-.2 1.6-.5 2.3-.3.7-.7 1.3-1.3 1.8a6 6 0 01-2 1.2c-.8.2-1.7.4-2.7.4h-4v-3h4a3 3 0 002.2-.7c.5-.5.8-1.2.8-2v-3.3h-.1c-.2 1-.7 1.7-1.4 2.3-.8.5-1.7.8-2.9.8a5 5 0 01-5-3.5c-.2-.7-.3-1.6-.3-2.5v-2.6zm3.6 2.6c0 .9.2 1.6.8 2.2a3 3 0 002.2.8 3 3 0 002.2-.8 3 3 0 00.9-2.2v-2.5a3 3 0 00-.9-2.2 3 3 0 00-2.2-.9 3 3 0 00-2.2.9 3 3 0 00-.8 2.2v2.5zm13.3-2.6c0-.9.2-1.7.5-2.5.3-.7.7-1.3 1.3-1.9a6 6 0 012.1-1.2c.8-.2 1.8-.4 2.8-.4 1 0 2 .2 2.7.5.8.2 1.5.6 2.1 1.2.6.5 1 1.1 1.4 1.9.3.7.4 1.6.4 2.5v2.8H307v1c0 1 .3 1.8.8 2.4.6.6 1.4.9 2.4.9.7 0 1.4-.1 2-.4.5-.2.9-.6 1-1h3.5c-.1.6-.4 1.2-.8 1.7s-.9 1-1.5 1.3a7 7 0 01-1.9.9 8.7 8.7 0 01-5-.1c-.9-.3-1.6-.7-2.2-1.3-.6-.5-1-1.1-1.3-1.9-.3-.7-.5-1.6-.5-2.5v-3.9zm3.5.5h6.4v-.4c0-1-.3-1.9-.8-2.4-.6-.6-1.4-.9-2.4-.9s-1.8.3-2.4.9c-.5.5-.8 1.3-.8 2.3v.5zm17.3 6.7c0-.8.2-1.5.7-2 .5-.5 1.2-.7 2-.7s1.5.2 2 .7c.5.5.7 1.2.7 2 0 .9-.2 1.5-.7 2-.5.5-1.2.8-2 .8s-1.5-.3-2-.8-.7-1.1-.7-2z"/>
      <path fill="#F03969" d="M337 435.5v-3.2h4.1v-2a4 4 0 011.4-3.3c.9-.8 2-1.2 3.5-1.2h4.5v3.1h-4.4c-.4 0-.8.1-1 .4-.3.3-.4.6-.4 1v2h5.8v3.2h-5.8V446H341v-10.5H337zm21.2-4.9v2.7h.2c.2-1 .7-1.7 1.4-2.2a5 5 0 012.9-.8 5 5 0 013.9 1.6 6 6 0 011.4 4.2v1.1h-3.7v-.8c0-1-.3-1.7-.8-2.3a3 3 0 00-2.3-.8c-.9 0-1.6.3-2 .8-.6.6-.8 1.4-.8 2.3v9.6h-3.5v-15.4h3.3zm19.2 15.7c-1 0-2-.2-2.8-.5a5.5 5.5 0 01-3.5-3.2c-.2-.7-.4-1.5-.4-2.4v-3.8c0-1 .2-1.7.5-2.5a5.5 5.5 0 013.4-3.1 8.3 8.3 0 015.5 0 5.5 5.5 0 013.5 3.2c.3.7.5 1.5.5 2.4v3.8c0 .9-.2 1.7-.5 2.5a5.5 5.5 0 01-3.4 3.1c-.8.3-1.8.5-2.8.5zm-3.2-6.1c0 1 .3 1.6.9 2.2.5.5 1.3.8 2.3.8 1 0 1.8-.3 2.3-.8a3 3 0 00.9-2.2v-3.8a3 3 0 00-.9-2.2c-.5-.6-1.3-.8-2.3-.8-1 0-1.8.2-2.3.8a3 3 0 00-.9 2.2v3.8zm13 5.8v-15.4h2.8v2.2h.3c0-.7.3-1.4.7-1.8.5-.5 1-.7 1.8-.7.7 0 1.3.2 1.7.7.4.4.7 1 .8 1.8h.2c.1-.7.4-1.4.8-1.8.4-.5 1-.7 1.8-.7 1 0 1.7.4 2.3 1 .6.8.9 1.7.9 3V446H398v-11.5c0-1.1-.4-1.7-1.3-1.7-.4 0-.8.1-1 .5-.2.3-.3.7-.3 1.3V446H393v-11.5c0-.5-.2-1-.4-1.3-.3-.3-.6-.4-1-.4-.5 0-.8.1-1 .5-.2.3-.3.7-.3 1.3V446h-3.1zm17 .7h13.5v3.2h-13.4v-3.2zm23.8-.4c-1 0-2-.2-2.8-.4a6 6 0 01-2-1.2c-.7-.6-1.1-1.2-1.4-2-.3-.7-.5-1.5-.5-2.4v-4c0-.9.2-1.7.5-2.4.3-.8.7-1.4 1.3-2a8.2 8.2 0 017.3-1.3 6.2 6.2 0 014.3 5.2h-3.5c-.1-.8-.5-1.3-1-1.8-.7-.4-1.4-.6-2.2-.6-1 0-1.8.2-2.4.8-.5.5-.8 1.2-.8 2.1v4c0 .9.3 1.6.8 2.1.6.6 1.4.8 2.4.8.8 0 1.5-.2 2.1-.6.6-.5 1-1 1-1.8h3.6c-.1.9-.4 1.6-.8 2.3a6.1 6.1 0 01-3.5 2.8c-.7.3-1.5.4-2.4.4zm16.6 0c-1 0-2-.2-2.8-.5a5.5 5.5 0 01-3.5-3.2c-.2-.7-.4-1.5-.4-2.4v-3.8c0-1 .2-1.7.5-2.5a5.5 5.5 0 013.4-3.1 8.3 8.3 0 015.5 0 5.5 5.5 0 013.5 3.2c.3.7.5 1.5.5 2.4v3.8c0 .9-.2 1.7-.5 2.5a5.5 5.5 0 01-3.4 3.1c-.8.3-1.8.5-2.8.5zm-3.2-6.1c0 1 .3 1.6.9 2.2.5.5 1.3.8 2.3.8 1 0 1.8-.3 2.3-.8a3 3 0 00.9-2.2v-3.8a3 3 0 00-.9-2.2c-.5-.6-1.3-.8-2.3-.8-1 0-1.8.2-2.3.8a3 3 0 00-.9 2.2v3.8zm13.6-9.6h3.3v2.7h.3c.2-1 .6-1.7 1.3-2.2.7-.5 1.6-.8 2.8-.8 1.5 0 2.8.5 3.7 1.6a6 6 0 011.3 4V446h-3.5v-9.6c0-1-.2-1.7-.7-2.3-.5-.5-1.2-.8-2.1-.8-.9 0-1.6.3-2.1.9-.5.5-.8 1.3-.8 2.2v9.6H455v-15.4zm16.3 4.9v-3.2h4.2v-2a4 4 0 011.4-3.3c.9-.8 2-1.2 3.5-1.2h4.5v3.1h-4.4c-.4 0-.8.1-1 .4-.3.3-.4.6-.4 1v2h5.8v3.2h-5.8V446h-3.6v-10.5h-4.2zm17.6 7.3h5.5v-9h-4.8v-3.2h8.2v12.2h4.5v3.2h-13.4v-3.2zm4.5-16.4c0-.5.2-1 .6-1.3a2 2 0 011.4-.5h.7c.6 0 1.1.2 1.5.5.4.3.5.8.5 1.3 0 .6-.1 1-.5 1.4a2 2 0 01-1.5.5h-.7a2 2 0 01-1.4-.5c-.4-.4-.6-.8-.6-1.4zm11.6 9.9c0-1 .1-1.7.4-2.5l1-1.9a5.5 5.5 0 013.9-1.6c1.2 0 2.2.3 2.9.8.7.6 1.2 1.3 1.4 2.3h.2v-2.8h3.4v14.5c0 .9-.2 1.6-.5 2.3-.3.7-.7 1.3-1.3 1.8a6 6 0 01-2 1.2c-.8.2-1.7.4-2.7.4h-4v-3h4a3 3 0 002.2-.7c.5-.5.8-1.2.8-2v-3.3h-.1c-.2 1-.7 1.7-1.4 2.3-.8.5-1.7.8-2.9.8a5 5 0 01-5-3.5c-.2-.7-.3-1.6-.3-2.5v-2.6zm3.6 2.6c0 .9.2 1.6.8 2.2a3 3 0 002.2.8 3 3 0 002.2-.8 3 3 0 00.9-2.2v-2.5a3 3 0 00-.9-2.2 3 3 0 00-2.2-.9 3 3 0 00-2.2.9 3 3 0 00-.8 2.2v2.5z"/>
      <path fill="#3D4251" d="M524.9 433.3c0-1.4.2-2.6.6-3.8a10.3 10.3 0 014.6-5.6c1-.7 2.3-1.2 3.7-1.6v3.5c-.9.2-1.6.5-2.3 1-.6.4-1.2 1-1.7 1.6a9.2 9.2 0 00-1.4 4.9v5.3a8 8 0 001.4 4.8c1 1.3 2.3 2.2 4 2.6v3.5c-2.9-.7-5-2-6.6-4a10.6 10.6 0 01-2.3-6.9v-5.3zm20.7 13c-1 0-2-.2-2.8-.4a6 6 0 01-2-1.2c-.7-.6-1.1-1.2-1.4-2-.3-.7-.5-1.5-.5-2.4v-4c0-.9.2-1.7.5-2.4.3-.8.7-1.4 1.3-2a8.2 8.2 0 017.3-1.3 6.2 6.2 0 014.3 5.2h-3.5c-.1-.8-.5-1.3-1-1.8-.7-.4-1.4-.6-2.2-.6-1 0-1.8.2-2.4.8-.5.5-.8 1.2-.8 2.1v4c0 .9.3 1.6.8 2.1.6.6 1.4.8 2.4.8.8 0 1.5-.2 2.1-.6.6-.5 1-1 1-1.8h3.6c-.1.9-.4 1.6-.8 2.3a6.1 6.1 0 01-3.5 2.8c-.7.3-1.5.4-2.4.4zm16.6 0c-1 0-2-.2-2.8-.5a5.5 5.5 0 01-3.5-3.2c-.2-.7-.4-1.5-.4-2.4v-3.8c0-1 .2-1.7.5-2.5a5.5 5.5 0 013.4-3.1 8.3 8.3 0 015.5 0 5.5 5.5 0 013.5 3.2c.3.7.5 1.5.5 2.4v3.8c0 .9-.2 1.7-.5 2.5a5.5 5.5 0 01-3.4 3.1c-.8.3-1.8.5-2.8.5zm-3.2-6.1c0 1 .3 1.6.9 2.2.5.5 1.3.8 2.3.8 1 0 1.8-.3 2.3-.8a3 3 0 00.9-2.2v-3.8a3 3 0 00-.9-2.2c-.5-.6-1.3-.8-2.3-.8-1 0-1.8.2-2.3.8a3 3 0 00-.9 2.2v3.8zm13.6-9.6h3.3v2.7h.3c.2-1 .6-1.7 1.3-2.2.7-.5 1.6-.8 2.8-.8 1.5 0 2.8.5 3.7 1.6a6 6 0 011.3 4V446h-3.5v-9.6c0-1-.2-1.7-.7-2.3-.5-.5-1.2-.8-2.1-.8-.9 0-1.6.3-2.1.9-.5.5-.8 1.3-.8 2.2v9.6h-3.5v-15.4zm16.3 4.9v-3.2h4.2v-2a4 4 0 011.4-3.3c.9-.8 2-1.2 3.5-1.2h4.5v3.1h-4.4c-.4 0-.8.1-1 .4-.3.3-.4.6-.4 1v2h5.8v3.2h-5.8V446H593v-10.5H589zm17.6 7.3h5.5v-9h-4.8v-3.2h8.2v12.2h4.5v3.2h-13.4v-3.2zm4.5-16.4c0-.5.2-1 .6-1.3a2 2 0 011.4-.5h.7c.6 0 1.1.2 1.5.5.4.3.5.8.5 1.3 0 .6-.1 1-.5 1.4a2 2 0 01-1.5.5h-.7a2 2 0 01-1.4-.5c-.4-.4-.6-.8-.6-1.4zm11.6 9.9c0-1 .1-1.7.4-2.5l1-1.9a5.5 5.5 0 013.9-1.6c1.2 0 2.2.3 2.9.8.7.6 1.2 1.3 1.4 2.3h.2v-2.8h3.4v14.5c0 .9-.2 1.6-.5 2.3-.3.7-.7 1.3-1.3 1.8a6 6 0 01-2 1.2c-.8.2-1.7.4-2.7.4h-4v-3h4a3 3 0 002.2-.7c.5-.5.8-1.2.8-2v-3.3h-.1c-.2 1-.7 1.7-1.4 2.3-.8.5-1.7.8-2.9.8a5 5 0 01-5-3.5c-.2-.7-.3-1.6-.3-2.5v-2.6zm3.6 2.6c0 .9.2 1.6.8 2.2a3 3 0 002.2.8 3 3 0 002.2-.8 3 3 0 00.9-2.2v-2.5a3 3 0 00-.9-2.2 3 3 0 00-2.2-.9 3 3 0 00-2.2.9 3 3 0 00-.8 2.2v2.5zm14.8-16.6c1.4.4 2.6 1 3.7 1.6a11 11 0 014.6 5.6c.4 1.2.6 2.4.6 3.8v5.3c0 2.8-.7 5-2.3 7a12.2 12.2 0 01-6.6 3.9V446c.9-.2 1.6-.6 2.3-1a6.6 6.6 0 002.7-3.8c.3-.8.4-1.7.4-2.6v-5.3c0-1-.1-1.9-.4-2.7a6.5 6.5 0 00-5-4.8v-3.5zM1134.4 433.6h3.3v2.7h.3c.2-1 .6-1.7 1.3-2.2.7-.5 1.6-.8 2.8-.8 1.5 0 2.8.5 3.7 1.6a6 6 0 011.3 4V449h-3.5v-9.6c0-1-.2-1.7-.7-2.3-.5-.5-1.2-.8-2.1-.8-.9 0-1.6.3-2.1.9-.5.5-.8 1.3-.8 2.2v9.6h-3.5v-15.4zm15.7-1.7v-3.2h8.4V444c0 .6.1 1 .5 1.4.3.3.7.4 1.3.4h4.6v3.2h-4.9a5 5 0 01-3.7-1.3 4.9 4.9 0 01-1.3-3.7V432h-5zm18 1.7h3.3v2.7h.3c.2-1 .6-1.7 1.3-2.2a5.5 5.5 0 015-.4c.6.3 1.2.7 1.6 1.2.5.6.9 1.2 1.1 2 .3.7.4 1.5.4 2.4v3.9a8 8 0 01-.4 2.5c-.2.8-.6 1.4-1 2-.5.5-1 .9-1.7 1.2-.7.2-1.4.4-2.2.4-1.1 0-2-.3-2.8-.8a3.4 3.4 0 01-1.3-2.2h-.3v.4l.1.6a28.8 28.8 0 000 1.7v4.8h-3.5v-20.2zm3.5 5.8v3.8c0 .9.2 1.6.8 2.2.5.5 1.2.8 2.1.8a3 3 0 002.3-.8c.5-.6.8-1.4.8-2.3v-3.7a3 3 0 00-.8-2.2 3 3 0 00-2.3-.9c-.9 0-1.6.3-2.1.9a3 3 0 00-.8 2.2zm42.6-4.7v3.2h-12.4v-3.2h12.4zm-12.4 6.9h12.4v3.2h-12.4v-3.2zm37.7-12.8v17h8.8v3.2H1236v-20.2h3.5zm12 15.9c0-.8 0-1.5.3-2 .3-.7.7-1.2 1.3-1.6.5-.5 1.1-.8 1.8-1 .8-.3 1.6-.4 2.5-.4h3.9v-1.3a2 2 0 00-.8-1.7c-.5-.4-1.3-.6-2.2-.6a4 4 0 00-2 .4 2 2 0 00-1 1.2h-3.4a4.6 4.6 0 012-3.2c.6-.4 1.3-.7 2-.9a9.6 9.6 0 015 0 6 6 0 012.1 1 4.6 4.6 0 011.8 3.8V449h-3.3v-3h-.3c-.1 1-.7 1.8-1.5 2.4-1 .6-2 .9-3.3.9-1.5 0-2.7-.4-3.6-1.3-1-.8-1.4-2-1.4-3.3zm3.4-.4c0 .7.3 1.2.7 1.6a3 3 0 002 .6c1 0 2-.2 2.6-.7.7-.5 1-1.2 1-2V442h-3.8c-.7 0-1.4.2-1.8.6a2 2 0 00-.7 1.7zm14-10.7h3.2v2.7h.3c.2-1 .6-1.7 1.3-2.2.7-.5 1.6-.8 2.8-.8 1.5 0 2.8.5 3.7 1.6a6 6 0 011.3 4V449h-3.5v-9.6c0-1-.2-1.7-.7-2.3-.5-.5-1.2-.8-2.1-.8-.9 0-1.6.3-2.1.9-.5.5-.8 1.3-.8 2.2v9.6h-3.5v-15.4zm16.3 5.7c0-1 .1-1.7.4-2.5l1-1.9a5.5 5.5 0 013.9-1.6c1.2 0 2.2.3 2.9.8.7.6 1.2 1.3 1.4 2.3h.2v-2.8h3.4v14.5c0 .9-.2 1.6-.5 2.3-.3.7-.7 1.3-1.3 1.8a6 6 0 01-2 1.2c-.8.2-1.7.4-2.7.4h-4v-3h4a3 3 0 002.2-.7c.5-.5.8-1.2.8-2v-3.3h-.1c-.2 1-.7 1.7-1.4 2.3-.8.5-1.7.8-2.9.8a5 5 0 01-5-3.5c-.2-.7-.3-1.6-.3-2.5v-2.6zm3.6 2.6c0 .9.2 1.6.8 2.2a3 3 0 002.2.8 3 3 0 002.2-.8 3 3 0 00.9-2.2v-2.5a3 3 0 00-.9-2.2 3 3 0 00-2.2-.9 3 3 0 00-2.2.9 3 3 0 00-.8 2.2v2.5zm17.2-8.3v9.6c0 2 1 3 2.8 3 1.9 0 2.8-1 2.8-3v-9.6h3.5v9.6c0 2-.6 3.4-1.7 4.5a6.4 6.4 0 01-4.6 1.6c-2 0-3.5-.6-4.6-1.6a5.9 5.9 0 01-1.7-4.5v-9.6h3.5zm12.6 11c0-.7.2-1.4.4-2a5.6 5.6 0 013-2.5c.9-.3 1.7-.4 2.6-.4h3.9v-1.3a2 2 0 00-.8-1.7c-.5-.4-1.3-.6-2.2-.6a4 4 0 00-2 .4 2 2 0 00-1 1.2h-3.4a4.6 4.6 0 012-3.2c.6-.4 1.3-.7 2-.9a9.6 9.6 0 015 0 6 6 0 012.1 1 4.6 4.6 0 011.8 3.8V449h-3.3v-3h-.3c-.1 1-.7 1.8-1.5 2.4-1 .6-2 .9-3.3.9-1.5 0-2.7-.4-3.6-1.3-1-.8-1.4-2-1.4-3.3zm3.5-.3c0 .7.3 1.2.7 1.6a3 3 0 002 .6c1 0 2-.2 2.6-.7.7-.5 1-1.2 1-2V442h-3.8c-.7 0-1.4.2-1.8.6a2 2 0 00-.7 1.7zm13.5-5c0-1 .1-1.7.4-2.5l1-1.9a5.5 5.5 0 013.9-1.6c1.2 0 2.2.3 2.9.8.7.6 1.2 1.3 1.4 2.3h.2v-2.8h3.4v14.5c0 .9-.2 1.6-.5 2.3-.3.7-.7 1.3-1.3 1.8a6 6 0 01-2 1.2c-.8.2-1.7.4-2.7.4h-4v-3h4a3 3 0 002.2-.7c.5-.5.8-1.2.8-2v-3.3h-.1c-.2 1-.7 1.7-1.4 2.3-.8.5-1.7.8-2.9.8a5 5 0 01-5-3.5c-.2-.7-.3-1.6-.3-2.5v-2.6zm3.6 2.6c0 .9.2 1.6.8 2.2a3 3 0 002.2.8 3 3 0 002.2-.8 3 3 0 00.9-2.2v-2.5a3 3 0 00-.9-2.2 3 3 0 00-2.2-.9 3 3 0 00-2.2.9 3 3 0 00-.8 2.2v2.5zm13.3-2.6c0-.9.2-1.7.5-2.5.3-.7.7-1.3 1.3-1.9a6 6 0 012.1-1.2c.8-.2 1.8-.4 2.8-.4 1 0 2 .2 2.7.5.8.2 1.5.6 2.1 1.2.6.5 1 1.1 1.4 1.9.3.7.4 1.6.4 2.5v2.8h-9.8v1c0 1 .3 1.8.8 2.4.6.6 1.4.9 2.4.9.7 0 1.4-.1 2-.4.5-.2.9-.6 1-1h3.5c-.1.6-.4 1.2-.8 1.7s-.9 1-1.5 1.3a7 7 0 01-1.9.9 8.7 8.7 0 01-5-.1c-.9-.3-1.6-.7-2.2-1.3-.6-.5-1-1.1-1.3-1.9-.3-.7-.5-1.6-.5-2.5v-3.9zm3.5.5h6.4v-.4c0-1-.3-1.9-.8-2.4-.6-.6-1.4-.9-2.4-.9s-1.8.3-2.4.9c-.5.5-.8 1.3-.8 2.3v.5zm17.3 6.7c0-.8.2-1.5.7-2 .5-.5 1.2-.7 2-.7s1.5.2 2 .7c.5.5.7 1.2.7 2 0 .9-.2 1.5-.7 2-.5.5-1.2.8-2 .8s-1.5-.3-2-.8-.7-1.1-.7-2z"/>
      <path fill="#3AC" d="M1386 438.5v-3.2h4.1v-2a4 4 0 011.4-3.3c.9-.8 2-1.2 3.5-1.2h4.5v3.1h-4.4c-.4 0-.8.1-1 .4-.3.3-.4.6-.4 1v2h5.8v3.2h-5.8V449h-3.6v-10.5h-4.2zm21.2-4.9v2.7h.2c.2-1 .7-1.7 1.4-2.2a5 5 0 012.9-.8 5 5 0 013.9 1.6 6 6 0 011.4 4.2v1.1h-3.7v-.8c0-1-.3-1.7-.8-2.3a3 3 0 00-2.3-.8c-.9 0-1.6.3-2 .8-.6.6-.8 1.4-.8 2.3v9.6h-3.5v-15.4h3.3zm19.2 15.7c-1 0-2-.2-2.8-.5a5.5 5.5 0 01-3.5-3.2c-.2-.7-.4-1.5-.4-2.4v-3.8c0-1 .2-1.7.5-2.5a5.5 5.5 0 013.4-3.1 8.3 8.3 0 015.5 0 5.5 5.5 0 013.5 3.2c.3.7.5 1.5.5 2.4v3.8c0 .9-.2 1.7-.5 2.5a5.5 5.5 0 01-3.4 3.1c-.8.3-1.8.5-2.8.5zm-3.2-6.1c0 1 .3 1.6.9 2.2.5.5 1.3.8 2.3.8 1 0 1.8-.3 2.3-.8a3 3 0 00.9-2.2v-3.8a3 3 0 00-.9-2.2c-.5-.6-1.3-.8-2.3-.8-1 0-1.8.2-2.3.8a3 3 0 00-.9 2.2v3.8zm13 5.8v-15.4h2.8v2.2h.3c0-.7.3-1.4.7-1.8.5-.5 1-.7 1.8-.7.7 0 1.3.2 1.7.7.4.4.7 1 .8 1.8h.2c.1-.7.4-1.4.8-1.8.4-.5 1-.7 1.8-.7 1 0 1.7.4 2.3 1 .6.8.9 1.7.9 3V449h-3.2v-11.5c0-1.1-.4-1.7-1.3-1.7-.4 0-.8.1-1 .5-.2.3-.3.7-.3 1.3V449h-2.5v-11.5c0-.5-.2-1-.4-1.3-.3-.3-.6-.4-1-.4-.5 0-.8.1-1 .5-.2.3-.3.7-.3 1.3V449h-3.1zm17 .7h13.5v3.2h-13.4v-3.2zm23.8-.4c-1 0-2-.2-2.8-.4a6 6 0 01-2-1.2c-.7-.6-1.1-1.2-1.4-2-.3-.7-.5-1.5-.5-2.4v-4c0-.9.2-1.7.5-2.4.3-.8.7-1.4 1.3-2a8.2 8.2 0 017.3-1.3 6.2 6.2 0 014.3 5.2h-3.5c-.1-.8-.5-1.3-1-1.8-.7-.4-1.4-.6-2.2-.6-1 0-1.8.2-2.4.8-.5.5-.8 1.2-.8 2.1v4c0 .9.3 1.6.8 2.1.6.6 1.4.8 2.4.8.8 0 1.5-.2 2.1-.6.6-.5 1-1 1-1.8h3.6c-.1.9-.4 1.6-.8 2.3a6.1 6.1 0 01-3.5 2.8c-.7.3-1.5.4-2.4.4zm16.6 0c-1 0-2-.2-2.8-.5a5.5 5.5 0 01-3.5-3.2c-.2-.7-.4-1.5-.4-2.4v-3.8c0-1 .2-1.7.5-2.5a5.5 5.5 0 013.4-3.1 8.3 8.3 0 015.5 0 5.5 5.5 0 013.5 3.2c.3.7.5 1.5.5 2.4v3.8c0 .9-.2 1.7-.5 2.5a5.5 5.5 0 01-3.4 3.1c-.8.3-1.8.5-2.8.5zm-3.2-6.1c0 1 .3 1.6.9 2.2.5.5 1.3.8 2.3.8 1 0 1.8-.3 2.3-.8a3 3 0 00.9-2.2v-3.8a3 3 0 00-.9-2.2c-.5-.6-1.3-.8-2.3-.8-1 0-1.8.2-2.3.8a3 3 0 00-.9 2.2v3.8zm13.6-9.6h3.3v2.7h.3c.2-1 .6-1.7 1.3-2.2.7-.5 1.6-.8 2.8-.8 1.5 0 2.8.5 3.7 1.6a6 6 0 011.3 4V449h-3.5v-9.6c0-1-.2-1.7-.7-2.3-.5-.5-1.2-.8-2.1-.8-.9 0-1.6.3-2.1.9-.5.5-.8 1.3-.8 2.2v9.6h-3.5v-15.4zm16.3 4.9v-3.2h4.2v-2a4 4 0 011.4-3.3c.9-.8 2-1.2 3.5-1.2h4.5v3.1h-4.4c-.4 0-.8.1-1 .4-.3.3-.4.6-.4 1v2h5.8v3.2h-5.8V449h-3.6v-10.5h-4.2zm17.6 7.3h5.5v-9h-4.8v-3.2h8.2v12.2h4.5v3.2h-13.4v-3.2zm4.5-16.4c0-.5.2-1 .6-1.3a2 2 0 011.4-.5h.7c.6 0 1.1.2 1.5.5.4.3.5.8.5 1.3 0 .6-.1 1-.5 1.4a2 2 0 01-1.5.5h-.7a2 2 0 01-1.4-.5c-.4-.4-.6-.8-.6-1.4zm11.6 9.9c0-1 .1-1.7.4-2.5l1-1.9a5.5 5.5 0 013.9-1.6c1.2 0 2.2.3 2.9.8.7.6 1.2 1.3 1.4 2.3h.2v-2.8h3.4v14.5c0 .9-.2 1.6-.5 2.3-.3.7-.7 1.3-1.3 1.8a6 6 0 01-2 1.2c-.8.2-1.7.4-2.7.4h-4v-3h4a3 3 0 002.2-.7c.5-.5.8-1.2.8-2v-3.3h-.1c-.2 1-.7 1.7-1.4 2.3-.8.5-1.7.8-2.9.8a5 5 0 01-5-3.5c-.2-.7-.3-1.6-.3-2.5v-2.6zm3.6 2.6c0 .9.2 1.6.8 2.2a3 3 0 002.2.8 3 3 0 002.2-.8 3 3 0 00.9-2.2v-2.5a3 3 0 00-.9-2.2 3 3 0 00-2.2-.9 3 3 0 00-2.2.9 3 3 0 00-.8 2.2v2.5z"/>
      <path fill="#3D4251" d="M1573.9 436.3c0-1.4.2-2.6.6-3.8a10.3 10.3 0 014.6-5.6c1-.7 2.3-1.2 3.7-1.6v3.5c-.9.2-1.6.5-2.3 1-.6.4-1.2 1-1.7 1.6a9.2 9.2 0 00-1.4 4.9v5.3a8 8 0 001.4 4.8c1 1.3 2.3 2.2 4 2.6v3.5c-2.9-.7-5-2-6.6-4a10.6 10.6 0 01-2.3-6.9v-5.3zm20.7 13c-1 0-2-.2-2.8-.4a6 6 0 01-2-1.2c-.7-.6-1.1-1.2-1.4-2-.3-.7-.5-1.5-.5-2.4v-4c0-.9.2-1.7.5-2.4.3-.8.7-1.4 1.3-2a8.2 8.2 0 017.3-1.3 6.2 6.2 0 014.3 5.2h-3.5c-.1-.8-.5-1.3-1-1.8-.7-.4-1.4-.6-2.2-.6-1 0-1.8.2-2.4.8-.5.5-.8 1.2-.8 2.1v4c0 .9.3 1.6.8 2.1.6.6 1.4.8 2.4.8.8 0 1.5-.2 2.1-.6.6-.5 1-1 1-1.8h3.6c-.1.9-.4 1.6-.8 2.3a6.1 6.1 0 01-3.5 2.8c-.7.3-1.5.4-2.4.4zm16.6 0c-1 0-2-.2-2.8-.5a5.5 5.5 0 01-3.5-3.2c-.2-.7-.4-1.5-.4-2.4v-3.8c0-1 .2-1.7.5-2.5a5.5 5.5 0 013.4-3.1 8.3 8.3 0 015.5 0 5.5 5.5 0 013.5 3.2c.3.7.5 1.5.5 2.4v3.8c0 .9-.2 1.7-.5 2.5a5.5 5.5 0 01-3.4 3.1c-.8.3-1.8.5-2.8.5zm-3.2-6.1c0 1 .3 1.6.9 2.2.5.5 1.3.8 2.3.8 1 0 1.8-.3 2.3-.8a3 3 0 00.9-2.2v-3.8a3 3 0 00-.9-2.2c-.5-.6-1.3-.8-2.3-.8-1 0-1.8.2-2.3.8a3 3 0 00-.9 2.2v3.8zm13.6-9.6h3.3v2.7h.3c.2-1 .6-1.7 1.3-2.2.7-.5 1.6-.8 2.8-.8 1.5 0 2.8.5 3.7 1.6a6 6 0 011.3 4V449h-3.5v-9.6c0-1-.2-1.7-.7-2.3-.5-.5-1.2-.8-2.1-.8-.9 0-1.6.3-2.1.9-.5.5-.8 1.3-.8 2.2v9.6h-3.5v-15.4zm16.3 4.9v-3.2h4.2v-2a4 4 0 011.4-3.3c.9-.8 2-1.2 3.5-1.2h4.5v3.1h-4.4c-.4 0-.8.1-1 .4-.3.3-.4.6-.4 1v2h5.8v3.2h-5.8V449h-3.6v-10.5h-4.2zm17.6 7.3h5.5v-9h-4.8v-3.2h8.2v12.2h4.5v3.2h-13.4v-3.2zm4.5-16.4c0-.5.2-1 .6-1.3a2 2 0 011.4-.5h.7c.6 0 1.1.2 1.5.5.4.3.5.8.5 1.3 0 .6-.1 1-.5 1.4a2 2 0 01-1.5.5h-.7a2 2 0 01-1.4-.5c-.4-.4-.6-.8-.6-1.4zm11.6 9.9c0-1 .1-1.7.4-2.5l1-1.9a5.5 5.5 0 013.9-1.6c1.2 0 2.2.3 2.9.8.7.6 1.2 1.3 1.4 2.3h.2v-2.8h3.4v14.5c0 .9-.2 1.6-.5 2.3-.3.7-.7 1.3-1.3 1.8a6 6 0 01-2 1.2c-.8.2-1.7.4-2.7.4h-4v-3h4a3 3 0 002.2-.7c.5-.5.8-1.2.8-2v-3.3h-.1c-.2 1-.7 1.7-1.4 2.3-.8.5-1.7.8-2.9.8a5 5 0 01-5-3.5c-.2-.7-.3-1.6-.3-2.5v-2.6zm3.6 2.6c0 .9.2 1.6.8 2.2a3 3 0 002.2.8 3 3 0 002.2-.8 3 3 0 00.9-2.2v-2.5a3 3 0 00-.9-2.2 3 3 0 00-2.2-.9 3 3 0 00-2.2.9 3 3 0 00-.8 2.2v2.5zm14.8-16.6c1.4.4 2.6 1 3.7 1.6a11 11 0 014.6 5.6c.4 1.2.6 2.4.6 3.8v5.3c0 2.8-.7 5-2.3 7a12.2 12.2 0 01-6.6 3.9V449c.9-.2 1.6-.6 2.3-1a6.6 6.6 0 002.7-3.8c.3-.8.4-1.7.4-2.6v-5.3c0-1-.1-1.9-.4-2.7a6.5 6.5 0 00-5-4.8v-3.5z"/>
      <path fill="#FFF" d="M169.4 352.7c0 .6.3 1.2.7 1.7.4.5 1 .8 1.7 1V349l-.3-.1a8 8 0 01-3.9-2.2c-.8-1-1.3-2.2-1.3-3.7 0-1.6.5-2.8 1.5-3.8s2.3-1.5 4-1.7v-3.4h1.8v3.4c1.7.1 3 .7 4 1.6 1.1 1 1.7 2.3 1.8 3.8h-3.5c0-.6-.3-1.2-.7-1.6a3 3 0 00-1.6-.9v5.7l1 .2c1.7.5 3 1.3 3.8 2.3.8 1 1.3 2.3 1.3 3.8 0 .8-.2 1.5-.5 2.2a5 5 0 01-1.2 1.8 6 6 0 01-1.9 1.2c-.7.3-1.6.5-2.5.6v3.6h-1.8v-3.7a6.8 6.8 0 01-4.2-1.7c-1-1-1.6-2.3-1.7-3.8h3.5zm4.2-3.1v5.8c1-.1 1.6-.4 2-.8.5-.5.8-1.1.8-2a3 3 0 00-.7-1.9c-.5-.5-1.1-.9-2-1v-.1zm-4-6.7c0 1.3.8 2.2 2.2 2.8v-5.3c-.7.2-1.2.5-1.6.9-.4.4-.6 1-.6 1.6zm30 11.2h3.6c.1.4.4.8.9 1 .4.4 1 .5 1.7.5h1.1c1 0 1.6-.2 2-.5.5-.4.8-.8.8-1.4 0-1-.8-1.7-2.4-2l-2.2-.2c-1.7-.2-3-.7-3.9-1.4-.8-.8-1.2-1.8-1.2-3.2a4 4 0 011.5-3.4 7 7 0 014.4-1.2h1.1a7 7 0 014.1 1.1c1 .7 1.7 1.7 1.9 3h-3.6c-.1-.4-.4-.8-.8-1a3 3 0 00-1.6-.4H206c-1.7 0-2.5.6-2.5 1.7 0 1 .7 1.6 2 1.8l2.3.3c1.9.2 3.2.7 4.1 1.5.9.8 1.3 1.8 1.3 3.2 0 1.6-.5 2.7-1.6 3.5-1 .9-2.6 1.3-4.6 1.3h-1c-1.9 0-3.3-.4-4.4-1.1-1-.8-1.7-1.8-1.9-3.1zm17.2-11.5h3.4v2.7h.3c.2-1 .6-1.7 1.3-2.2a5.5 5.5 0 015-.4c.6.3 1.2.7 1.7 1.2a7.7 7.7 0 011.4 4.4v3.9a8 8 0 01-.4 2.5c-.2.8-.6 1.4-1 2-.5.5-1 .9-1.7 1.2-.7.2-1.4.4-2.2.4-1.1 0-2-.3-2.8-.8a3.4 3.4 0 01-1.3-2.2h-.3v.4l.1.6a28.8 28.8 0 000 1.7v4.8h-3.5v-20.2zm3.6 5.8v3.8c0 .9.2 1.6.8 2.2.5.5 1.2.8 2.1.8a3 3 0 002.3-.8c.5-.6.8-1.4.8-2.3v-3.7a3 3 0 00-.8-2.2 3 3 0 00-2.3-.9c-.9 0-1.6.3-2.1.9a3 3 0 00-.8 2.2zm12.6 5.3a4.3 4.3 0 011.6-3.6c.6-.5 1.2-.8 2-1 .7-.3 1.5-.4 2.4-.4h3.9v-1.3a2 2 0 00-.8-1.7c-.5-.4-1.3-.6-2.2-.6a4 4 0 00-2 .4 2 2 0 00-1 1.2h-3.4a4.6 4.6 0 012-3.2c.6-.4 1.3-.7 2-.9a9.6 9.6 0 015 0 6 6 0 012.1 1 4.6 4.6 0 011.8 3.8V358H243v-3h-.3c-.1 1-.7 1.8-1.5 2.4-1 .6-2 .9-3.3.9-1.5 0-2.7-.4-3.6-1.3-1-.8-1.4-2-1.4-3.3zm3.5-.4c0 .7.3 1.2.7 1.6a3 3 0 002 .6c1 0 2-.2 2.6-.7.7-.5 1-1.2 1-2V351H239c-.7 0-1.4.2-1.8.6a2 2 0 00-.7 1.7zm20.5 5c-1 0-2-.2-2.8-.4a6 6 0 01-2-1.2c-.7-.6-1.1-1.2-1.4-2-.3-.7-.5-1.5-.5-2.4v-4c0-.9.2-1.7.5-2.4.3-.8.7-1.4 1.3-2a8.2 8.2 0 017.3-1.3 6.2 6.2 0 014.3 5.2h-3.5c-.1-.8-.5-1.3-1-1.8-.7-.4-1.4-.6-2.2-.6-1 0-1.8.2-2.4.8-.5.5-.8 1.2-.8 2.1v4c0 .9.3 1.6.8 2.1.6.6 1.4.8 2.4.8.8 0 1.5-.2 2.1-.6.6-.5 1-1 1-1.8h3.6c-.1.9-.4 1.6-.8 2.3a6.1 6.1 0 01-3.5 2.8c-.7.3-1.5.4-2.4.4zm9.2-15.7h3.8l3 8.2a7.6 7.6 0 01.5 2l.2 1.1h.2a11.5 11.5 0 01.3-2c0-.4.2-.8.3-1.1l2.8-8.2h3.7l-7.3 20.2H270l2.1-5.7-6-14.5zm33.9 0h4.2v-4.8h3.5v4.8h5.9v3.2h-5.9v7.4c0 .5.2 1 .5 1.2.2.3.6.4 1.2.4h3.9v3.2h-4.2c-1.5 0-2.7-.4-3.6-1.3-.8-.8-1.3-2-1.3-3.5v-7.4h-4.2v-3.2zm21.5 0v2.7h.2c.2-1 .7-1.7 1.4-2.2a5 5 0 012.9-.8 5 5 0 013.9 1.6 6 6 0 011.4 4.2v1.1h-3.7v-.8c0-1-.3-1.7-.8-2.3a3 3 0 00-2.3-.8c-.9 0-1.6.3-2 .8-.6.6-.8 1.4-.8 2.3v9.6h-3.5v-15.4h3.3zm12.2 11c0-.7.2-1.4.4-2a5.6 5.6 0 013-2.5c.9-.3 1.7-.4 2.6-.4h3.9v-1.3a2 2 0 00-.8-1.7c-.5-.4-1.3-.6-2.2-.6a4 4 0 00-2 .4 2 2 0 00-1 1.2h-3.4a4.6 4.6 0 012-3.2c.6-.4 1.3-.7 2-.9a9.6 9.6 0 015 0 6 6 0 012.1 1 4.6 4.6 0 011.8 3.8V358h-3.3v-3h-.3c-.1 1-.7 1.8-1.5 2.4-1 .6-2 .9-3.3.9-1.5 0-2.7-.4-3.6-1.3-1-.8-1.4-2-1.4-3.3zm3.5-.3c0 .7.3 1.2.7 1.6a3 3 0 002 .6c1 0 2-.2 2.6-.7.7-.5 1-1.2 1-2V351h-3.8c-.7 0-1.4.2-1.8.6a2 2 0 00-.7 1.7zm14.2 1.5h5.5v-9h-4.8v-3.2h8.2v12.2h4.5v3.2h-13.4v-3.2zm4.5-16.4c0-.5.2-1 .6-1.3a2 2 0 011.4-.5h.7c.6 0 1.1.2 1.5.5.4.3.5.8.5 1.3 0 .6-.1 1-.5 1.4a2 2 0 01-1.5.5h-.7a2 2 0 01-1.4-.5c-.4-.4-.6-.8-.6-1.4zm12 4.2h3.3v2.7h.3c.2-1 .6-1.7 1.3-2.2.7-.5 1.6-.8 2.8-.8 1.5 0 2.8.5 3.7 1.6a6 6 0 011.3 4V358h-3.5v-9.6c0-1-.2-1.7-.7-2.3-.5-.5-1.2-.8-2.1-.8-.9 0-1.6.3-2.1.9-.5.5-.8 1.3-.8 2.2v9.6H368v-15.4zm40.2 15.7c-1 0-2-.2-2.8-.4a6 6 0 01-2-1.2c-.7-.6-1.1-1.2-1.4-2-.3-.7-.5-1.5-.5-2.4v-4c0-.9.2-1.7.5-2.4.3-.8.7-1.4 1.3-2a8.2 8.2 0 017.3-1.3 6.2 6.2 0 014.3 5.2h-3.5c-.1-.8-.5-1.3-1-1.8-.7-.4-1.4-.6-2.2-.6-1 0-1.8.2-2.4.8-.5.5-.8 1.2-.8 2.1v4c0 .9.3 1.6.8 2.1.6.6 1.4.8 2.4.8.8 0 1.5-.2 2.1-.6.6-.5 1-1 1-1.8h3.6c-.1.9-.4 1.6-.8 2.3a6.1 6.1 0 01-3.5 2.8c-.7.3-1.5.4-2.4.4zm16.6 0c-1 0-2-.2-2.8-.5a5.5 5.5 0 01-3.5-3.2c-.2-.7-.4-1.5-.4-2.4v-3.8c0-1 .2-1.7.5-2.5a5.5 5.5 0 013.4-3.1 8.3 8.3 0 015.5 0 5.5 5.5 0 013.5 3.1c.3.8.5 1.6.5 2.5v3.8c0 .9-.2 1.7-.5 2.5a5.5 5.5 0 01-3.4 3.1c-.8.3-1.8.5-2.8.5zm-3.2-6.1c0 1 .3 1.6.9 2.2.5.5 1.3.8 2.3.8 1 0 1.8-.3 2.3-.8a3 3 0 00.9-2.2v-3.8a3 3 0 00-.9-2.2c-.5-.6-1.3-.8-2.3-.8-1 0-1.8.2-2.3.8a3 3 0 00-.9 2.2v3.8zm13.6-9.6h3.3v2.7h.3c.2-1 .6-1.7 1.3-2.2.7-.5 1.6-.8 2.8-.8 1.5 0 2.8.5 3.7 1.6a6 6 0 011.3 4V358h-3.5v-9.6c0-1-.2-1.7-.7-2.3-.5-.5-1.2-.8-2.1-.8-.9 0-1.6.3-2.1.9-.5.5-.8 1.3-.8 2.2v9.6h-3.5v-15.4zm16.3 4.9v-3.2h4.2v-2a4 4 0 011.4-3.3c.9-.8 2-1.2 3.5-1.2h4.5v3.1h-4.4c-.4 0-.8.1-1 .4-.3.3-.4.6-.4 1v2h5.8v3.2h-5.8V358h-3.6v-10.5h-4.2zm17.6 7.3h5.5v-9h-4.8v-3.2h8.2v12.2h4.5v3.2H469v-3.2zm4.5-16.4c0-.5.2-1 .6-1.3a2 2 0 011.4-.5h.7c.6 0 1.1.2 1.5.5.4.3.5.8.5 1.3 0 .6-.1 1-.5 1.4a2 2 0 01-1.5.5h-.7a2 2 0 01-1.4-.5c-.4-.4-.6-.8-.6-1.4zm11.6 9.9c0-1 .1-1.7.4-2.5l1-1.9a5.5 5.5 0 013.9-1.6c1.2 0 2.2.3 2.9.8.7.6 1.2 1.3 1.4 2.3h.2v-2.8h3.4v14.5c0 .9-.2 1.6-.5 2.3-.3.7-.7 1.3-1.3 1.8a6 6 0 01-2 1.2c-.8.2-1.7.4-2.7.4h-4v-3h4a3 3 0 002.2-.7c.5-.5.8-1.2.8-2v-3.3h-.1c-.2 1-.7 1.7-1.4 2.3-.8.5-1.7.8-2.9.8a5 5 0 01-5-3.5c-.2-.7-.3-1.6-.3-2.5v-2.6zm3.6 2.6c0 .9.2 1.6.8 2.2a3 3 0 002.2.8 3 3 0 002.2-.8 3 3 0 00.9-2.2v-2.5a3 3 0 00-.9-2.2 3 3 0 00-2.2-.9 3 3 0 00-2.2.9 3 3 0 00-.8 2.2v2.5zm17.3 4.6c0-.8.2-1.5.7-2 .5-.5 1.2-.7 2-.7s1.5.2 2 .7c.5.5.7 1.2.7 2 0 .9-.2 1.5-.7 2-.5.5-1.2.8-2 .8s-1.5-.3-2-.8-.7-1.1-.7-2zm19.7 2.8c-1 0-2-.2-2.8-.4a6 6 0 01-2-1.2c-.7-.6-1.1-1.2-1.4-2-.3-.7-.5-1.5-.5-2.4v-4c0-.9.2-1.7.5-2.4.3-.8.7-1.4 1.3-2a8.2 8.2 0 017.3-1.3 6.2 6.2 0 014.3 5.2H529c-.1-.8-.5-1.3-1-1.8-.7-.4-1.4-.6-2.2-.6-1 0-1.8.2-2.4.8-.5.5-.8 1.2-.8 2.1v4c0 .9.3 1.6.8 2.1.6.6 1.4.8 2.4.8.8 0 1.5-.2 2.1-.6.6-.5 1-1 1-1.8h3.6c-.1.9-.4 1.6-.8 2.3a6.1 6.1 0 01-3.5 2.8c-.7.3-1.5.4-2.4.4zm9.7-10.8v-3.2h4.2v-2a4 4 0 011.4-3.3c.9-.8 2-1.2 3.5-1.2h4.5v3.1h-4.4c-.4 0-.8.1-1 .4-.3.3-.4.6-.4 1v2h5.8v3.2h-5.8V358h-3.6v-10.5h-4.2zm17 .8c0-1 0-1.7.3-2.5l1-1.9a5.5 5.5 0 013.9-1.6c1.2 0 2.2.3 2.9.8.7.6 1.2 1.3 1.4 2.3h.2v-2.8h3.4v14.5c0 .9-.2 1.6-.5 2.3-.3.7-.7 1.3-1.3 1.8a6 6 0 01-2 1.2c-.8.2-1.7.4-2.7.4h-4v-3h4a3 3 0 002.2-.7c.5-.5.8-1.2.8-2v-3.3h-.1c-.2 1-.7 1.7-1.4 2.3-.8.5-1.7.8-2.9.8a5 5 0 01-5-3.5c-.2-.7-.3-1.6-.3-2.5v-2.6zm3.5 2.6c0 .9.2 1.6.8 2.2a3 3 0 002.2.8 3 3 0 002.2-.8 3 3 0 00.9-2.2v-2.5a3 3 0 00-.9-2.2 3 3 0 00-2.2-.9 3 3 0 00-2.2.9 3 3 0 00-.8 2.2v2.5zM1237.2 345.6h3.3v2.7h.3c.2-1 .6-1.7 1.3-2.2.7-.5 1.6-.8 2.8-.8 1.5 0 2.8.5 3.7 1.6a6 6 0 011.3 4V361h-3.5v-9.6c0-1-.2-1.7-.7-2.3-.5-.5-1.2-.8-2.1-.8-.9 0-1.6.3-2.1.9-.5.5-.8 1.3-.8 2.2v9.6h-3.5v-15.4zm15.7-1.7v-3.2h8.4V356c0 .6.1 1 .5 1.4.3.3.7.4 1.3.4h4.6v3.2h-4.9a5 5 0 01-3.7-1.3 4.9 4.9 0 01-1.3-3.7V344h-5zm18 1.7h3.3v2.7h.3c.2-1 .6-1.7 1.3-2.2a5.5 5.5 0 015-.4c.6.3 1.2.7 1.7 1.2a7.7 7.7 0 011.4 4.4v3.9a8 8 0 01-.4 2.5c-.2.8-.6 1.4-1 2-.5.5-1 .9-1.7 1.2-.7.2-1.4.4-2.2.4-1.1 0-2-.3-2.8-.8a3.4 3.4 0 01-1.3-2.2h-.3v.4l.1.6a28.8 28.8 0 000 1.7v4.8h-3.5v-20.2zm3.5 5.8v3.8c0 .9.2 1.6.8 2.2.5.5 1.2.8 2.1.8a3 3 0 002.3-.8c.5-.6.8-1.4.8-2.3v-3.7a3 3 0 00-.8-2.2 3 3 0 00-2.3-.9c-.9 0-1.6.3-2.1.9a3 3 0 00-.8 2.2zm42.6-4.7v3.2h-12.4v-3.2h12.4zm-12.4 6.9h12.4v3.2h-12.4v-3.2zm33 3.5h3.6c.1.4.4.8.9 1 .4.4 1 .5 1.7.5h1.1c1 0 1.6-.2 2-.5.5-.4.8-.8.8-1.4 0-1-.8-1.7-2.4-2l-2.2-.2c-1.7-.2-3-.7-3.9-1.4-.8-.8-1.2-1.8-1.2-3.2a4 4 0 011.5-3.4 7 7 0 014.4-1.2h1.1a7 7 0 014.1 1.1c1 .7 1.7 1.7 1.9 3h-3.6c-.1-.4-.4-.8-.8-1a3 3 0 00-1.6-.4h-1.1c-1.7 0-2.5.6-2.5 1.7 0 1 .7 1.6 2 1.8l2.3.3c1.9.2 3.2.7 4.1 1.5.9.8 1.3 1.8 1.3 3.2 0 1.6-.5 2.7-1.6 3.5-1 .9-2.6 1.3-4.6 1.3h-1c-1.9 0-3.3-.4-4.4-1.1-1-.8-1.7-1.8-1.9-3.1zm17.2-11.5h3.4v2.7h.3c.2-1 .6-1.7 1.3-2.2a5.5 5.5 0 015-.4c.6.3 1.2.7 1.7 1.2a7.7 7.7 0 011.4 4.4v3.9a8 8 0 01-.4 2.5c-.2.8-.6 1.4-1 2-.5.5-1 .9-1.7 1.2-.7.2-1.4.4-2.2.4-1.1 0-2-.3-2.8-.8a3.4 3.4 0 01-1.3-2.2h-.3v.4l.1.6a28.8 28.8 0 000 1.7v4.8h-3.5v-20.2zm3.6 5.8v3.8c0 .9.2 1.6.8 2.2.5.5 1.2.8 2.1.8a3 3 0 002.3-.8c.5-.6.8-1.4.8-2.3v-3.7a3 3 0 00-.8-2.2 3 3 0 00-2.3-.9c-.9 0-1.6.3-2.1.9a3 3 0 00-.8 2.2zm12.6 5.3a4.3 4.3 0 011.6-3.6c.6-.5 1.2-.8 2-1 .7-.3 1.5-.4 2.4-.4h3.9v-1.3a2 2 0 00-.8-1.7c-.5-.4-1.3-.6-2.2-.6a4 4 0 00-2 .4 2 2 0 00-1 1.2h-3.4a4.6 4.6 0 012-3.2c.6-.4 1.3-.7 2-.9a9.6 9.6 0 015 0 6 6 0 012.1 1 4.6 4.6 0 011.8 3.8V361h-3.3v-3h-.3c-.1 1-.7 1.8-1.5 2.4-1 .6-2 .9-3.3.9-1.5 0-2.7-.4-3.6-1.3-1-.8-1.4-2-1.4-3.3zm3.5-.4c0 .7.3 1.2.7 1.6a3 3 0 002 .6c1 0 2-.2 2.6-.7.7-.5 1-1.2 1-2V354h-3.8c-.7 0-1.4.2-1.8.6a2 2 0 00-.7 1.7zm20.5 5c-1 0-2-.2-2.8-.4a6 6 0 01-2-1.2c-.7-.6-1.1-1.2-1.4-2-.3-.7-.5-1.5-.5-2.4v-4c0-.9.2-1.7.5-2.4.3-.8.7-1.4 1.3-2a8.2 8.2 0 017.3-1.3 6.2 6.2 0 014.3 5.2h-3.5c-.1-.8-.5-1.3-1-1.8-.7-.4-1.4-.6-2.2-.6-1 0-1.8.2-2.4.8-.5.5-.8 1.2-.8 2.1v4c0 .9.3 1.6.8 2.1.6.6 1.4.8 2.4.8.8 0 1.5-.2 2.1-.6.6-.5 1-1 1-1.8h3.6c-.1.9-.4 1.6-.8 2.3a6.1 6.1 0 01-3.5 2.8c-.7.3-1.5.4-2.4.4zm9.2-15.7h3.8l3 8.2a7.6 7.6 0 01.5 2l.2 1.1h.2a11.5 11.5 0 01.3-2c0-.4.2-.8.3-1.1l2.8-8.2h3.7l-7.3 20.2h-3.7l2.1-5.7-6-14.5zm21.5 13c0-.9.2-1.6.7-2 .5-.6 1.2-.8 2-.8s1.5.2 2 .7c.5.5.7 1.2.7 2 0 .9-.2 1.5-.7 2-.5.5-1.2.8-2 .8s-1.5-.3-2-.8-.7-1.1-.7-2zm12-14.7v-3.2h8.4V356c0 .6.1 1 .5 1.4.3.3.7.4 1.3.4h4.6v3.2h-4.9a5 5 0 01-3.7-1.3 4.9 4.9 0 01-1.3-3.7V344h-5zm24.3 17.4c-1 0-2-.2-2.8-.5a5.5 5.5 0 01-3.5-3.2c-.2-.7-.4-1.5-.4-2.4v-3.8c0-1 .2-1.7.5-2.5a5.5 5.5 0 013.4-3.1 8.3 8.3 0 015.5 0 5.5 5.5 0 013.5 3.1c.3.8.5 1.6.5 2.5v3.8c0 .9-.2 1.7-.5 2.5a5.5 5.5 0 01-3.4 3.1c-.8.3-1.8.5-2.8.5zm-3.2-6.1c0 1 .3 1.6.9 2.2.5.5 1.3.8 2.3.8 1 0 1.8-.3 2.3-.8a3 3 0 00.9-2.2v-3.8a3 3 0 00-.9-2.2c-.5-.6-1.3-.8-2.3-.8-1 0-1.8.2-2.3.8a3 3 0 00-.9 2.2v3.8zm13 1.5a4.3 4.3 0 011.6-3.6c.6-.5 1.2-.8 2-1 .7-.3 1.5-.4 2.4-.4h3.9v-1.3a2 2 0 00-.8-1.7c-.5-.4-1.3-.6-2.2-.6a4 4 0 00-2 .4 2 2 0 00-1 1.2h-3.4a4.6 4.6 0 012-3.2c.6-.4 1.3-.7 2-.9a9.6 9.6 0 015 0 6 6 0 012.1 1 4.6 4.6 0 011.8 3.8V361h-3.3v-3h-.3c-.1 1-.7 1.8-1.5 2.4-1 .6-2 .9-3.3.9-1.5 0-2.7-.4-3.6-1.3-1-.8-1.4-2-1.4-3.3zm3.5-.4c0 .7.3 1.2.7 1.6a3 3 0 002 .6c1 0 2-.2 2.6-.7.7-.5 1-1.2 1-2V354h-3.8c-.7 0-1.4.2-1.8.6a2 2 0 00-.7 1.7zm13.6-5c0-.9.1-1.7.4-2.5.2-.7.6-1.3 1-1.9.5-.5 1-.9 1.7-1.2.7-.2 1.4-.4 2.2-.4 1.1 0 2 .3 2.8.8.7.5 1.1 1.2 1.3 2.2h.3v-1a8.7 8.7 0 01-.1-1.7v-4.8h3.5V361h-3.4v-2.7h-.3c-.2 1-.6 1.7-1.3 2.2a5.4 5.4 0 01-5 .4c-.6-.3-1.2-.7-1.6-1.3-.5-.5-.9-1.1-1.1-1.9a8 8 0 01-.4-2.5v-3.9zm3.5.1v3.7c0 1 .3 1.7.8 2.3a3 3 0 002.3.8c.9 0 1.6-.3 2.1-.8a3 3 0 00.9-2.2v-3.8a3 3 0 00-.9-2.2 3 3 0 00-2.1-.9 3 3 0 00-2.3.9 3 3 0 00-.8 2.2zm16.3-3.1c0-1.4.2-2.6.6-3.8a10.3 10.3 0 014.6-5.6c1-.7 2.3-1.2 3.7-1.6v3.5c-.9.2-1.6.5-2.3 1-.6.4-1.2 1-1.7 1.6a9.2 9.2 0 00-1.4 4.9v5.3a8 8 0 001.4 4.8c1 1.3 2.3 2.2 4 2.6v3.5c-2.9-.7-5-2-6.6-4a10.6 10.6 0 01-2.3-6.9v-5.3zm14.1-2.7h3.4v2.7h.3c.2-1 .6-1.7 1.3-2.2a5.5 5.5 0 015-.4c.6.3 1.2.7 1.7 1.2a7.7 7.7 0 011.4 4.4v3.9a8 8 0 01-.4 2.5c-.2.8-.6 1.4-1 2-.5.5-1 .9-1.7 1.2-.7.2-1.4.4-2.2.4-1.1 0-2-.3-2.8-.8a3.4 3.4 0 01-1.3-2.2h-.3v.4l.1.6a28.8 28.8 0 000 1.7v4.8h-3.5v-20.2zm3.6 5.8v3.8c0 .9.2 1.6.8 2.2.5.5 1.2.8 2.1.8a3 3 0 002.3-.8c.5-.6.8-1.4.8-2.3v-3.7a3 3 0 00-.8-2.2 3 3 0 00-2.3-.9c-.9 0-1.6.3-2.1.9a3 3 0 00-.8 2.2zm12.6 5.3a4.3 4.3 0 011.6-3.6c.6-.5 1.2-.8 2-1 .7-.3 1.5-.4 2.4-.4h3.9v-1.3a2 2 0 00-.8-1.7c-.5-.4-1.3-.6-2.2-.6a4 4 0 00-2 .4 2 2 0 00-1 1.2h-3.4a4.6 4.6 0 012-3.2c.6-.4 1.3-.7 2-.9a9.6 9.6 0 015 0 6 6 0 012.1 1 4.6 4.6 0 011.8 3.8V361h-3.3v-3h-.3c-.1 1-.7 1.8-1.5 2.4-1 .6-2 .9-3.3.9-1.5 0-2.7-.4-3.6-1.3-1-.8-1.4-2-1.4-3.3zm3.5-.4c0 .7.3 1.2.7 1.6a3 3 0 002 .6c1 0 2-.2 2.6-.7.7-.5 1-1.2 1-2V354h-3.8c-.7 0-1.4.2-1.8.6a2 2 0 00-.7 1.7zm13.2-10.7h4.2v-4.8h3.5v4.8h5.9v3.2h-5.9v7.4c0 .5.2 1 .4 1.2.3.3.7.4 1.3.4h3.9v3.2h-4.2c-1.5 0-2.7-.4-3.6-1.3-.8-.8-1.3-2-1.3-3.5v-7.4h-4.2v-3.2zm17.5-4.8h3.5v4.8a14.6 14.6 0 01-.2 2.4v.3h.3c.2-1 .6-1.7 1.3-2.2.7-.5 1.6-.8 2.8-.8 1.5 0 2.7.5 3.7 1.5.9 1 1.3 2.4 1.3 4.1V361h-3.5v-9.7a3 3 0 00-.7-2.2c-.5-.5-1.2-.8-2.1-.8-.9 0-1.6.3-2.1.9-.5.5-.8 1.3-.8 2.2v9.6h-3.5v-20.2zm18-3.5c1.4.4 2.6 1 3.7 1.6a11 11 0 014.6 5.6c.4 1.2.6 2.4.6 3.8v5.3c0 2.8-.7 5-2.3 7a12.2 12.2 0 01-6.6 3.9V361c.9-.2 1.6-.6 2.3-1a6.6 6.6 0 002.7-3.8c.3-.8.4-1.7.4-2.6v-5.3c0-1-.1-1.9-.4-2.7a6.5 6.5 0 00-5-4.8v-3.5z"/>
      <path fill="#3D4251" d="M136.8 516.6h3.3v2.7h.3c.2-1 .6-1.7 1.3-2.2.7-.5 1.6-.8 2.8-.8 1.5 0 2.8.5 3.7 1.6a6 6 0 011.3 4V532H146v-9.6c0-1-.2-1.7-.7-2.3-.5-.5-1.2-.8-2.1-.8-.9 0-1.6.3-2.1.9-.5.5-.8 1.3-.8 2.2v9.6h-3.5v-15.4zm15.7-1.7v-3.2h8.4V527c0 .6.1 1 .5 1.4.3.3.7.4 1.3.4h4.6v3.2h-4.9a5 5 0 01-3.7-1.3 4.9 4.9 0 01-1.3-3.7V515h-5zm18 1.7h3.3v2.7h.3c.2-1 .6-1.7 1.3-2.2a5.5 5.5 0 015-.4c.6.3 1.2.7 1.7 1.2a7.7 7.7 0 011.4 4.4v3.9a8 8 0 01-.4 2.5c-.2.8-.6 1.4-1 2-.5.5-1 .9-1.7 1.2-.7.2-1.4.4-2.2.4-1.1 0-2-.3-2.8-.8a3.4 3.4 0 01-1.3-2.2h-.3v.4l.1.6a28.8 28.8 0 000 1.7v4.8h-3.5v-20.2zm3.5 5.8v3.8c0 .9.2 1.6.8 2.2.5.5 1.2.8 2.1.8a3 3 0 002.3-.8c.5-.6.8-1.4.8-2.3v-3.7a3 3 0 00-.8-2.2 3 3 0 00-2.3-.9c-.9 0-1.6.3-2.1.9a3 3 0 00-.8 2.2zm16.9 7.1c0-.8.2-1.5.7-2 .5-.5 1.2-.7 2-.7s1.5.2 2 .7c.5.5.7 1.2.7 2 0 .9-.2 1.5-.7 2-.5.5-1.2.8-2 .8s-1.5-.3-2-.8-.7-1.1-.7-2z"/>
      <path fill="#F03969" d="M204.3 528.8h5.5v-9H205v-3.2h8.2v12.2h4.5v3.2h-13.4v-3.2zm4.5-16.4c0-.5.2-1 .6-1.3a2 2 0 011.4-.5h.7c.6 0 1.1.2 1.5.5.4.3.5.8.5 1.3 0 .6-.1 1-.5 1.4a2 2 0 01-1.5.5h-.7a2 2 0 01-1.4-.5c-.4-.4-.6-.8-.6-1.4zm12 4.2h3.3v2.7h.3c.2-1 .6-1.7 1.3-2.2.7-.5 1.6-.8 2.8-.8 1.5 0 2.8.5 3.7 1.6a6 6 0 011.3 4V532H230v-9.6c0-1-.2-1.7-.7-2.3-.5-.5-1.2-.8-2.1-.8-.9 0-1.6.3-2.1.9-.5.5-.8 1.3-.8 2.2v9.6h-3.5v-15.4zm17.1 12.2h5.5v-9h-4.8v-3.2h8.2v12.2h4.5v3.2h-13.4v-3.2zm4.5-16.4c0-.5.2-1 .6-1.3a2 2 0 011.4-.5h.7c.6 0 1.1.2 1.5.5.4.3.5.8.5 1.3 0 .6-.1 1-.5 1.4a2 2 0 01-1.5.5h-.7a2 2 0 01-1.4-.5c-.4-.4-.6-.8-.6-1.4zm11.3 4.2h4.2v-4.8h3.5v4.8h5.9v3.2h-5.9v7.4c0 .5.2 1 .5 1.2.2.3.6.4 1.2.4h3.9v3.2h-4.2c-1.5 0-2.7-.4-3.6-1.3-.8-.8-1.3-2-1.3-3.5v-7.4h-4.2v-3.2zm17.8 12.2h5.5v-9h-4.8v-3.2h8.2v12.2h4.5v3.2h-13.4v-3.2zm4.5-16.4c0-.5.2-1 .6-1.3a2 2 0 011.4-.5h.7c.6 0 1.1.2 1.5.5.4.3.5.8.5 1.3 0 .6-.1 1-.5 1.4a2 2 0 01-1.5.5h-.7a2 2 0 01-1.4-.5c-.4-.4-.6-.8-.6-1.4zm11.4 15.3a4.3 4.3 0 011.6-3.6c.6-.5 1.2-.8 2-1 .7-.3 1.5-.4 2.4-.4h3.9v-1.3a2 2 0 00-.8-1.7c-.5-.4-1.3-.6-2.2-.6a4 4 0 00-2 .4 2 2 0 00-1 1.2H288a4.6 4.6 0 012-3.2c.6-.4 1.3-.7 2-.9a9.6 9.6 0 015 0 6 6 0 012.1 1 4.6 4.6 0 011.8 3.8V532h-3.3v-3h-.3c-.1 1-.7 1.8-1.5 2.4-1 .6-2 .9-3.3.9-1.5 0-2.7-.4-3.6-1.3-1-.8-1.4-2-1.4-3.3zm3.5-.4c0 .7.3 1.2.7 1.6a3 3 0 002 .6c1 0 2-.2 2.6-.7.7-.5 1-1.2 1-2V525h-3.8c-.7 0-1.4.2-1.8.6a2 2 0 00-.7 1.7zm12.8-12.4v-3.2h8.4V527c0 .6.1 1 .5 1.4.3.3.7.4 1.3.4h4.6v3.2h-4.9a5 5 0 01-3.7-1.3 4.9 4.9 0 01-1.3-3.7V515h-5zm18.2 14h5.5v-9.1h-4.8v-3.2h8.2v12.2h4.5v3.2h-13.4v-3.2zm4.5-16.5c0-.5.2-1 .6-1.3a2 2 0 011.4-.5h.7c.6 0 1.1.2 1.5.5.4.3.5.8.5 1.3 0 .6-.1 1-.5 1.4a2 2 0 01-1.5.5h-.7a2 2 0 01-1.4-.5c-.4-.4-.6-.8-.6-1.4zm12 16.3l8.4-9v-.2a8 8 0 01-.7 0 6.6 6.6 0 01-1.5.2h-6v-3.1H351v3.3l-8.5 9.1v.2a7.7 7.7 0 012.3-.3h6.5v3.1h-12.8v-3.3zm16.5-6.4c0-.9.2-1.7.5-2.5.3-.7.7-1.3 1.3-1.9a6 6 0 012.1-1.2c.8-.2 1.8-.4 2.8-.4 1 0 2 .2 2.7.5.8.2 1.5.6 2.1 1.2.6.5 1 1.1 1.4 1.9.3.7.4 1.6.4 2.5v2.8h-9.8v1c0 1 .3 1.8.8 2.4.6.6 1.4.9 2.4.9.7 0 1.4-.1 2-.4.5-.2.9-.6 1-1h3.5c-.1.6-.4 1.2-.8 1.7s-.9 1-1.5 1.3a7 7 0 01-1.9.9 8.7 8.7 0 01-5-.1c-.9-.3-1.6-.7-2.2-1.3-.6-.5-1-1.1-1.3-1.9-.3-.7-.5-1.6-.5-2.5v-3.9zm3.5.5h6.4v-.4c0-1-.3-1.9-.8-2.4-.6-.6-1.4-.9-2.4-.9s-1.8.3-2.4.9c-.5.5-.8 1.3-.8 2.3v.5z"/>
      <path fill="#3D4251" d="M374.7 519.3c0-1.4.2-2.6.6-3.8a10.3 10.3 0 014.6-5.6c1-.7 2.3-1.2 3.7-1.6v3.5c-.9.2-1.6.5-2.3 1-.6.4-1.2 1-1.7 1.6a9.2 9.2 0 00-1.4 4.9v5.3a8 8 0 001.4 4.8c1 1.3 2.3 2.2 4 2.6v3.5c-2.9-.7-5-2-6.6-4a10.6 10.6 0 01-2.3-6.9v-5.3zm13.7 3c0-1 .1-1.7.4-2.5l1-1.9a5.5 5.5 0 013.9-1.6c1.2 0 2.2.3 2.9.8.7.6 1.2 1.3 1.4 2.3h.2v-2.8h3.4v14.5c0 .9-.2 1.6-.5 2.3-.3.7-.7 1.3-1.3 1.8a6 6 0 01-2 1.2c-.8.2-1.7.4-2.7.4h-4v-3h4a3 3 0 002.2-.7c.5-.5.8-1.2.8-2v-3.3h-.1c-.2 1-.7 1.7-1.4 2.3-.8.5-1.7.8-2.9.8a5 5 0 01-5-3.5c-.2-.7-.3-1.6-.3-2.5v-2.6zm3.6 2.6c0 .9.2 1.6.8 2.2a3 3 0 002.2.8 3 3 0 002.2-.8 3 3 0 00.9-2.2v-2.5a3 3 0 00-.9-2.2 3 3 0 00-2.2-.9 3 3 0 00-2.2.9 3 3 0 00-.8 2.2v2.5zm13.3-2.6c0-.9.2-1.7.5-2.5.3-.7.7-1.3 1.3-1.9a6 6 0 012.1-1.2c.8-.2 1.8-.4 2.8-.4 1 0 2 .2 2.7.5.8.2 1.5.6 2.1 1.2.6.5 1 1.1 1.4 1.9.3.7.4 1.6.4 2.5v2.8h-9.8v1c0 1 .3 1.8.8 2.4.6.6 1.4.9 2.4.9.7 0 1.4-.1 2-.4.5-.2.9-.6 1-1h3.5c-.1.6-.4 1.2-.8 1.7s-.9 1-1.5 1.3a7 7 0 01-1.9.9 8.7 8.7 0 01-5-.1c-.9-.3-1.6-.7-2.2-1.3-.6-.5-1-1.1-1.3-1.9-.3-.7-.5-1.6-.5-2.5v-3.9zm3.5.5h6.4v-.4c0-1-.3-1.9-.8-2.4-.6-.6-1.4-.9-2.4-.9s-1.8.3-2.4.9c-.5.5-.8 1.3-.8 2.3v.5zm12.9-6.2h4.2v-4.8h3.5v4.8h5.9v3.2h-5.9v7.4c0 .5.2 1 .4 1.2.3.3.7.4 1.3.4h3.9v3.2h-4.2c-1.5 0-2.7-.4-3.6-1.3-.8-.8-1.3-2-1.3-3.5v-7.4h-4.2v-3.2zm17.2 16.1h13.4v3.2H439v-3.2zm16.8-10.4c0-.9.2-1.7.5-2.5.3-.7.7-1.3 1.3-1.9a6 6 0 012.1-1.2c.8-.2 1.8-.4 2.8-.4 1 0 2 .2 2.7.5.8.2 1.5.6 2.1 1.2.6.5 1 1.1 1.4 1.9.3.7.4 1.6.4 2.5v2.8h-9.8v1c0 1 .3 1.8.8 2.4.6.6 1.4.9 2.4.9.7 0 1.4-.1 2-.4.5-.2.9-.6 1-1h3.5c-.1.6-.4 1.2-.8 1.7s-.9 1-1.5 1.3a7 7 0 01-1.9.9 8.7 8.7 0 01-5-.1c-.9-.3-1.6-.7-2.2-1.3-.6-.5-1-1.1-1.3-1.9-.3-.7-.5-1.6-.5-2.5v-3.9zm3.5.5h6.4v-.4c0-1-.3-1.9-.8-2.4-.6-.6-1.4-.9-2.4-.9s-1.8.3-2.4.9c-.5.5-.8 1.3-.8 2.3v.5zm18 1.2l-5.1-7.4h4l2.5 3.9.4.7.1.3h.2l.1-.3.1-.3.3-.4 2.6-3.9h4l-5.2 7.4 5.5 8h-4l-2.9-4.3a8 8 0 01-.5-1.1h-.2l-.1.3a3.2 3.2 0 01-.4.7l-3 4.4h-3.9l5.5-8zm11.8 3.7a4.3 4.3 0 011.6-3.6c.6-.5 1.2-.8 2-1 .7-.3 1.5-.4 2.4-.4h3.9v-1.3a2 2 0 00-.8-1.7c-.5-.4-1.3-.6-2.2-.6a4 4 0 00-2 .4 2 2 0 00-1 1.2h-3.4a4.6 4.6 0 012-3.2c.6-.4 1.3-.7 2-.9a9.6 9.6 0 015 0 6 6 0 012.1 1 4.6 4.6 0 011.8 3.8V532H499v-3h-.3c-.1 1-.7 1.8-1.5 2.4-1 .6-2 .9-3.3.9-1.5 0-2.7-.4-3.6-1.3-1-.8-1.4-2-1.4-3.3zm3.5-.4c0 .7.3 1.2.7 1.6a3 3 0 002 .6c1 0 2-.2 2.6-.7.7-.5 1-1.2 1-2V525H495c-.7 0-1.4.2-1.8.6a2 2 0 00-.7 1.7zm13.3 4.7v-15.4h2.8v2.2h.3c0-.7.3-1.4.7-1.8.5-.5 1-.7 1.8-.7.7 0 1.3.2 1.7.7.4.4.7 1 .8 1.8h.2c.1-.7.4-1.4.8-1.8.4-.5 1-.7 1.8-.7 1 0 1.7.4 2.3 1 .6.8.9 1.7.9 3V532h-3.2v-11.5c0-1.1-.4-1.7-1.3-1.7-.4 0-.8.1-1 .5-.2.3-.3.7-.3 1.3V532h-2.5v-11.5c0-.5-.2-1-.4-1.3-.3-.3-.6-.4-1-.4-.5 0-.8.1-1 .5-.2.3-.3.7-.3 1.3V532h-3.1zm17.4-15.4h3.4v2.7h.3c.2-1 .6-1.7 1.3-2.2a5.5 5.5 0 015-.4c.6.3 1.2.7 1.6 1.2.5.6.9 1.2 1.1 2 .3.7.4 1.5.4 2.4v3.9a8 8 0 01-.4 2.5c-.2.8-.6 1.4-1 2-.5.5-1 .9-1.7 1.2-.7.2-1.4.4-2.2.4-1.1 0-2-.3-2.8-.8a3.4 3.4 0 01-1.3-2.2h-.3v.4l.1.6a28.8 28.8 0 000 1.7v4.8h-3.5v-20.2zm3.6 5.8v3.8c0 .9.2 1.6.8 2.2.5.5 1.2.8 2.1.8a3 3 0 002.3-.8c.5-.6.8-1.4.8-2.3v-3.7a3 3 0 00-.8-2.2 3 3 0 00-2.3-.9c-.9 0-1.6.3-2.1.9a3 3 0 00-.8 2.2zm12-7.5v-3.2h8.5V527c0 .6.1 1 .5 1.4.3.3.7.4 1.3.4h4.6v3.2h-4.9a5 5 0 01-3.7-1.3 4.9 4.9 0 01-1.3-3.7V515h-5zm17.7 7.4c0-.9.2-1.7.5-2.5.3-.7.7-1.3 1.3-1.9a6 6 0 012.1-1.2c.8-.2 1.8-.4 2.8-.4 1 0 2 .2 2.7.5.8.2 1.5.6 2.1 1.2.6.5 1 1.1 1.4 1.9.3.7.4 1.6.4 2.5v2.8H560v1c0 1 .3 1.8.8 2.4.6.6 1.4.9 2.4.9.7 0 1.4-.1 2-.4.5-.2.9-.6 1-1h3.5c-.1.6-.4 1.2-.8 1.7s-.9 1-1.5 1.3a7 7 0 01-1.9.9 8.7 8.7 0 01-5-.1c-.9-.3-1.6-.7-2.2-1.3-.6-.5-1-1.1-1.3-1.9-.3-.7-.5-1.6-.5-2.5v-3.9zm3.5.5h6.4v-.4c0-1-.3-1.9-.8-2.4-.6-.6-1.4-.9-2.4-.9s-1.8.3-2.4.9c-.5.5-.8 1.3-.8 2.3v.5zm13.2 5.3h3.6c.1.4.4.8.9 1 .4.4 1 .5 1.7.5h1.1c1 0 1.6-.2 2-.5.5-.4.8-.8.8-1.4 0-1-.8-1.7-2.4-2l-2.2-.2c-1.7-.2-3-.7-3.9-1.4-.8-.8-1.2-1.8-1.2-3.2a4 4 0 011.5-3.4 7 7 0 014.4-1.2h1.1a7 7 0 014.1 1.1c1 .7 1.7 1.7 1.9 3H583c-.1-.4-.4-.8-.8-1a3 3 0 00-1.6-.4h-1.1c-1.7 0-2.5.6-2.5 1.7 0 1 .7 1.6 2 1.8l2.3.3c1.9.2 3.2.7 4.1 1.5.9.8 1.3 1.8 1.3 3.2 0 1.6-.5 2.7-1.6 3.5-1 .9-2.6 1.3-4.6 1.3h-1c-1.9 0-3.3-.4-4.4-1.1-1-.8-1.7-1.8-1.9-3.1zm18.4-19.8c1.4.4 2.6 1 3.7 1.6a11 11 0 014.6 5.6c.4 1.2.6 2.4.6 3.8v5.3c0 2.8-.7 5-2.3 7a12.2 12.2 0 01-6.6 3.9V532c.9-.2 1.6-.6 2.3-1a6.6 6.6 0 002.7-3.8c.3-.8.4-1.7.4-2.6v-5.3c0-1-.1-1.9-.4-2.7a6.5 6.5 0 00-5-4.8v-3.5zM203 602.6h3.3v2.7h.3c.2-1 .6-1.7 1.3-2.2.7-.5 1.6-.8 2.8-.8 1.5 0 2.8.5 3.7 1.6a6 6 0 011.3 4V618h-3.5v-9.6c0-1-.2-1.7-.7-2.3-.5-.5-1.2-.8-2.1-.8-.9 0-1.6.3-2.1.9-.5.5-.8 1.3-.8 2.2v9.6H203v-15.4zm15.7-1.7v-3.2h8.4V613c0 .6.1 1 .5 1.4.3.3.7.4 1.3.4h4.6v3.2h-4.9a5 5 0 01-3.7-1.3 4.9 4.9 0 01-1.3-3.7V601h-5zm18 1.7h3.3v2.7h.3c.2-1 .6-1.7 1.3-2.2a5.5 5.5 0 015-.4c.6.3 1.2.7 1.7 1.2a7.7 7.7 0 011.4 4.4v3.9a8 8 0 01-.4 2.5c-.2.8-.6 1.4-1 2-.5.5-1 .9-1.7 1.2-.7.2-1.4.4-2.2.4-1.1 0-2-.3-2.8-.8a3.4 3.4 0 01-1.3-2.2h-.3v.4l.1.6a28.8 28.8 0 000 1.7v4.8h-3.5v-20.2zm3.5 5.8v3.8c0 .9.2 1.6.8 2.2.5.5 1.2.8 2.1.8a3 3 0 002.3-.8c.5-.6.8-1.4.8-2.3v-3.7a3 3 0 00-.8-2.2 3 3 0 00-2.3-.9c-.9 0-1.6.3-2.1.9a3 3 0 00-.8 2.2zm16.9 7.1c0-.8.2-1.5.7-2 .5-.5 1.2-.7 2-.7s1.5.2 2 .7c.5.5.7 1.2.7 2 0 .9-.2 1.5-.7 2-.5.5-1.2.8-2 .8s-1.5-.3-2-.8-.7-1.1-.7-2z"/>
      <path fill="#F03969" d="M273.8 602.6v9.6c0 2 1 3 2.8 3 1.9 0 2.8-1 2.8-3v-9.6h3.5v9.6c0 2-.6 3.4-1.7 4.5a6.4 6.4 0 01-4.6 1.6c-2 0-3.5-.6-4.6-1.6a5.9 5.9 0 01-1.7-4.5v-9.6h3.5zm13.2 0h3.4v2.7h.3c.2-1 .6-1.7 1.3-2.2a5.5 5.5 0 015-.4c.6.3 1.2.7 1.6 1.2.5.6.9 1.2 1.1 2 .3.7.4 1.5.4 2.4v3.9a8 8 0 01-.4 2.5c-.2.8-.6 1.4-1 2-.5.5-1 .9-1.7 1.2-.7.2-1.4.4-2.2.4-1.1 0-2-.3-2.8-.8a3.4 3.4 0 01-1.3-2.2h-.3v.4l.1.6a28.8 28.8 0 000 1.7v4.8H287v-20.2zm3.6 5.8v3.8c0 .9.2 1.6.8 2.2.5.5 1.2.8 2.1.8a3 3 0 002.3-.8c.5-.6.8-1.4.8-2.3v-3.7a3 3 0 00-.8-2.2 3 3 0 00-2.3-.9c-.9 0-1.6.3-2.1.9a3 3 0 00-.8 2.2zm13 0c0-1 0-1.8.3-2.6.2-.7.6-1.3 1-1.9.5-.5 1-.9 1.7-1.2.7-.2 1.4-.4 2.2-.4 1.1 0 2 .3 2.8.8.7.5 1.1 1.2 1.3 2.2h.3v-1a8.7 8.7 0 01-.1-1.7v-4.8h3.5V618h-3.4v-2.7h-.3c-.2 1-.6 1.7-1.3 2.2a5.4 5.4 0 01-5 .4c-.6-.3-1.2-.7-1.6-1.3-.5-.5-.9-1.1-1.1-1.9a8 8 0 01-.4-2.5v-3.9zm3.4 0v3.7c0 1 .3 1.7.8 2.3a3 3 0 002.3.8c.9 0 1.6-.3 2.1-.8a3 3 0 00.9-2.2v-3.8a3 3 0 00-.9-2.2 3 3 0 00-2.1-.9 3 3 0 00-2.3.9 3 3 0 00-.8 2.2zm13 5.3a4.3 4.3 0 011.6-3.6c.6-.5 1.2-.8 2-1 .7-.3 1.5-.4 2.4-.4h3.9v-1.3a2 2 0 00-.8-1.7c-.5-.4-1.3-.6-2.2-.6a4 4 0 00-2 .4 2 2 0 00-1 1.2h-3.4a4.6 4.6 0 012-3.2c.6-.4 1.3-.7 2-.9a9.6 9.6 0 015 0 6 6 0 012.1 1 4.6 4.6 0 011.8 3.8V618H330v-3h-.3c-.1 1-.7 1.8-1.5 2.4-1 .6-2 .9-3.3.9-1.5 0-2.7-.4-3.6-1.3-1-.8-1.4-2-1.4-3.3zm3.5-.4c0 .7.3 1.2.7 1.6a3 3 0 002 .6c1 0 2-.2 2.6-.7.7-.5 1-1.2 1-2V611H326c-.7 0-1.4.2-1.8.6a2 2 0 00-.7 1.7zm13.2-10.7h4.2v-4.8h3.5v4.8h5.9v3.2h-5.9v7.4c0 .5.2 1 .5 1.2.2.3.6.4 1.2.4h3.9v3.2h-4.2c-1.5 0-2.7-.4-3.6-1.3-.8-.8-1.3-2-1.3-3.5v-7.4h-4.2v-3.2zm17.2 5.7c0-.9.2-1.7.5-2.5.3-.7.7-1.3 1.3-1.9a6 6 0 012.1-1.2c.8-.2 1.8-.4 2.8-.4 1 0 2 .2 2.7.5.8.2 1.5.6 2.1 1.2.6.5 1 1.1 1.4 1.9.3.7.4 1.6.4 2.5v2.8h-9.8v1c0 1 .3 1.8.8 2.4.6.6 1.4.9 2.4.9.7 0 1.4-.1 2-.4.5-.2.9-.6 1-1h3.5c-.1.6-.4 1.2-.8 1.7s-.9 1-1.5 1.3a7 7 0 01-1.9.9 8.7 8.7 0 01-5-.1c-.9-.3-1.6-.7-2.2-1.3-.6-.5-1-1.1-1.3-1.9-.3-.7-.5-1.6-.5-2.5v-3.9zm3.5.5h6.4v-.4c0-1-.3-1.9-.8-2.4-.6-.6-1.4-.9-2.4-.9s-1.8.3-2.4.9c-.5.5-.8 1.3-.8 2.3v.5z"/>
      <path fill="#3D4251" d="M373.7 605.3c0-1.4.2-2.6.6-3.8a10.3 10.3 0 014.6-5.6c1-.7 2.3-1.2 3.7-1.6v3.5c-.9.2-1.6.5-2.3 1-.6.4-1.2 1-1.7 1.6a9.2 9.2 0 00-1.4 4.9v5.3a8 8 0 001.4 4.8c1 1.3 2.3 2.2 4 2.6v3.5c-2.9-.7-5-2-6.6-4a10.6 10.6 0 01-2.3-6.9v-5.3zm13.8 3c0-.9.2-1.7.5-2.5.3-.7.7-1.3 1.3-1.9a6 6 0 012.1-1.2c.8-.2 1.8-.4 2.8-.4 1 0 2 .2 2.7.5.8.2 1.5.6 2.1 1.2.6.5 1 1.1 1.4 1.9.3.7.4 1.6.4 2.5v2.8H391v1c0 1 .3 1.8.8 2.4.6.6 1.4.9 2.4.9.7 0 1.4-.1 2-.4.5-.2.9-.6 1-1h3.5c-.1.6-.4 1.2-.8 1.7s-.9 1-1.5 1.3a7 7 0 01-1.9.9 8.7 8.7 0 01-5-.1c-.9-.3-1.6-.7-2.2-1.3-.6-.5-1-1.1-1.3-1.9-.3-.7-.5-1.6-.5-2.5v-3.9zm3.5.5h6.4v-.4c0-1-.3-1.9-.8-2.4-.6-.6-1.4-.9-2.4-.9s-1.8.3-2.4.9c-.5.5-.8 1.3-.8 2.3v.5zm18 1.2l-5.1-7.4h4l2.5 3.9.4.7.1.3h.2l.1-.3s0-.2.2-.3c0-.1 0-.3.2-.4l2.6-3.9h4L413 610l5.5 8h-4l-2.9-4.3a8 8 0 01-.5-1.1h-.2l-.1.3a3.2 3.2 0 01-.4.7l-3 4.4h-3.9l5.5-8zm11.8 3.7a4.3 4.3 0 011.6-3.6c.6-.5 1.2-.8 2-1 .7-.3 1.5-.4 2.4-.4h3.9v-1.3a2 2 0 00-.8-1.7c-.5-.4-1.3-.6-2.2-.6a4 4 0 00-2 .4 2 2 0 00-1 1.2h-3.4a4.6 4.6 0 012-3.2c.6-.4 1.3-.7 2-.9a9.6 9.6 0 015 0 6 6 0 012.1 1 4.6 4.6 0 011.8 3.8V618h-3.3v-3h-.3c-.1 1-.7 1.8-1.5 2.4-1 .6-2 .9-3.3.9-1.5 0-2.7-.4-3.6-1.3-1-.8-1.4-2-1.4-3.3zm3.5-.4c0 .7.3 1.2.7 1.6a3 3 0 002 .6c1 0 2-.2 2.6-.7.7-.5 1-1.2 1-2V611h-3.8c-.7 0-1.4.2-1.8.6a2 2 0 00-.7 1.7zm13.3 4.7v-15.4h2.8v2.2h.3c0-.7.3-1.4.7-1.8.5-.5 1-.7 1.8-.7.7 0 1.3.2 1.7.7.4.4.7 1 .8 1.8h.2c.1-.7.4-1.4.8-1.8.4-.5 1-.7 1.8-.7 1 0 1.7.4 2.3 1 .6.8.9 1.7.9 3V618h-3.2v-11.5c0-1.1-.4-1.7-1.3-1.7-.4 0-.8.1-1 .5-.2.3-.3.7-.3 1.3V618h-2.5v-11.5c0-.5-.2-1-.4-1.3-.3-.3-.6-.4-1-.4-.5 0-.8.1-1 .5-.2.3-.3.7-.3 1.3V618h-3.1zm17.4-15.4h3.4v2.7h.3c.2-1 .6-1.7 1.3-2.2a5.5 5.5 0 015-.4c.6.3 1.2.7 1.7 1.2a7.7 7.7 0 011.4 4.4v3.9a8 8 0 01-.4 2.5c-.2.8-.6 1.4-1 2-.5.5-1 .9-1.7 1.2-.7.2-1.4.4-2.2.4-1.1 0-2-.3-2.8-.8a3.4 3.4 0 01-1.3-2.2h-.3v.4l.1.6a28.8 28.8 0 000 1.7v4.8H455v-20.2zm3.6 5.8v3.8c0 .9.2 1.6.8 2.2.5.5 1.2.8 2.1.8a3 3 0 002.3-.8c.5-.6.8-1.4.8-2.3v-3.7a3 3 0 00-.8-2.2 3 3 0 00-2.3-.9c-.9 0-1.6.3-2.1.9a3 3 0 00-.8 2.2zm12-7.5v-3.2h8.5V613c0 .6.1 1 .5 1.4.3.3.7.4 1.3.4h4.6v3.2h-4.9a5 5 0 01-3.7-1.3 4.9 4.9 0 01-1.3-3.7V601h-5zm17.7 7.4c0-.9.2-1.7.5-2.5.3-.7.7-1.3 1.3-1.9a6 6 0 012.1-1.2c.8-.2 1.8-.4 2.8-.4 1 0 2 .2 2.7.5.8.2 1.5.6 2.1 1.2.6.5 1 1.1 1.4 1.9.3.7.4 1.6.4 2.5v2.8h-9.8v1c0 1 .3 1.8.8 2.4.6.6 1.4.9 2.4.9.7 0 1.4-.1 2-.4.5-.2.9-.6 1-1h3.5c-.1.6-.4 1.2-.8 1.7s-.9 1-1.5 1.3a7 7 0 01-1.9.9 8.7 8.7 0 01-5-.1c-.9-.3-1.6-.7-2.2-1.3-.6-.5-1-1.1-1.3-1.9-.3-.7-.5-1.6-.5-2.5v-3.9zm3.5.5h6.4v-.4c0-1-.3-1.9-.8-2.4-.6-.6-1.4-.9-2.4-.9s-1.8.3-2.4.9c-.5.5-.8 1.3-.8 2.3v.5zm13.2 5.3h3.6c.1.4.4.8.9 1 .4.4 1 .5 1.7.5h1.1c1 0 1.6-.2 2-.5.5-.4.8-.8.8-1.4 0-1-.8-1.7-2.4-2l-2.2-.2c-1.7-.2-3-.7-3.9-1.4-.8-.8-1.2-1.8-1.2-3.2a4 4 0 011.5-3.4 7 7 0 014.4-1.2h1.1a7 7 0 014.1 1.1c1 .7 1.7 1.7 1.9 3h-3.6c-.1-.4-.4-.8-.8-1a3 3 0 00-1.6-.4h-1.1c-1.7 0-2.5.6-2.5 1.7 0 1 .7 1.6 2 1.8l2.3.3c1.9.2 3.2.7 4.1 1.5.9.8 1.3 1.8 1.3 3.2 0 1.6-.5 2.7-1.6 3.5-1 .9-2.6 1.3-4.6 1.3h-1c-1.9 0-3.3-.4-4.4-1.1-1-.8-1.7-1.8-1.9-3.1zm18.4-19.8c1.4.4 2.6 1 3.7 1.6a11 11 0 014.6 5.6c.4 1.2.6 2.4.6 3.8v5.3c0 2.8-.7 5-2.3 7a12.2 12.2 0 01-6.6 3.9V618c.9-.2 1.6-.6 2.3-1a6.6 6.6 0 002.7-3.8c.3-.8.4-1.7.4-2.6v-5.3c0-1-.1-1.9-.4-2.7a6.5 6.5 0 00-5-4.8v-3.5z"/>
      <g>
        <path fill="#3D4251" d="M228.2 688.6h3.3v2.7h.3c.2-1 .6-1.7 1.3-2.2.7-.5 1.6-.8 2.8-.8 1.5 0 2.8.5 3.7 1.6a6 6 0 011.3 4V704h-3.5v-9.6c0-1-.2-1.7-.7-2.3-.5-.5-1.2-.8-2.1-.8-.9 0-1.6.3-2.1.9-.5.5-.8 1.3-.8 2.2v9.6h-3.5v-15.4zm15.7-1.7v-3.2h8.4V699c0 .6.1 1 .5 1.4.3.3.7.4 1.3.4h4.6v3.2h-4.9a5 5 0 01-3.7-1.3 4.9 4.9 0 01-1.3-3.7V687h-5zm18 1.7h3.3v2.7h.3c.2-1 .6-1.7 1.3-2.2a5.5 5.5 0 015-.4c.6.3 1.2.7 1.6 1.2.5.6.9 1.2 1.1 2 .3.7.4 1.5.4 2.4v3.9a8 8 0 01-.4 2.5c-.2.8-.6 1.4-1 2-.5.5-1 .9-1.7 1.2-.7.2-1.4.4-2.2.4-1.1 0-2-.3-2.8-.8a3.4 3.4 0 01-1.3-2.2h-.3v.4l.1.6a28.8 28.8 0 000 1.7v4.8h-3.5v-20.2zm3.5 5.8v3.8c0 .9.2 1.6.8 2.2.5.5 1.2.8 2.1.8a3 3 0 002.3-.8c.5-.6.8-1.4.8-2.3v-3.7a3 3 0 00-.8-2.2 3 3 0 00-2.3-.9c-.9 0-1.6.3-2.1.9a3 3 0 00-.8 2.2zm16.9 7.1c0-.8.2-1.5.7-2 .5-.5 1.2-.7 2-.7s1.5.2 2 .7c.5.5.7 1.2.7 2 0 .9-.2 1.5-.7 2-.5.5-1.2.8-2 .8s-1.5-.3-2-.8-.7-1.1-.7-2z"/>
        <path fill="#F03969" d="M294.7 688.6h4.2v-4.8h3.5v4.8h5.9v3.2h-5.9v7.4c0 .5.2 1 .5 1.2.2.3.6.4 1.2.4h3.9v3.2h-4.2c-1.5 0-2.7-.4-3.6-1.3-.8-.8-1.3-2-1.3-3.5v-7.4h-4.2v-3.2zm23.9 15.7c-1 0-2-.2-2.8-.5a5.5 5.5 0 01-3.5-3.2c-.2-.7-.4-1.5-.4-2.4v-3.8c0-1 .2-1.7.5-2.5a5.5 5.5 0 013.4-3.1 8.3 8.3 0 015.5 0 5.5 5.5 0 013.5 3.1c.3.8.5 1.6.5 2.5v3.8c0 .9-.2 1.7-.5 2.5a5.5 5.5 0 01-3.4 3.1c-.8.3-1.8.5-2.8.5zm-3.2-6.1c0 1 .3 1.6.9 2.2.5.5 1.3.8 2.3.8 1 0 1.8-.3 2.3-.8a3 3 0 00.9-2.2v-3.8a3 3 0 00-.9-2.2c-.5-.6-1.3-.8-2.3-.8-1 0-1.8.2-2.3.8a3 3 0 00-.9 2.2v3.8zm13.3 6.5H342v3.2h-13.4v-3.2zm16.8-10.4c0-.9.1-1.7.4-2.5.2-.7.6-1.3 1-1.9.5-.5 1-.9 1.7-1.2.7-.2 1.4-.4 2.2-.4 1.1 0 2 .3 2.8.8.7.5 1.1 1.2 1.3 2.2h.3v-1a8.7 8.7 0 01-.1-1.7v-4.8h3.5V704h-3.4v-2.7h-.3c-.2 1-.6 1.7-1.3 2.2a5.4 5.4 0 01-5 .4c-.6-.3-1.2-.7-1.6-1.3-.5-.5-.9-1.1-1.1-1.9a8 8 0 01-.4-2.5v-3.9zm3.5.1v3.7c0 1 .3 1.7.8 2.3a3 3 0 002.3.8c.9 0 1.6-.3 2.1-.8a3 3 0 00.9-2.2v-3.8a3 3 0 00-.9-2.2 3 3 0 00-2.1-.9 3 3 0 00-2.3.9 3 3 0 00-.8 2.2zm14 6.4h5.4v-9h-4.8v-3.2h8.2v12.2h4.5v3.2h-13.4v-3.2zm4.4-16.4c0-.5.2-1 .6-1.3a2 2 0 011.4-.5h.7c.6 0 1.1.2 1.5.5.4.3.5.8.5 1.3 0 .6-.1 1-.5 1.4a2 2 0 01-1.5.5h-.7a2 2 0 01-1.4-.5c-.4-.4-.6-.8-.6-1.4zm11.6 15.7h3.6c.1.4.4.8.9 1 .4.4 1 .5 1.7.5h1.1c1 0 1.6-.2 2-.5.5-.4.8-.8.8-1.4 0-1-.8-1.7-2.4-2l-2.2-.2c-1.7-.2-3-.7-3.9-1.4-.8-.8-1.2-1.8-1.2-3.2a4 4 0 011.5-3.4 7 7 0 014.4-1.2h1.1a7 7 0 014.1 1.1c1 .7 1.7 1.7 1.9 3h-3.6c-.1-.4-.4-.8-.8-1a3 3 0 00-1.6-.4h-1.1c-1.7 0-2.5.6-2.5 1.7 0 1 .7 1.6 2 1.8l2.3.3c1.9.2 3.2.7 4.1 1.5.9.8 1.3 1.8 1.3 3.2 0 1.6-.5 2.7-1.6 3.5-1 .9-2.6 1.3-4.6 1.3h-1c-1.9 0-3.3-.4-4.4-1.1-1-.8-1.7-1.8-1.9-3.1zm17.4-16.3h3.5v10.9h2.5l3.8-6.1h4l-4.8 7.5 4.8 7.9h-4l-3.8-6.3h-2.5v6.3h-3.5v-20.2z"/>
        <path fill="#3D4251" d="M415.7 691.3c0-1.4.2-2.6.6-3.8a10.3 10.3 0 014.6-5.6c1-.7 2.3-1.2 3.7-1.6v3.5c-.9.2-1.6.5-2.3 1-.6.4-1.2 1-1.7 1.6a9.2 9.2 0 00-1.4 4.9v5.3a8 8 0 001.4 4.8c1 1.3 2.3 2.2 4 2.6v3.5c-2.9-.7-5-2-6.6-4a10.6 10.6 0 01-2.3-6.9v-5.3zm14.1-2.7h3.4v2.7h.3c.2-1 .6-1.7 1.3-2.2a5.5 5.5 0 015-.4c.6.3 1.2.7 1.6 1.2.5.6.9 1.2 1.1 2 .3.7.4 1.5.4 2.4v3.9a8 8 0 01-.4 2.5c-.2.8-.6 1.4-1 2-.5.5-1 .9-1.7 1.2-.7.2-1.4.4-2.2.4-1.1 0-2-.3-2.8-.8a3.4 3.4 0 01-1.3-2.2h-.3v.4l.1.6a28.8 28.8 0 000 1.7v4.8h-3.5v-20.2zm3.6 5.8v3.8c0 .9.2 1.6.8 2.2.5.5 1.2.8 2.1.8a3 3 0 002.3-.8c.5-.6.8-1.4.8-2.3v-3.7a3 3 0 00-.8-2.2 3 3 0 00-2.3-.9c-.9 0-1.6.3-2.1.9a3 3 0 00-.8 2.2zm12.6 5.3a4.3 4.3 0 011.6-3.6c.6-.5 1.2-.8 2-1 .7-.3 1.5-.4 2.4-.4h3.9v-1.3a2 2 0 00-.8-1.7c-.5-.4-1.3-.6-2.2-.6a4 4 0 00-2 .4 2 2 0 00-1 1.2h-3.4a4.6 4.6 0 012-3.2c.6-.4 1.3-.7 2-.9a9.6 9.6 0 015 0 6 6 0 012.1 1 4.6 4.6 0 011.8 3.8V704H456v-3h-.3c-.1 1-.7 1.8-1.5 2.4-1 .6-2 .9-3.3.9-1.5 0-2.7-.4-3.6-1.3-1-.8-1.4-2-1.4-3.3zm3.5-.4c0 .7.3 1.2.7 1.6a3 3 0 002 .6c1 0 2-.2 2.6-.7.7-.5 1-1.2 1-2V697H452c-.7 0-1.4.2-1.8.6a2 2 0 00-.7 1.7zm13.2-10.7h4.2v-4.8h3.5v4.8h5.9v3.2h-5.9v7.4c0 .5.2 1 .4 1.2.3.3.7.4 1.3.4h3.9v3.2h-4.2c-1.5 0-2.7-.4-3.6-1.3-.8-.8-1.3-2-1.3-3.5v-7.4h-4.2v-3.2zm17.5-4.8h3.5v4.8a14.6 14.6 0 01-.2 2.4v.3h.3c.2-1 .6-1.7 1.3-2.2.7-.5 1.6-.8 2.8-.8 1.5 0 2.7.5 3.7 1.5.9 1 1.3 2.4 1.3 4.1V704h-3.5v-9.7a3 3 0 00-.7-2.2c-.5-.5-1.2-.8-2.1-.8-.9 0-1.6.3-2.1.9-.5.5-.8 1.3-.8 2.2v9.6h-3.5v-20.2zm18-3.5c1.4.4 2.6 1 3.7 1.6a11 11 0 014.6 5.6c.4 1.2.6 2.4.6 3.8v5.3c0 2.8-.7 5-2.3 7a12.2 12.2 0 01-6.6 3.9V704c.9-.2 1.6-.6 2.3-1a6.6 6.6 0 002.7-3.8c.3-.8.4-1.7.4-2.6v-5.3c0-1-.1-1.9-.4-2.7a6.5 6.5 0 00-5-4.8v-3.5z"/>
      </g>
      <g>
        <path fill="#3D4251" d="M1260.4 519.6h3.3v2.7h.3c.2-1 .6-1.7 1.3-2.2.7-.5 1.6-.8 2.8-.8 1.5 0 2.8.5 3.7 1.6a6 6 0 011.3 4V535h-3.5v-9.6c0-1-.2-1.7-.7-2.3-.5-.5-1.2-.8-2.1-.8-.9 0-1.6.3-2.1.9-.5.5-.8 1.3-.8 2.2v9.6h-3.5v-15.4zm15.7-1.7v-3.2h8.4V530c0 .6.1 1 .5 1.4.3.3.7.4 1.3.4h4.6v3.2h-4.9a5 5 0 01-3.7-1.3 4.9 4.9 0 01-1.3-3.7V518h-5zm18 1.7h3.3v2.7h.3c.2-1 .6-1.7 1.3-2.2a5.5 5.5 0 015-.4c.6.3 1.2.7 1.6 1.2.5.6.9 1.2 1.1 2 .3.7.4 1.5.4 2.4v3.9a8 8 0 01-.4 2.5c-.2.8-.6 1.4-1 2-.5.5-1 .9-1.7 1.2-.7.2-1.4.4-2.2.4-1.1 0-2-.3-2.8-.8a3.4 3.4 0 01-1.3-2.2h-.3v.4l.1.6a28.8 28.8 0 000 1.7v4.8h-3.5v-20.2zm3.5 5.8v3.8c0 .9.2 1.6.8 2.2.5.5 1.2.8 2.1.8a3 3 0 002.3-.8c.5-.6.8-1.4.8-2.3v-3.7a3 3 0 00-.8-2.2 3 3 0 00-2.3-.9c-.9 0-1.6.3-2.1.9a3 3 0 00-.8 2.2zm16.9 7.1c0-.8.2-1.5.7-2 .5-.5 1.2-.7 2-.7s1.5.2 2 .7c.5.5.7 1.2.7 2 0 .9-.2 1.5-.7 2-.5.5-1.2.8-2 .8s-1.5-.3-2-.8-.7-1.1-.7-2z"/>
        <path fill="#3AC" d="M1327.1 524.5v-3.2h4.2v-2a4 4 0 011.4-3.3c.9-.8 2-1.2 3.5-1.2h4.5v3.1h-4.4c-.4 0-.8.1-1 .4-.3.3-.4.6-.4 1v2h5.8v3.2h-5.8V535h-3.6v-10.5h-4.2zm21.3-4.9v2.7h.2c.2-1 .7-1.7 1.4-2.2a5 5 0 012.9-.8 5 5 0 013.9 1.6 6 6 0 011.4 4.2v1.1h-3.7v-.8c0-1-.3-1.7-.8-2.3a3 3 0 00-2.3-.8c-.9 0-1.6.3-2 .8-.6.6-.8 1.4-.8 2.3v9.6h-3.5v-15.4h3.3zm19.2 15.7c-1 0-2-.2-2.8-.5a5.5 5.5 0 01-3.5-3.2c-.2-.7-.4-1.5-.4-2.4v-3.8c0-1 .2-1.7.5-2.5a5.5 5.5 0 013.4-3.1 8.3 8.3 0 015.5 0 5.5 5.5 0 013.5 3.1c.3.8.5 1.6.5 2.5v3.8c0 .9-.2 1.7-.5 2.5a5.5 5.5 0 01-3.4 3.1c-.8.3-1.8.5-2.8.5zm-3.2-6.1c0 1 .3 1.6.9 2.2.5.5 1.3.8 2.3.8 1 0 1.8-.3 2.3-.8a3 3 0 00.9-2.2v-3.8a3 3 0 00-.9-2.2c-.5-.6-1.3-.8-2.3-.8-1 0-1.8.2-2.3.8a3 3 0 00-.9 2.2v3.8zm13 5.8v-15.4h2.8v2.2h.3c0-.7.3-1.4.7-1.8.5-.5 1-.7 1.8-.7.7 0 1.3.2 1.7.7.4.4.7 1 .8 1.8h.2c.1-.7.4-1.4.8-1.8.4-.5 1-.7 1.8-.7 1 0 1.7.4 2.3 1 .6.8.9 1.7.9 3V535h-3.2v-11.5c0-1.1-.4-1.7-1.3-1.7-.4 0-.8.1-1 .5-.2.3-.3.7-.3 1.3V535h-2.5v-11.5c0-.5-.2-1-.4-1.3-.3-.3-.6-.4-1-.4-.5 0-.8.1-1 .5-.2.3-.3.7-.3 1.3V535h-3.1zm17 .7h13.5v3.2h-13.4v-3.2zm17-10.4c0-.9 0-1.7.3-2.5.2-.7.6-1.3 1-1.9.5-.5 1-.9 1.7-1.2.7-.2 1.4-.4 2.2-.4 1.1 0 2 .3 2.8.8.7.5 1.1 1.2 1.3 2.2h.3v-1a8.7 8.7 0 01-.1-1.7v-4.8h3.5V535h-3.4v-2.7h-.3c-.2 1-.6 1.7-1.3 2.2a5.4 5.4 0 01-5 .4c-.6-.3-1.2-.7-1.6-1.3-.5-.5-.9-1.1-1.1-1.9a8 8 0 01-.4-2.5v-3.9zm3.4.1v3.7c0 1 .3 1.7.8 2.3a3 3 0 002.3.8c.9 0 1.6-.3 2.1-.8a3 3 0 00.9-2.2v-3.8a3 3 0 00-.9-2.2 3 3 0 00-2.1-.9 3 3 0 00-2.3.9 3 3 0 00-.8 2.2zm14 6.4h5.4v-9h-4.8v-3.2h8.2v12.2h4.5v3.2h-13.4v-3.2zm4.4-16.4c0-.5.2-1 .6-1.3a2 2 0 011.4-.5h.7c.6 0 1.1.2 1.5.5.4.3.5.8.5 1.3 0 .6-.1 1-.5 1.4a2 2 0 01-1.5.5h-.7a2 2 0 01-1.4-.5c-.4-.4-.6-.8-.6-1.4zm11.6 15.7h3.6c.1.4.4.8.9 1 .4.4 1 .5 1.7.5h1.1c1 0 1.6-.2 2-.5.5-.4.8-.8.8-1.4 0-1-.8-1.7-2.4-2l-2.2-.2c-1.7-.2-3-.7-3.9-1.4-.8-.8-1.2-1.8-1.2-3.2a4 4 0 011.5-3.4 7 7 0 014.4-1.2h1.1a7 7 0 014.1 1.1c1 .7 1.7 1.7 1.9 3h-3.6c-.1-.4-.4-.8-.8-1a3 3 0 00-1.6-.4h-1.1c-1.7 0-2.5.6-2.5 1.7 0 1 .7 1.6 2 1.8l2.3.3c1.9.2 3.2.7 4.1 1.5.9.8 1.3 1.8 1.3 3.2 0 1.6-.5 2.7-1.6 3.5-1 .9-2.6 1.3-4.6 1.3h-1c-1.9 0-3.3-.4-4.4-1.1-1-.8-1.7-1.8-1.9-3.1zm17.4-16.3h3.5v10.9h2.5l3.8-6.1h4l-4.8 7.5 4.8 7.9h-4l-3.8-6.3h-2.5v6.3h-3.5v-20.2z"/>
        <path fill="#3D4251" d="M1481.5 522.3c0-1.4.2-2.6.6-3.8a10.3 10.3 0 014.6-5.6c1-.7 2.3-1.2 3.7-1.6v3.5c-.9.2-1.6.5-2.3 1-.6.4-1.2 1-1.7 1.6a9.2 9.2 0 00-1.4 4.9v5.3a8 8 0 001.4 4.8c1 1.3 2.3 2.2 4 2.6v3.5c-2.9-.7-5-2-6.6-4a10.6 10.6 0 01-2.3-6.9v-5.3zm14.1-2.7h3.4v2.7h.3c.2-1 .6-1.7 1.3-2.2a5.5 5.5 0 015-.4c.6.3 1.2.7 1.6 1.2.5.6.9 1.2 1.1 2 .3.7.4 1.5.4 2.4v3.9a8 8 0 01-.4 2.5c-.2.8-.6 1.4-1 2-.5.5-1 .9-1.7 1.2-.7.2-1.4.4-2.2.4-1.1 0-2-.3-2.8-.8a3.4 3.4 0 01-1.3-2.2h-.3v.4l.1.6a28.8 28.8 0 000 1.7v4.8h-3.5v-20.2zm3.6 5.8v3.8c0 .9.2 1.6.8 2.2.5.5 1.2.8 2.1.8a3 3 0 002.3-.8c.5-.6.8-1.4.8-2.3v-3.7a3 3 0 00-.8-2.2 3 3 0 00-2.3-.9c-.9 0-1.6.3-2.1.9a3 3 0 00-.8 2.2zm12.6 5.3a4.3 4.3 0 011.6-3.6c.6-.5 1.2-.8 2-1 .7-.3 1.5-.4 2.4-.4h3.9v-1.3a2 2 0 00-.8-1.7c-.5-.4-1.3-.6-2.2-.6a4 4 0 00-2 .4 2 2 0 00-1 1.2h-3.4a4.6 4.6 0 012-3.2c.6-.4 1.3-.7 2-.9a9.6 9.6 0 015 0 6 6 0 012.1 1 4.6 4.6 0 011.8 3.8V535h-3.3v-3h-.3c-.1 1-.7 1.8-1.5 2.4-1 .6-2 .9-3.3.9-1.5 0-2.7-.4-3.6-1.3-1-.8-1.4-2-1.4-3.3zm3.5-.4c0 .7.3 1.2.7 1.6a3 3 0 002 .6c1 0 2-.2 2.6-.7.7-.5 1-1.2 1-2V528h-3.8c-.7 0-1.4.2-1.8.6a2 2 0 00-.7 1.7zm13.2-10.7h4.2v-4.8h3.5v4.8h5.9v3.2h-5.9v7.4c0 .5.2 1 .5 1.2.2.3.6.4 1.2.4h3.9v3.2h-4.2c-1.5 0-2.7-.4-3.6-1.3-.8-.8-1.3-2-1.3-3.5v-7.4h-4.2v-3.2zm17.5-4.8h3.5v4.8a14.6 14.6 0 01-.2 2.4v.3h.3c.2-1 .6-1.7 1.3-2.2.7-.5 1.6-.8 2.8-.8 1.5 0 2.7.5 3.7 1.5.9 1 1.3 2.4 1.3 4.1V535h-3.5v-9.7a3 3 0 00-.7-2.2c-.5-.5-1.2-.8-2.1-.8-.9 0-1.6.3-2.1.9-.5.5-.8 1.3-.8 2.2v9.6h-3.5v-20.2zm18-3.5c1.4.4 2.6 1 3.7 1.6a11 11 0 014.6 5.6c.4 1.2.6 2.4.6 3.8v5.3c0 2.8-.7 5-2.3 7a12.2 12.2 0 01-6.6 3.9V535c.9-.2 1.6-.6 2.3-1a6.6 6.6 0 002.7-3.8c.3-.8.4-1.7.4-2.6v-5.3c0-1-.1-1.9-.4-2.7a6.5 6.5 0 00-5-4.8v-3.5z"/>
      </g>
      <path fill="#FFF" d="M323 161.2l-1.8-.3c-.5-.2-1-.4-1.3-.8-.4-.3-.7-.7-.9-1.2a4 4 0 01-.3-1.6v-2.5c0-.6.1-1.1.3-1.6.2-.5.5-.9.9-1.2a4 4 0 011.3-.8 5.3 5.3 0 013.4 0 4 4 0 012.7 3.2h-2.2c-.1-.4-.3-.8-.7-1.1-.4-.3-.8-.4-1.4-.4-.6 0-1.1.1-1.5.5-.3.3-.5.8-.5 1.4v2.5c0 .6.2 1 .5 1.4.4.4.9.5 1.5.5.5 0 1-.1 1.4-.4.4-.3.6-.7.7-1.1h2.2c0 .5-.2 1-.5 1.4a4 4 0 01-2.2 1.8 5 5 0 01-1.6.3zm10.2 0l-1.8-.3a4 4 0 01-1.3-.8l-.9-1.2a4 4 0 01-.3-1.6v-2.5c0-.6.1-1.1.3-1.6a3.5 3.5 0 012.2-2l1.8-.3 1.8.3c.5.2 1 .4 1.3.8.4.3.7.7.9 1.2.2.5.3 1 .3 1.6v2.5l-.3 1.6a3.5 3.5 0 01-2.2 2c-.5.2-1.1.3-1.8.3zm-2-4c0 .7.1 1.1.5 1.5.4.3.9.5 1.5.5a2 2 0 001.5-.5c.4-.4.6-.8.6-1.4v-2.5c0-.6-.2-1-.6-1.4a2 2 0 00-1.5-.5 2 2 0 00-1.5.5c-.4.4-.6.8-.6 1.4v2.5zm8.2-6.1h2.1v1.7h.2c.1-.6.4-1 .8-1.4a3 3 0 011.8-.5c1 0 1.8.3 2.4 1 .6.7.9 1.5.9 2.6v6.5h-2.3v-6.2c0-.6-.1-1-.5-1.4-.3-.4-.7-.5-1.3-.5-.6 0-1 .1-1.4.5a2 2 0 00-.5 1.4v6.2h-2.2v-9.9zm10 3.1v-2h2.7v-1.3c0-.9.3-1.6.8-2.1.6-.5 1.4-.8 2.3-.8h3v2h-3a1 1 0 00-.6.3c-.2.1-.2.3-.2.6v1.3h3.7v2h-3.7v6.8H352v-6.8h-2.7zm10.8 4.7h3.5v-5.8h-3v-2h5.2v7.8h2.9v2.1h-8.6v-2zm2.9-10.5c0-.3.1-.6.3-.8.3-.3.6-.4 1-.4h.4c.4 0 .7.1 1 .4.2.2.3.5.3.8 0 .4-.1.7-.3.9-.3.2-.6.3-1 .3h-.4c-.4 0-.7-.1-1-.3-.2-.2-.3-.5-.3-.9zm7 6.4c0-.6 0-1.1.2-1.6.1-.5.4-.9.7-1.2a3 3 0 011-.8l1.5-.3a3 3 0 011.8.6c.5.3.8.8.9 1.4h.1v-1.8h2.2v9.3c0 .6-.1 1-.3 1.5-.2.5-.5.9-.8 1.2l-1.3.7c-.5.2-1.1.3-1.7.3h-2.7v-2h2.7c.5 0 1 0 1.3-.4.4-.3.5-.7.5-1.3v-.2l.1-1.9h-.1c-.1.6-.4 1.1-1 1.5a3 3 0 01-1.7.5c-.6 0-1 0-1.4-.3a3.2 3.2 0 01-1.8-2c-.2-.4-.3-1-.3-1.5v-1.7zm2.2 1.6c0 .6.2 1 .5 1.4.4.4.9.5 1.5.5s1-.1 1.4-.5c.4-.3.5-.8.5-1.4v-1.6c0-.6-.1-1-.5-1.4a2 2 0 00-1.4-.5 2 2 0 00-1.5.5 2 2 0 00-.5 1.4v1.6zm10.7 3c0-.5.1-1 .4-1.3.3-.3.8-.4 1.3-.4s1 .1 1.3.4c.3.3.4.8.4 1.3s-.1 1-.4 1.3c-.3.3-.8.5-1.3.5s-1-.2-1.3-.5c-.3-.3-.4-.8-.4-1.3zm12.1 1.8l-1.8-.3c-.5-.2-1-.4-1.3-.8-.4-.3-.7-.7-.9-1.2a4 4 0 01-.3-1.6v-2.5c0-.6.1-1.1.3-1.6.2-.5.5-.9.9-1.2a4 4 0 011.3-.8 5.3 5.3 0 013.4 0 4 4 0 012.7 3.2h-2.2c-.1-.4-.3-.8-.7-1-.4-.4-.8-.5-1.4-.5-.6 0-1.1.1-1.5.5-.3.3-.5.8-.5 1.4v2.5c0 .6.2 1 .5 1.4.4.4.9.5 1.5.5.5 0 1-.1 1.4-.4.4-.3.6-.7.7-1.1h2.2c0 .5-.2 1-.5 1.4a4 4 0 01-2.2 1.8 5 5 0 01-1.6.3zm5.8-7v-2h2.7v-1.3c0-.9.3-1.6.8-2 .6-.6 1.4-.9 2.3-.9h3v2h-3a1 1 0 00-.6.3c-.2.1-.2.3-.2.6v1.3h3.7v2H406v6.8h-2.3v-6.8h-2.7zm10.3.6c0-.6.1-1.1.3-1.6.1-.5.4-.9.7-1.2a3 3 0 011-.8l1.5-.3a3 3 0 011.8.6c.5.3.8.8.9 1.4h.1v-1.8h2.2v9.3c0 .6-.1 1-.3 1.5-.2.5-.5.9-.8 1.2l-1.3.7c-.5.2-1.1.3-1.7.3h-2.7v-2h2.7c.5 0 1 0 1.3-.4.4-.3.5-.7.5-1.3v-.2l.1-1.9h-.1c-.1.6-.4 1.1-1 1.5a3 3 0 01-1.7.5c-.6 0-1 0-1.4-.3a3.2 3.2 0 01-1.8-2c-.2-.4-.3-1-.3-1.5v-1.7zm2.3 1.6c0 .6.2 1 .5 1.4.4.4.9.5 1.5.5s1-.1 1.4-.5c.4-.3.5-.8.5-1.4v-1.6c0-.6-.1-1-.5-1.4a2 2 0 00-1.4-.5 2 2 0 00-1.5.5 2 2 0 00-.5 1.4v1.6zM323.7 253v4.5H315V282h-5.4v-24.5h-8.8v-4.4h22.9zm-1.2 29v-20.5h2.9c.5 0 .9 0 1 .3.3.1.4.5.5 1l.3 2.4a9.7 9.7 0 012.5-3c1-.7 2.1-1.1 3.4-1.1 1 0 1.8.2 2.5.7l-.7 3.7c0 .2 0 .4-.2.5l-.6.2-.8-.2-1.4-.1c-1 0-1.9.3-2.6.8-.7.6-1.4 1.4-1.9 2.5V282h-5zm30.7 0H351c-.5 0-.8 0-1.1-.2-.3-.2-.5-.4-.6-.9l-.4-1.4a17 17 0 01-3.1 2.1 8 8 0 01-1.7.5 10.2 10.2 0 01-4.4-.1l-2-1a6.2 6.2 0 01-1.7-4.2c.1-.8.3-1.6.7-2.3.4-.8 1.1-1.5 2-2a13 13 0 013.8-1.6c1.6-.4 3.6-.6 5.9-.7V269c0-1.3-.3-2.3-.9-3-.5-.7-1.4-1-2.5-1a6.1 6.1 0 00-3.4 1l-1 .5-1.2.3c-.3 0-.6 0-.8-.2a2 2 0 01-.6-.7l-1-1.6c2.4-2.1 5.3-3.2 8.6-3.2 1.2 0 2.3.2 3.2.6a6.8 6.8 0 014 4.1c.3 1 .4 2 .4 3.2v13zm-9.6-3l1.4-.2a5.3 5.3 0 002.3-1.1l1.1-1v-3.5a27 27 0 00-3.6.4c-1 .2-1.8.4-2.3.7a3 3 0 00-1.3 1c-.2.4-.4.8-.4 1.2 0 .9.3 1.5.8 1.9.5.3 1.2.5 2 .5zm18.6-17.5V282h-5v-20.5h5zm.8-6l-.3 1.2a3.3 3.3 0 01-1.7 1.6 3.1 3.1 0 01-3.4-.6l-.7-1a3.1 3.1 0 01.7-3.4 3.2 3.2 0 012.2-1l1.2.3a3.3 3.3 0 011.7 1.7c.2.3.3.8.3 1.2zm3.7 26.5v-20.5h3c.7 0 1 .3 1.3.9l.3 1.6a11.3 11.3 0 012.8-2 7.4 7.4 0 013.6-.8c1 0 2 .1 3 .5.8.4 1.5 1 2.1 1.6a7 7 0 011.3 2.5c.3 1 .5 2 .5 3.1V282h-5v-13c0-1.3-.2-2.3-.8-3-.6-.7-1.5-1-2.6-1-.9 0-1.7.2-2.4.6-.8.4-1.5.9-2.2 1.6V282h-4.9zm26.9-20.5V282h-5v-20.5h5zm.7-6c0 .4 0 .8-.2 1.2a3.3 3.3 0 01-1.7 1.7 3.1 3.1 0 01-3.5-.7c-.3-.3-.5-.6-.6-1a3.1 3.1 0 01.7-3.4 3.2 3.2 0 012.1-1c.5 0 .9.1 1.3.3a3.3 3.3 0 011.7 1.7l.2 1.2zm3.8 26.5v-20.5h3c.6 0 1 .3 1.2.9l.4 1.6a11.3 11.3 0 012.7-2 7.4 7.4 0 013.6-.8c1.1 0 2.1.1 3 .5.9.4 1.6 1 2.2 1.6a7 7 0 011.3 2.5c.3 1 .4 2 .4 3.1V282H411v-13c0-1.3-.3-2.3-.9-3-.6-.7-1.4-1-2.6-1-.8 0-1.6.2-2.4.6-.7.4-1.4.9-2.1 1.6V282h-5zm28.7-20.9c.9 0 1.7.1 2.5.3.7.2 1.4.4 2 .8h6v1.8c0 .3 0 .6-.3.7-.1.2-.4.3-.8.4l-1.8.3a6.4 6.4 0 01.4 2.4 6.1 6.1 0 01-2.3 4.8c-.7.6-1.5 1-2.5 1.3a10.4 10.4 0 01-5.5.3c-.6.4-1 .8-1 1.3 0 .4.3.7.6.9l1.5.4 2.1.2a44 44 0 014.9.4l2.1.8c.6.4 1.1.9 1.5 1.5.4.6.6 1.4.6 2.4 0 .9-.3 1.8-.7 2.6a7 7 0 01-2 2.3c-.8.7-1.8 1.2-3 1.6a16.2 16.2 0 01-8.3.2 9.5 9.5 0 01-2.9-1.2c-.7-.5-1.3-1.1-1.7-1.8a4 4 0 01-.5-2c0-1 .3-1.8.9-2.4a6 6 0 012.4-1.6c-.5-.3-1-.6-1.2-1.1-.3-.5-.5-1-.5-1.8 0-.3 0-.6.2-1 0-.3.3-.6.5-1l.8-.8c.3-.3.7-.6 1.2-.8-1-.6-1.9-1.3-2.5-2.3a6 6 0 01-.9-3.2 6.1 6.1 0 012.4-4.9c.7-.6 1.5-1 2.5-1.3 1-.3 2.1-.5 3.3-.5zm5.4 21.8c0-.4-.1-.7-.4-1l-1-.6-1.4-.3a26.7 26.7 0 00-3.7-.2l-1.9-.2c-.5.3-1 .7-1.3 1.1-.4.4-.5 1-.5 1.5 0 .3 0 .7.2 1 .2.3.5.6.9.8l1.5.5 2.3.2c1 0 1.7 0 2.4-.2s1.2-.3 1.7-.6c.4-.2.7-.5 1-.9l.2-1zm-5.4-11.7c.6 0 1.1 0 1.6-.2l1.1-.7.7-1c.2-.5.2-1 .2-1.4 0-1-.3-1.8-.9-2.4-.6-.6-1.5-1-2.7-1-1.2 0-2.1.4-2.7 1-.7.6-1 1.4-1 2.4 0 .5.1 1 .3 1.3a3 3 0 001.8 1.8c.5.2 1 .2 1.6.2zM1352.8 273.7V285h-5.3v-29h8.8c2 0 3.6.3 5 .7 1.5.4 2.6 1 3.5 1.7 1 .7 1.6 1.6 2 2.6.4 1 .6 2.2.6 3.4a8.7 8.7 0 01-1.7 5.1c-.5.7-1.2 1.3-2 1.9-.7.5-1.6 1-2.7 1.3.7.3 1.3.9 1.8 1.6l7.2 10.7h-4.8c-.5 0-.9 0-1.2-.3-.3-.2-.6-.4-.8-.8l-6.1-9.2c-.2-.4-.5-.6-.8-.8l-1.2-.2h-2.3zm0-3.9h3.4c1 0 1.9 0 2.6-.3l2-1a5.5 5.5 0 001.4-3.6c0-1.6-.5-2.7-1.5-3.5-1-.8-2.4-1.2-4.4-1.2h-3.5v9.6zm23.8-5.3v13c0 1.3.3 2.2.9 3 .6.6 1.4 1 2.6 1 .8 0 1.6-.2 2.4-.6.7-.4 1.4-1 2.1-1.6v-14.8h5V285h-3c-.7 0-1.1-.3-1.3-.9l-.4-1.6-1.3 1.1a8 8 0 01-5 1.7c-1.1 0-2.1-.2-3-.6a6 6 0 01-2.2-1.6 7 7 0 01-1.3-2.4c-.3-1-.4-2-.4-3.2v-13h5zm17.1 20.5v-20.5h3c.7 0 1.1.3 1.3.9l.3 1.6a11.3 11.3 0 012.8-2 7.4 7.4 0 013.6-.8c1.1 0 2 .1 3 .5.8.4 1.5 1 2.1 1.6a7 7 0 011.3 2.5c.3 1 .5 2 .5 3.1V285h-5v-13c0-1.3-.2-2.3-.8-3-.6-.7-1.5-1-2.6-1-.9 0-1.7.2-2.4.6-.8.4-1.5.9-2.1 1.6V285h-5zm28.4.3c-1.8 0-3.2-.5-4.1-1.5-1-1-1.5-2.4-1.5-4.2v-11.4h-2a1 1 0 01-.7-.3c-.2-.2-.3-.4-.3-.8v-2l3.3-.5 1-5.6c0-.2.2-.4.4-.6l.7-.2h2.6v6.5h5.4v3.5h-5.4v11.1c0 .6.1 1.1.5 1.5.3.4.7.5 1.2.5h.8a4.2 4.2 0 001-.5l.3-.1h.4l.3.4 1.5 2.4c-.8.6-1.6 1-2.5 1.4-1 .3-2 .4-3 .4zm12.9-20.8V285h-5v-20.5h5zm.7-6c0 .4 0 .8-.2 1.2a3.3 3.3 0 01-1.7 1.7 3.1 3.1 0 01-3.5-.7l-.7-1a3.1 3.1 0 01.7-3.4 3.2 3.2 0 012.2-1c.5 0 .9.1 1.3.3a3.3 3.3 0 011.7 1.7l.2 1.2zm3.7 26.5v-20.5h3c.7 0 1.1.3 1.3.9l.3 1.5 1.2-1.1a7.3 7.3 0 012.7-1.4c.5-.2 1-.2 1.7-.2 1.3 0 2.3.3 3.2 1 .8.7 1.4 1.6 1.8 2.8a6.3 6.3 0 012.8-3l1.8-.6a8.8 8.8 0 015 .3c.9.3 1.6.8 2.2 1.5.6.7 1 1.5 1.4 2.4.3 1 .5 2.1.5 3.3V285h-5v-13c0-1.4-.3-2.3-.8-3-.6-.7-1.4-1-2.6-1-.5 0-1 0-1.4.3a3.4 3.4 0 00-1.9 2c-.2.4-.3 1-.3 1.6V285h-5v-13c0-1.4-.2-2.4-.7-3-.6-.7-1.4-1-2.5-1a4 4 0 00-2 .5c-.6.4-1.2.9-1.7 1.5v15h-5zm41-20.8c1.4 0 2.6.2 3.7.6a7.8 7.8 0 014.6 4.7 11 11 0 01.6 4.9c0 .2 0 .4-.2.6l-.3.3h-13.2c.1 2.2.7 3.7 1.7 4.7s2.2 1.5 3.9 1.5c.8 0 1.5-.1 2-.3l1.6-.6 1.1-.6a2 2 0 011-.3l.5.1.4.3 1.4 1.8-1.8 1.7a10.3 10.3 0 01-4.4 1.5l-2.3.2a11 11 0 01-4-.7 9 9 0 01-3.1-2.1c-1-1-1.7-2-2.2-3.4a13.3 13.3 0 010-8.8 9.2 9.2 0 015-5.4c1.2-.5 2.6-.7 4-.7zm.2 3.5c-1.4 0-2.6.4-3.4 1.2a6 6 0 00-1.5 3.5h9.2c0-.7 0-1.3-.2-1.8-.2-.6-.5-1-.8-1.5-.4-.4-.8-.8-1.4-1-.5-.3-1.2-.4-2-.4zM1382.6 66.5l-.6-.6-.2-.7.1-.7c0-.3.2-.5.4-.7l.9-.9.6-.5.7-.1c.2 0 .5 0 .7.2a2.5 2.5 0 011.2 1 2 2 0 01-.1 2l-.8-.6c.1-.2.2-.4.1-.7a1 1 0 00-.3-.6 1 1 0 00-.7-.3c-.2 0-.5.1-.7.3l-.8 1c-.2.1-.3.4-.3.6l.4.7.6.3c.3 0 .5 0 .6-.2l.8.7a1.9 1.9 0 01-2 .2c-.2 0-.4-.2-.6-.4zm3.5 3.4l-.5-.7-.2-.7.1-.7c0-.3.2-.5.4-.7l.8-.9.6-.4a1.7 1.7 0 011.5 0l.7.5.5.7c.2.2.2.4.3.7l-.1.7-.5.7-.8.8a2 2 0 01-.6.5 1.7 1.7 0 01-1.4 0l-.8-.5zm.6-2c-.2.1-.3.4-.3.6 0 .3.2.5.4.7a.9.9 0 001.4 0l.7-.9c.2-.2.3-.4.3-.7a1 1 0 00-.3-.6 1 1 0 00-.7-.3c-.3 0-.5 0-.7.3l-.8.8zm5 .5l.7.7-.6.6c.3-.2.6-.2.8-.2.3 0 .6.2.8.4.4.4.5.7.5 1.2 0 .4-.2.8-.5 1.2l-2.2 2.2-.7-.7 2-2.2.3-.6c0-.3-.1-.5-.3-.7a.8.8 0 00-.7-.2 1 1 0 00-.6.3l-2 2.2-.8-.7 3.2-3.5zm2.4 4.3l.7-.7 1 1 .4-.6c.2-.3.6-.4 1-.4.3 0 .6.2 1 .5l1 1-.6.6-1-.9a.5.5 0 00-.4-.1l-.3.1-.4.5 1.3 1.2-.6.7-1.4-1.2-2.2 2.3-.8-.7 2.3-2.4-1-.9zm2.3 5.2l1.2 1.2 1.9-2-1-1 .6-.8 1.8 1.8-2.5 2.7 1 1-.7.7-3-2.8.7-.8zm4.4-2.7l.4-.2c.2 0 .3 0 .5.2l.1.1c.2.2.2.3.2.5l-.1.4-.4.2-.5-.2-.1-.2a.6.6 0 01-.2-.4l.1-.4zm.4 4.5l.6-.5.6-.2.7.1c.2 0 .4.2.5.4.3.2.5.5.5.8l-.1.8.6-.6.7.7-3 3.2-.6.5-.7.1c-.2 0-.4 0-.7-.2-.2 0-.4-.2-.6-.4l-1-.9.6-.7 1 1 .6.2.6-.3.7-.7a1 1 0 01-.8.2c-.3 0-.6-.2-.8-.4l-.4-.6a1.5 1.5 0 010-1.3c0-.2.2-.4.4-.6l.6-.6zm.2 1.3a1 1 0 00-.2.7c0 .2 0 .4.3.6.2.2.4.3.7.3.2 0 .4 0 .6-.3l.5-.6.3-.6a1 1 0 00-.3-.7 1 1 0 00-.7-.3 1 1 0 00-.6.4l-.6.5zm2.8 4.6l.6-.3c.2 0 .4 0 .6.2l.3.6-.3.6-.6.3c-.2 0-.4 0-.6-.3a.8.8 0 01-.3-.5c0-.3.1-.5.3-.6zm3.7 4.6l-.6-.7-.2-.7.1-.7.4-.7.9-.9.6-.5.7-.1c.2 0 .5 0 .7.2a2.5 2.5 0 011.2 1 2 2 0 010 2l-.9-.6c.1-.2.2-.4.1-.7a1 1 0 00-.3-.6 1 1 0 00-.7-.3l-.6.3-.9 1c-.2.1-.3.4-.2.6 0 .2 0 .5.3.7l.6.3c.3 0 .5 0 .6-.2l.8.7a1.9 1.9 0 01-2 .2l-.6-.3zm4.3-.6l.6-.7 1 .9.4-.5c.3-.3.6-.4 1-.4s.7.1 1 .4l1 1-.6.7-1-1a.5.5 0 00-.3 0h-.3l-.4.5 1.3 1.3-.6.7-1.4-1.3-2.2 2.4-.8-.7 2.2-2.4-1-.9zm3.4 3.6l.6-.5.7-.2h.6l.6.5c.3.2.4.5.5.7 0 .3 0 .6-.2.8l.6-.5.8.7-3 3.2-.6.5-.7.1c-.2 0-.5 0-.7-.2l-.7-.4-1-1 .7-.6 1 .9c.1.2.3.3.6.3l.6-.3.7-.7a1 1 0 01-.9.2c-.2 0-.5-.2-.8-.5l-.4-.5a1.5 1.5 0 010-1.3l.5-.6.5-.6zm.3 1.3a1 1 0 00-.3.7c0 .2.1.4.4.6l.6.3c.3 0 .5-.1.7-.3l.5-.6.3-.6a1 1 0 00-.4-.7 1 1 0 00-.6-.3 1 1 0 00-.7.3l-.5.6z"/>
    </g>
  </g>
</svg>
