<svg xmlns="http://www.w3.org/2000/svg" width="1088" height="175" viewBox="0 0 1088 175">
  <g fill="none" fill-rule="evenodd">
    <path fill="#F2D7B2" stroke="#F0A439" stroke-linejoin="round" stroke-width="3.8" d="M17 50h148.6l23.4 50.6-23.4 48.4H17l23.4-48.3z"/>
    <path fill="#F2E7A6" stroke="#CDB217" stroke-linejoin="round" stroke-width="3.8" d="M151 50h134.6l23.4 50.6-23.4 48.4H151l23.4-48.3zM665 50h134.6l23.4 50.6-23.4 48.4H665l23.4-48.3z"/>
    <path fill="#E3D582" stroke="#CDB217" stroke-linejoin="round" stroke-width="3.8" d="M823 101l-23.4 48H665l23.4-47.9z"/>
    <path fill="#D7E99A" stroke="#B2D73A" stroke-linejoin="round" stroke-width="3.8" d="M276 50h134.6l23.4 50.6-23.4 48.4H276l23.4-48.3zM790 50h134.6l23.4 50.6-23.4 48.4H790l23.4-48.3z"/>
    <path fill="#C9DF81" stroke="#B2D73A" stroke-linejoin="round" stroke-width="3.8" d="M948 101l-23.4 48H790l23.4-47.9z"/>
    <path fill="#B5F3D4" stroke="#3AD787" stroke-linejoin="round" stroke-width="3.8" d="M401 50h134.6l23.4 50.6-23.4 48.4H401l23.4-48.3zM915 50h134.6l23.4 50.6-23.4 48.4H915l23.4-48.3z"/>
    <path fill="#8FE5B9" stroke="#3AD787" stroke-linejoin="round" stroke-width="3.8" d="M1073 101l-23.4 48H915l23.4-47.9z"/>
    <rect width="84" height="22" x="240" y="13" fill="#F0A439" rx="9"/>
    <rect width="130" height="22" x="820" y="13" fill="#F0A439" rx="9"/>
    <g fill-rule="nonzero">
      <path fill="#3D4251" d="M60.9 107.2c-1.1 0-2-.3-2.6-1-.6-.6-.9-1.4-.9-2.5v-7.2h-1.3c-.2 0-.3 0-.4-.2-.2 0-.2-.2-.2-.5v-1.2l2-.3.7-3.5.2-.4.5-.2h1.6v4h3.4v2.3h-3.4v7c0 .3 0 .6.3.9.2.2.5.3.8.3h.5a2.6 2.6 0 00.6-.3l.2-.1h.2l.2.3 1 1.5-1.6.8-1.8.3zM71.8 94c1 0 1.8.1 2.6.4a5.6 5.6 0 013.3 3.4c.3.8.4 1.8.4 2.8 0 1-.1 1.9-.4 2.7a5.5 5.5 0 01-3.3 3.4 7 7 0 01-2.6.5 7 7 0 01-2.6-.5 5.6 5.6 0 01-3.3-3.4 7.8 7.8 0 010-5.5c.3-.8.7-1.5 1.3-2 .5-.6 1.2-1 2-1.4a7 7 0 012.6-.4zm0 10.8c1 0 1.9-.3 2.4-1 .5-.8.7-1.8.7-3.2 0-1.4-.2-2.4-.7-3.2-.5-.7-1.3-1-2.4-1-1 0-1.9.3-2.4 1-.5.8-.8 1.8-.8 3.2 0 1.4.3 2.4.8 3.1.5.8 1.3 1.1 2.4 1.1zm11.9-16.4v10.7h.5l.5-.1.4-.3 3.2-4 .4-.4.7-.1h2.8l-4 4.7-.4.5-.5.4.4.4.4.6 4.3 6.2h-2.8l-.6-.1c-.2-.1-.3-.2-.4-.5l-3.3-4.8a1 1 0 00-.4-.4h-1.2v5.8h-3.1V88.4h3zm16.5.3c.8 0 1.6.1 2.3.4.7.2 1.3.6 1.8 1 .5.5.8 1 1.1 1.7a5.6 5.6 0 01.1 4c-.2.5-.4 1-.8 1.5-.3.6-.7 1-1.1 1.5l-1.4 1.5-4 4.2a9.9 9.9 0 012.2-.4h4.6c.4 0 .6.1.8.3.2.2.3.4.3.8v1.8H93.7v-1a1.8 1.8 0 01.6-1.3l5.5-5.5a26 26 0 002.1-2.6c.3-.4.4-.8.6-1.3l.2-1.3-.2-1.2a2.2 2.2 0 00-1.4-1.3l-1-.2c-.8 0-1.4.2-2 .6a3 3 0 00-1 1.5c0 .3-.1.5-.3.7l-.7.2h-.4L94 94c.2-.9.4-1.7.8-2.3A5.5 5.5 0 0198 89c.7-.3 1.4-.4 2.2-.4zm15 18.3h-2.8l-5-12.8h2.5l.6.1.3.5 2.5 6.8a12.9 12.9 0 01.6 2.3 22.8 22.8 0 01.6-2.3l2.5-6.8.4-.5.5-.1h2.4l-5 12.8zm12.3-13c.8 0 1.5.1 2.2.4a4.9 4.9 0 012.9 3 6.9 6.9 0 01.4 3l-.1.3-.3.2h-8.3c.2 1.4.5 2.4 1.1 3 .7.6 1.5.9 2.5.9.5 0 1 0 1.3-.2a22 22 0 001.7-.8l.5-.1h.4l.2.3.9 1c-.3.5-.7.8-1.2 1a6.4 6.4 0 01-2.7 1c-.5.2-1 .2-1.4.2-.9 0-1.7-.2-2.5-.5-.7-.3-1.4-.7-2-1.3-.5-.5-1-1.3-1.3-2.1a8.3 8.3 0 010-5.5 5.7 5.7 0 013.2-3.4c.6-.3 1.5-.4 2.5-.4zm0 2.2c-.9 0-1.6.2-2 .8-.6.5-1 1.2-1 2.1h5.7l-.1-1.1-.5-1-.9-.6-1.2-.2zm17 .7l-.2.3h-.9a14.9 14.9 0 00-1.3-.7l-1-.2c-.6 0-1 .1-1.5.3-.4.2-.7.5-1 .9l-.6 1.3-.2 1.8.2 1.8c.2.5.4 1 .7 1.3.3.4.6.7 1 .9l1.3.2a3.3 3.3 0 002-.5l.5-.4c.2-.2.3-.2.5-.2.3 0 .5 0 .6.3l.9 1a5.6 5.6 0 01-2.4 1.7l-1.3.4h-1.4c-.8 0-1.5 0-2.2-.4-.7-.3-1.3-.7-1.8-1.3-.6-.5-1-1.2-1.3-2a8 8 0 01-.4-2.8c0-1 .1-1.9.4-2.7a5.5 5.5 0 013.1-3.5c.8-.3 1.7-.4 2.7-.4 1 0 1.8.1 2.5.4.7.3 1.4.8 2 1.4l-.9 1zM209.8 107V94.2h1.8c.4 0 .7.2.8.5l.2 1a7 7 0 011.8-1.2 4.6 4.6 0 012.2-.5c.7 0 1.3 0 1.9.3.5.3 1 .6 1.3 1 .4.5.7 1 .8 1.6.2.6.3 1.2.3 2v8.1h-3v-8.2c0-.7-.2-1.4-.6-1.8-.4-.4-1-.6-1.6-.6-.6 0-1 .1-1.5.3l-1.4 1v9.3h-3zm19.5-13c.8 0 1.5.1 2.2.4a4.9 4.9 0 013 3 6.9 6.9 0 01.3 3l-.1.3-.2.2H226c.2 1.4.5 2.4 1.1 3 .7.6 1.5.9 2.5.9.5 0 1 0 1.3-.2a22 22 0 001.7-.8l.5-.1h.4l.2.3 1 1c-.4.5-.8.8-1.2 1a6.4 6.4 0 01-2.8 1c-.5.2-1 .2-1.4.2-.9 0-1.7-.2-2.5-.5-.7-.3-1.4-.7-2-1.3-.5-.5-1-1.3-1.3-2.1a8.3 8.3 0 010-5.5 5.7 5.7 0 013.2-3.4c.7-.3 1.5-.4 2.5-.4zm0 2.2c-.9 0-1.6.2-2 .8-.6.5-1 1.2-1 2.1h5.7L232 98l-.5-1-.9-.6-1.2-.2zm8 10.8V94.2h1.8l.7.1.3.7.1 1.5a6 6 0 011.7-1.9c.6-.4 1.3-.7 2-.7s1.2.2 1.6.5l-.4 2.3c0 .1 0 .2-.2.3l-.3.1h-.5l-.9-.2c-.6 0-1.2.2-1.6.6a4 4 0 00-1.2 1.5v8h-3zM717.8 83V70.2h1.8c.4 0 .7.2.8.5l.2 1a7 7 0 011.8-1.2 4.6 4.6 0 012.2-.5c.7 0 1.3 0 1.9.3.5.3 1 .6 1.3 1 .4.5.7 1 .9 1.6l.2 2V83h-3v-8.2c0-.7-.2-1.4-.6-1.8-.4-.4-1-.6-1.6-.6-.6 0-1 .1-1.5.3l-1.4 1V83h-3zm19.5-13c.8 0 1.5.1 2.2.4a4.9 4.9 0 013 3 6.9 6.9 0 01.3 3l-.1.3-.2.2H734c.2 1.4.5 2.4 1.1 3 .7.6 1.5.9 2.5.9.5 0 1 0 1.3-.2a22 22 0 001.7-.8l.5-.1h.4l.2.3 1 1c-.4.5-.8.8-1.2 1a6.4 6.4 0 01-2.8 1c-.5.2-1 .2-1.4.2-.9 0-1.7-.2-2.5-.5-.7-.3-1.4-.7-2-1.3-.5-.5-1-1.3-1.3-2.1a8.3 8.3 0 010-5.5 5.7 5.7 0 013.2-3.4c.7-.3 1.5-.4 2.5-.4zm0 2.2c-.9 0-1.6.2-2 .8-.6.5-1 1.2-1 2.1h5.7L740 74l-.5-1-.9-.6-1.2-.2zm8 10.8V70.2h1.8l.7.1.3.6.1 1.6a6 6 0 011.7-1.9c.6-.4 1.3-.7 2-.7s1.2.2 1.6.5l-.4 2.3c0 .1 0 .2-.2.3l-.3.1h-.5l-.9-.2c-.6 0-1.2.2-1.6.6a4 4 0 00-1.2 1.5v8h-3zM712 131.1c-.8 0-1.4-.2-1.8-.6-.4-.5-.7-1.1-.7-2v-5h-.9l-.3-.2-.1-.3v-1l1.4-.2.5-2.5.2-.3h1.5v2.8h2.4v1.6h-2.4v5c0 .3 0 .5.2.7.1.2.3.3.6.3l.3-.1a2 2 0 00.4-.2h.4v.1l.8 1.1c-.4.3-.7.5-1.2.6-.4.2-.8.2-1.3.2zm8-9.5a5 5 0 011.8.4 4 4 0 012.3 2.4c.3.6.4 1.2.4 2 0 .7-.1 1.4-.4 2-.2.5-.5 1-.9 1.4a4 4 0 01-1.4 1 5 5 0 01-1.9.3c-.7 0-1.3 0-1.9-.3a4 4 0 01-2.3-2.5c-.3-.5-.4-1.2-.4-2 0-.7.1-1.3.4-2a4 4 0 012.4-2.4c.5-.2 1.1-.3 1.8-.3zm0 7.8c.7 0 1.2-.2 1.6-.7.4-.6.6-1.3.6-2.3a4 4 0 00-.6-2.3c-.4-.5-1-.8-1.7-.8-.8 0-1.3.3-1.7.8-.4.5-.6 1.3-.6 2.3 0 1 .2 1.7.6 2.2.4.6 1 .8 1.7.8zm8.4-11.8v7.7h.8l.3-.3 2.3-2.8c0-.2.2-.3.3-.3l.5-.1h2l-2.9 3.4a4 4 0 01-.3.3 2 2 0 01-.4.3l.4.3c0 .2.2.3.3.4l3 4.5h-2a1 1 0 01-.4 0 .9.9 0 01-.3-.4l-2.4-3.5-.2-.3h-1v4.2h-2.2v-13.4h2.2zm12 .2c.6 0 1.1.1 1.6.3.5.2 1 .4 1.3.8l.8 1.1c.2.5.3 1 .3 1.6 0 .4 0 .9-.2 1.3l-.6 1.2-.8 1-1 1-3 3a7.1 7.1 0 011.7-.2h3.3l.6.2c.2.2.2.3.2.6v1.3h-9v-.7a1.3 1.3 0 01.5-1l4-4a18.7 18.7 0 001.5-1.8l.4-.9.1-1-.1-.8a1.6 1.6 0 00-1-1h-.8a2 2 0 00-1.3.3c-.3.3-.6.7-.7 1.1 0 .2-.2.4-.3.5l-.5.1h-.3l-1.2-.2.5-1.6a4 4 0 012.3-2l1.7-.2zm10.8 13.2h-2l-3.7-9.2h2.3l.2.4 1.8 5a9.3 9.3 0 01.4 1.6 16.4 16.4 0 01.5-1.7l1.8-5 .2-.2.4-.1h1.8l-3.7 9.2zm8.8-9.4c.6 0 1.1.1 1.6.3a3.5 3.5 0 012 2.1 5 5 0 01.4 2.2l-.1.3-.2.1h-5.9c0 1 .3 1.7.7 2.2.5.4 1 .6 1.8.6l1-.1.6-.3c.2 0 .4-.2.5-.3h.7l.2.1.6.8c-.2.3-.5.6-.8.7a4.6 4.6 0 01-2 .8h-1a5 5 0 01-1.8-.3 4 4 0 01-1.4-1c-.4-.3-.8-.9-1-1.5a6 6 0 010-3.9l.8-1.4c.4-.5.9-.8 1.4-1 .6-.3 1.2-.4 1.9-.4zm0 1.6a2 2 0 00-1.5.6c-.4.3-.6.8-.7 1.5h4.2l-.1-.8-.4-.7-.6-.4a2 2 0 00-.9-.2zm12.3.5l-.2.2h-.6a10.7 10.7 0 00-1-.5h-.7l-1 .1a2 2 0 00-.8.6l-.4 1-.2 1.3.2 1.3.5 1 .7.5c.3.2.6.2 1 .2a2.4 2.4 0 001.3-.4c.2 0 .3-.2.4-.3h.4l.4.1.7.8a4 4 0 01-1.7 1.2l-1 .3h-1c-.6 0-1 0-1.6-.3-.5-.2-1-.5-1.3-1-.4-.3-.7-.8-.9-1.4-.2-.6-.3-1.3-.3-2s0-1.3.3-2c.2-.5.4-1 .8-1.4a4 4 0 011.4-1c.6-.3 1.2-.4 2-.4.6 0 1.2.1 1.8.4.5.2 1 .5 1.4 1l-.6.7zM834 131.1c-.8 0-1.4-.2-1.8-.6-.4-.5-.7-1.1-.7-2v-5h-.9l-.3-.2-.1-.3v-1l1.4-.2.5-2.5.2-.3h1.5v2.8h2.4v1.6h-2.4v5c0 .3 0 .5.2.7.1.2.3.3.6.3l.3-.1a2 2 0 00.4-.2h.4v.1l.8 1.1c-.4.3-.7.5-1.2.6-.4.2-.8.2-1.3.2zm8-9.5a5 5 0 011.8.4 4 4 0 012.3 2.4c.3.6.4 1.2.4 2 0 .7-.1 1.4-.4 2-.2.5-.5 1-.9 1.4a4 4 0 01-1.4 1 5 5 0 01-1.9.3c-.7 0-1.3 0-1.9-.3a4 4 0 01-2.3-2.5c-.3-.5-.4-1.2-.4-2 0-.7.1-1.3.4-2a4 4 0 012.4-2.4c.5-.2 1.1-.3 1.8-.3zm0 7.8c.7 0 1.2-.2 1.6-.7.4-.6.6-1.3.6-2.3a4 4 0 00-.6-2.3c-.4-.5-1-.8-1.7-.8-.8 0-1.3.3-1.7.8-.4.5-.6 1.3-.6 2.3 0 1 .2 1.7.6 2.2.4.6 1 .8 1.7.8zm8.4-11.8v7.7h.8l.3-.3 2.3-2.8c0-.2.2-.3.3-.3l.5-.1h2l-2.9 3.4a4 4 0 01-.3.3 2 2 0 01-.4.3l.4.3c0 .2.2.3.3.4l3 4.5h-2a1 1 0 01-.4 0 .9.9 0 01-.3-.4l-2.4-3.5-.2-.3h-1v4.2h-2.2v-13.4h2.2zm12 .2c.6 0 1.1.1 1.6.3.5.2 1 .4 1.3.8l.8 1.1c.2.5.3 1 .3 1.6 0 .4 0 .9-.2 1.3l-.6 1.2-.8 1-1 1-3 3a7.1 7.1 0 011.7-.2h3.3l.6.2c.2.2.2.3.2.6v1.3h-9v-.7a1.3 1.3 0 01.5-1l4-4a18.7 18.7 0 001.5-1.8l.4-.9.1-1-.1-.8a1.6 1.6 0 00-1-1h-.8a2 2 0 00-1.3.3c-.3.3-.6.7-.7 1.1 0 .2-.2.4-.3.5l-.5.1h-.3l-1.2-.2.5-1.6a4 4 0 012.3-2l1.7-.2zm10.8 13.2h-2l-3.7-9.2h2.3l.2.4 1.8 5a9.3 9.3 0 01.4 1.6 16.4 16.4 0 01.5-1.7l1.8-5 .2-.2.4-.1h1.8l-3.7 9.2zm8.8-9.4c.6 0 1.1.1 1.6.3a3.5 3.5 0 012 2.1 5 5 0 01.4 2.2l-.1.3-.2.1h-5.9c0 1 .3 1.7.7 2.2.5.4 1 .6 1.8.6l1-.1.6-.3c.2 0 .4-.2.5-.3h.7l.2.1.6.8c-.2.3-.5.6-.8.7a4.6 4.6 0 01-2 .8h-1a5 5 0 01-1.8-.3 4 4 0 01-1.4-1c-.4-.3-.8-.9-1-1.5a6 6 0 010-3.9l.8-1.4c.4-.5.9-.8 1.4-1 .6-.3 1.2-.4 1.9-.4zm0 1.6a2 2 0 00-1.5.6c-.4.3-.6.8-.7 1.5h4.2l-.1-.8-.4-.7-.6-.4a2 2 0 00-.9-.2zm12.3.5l-.2.2h-.6a10.7 10.7 0 00-1-.5h-.7l-1 .1a2 2 0 00-.8.6l-.4 1-.2 1.3.2 1.3.5 1 .7.5c.3.2.6.2 1 .2a2.4 2.4 0 001.3-.4c.2 0 .3-.2.4-.3h.4l.4.1.7.8a4 4 0 01-1.7 1.2l-1 .3h-1c-.6 0-1 0-1.6-.3-.5-.2-1-.5-1.3-1-.4-.3-.7-.8-.9-1.4-.2-.6-.3-1.3-.3-2s0-1.3.3-2c.2-.5.4-1 .8-1.4a4 4 0 011.4-1c.6-.3 1.2-.4 2-.4.6 0 1.2.1 1.8.4.5.2 1 .5 1.4 1l-.6.7zM971 131.1c-.8 0-1.4-.2-1.8-.6-.4-.5-.7-1.1-.7-2v-5h-.9l-.3-.2-.1-.3v-1l1.4-.2.5-2.5.2-.3h1.5v2.8h2.4v1.6h-2.4v5c0 .3 0 .5.2.7.1.2.3.3.6.3l.3-.1a2 2 0 00.4-.2h.4v.1l.8 1.1c-.4.3-.7.5-1.2.6-.4.2-.8.2-1.3.2zm8-9.5a5 5 0 011.8.4 4 4 0 012.3 2.4c.3.6.4 1.2.4 2 0 .7-.1 1.4-.4 2-.2.5-.5 1-.9 1.4a4 4 0 01-1.4 1 5 5 0 01-1.9.3c-.7 0-1.3 0-1.9-.3a4 4 0 01-2.3-2.5c-.3-.5-.4-1.2-.4-2 0-.7.1-1.3.4-2a4 4 0 012.4-2.4c.5-.2 1.1-.3 1.8-.3zm0 7.8c.7 0 1.2-.2 1.6-.7.4-.6.6-1.3.6-2.3a4 4 0 00-.6-2.3c-.4-.5-1-.8-1.7-.8-.8 0-1.3.3-1.7.8-.4.5-.6 1.3-.6 2.3 0 1 .2 1.7.6 2.2.4.6 1 .8 1.7.8zm8.4-11.8v7.7h.8l.3-.3 2.3-2.8c0-.2.2-.3.3-.3l.5-.1h2l-2.9 3.4a4 4 0 01-.3.3 2 2 0 01-.4.3l.4.3c0 .2.2.3.3.4l3 4.5h-2a1 1 0 01-.4 0 .9.9 0 01-.3-.4l-2.4-3.5-.2-.3h-1v4.2h-2.2v-13.4h2.2zm12 .2c.6 0 1.1.1 1.6.3.5.2 1 .4 1.3.8l.8 1.1c.2.5.3 1 .3 1.6 0 .4 0 .9-.2 1.3l-.6 1.2-.8 1-1 1-3 3a7.1 7.1 0 011.7-.2h3.3l.6.2c.2.2.2.3.2.6v1.3h-9v-.7a1.3 1.3 0 01.5-1l4-4a18.7 18.7 0 001.5-1.8l.4-.9.1-1-.1-.8a1.6 1.6 0 00-1-1h-.8a2 2 0 00-1.3.3c-.3.3-.6.7-.7 1.1 0 .2-.2.4-.3.5l-.5.1h-.3l-1.2-.2.5-1.6a4 4 0 012.3-2l1.7-.2zm10.8 13.2h-2l-3.7-9.2h2.3l.2.4 1.8 5a9.3 9.3 0 01.4 1.6 16.4 16.4 0 01.5-1.7l1.8-5 .2-.2.4-.1h1.8l-3.7 9.2zm8.8-9.4c.6 0 1.1.1 1.6.3a3.5 3.5 0 012 2.1 5 5 0 01.4 2.2l-.1.3-.2.1h-5.9c0 1 .3 1.7.7 2.2.5.4 1 .6 1.8.6l1-.1.6-.3c.2 0 .4-.2.5-.3h.7l.2.1.6.8c-.2.3-.5.6-.8.7a4.6 4.6 0 01-2 .8h-1a5 5 0 01-1.8-.3 4 4 0 01-1.4-1c-.4-.3-.8-.9-1-1.5a6 6 0 010-3.9l.8-1.4c.4-.5.9-.8 1.4-1 .6-.3 1.2-.4 1.9-.4zm0 1.6a2 2 0 00-1.5.6c-.4.3-.6.8-.7 1.5h4.2l-.1-.8-.4-.7-.6-.4a2 2 0 00-.9-.2zm12.3.5l-.2.2h-.6a10.7 10.7 0 00-1-.5h-.7l-1 .1a2 2 0 00-.8.6l-.4 1-.2 1.3.2 1.3.5 1 .7.5c.3.2.6.2 1 .2a2.4 2.4 0 001.3-.4c.2 0 .3-.2.4-.3h.4l.4.1.7.8a4 4 0 01-1.7 1.2l-1 .3h-1c-.6 0-1 0-1.6-.3-.5-.2-1-.5-1.3-1-.4-.3-.7-.8-.9-1.4-.2-.6-.3-1.3-.3-2s0-1.3.3-2c.2-.5.4-1 .8-1.4a4 4 0 011.4-1c.6-.3 1.2-.4 2-.4.6 0 1.2.1 1.8.4.5.2 1 .5 1.4 1l-.6.7zM321.9 107.2c-1.1 0-2-.3-2.6-1-.6-.6-.9-1.4-.9-2.5v-7.2h-1.3c-.2 0-.3 0-.4-.2-.2 0-.2-.2-.2-.5v-1.2l2-.3.7-3.5.2-.4.5-.2h1.6v4h3.4v2.3h-3.4v7c0 .3 0 .6.3.9.2.2.5.3.8.3h.5a2.6 2.6 0 00.6-.3l.2-.1h.2l.2.3 1 1.5-1.6.8-1.8.3zM332.6 94c.8 0 1.6.1 2.3.4a4.9 4.9 0 012.9 3 6.9 6.9 0 01.3 3v.3l-.3.2h-8.3c.1 1.4.5 2.4 1.1 3 .6.6 1.4.9 2.4.9.6 0 1 0 1.3-.2a22 22 0 001.7-.8l.6-.1h.3l.3.3.9 1c-.4.5-.8.8-1.2 1a6.4 6.4 0 01-2.7 1c-.5.2-1 .2-1.4.2-1 0-1.7-.2-2.5-.5s-1.4-.7-2-1.3c-.6-.5-1-1.3-1.4-2.1a8.3 8.3 0 010-5.5 5.7 5.7 0 013.2-3.4c.7-.3 1.6-.4 2.5-.4zm0 2.2c-.8 0-1.5.2-2 .8-.5.5-.9 1.2-1 2.1h5.8c0-.4 0-.8-.2-1.1 0-.4-.2-.7-.5-1l-.8-.6-1.2-.2zm11.1 4.2l-4.2-6.2h3.5l.3.4 2.7 4.3a3.5 3.5 0 01.4-.9l2.1-3.4.3-.3.4-.1h2.9l-4.3 6 4.4 6.8h-3c-.2 0-.3 0-.5-.2l-.3-.4-2.8-4.4c0 .3-.1.5-.3.7l-2.4 3.7c0 .2-.2.3-.3.4l-.5.2h-2.8l4.4-6.6zm14.7 6.8c-1.1 0-2-.3-2.6-1-.6-.6-.9-1.4-.9-2.5v-7.2h-1.3c-.1 0-.3 0-.4-.2-.1 0-.2-.2-.2-.5v-1.2l2-.3.7-3.5c0-.2.1-.3.3-.4l.4-.2h1.6v4h3.4v2.3H358v7l.3.9c.2.2.5.3.8.3h.5a2.6 2.6 0 00.6-.3l.2-.1h.3l.1.3 1 1.5-1.6.8-1.8.3zm14.5-10.3l-.3.3h-.8a14.9 14.9 0 00-1.3-.7l-1-.2c-.6 0-1.1.1-1.5.3-.4.2-.8.5-1 .9-.3.3-.5.8-.6 1.3-.2.5-.2 1.1-.2 1.8 0 .6 0 1.3.2 1.8.1.5.3 1 .6 1.3.3.4.6.7 1 .9l1.3.2a3.3 3.3 0 002-.5l.5-.4c.2-.2.4-.2.6-.2.2 0 .4 0 .5.3l1 1a5.6 5.6 0 01-2.4 1.7l-1.4.4h-1.3c-.8 0-1.6 0-2.3-.4-.7-.3-1.3-.7-1.8-1.3-.5-.5-1-1.2-1.2-2a8 8 0 01-.5-2.8c0-1 .1-1.9.4-2.7a5.5 5.5 0 013.1-3.5c.8-.3 1.7-.4 2.7-.4 1 0 1.8.1 2.5.4.8.3 1.4.8 2 1.4l-.8 1zm13 10.1h-1.4l-.7-.1c-.2-.1-.3-.3-.4-.6l-.3-.9a10.6 10.6 0 01-2 1.3 5 5 0 01-1 .4 6.4 6.4 0 01-2.7-.1c-.5-.2-.9-.4-1.2-.7a3 3 0 01-.8-1c-.2-.5-.3-1-.3-1.6 0-.5.2-1 .4-1.4.3-.5.7-.9 1.3-1.3.6-.4 1.4-.7 2.4-1 1-.2 2.2-.3 3.6-.3v-.8c0-.9-.2-1.5-.5-2-.4-.3-1-.5-1.6-.5a3.8 3.8 0 00-2.1.5l-.7.4c-.2.2-.4.2-.7.2-.2 0-.4 0-.5-.2-.2 0-.3-.2-.4-.3l-.6-1c1.5-1.4 3.3-2 5.4-2a4.3 4.3 0 014.4 3c.2.5.3 1.2.3 1.9v8.1zm-6-2h.8a3.3 3.3 0 001.5-.7l.6-.6v-2.2c-.9 0-1.6.1-2.2.3a6 6 0 00-1.5.4l-.8.6-.2.8c0 .5.2.9.5 1.1.3.3.7.4 1.2.4zm13.2 2.2c-1.1 0-2-.3-2.6-1-.6-.6-.9-1.4-.9-2.5v-7.2h-1.3c-.1 0-.3 0-.4-.2-.1 0-.2-.2-.2-.5v-1.2l2-.3.7-3.5c0-.2.1-.3.3-.4l.4-.2h1.6v4h3.4v2.3h-3.4v7l.3.9c.2.2.5.3.8.3h.5a2.6 2.6 0 00.6-.3l.2-.1h.2l.2.3 1 1.5-1.6.8-1.8.3zM828.9 83.2c-1.1 0-2-.3-2.6-1-.6-.6-.9-1.4-.9-2.5v-7.2h-1.3c-.2 0-.3 0-.4-.2-.2 0-.2-.2-.2-.5v-1.2l2-.3.7-3.5.2-.4.5-.1h1.6v4h3.4v2.2h-3.4v7c0 .3 0 .6.3.9.2.2.5.3.8.3h.5a2.6 2.6 0 00.6-.3l.2-.1h.2l.2.3 1 1.5-1.6.8-1.8.3zM839.6 70c.8 0 1.6.1 2.3.4a4.9 4.9 0 012.9 3 6.9 6.9 0 01.3 3v.3l-.3.2h-8.3c.1 1.4.5 2.4 1.1 3 .6.6 1.4.9 2.4.9.6 0 1 0 1.3-.2a22 22 0 001.7-.8l.6-.1h.3l.3.3.9 1c-.4.5-.8.8-1.2 1a6.4 6.4 0 01-2.7 1c-.5.2-1 .2-1.4.2-1 0-1.7-.2-2.5-.5s-1.4-.7-2-1.3c-.6-.5-1-1.3-1.3-2.1a8.3 8.3 0 01-.1-5.5 5.7 5.7 0 013.2-3.4c.7-.3 1.6-.4 2.5-.4zm0 2.2c-.8 0-1.5.2-2 .8-.5.5-.9 1.2-1 2.1h5.8c0-.4 0-.8-.2-1.1 0-.4-.2-.7-.5-1l-.8-.6-1.2-.2zm11.1 4.2l-4.2-6.2h3.5l.3.4 2.7 4.3a3.5 3.5 0 01.4-.9l2.1-3.4.3-.3.4-.1h2.9l-4.3 6 4.4 6.8h-3c-.2 0-.3 0-.5-.2l-.3-.4-2.8-4.4c0 .3-.1.5-.3.7l-2.4 3.7c0 .2-.2.3-.3.4l-.5.2h-2.8l4.4-6.6zm14.7 6.8c-1.1 0-2-.3-2.6-1-.6-.6-.9-1.4-.9-2.5v-7.2h-1.3c-.1 0-.3 0-.4-.2-.1 0-.2-.2-.2-.5v-1.2l2-.3.7-3.5c0-.2.1-.3.3-.4l.4-.1h1.6v4h3.4v2.2H865v7l.3.9c.2.2.5.3.8.3h.5a2.6 2.6 0 00.6-.3l.2-.1h.3l.1.3 1 1.5-1.6.8-1.8.3zm14.5-10.3l-.3.3h-.8a14.9 14.9 0 00-1.3-.7l-1-.2c-.6 0-1.1.1-1.5.3-.4.2-.8.5-1 .9-.3.3-.5.8-.6 1.3-.2.5-.2 1.1-.2 1.8 0 .6 0 1.3.2 1.8.1.5.3 1 .6 1.3.3.4.6.7 1 .9l1.3.2a3.3 3.3 0 002-.5l.5-.4c.2-.2.4-.2.6-.2.2 0 .4 0 .5.3l1 1a5.6 5.6 0 01-2.4 1.7l-1.4.4h-1.3c-.8 0-1.6 0-2.3-.4-.7-.3-1.3-.7-1.8-1.3-.5-.5-1-1.2-1.2-2a8 8 0 01-.5-2.8c0-1 .1-1.9.4-2.7a5.5 5.5 0 013.1-3.5c.8-.3 1.7-.4 2.7-.4 1 0 1.8.1 2.5.4.8.3 1.4.8 2 1.4l-.8 1zm13 10.1h-1.4l-.7-.1c-.2-.1-.3-.3-.4-.6l-.3-.9a10.6 10.6 0 01-2 1.3 5 5 0 01-1 .4 6.4 6.4 0 01-2.7-.1c-.5-.2-.9-.4-1.2-.7a3 3 0 01-.8-1c-.2-.5-.3-1-.3-1.6 0-.5.2-1 .4-1.4.3-.5.7-.9 1.3-1.3.6-.4 1.4-.7 2.4-1l3.6-.4V75c0-.9-.2-1.5-.5-2-.4-.3-1-.5-1.6-.5a3.8 3.8 0 00-2.1.5l-.7.4c-.2.2-.4.2-.7.2-.2 0-.4 0-.5-.2-.2 0-.3-.2-.4-.4l-.5-1c1.4-1.3 3.2-2 5.3-2 .7 0 1.4.2 2 .4a4.3 4.3 0 012.4 2.6c.2.6.3 1.3.3 2V83zm-6-2h.8a3.3 3.3 0 001.5-.7l.6-.6v-2.2c-.9 0-1.6.1-2.2.3a6 6 0 00-1.5.4l-.8.6-.2.8c0 .5.2.9.5 1.1.3.3.7.4 1.2.4zm13.2 2.2c-1.1 0-2-.3-2.6-1-.6-.6-.9-1.4-.9-2.5v-7.2h-1.3c-.1 0-.3 0-.4-.2-.1 0-.2-.2-.2-.5v-1.2l2-.3.7-3.5c0-.2.1-.3.3-.4l.4-.1h1.6v4h3.4v2.2h-3.4v7l.3.9c.2.2.5.3.8.3h.5a2.6 2.6 0 00.6-.3l.2-.1h.2l.2.3 1 1.5-1.6.8-1.8.3zM473 102.3a2 2 0 01.5-1.3 2 2 0 011.3-.6 1.9 1.9 0 011.3.6 1.9 1.9 0 01.4 2 1.8 1.8 0 01-1 1 2 2 0 01-2-.4c-.2-.1-.3-.3-.4-.6a2 2 0 01-.2-.7zm5.5 0a2 2 0 01.6-1.3 2 2 0 011.3-.6 1.9 1.9 0 011.4.6 1.9 1.9 0 01.4 2 1.8 1.8 0 01-1 1 2 2 0 01-2-.4c-.3-.1-.4-.3-.5-.6a2 2 0 01-.2-.7zm5.7 0a2 2 0 01.5-1.3 2 2 0 011.4-.6 1.9 1.9 0 011.3.6 1.9 1.9 0 01.4 2 1.8 1.8 0 01-1 1 2 2 0 01-2-.4c-.3-.1-.4-.3-.5-.6a2 2 0 01-.1-.7zM988 78.3a2 2 0 01.5-1.3 2 2 0 011.3-.6 1.9 1.9 0 011.4.6 1.9 1.9 0 01.3 2 1.8 1.8 0 01-1 1 2 2 0 01-2-.4c-.2-.1-.3-.3-.4-.6a2 2 0 01-.2-.7zm5.5 0a2 2 0 01.6-1.3 2 2 0 011.3-.6 1.9 1.9 0 011.4.6 1.9 1.9 0 01.4 2 1.8 1.8 0 01-1 1 2 2 0 01-2-.4c-.3-.1-.4-.3-.5-.6a2 2 0 01-.2-.7zm5.7 0a2 2 0 01.5-1.3 2 2 0 011.4-.6 1.9 1.9 0 011.3.6 1.9 1.9 0 01.4 2 1.8 1.8 0 01-1 1 2 2 0 01-2-.4c-.3-.1-.4-.3-.5-.6a2 2 0 01-.1-.7z"/>
      <path fill="#FFF" d="M258 19.5c0 .2 0 .2-.2.3H257.2a12.2 12.2 0 00-1.1-.6l-.9-.1h-.7l-.6.4c-.2 0-.3.2-.3.4l-.2.6c0 .3.1.5.3.7l.6.5.8.3a41.9 41.9 0 012 .7l.9.6a2.6 2.6 0 01.8 2c0 .6-.1 1-.3 1.5a3.4 3.4 0 01-2 2c-.5.2-1 .3-1.7.3a5.5 5.5 0 01-3.8-1.5l.6-1 .2-.2h.7a13 13 0 001.3.8l1 .2c.6 0 1.1-.2 1.5-.5.3-.3.5-.7.5-1.2 0-.3-.1-.6-.3-.8-.1-.2-.3-.3-.6-.4l-.8-.4a28.4 28.4 0 01-2-.7l-.8-.5c-.3-.3-.5-.6-.6-1a3.4 3.4 0 01.7-3.6 4.3 4.3 0 012.8-1c.7 0 1.3.1 1.9.3.6.2 1 .5 1.5 1l-.6 1zm12.2 9.5H268v-5h-5.4v5h-2.2V17.4h2.2v5h5.4v-5h2.2V29zm12.5 0H281a.7.7 0 01-.7-.5l-.9-2.3h-4.7l-1 2.3a.8.8 0 01-.6.5h-1.7l4.6-11.6h2.2l4.5 11.6zm-7.5-4.4h3.7l-1.4-3.8a17.6 17.6 0 01-.5-1.4 26.7 26.7 0 01-.4 1.4l-1.4 3.8zm11-.1V29H284V17.4h3.5c.8 0 1.5.1 2 .3.6.1 1 .4 1.4.7.4.3.6.6.8 1 .2.4.2.9.2 1.4a3.5 3.5 0 01-.6 2l-.8.8-1.1.5c.3.1.5.3.7.6L293 29h-2a1 1 0 01-.4-.1 1 1 0 01-.4-.3l-2.4-3.7c0-.2-.2-.3-.3-.3a1 1 0 00-.5-.1h-.9zm0-1.6h1.3l1-.1.8-.4.4-.7.1-.8c0-.6-.2-1-.5-1.3-.4-.3-1-.5-1.8-.5H286v3.8zm15.5-5.5v1.7h-5.2v3.3h4V24h-4v3.3h5.2V29h-7.3V17.4h7.3zm12.1 5.8c0 .9-.1 1.6-.4 2.4a5.4 5.4 0 01-3 3c-.8.3-1.6.4-2.5.4h-4.4V17.4h4.4c1 0 1.7.2 2.4.5a5.4 5.4 0 013 3c.4.7.5 1.5.5 2.3zm-2.2 0c0-.6 0-1.2-.3-1.7a3.1 3.1 0 00-1.9-2 4 4 0 00-1.5-.4h-2.2v8.2h2.2c.6 0 1.1-.1 1.6-.3.4-.2.8-.4 1.1-.8.3-.3.6-.8.7-1.3.2-.5.3-1 .3-1.7zM832.5 29h-2.2V17.4h2.2V29zm3.7-11.6h.4l.2.2.1.2 6.1 7.7a8 8 0 010-1v-7h1.8V29h-1a1 1 0 01-.5 0 1 1 0 01-.3-.4l-6-7.7a11.1 11.1 0 010 1V29h-2V17.4h1.2zm21.2 5.8c0 .9-.1 1.6-.4 2.4a5.4 5.4 0 01-3 3c-.7.3-1.5.4-2.4.4h-4.4V17.4h4.4c.9 0 1.7.2 2.4.5a5.4 5.4 0 013 3c.3.7.4 1.5.4 2.3zm-2.2 0c0-.6 0-1.2-.2-1.7s-.4-1-.7-1.3c-.4-.3-.7-.6-1.2-.8a4 4 0 00-1.5-.3h-2.3v8.2h2.3c.6 0 1-.1 1.5-.3.5-.2.8-.4 1.2-.8.3-.3.5-.8.7-1.3.2-.5.2-1 .2-1.7zm11.2-5.8v1.7h-5.1v3.3h4V24h-4v3.3h5.1V29h-7.3V17.4h7.3zm4.1 7.5V29h-2.1V17.4h3.7c.8 0 1.5.1 2 .3.6.2 1 .4 1.4.8.4.3.7.7.9 1.1l.2 1.5c0 .6 0 1-.3 1.6-.1.4-.4.8-.8 1.2a4 4 0 01-1.4.7c-.6.2-1.2.3-2 .3h-1.6zm0-1.7h1.6l1-.1.8-.4.4-.7a2.6 2.6 0 000-1.7c0-.3-.2-.5-.4-.7a2 2 0 00-.7-.4l-1-.1h-1.7v4.1zm15-5.8v1.7h-5v3.3h4V24h-4v3.3h5V29h-7.2V17.4h7.3zm3 0h.5l.1.2.2.2 6 7.7a8 8 0 010-1v-7h2V29H896a1 1 0 01-.4 0 1 1 0 01-.4-.4l-6-7.7a11.1 11.1 0 010 1V29h-1.8V17.4h1zm21.3 5.8c0 .9-.1 1.6-.4 2.4a5.4 5.4 0 01-3 3c-.8.3-1.6.4-2.4.4h-4.5V17.4h4.5c.8 0 1.6.2 2.4.5a5.4 5.4 0 013 3c.3.7.4 1.5.4 2.3zm-2.2 0c0-.6 0-1.2-.2-1.7s-.4-1-.8-1.3l-1.1-.8a4 4 0 00-1.5-.3h-2.3v8.2h2.3l1.5-.3c.4-.2.8-.4 1.1-.8.4-.3.6-.8.8-1.3l.2-1.7zm11.2-5.8v1.7h-5.1v3.3h4V24h-4v3.3h5.1V29h-7.3V17.4h7.3zm3 0h.4l.2.2.1.2 6 7.7a8 8 0 010-1v-7h2V29h-1.2a1 1 0 01-.4 0 1 1 0 01-.3-.4l-6-7.7a11.1 11.1 0 010 1V29h-2V17.4h1.2zm19.1 0v1.8h-3.5V29h-2.1v-9.8h-3.5v-1.8h9.1z"/>
    </g>
  </g>
</svg>
