<svg xmlns="http://www.w3.org/2000/svg" width="806" height="198" viewBox="0 0 806 198">
  <defs>
    <linearGradient id="a" x1="60.6%" x2="50%" y1="100%" y2="100%">
      <stop offset="0%" stop-color="#B2D73A"/>
      <stop offset="100%" stop-color="#F0A439"/>
    </linearGradient>
    <linearGradient id="b" x1="60.6%" x2="50%" y1="100%" y2="100%">
      <stop offset="0%" stop-color="#3AD787"/>
      <stop offset="100%" stop-color="#F0A439"/>
    </linearGradient>
    <linearGradient id="c" x1="60.6%" x2="50%" y1="100%" y2="100%">
      <stop offset="0%" stop-color="#CDB217"/>
      <stop offset="100%" stop-color="#F0A439"/>
    </linearGradient>
  </defs>
  <g fill="none" fill-rule="evenodd">
    <path fill="#F2D7B2" stroke="#F0A439" stroke-linejoin="round" stroke-width="3.8" d="M27 29h148.6L199 69.9 175.6 109H27l23.4-39z"/>
    <path fill="#F2E7A6" stroke="#CDB217" stroke-linejoin="round" stroke-width="3.8" d="M161 29h134.6L319 69.9 295.6 109H161l23.4-39z"/>
    <path fill="#D7E99A" stroke="#B2D73A" stroke-linejoin="round" stroke-width="3.8" d="M286 29h134.6L444 69.9 420.6 109H286l23.4-39z"/>
    <path fill="#B5F3D4" stroke="#3AD787" stroke-linejoin="round" stroke-width="3.8" d="M411 29h134.6L569 69.9 545.6 109H411l23.4-39z"/>
    <rect width="100.5" height="23.5" x="4.8" y="1.8" fill="#3D4251" stroke="#3D4251" stroke-width="3.5" rx="11.8" transform="translate(169 95)"/>
    <rect width="100.5" height="23.5" x="4.8" y="1.8" fill="#3D4251" stroke="#3D4251" stroke-width="3.5" rx="11.8" transform="translate(296 95)"/>
    <rect width="100.5" height="23.5" x="4.8" y="1.8" fill="#3D4251" stroke="#3D4251" stroke-width="3.5" rx="11.8" transform="translate(426 95)"/>
    <path stroke="url(#a)" stroke-linecap="square" stroke-width="4" d="M264 7v39.6L8 46.7V30.9" transform="translate(87 117)"/>
    <path stroke="url(#b)" stroke-linecap="square" stroke-width="4" d="M395 7v52.6L8 59.7V43.9" transform="translate(87 117)"/>
    <path stroke="url(#c)" stroke-linecap="square" stroke-width="4" d="M137 7v27.6L8 34.7V18.9" transform="translate(87 117)"/>
    <path fill="#F0A439" d="M95 118l8 16H87z"/>
    <g fill="#D7CCF4" stroke="#8978B5" stroke-width="3.8">
      <rect width="110.3" height="59.3" x="1.9" y="1.9" rx="10" transform="translate(650 37)"/>
    </g>
    <g fill-rule="nonzero">
      <path fill="#3D4251" d="M73 63.1L72 63l-.9-.6c-.2-.2-.4-.5-.5-.9l-.2-1v-5h-1.1c-.2-.1-.2-.3-.2-.5v-1l1.5-.3.5-2.3c.1-.3.3-.4.6-.4h1.5v2.7h2.3v1.9H73v4.6c0 .2 0 .4.2.6l.4.2a.9.9 0 00.5-.1v-.1h.5l.1.2.9 1.3c-.4.3-.8.5-1.3.6-.4.2-.9.2-1.4.2zm8.1-9.6c.7 0 1.4.1 2 .4a4.2 4.2 0 012.4 2.4c.3.6.4 1.3.4 2 0 .8-.1 1.4-.4 2-.2.6-.5 1.1-1 1.5-.4.5-.9.8-1.4 1-.6.2-1.3.3-2 .3s-1.3 0-2-.3c-.5-.2-1-.5-1.4-1-.5-.4-.8-.9-1-1.5a5.4 5.4 0 010-4 4.2 4.2 0 012.5-2.4c.6-.3 1.2-.4 2-.4zm0 7.6c.7 0 1.1-.3 1.4-.7.4-.5.5-1.1.5-2 0-1-.1-1.7-.5-2.1-.3-.5-.7-.7-1.4-.7-.6 0-1.1.2-1.4.7-.3.4-.5 1.1-.5 2 0 1 .2 1.6.5 2 .3.5.8.8 1.4.8zm9.1-11.6v7.6h.8l.3-.4 1.7-2.6.4-.3.5-.1h2.6L94.1 57a2.6 2.6 0 01-.8.7l.7.8 2.6 4.5h-2.5l-.6-.1a.8.8 0 01-.3-.4l-1.8-3.3-.3-.3h-.9V63h-2.8V49.5h2.8zm12 .2a5 5 0 011.7.3l1.3.8c.4.4.6.8.8 1.2.2.5.3 1 .3 1.6 0 .4 0 .9-.2 1.3l-.5 1.1-.8 1.1-1 1-2.6 2.7a9.3 9.3 0 011.9-.3h2.4c.3 0 .6 0 .7.2.2.2.3.4.3.7V63h-9.2v-.9l.1-.6c0-.2.2-.3.4-.5l3.8-3.8a12.5 12.5 0 001.4-1.8l.4-.9v-.9c0-.5 0-.9-.3-1.2-.3-.2-.6-.4-1.1-.4a1.8 1.8 0 00-1 .4c-.2 0-.3.2-.4.3l-.3.5c0 .2-.2.4-.3.5a1 1 0 01-.6.2 2.2 2.2 0 01-.5 0l-1.4-.3A5 5 0 0198 52a4.1 4.1 0 012.4-2l1.7-.2zM113.3 63h-2.6l-3.6-9.3h2.4l.5.1.2.4 1.3 4.1a100.9 100.9 0 01.6 2 11.5 11.5 0 01.5-2l1.4-4.1c0-.2 0-.3.2-.4l.5-.1h2.2l-3.6 9.3zm8.8-9.5c.6 0 1.2.1 1.7.3A3.7 3.7 0 01126 56a5 5 0 01.2 2.3v.3l-.3.2h-5.6c0 .8.3 1.4.7 1.7.3.4.8.6 1.4.6.4 0 .7 0 .9-.2l.6-.2a49 49 0 011-.4c.2 0 .4 0 .5.2l.8 1a4.1 4.1 0 01-2 1.3c-.3.2-.6.2-1 .3h-1c-.7 0-1.3 0-1.8-.3a4.2 4.2 0 01-2.6-2.5 5.9 5.9 0 010-4 4.4 4.4 0 014.3-2.8zm0 2c-.5 0-1 .1-1.2.4-.3.3-.5.7-.6 1.3h3.5l-.1-.6-.3-.6-.5-.4-.8-.2zm12.5.4l-.2.2-.4.1h-.4a77.3 77.3 0 00-.8-.5 2 2 0 00-.7-.1 2 2 0 00-.9.2c-.2 0-.4.3-.6.5-.2.2-.3.5-.4.9v1.1c0 1 0 1.6.4 2 .4.6.9.8 1.5.8l.7-.1.5-.3a106.4 106.4 0 00.8-.4c.2 0 .4 0 .5.2l.8 1a4.4 4.4 0 01-2.9 1.6h-1a4.2 4.2 0 01-3-1.2c-.4-.4-.7-1-.9-1.5-.2-.6-.3-1.3-.3-2 0-.8 0-1.4.3-2 .2-.6.5-1 .8-1.5.4-.4 1-.8 1.5-1 .6-.3 1.3-.4 2-.4s1.4.1 2 .4c.5.2 1 .5 1.4 1l-.7 1zm6.8 7a1.6 1.6 0 01-.6.7 1.5 1.5 0 01-.8.3h-1.2l5.1-13.4a1.4 1.4 0 011.4-1h1.2l-5 13.4zM62 85l-1.2-.1-.9-.6c-.2-.2-.4-.5-.5-.9l-.2-1v-5h-1.1l-.2-.5v-1l1.5-.3.5-2.3c.1-.3.3-.4.6-.4H62v2.7h2.3v1.9H62v4.6c0 .2 0 .4.2.6l.4.2a.9.9 0 00.5-.1l.1-.1h.4l.1.2.9 1.3c-.4.3-.8.5-1.3.6-.4.2-.9.2-1.3.2zm3.9-.1v-9.3h2l.2.1.2.2v.3l.2.9c.3-.5.7-1 1.1-1.3.5-.3 1-.4 1.4-.4.5 0 .8 0 1 .3l-.3 2-.1.3h-.3a2 2 0 01-.4 0h-.5c-.7 0-1.3.4-1.7 1.2V85h-2.8zm13.9 0l-.6-.1c-.2 0-.3-.2-.4-.5l-.2-.5a9 9 0 01-1.3 1l-.8.2a4.5 4.5 0 01-2-.1l-.9-.5-.5-.8c-.2-.3-.2-.7-.2-1.1a2.3 2.3 0 011-2c.5-.3 1-.5 1.8-.7.7-.2 1.5-.3 2.6-.3v-.4c0-.6-.1-1-.3-1.2-.2-.3-.6-.4-1-.4a2.5 2.5 0 00-1.4.4 8 8 0 01-.4.2l-.6.1-.5-.1a1 1 0 01-.3-.4l-.5-.8c.6-.5 1.2-1 1.9-1.1.7-.3 1.4-.4 2.2-.4.5 0 1 0 1.5.3a3.3 3.3 0 011.9 1.9l.2 1.5V85h-1.2zm-3.3-1.7a2.2 2.2 0 001.8-.8v-1.3l-1.4.1-.8.3a1 1 0 00-.5.4v.4c0 .4 0 .6.2.7l.7.2zM83 85v-9.3h2.2l.2.4.2.6.5-.5a3.3 3.3 0 011.4-.6 3.8 3.8 0 012.2.2l1 .7.6 1.2.2 1.4V85h-2.8v-6c0-.4-.1-.7-.3-1-.2-.3-.6-.4-1-.4a2 2 0 00-.8.2l-.8.5V85H83zm16.2-7.3l-.3.3h-.3a1243.7 1243.7 0 00-2-.5c-.3 0-.6 0-.8.2-.2.1-.3.3-.3.6 0 .1 0 .3.2.4l.5.3.7.2a17.4 17.4 0 011.6.6l.7.5a2.1 2.1 0 01.6 1.7c0 .4 0 .9-.2 1.2-.2.4-.4.8-.8 1-.3.3-.7.6-1.2.7a5.6 5.6 0 01-3.6 0 5 5 0 01-1.4-1l.6-1 .3-.2.4-.1h.5a339.9 339.9 0 01.9.6h1.3l.4-.2a.7.7 0 00.2-.5c0-.2 0-.4-.2-.5l-.5-.3a13.5 13.5 0 01-2.3-.8l-.6-.6-.5-.7c-.2-.3-.2-.7-.2-1.1 0-.4 0-.8.2-1.2l.7-.9c.3-.3.7-.5 1.1-.6a5.2 5.2 0 014.2.5c.3 0 .5.3.7.4l-.6 1zm2.6 7.3v-7.4l-.6-.1c-.2 0-.4-.2-.5-.3-.2 0-.2-.2-.2-.4v-1.1h1.3v-.5c0-.6 0-1 .2-1.5a3 3 0 012-1.8 4.6 4.6 0 012.8 0v1.3l-.2.2-.1.2h-.5l-.6.1a1 1 0 00-.5.3c-.2.1-.2.3-.3.5l-.1.7v.5h2.2v1.9h-2.1V85h-2.8zm10.2-9.5c.8 0 1.4.1 2 .4a4.2 4.2 0 012.5 2.4c.2.6.3 1.3.3 2 0 .8-.1 1.4-.3 2a4.3 4.3 0 01-2.5 2.5c-.6.2-1.2.3-2 .3-.7 0-1.3 0-1.9-.3-.6-.2-1-.5-1.5-1-.4-.4-.8-.9-1-1.5-.2-.6-.3-1.2-.3-2 0-.7 0-1.4.3-2a4.2 4.2 0 012.5-2.4c.6-.3 1.2-.4 2-.4zm0 7.6c.7 0 1.2-.3 1.5-.7.3-.5.4-1.1.4-2 0-1-.1-1.7-.4-2.1-.3-.5-.8-.7-1.5-.7-.6 0-1.1.2-1.4.7-.3.4-.5 1.1-.5 2 0 1 .2 1.6.5 2 .3.5.8.8 1.4.8zm6.3 1.9v-9.3h2l.3.1.1.2v.3l.2.9 1.2-1.3c.4-.3.9-.4 1.4-.4.4 0 .8 0 1 .3l-.3 2c0 .2-.1.3-.2.3h-.3a2 2 0 01-.3 0h-.6c-.7 0-1.3.4-1.7 1.2V85h-2.8zm7.5 0v-9.3h2.1l.3.4.1.5.5-.4a3.1 3.1 0 011.2-.6h.7c.6 0 1 0 1.4.4.4.3.7.6.9 1.1a2.8 2.8 0 011.3-1.2l.8-.3a4.3 4.3 0 012.3.2 2.7 2.7 0 011.7 1.8l.2 1.5V85h-2.8v-6c0-.9-.4-1.4-1.3-1.4-.3 0-.6.1-.9.4-.2.2-.4.6-.4 1v6h-2.8v-6c0-.5 0-.8-.3-1-.2-.3-.5-.4-.9-.4-.3 0-.5 0-.7.2l-.6.4V85h-2.8zm19.5-9.5c.6 0 1.1.1 1.7.3A3.7 3.7 0 01149 78a5 5 0 01.3 2.3v.3l-.3.2h-5.7c.1.8.4 1.4.7 1.7.4.4 1 .6 1.5.6.4 0 .6 0 .9-.2l.6-.2a49 49 0 011-.4c.2 0 .4 0 .5.2l.8 1a4.1 4.1 0 01-2 1.3c-.3.2-.7.2-1 .3h-1c-.7 0-1.3 0-1.9-.3a4.2 4.2 0 01-2.5-2.5 5.9 5.9 0 010-4 4.4 4.4 0 014.3-2.8zm0 2c-.5 0-1 .1-1.2.4-.3.3-.5.7-.6 1.3h3.4v-.6l-.3-.6-.5-.4-.8-.2zm5.8 7.5v-9.3h2l.2.1.1.2.1.3.2.9c.3-.5.7-1 1.1-1.3.4-.3 1-.4 1.4-.4.4 0 .8 0 1 .3l-.3 2c0 .2 0 .3-.2.3h-.2a2 2 0 01-.4 0h-.5c-.8 0-1.3.4-1.8 1.2V85h-2.7zM219.8 72V59.2h1.8c.4 0 .7.2.8.5l.2 1a7 7 0 011.8-1.2 4.6 4.6 0 012.2-.5c.7 0 1.3 0 1.9.3.5.3 1 .6 1.3 1 .4.5.7 1 .8 1.6.2.6.3 1.2.3 2V72h-3v-8.2c0-.7-.2-1.4-.6-1.8-.4-.4-1-.6-1.6-.6-.6 0-1 .1-1.5.3l-1.4 1V72h-3zm19.5-13c.8 0 1.5.1 2.2.4a4.9 4.9 0 013 3 6.9 6.9 0 01.3 3l-.1.3-.2.2H236c.2 1.4.5 2.4 1.1 3 .7.6 1.5.9 2.5.9.5 0 1 0 1.3-.2a22 22 0 001.7-.8l.5-.1h.4l.2.3 1 1c-.4.5-.8.8-1.2 1a6.4 6.4 0 01-2.8 1c-.5.2-1 .2-1.4.2-.9 0-1.7-.2-2.5-.5-.7-.3-1.4-.7-2-1.3-.5-.5-1-1.3-1.3-2.1a8.3 8.3 0 010-5.5 5.7 5.7 0 013.2-3.4c.7-.3 1.5-.4 2.5-.4zm0 2.2c-.9 0-1.6.2-2 .7-.6.6-1 1.3-1 2.2h5.7L242 63l-.5-1-.9-.6-1.2-.2zm8 10.8V59.2h1.8l.7.1.3.6.1 1.6a6 6 0 011.7-1.9c.6-.4 1.3-.7 2-.7s1.2.2 1.6.5l-.4 2.3c0 .1 0 .2-.2.3l-.3.1h-.5l-.9-.2c-.6 0-1.2.2-1.6.6a4 4 0 00-1.2 1.5v8h-3zM331.9 72.2c-1.1 0-2-.3-2.6-1-.6-.6-.9-1.4-.9-2.5v-7.2h-1.3c-.2 0-.3 0-.4-.2-.2 0-.2-.2-.2-.5v-1.2l2-.3.7-3.5.2-.4.5-.1h1.6v4h3.4v2.2h-3.4v7c0 .3 0 .6.3.9.2.2.5.3.8.3h.5a2.6 2.6 0 00.6-.3l.2-.1h.2l.2.3 1 1.5-1.6.8-1.8.3zM342.6 59c.8 0 1.6.1 2.3.4a4.9 4.9 0 012.9 3 6.9 6.9 0 01.3 3v.3l-.3.2h-8.3c.1 1.4.5 2.4 1.1 3 .6.6 1.4.9 2.4.9.6 0 1 0 1.3-.2a22 22 0 001.7-.8l.6-.1h.3l.3.3.9 1c-.4.5-.8.8-1.2 1a6.4 6.4 0 01-2.7 1c-.5.2-1 .2-1.4.2-1 0-1.7-.2-2.5-.5s-1.4-.7-2-1.3c-.6-.5-1-1.3-1.4-2.1a8.3 8.3 0 010-5.5 5.7 5.7 0 013.2-3.4c.7-.3 1.6-.4 2.5-.4zm0 2.2c-.8 0-1.5.2-2 .7-.5.6-.9 1.3-1 2.2h5.8c0-.4 0-.8-.2-1.1 0-.4-.2-.7-.5-1l-.8-.6-1.2-.2zm11.1 4.2l-4.2-6.2h3.5l.3.4 2.7 4.3a3.5 3.5 0 01.4-.9l2.1-3.4.3-.3.4-.1h2.9l-4.3 6 4.4 6.8h-3c-.2 0-.3 0-.5-.2l-.3-.4-2.8-4.4c0 .3-.1.5-.3.7l-2.4 3.7c0 .2-.2.3-.3.4l-.5.2h-2.8l4.4-6.6zm14.7 6.8c-1.1 0-2-.3-2.6-1-.6-.6-.9-1.4-.9-2.5v-7.2h-1.3c-.1 0-.3 0-.4-.2-.1 0-.2-.2-.2-.5v-1.2l2-.3.7-3.5c0-.2.1-.3.3-.4l.4-.1h1.6v4h3.4v2.2H368v7l.3.9c.2.2.5.3.8.3h.5a2.6 2.6 0 00.6-.3l.2-.1h.3l.1.3 1 1.5-1.6.8-1.8.3zm14.5-10.3l-.3.3h-.8a14.9 14.9 0 00-1.3-.7l-1-.2c-.6 0-1.1.1-1.5.3-.4.2-.8.5-1 .9-.3.3-.5.8-.6 1.3-.2.5-.2 1.1-.2 1.8 0 .6 0 1.3.2 1.8.1.5.3 1 .6 1.3.3.4.6.7 1 .9l1.3.2a3.3 3.3 0 002-.5l.5-.4c.2-.2.4-.2.6-.2.2 0 .4 0 .5.3l1 1a5.6 5.6 0 01-2.4 1.7l-1.4.4h-1.3c-.8 0-1.6 0-2.3-.4-.7-.3-1.3-.7-1.8-1.3-.5-.5-1-1.2-1.2-2a8 8 0 01-.5-2.8c0-1 .1-1.9.4-2.7a5.5 5.5 0 013.1-3.5c.8-.3 1.7-.4 2.7-.4 1 0 1.8.1 2.5.4.8.3 1.4.8 2 1.4l-.8 1zm13 10.1h-1.4l-.7-.1c-.2-.1-.3-.3-.4-.6l-.3-.9a10.6 10.6 0 01-2 1.3 5 5 0 01-1 .4 6.4 6.4 0 01-2.7-.1c-.5-.2-.9-.4-1.2-.7a3 3 0 01-.8-1c-.2-.5-.3-1-.3-1.6 0-.5.2-1 .4-1.4.3-.5.7-.9 1.3-1.3.6-.4 1.4-.7 2.4-1 1-.2 2.2-.3 3.6-.3v-.8c0-.9-.2-1.5-.5-2-.4-.3-1-.5-1.6-.5a3.8 3.8 0 00-2.1.5l-.7.4c-.2.2-.4.2-.7.2l-.5-.1-.4-.4-.6-1c1.5-1.4 3.3-2 5.4-2a4.3 4.3 0 014.4 3c.2.5.3 1.2.3 1.9V72zm-6-2h.8a3.3 3.3 0 001.5-.7l.6-.6v-2.2c-.9 0-1.6.1-2.2.3a6 6 0 00-1.5.4l-.8.6-.2.8c0 .5.2.9.5 1.1.3.3.7.4 1.2.4zm13.2 2.2c-1.1 0-2-.3-2.6-1-.6-.6-.9-1.4-.9-2.5v-7.2h-1.3c-.1 0-.3 0-.4-.2-.1 0-.2-.2-.2-.5v-1.2l2-.3.7-3.5c0-.2.1-.3.3-.4l.4-.1h1.6v4h3.4v2.2h-3.4v7l.3.9c.2.2.5.3.8.3h.5a2.6 2.6 0 00.6-.3l.2-.1h.2l.2.3 1 1.5-1.6.8-1.8.3zM483 67.3a2 2 0 01.5-1.3 2 2 0 011.3-.6 1.9 1.9 0 011.3.6 1.9 1.9 0 01.4 2 1.8 1.8 0 01-1 1 2 2 0 01-2-.4c-.2-.1-.3-.3-.4-.6a2 2 0 01-.2-.7zm5.5 0a2 2 0 01.6-1.3 2 2 0 011.3-.6 1.9 1.9 0 011.4.6 1.9 1.9 0 01.4 2 1.8 1.8 0 01-1 1 2 2 0 01-2-.4c-.3-.1-.4-.3-.5-.6a2 2 0 01-.2-.7zm5.7 0a2 2 0 01.5-1.3 2 2 0 011.4-.6 1.9 1.9 0 011.3.6 1.9 1.9 0 01.4 2 1.8 1.8 0 01-1 1 2 2 0 01-2-.4c-.3-.1-.4-.3-.5-.6a2 2 0 01-.1-.7z"/>
      <path fill="#FFF" d="M183.9 103v-2h5.4v9.8c0 .4 0 .7.3.9.2.2.5.3.8.3h3v2h-3.2c-1 0-1.8-.3-2.3-.8-.6-.6-.9-1.4-.9-2.4V103H184zm11.2 9h3.5V106h-3v-2h5.2v7.8h2.9v2.1H195v-2zm2.9-10.6c0-.3.1-.6.3-.8.3-.3.6-.4 1-.4h.4c.4 0 .7.1 1 .4.2.2.3.5.3.8 0 .4-.1.7-.3.9-.3.2-.6.3-1 .3h-.4c-.4 0-.7-.1-1-.3-.2-.2-.3-.5-.3-.9zm7 10h2.2c.1.4.3.6.6.8.3.2.7.3 1.1.3h.7c.6 0 1-.2 1.3-.4.4-.2.5-.5.5-.9 0-.7-.5-1-1.5-1.2l-1.4-.2c-1.2-.1-2-.4-2.5-.9-.6-.5-.8-1.2-.8-2 0-1 .3-1.7 1-2.2.6-.5 1.5-.8 2.8-.8h.7c1 0 2 .3 2.6.7.7.5 1 1.1 1.2 2h-2.3a1 1 0 00-.5-.7 2 2 0 00-1-.3h-.7c-1.1 0-1.6.4-1.6 1.2 0 .6.4 1 1.3 1l1.5.3c1.1.1 2 .4 2.6 1 .5.4.8 1.1.8 2 0 1-.3 1.8-1 2.3-.7.5-1.7.8-3 .8h-.7c-1.1 0-2-.3-2.8-.7-.6-.5-1-1.2-1.2-2zm10-7.3h2.7v-3h2.3v3h3.8v2H220v4.8c0 .4 0 .6.3.8.2.2.4.3.8.3h2.5v2h-2.7c-1 0-1.7-.3-2.3-.8a3 3 0 01-.9-2.3v-4.8H215v-2zm10.6 3.7c0-.6.1-1.1.3-1.6.2-.5.5-.9.9-1.2.3-.4.8-.6 1.3-.8.5-.2 1.1-.3 1.8-.3l1.8.3c.5.2 1 .4 1.3.8.4.3.7.7.9 1.2.2.5.3 1 .3 1.6v1.8h-6.4v.7c0 .6.2 1.1.6 1.5.3.4.9.6 1.5.6.5 0 .9-.1 1.2-.3.4-.1.6-.3.8-.6h2.2l-.5 1.1-1 .9-1.2.5a5.6 5.6 0 01-3.3 0c-.5-.3-1-.5-1.3-.9-.4-.3-.7-.7-.9-1.2a4 4 0 01-.3-1.6v-2.5zm2.2.3h4.2v-.3a2 2 0 00-.6-1.5 2 2 0 00-1.5-.6 2 2 0 00-1.5.6 2 2 0 00-.6 1.5v.3zm8.3-4h2.1v1.7h.2c.1-.6.4-1 .8-1.4a3 3 0 011.8-.5c1 0 1.8.3 2.4 1 .6.7.9 1.5.9 2.6v6.5H242v-6.2c0-.6-.1-1-.5-1.4-.3-.4-.7-.5-1.3-.5-.6 0-1 .1-1.4.5a2 2 0 00-.5 1.4v6.2h-2.2v-9.9zm10.1 3.7c0-.6.1-1.1.3-1.6.2-.5.5-.9.9-1.2.3-.4.8-.6 1.3-.8.5-.2 1.1-.3 1.8-.3l1.8.3c.5.2 1 .4 1.3.8.4.3.7.7.9 1.2.2.5.3 1 .3 1.6v1.8h-6.4v.7c0 .6.2 1.1.6 1.5.3.4.9.6 1.5.6.5 0 .9-.1 1.2-.3.4-.1.6-.3.8-.6h2.2l-.5 1.1-1 .9-1.2.5a5.6 5.6 0 01-3.3 0c-.5-.3-1-.5-1.3-.9-.4-.3-.7-.7-.9-1.2a4 4 0 01-.3-1.6v-2.5zm2.2.3h4.2v-.3a2 2 0 00-.6-1.5 2 2 0 00-1.5-.6 2 2 0 00-1.5.6 2 2 0 00-.6 1.5v.3zm10.8-4v1.7h.2c.1-.6.4-1 .9-1.4.5-.3 1-.5 1.8-.5 1.1 0 2 .3 2.5 1 .6.7 1 1.6 1 2.7v.8h-2.4v-.6a2 2 0 00-.5-1.4 2 2 0 00-1.5-.6c-.6 0-1 .2-1.3.6-.4.3-.5.8-.5 1.4v6.2H257v-9.9h2.1zM310.9 103v-2h5.4v9.8c0 .4 0 .7.3.9.2.2.5.3.8.3h3v2h-3.2c-1 0-1.8-.3-2.3-.8-.6-.6-.9-1.4-.9-2.4V103H311zm11.2 9h3.5V106h-3v-2h5.2v7.8h2.9v2.1H322v-2zm2.9-10.6c0-.3.1-.6.3-.8.3-.3.6-.4 1-.4h.4c.4 0 .7.1 1 .4.2.2.3.5.3.8 0 .4-.1.7-.3.9-.3.2-.6.3-1 .3h-.4c-.4 0-.7-.1-1-.3-.2-.2-.3-.5-.3-.9zm7 10h2.2c.1.4.3.6.6.8.3.2.7.3 1.1.3h.7c.6 0 1-.2 1.3-.4.4-.2.5-.5.5-.9 0-.7-.5-1-1.5-1.2l-1.4-.2c-1.2-.1-2-.4-2.5-.9-.6-.5-.8-1.2-.8-2 0-1 .3-1.7 1-2.2.6-.5 1.5-.8 2.8-.8h.7c1 0 2 .3 2.6.7.7.5 1 1.1 1.2 2h-2.3a1 1 0 00-.5-.7 2 2 0 00-1-.3h-.7c-1.1 0-1.6.4-1.6 1.2 0 .6.4 1 1.3 1l1.5.3c1.1.1 2 .4 2.6 1 .5.4.8 1.1.8 2 0 1-.3 1.8-1 2.3-.7.5-1.7.8-3 .8h-.7c-1.1 0-2-.3-2.8-.7-.6-.5-1-1.2-1.2-2zm10-7.3h2.7v-3h2.3v3h3.8v2H347v4.8c0 .4 0 .6.3.8.2.2.4.3.8.3h2.5v2h-2.7c-1 0-1.7-.3-2.3-.8a3 3 0 01-.9-2.3v-4.8H342v-2zm10.6 3.7c0-.6.1-1.1.3-1.6.2-.5.5-.9.9-1.2.3-.4.8-.6 1.3-.8.5-.2 1.1-.3 1.8-.3l1.8.3c.5.2 1 .4 1.3.8.4.3.7.7.9 1.2.2.5.3 1 .3 1.6v1.8h-6.4v.7c0 .6.2 1.1.6 1.5.3.4.9.6 1.5.6.5 0 .9-.1 1.2-.3.4-.1.6-.3.8-.6h2.2l-.5 1.1-1 .9-1.2.5a5.6 5.6 0 01-3.3 0c-.5-.3-1-.5-1.3-.9-.4-.3-.7-.7-.9-1.2a4 4 0 01-.3-1.6v-2.5zm2.2.3h4.2v-.3a2 2 0 00-.6-1.5 2 2 0 00-1.5-.6 2 2 0 00-1.5.6 2 2 0 00-.6 1.5v.3zm8.3-4h2.1v1.7h.2c.1-.6.4-1 .8-1.4a3 3 0 011.8-.5c1 0 1.8.3 2.4 1 .6.7.9 1.5.9 2.6v6.5H369v-6.2c0-.6-.1-1-.5-1.4-.3-.4-.7-.5-1.3-.5-.6 0-1 .1-1.4.5a2 2 0 00-.5 1.4v6.2h-2.2v-9.9zm10.1 3.7c0-.6.1-1.1.3-1.6.2-.5.5-.9.9-1.2.3-.4.8-.6 1.3-.8.5-.2 1.1-.3 1.8-.3l1.8.3c.5.2 1 .4 1.3.8.4.3.7.7.9 1.2.2.5.3 1 .3 1.6v1.8h-6.4v.7c0 .6.2 1.1.6 1.5.3.4.9.6 1.5.6.5 0 .9-.1 1.2-.3.4-.1.6-.3.8-.6h2.2l-.5 1.1-1 .9-1.2.5a5.6 5.6 0 01-3.3 0c-.5-.3-1-.5-1.3-.9-.4-.3-.7-.7-.9-1.2a4 4 0 01-.3-1.6v-2.5zm2.2.3h4.2v-.3a2 2 0 00-.6-1.5 2 2 0 00-1.5-.6 2 2 0 00-1.5.6 2 2 0 00-.6 1.5v.3zm10.8-4v1.7h.2c.1-.6.4-1 .9-1.4.5-.3 1-.5 1.8-.5 1.1 0 2 .3 2.5 1 .6.7 1 1.6 1 2.7v.8h-2.4v-.6a2 2 0 00-.5-1.4 2 2 0 00-1.5-.6c-.6 0-1 .2-1.3.6-.4.3-.5.8-.5 1.4v6.2H384v-9.9h2.1zM440.9 103v-2h5.4v9.8c0 .4 0 .7.3.9.2.2.5.3.8.3h3v2h-3.2c-1 0-1.8-.3-2.3-.8-.6-.6-.9-1.4-.9-2.4V103H441zm11.2 9h3.5V106h-3v-2h5.2v7.8h2.9v2.1H452v-2zm2.9-10.6c0-.3.1-.6.3-.8.3-.3.6-.4 1-.4h.4c.4 0 .7.1 1 .4.2.2.3.5.3.8 0 .4-.1.7-.3.9-.3.2-.6.3-1 .3h-.4c-.4 0-.7-.1-1-.3-.2-.2-.3-.5-.3-.9zm7 10h2.2c.1.4.3.6.6.8.3.2.7.3 1.1.3h.7c.6 0 1-.2 1.3-.4.4-.2.5-.5.5-.9 0-.7-.5-1-1.5-1.2l-1.4-.2c-1.2-.1-2-.4-2.5-.9-.6-.5-.8-1.2-.8-2 0-1 .3-1.7 1-2.2.6-.5 1.5-.8 2.8-.8h.7c1 0 2 .3 2.6.7.7.5 1 1.1 1.2 2h-2.3a1 1 0 00-.5-.7 2 2 0 00-1-.3h-.7c-1.1 0-1.6.4-1.6 1.2 0 .6.4 1 1.3 1l1.5.3c1.1.1 2 .4 2.6 1 .5.4.8 1.1.8 2 0 1-.3 1.8-1 2.3-.7.5-1.7.8-3 .8h-.7c-1.1 0-2-.3-2.8-.7-.6-.5-1-1.2-1.2-2zm10-7.3h2.7v-3h2.3v3h3.8v2H477v4.8c0 .4 0 .6.3.8.2.2.4.3.8.3h2.5v2h-2.7c-1 0-1.7-.3-2.3-.8a3 3 0 01-.9-2.3v-4.8H472v-2zm10.6 3.7c0-.6.1-1.1.3-1.6.2-.5.5-.9.9-1.2.3-.4.8-.6 1.3-.8.5-.2 1.1-.3 1.8-.3l1.8.3c.5.2 1 .4 1.3.8.4.3.7.7.9 1.2.2.5.3 1 .3 1.6v1.8h-6.4v.7c0 .6.2 1.1.6 1.5.3.4.9.6 1.5.6.5 0 .9-.1 1.2-.3.4-.1.6-.3.8-.6h2.2l-.5 1.1-1 .9-1.2.5a5.6 5.6 0 01-3.3 0c-.5-.3-1-.5-1.3-.9-.4-.3-.7-.7-.9-1.2a4 4 0 01-.3-1.6v-2.5zm2.2.3h4.2v-.3a2 2 0 00-.6-1.5 2 2 0 00-1.5-.6 2 2 0 00-1.5.6 2 2 0 00-.6 1.5v.3zm8.3-4h2.1v1.7h.2c.1-.6.4-1 .8-1.4a3 3 0 011.8-.5c1 0 1.8.3 2.4 1 .6.7.9 1.5.9 2.6v6.5H499v-6.2c0-.6-.1-1-.5-1.4-.3-.4-.7-.5-1.3-.5-.6 0-1 .1-1.4.5a2 2 0 00-.5 1.4v6.2h-2.2v-9.9zm10.1 3.7c0-.6.1-1.1.3-1.6.2-.5.5-.9.9-1.2.3-.4.8-.6 1.3-.8.5-.2 1.1-.3 1.8-.3l1.8.3c.5.2 1 .4 1.3.8.4.3.7.7.9 1.2.2.5.3 1 .3 1.6v1.8h-6.4v.7c0 .6.2 1.1.6 1.5.3.4.9.6 1.5.6.5 0 .9-.1 1.2-.3.4-.1.6-.3.8-.6h2.2l-.5 1.1-1 .9-1.2.5a5.6 5.6 0 01-3.3 0c-.5-.3-1-.5-1.3-.9-.4-.3-.7-.7-.9-1.2a4 4 0 01-.3-1.6v-2.5zm2.2.3h4.2v-.3a2 2 0 00-.6-1.5 2 2 0 00-1.5-.6 2 2 0 00-1.5.6 2 2 0 00-.6 1.5v.3zm10.8-4v1.7h.2c.1-.6.4-1 .9-1.4.5-.3 1-.5 1.8-.5 1.1 0 2 .3 2.5 1 .6.7 1 1.6 1 2.7v.8h-2.4v-.6a2 2 0 00-.5-1.4 2 2 0 00-1.5-.6c-.6 0-1 .2-1.3.6-.4.3-.5.8-.5 1.4v6.2H514v-9.9h2.1z"/>
      <path fill="#3D4251" d="M702.3 68.6c0 1.4-.2 2.6-.7 3.8a8.7 8.7 0 01-5 5c-1.1.4-2.4.6-3.8.6h-7.2V59.2h7.2c1.4 0 2.7.2 3.9.7a8.8 8.8 0 014.9 4.9c.5 1.2.7 2.4.7 3.8zm-3.6 0c0-1-.1-2-.4-2.8-.3-.8-.7-1.5-1.2-2-.5-.6-1.1-1-1.9-1.4-.7-.3-1.5-.4-2.4-.4H689v13.2h3.7c.9 0 1.7-.1 2.4-.4.8-.3 1.4-.8 2-1.3a8.6 8.6 0 001.6-4.9zm11.8-4.1c1 0 2 .1 2.7.4a5.8 5.8 0 013.4 3.6c.4.8.5 1.8.5 2.8 0 1-.1 2-.5 2.9a5.8 5.8 0 01-3.4 3.5c-.8.3-1.7.5-2.7.5-1 0-1.9-.2-2.7-.5a5.8 5.8 0 01-3.4-3.5c-.3-.9-.5-1.8-.5-2.9 0-1 .2-2 .5-2.8a5.9 5.9 0 013.4-3.5c.8-.4 1.7-.5 2.7-.5zm0 11.2c1.1 0 2-.3 2.5-1 .5-.8.8-2 .8-3.4s-.3-2.5-.8-3.3c-.5-.7-1.4-1-2.5-1-1 0-2 .3-2.5 1-.5.8-.8 1.9-.8 3.3 0 1.5.3 2.6.8 3.3.6.8 1.4 1.1 2.5 1.1zm18.5-8.2l-.3.3h-.9a15.5 15.5 0 00-1.3-.8l-1.1-.1c-.6 0-1 .1-1.5.3-.4.2-.8.5-1 .9a4 4 0 00-.7 1.4l-.2 1.8c0 .7 0 1.3.2 1.9l.7 1.4c.3.4.6.7 1 .9.4.2 1 .3 1.4.3a3.4 3.4 0 002-.7c.3-.1.5-.2.6-.4l.6-.2c.2 0 .4.1.5.3l1 1.2a5.8 5.8 0 01-2.5 1.7l-1.4.4-1.4.1a6 6 0 01-2.3-.5c-.7-.3-1.4-.7-2-1.3a8.4 8.4 0 01-1.8-5l.5-2.8c.3-.9.7-1.6 1.3-2.2.5-.6 1.2-1 2-1.4a7 7 0 012.8-.5c1 0 1.9.1 2.6.4.8.4 1.4.8 2 1.4l-.8 1.2z"/>
    </g>
    <g>
      <path fill="#979797" d="M631 68l-16 8V60z"/>
      <path stroke="#979797" stroke-linecap="square" stroke-width="4" d="M615 68.5h-27"/>
    </g>
  </g>
</svg>
