<svg xmlns="http://www.w3.org/2000/svg" xmlns:xlink="http://www.w3.org/1999/xlink" width="598" height="386" viewBox="0 0 598 386">
  <defs>
    <path id="a" d="M51.3 10.9a4.3 4.3 0 01-.6-2.2c0-.6.2-1.2.5-1.9a6 6 0 011.4-1.6l.6.4.1.2-.1.3a7.5 7.5 0 00-.6 1l-.2.5a2.5 2.5 0 000 1.4l.3.8.1.2c0 .2 0 .3-.3.4l-1.2.5zm3.4 0a4.3 4.3 0 01-.7-2.2c0-.6.2-1.2.5-1.9A6 6 0 0156 5.2l.6.4h.1v.5a7.5 7.5 0 00-.7 1l-.2.5a2.5 2.5 0 000 1.4l.4.8v.2c0 .2 0 .3-.2.4l-1.2.5zm7.4 9.3H69V22h-9V6.2h2.2v14zM75 10.7a5 5 0 011.9.3 4.1 4.1 0 012.4 2.5c.2.7.3 1.4.3 2.2v.6l-.4.1h-7.5c0 .7.1 1.4.3 1.9.2.5.4 1 .7 1.3l1.1.8 1.5.2c.5 0 .9 0 1.2-.2a6 6 0 001.6-.7l.5-.2.3.2.6.7-.9.8-1 .5a6.9 6.9 0 01-4.6 0c-.7-.2-1.2-.6-1.7-1-.5-.6-.8-1.2-1.1-2a7.6 7.6 0 010-4.7 4.7 4.7 0 012.7-3c.6-.2 1.3-.3 2.1-.3zm0 1.4a3 3 0 00-2.2.8c-.5.6-.9 1.3-1 2.3h6l-.1-1.2c-.1-.4-.3-.7-.6-1-.2-.3-.5-.5-.9-.7a3 3 0 00-1.2-.2zm10.5 10c-.9 0-1.6-.2-2-.7-.5-.5-.7-1.2-.7-2v-6.9h-1.4l-.3-.1-.1-.3v-.8l1.8-.2.5-3.5.1-.3h1.3V11H88v1.4h-3.2v6.7c0 .5.1.8.4 1 .2.3.5.4.8.4l.6-.1a2.3 2.3 0 00.6-.4h.2l.3.1.6 1c-.3.3-.8.5-1.2.7l-1.5.3zm6.2-16.7a4.1 4.1 0 01.6 2.1 4 4 0 01-.5 2 6 6 0 01-1.3 1.6l-.6-.4-.2-.1v-.1l.1-.3a5.1 5.1 0 00.7-1l.2-.5a2.5 2.5 0 000-1.4l-.4-.8v-.2c0-.2 0-.3.2-.4l1.2-.5zm9.7 7.3c-.1.2-.3.2-.4.2h-.4a8.6 8.6 0 00-1.2-.6 3.4 3.4 0 00-2 0l-.6.3-.4.5-.2.7c0 .2.1.5.3.7l.6.5 1 .3a49.6 49.6 0 013 1.3l.7.8.2 1.2c0 .5 0 1-.3 1.4-.2.5-.4.8-.8 1.1a4 4 0 01-1.3.8c-.5.2-1.1.3-1.8.3a5.6 5.6 0 01-3.7-1.4l.4-.7.2-.2.4-.1.4.1.5.4.8.3 1 .2c.5 0 .8 0 1-.2.4 0 .6-.2.8-.4l.4-.6.2-.7c0-.3-.1-.5-.3-.7a2 2 0 00-.6-.6l-1-.3a68.4 68.4 0 01-2.1-.8l-1-.5-.6-.9c-.2-.3-.2-.7-.2-1.2a3 3 0 011-2.2c.3-.3.7-.6 1.2-.8a5 5 0 011.7-.2c.8 0 1.4.1 2 .3l1.5 1-.4.7z"/>
    <path id="b" d="M183.5 10.7l1.4.1 1.1.5h3v.7c0 .3 0 .4-.4.5l-1.3.2c.3.4.4 1 .4 1.6a3.4 3.4 0 01-1.2 2.6c-.3.3-.8.5-1.3.7a5.6 5.6 0 01-3.2 0l-.5.5-.2.5c0 .3.1.5.4.6.2.2.5.3.8.3l1.2.1a36.1 36.1 0 012.7.3c.5 0 .9.2 1.2.4.4.2.7.4.9.7a3 3 0 010 2.6c-.3.5-.6 1-1 1.3-.5.3-1 .6-1.7.8a8.4 8.4 0 01-4.3 0 5 5 0 01-1.6-.6c-.4-.2-.7-.6-.9-1-.2-.3-.3-.6-.3-1 0-.6.2-1 .5-1.4.4-.4.9-.7 1.5-1a2 2 0 01-.8-.5c-.2-.3-.3-.6-.3-1l.1-.5c0-.2.2-.4.3-.5a2.9 2.9 0 011-1c-.5-.2-1-.6-1.2-1.2-.3-.5-.5-1-.5-1.7a3.3 3.3 0 011.2-2.6 4 4 0 011.3-.8l1.7-.2zm3.5 12c0-.4 0-.6-.2-.8l-.7-.4-.9-.2a13.9 13.9 0 00-2.2-.1l-1.2-.1-1 .7a1.5 1.5 0 00-.2 1.7l.6.6c.3.1.6.3 1 .3l1.4.2c.6 0 1 0 1.4-.2.5 0 .8-.2 1.1-.4.3-.1.5-.3.7-.6l.2-.8zm-3.5-6.1l1-.2c.4-.1.6-.3.8-.5l.5-.7.2-.9c0-.7-.2-1.2-.7-1.6-.4-.4-1-.6-1.8-.6s-1.4.2-1.8.6c-.4.4-.6 1-.6 1.6 0 .3 0 .6.2 1a2 2 0 001.2 1c.3.2.6.3 1 .3zm12-6c.8 0 1.6.2 2.2.5a4.7 4.7 0 012.8 3c.2.7.3 1.5.3 2.3 0 .9 0 1.7-.3 2.4s-.6 1.3-1 1.8c-.6.5-1.1.9-1.8 1.2-.6.2-1.4.4-2.2.4-.8 0-1.5-.2-2.2-.4-.6-.3-1.2-.7-1.7-1.2-.4-.5-.8-1.1-1-1.8a7 7 0 01-.4-2.4c0-.8.1-1.6.4-2.3.2-.8.6-1.4 1-1.9.5-.5 1-.8 1.7-1.1.7-.3 1.4-.4 2.2-.4zm0 10c1.1 0 2-.3 2.5-1 .5-.8.8-1.8.8-3.2 0-1.3-.3-2.3-.8-3-.5-.8-1.4-1.2-2.5-1.2-.5 0-1 .1-1.4.3-.4.2-.8.5-1 .8l-.7 1.4-.2 1.7.2 1.8.6 1.3c.3.4.7.6 1 .8l1.5.3z"/>
    <path id="c" d="M250.4 22.2c-.8 0-1.5-.3-2-.8s-.7-1.2-.7-2v-6.9h-1.3l-.3-.1-.2-.3v-.8l1.9-.2.4-3.5c0-.1 0-.2.2-.3h1.3V11h3.2v1.4h-3.2v6.7c0 .5 0 .8.3 1 .2.3.5.4.9.4l.5-.1a2.3 2.3 0 00.7-.4h.2l.3.1.5 1a4.1 4.1 0 01-2.7 1zm9.4-11.5c.8 0 1.5.1 2.2.4a4.7 4.7 0 012.7 3 7.2 7.2 0 010 4.7c-.2.7-.6 1.3-1 1.8-.5.5-1 .9-1.7 1.2-.7.2-1.4.4-2.2.4-.8 0-1.6-.2-2.2-.4-.7-.3-1.2-.7-1.7-1.2s-.8-1.1-1-1.8a7 7 0 01-.4-2.4c0-.8 0-1.6.3-2.3a4.7 4.7 0 012.7-3c.7-.3 1.5-.4 2.3-.4zm0 10c1 0 2-.4 2.4-1.2.6-.7.9-1.7.9-3 0-1.4-.3-2.4-.9-3.2-.5-.7-1.3-1-2.4-1-.6 0-1 0-1.5.2l-1 .8c-.3.4-.5.8-.6 1.4l-.2 1.7c0 .7 0 1.3.2 1.8.1.5.3 1 .6 1.3.3.4.6.6 1 .8.4.2 1 .3 1.5.3z"/>
    <path id="d" d="M347.6 6.2l.5.1.3.3 9.1 11.9a7.5 7.5 0 010-1.1V6.2h1.8V22h-1a1 1 0 01-.5 0 1 1 0 01-.3-.4l-9.1-11.9a14.1 14.1 0 010 1V22h-1.9V6.2h1.1zm14.6 14.6a1.4 1.4 0 01.4-1 1.3 1.3 0 011-.4l.5.1c.2 0 .4.2.5.3a1.3 1.3 0 01.4 1 1.4 1.4 0 01-.4 1 1.3 1.3 0 01-1 .4 1.4 1.4 0 01-1-.4 1.4 1.4 0 01-.4-1zm10-5V22h-2v-6.3l-5.9-9.5h2c.1 0 .3 0 .4.2l.3.3 3.6 6.2a7.6 7.6 0 01.6 1.4 13 13 0 01.6-1.4l3.6-6.2.3-.3.4-.2h2l-5.9 9.5zm5.2 5a1.4 1.4 0 01.4-1 1.3 1.3 0 011-.4l.5.1c.2 0 .3.2.4.3a1.3 1.3 0 01.4 1 1.4 1.4 0 01-.4 1 1.3 1.3 0 01-1 .4 1.4 1.4 0 01-1-.4 1.4 1.4 0 01-.3-1zm8.4-14.6v6.3a27.8 27.8 0 01-.2 4h-1.4a66.4 66.4 0 01-.2-4V6.2h1.8zm-2.3 14.6a1.4 1.4 0 01.4-1 1.3 1.3 0 011-.4l.5.1c.2 0 .3.2.4.3a1.3 1.3 0 01.4 1 1.4 1.4 0 01-.4 1 1.3 1.3 0 01-1 .4 1.4 1.4 0 01-1-.4 1.4 1.4 0 01-.3-1zm8.1-15.4a4.1 4.1 0 01.6 2.1 4 4 0 01-.5 2 6 6 0 01-1.3 1.6l-.6-.4-.2-.1v-.1l.1-.3a5.1 5.1 0 00.7-1l.2-.5a2.5 2.5 0 000-1.4l-.4-.8v-.2c0-.2 0-.3.2-.4l1.2-.5zm3.4 0a4.1 4.1 0 01.6 2.1 4 4 0 01-.5 2 6 6 0 01-1.4 1.6l-.6-.4-.1-.1v-.1-.3a5.1 5.1 0 00.7-1l.2-.5a2.5 2.5 0 000-1.4l-.4-.8v-.2c0-.2 0-.3.3-.4l1.2-.5z"/>
    <path id="e" d="M13.5 77.8c-.5-.8-.8-1.6-.8-2.5 0-.7.2-1.4.6-2 .3-.7.9-1.4 1.6-2l.8.6.2.2V72.4l-.1.2a5.7 5.7 0 00-.6.8l-.2.6-.1.7.1.8c0 .3.2.5.4.9l.1.3c0 .2-.1.4-.4.5l-1.6.6zm3.6 0c-.5-.8-.7-1.6-.7-2.5 0-.7.2-1.4.5-2 .4-.7 1-1.4 1.6-2l.9.6.1.2v.5a5.7 5.7 0 00-.7.8l-.2.6v1.5l.5.9v.3c0 .2 0 .4-.3.5l-1.7.6z"/>
    <path id="f" d="M80.8 86.8h6.8v1.7h-9V72.8h2.2v14zm12.9-9.6a5 5 0 011.8.4A4.1 4.1 0 0198 80c.2.6.3 1.3.3 2.1l-.1.6-.4.2h-7.4c0 .7.1 1.3.3 1.8.2.5.4 1 .7 1.3.3.4.7.6 1.1.8l1.5.3 1.2-.2a6 6 0 001.6-.7l.4-.2c.2 0 .3 0 .4.2l.6.7-1 .7c-.2.3-.6.4-1 .6a6.9 6.9 0 01-4.5 0c-.7-.3-1.2-.6-1.7-1.1-.5-.5-.9-1.2-1.1-1.9a7.6 7.6 0 010-4.7c.2-.7.5-1.3 1-1.8.4-.5 1-.9 1.6-1.2.6-.2 1.4-.4 2.2-.4zm0 1.5a3 3 0 00-2.2.8c-.5.5-.9 1.3-1 2.3h6l-.1-1.3-.6-1c-.2-.2-.5-.5-.9-.6a3 3 0 00-1.2-.2zm10.5 10c-.9 0-1.6-.2-2-.7-.5-.5-.8-1.2-.8-2.1V79h-1.6l-.1-.4v-.8l1.8-.2.5-3.4.1-.3.3-.1h1v3.8h3.2V79h-3.2v6.7c0 .5.1.8.3 1 .3.3.6.4 1 .4h.4a2.3 2.3 0 00.7-.4l.2-.1c.1 0 .2 0 .3.2l.6 1-1.3.7-1.4.2zm6.2-16.7a4.1 4.1 0 01.6 2 4 4 0 01-.5 2 6 6 0 01-1.4 1.6l-.6-.3V77h-.1l.1-.3a5.1 5.1 0 00.6-1l.2-.6a2.5 2.5 0 000-1.3c0-.3-.2-.6-.3-.8l-.1-.3c0-.1 0-.3.3-.4l1.2-.4zm9.6 7.2c0 .2-.2.3-.4.3l-.3-.1a8.6 8.6 0 00-1.3-.6 3.4 3.4 0 00-1.8 0l-.7.4-.5.5-.1.6c0 .3 0 .5.2.7l.7.5 1 .4a49.6 49.6 0 013 1.3c.2.2.5.5.6.8.2.3.3.7.3 1.1l-.3 1.5c-.2.4-.5.8-.8 1a4 4 0 01-1.3.8l-1.8.3a5.6 5.6 0 01-3.8-1.3l.5-.8.2-.2h.8l.5.4.7.4 1.2.1 1-.1.7-.4.4-.6.1-.7c0-.3 0-.6-.2-.8a2 2 0 00-.7-.5l-.9-.4a68.4 68.4 0 01-2.1-.7l-1-.6-.6-.8-.3-1.2a3 3 0 011-2.3l1.3-.7a5 5 0 011.7-.3c.7 0 1.4.1 2 .4.6.2 1 .5 1.5 1l-.5.6z"/>
    <path id="g" d="M182.2 77.2c.4 0 .9 0 1.3.2.4 0 .8.2 1.2.4h3v.8c0 .2-.2.4-.5.4l-1.2.2c.2.5.3 1 .3 1.6a3.4 3.4 0 01-1.1 2.6c-.4.3-.8.6-1.4.7-.5.2-1 .3-1.6.3-.6 0-1 0-1.5-.2l-.5.5c-.2.2-.2.3-.2.5s0 .4.3.6l.8.3h1.2a36.1 36.1 0 012.8.3l1.2.4.8.8c.2.3.3.7.3 1.2s0 1-.3 1.4c-.3.5-.6.9-1 1.2a7 7 0 01-3.8 1.1c-.9 0-1.6 0-2.2-.2a5 5 0 01-1.5-.6l-1-1-.2-1c0-.6.1-1.1.5-1.5.3-.4.8-.7 1.4-1a2 2 0 01-.7-.5c-.2-.2-.3-.6-.3-1v-.5l.3-.5a2.9 2.9 0 011.1-.9c-.5-.3-1-.7-1.3-1.2-.3-.5-.5-1.1-.5-1.8 0-.5.1-1 .4-1.5l.8-1.1a4 4 0 011.4-.7c.5-.2 1-.3 1.7-.3zm3.4 12c0-.3 0-.6-.2-.7-.1-.2-.4-.3-.6-.4l-1-.2a13.9 13.9 0 00-2.2-.2h-1.1c-.4.1-.8.4-1 .6a1.5 1.5 0 00-.2 1.8c.1.2.3.4.6.5.2.2.6.3 1 .4l1.4.1 1.4-.1c.4-.1.8-.2 1-.4l.7-.6c.2-.3.2-.6.2-.8zm-3.4-6.1c.4 0 .7 0 1-.2.3 0 .6-.2.8-.4l.4-.7.2-1c0-.6-.2-1.2-.6-1.6-.4-.4-1-.6-1.8-.6s-1.4.2-1.8.6a2.5 2.5 0 00-.5 2.5 2 2 0 001.2 1.2l1 .2zm12-5.9c.8 0 1.5.2 2.2.4a4.7 4.7 0 012.7 3c.2.7.4 1.5.4 2.4 0 .8-.2 1.6-.4 2.3-.2.7-.6 1.3-1 1.8-.5.5-1 1-1.7 1.2-.7.3-1.4.4-2.2.4-.8 0-1.6-.1-2.2-.4-.7-.3-1.3-.7-1.7-1.2-.5-.5-.8-1-1-1.8a7 7 0 01-.5-2.3c0-.9.2-1.7.4-2.4.3-.7.6-1.3 1-1.8.5-.5 1.1-.9 1.8-1.2.6-.2 1.4-.4 2.2-.4zm0 10c1 0 1.9-.4 2.4-1.1.6-.8.8-1.8.8-3.1s-.2-2.4-.8-3.1c-.5-.8-1.3-1.1-2.4-1.1-.6 0-1 0-1.5.3-.4.1-.7.4-1 .8-.3.3-.5.8-.6 1.3-.2.5-.2 1.1-.2 1.8 0 .6 0 1.2.2 1.8.1.5.3 1 .6 1.3l1 .8c.4.2 1 .3 1.5.3z"/>
    <path id="h" d="M249 88.7c-1 0-1.6-.2-2-.7-.6-.5-.8-1.2-.8-2.1V79h-1.6l-.2-.4v-.8l1.9-.2.4-3.4c0-.2 0-.2.2-.3l.3-.1h1v3.8h3.2V79h-3.2v6.7c0 .5 0 .8.3 1 .2.3.5.4.9.4h.5a2.3 2.3 0 00.7-.4l.2-.1c.1 0 .2 0 .3.2l.5 1-1.2.7-1.5.2zm9.3-11.5c.8 0 1.5.2 2.2.4a4.7 4.7 0 012.7 3c.3.7.4 1.5.4 2.4 0 .8-.1 1.6-.4 2.3-.2.7-.6 1.3-1 1.8-.5.5-1 1-1.7 1.2-.7.3-1.4.4-2.2.4-.8 0-1.6-.1-2.2-.4-.7-.3-1.2-.7-1.7-1.2s-.8-1-1-1.8a7 7 0 01-.4-2.3c0-.9 0-1.7.3-2.4s.6-1.3 1.1-1.8c.5-.5 1-.9 1.7-1.2.6-.2 1.4-.4 2.2-.4zm0 10c1 0 2-.4 2.4-1.1.6-.8.9-1.8.9-3.1s-.3-2.4-.9-3.1c-.5-.8-1.3-1.1-2.4-1.1-.6 0-1 0-1.5.3-.4.1-.7.4-1 .8-.3.3-.5.8-.6 1.3L255 83c0 .6 0 1.2.2 1.8.1.5.3 1 .6 1.3l1 .8c.4.2 1 .3 1.5.3z"/>
    <path id="i" d="M347.2 72.8h.5l.3.3 9.1 12a7.5 7.5 0 010-1.2V72.8h1.8v15.7h-1a1 1 0 01-.5 0 1 1 0 01-.3-.3l-9.1-12a14.1 14.1 0 010 1.1v11.2h-1.9V72.8h1.1zm14.6 14.5a1.4 1.4 0 01.4-1 1.3 1.3 0 011-.4c.2 0 .4 0 .5.2.2 0 .3.1.5.3a1.3 1.3 0 01.4 1 1.4 1.4 0 01-.4 1 1.3 1.3 0 01-1 .3 1.4 1.4 0 01-1-.4 1.4 1.4 0 01-.4-1zm10-5v6.2h-2v-6.2l-5.9-9.5h2l.4.1.2.4 3.7 6.1a7.6 7.6 0 01.6 1.4 13 13 0 01.6-1.4l3.6-6.1.3-.4.4-.1h2l-5.9 9.5zm5.2 5a1.4 1.4 0 01.4-1 1.3 1.3 0 011-.4c.1 0 .3 0 .5.2.2 0 .3.1.4.3a1.3 1.3 0 01.4 1 1.4 1.4 0 01-.4 1 1.3 1.3 0 01-1 .3 1.4 1.4 0 01-1-.4 1.4 1.4 0 01-.3-1zm8.4-14.5V79a27.8 27.8 0 01-.3 4h-1.3a66.4 66.4 0 01-.3-4v-6.3h2zm-2.3 14.5a1.4 1.4 0 01.4-1 1.3 1.3 0 011-.4c.1 0 .3 0 .5.2l.4.3a1.3 1.3 0 01.4 1 1.4 1.4 0 01-.4 1 1.3 1.3 0 01-1 .3 1.4 1.4 0 01-1-.4 1.4 1.4 0 01-.3-1zm8.1-15.3a4.1 4.1 0 01.6 2 4 4 0 01-.5 2 6 6 0 01-1.3 1.6l-.6-.3-.2-.2.1-.3a5.1 5.1 0 00.7-1l.2-.6a2.5 2.5 0 000-1.3l-.4-.8v-.3c0-.1 0-.3.2-.4l1.2-.4zm3.3 0a4.1 4.1 0 01.7 2 4 4 0 01-.5 2 6 6 0 01-1.4 1.6l-.6-.3-.1-.2v-.3a5.1 5.1 0 00.7-1l.2-.6a2.5 2.5 0 000-1.3c0-.3-.2-.6-.4-.8v-.3c0-.1 0-.3.2-.4l1.2-.4z"/>
    <path id="j" d="M13.5 141c-.5-.7-.8-1.6-.8-2.4 0-.7.2-1.4.6-2.1.3-.7.9-1.3 1.6-1.8l.8.5.2.1v.4l-.1.2a5.7 5.7 0 00-.6.8l-.2.6-.1.6.1.8c0 .3.2.6.4 1l.1.2c0 .3-.1.4-.4.5l-1.6.7zm3.6 0c-.5-.7-.7-1.6-.7-2.4 0-.7.2-1.4.5-2.1.4-.7 1-1.3 1.6-1.8l.9.5.1.1V136a5.7 5.7 0 00-.7.8l-.2.6v1.4l.5 1v.2c0 .3 0 .4-.3.5l-1.7.7z"/>
    <path id="k" d="M60 149.4h6.3v2.4h-9.4V136h3v13.5zm12.4-9c.7 0 1.4 0 2 .3a4.3 4.3 0 012.5 2.6 6 6 0 01.4 2.7l-.1.3-.2.2h-7.3c0 1.2.4 2 1 2.6a3 3 0 002 .8c.5 0 1 0 1.2-.2l.9-.3.6-.4.5-.1h.3l.2.2.8 1-1 1a5.7 5.7 0 01-2.4.8h-1.3a6 6 0 01-2.1-.3c-.7-.3-1.3-.7-1.8-1.2s-.9-1.1-1.2-1.9a7.3 7.3 0 010-4.7c.2-.7.6-1.3 1-1.8a5 5 0 011.7-1.2c.7-.3 1.5-.4 2.3-.4zm0 1.9c-.7 0-1.3.2-1.8.7-.4.4-.7 1-.8 1.9h5v-1l-.5-.8a2 2 0 00-.8-.6l-1-.2zm10.8 9.7c-1 0-1.7-.3-2.2-.8-.6-.6-.8-1.4-.8-2.3v-6.3H79c-.1 0-.3 0-.4-.2l-.1-.4v-1l1.8-.4.6-3c0-.2 0-.3.2-.4l.4-.1h1.4v3.5h3v2h-3v6c0 .4 0 .7.2 1l.8.2h.4a2.3 2.3 0 00.5-.3h.4l.2.2.8 1.3c-.4.3-.9.6-1.4.7a5 5 0 01-1.6.3z"/>
    <path id="l" d="M183 140.3c.4 0 .9 0 1.3.2.4 0 .8.2 1.2.4h3.2v1l-.1.4c0 .1-.2.2-.5.2l-1 .2a3.5 3.5 0 01.3 1.3 3.4 3.4 0 01-1.3 2.6c-.4.4-.9.6-1.4.8a5.7 5.7 0 01-3 .1c-.3.2-.5.5-.5.7 0 .3 0 .4.3.5l.8.3h1.2a24.2 24.2 0 012.6.3l1.2.4.8.8c.2.4.3.8.3 1.4 0 .5 0 1-.3 1.4l-1 1.3-1.8.9a8.9 8.9 0 01-4.5 0c-.7-.1-1.2-.3-1.6-.6l-1-1-.2-1c0-.6.1-1 .4-1.4.4-.4.8-.7 1.4-.9-.3-.1-.5-.3-.7-.6-.2-.3-.2-.6-.2-1v-.5l.3-.6.5-.5.6-.4a3.3 3.3 0 01-1.8-3 3.4 3.4 0 011.2-2.7c.4-.3 1-.5 1.5-.7a6 6 0 011.8-.3zm3 12c0-.2-.1-.4-.3-.5 0-.2-.3-.3-.5-.3a14.7 14.7 0 00-2.8-.3l-1-.1c-.4.1-.6.3-.8.6-.2.2-.3.5-.3.8 0 .2 0 .3.2.5 0 .2.2.3.4.5l.9.2 1.2.2c.5 0 1 0 1.3-.2.4 0 .7-.1 1-.3l.5-.5.1-.6zm-3-6.4l.8-.1.7-.4.3-.6.2-.7c0-.6-.2-1-.5-1.4-.4-.3-.9-.5-1.5-.5-.7 0-1.2.2-1.5.5-.4.4-.5.8-.5 1.4v.7a1.6 1.6 0 001 1l1 .1zm12.3-5.5c.8 0 1.6 0 2.2.4a5 5 0 013 3c.2.7.3 1.5.3 2.4a7 7 0 01-.4 2.4 4.9 4.9 0 01-2.9 3 6.2 6.2 0 01-4.6 0 5 5 0 01-2.8-3c-.3-.7-.4-1.6-.4-2.4 0-1 0-1.7.4-2.5.2-.7.6-1.3 1-1.8a5 5 0 011.9-1.1c.6-.3 1.4-.4 2.3-.4zm0 9.5c.9 0 1.6-.3 2-1 .5-.6.7-1.5.7-2.7 0-1.2-.2-2.2-.7-2.8-.4-.6-1.1-1-2-1-1 0-1.7.4-2.2 1-.4.6-.6 1.6-.6 2.8 0 1.2.2 2.1.6 2.7.5.7 1.2 1 2.2 1z"/>
    <path id="m" d="M251.3 152c-1 0-1.7-.3-2.2-.8-.6-.6-.8-1.4-.8-2.3v-6.3H247c-.1 0-.2 0-.3-.2l-.2-.4v-1l1.8-.4.6-3c0-.2 0-.3.2-.4l.4-.1h1.4v3.5h3v2h-3v6c0 .4 0 .7.3 1l.7.2h.4a2.3 2.3 0 00.5-.3h.4l.2.2.8 1.3c-.4.3-.9.6-1.4.7a5 5 0 01-1.6.3zm9.7-11.6c.8 0 1.6 0 2.2.4a5 5 0 013 3c.2.7.3 1.5.3 2.4a7 7 0 01-.4 2.4 4.9 4.9 0 01-2.9 3 6.2 6.2 0 01-4.6 0 5 5 0 01-2.8-3c-.3-.7-.4-1.6-.4-2.4 0-1 0-1.7.4-2.5.2-.7.6-1.3 1-1.8a5 5 0 011.9-1.1c.6-.3 1.4-.4 2.3-.4zm0 9.5c.9 0 1.6-.3 2-1 .5-.6.7-1.5.7-2.7 0-1.2-.2-2.2-.7-2.8-.4-.6-1.1-1-2-1-1 0-1.7.4-2.2 1-.4.6-.6 1.6-.6 2.8 0 1.2.2 2.1.6 2.7.5.7 1.2 1 2.2 1z"/>
    <path id="n" d="M347.7 136l.5.1.3.3 9.1 11.9a7.5 7.5 0 010-1V136h1.8v15.7h-1a1 1 0 01-.5 0 1 1 0 01-.3-.4l-9.1-11.8a14.1 14.1 0 010 1v11.2h-1.9v-15.7h1.1zm14.6 14.6a1.4 1.4 0 01.4-1 1.3 1.3 0 011-.4l.5.1.5.3a1.3 1.3 0 01.4 1 1.4 1.4 0 01-.4 1 1.3 1.3 0 01-1 .4 1.4 1.4 0 01-1-.4 1.4 1.4 0 01-.4-1zm10-5v6.2h-2v-6.3l-5.9-9.4h2l.4.1.2.4 3.7 6a7.6 7.6 0 01.6 1.5 13 13 0 01.6-1.4l3.6-6.1c0-.2.2-.3.3-.4l.4-.1h2l-5.9 9.4zm5.2 5a1.4 1.4 0 01.4-1 1.3 1.3 0 011-.4l.5.1.4.3a1.3 1.3 0 01.4 1 1.4 1.4 0 01-.4 1 1.3 1.3 0 01-1 .4 1.4 1.4 0 01-1-.4 1.4 1.4 0 01-.3-1zm8.4-14.5v6.2a27.8 27.8 0 01-.3 4h-1.3a66.4 66.4 0 01-.3-4v-6.2h2zm-2.3 14.5a1.4 1.4 0 01.4-1 1.3 1.3 0 011-.4l.5.1.4.3a1.3 1.3 0 01.4 1 1.4 1.4 0 01-.4 1 1.3 1.3 0 01-1 .4 1.4 1.4 0 01-1-.4 1.4 1.4 0 01-.3-1zm8.1-15.4a4.1 4.1 0 01.6 2.1 4 4 0 01-.5 2 6 6 0 01-1.3 1.6l-.6-.4h-.2v-.2l.1-.3a5.1 5.1 0 00.7-1l.2-.5a2.5 2.5 0 000-1.4l-.4-.8v-.2c0-.2 0-.3.2-.4l1.2-.5zm3.3 0a4.1 4.1 0 01.7 2.1 4 4 0 01-.5 2 6 6 0 01-1.4 1.6l-.6-.4h-.1v-.2-.3a5.1 5.1 0 00.7-1l.2-.5a2.5 2.5 0 000-1.4l-.4-.8v-.2c0-.2 0-.3.2-.4l1.2-.5z"/>
    <path id="o" d="M127 135l.6 1.2a4.3 4.3 0 01-.4 3.3c-.4.7-.9 1.3-1.6 1.9l-.8-.5-.2-.2v-.2l.1-.3a6.5 6.5 0 00.6-.9 2.9 2.9 0 00.3-1.2l-.1-.8c0-.3-.2-.6-.4-.9l-.1-.3c0-.2.1-.4.4-.5l1.6-.6zm9.7 7.7l-.2.3h-.3a29 29 0 00-1.6-.6h-1a2 2 0 00-1.2.3 1 1 0 00-.5.9l.3.6.6.4.9.3a29 29 0 012 .8l.9.5.6.9c.2.3.3.7.3 1.1 0 .6-.1 1-.3 1.5-.2.5-.5.9-.9 1.2a4 4 0 01-1.4.8 6.1 6.1 0 01-3 .2 6.7 6.7 0 01-2.1-.7l-.8-.6.7-1c0-.2.1-.2.3-.3l.4-.1.4.1a10.6 10.6 0 001.3.6l1 .2.8-.1.6-.3.3-.5.1-.5c0-.2 0-.5-.2-.6a2 2 0 00-.6-.5 29.4 29.4 0 01-3-1l-.9-.6-.6-1c-.2-.3-.2-.7-.2-1.2a3.3 3.3 0 011-2.4 4 4 0 011.4-.8c.5-.2 1.1-.2 1.8-.2a4.8 4.8 0 013.7 1.4l-.6 1z"/>
    <path id="p" d="M13.5 208.7c-.5-.8-.8-1.6-.8-2.5 0-.7.2-1.4.6-2 .3-.7.9-1.3 1.6-2l.8.6.2.2V203.3l-.1.2a5.7 5.7 0 00-.6.9l-.2.5-.1.7.1.8c0 .3.2.6.4.9l.1.3c0 .2-.1.4-.4.5l-1.6.6zm3.6 0c-.5-.8-.7-1.6-.7-2.5 0-.7.2-1.4.5-2 .4-.7 1-1.3 1.6-2l.9.6.1.2v.5a5.7 5.7 0 00-.7.9l-.2.5v1.5l.5.9v.3c0 .2 0 .4-.3.5l-1.7.6z"/>
    <path id="q" d="M60 217h6.3v2.5h-9.4v-16h3V217zm12.4-9c.7 0 1.4.1 2 .3a4.3 4.3 0 012.5 2.6 6 6 0 01.4 2.7l-.1.3-.2.2h-7.3c0 1.2.4 2 1 2.6a3 3 0 002 .8l1.2-.1.9-.4.6-.3.5-.2h.3l.2.3.8 1-1 .9a5.7 5.7 0 01-2.4.8l-1.3.1a6 6 0 01-2.1-.4c-.7-.2-1.3-.6-1.8-1.1-.5-.5-.9-1.2-1.2-2a7.3 7.3 0 010-4.7c.2-.7.6-1.3 1-1.8a5 5 0 011.7-1.2c.7-.3 1.5-.4 2.3-.4zm0 2c-.7 0-1.3.2-1.8.6-.4.5-.7 1-.8 2h5v-1l-.5-.9a2 2 0 00-.8-.6l-1-.2zm10.8 9.6c-1 0-1.7-.2-2.2-.8-.6-.6-.8-1.3-.8-2.3v-6.3H79l-.4-.1-.1-.5v-1l1.8-.3.6-3.1c0-.2 0-.3.2-.4H82.9v3.5h3v1.9h-3v6.1c0 .4 0 .6.2.8.2.2.5.3.8.3h.4a2.3 2.3 0 00.5-.3h.4l.2.2.8 1.3c-.4.4-.9.6-1.4.8a5 5 0 01-1.6.2z"/>
    <path id="r" d="M185.5 208l1.3.1 1.2.5h3.2v1l-.1.4-.5.2-1 .1a3.5 3.5 0 01.3 1.3 3.4 3.4 0 01-1.3 2.7l-1.4.7a5.7 5.7 0 01-3 .2c-.3.2-.5.4-.5.7 0 .2 0 .4.3.5l.8.2h1.2a24.2 24.2 0 012.6.3l1.2.5c.3.2.6.4.8.8.2.3.3.8.3 1.3s0 1-.3 1.5l-1 1.2c-.6.4-1.1.7-1.8.9a8.9 8.9 0 01-4.5 0c-.7 0-1.2-.3-1.6-.6l-1-1-.2-1c0-.6.1-1 .4-1.4.4-.3.8-.6 1.4-.8l-.7-.7c-.2-.2-.2-.6-.2-1v-.5l.3-.5.5-.5.6-.4c-.6-.3-1-.8-1.3-1.3-.4-.5-.5-1-.5-1.8a3.4 3.4 0 011.2-2.6c.4-.4 1-.6 1.5-.8a6 6 0 011.8-.2zm3 12c0-.3-.1-.4-.3-.6l-.5-.3a14.7 14.7 0 00-2.8-.3l-1-.1-.8.6c-.2.2-.3.5-.3.8 0 .2 0 .4.2.5 0 .2.2.4.4.5l.9.3h2.5l1-.3.5-.5.1-.6zm-3-6.5l.8-.1c.3 0 .5-.2.7-.4l.3-.6.2-.7c0-.6-.2-1-.5-1.3-.4-.4-.9-.5-1.5-.5-.7 0-1.2.1-1.5.5-.4.3-.5.7-.5 1.3v.7a1.6 1.6 0 001 1l1 .1zm12.3-5.5c.8 0 1.6.1 2.2.4a5 5 0 013 3c.2.7.3 1.5.3 2.4a7 7 0 01-.4 2.4 4.9 4.9 0 01-2.9 3c-.6.3-1.4.4-2.2.4-.9 0-1.7-.1-2.3-.4a5 5 0 01-3-3c-.2-.7-.3-1.5-.3-2.4 0-.9 0-1.7.4-2.4.2-.7.6-1.3 1-1.8a5 5 0 011.9-1.2c.6-.3 1.4-.4 2.3-.4zm0 9.5c.9 0 1.6-.3 2-1 .5-.5.7-1.5.7-2.7 0-1.2-.2-2.1-.7-2.8-.4-.6-1.1-1-2-1-1 0-1.7.4-2.2 1-.4.7-.6 1.6-.6 2.8 0 1.2.2 2.1.6 2.8.5.6 1.2 1 2.2 1z"/>
    <path id="s" d="M252.8 219.6c-1 0-1.7-.2-2.2-.8-.6-.6-.8-1.3-.8-2.3v-6.3h-1.2l-.3-.1-.2-.5v-1l1.8-.3.6-3.1c0-.2 0-.3.2-.4H252.5v3.5h3v1.9h-3v6.1c0 .4 0 .6.3.8.1.2.4.3.7.3h.4a2.3 2.3 0 00.5-.3h.4l.2.2.8 1.3c-.4.4-.9.6-1.4.8a5 5 0 01-1.6.2zm9.7-11.6c.8 0 1.6.1 2.2.4a5 5 0 013 3c.2.7.3 1.5.3 2.4a7 7 0 01-.4 2.4 4.9 4.9 0 01-2.9 3c-.6.3-1.4.4-2.2.4-.9 0-1.7-.1-2.3-.4a5 5 0 01-3-3c-.2-.7-.3-1.5-.3-2.4 0-.9 0-1.7.4-2.4.2-.7.6-1.3 1-1.8a5 5 0 011.9-1.2c.6-.3 1.4-.4 2.3-.4zm0 9.5c.9 0 1.6-.3 2-1 .5-.5.7-1.5.7-2.7 0-1.2-.2-2.1-.7-2.8-.4-.6-1.1-1-2-1-1 0-1.7.4-2.2 1-.4.7-.6 1.6-.6 2.8 0 1.2.2 2.1.6 2.8.5.6 1.2 1 2.2 1z"/>
    <path id="t" d="M331.8 203.7h.4l.3.4 9.2 11.8a7.5 7.5 0 01-.1-1v-11.2h1.9v15.8h-1.1a1 1 0 01-.4-.1 1 1 0 01-.4-.3l-9-11.9a14.1 14.1 0 010 1v11.3h-2v-15.8h1.2zm14.6 14.5a1.4 1.4 0 01.4-1 1.3 1.3 0 011-.3h.5l.4.4a1.3 1.3 0 01.4 1 1.4 1.4 0 01-.4 1 1.3 1.3 0 01-1 .3 1.4 1.4 0 01-1-.4 1.4 1.4 0 01-.3-1zm10-5v6.3h-2.1v-6.3l-5.8-9.5h1.9l.4.1.3.4 3.6 6.1a7.6 7.6 0 01.6 1.4 13 13 0 01.7-1.4l3.6-6.1.2-.3c.1-.2.3-.2.5-.2h1.9l-5.8 9.5zm5.1 5a1.4 1.4 0 01.4-1 1.3 1.3 0 011-.3h.5l.5.4a1.3 1.3 0 01.4 1 1.4 1.4 0 01-.4 1 1.3 1.3 0 01-1 .3 1.4 1.4 0 01-1-.4 1.4 1.4 0 01-.4-1zm8.5-14.5v6.3a27.8 27.8 0 01-.3 4h-1.3a66.4 66.4 0 01-.3-4v-6.3h1.9zm-2.4 14.5a1.4 1.4 0 01.4-1 1.3 1.3 0 011-.3h.5l.5.4a1.3 1.3 0 01.4 1 1.4 1.4 0 01-.4 1 1.3 1.3 0 01-1 .3 1.4 1.4 0 01-1-.4 1.4 1.4 0 01-.4-1z"/>
    <path id="u" d="M127 202.6l.6 1.2a4.3 4.3 0 01-.4 3.4c-.4.6-.9 1.3-1.6 1.8l-.8-.5-.2-.2v-.1l.1-.4a6.5 6.5 0 00.6-.8 2.9 2.9 0 00.3-1.3l-.1-.8c0-.3-.2-.6-.4-.9l-.1-.3c0-.2.1-.4.4-.5l1.6-.6zm9.7 7.8l-.2.2h-.3a29 29 0 00-1.6-.6h-1a2 2 0 00-1.2.3 1 1 0 00-.5.9c0 .2.1.5.3.6.1.2.3.3.6.4l.9.4a29 29 0 012 .7l.9.6c.3.2.5.5.6.8.2.3.3.7.3 1.2l-.3 1.5-.9 1.2a4 4 0 01-1.4.8 6.1 6.1 0 01-3 .1 6.7 6.7 0 01-2.1-.7l-.8-.6.7-1 .3-.3h.8a10.6 10.6 0 001.3.7l1 .1h.8l.6-.4.3-.4.1-.5c0-.3 0-.5-.2-.7a2 2 0 00-.6-.4 29.4 29.4 0 01-3-1l-.9-.7-.6-.9c-.2-.3-.2-.8-.2-1.3a3.3 3.3 0 011-2.4 4 4 0 011.4-.7 5.6 5.6 0 014 .1c.6.2 1.1.6 1.5 1l-.6 1z"/>
    <path id="v" d="M429.6 202.6l.5 1.2a4.3 4.3 0 01-.3 3.4c-.4.6-1 1.3-1.6 1.8l-.9-.5-.1-.2v-.1-.4a7.8 7.8 0 00.7-.8l.2-.6a2.5 2.5 0 000-1.5l-.5-.9v-.3c0-.2 0-.4.3-.5l1.7-.6zm3.6 0l.6 1.2a4.3 4.3 0 01-.4 3.4c-.3.6-.9 1.3-1.6 1.8l-.8-.5-.2-.2v-.1l.1-.4a7.8 7.8 0 00.6-.8l.2-.6a2.5 2.5 0 000-1.5c0-.3-.2-.6-.4-.9l-.1-.3c0-.2.1-.4.4-.5l1.6-.6z"/>
    <path id="w" d="M13.5 275.3c-.5-.9-.8-1.7-.8-2.5 0-.7.2-1.4.6-2.1.3-.7.9-1.3 1.6-1.9l.8.6.2.1v.4l-.1.1a5.7 5.7 0 00-.6.9l-.2.6-.1.6.1.8c0 .3.2.6.4 1l.1.2c0 .3-.1.4-.4.5l-1.6.7zm3.6 0c-.5-.9-.7-1.7-.7-2.5 0-.7.2-1.4.5-2.1.4-.7 1-1.3 1.6-1.9l.9.6.1.1v.5a5.7 5.7 0 00-.7.9l-.2.6v1.4l.5 1v.2c0 .3 0 .4-.3.5l-1.7.7z"/>
    <path id="x" d="M58.4 283.6h6.4v2.4h-9.4v-16h3v13.6zm12.5-9c.7 0 1.4 0 2 .3a4.3 4.3 0 012.5 2.6 6 6 0 01.4 2.7l-.1.3-.2.1-.3.1h-7c0 1.2.4 2 1 2.6a3 3 0 002 .8c.5 0 1 0 1.2-.2l.9-.3.6-.4.5-.1h.3l.2.2.8 1c-.3.4-.6.7-1 .9a5.7 5.7 0 01-2.4.9H71a6 6 0 01-2.1-.3c-.7-.3-1.3-.7-1.8-1.2s-.9-1.1-1.2-1.9a7.3 7.3 0 010-4.8c.2-.6.6-1.2 1-1.7a5 5 0 011.7-1.2c.7-.3 1.5-.5 2.3-.5zm0 1.9c-.7 0-1.3.2-1.8.7-.4.4-.7 1-.8 1.9h5v-1l-.5-.9a2 2 0 00-.8-.5l-1-.2zm10.8 9.7c-1 0-1.7-.3-2.2-.9-.6-.5-.8-1.3-.8-2.2v-6.4H77l-.1-.5V275l1.8-.3.6-3c0-.2 0-.3.2-.4l.4-.1h1.4v3.5h3v2h-3v6c0 .4 0 .7.2.9.2.2.5.3.8.3h.4a2.3 2.3 0 00.5-.3h.4l.2.2.8 1.3c-.4.3-.9.6-1.4.7a5 5 0 01-1.6.3z"/>
    <path id="y" d="M183 274.5c.4 0 .9 0 1.3.2.4 0 .8.2 1.2.4h3.2v1l-.1.4c0 .1-.2.2-.5.2l-1 .2a3.5 3.5 0 01.3 1.3 3.4 3.4 0 01-1.3 2.6l-1.4.8a5.7 5.7 0 01-3 .1c-.3.2-.5.4-.5.7 0 .2 0 .4.3.5l.8.2 1.2.1a24.2 24.2 0 012.6.3c.5 0 .9.2 1.2.4l.8.8c.2.4.3.8.3 1.3s0 1-.3 1.5l-1 1.3c-.6.3-1.1.6-1.8.8-.7.3-1.4.4-2.3.4-.9 0-1.6-.1-2.2-.3-.7-.1-1.2-.4-1.6-.6l-1-1-.2-1.1c0-.5.1-1 .4-1.3.4-.4.8-.7 1.4-.9l-.7-.6c-.2-.3-.2-.6-.2-1v-.5l.3-.6.5-.5.6-.4a3.3 3.3 0 01-1.8-3 3.4 3.4 0 011.2-2.7 6 6 0 013.2-1zm3 12c0-.2-.1-.4-.3-.5 0-.2-.3-.3-.5-.4a14.7 14.7 0 00-2.8-.3h-1c-.4.1-.6.3-.8.5-.2.3-.3.5-.3.8 0 .2 0 .4.2.6 0 .2.2.3.4.4.2.2.5.3.9.3l1.2.1h1.3l1-.4.5-.5.1-.6zm-3-6.4c.3 0 .6 0 .8-.2.3 0 .5-.2.7-.3l.3-.6.2-.8c0-.5-.2-1-.5-1.3-.4-.3-.9-.5-1.5-.5-.7 0-1.2.2-1.5.5-.4.3-.5.8-.5 1.3v.8a1.6 1.6 0 001 1h1zm12.3-5.6c.8 0 1.6.2 2.2.4a5 5 0 013 3c.2.7.3 1.5.3 2.4a7 7 0 01-.4 2.5 4.9 4.9 0 01-2.9 3 6.2 6.2 0 01-4.6 0 5 5 0 01-2.8-3c-.3-.8-.4-1.6-.4-2.5 0-.9 0-1.7.4-2.4.2-.7.6-1.3 1-1.8a5 5 0 011.9-1.2c.6-.2 1.4-.4 2.3-.4zm0 9.6c.9 0 1.6-.3 2-1 .5-.6.7-1.5.7-2.7 0-1.3-.2-2.2-.7-2.8-.4-.7-1.1-1-2-1-1 0-1.7.3-2.2 1-.4.6-.6 1.5-.6 2.8 0 1.2.2 2 .6 2.7.5.7 1.2 1 2.2 1z"/>
    <path id="z" d="M251.3 286.2c-1 0-1.7-.3-2.2-.9-.6-.5-.8-1.3-.8-2.2v-6.4h-1.5l-.2-.5V275l1.8-.3.6-3c0-.2 0-.3.2-.4l.4-.1h1.4v3.5h3v2h-3v6c0 .4 0 .7.3.9.1.2.4.3.7.3h.4a2.3 2.3 0 00.5-.3h.4l.2.2.8 1.3c-.4.3-.9.6-1.4.7a5 5 0 01-1.6.3zm9.7-11.7c.8 0 1.6.2 2.2.4a5 5 0 013 3c.2.7.3 1.5.3 2.4a7 7 0 01-.4 2.5 4.9 4.9 0 01-2.9 3 6.2 6.2 0 01-4.6 0 5 5 0 01-2.8-3c-.3-.8-.4-1.6-.4-2.5 0-.9 0-1.7.4-2.4.2-.7.6-1.3 1-1.8a5 5 0 011.9-1.2c.6-.2 1.4-.4 2.3-.4zm0 9.6c.9 0 1.6-.3 2-1 .5-.6.7-1.5.7-2.7 0-1.3-.2-2.2-.7-2.8-.4-.7-1.1-1-2-1-1 0-1.7.3-2.2 1-.4.6-.6 1.5-.6 2.8 0 1.2.2 2 .6 2.7.5.7 1.2 1 2.2 1z"/>
    <path id="A" d="M310.4 270.2l.4.1.4.3 9 11.9a7.5 7.5 0 010-1.1v-11.2h2V286H321a1 1 0 01-.4 0 1 1 0 01-.3-.4l-9.2-11.9a14.1 14.1 0 010 1V286h-1.8v-15.8h1.1zm14.6 14.6a1.4 1.4 0 01.4-1 1.3 1.3 0 011-.4l.5.1c.2 0 .3.2.5.3a1.3 1.3 0 01.3 1 1.4 1.4 0 01-.3 1 1.3 1.3 0 01-1 .4 1.4 1.4 0 01-1-.4 1.4 1.4 0 01-.4-1zm10-5v6.2H333v-6.3l-5.8-9.5h1.9c.2 0 .3 0 .4.2.2 0 .2.2.3.3l3.6 6.2a7.6 7.6 0 01.7 1.4 13 13 0 01.6-1.4l3.6-6.2.3-.3.4-.2h2l-5.9 9.5zm5.2 5a1.4 1.4 0 01.4-1 1.3 1.3 0 011-.4l.5.1.4.3a1.3 1.3 0 01.4 1 1.4 1.4 0 01-.4 1 1.3 1.3 0 01-1 .4 1.4 1.4 0 01-1-.4 1.4 1.4 0 01-.3-1z"/>
    <path id="B" d="M126.5 269.1l.6 1.3a4.3 4.3 0 01-.4 3.3c-.4.7-.9 1.3-1.6 1.9l-.8-.6-.2-.1v-.2l.1-.3a6.5 6.5 0 00.6-.9 2.9 2.9 0 00.3-1.2l-.1-.8c0-.3-.2-.6-.4-1l-.1-.2c0-.3.1-.4.4-.5l1.6-.7zm9.7 7.8l-.2.3h-.3a29 29 0 00-1.6-.6h-1a2 2 0 00-1.2.3 1 1 0 00-.5.9l.3.6.6.4.9.3a29 29 0 012 .8l.9.5c.3.3.5.5.6.9.2.3.3.7.3 1.1 0 .6-.1 1-.3 1.5-.2.5-.5.9-.9 1.2a4 4 0 01-1.4.8 6.1 6.1 0 01-3 .2 6.7 6.7 0 01-2.1-.8l-.8-.5.7-1c0-.2.1-.3.3-.3l.4-.1.4.1a10.6 10.6 0 001.3.6l1 .2.8-.1.6-.3.3-.5.1-.5c0-.3 0-.5-.2-.6a2 2 0 00-.6-.5 29.4 29.4 0 01-3-1l-.9-.7-.6-.8c-.2-.4-.2-.8-.2-1.3a3.3 3.3 0 011-2.4 4 4 0 011.4-.8 5.6 5.6 0 014 .1c.6.3 1.1.6 1.5 1l-.6 1z"/>
    <path id="C" d="M429.6 269.1l.5 1.3a4.3 4.3 0 01-.3 3.3c-.4.7-1 1.3-1.6 1.9l-.9-.6-.1-.1v-.2-.3a7.8 7.8 0 00.7-.9l.2-.6a2.5 2.5 0 000-1.4l-.5-1v-.2c0-.3 0-.4.3-.5l1.7-.7zm3.6 0l.6 1.3a4.3 4.3 0 01-.4 3.3c-.3.7-.9 1.3-1.6 1.9l-.8-.6-.2-.1v-.2l.1-.3a7.8 7.8 0 00.6-.9l.2-.6a2.5 2.5 0 000-1.4c0-.3-.2-.6-.4-1l-.1-.2c0-.3.1-.4.4-.5l1.6-.7z"/>
    <path id="D" d="M387.8 270v6.4a19.2 19.2 0 01-.3 4h-1.9a41.8 41.8 0 01-.3-4V270h2.5zm-3 14.5a1.7 1.7 0 01.5-1.2 1.7 1.7 0 011.2-.5 1.6 1.6 0 011.2.5 1.7 1.7 0 01.3 1.9c0 .2-.2.3-.3.5l-.5.3-.7.2a1.7 1.7 0 01-1.2-.5l-.3-.5-.2-.7z"/>
    <path id="E" d="M13.5 341.8c-.5-.8-.8-1.6-.8-2.5 0-.7.2-1.4.6-2 .3-.7.9-1.4 1.6-2l.8.6.2.2V336.4l-.1.2a5.7 5.7 0 00-.6.8l-.2.6-.1.7.1.8c0 .3.2.5.4.9l.1.3c0 .2-.1.4-.4.5l-1.6.6zm3.6 0c-.5-.8-.7-1.6-.7-2.5 0-.7.2-1.4.5-2 .4-.7 1-1.4 1.6-2l.9.6.1.2v.5a5.7 5.7 0 00-.7.8l-.2.6v1.5l.5.9v.3c0 .2 0 .4-.3.5l-1.7.6z"/>
    <path id="F" d="M60 350.1h6.3v2.4h-9.4v-15.9h3v13.5zm12.4-9c.7 0 1.4.1 2 .3a4.3 4.3 0 012.5 2.6 6 6 0 01.4 2.7l-.1.3-.2.2h-7.3c0 1.2.4 2 1 2.6a3 3 0 002 .8l1.2-.1.9-.4.6-.3.5-.2h.3l.2.3.8 1-1 .8a5.7 5.7 0 01-2.4 1h-1.3a6 6 0 01-2.1-.4c-.7-.2-1.3-.6-1.8-1.1-.5-.5-.9-1.2-1.2-2a7.3 7.3 0 010-4.7c.2-.7.6-1.3 1-1.8a5 5 0 011.7-1.2c.7-.3 1.5-.4 2.3-.4zm0 2c-.7 0-1.3.2-1.8.6-.4.4-.7 1-.8 1.9h5v-1l-.5-.8a2 2 0 00-.8-.6l-1-.2zm10.8 9.6c-1 0-1.7-.3-2.2-.8-.6-.6-.8-1.3-.8-2.3v-6.3H79l-.4-.1-.1-.5v-1l1.8-.4.6-3c0-.2 0-.3.2-.4H82.9v3.5h3v1.9h-3v6.1c0 .4 0 .6.2.8.2.2.5.3.8.3h.4a2.3 2.3 0 00.5-.3h.4l.2.2.8 1.3c-.4.4-.9.6-1.4.8a5 5 0 01-1.6.2z"/>
    <path id="G" d="M184 341l1.3.2 1.2.4h3.2v1l-.1.5-.5.2-1 .1a3.5 3.5 0 01.3 1.3 3.4 3.4 0 01-1.3 2.7l-1.4.7a5.7 5.7 0 01-3 .1c-.3.3-.5.5-.5.8 0 .2 0 .4.3.5l.8.2h1.2a24.2 24.2 0 012.6.3l1.2.5c.3.2.6.4.8.8.2.3.3.8.3 1.3s0 1-.3 1.4c-.3.5-.6 1-1 1.3-.6.4-1.1.7-1.8.9a8.9 8.9 0 01-4.5 0c-.7-.1-1.2-.3-1.6-.6l-1-1-.2-1c0-.6.1-1 .4-1.4.4-.4.8-.6 1.4-.9-.3-.1-.5-.3-.7-.6-.2-.2-.2-.6-.2-1v-.5l.3-.5.5-.5.6-.5a3.3 3.3 0 01-1.8-3 3.4 3.4 0 011.2-2.7c.4-.3 1-.5 1.5-.7a6 6 0 011.8-.2zm3 12c0-.2-.1-.3-.3-.5l-.5-.3a14.7 14.7 0 00-2.8-.3l-1-.1-.8.6c-.2.2-.3.5-.3.8 0 .2 0 .4.2.5 0 .2.2.4.4.5l.9.3h2.5l1-.4c.2 0 .4-.3.5-.4l.1-.6zm-3-6.4l.8-.1.7-.4.3-.6.2-.7c0-.6-.2-1-.5-1.3-.4-.4-.9-.5-1.5-.5-.7 0-1.2.1-1.5.5-.4.3-.5.7-.5 1.3v.7a1.6 1.6 0 001 1l1 .1zm12.3-5.5c.8 0 1.6.1 2.2.4a5 5 0 013 3c.2.7.3 1.5.3 2.4a7 7 0 01-.4 2.4 4.9 4.9 0 01-2.9 3c-.6.3-1.4.4-2.2.4-.9 0-1.7-.1-2.3-.4a5 5 0 01-3-3c-.2-.7-.3-1.5-.3-2.4 0-1 0-1.7.4-2.4.2-.7.6-1.4 1-1.9a5 5 0 011.9-1.1c.6-.3 1.4-.4 2.3-.4zm0 9.5c.9 0 1.6-.3 2-1 .5-.6.7-1.5.7-2.7 0-1.2-.2-2.1-.7-2.8-.4-.6-1.1-1-2-1-1 0-1.7.4-2.2 1-.4.7-.6 1.6-.6 2.8 0 1.2.2 2.1.6 2.8.5.6 1.2 1 2.2 1z"/>
    <path id="H" d="M249.8 352.7c-1 0-1.7-.3-2.2-.8-.6-.6-.8-1.3-.8-2.3v-6.3h-1.2l-.3-.1-.2-.5v-1l1.8-.4.6-3c0-.2 0-.3.2-.4H249.5v3.5h3v1.9h-3v6.1c0 .4 0 .6.3.8.1.2.4.3.7.3h.4a2.3 2.3 0 00.5-.3h.4l.2.2.8 1.3c-.4.4-.9.6-1.4.8a5 5 0 01-1.6.2zm9.7-11.6c.8 0 1.6.1 2.2.4a5 5 0 013 3c.2.7.3 1.5.3 2.4a7 7 0 01-.4 2.4 4.9 4.9 0 01-2.9 3c-.6.3-1.4.4-2.2.4-.9 0-1.7-.1-2.3-.4a5 5 0 01-3-3c-.2-.7-.3-1.5-.3-2.4 0-1 0-1.7.4-2.4.2-.7.6-1.4 1-1.9a5 5 0 011.9-1.1c.6-.3 1.4-.4 2.3-.4zm0 9.5c.9 0 1.6-.3 2-1 .5-.6.7-1.5.7-2.7 0-1.2-.2-2.1-.7-2.8-.4-.6-1.1-1-2-1-1 0-1.7.4-2.2 1-.4.7-.6 1.6-.6 2.8 0 1.2.2 2.1.6 2.8.5.6 1.2 1 2.2 1z"/>
    <path id="I" d="M312.3 336.6h.4l.2.1.2.2.2.2 8.4 10.6a11 11 0 010-1.4v-9.7h2.5v16h-1.5c-.2 0-.4 0-.6-.2-.2 0-.3-.2-.4-.4l-8.4-10.6a15.3 15.3 0 01.1 1.4v9.7h-2.6v-15.9h1.5zm14.3 14.4a1.7 1.7 0 01.5-1.1 1.7 1.7 0 011.2-.5 1.6 1.6 0 011.2.5 1.7 1.7 0 01.3 1.8c0 .2-.2.4-.3.5l-.6.4-.6.1a1.7 1.7 0 01-1.2-.5c-.1-.1-.3-.3-.3-.5l-.2-.7zm11-4.6v6.1h-3v-6.1l-5.7-9.8h2.6l.6.2.4.5 2.9 5.3a13.3 13.3 0 01.8 1.7 12 12 0 01.7-1.7l2.9-5.3c0-.2.2-.3.4-.5l.6-.2h2.6l-5.8 9.8zm4.7 4.6a1.7 1.7 0 01.5-1.1 1.7 1.7 0 011.2-.5 1.6 1.6 0 011.1.5 1.7 1.7 0 01.4 1.8c0 .2-.2.4-.4.5l-.5.4-.6.1a1.7 1.7 0 01-1.2-.5l-.4-.5-.1-.7z"/>
    <path id="J" d="M128 335.7l.6 1.2a4.3 4.3 0 01-.4 3.4c-.4.6-.9 1.2-1.6 1.8l-.8-.5-.2-.2v-.2l.1-.3a6.5 6.5 0 00.6-.9 2.9 2.9 0 00.3-1.2l-.1-.8c0-.3-.2-.6-.4-.9l-.1-.3c0-.2.1-.4.4-.5l1.6-.6zm9.7 7.8l-.2.2h-.3a29 29 0 00-1.6-.6h-1a2 2 0 00-1.2.3 1 1 0 00-.5.9l.3.6c.1.2.3.3.6.4l.9.4a29 29 0 012 .7l.9.6c.3.2.5.5.6.8.2.3.3.7.3 1.2l-.3 1.5-.9 1.2a4 4 0 01-1.4.7 6.1 6.1 0 01-3 .2 6.7 6.7 0 01-2.1-.7l-.8-.6.7-1 .3-.3h.8a10.6 10.6 0 001.3.7l1 .1.8-.1.6-.3.3-.4.1-.5c0-.3 0-.5-.2-.7a2 2 0 00-.6-.4 29.4 29.4 0 01-3-1l-.9-.7-.6-.9c-.2-.3-.2-.8-.2-1.3a3.3 3.3 0 011-2.4 4 4 0 011.4-.7 5.6 5.6 0 014 .1c.6.2 1.1.6 1.5 1l-.6 1z"/>
    <path id="K" d="M429.6 335.7l.5 1.2a4.3 4.3 0 01-.3 3.4l-1.6 1.8-.9-.5-.1-.2v-.2-.3a7.8 7.8 0 00.7-.9l.2-.5a2.5 2.5 0 000-1.5l-.5-.9v-.3c0-.2 0-.4.3-.5l1.7-.6zm3.6 0l.6 1.2a4.3 4.3 0 01-.4 3.4c-.3.6-.9 1.2-1.6 1.8l-.8-.5-.2-.2v-.2l.1-.3a7.8 7.8 0 00.6-.9l.2-.5a2.5 2.5 0 000-1.5c0-.3-.2-.6-.4-.9l-.1-.3c0-.2.1-.4.4-.5l1.6-.6z"/>
    <path id="L" d="M387.8 336.6v6.3a19.2 19.2 0 01-.3 4h-1.9a41.8 41.8 0 01-.3-4v-6.3h2.5zm-3 14.4a1.7 1.7 0 01.5-1.1 1.7 1.7 0 011.2-.5 1.6 1.6 0 011.2.5 1.7 1.7 0 01.3 1.8c0 .2-.2.4-.3.5l-.5.4-.7.1a1.7 1.7 0 01-1.2-.5l-.3-.5-.2-.7z"/>
    <path id="M" d="M16.4 11.3V15H14V4h3.9c.7 0 1.4.2 2 .3l1.3.8c.4.3.6.7.8 1.1l.3 1.4c0 .6-.1 1-.3 1.5a3 3 0 01-.8 1.2c-.4.3-.8.6-1.4.8-.5.2-1.2.2-2 .2h-1.3zm0-1.9h1.4c.6 0 1-.1 1.4-.4.3-.4.4-.8.4-1.4l-.1-.6a1.4 1.4 0 00-1-1H16.5v3.4zM26 11v4h-2.5V4H27c.8 0 1.5.2 2 .3l1.4.7c.4.3.6.6.8 1l.2 1.3-.1 1a3 3 0 01-1.1 1.6l-1 .5.5.3.4.5 2.3 3.8h-2.3c-.4 0-.7-.2-.9-.5l-1.8-3.2-.3-.3a1 1 0 00-.5 0H26zm0-1.8h1l1-.1.5-.4c.2-.1.3-.3.3-.5l.1-.7c0-.5-.1-.9-.4-1.1-.3-.3-.8-.4-1.5-.4h-1v3.2zm14.5-5.1v2H36v2.5h3.4v1.8H36v2.7h4.5V15h-7V4h7zM49 4v2h-4.5v2.7h3.7v2h-3.7V15h-2.6V4h7zM53 15h-2.5V4H53v11zm4.8-5.6L54.4 4h2.9l.2.3L59.7 8v-.2l.2-.1 1.9-3.3c0-.2.3-.3.5-.3h2.4l-3.4 5.2 3.5 5.7h-2.6l-.4-.1a1 1 0 01-.2-.3l-2.2-3.8-.1.3-2 3.5-.3.3-.4.1h-2.4l3.6-5.6z"/>
    <path id="N" d="M20 136.3l-.2.3h-.4-.3a67.9 67.9 0 00-1-.5l-.8-.2c-.5 0-.8.1-1 .4a1 1 0 00-.4.8c0 .2 0 .4.2.5.1.2.3.3.6.4l.7.3a19.6 19.6 0 011.8.7l.8.5a2.6 2.6 0 01.8 2c0 .5-.1 1-.3 1.4a3.3 3.3 0 01-2 2l-1.6.2a5.3 5.3 0 01-2.1-.4 6 6 0 01-1-.4 4 4 0 01-.7-.6l.8-1.2s0-.2.2-.2l.3-.1.5.1a32.8 32.8 0 001.1.7l1 .1c.4 0 .7 0 1-.3.3-.2.4-.5.4-1 0-.2 0-.4-.2-.6l-.6-.4a23.2 23.2 0 01-2.6-.9l-.7-.5-.6-1a3.5 3.5 0 010-2.4l.8-1c.3-.3.7-.6 1.2-.8.4-.2 1-.2 1.6-.2a6 6 0 011.9.3 5 5 0 011.4.8l-.6 1.2zm6.6 6.7c.3 0 .6 0 .9-.2.3 0 .5-.2.7-.5l.4-.7.1-1V134h2.6v6.4a5 5 0 01-.4 1.9 4.1 4.1 0 01-2.4 2.4c-.5.2-1.2.3-2 .3-.7 0-1.3 0-1.9-.3-.6-.2-1-.6-1.5-1-.4-.4-.7-.8-.9-1.4-.2-.6-.3-1.2-.3-1.9v-6.4h2.5v6.4c0 .4 0 .8.2 1 0 .4.2.6.4.8.2.3.4.4.7.5l.9.2zm13.4-9v2h-4.5v2.8h3.7v2h-3.7v4.2h-2.6v-11h7zm8.3 0v2h-4.5v2.8h3.8v2h-3.8v4.2h-2.5v-11h7zm4.1 11H50v-11h2.5v11zm4.7-5.6l-3.4-5.3h2.9l.2.3L59 138l.1-.2.1-.1 2-3.3c0-.2.2-.3.4-.3h2.5l-3.5 5.2 3.5 5.7h-2.5l-.4-.1a1 1 0 01-.2-.3l-2.2-3.8-.2.3-2 3.5-.3.3-.3.1h-2.4l3.5-5.6z"/>
    <path id="O" d="M20 201.3l-.2.3h-.4-.3a67.9 67.9 0 00-1-.5l-.8-.2c-.5 0-.8.1-1 .4a1 1 0 00-.4.8c0 .2 0 .4.2.5.1.2.3.3.6.4l.7.3a19.6 19.6 0 011.8.7l.8.5a2.6 2.6 0 01.8 2c0 .5-.1 1-.3 1.4a3.3 3.3 0 01-2 2l-1.6.2a5.3 5.3 0 01-2.1-.4 6 6 0 01-1-.4 4 4 0 01-.7-.6l.8-1.2s0-.2.2-.2l.3-.1.5.1a32.8 32.8 0 001.1.7l1 .1c.4 0 .7 0 1-.3.3-.2.4-.5.4-1 0-.2 0-.4-.2-.6l-.6-.4a23.2 23.2 0 01-2.6-.9l-.7-.5-.6-1a3.5 3.5 0 010-2.4l.8-1c.3-.3.7-.6 1.2-.8.4-.2 1-.2 1.6-.2a6 6 0 011.9.3 5 5 0 011.4.8l-.6 1.2zm6.6 6.7c.3 0 .6 0 .9-.2.3 0 .5-.2.7-.5l.4-.7.1-1V199h2.6v6.4a5 5 0 01-.4 1.9 4.1 4.1 0 01-2.4 2.4c-.5.2-1.2.3-2 .3-.7 0-1.3 0-1.9-.3-.6-.2-1-.6-1.5-1-.4-.4-.7-.8-.9-1.4-.2-.6-.3-1.2-.3-1.9v-6.4h2.5v6.4c0 .4 0 .8.2 1 0 .4.2.6.4.8.2.3.4.4.7.5l.9.2zm13.4-9v2h-4.5v2.8h3.7v2h-3.7v4.2h-2.6v-11h7zm8.3 0v2h-4.5v2.8h3.8v2h-3.8v4.2h-2.5v-11h7zm4.1 11H50v-11h2.5v11zm4.7-5.6l-3.4-5.3h2.9l.2.3L59 203l.1-.2.1-.1 2-3.3c0-.2.2-.3.4-.3h2.5l-3.5 5.2 3.5 5.7h-2.5l-.4-.1a1 1 0 01-.2-.3l-2.2-3.8-.2.3-2 3.5-.3.3-.3.1h-2.4l3.5-5.6z"/>
    <path id="P" d="M8 264v2H3.4v2.6h3.4v1.8H3.4v2.7H8v1.9H1v-11h7zm4 5.4L8.8 264h2.9l.2.3L14 268v-.2l.2-.1 1.9-3.3c0-.2.3-.3.5-.3H19l-3.4 5.2L19 275h-2.6l-.4-.1a1 1 0 01-.2-.3l-2.2-3.8-.1.3-2 3.5-.3.3-.4.1H8.6l3.5-5.6zm15.2 2.8h.2l.1.1 1 1c-.4.7-1 1-1.6 1.4-.7.3-1.5.4-2.4.4-.8 0-1.5-.1-2.2-.4a4.8 4.8 0 01-2.7-3 6.5 6.5 0 010-4.4 5.2 5.2 0 013-3 6.3 6.3 0 014.5 0 4.8 4.8 0 011.6 1.1l-.9 1.2-.2.1-.3.1H27l-.2-.2a45 45 0 00-1.2-.5 3.5 3.5 0 00-2 .2l-1 .7-.6 1-.2 1.5c0 .6 0 1 .2 1.5l.6 1.1a2.6 2.6 0 002 1l.7-.1a2.6 2.6 0 001.5-.7h.2l.2-.1zm9.5-8.1v2h-4.5v2.5h3.5v1.8h-3.5v2.7h4.5v1.9h-7v-11h7zm4 7.2v3.7h-2.5v-11H42c.8 0 1.4.2 2 .3.6.2 1 .5 1.4.8l.8 1.1.2 1.4c0 .6 0 1-.3 1.5a3 3 0 01-.8 1.2l-1.3.8c-.6.2-1.2.2-2 .2h-1.3zm0-1.9H42c.7 0 1.1-.1 1.4-.4.3-.4.5-.8.5-1.4l-.1-.6a1.4 1.4 0 00-1-1h-2.1v3.4zm15-5.3v2h-3.1v8.9H50v-9H47v-2h8.7zm3.8 10.9h-2.6v-11h2.6v11zm12.8-5.5c0 .8-.1 1.6-.4 2.2a5.3 5.3 0 01-5.3 3.4c-.8 0-1.6-.1-2.3-.4a5.3 5.3 0 01-3.4-5.2c0-.8.2-1.5.5-2.2a5.2 5.2 0 013-3c.6-.2 1.4-.3 2.2-.3a6 6 0 012.4.4 5.4 5.4 0 013.3 5.1zm-2.6 0c0-.5 0-1-.2-1.4a3 3 0 00-.6-1.1c-.3-.3-.6-.6-1-.7a3.4 3.4 0 00-2.6 0c-.4.1-.7.4-1 .7a3 3 0 00-.5 1l-.3 1.5c0 .6.1 1 .3 1.5 0 .4.3.8.6 1.1.2.3.5.5 1 .7l1.2.2c.5 0 1 0 1.3-.2l1-.7c.3-.3.5-.7.6-1.1l.2-1.5zm5.1-5.4h.5l.2.2.2.2 5.2 6.5a13.8 13.8 0 010-1.1V264H83V275h-1.9a1 1 0 01-.4-.4l-5.1-6.5a23.3 23.3 0 010 1v5.9h-2.2v-11h1.3z"/>
    <path id="Q" d="M31.8 334.5c0 .8-.1 1.6-.4 2.2a5.1 5.1 0 01-3 2.9c-.6.3-1.4.4-2.3.4H22v-11h4.2c.9 0 1.7.2 2.4.5s1.3.6 1.8 1.1c.5.5.8 1 1.1 1.8.3.6.4 1.3.4 2.1zm-2.6 0c0-.5 0-1-.2-1.4-.1-.5-.3-.8-.6-1.1-.3-.3-.6-.6-1-.7-.3-.2-.8-.3-1.3-.3h-1.7v7h1.7c.5 0 1 0 1.3-.2l1-.7c.3-.3.5-.7.6-1.1.2-.4.2-1 .2-1.5zm14.6 0c0 .8-.1 1.6-.4 2.2a5.3 5.3 0 01-5.3 3.4c-.8 0-1.6-.1-2.3-.4a5.3 5.3 0 01-3.3-5.2c0-.8.1-1.5.4-2.2a5.2 5.2 0 013-3c.6-.2 1.4-.3 2.2-.3a6 6 0 012.4.4 5.4 5.4 0 013.3 5.1zm-2.6 0c0-.5 0-1-.2-1.4a3 3 0 00-.6-1.1c-.3-.3-.6-.6-1-.7a3.4 3.4 0 00-2.6 0l-1 .7a3 3 0 00-.5 1c-.2.5-.2 1-.2 1.5 0 .6 0 1 .2 1.5.1.4.3.8.6 1.1.2.3.6.5 1 .7l1.2.2c.5 0 1 0 1.3-.2l1-.7c.3-.3.5-.7.6-1.1.2-.4.2-1 .2-1.5zm5.2-5.4h.4l.2.2.2.2 5.2 6.5a13.8 13.8 0 010-1.1V329h2.2V340H52.8a1 1 0 01-.4-.4l-5.2-6.5a23.3 23.3 0 010 1v5.9H45v-11h1.4zm17 0v2H59v2.5h3.5v1.8h-3.5v2.7h4.5v1.9h-7v-11h7z"/>
    <path id="R" d="M8 69v2H3.4v2.6h3.4v1.8H3.4V78H8v2H1V69h7zm4 5.4L8.8 69h2.9l.2.3L14 73v-.2l.2-.1 1.9-3.3c0-.2.3-.3.5-.3H19l-3.4 5.2L19 80h-2.6l-.4-.1a1 1 0 01-.2-.3l-2.2-3.8-.1.3-2 3.5-.3.3-.4.1H8.6l3.5-5.6zm15.2 2.8h.2l.1.1 1 1c-.4.7-1 1-1.6 1.4-.7.3-1.5.4-2.4.4-.8 0-1.5-.1-2.2-.4a4.8 4.8 0 01-2.7-3 6.5 6.5 0 010-4.4 5.2 5.2 0 013-3 6.3 6.3 0 014.5 0 4.8 4.8 0 011.6 1.1l-.9 1.2-.2.1-.3.1H27l-.2-.2a45 45 0 00-1.2-.5 3.5 3.5 0 00-2 .2l-1 .7-.6 1-.2 1.5c0 .6 0 1 .2 1.5l.6 1.1a2.6 2.6 0 002 1l.7-.1a2.6 2.6 0 001.5-.7h.2l.2-.1zm9.5-8.1v2h-4.5v2.5h3.5v1.8h-3.5V78h4.5v2h-7V69h7zm4 7.2V80h-2.5V69H42c.8 0 1.4.2 2 .3.6.2 1 .5 1.4.8l.8 1.1.2 1.4c0 .6 0 1-.3 1.5a3 3 0 01-.8 1.2l-1.3.8c-.6.2-1.2.2-2 .2h-1.3zm0-1.9H42c.7 0 1.1-.1 1.4-.4.3-.4.5-.8.5-1.4l-.1-.6a1.4 1.4 0 00-1-1h-2.1v3.4zm15-5.3v2h-3.1V80H50v-9H47v-2h8.7zM59.5 80h-2.6V69h2.6v11zm12.8-5.5c0 .8-.1 1.6-.4 2.2a5.3 5.3 0 01-5.3 3.4c-.8 0-1.6-.1-2.3-.4a5.3 5.3 0 01-3.4-5.2c0-.8.2-1.5.5-2.2a5.2 5.2 0 013-3c.6-.2 1.4-.3 2.2-.3a6 6 0 012.4.4 5.4 5.4 0 013.3 5.1zm-2.6 0c0-.5 0-1-.2-1.4a3 3 0 00-.6-1.1c-.3-.3-.6-.6-1-.7a3.4 3.4 0 00-2.6 0c-.4.1-.7.4-1 .7a3 3 0 00-.5 1l-.3 1.5c0 .6.1 1 .3 1.5 0 .4.3.8.6 1.1.2.3.5.5 1 .7l1.2.2c.5 0 1 0 1.3-.2l1-.7c.3-.3.5-.7.6-1.1l.2-1.5zm5.1-5.4h.5l.2.2.2.2 5.2 6.5a13.8 13.8 0 010-1.1V69H83V80h-1.9a1 1 0 01-.4-.4L75.8 73a23.3 23.3 0 010 1V80h-2.2V69h1.3z"/>
  </defs>
  <g fill="none" fill-rule="evenodd">
    <g stroke-linejoin="round" stroke-width="3.8">
      <path stroke="#3AC" d="M82.4 46.5v13h-60v12m60-25v13h21.8v12"/>
      <path fill="#C3E7F1" stroke="#3AC" d="M6 5h152.7v41.7H6z"/>
      <path fill="#F5F5F5" stroke="#B7B7B7" d="M195.8 46.5v25"/>
      <path fill="#F5F5F5" stroke="#B7B7B7" d="M168.5 5h54.6v41.7h-54.6z"/>
      <path fill="#F5F5F5" stroke="#B7B7B7" d="M261.3 46.5v25"/>
      <path fill="#F5F5F5" stroke="#B7B7B7" d="M234 5h54.5v41.7H234z"/>
      <path fill="#F5F5F5" stroke="#B7B7B7" d="M377 46.5v25"/>
      <path fill="#F5F5F5" stroke="#B7B7B7" d="M299.5 5h153.8v41.7H299.5z"/>
      <path fill="#B5F3D4" stroke="#3AD787" d="M22.4 113v21.8"/>
      <path fill="#B5F3D4" stroke="#3AD787" d="M6 71.5h32.7v41.7H6z"/>
      <path stroke="#3AC" d="M104.2 113v12H76.9v9.8m27.3-21.8v12h31.6v9.8"/>
      <path fill="#C3E7F1" stroke="#3AC" d="M49.6 71.5h109.1v41.7H49.6z"/>
      <path fill="#F5F5F5" stroke="#B7B7B7" d="M195.8 113v21.8"/>
      <path fill="#F5F5F5" stroke="#B7B7B7" d="M168.5 71.5h54.6v41.7h-54.6z"/>
      <path fill="#F5F5F5" stroke="#B7B7B7" d="M261.3 113v21.8"/>
      <path fill="#F5F5F5" stroke="#B7B7B7" d="M234 71.5h54.5v41.7H234z"/>
      <path fill="#F5F5F5" stroke="#B7B7B7" d="M377 113v21.8"/>
      <path fill="#F5F5F5" stroke="#B7B7B7" d="M299.5 71.5h153.8v41.7H299.5z"/>
      <path fill="#B5F3D4" stroke="#3AD787" d="M6 134.8h32.7v41.5H6z"/>
      <path fill="#B5F3D4" stroke="#3AD787" d="M77 176.3v26.2"/>
      <path fill="#B5F3D4" stroke="#3AD787" d="M49.6 134.8h54.6v41.5H49.6z"/>
      <path fill="#B5F3D4" stroke="#3AD787" d="M195.8 176.3v26.2"/>
      <path fill="#B5F3D4" stroke="#3AD787" d="M168.5 134.8h54.6v41.5h-54.6z"/>
      <path fill="#B5F3D4" stroke="#3AD787" d="M261.3 176.3v26.2"/>
      <path fill="#B5F3D4" stroke="#3AD787" d="M234 134.8h54.5v41.5H234z"/>
      <path stroke="#3AC" d="M377 176.3v14.2h-22v12m22-26.2v14.2h60v12"/>
      <path fill="#C3E7F1" stroke="#3AC" d="M299.5 134.8h153.8v41.5H299.5z"/>
      <path fill="#B5F3D4" stroke="#3AD787" d="M135.8 176.3v26.2"/>
      <path fill="#B5F3D4" stroke="#3AD787" d="M114 134.8h43.6v41.5H114z"/>
      <path fill="#B5F3D4" stroke="#3AD787" d="M22.4 244v25"/>
      <path fill="#B5F3D4" stroke="#3AD787" d="M6 202.2h32.7v41.7H6z"/>
      <path fill="#B5F3D4" stroke="#3AD787" d="M77 244v25"/>
      <path fill="#B5F3D4" stroke="#3AD787" d="M49.6 202.2h54.6v41.7H49.6z"/>
      <path fill="#B5F3D4" stroke="#3AD787" d="M195.8 244v25"/>
      <path fill="#B5F3D4" stroke="#3AD787" d="M168.5 202.2h54.6v41.7h-54.6z"/>
      <path fill="#B5F3D4" stroke="#3AD787" d="M261.3 244v25"/>
      <path fill="#B5F3D4" stroke="#3AD787" d="M234 202.2h54.5v41.7H234z"/>
      <path stroke="#3AC" d="M355 244v12h-21.7v13m21.8-25v12h37v13"/>
      <path fill="#C3E7F1" stroke="#3AC" d="M299.5 202.2h110.1v41.7H299.5z"/>
      <path fill="#B5F3D4" stroke="#3AD787" d="M135.8 244v25"/>
      <path fill="#B5F3D4" stroke="#3AD787" d="M114 202.2h43.6v41.7H114z"/>
      <path fill="#B5F3D4" stroke="#3AD787" d="M437 244v25"/>
      <path fill="#B5F3D4" stroke="#3AD787" d="M420.5 202.2h32.8v41.7h-32.8z"/>
      <path fill="#B5F3D4" stroke="#3AD787" d="M22.4 310.5v25"/>
      <path fill="#B5F3D4" stroke="#3AD787" d="M6 268.7h32.7v41.8H6z"/>
      <path fill="#B5F3D4" stroke="#3AD787" d="M77 310.5v25"/>
      <path fill="#B5F3D4" stroke="#3AD787" d="M49.6 268.7h54.6v41.8H49.6z"/>
      <path fill="#B5F3D4" stroke="#3AD787" d="M195.8 310.5v21.8-18.6 21.8"/>
      <path fill="#B5F3D4" stroke="#3AD787" d="M168.5 268.7h54.6v41.8h-54.6z"/>
      <path fill="#B5F3D4" stroke="#3AD787" d="M234 268.7h54.5v41.8H234z"/>
      <path fill="#B5F3D4" stroke="#3AD787" d="M333.3 310.5v25"/>
      <path fill="#C3E7F1" stroke="#3AC" d="M299.5 268.7H366v41.8h-66.5z"/>
      <path fill="#B5F3D4" stroke="#3AD787" d="M135.8 310.5v25"/>
      <path fill="#B5F3D4" stroke="#3AD787" d="M114 268.7h43.6v41.8H114z"/>
      <path fill="#B5F3D4" stroke="#3AD787" d="M437 310.5v25"/>
      <path fill="#B5F3D4" stroke="#3AD787" d="M420.5 268.7h32.8v41.8h-32.8z"/>
      <path fill="#B5F3D4" stroke="#3AD787" d="M392.2 310.5v25"/>
      <path fill="#B5F3D4" stroke="#3AD787" d="M375.8 268.7h32.7v41.8h-32.7z"/>
      <path fill="#B5F3D4" stroke="#3AD787" d="M8 335.5h28.7a2 2 0 012 2V375a2 2 0 01-2 2H8a2 2 0 01-2-2v-37.5c0-1 .9-2 2-2z"/>
      <path fill="#B5F3D4" stroke="#3AD787" d="M49.6 335.5h54.6V377H49.6z"/>
      <path fill="#B5F3D4" stroke="#3AD787" d="M168.5 335.5h54.6V377h-54.6z"/>
      <path fill="#B5F3D4" stroke="#3AD787" d="M234 335.5h54.5V377H234z"/>
      <path fill="#B5F3D4" stroke="#3AD787" d="M299.5 335.5H366V377h-66.5z"/>
      <path fill="#B5F3D4" stroke="#3AD787" d="M114 335.5h43.6V377H114z"/>
      <path fill="#B5F3D4" stroke="#3AD787" d="M420.5 335.5h32.8V377h-32.8z"/>
      <path fill="#B5F3D4" stroke="#3AD787" d="M375.8 335.5h32.7V377h-32.7z"/>
      <path fill="#B5F3D4" stroke="#3AD787" d="M261.3 310.5v25"/>
    </g>
    <g fill-rule="nonzero">
      <g transform="translate(6 11)">
        <use fill="#3D4251" xlink:href="#a"/>
        <use fill="#1A1E23" xlink:href="#a"/>
      </g>
      <g transform="translate(6 11)">
        <use fill="#3D4251" xlink:href="#b"/>
        <use fill="#1A1E23" xlink:href="#b"/>
      </g>
      <g transform="translate(6 11)">
        <use fill="#3D4251" xlink:href="#c"/>
        <use fill="#1A1E23" xlink:href="#c"/>
      </g>
      <g transform="translate(6 11)">
        <use fill="#3D4251" xlink:href="#d"/>
        <use fill="#1A1E23" xlink:href="#d"/>
      </g>
      <g transform="translate(6 11)">
        <use fill="#3D4251" xlink:href="#e"/>
        <use fill="#1A1E23" xlink:href="#e"/>
      </g>
      <g transform="translate(6 11)">
        <use fill="#3D4251" xlink:href="#f"/>
        <use fill="#1A1E23" xlink:href="#f"/>
      </g>
      <g transform="translate(6 11)">
        <use fill="#3D4251" xlink:href="#g"/>
        <use fill="#1A1E23" xlink:href="#g"/>
      </g>
      <g transform="translate(6 11)">
        <use fill="#3D4251" xlink:href="#h"/>
        <use fill="#1A1E23" xlink:href="#h"/>
      </g>
      <g transform="translate(6 11)">
        <use fill="#3D4251" xlink:href="#i"/>
        <use fill="#1A1E23" xlink:href="#i"/>
      </g>
      <g transform="translate(6 11)">
        <use fill="#3D4251" xlink:href="#j"/>
        <use fill="#1A1E23" xlink:href="#j"/>
      </g>
      <g transform="translate(6 11)">
        <use fill="#3D4251" xlink:href="#k"/>
        <use fill="#1A1E23" xlink:href="#k"/>
      </g>
      <g transform="translate(6 11)">
        <use fill="#3D4251" xlink:href="#l"/>
        <use fill="#1A1E23" xlink:href="#l"/>
      </g>
      <g transform="translate(6 11)">
        <use fill="#3D4251" xlink:href="#m"/>
        <use fill="#1A1E23" xlink:href="#m"/>
      </g>
      <g transform="translate(6 11)">
        <use fill="#3D4251" xlink:href="#n"/>
        <use fill="#1A1E23" xlink:href="#n"/>
      </g>
      <g transform="translate(6 11)">
        <use fill="#3D4251" xlink:href="#o"/>
        <use fill="#1A1E23" xlink:href="#o"/>
      </g>
      <g transform="translate(6 11)">
        <use fill="#3D4251" xlink:href="#p"/>
        <use fill="#1A1E23" xlink:href="#p"/>
      </g>
      <g transform="translate(6 11)">
        <use fill="#3D4251" xlink:href="#q"/>
        <use fill="#1A1E23" xlink:href="#q"/>
      </g>
      <g transform="translate(6 11)">
        <use fill="#3D4251" xlink:href="#r"/>
        <use fill="#1A1E23" xlink:href="#r"/>
      </g>
      <g transform="translate(6 11)">
        <use fill="#3D4251" xlink:href="#s"/>
        <use fill="#1A1E23" xlink:href="#s"/>
      </g>
      <g transform="translate(6 11)">
        <use fill="#3D4251" xlink:href="#t"/>
        <use fill="#1A1E23" xlink:href="#t"/>
      </g>
      <g transform="translate(6 11)">
        <use fill="#3D4251" xlink:href="#u"/>
        <use fill="#1A1E23" xlink:href="#u"/>
      </g>
      <g transform="translate(6 11)">
        <use fill="#3D4251" xlink:href="#v"/>
        <use fill="#1A1E23" xlink:href="#v"/>
      </g>
      <g transform="translate(6 11)">
        <use fill="#3D4251" xlink:href="#w"/>
        <use fill="#1A1E23" xlink:href="#w"/>
      </g>
      <g transform="translate(6 11)">
        <use fill="#3D4251" xlink:href="#x"/>
        <use fill="#1A1E23" xlink:href="#x"/>
      </g>
      <g transform="translate(6 11)">
        <use fill="#3D4251" xlink:href="#y"/>
        <use fill="#1A1E23" xlink:href="#y"/>
      </g>
      <g transform="translate(6 11)">
        <use fill="#3D4251" xlink:href="#z"/>
        <use fill="#1A1E23" xlink:href="#z"/>
      </g>
      <g transform="translate(6 11)">
        <use fill="#3D4251" xlink:href="#A"/>
        <use fill="#1A1E23" xlink:href="#A"/>
      </g>
      <g transform="translate(6 11)">
        <use fill="#3D4251" xlink:href="#B"/>
        <use fill="#1A1E23" xlink:href="#B"/>
      </g>
      <g transform="translate(6 11)">
        <use fill="#3D4251" xlink:href="#C"/>
        <use fill="#1A1E23" xlink:href="#C"/>
      </g>
      <g transform="translate(6 11)">
        <use fill="#3D4251" xlink:href="#D"/>
        <use fill="#1A1E23" xlink:href="#D"/>
      </g>
      <g transform="translate(6 11)">
        <use fill="#3D4251" xlink:href="#E"/>
        <use fill="#1A1E23" xlink:href="#E"/>
      </g>
      <g transform="translate(6 11)">
        <use fill="#3D4251" xlink:href="#F"/>
        <use fill="#1A1E23" xlink:href="#F"/>
      </g>
      <g transform="translate(6 11)">
        <use fill="#3D4251" xlink:href="#G"/>
        <use fill="#1A1E23" xlink:href="#G"/>
      </g>
      <g transform="translate(6 11)">
        <use fill="#3D4251" xlink:href="#H"/>
        <use fill="#1A1E23" xlink:href="#H"/>
      </g>
      <g transform="translate(6 11)">
        <use fill="#3D4251" xlink:href="#I"/>
        <use fill="#1A1E23" xlink:href="#I"/>
      </g>
      <g transform="translate(6 11)">
        <use fill="#3D4251" xlink:href="#J"/>
        <use fill="#1A1E23" xlink:href="#J"/>
      </g>
      <g transform="translate(6 11)">
        <use fill="#3D4251" xlink:href="#K"/>
        <use fill="#1A1E23" xlink:href="#K"/>
      </g>
      <g transform="translate(6 11)">
        <use fill="#3D4251" xlink:href="#L"/>
        <use fill="#1A1E23" xlink:href="#L"/>
      </g>
    </g>
    <rect width="101" height="20" x="483" y="16" fill="#3AC" fill-rule="nonzero" stroke="#3AC" stroke-width="2.2" rx="10"/>
    <rect width="101" height="20" x="483" y="146" fill="#3AC" fill-rule="nonzero" stroke="#3AC" stroke-width="2.2" rx="10"/>
    <rect width="101" height="20" x="483" y="211" fill="#3AC" fill-rule="nonzero" stroke="#3AC" stroke-width="2.2" rx="10"/>
    <rect width="101" height="20" x="483" y="276" fill="#3AC" fill-rule="nonzero" stroke="#3AC" stroke-width="2.2" rx="10"/>
    <rect width="101" height="20" x="483" y="341" fill="#3AD787" fill-rule="nonzero" stroke="#3AD787" stroke-width="2.2" rx="10"/>
    <rect width="101" height="20" x="483" y="81" fill="#3AC" fill-rule="nonzero" stroke="#3AC" stroke-width="2.2" rx="10"/>
    <g fill-rule="nonzero">
      <g transform="translate(493 16)">
        <use fill="#000" xlink:href="#M"/>
        <use fill="#FFF" xlink:href="#M"/>
      </g>
      <g transform="translate(493 16)">
        <use fill="#000" xlink:href="#N"/>
        <use fill="#FFF" xlink:href="#N"/>
      </g>
      <g transform="translate(493 16)">
        <use fill="#000" xlink:href="#O"/>
        <use fill="#FFF" xlink:href="#O"/>
      </g>
      <g transform="translate(493 16)">
        <use fill="#000" xlink:href="#P"/>
        <use fill="#FFF" xlink:href="#P"/>
      </g>
      <g transform="translate(493 16)">
        <use fill="#000" xlink:href="#Q"/>
        <use fill="#FFF" xlink:href="#Q"/>
      </g>
      <g transform="translate(493 16)">
        <use fill="#000" xlink:href="#R"/>
        <use fill="#FFF" xlink:href="#R"/>
      </g>
    </g>
  </g>
</svg>
