<svg xmlns="http://www.w3.org/2000/svg" width="1767" height="522" viewBox="0 0 1767 522">
  <!-- Icons: Twemoji (https://twemoji.twitter.com/) -->
  <g fill="none" fill-rule="evenodd">
    <g stroke="#F03969">
      <rect width="271" height="95" fill="#EAC1CC" stroke-linejoin="round" stroke-width="5" rx="12" transform="translate(217 32)"/>
      <rect width="223.6" height="23.5" x="2.7" y="1.8" fill="#F03969" stroke-width="3.5" rx="11.8" transform="translate(238 19)"/>
    </g>
    <rect width="271" height="93" fill="#B5F3D4" stroke="#3AD787" stroke-linejoin="round" stroke-width="5" rx="12" transform="translate(207 187)"/>
    <rect width="114.7" height="55.8" fill="#B5F3D4" stroke="#3AD787" stroke-linejoin="round" stroke-width="5" rx="12" transform="translate(207 300)"/>
    <rect width="135.7" height="55.8" fill="#B5F3D4" stroke="#3AD787" stroke-linejoin="round" stroke-width="5" rx="12" transform="translate(342 300)"/>
    <path fill="#F2E7A6" stroke="#CDB217" stroke-linejoin="round" stroke-width="3.8" d="M234 256h-90a12 12 0 01-12-12v-15a12 12 0 0112-12h90l23 20-23 19h0zM542 256h-98a12 12 0 01-12-12v-15a12 12 0 0112-12h98l23 20-23 19h0z"/>
    <rect width="171" height="23.5" x="2.5" y="1.8" fill="#3AD787" stroke="#3AD787" stroke-width="3.5" rx="11.8" transform="translate(250 173)"/>
    <rect width="392" height="62" fill="#D2F1FF" stroke="#30A6DB" stroke-linejoin="round" stroke-width="5" rx="12" transform="translate(658 162)"/>
    <rect width="365" height="62" fill="#D2F1FF" stroke="#30A6DB" stroke-linejoin="round" stroke-width="5" rx="12" transform="translate(1267 158)"/>
    <rect width="337" height="62" fill="#D2F1FF" stroke="#30A6DB" stroke-linejoin="round" stroke-width="5" rx="12" transform="translate(1267 242)"/>
    <rect width="498" height="62" fill="#D2F1FF" stroke="#30A6DB" stroke-linejoin="round" stroke-width="5" rx="12" transform="translate(658 246)"/>
    <rect width="380" height="62" fill="#D2F1FF" stroke="#30A6DB" stroke-linejoin="round" stroke-width="5" rx="12" transform="translate(658 360)"/>
    <rect width="370" height="62" fill="#D2F1FF" stroke="#30A6DB" stroke-linejoin="round" stroke-width="5" rx="12" transform="translate(658 51)"/>
    <rect width="357" height="62" fill="#D2F1FF" stroke="#30A6DB" stroke-linejoin="round" stroke-width="5" rx="12" transform="translate(658 444)"/>
    <path fill="#95AAB6" fill-rule="nonzero" d="M518.5 181.4v10L638 191h2v4h-2l-119.5.4v10l-24-11.9 24-12zM577.6 236.8l1.8 1 38 18.7 4.4-9L638 269h-26.8l4.4-8.9-38-18.8-1.8-.9 1.8-3.6zM614 74l24 12-24 12V88l-109.5.5h-2v-4h2l109.5-.4V74zM1232.6 220.3l23.9 12.2-24.1 11.8v-10l-27.4-.3h-2v-4h2l27.5.3.1-10z"/>
    <path stroke="#95AAB6" stroke-linecap="square" stroke-width="4" d="M1171.9 193h28.2M1171.9 277h28.2M1202 277v-84"/>
    <path fill="#95AAB6" fill-rule="nonzero" d="M491.5 277.5l26.7 3-5.4 8.3L639 370.3l1.7 1.1-2.2 3.4-1.7-1.1-126.3-81.5-5.4 8.4-13.7-23.1zM497.5 343.5l26.3 5.5-6.3 7.9 121.7 96.5 1.6 1.3-2.5 3.1-1.5-1.2L515 360l-6.3 7.8-11.3-24.3z"/>
    <g fill-rule="nonzero">
      <path fill="#E1E8ED" d="M120 57L90 27a6.7 6.7 0 00-9.4 9.4L67.8 49.2l30 30 12.8-12.8a6.7 6.7 0 009.5-9.4z"/>
      <path fill="#CCD6DD" d="M85.3 25h-50C28 25 22 31 22 38.3v93.4c0 7.3 6 13.3 13.3 13.3h73.4c7.3 0 13.3-6 13.3-13.3v-70H92a7.2 7.2 0 01-6.7-6.7V25z"/>
      <path fill="#99AAB5" d="M85.3 25h-6.6v30c0 7.4 6 13.3 13.3 13.3h30v-6.6H92a7.2 7.2 0 01-6.7-6.7V25zM68.7 54.3c0 2.2-1.5 4-3.4 4H38.7c-1.9 0-3.4-1.8-3.4-4s1.5-4 3.4-4h26.6c1.9 0 3.4 1.8 3.4 4zm0 13.4c0 2.2-1.5 4-3.4 4H38.7c-1.9 0-3.4-1.8-3.4-4s1.5-4 3.4-4h26.6c1.9 0 3.4 1.8 3.4 4zm40 13.3c0 2.2-1.5 4-3.4 4H38.7c-1.9 0-3.4-1.8-3.4-4s1.5-4 3.4-4h66.6c1.9 0 3.4 1.8 3.4 4zm0 13.3c0 2.2-1.5 4-3.4 4H38.7c-1.9 0-3.4-1.8-3.4-4s1.5-4 3.4-4h66.6c1.9 0 3.4 1.8 3.4 4zm0 13.4c0 2.2-1.5 4-3.4 4H38.7c-1.9 0-3.4-1.8-3.4-4s1.5-4 3.4-4h66.6c1.9 0 3.4 1.8 3.4 4zm0 13.3c0 2.2-1.5 4-3.4 4H38.7c-1.9 0-3.4-1.8-3.4-4s1.5-4 3.4-4h66.6c1.9 0 3.4 1.8 3.4 4z"/>
    </g>
    <rect width="121.5" height="23.5" x="4.8" y="1.8" fill="#3D4251" stroke="#3D4251" stroke-width="3.5" rx="11.8" transform="translate(7 131)"/>
    <path fill="#FFF" fill-rule="nonzero" d="M27 151.2l-1.8-.3c-.5-.2-1-.4-1.3-.8-.4-.3-.7-.7-.9-1.2a4 4 0 01-.3-1.6v-2.5c0-.6.1-1.1.3-1.6.2-.5.5-.9.9-1.2a4 4 0 011.3-.8 5.3 5.3 0 013.4 0 4 4 0 012.7 3.2h-2.2c-.1-.4-.3-.8-.7-1.1-.4-.3-.8-.4-1.4-.4-.6 0-1.1.1-1.5.5-.3.3-.5.8-.5 1.4v2.5c0 .6.2 1 .5 1.4.4.4.9.5 1.5.5.5 0 1-.1 1.4-.4.4-.3.6-.7.7-1.1h2.2c0 .5-.2 1-.5 1.4a4 4 0 01-2.2 1.8 5 5 0 01-1.6.3zm10.2 0l-1.8-.3a4 4 0 01-1.3-.8l-.9-1.2a4 4 0 01-.3-1.6v-2.5c0-.6.1-1.1.3-1.6a3.5 3.5 0 012.2-2l1.8-.3 1.8.3c.5.2 1 .4 1.3.8.4.3.7.7.9 1.2.2.5.3 1 .3 1.6v2.5l-.3 1.6a3.5 3.5 0 01-2.2 2c-.5.2-1.1.3-1.8.3zm-2-4c0 .7.1 1.1.5 1.5.4.3.9.5 1.5.5a2 2 0 001.5-.5c.4-.4.6-.8.6-1.4v-2.5c0-.6-.2-1-.6-1.4a2 2 0 00-1.5-.5 2 2 0 00-1.5.5c-.4.4-.6.8-.6 1.4v2.5zm8.2-6.1h2.1v1.7h.2c.1-.6.4-1 .8-1.4a3 3 0 011.8-.5c1 0 1.8.3 2.4 1 .6.7.9 1.5.9 2.6v6.5h-2.3v-6.2c0-.6-.1-1-.5-1.4-.3-.4-.7-.5-1.3-.5-.6 0-1 .1-1.4.5a2 2 0 00-.5 1.4v6.2h-2.2v-9.9zm10 3.1v-2H56v-1.3c0-.9.3-1.6.8-2.1.6-.5 1.4-.8 2.3-.8h3v2h-3a1 1 0 00-.6.3c-.2.1-.2.3-.2.6v1.3H62v2h-3.7v6.8H56v-6.8h-2.7zm10.8 4.7h3.5v-5.8h-3v-2h5.2v7.8h2.9v2.1h-8.6v-2zm2.9-10.5c0-.3.1-.6.3-.8.3-.3.6-.4 1-.4h.4c.4 0 .7.1 1 .4.2.2.3.5.3.8 0 .4-.1.7-.3.9-.3.2-.6.3-1 .3h-.4c-.4 0-.7-.1-1-.3-.2-.2-.3-.5-.3-.9zm7 6.4c0-.6 0-1.1.2-1.6.1-.5.4-.9.7-1.2a3 3 0 011-.8l1.5-.3a3 3 0 011.8.6c.5.3.8.8.9 1.4h.1v-1.8h2.2v9.3c0 .6-.1 1-.3 1.5-.2.5-.5.9-.8 1.2l-1.3.7c-.5.2-1.1.3-1.7.3h-2.7v-2h2.7c.5 0 1 0 1.3-.4.4-.3.5-.7.5-1.3v-.2l.1-1.9h-.1c-.1.6-.4 1.1-1 1.5a3 3 0 01-1.7.5c-.6 0-1 0-1.4-.3a3.2 3.2 0 01-1.8-2c-.2-.4-.3-1-.3-1.5v-1.7zm2.2 1.6c0 .6.2 1 .5 1.4.4.4.9.5 1.5.5s1-.1 1.4-.5c.4-.3.5-.8.5-1.4v-1.6c0-.6-.1-1-.5-1.4a2 2 0 00-1.4-.5 2 2 0 00-1.5.5 2 2 0 00-.5 1.4v1.6zm10.7 3c0-.5.1-1 .4-1.3.3-.3.8-.4 1.3-.4s1 .1 1.3.4c.3.3.4.8.4 1.3s-.1 1-.4 1.3c-.3.3-.8.5-1.3.5s-1-.2-1.3-.5c-.3-.3-.4-.8-.4-1.3zm12.1 1.8l-1.8-.3c-.5-.2-1-.4-1.3-.8-.4-.3-.7-.7-.9-1.2a4 4 0 01-.3-1.6v-2.5c0-.6.1-1.1.3-1.6.2-.5.5-.9.9-1.2a4 4 0 011.3-.8 5.3 5.3 0 013.4 0 4 4 0 012.7 3.2h-2.2c-.1-.4-.3-.8-.7-1-.4-.4-.8-.5-1.4-.5-.6 0-1.1.1-1.5.5-.3.3-.5.8-.5 1.4v2.5c0 .6.2 1 .5 1.4.4.4.9.5 1.5.5.5 0 1-.1 1.4-.4.4-.3.6-.7.7-1.1h2.2c0 .5-.2 1-.5 1.4a4 4 0 01-2.2 1.8 5 5 0 01-1.6.3zm5.8-7v-2h2.7v-1.3c0-.9.3-1.6.8-2 .6-.6 1.4-.9 2.3-.9h3v2h-3a1 1 0 00-.6.3c-.2.1-.2.3-.2.6v1.3h3.7v2H110v6.8h-2.3v-6.8h-2.7zm10.3.6c0-.6.1-1.1.3-1.6.1-.5.4-.9.7-1.2a3 3 0 011-.8l1.5-.3a3 3 0 011.8.6c.5.3.8.8.9 1.4h.1v-1.8h2.2v9.3c0 .6-.1 1-.3 1.5-.2.5-.5.9-.8 1.2l-1.3.7c-.5.2-1.1.3-1.7.3h-2.7v-2h2.7c.5 0 1 0 1.3-.4.4-.3.5-.7.5-1.3v-.2l.1-1.9h-.1c-.1.6-.4 1.1-1 1.5a3 3 0 01-1.7.5c-.6 0-1 0-1.4-.3a3.2 3.2 0 01-1.8-2c-.2-.4-.3-1-.3-1.5v-1.7zm2.3 1.6c0 .6.2 1 .5 1.4.4.4.9.5 1.5.5s1-.1 1.4-.5c.4-.3.5-.8.5-1.4v-1.6c0-.6-.1-1-.5-1.4a2 2 0 00-1.4-.5 2 2 0 00-1.5.5 2 2 0 00-.5 1.4v1.6z"/>
    <path fill="#F03969" fill-rule="nonzero" d="M121 59a12 12 0 110 24 12 12 0 010-24zm93.5 10.5h5v4h-5v-4zm-9 0h5v4h-5v-4zm-9-.1h5v4h-5v-4zm-9 0h5v4h-5v-4zm-9-.1h5v4h-5v-4zm-9 0h5v4h-5v-4zm-9-.1h5v4h-5v-4zm-9 0h5v4h-5v-4zm-9 0h5v4h-5v-4zm-9-.1h5v4h-5v-4z"/>
    <path fill="#3AD787" fill-rule="nonzero" d="M205 178.5l1.5 1.3.8.7 1.5 1.3-2.6 3-1.5-1.3-.8-.6-1.5-1.3 2.6-3zm-6.8-5.8l1.5 1.3.8.6 1.5 1.3-2.6 3-1.5-1.2-.8-.7-1.5-1.3 2.6-3zm-6.8-5.9l1.5 1.3.7.7 1.6 1.3-2.6 3-1.6-1.3-.7-.7-1.5-1.3 2.6-3zm-6.9-5.9l1.6 1.3.7.7 1.5 1.3-2.6 3-1.5-1.3-.7-.6-1.6-1.3 2.6-3zm-6.8-5.8l1.5 1.3.8.6 1.5 1.3-2.6 3-1.5-1.2-.8-.7-1.5-1.3 2.6-3zm-6.8-5.9l1.5 1.3.8.7 1.5 1.3-2.6 3-1.5-1.3-.8-.7-1.5-1.3 2.6-3zm-6.8-5.9l1.5 1.3.7.7 1.6 1.3-2.7 3-1.5-1.3-.7-.6-1.5-1.3 2.6-3zm-6.9-5.8l1.6 1.3.7.6 1.5 1.3-2.6 3-1.5-1.2-.8-.7-1.5-1.3 2.6-3zm-6.8-5.9l1.5 1.3.8.7 1.5 1.3-2.6 3-1.5-1.3-.8-.6-1.5-1.3 2.6-3zm-6.8-5.8l1.5 1.3.8.6 1.5 1.3-2.6 3-1.6-1.3-.7-.6-1.5-1.3 2.6-3zm-6.8-6l1.5 1.4.7.6 1.5 1.3-2.6 3-1.5-1.2-.7-.7-1.6-1.3 2.7-3zm-24.9-18.6a12 12 0 0119.4 14l.1.1.8.7 1.5 1.3-2.6 3-1.5-1.3-.8-.6-.1-.2a12 12 0 01-16.8-17z"/>
    <path fill="#F2E7A6" stroke="#CDB217" stroke-linejoin="round" stroke-width="3.8" d="M1652 209h-28a12 12 0 01-12-12v-15a12 12 0 0112-12h28l23 20-23 19h0z"/>
    <path stroke="#3AD787" stroke-linecap="square" stroke-width="5" d="M264.5 281.5v18M412.5 281.5v18"/>
    <path fill="#F2E7A6" stroke="#CDB217" stroke-linejoin="round" stroke-width="3.8" d="M1717 292h-133a12 12 0 01-12-12v-15a12 12 0 0112-12h133l23 20-23 19h0zM1127 213h-98a12 12 0 01-12-12v-15a12 12 0 0112-12h98l23 20-23 19h0z"/>
    <path fill="#3D4251" fill-rule="nonzero" d="M253.2 95.4c2.6 0 4.9-.5 6.8-1.3 1.9-.9 3.4-2.1 4.7-3.7l-2.3-2.5c-.2-.3-.5-.4-.8-.4l-.6.1a2 2 0 00-.4.3 9.8 9.8 0 01-3 1.9l-1.9.4-2.1.1a8.8 8.8 0 01-6.8-3c-1-.9-1.6-2-2.1-3.4a14 14 0 01-.8-4.8c0-1.7.3-3.3.8-4.7.5-1.4 1.2-2.5 2-3.5 1-1 2-1.7 3.3-2.2 1.3-.6 2.6-.8 4.1-.8a10.6 10.6 0 016.6 2c.3.3.7.5 1 .5.3 0 .6 0 .8-.2l.4-.5 2-2.7a14.5 14.5 0 00-10.7-4.2c-2.4 0-4.7.4-6.7 1.2a15.1 15.1 0 00-8.5 8.5 19.3 19.3 0 00-.1 13.1c.7 2 1.7 3.7 3 5.2a14 14 0 005 3.3c1.8.8 4 1.3 6.3 1.3zm25.3 0c1.7 0 3.2-.3 4.6-.9a9.7 9.7 0 005.8-6c.5-1.4.8-3 .8-4.8 0-1.8-.3-3.4-.8-4.8a9.9 9.9 0 00-5.8-6c-1.4-.6-2.9-.8-4.6-.8-1.7 0-3.2.2-4.6.8a10 10 0 00-5.8 6c-.5 1.4-.8 3-.8 4.8 0 1.8.3 3.4.8 4.8a9.8 9.8 0 005.8 6c1.4.6 3 .8 4.6.8zm0-4.3c-1.9 0-3.3-.6-4.2-1.9a9.4 9.4 0 01-1.4-5.5c0-2.4.5-4.3 1.4-5.5 1-1.3 2.3-2 4.2-2 1.9 0 3.3.7 4.2 2a9.6 9.6 0 011.3 5.5c0 2.4-.4 4.3-1.3 5.6-1 1.2-2.3 1.9-4.2 1.9zm20.8 3.9V78.5c.6-.7 1.3-1.2 2-1.6.6-.4 1.4-.6 2.1-.6 1.2 0 2.1.3 2.7 1 .6.7 1 1.8 1 3.3V95h5.4V80.6c0-.7.1-1.3.3-1.8.2-.6.5-1 .8-1.4l1.3-.8c.5-.2 1-.3 1.6-.3 1.2 0 2 .4 2.7 1 .7.8 1 1.9 1 3.3V95h5.4V80.6c0-1.3-.2-2.5-.5-3.6-.4-1-.9-2-1.5-2.7a6.4 6.4 0 00-2.5-1.7 9.7 9.7 0 00-7.5.4 7.2 7.2 0 00-3 3.3 7 7 0 00-2-3c-1-.8-2.1-1.2-3.6-1.2a7 7 0 00-4.8 1.8L299 75l-.4-1.7c-.2-.6-.7-1-1.4-1H294V95h5.4zm37 7.4V93a8 8 0 002.5 1.6c.9.4 2 .6 3.2.6a8.9 8.9 0 007-3.3c1-1 1.6-2.3 2-3.8a18.2 18.2 0 000-9.6c-.3-1.4-.9-2.6-1.6-3.6a7.4 7.4 0 00-6-3c-1.6 0-3 .3-4.2 1-1.1.6-2.2 1.5-3.1 2.5l-.4-2c-.1-.4-.3-.7-.5-.8-.3-.2-.6-.3-1-.3H331v30h5.4zm4.4-11.2a5.2 5.2 0 01-4.4-2V79c.8-.8 1.5-1.5 2.3-2a5.5 5.5 0 014.8-.3c.6.3 1 .7 1.5 1.3.4.5.7 1.3.9 2.2a15 15 0 010 6.7 7 7 0 01-1.1 2.4c-.5.7-1 1.1-1.7 1.4-.7.3-1.4.5-2.3.5zm24.8 4.1c1.7 0 3.2-.2 4.6-.8a9.7 9.7 0 005.7-6c.5-1.4.8-3 .8-4.8 0-1.8-.3-3.4-.8-4.8-.5-1.5-1.3-2.7-2.2-3.7-1-1-2.2-1.8-3.5-2.3-1.4-.6-3-.8-4.6-.8-1.7 0-3.3.2-4.6.8a10 10 0 00-5.8 6c-.6 1.4-.8 3-.8 4.8 0 1.8.2 3.4.8 4.8.5 1.4 1.3 2.7 2.2 3.7 1 1 2.2 1.8 3.6 2.3 1.3.6 2.9.8 4.6.8zm0-4.1c-2 0-3.3-.7-4.3-2a9.4 9.4 0 01-1.3-5.5c0-2.4.4-4.3 1.3-5.5 1-1.3 2.4-2 4.3-2 1.8 0 3.2.7 4.1 2a9.6 9.6 0 011.4 5.5c0 2.4-.5 4.3-1.4 5.6-.9 1.2-2.3 1.9-4.1 1.9zm20.8 3.8V78.7c.7-.8 1.5-1.3 2.3-1.8.8-.4 1.7-.6 2.7-.6 1.2 0 2.2.4 2.8 1.1.7.8 1 1.9 1 3.2V95h5.4V80.6c0-1.2-.1-2.4-.5-3.4a6.5 6.5 0 00-3.8-4.5 9.5 9.5 0 00-7.2.2 10 10 0 00-3 2.3l-.4-1.8c-.3-.6-.7-1-1.4-1h-3.4V95h5.5zm29.2.3a17.8 17.8 0 004.9-.8c.8-.2 1.6-.6 2.3-1a9 9 0 002-1.9l-1.5-2-.4-.3-.6-.2c-.4 0-.7.2-1 .4a38.9 38.9 0 01-3 1.3c-.6.2-1.4.3-2.3.3-1.8 0-3.2-.5-4.3-1.6-1-1-1.7-2.8-1.8-5.1h13.9l.6-.1c.2 0 .3-.2.4-.3l.2-.7v-1c0-1.6-.2-3-.7-4.3a8.6 8.6 0 00-5.1-5.2 11 11 0 00-4-.7c-1.6 0-3.1.3-4.5.9a10.1 10.1 0 00-5.5 5.9 14.6 14.6 0 00.1 9.6c.6 1.5 1.4 2.7 2.4 3.7s2.1 1.8 3.5 2.3c1.3.6 2.8.8 4.4.8zm4.6-14.2h-10.2c.2-1.6.8-2.9 1.7-3.8a5 5 0 013.7-1.3 5 5 0 012.1.4c.6.2 1.1.6 1.5 1 .4.6.7 1.1.9 1.7.2.7.3 1.3.3 2zM434.8 95V78.7c.7-.8 1.5-1.3 2.3-1.8.9-.4 1.7-.6 2.7-.6 1.3 0 2.2.4 2.9 1.1.6.8 1 1.9 1 3.2V95h5.3V80.6c0-1.2-.1-2.4-.4-3.4-.4-1-.9-2-1.5-2.7a6.5 6.5 0 00-2.4-1.8 9.5 9.5 0 00-7.2.2 10 10 0 00-3 2.3l-.4-1.8c-.2-.6-.7-1-1.4-1h-3.3V95h5.4zm27 .4c1.1 0 2.2-.2 3.2-.6 1-.3 2-.8 2.7-1.5l-1.6-2.6-.3-.4a.6.6 0 00-.4 0h-.4a7.7 7.7 0 01-1 .6h-1c-.5 0-1-.1-1.3-.5-.4-.4-.6-1-.6-1.7V76.5h6v-3.9h-6v-7h-2.8c-.3 0-.6 0-.8.2a1 1 0 00-.4.6l-1.1 6.2-3.7.6v2.2c0 .3.2.6.4.8.2.2.4.3.7.3h2.3v12.6c0 2 .5 3.5 1.6 4.6 1 1.1 2.6 1.7 4.5 1.7z"/>
    <path fill="#FFF" fill-rule="nonzero" d="M260.4 38.2c1.3 0 2.3-.3 3-.8.6-.5 1-1.3 1-2.3 0-.9-.3-1.6-.9-2-.5-.6-1.4-.9-2.6-1l-1.4-.2c-1-.1-1.4-.5-1.4-1.1 0-.8.6-1.2 1.6-1.2h.7c.5 0 .8.1 1 .3l.6.6h2.3c-.2-.8-.6-1.4-1.2-1.9-.7-.4-1.6-.7-2.7-.7h-.7c-1.2 0-2.2.3-2.8.8-.7.5-1 1.2-1 2.1 0 1 .3 1.6.8 2.1.6.5 1.4.8 2.5 1l1.4.1c1 .1 1.6.5 1.6 1.2 0 .4-.2.7-.5 1-.3.1-.7.3-1.3.3h-.7c-.5 0-.8-.1-1.1-.3-.3-.2-.5-.4-.6-.7h-2.3c.1.8.5 1.5 1.2 2 .7.4 1.6.7 2.8.7h.7zm8.1 2.9V38a8.5 8.5 0 000-1 6.3 6.3 0 000-.7h.1c.1.6.4 1 .9 1.4.4.3 1 .5 1.8.5.5 0 1-.1 1.4-.3.4-.2.7-.4 1-.8.3-.3.5-.7.7-1.2.2-.5.3-1 .3-1.6v-2.5a5 5 0 00-.3-1.6c-.2-.5-.4-.9-.7-1.2a3 3 0 00-1-.8l-1.4-.3a3 3 0 00-1.8.5c-.5.4-.8.8-.9 1.4h-.2v-1.7h-2.1v13h2.2zm2-4.9c-.6 0-1.1-.2-1.5-.5a2 2 0 01-.5-1.4v-2.5c0-.6.2-1 .6-1.4.3-.4.8-.5 1.3-.5.7 0 1.1.1 1.5.5.3.3.5.8.5 1.4v2.4a2 2 0 01-.5 1.5c-.4.3-.8.5-1.5.5zm8.9 2c.8 0 1.5-.2 2-.6.6-.4 1-.9 1-1.5h.2V38h2.2v-6.8a3 3 0 00-1.1-2.4l-1.4-.7a6.2 6.2 0 00-3.3 0l-1.2.6c-.4.2-.6.5-.9.8a3 3 0 00-.4 1.2h2.2c0-.3.3-.5.6-.7.4-.2.8-.3 1.3-.3.6 0 1 .1 1.4.4.3.3.5.6.5 1.1v.8H280c-.6 0-1.1.1-1.6.3-.4.1-.9.3-1.2.6l-.8 1-.2 1.3c0 1 .3 1.6.8 2.2.6.5 1.4.8 2.4.8zm.8-1.8a2 2 0 01-1.3-.4c-.3-.2-.5-.6-.5-1 0-.5.2-.9.5-1.1.2-.3.6-.4 1.1-.4h2.5v1.2c0 .5-.2.9-.7 1.2-.4.4-1 .5-1.6.5zm10.9 1.8a5 5 0 001.6-.3 4.1 4.1 0 002.2-1.8l.5-1.4H293c0 .4-.3.8-.7 1-.3.4-.8.5-1.3.5-.7 0-1.2-.2-1.5-.5-.4-.3-.6-.8-.6-1.4v-2.5c0-.6.2-1 .6-1.4.3-.3.8-.5 1.5-.5.5 0 1 .1 1.3.4.4.3.6.7.7 1.1h2.3A4.1 4.1 0 00294 29a4 4 0 00-1.3-.7 5.3 5.3 0 00-3.4 0 4 4 0 00-1.4.8 4 4 0 00-1.2 2.8v2.5c0 .6.2 1.1.4 1.6s.5.9.8 1.2c.4.4.9.6 1.4.8.5.2 1.1.3 1.8.3zm10.2 2.9l4.7-13h-2.4l-1.8 5.3a5.9 5.9 0 00-.3 1.3v.7h-.2a13.3 13.3 0 00-.4-2l-2-5.3h-2.4l3.8 9.3-1.4 3.7h2.4zm10.3-3c.5 0 1 0 1.2-.4.3-.3.5-.8.5-1.3s-.2-1-.5-1.3c-.3-.3-.7-.4-1.3-.4-.5 0-.9.1-1.2.4-.3.3-.5.8-.5 1.3s.2 1 .5 1.3c.3.3.7.5 1.3.5zm8.4 3V38a8.5 8.5 0 000-1 6.3 6.3 0 000-.7h.1c.1.6.4 1 .9 1.4.4.3 1 .5 1.8.5.5 0 1-.1 1.4-.3.4-.2.7-.4 1-.8.3-.3.5-.7.7-1.2.2-.5.3-1 .3-1.6v-2.5a5 5 0 00-.3-1.6c-.2-.5-.4-.9-.7-1.2a3 3 0 00-1-.8l-1.4-.3a3 3 0 00-1.8.5c-.5.4-.8.8-.9 1.4h-.2v-1.7h-2.1v13h2.2zm2-4.9c-.6 0-1.1-.2-1.5-.5a2 2 0 01-.5-1.4v-2.5c0-.6.2-1 .6-1.4.3-.4.8-.5 1.3-.5.7 0 1.1.1 1.5.5.3.3.5.8.5 1.4v2.4a2 2 0 01-.5 1.5c-.4.3-.8.5-1.5.5zm10.9-9.6c.4 0 .7-.1 1-.3.1-.2.3-.5.3-.9 0-.3-.2-.6-.4-.8-.2-.3-.5-.4-1-.4h-.4c-.4 0-.7.1-1 .4-.1.2-.3.5-.3.8 0 .4.2.7.4.9.2.2.5.3 1 .3h.4zm4 11.4v-2h-3V28h-5.2v2h3V36h-3.5V38h8.6zm3.7 3v-3a8.5 8.5 0 000-1 6.3 6.3 0 000-.7h.1c.1.6.4 1 .9 1.4.4.3 1 .5 1.8.5.5 0 1-.1 1.4-.3.4-.2.7-.4 1-.8.3-.3.5-.7.7-1.2.2-.5.3-1 .3-1.6v-2.5a5 5 0 00-.3-1.6c-.2-.5-.4-.9-.7-1.2a3 3 0 00-1-.8l-1.4-.3a3 3 0 00-1.8.5c-.5.4-.8.8-.9 1.4h-.2v-1.7h-2.1v13h2.2zm2-4.8c-.6 0-1.1-.2-1.5-.5a2 2 0 01-.5-1.4v-2.5c0-.6.2-1 .6-1.4.3-.4.8-.5 1.3-.5.7 0 1.1.1 1.5.5.3.3.5.8.5 1.4v2.4a2 2 0 01-.5 1.5c-.4.3-.8.5-1.5.5zm10.1 2c.6 0 1 0 1.5-.2l1.3-.5.9-.9c.3-.3.4-.7.5-1.1h-2.2c-.1.3-.4.5-.7.6a3 3 0 01-1.3.3 2 2 0 01-1.5-.6c-.3-.3-.5-.9-.5-1.5v-.7h6.3v-1.8a4 4 0 00-.3-1.6c-.2-.5-.5-.9-.9-1.2a4 4 0 00-1.3-.8c-.5-.2-1.1-.3-1.8-.3-.6 0-1.2.1-1.7.3-.6.2-1 .4-1.4.8-.4.3-.6.7-.8 1.2a4 4 0 00-.4 1.6v2.5c0 .6.2 1.1.4 1.6a3.5 3.5 0 002.2 2c.5.2 1.1.3 1.8.3zm2.1-6.1h-4.1v-.3c0-.7.2-1.2.5-1.5a2 2 0 011.6-.6 2 2 0 011.5.6c.3.3.5.8.5 1.5v.3zm13 5.9v-2h-3c-.4 0-.7-.1-.9-.3-.2-.2-.3-.5-.3-.9V25h-5.4v2h3.2v7.8c0 1 .2 1.8.8 2.4.6.5 1.4.8 2.4.8h3.1zm6.3-11.4c.4 0 .7-.1 1-.3.1-.2.3-.5.3-.9 0-.3-.2-.6-.4-.8-.2-.3-.5-.4-1-.4h-.4c-.4 0-.7.1-1 .4-.1.2-.3.5-.3.8 0 .4.2.7.4.9.2.2.5.3 1 .3h.4zm4 11.4v-2h-3V28H370v2h3V36h-3.5V38h8.6zm3.7 0v-6.2c0-.6.2-1 .5-1.4.3-.4.8-.5 1.3-.5.6 0 1 .1 1.4.5.3.3.5.8.5 1.4V38h2.2v-6.5c0-1-.3-2-.8-2.6a3 3 0 00-2.4-1 3 3 0 00-1.8.5c-.5.3-.7.8-.9 1.4h-.1v-1.7h-2.2V38h2.3zm12.1.2c.6 0 1 0 1.5-.2l1.3-.5.9-.9c.3-.3.4-.7.5-1.1H396c-.1.3-.4.5-.7.6a3 3 0 01-1.3.3 2 2 0 01-1.5-.6c-.3-.3-.5-.9-.5-1.5v-.7h6.3v-1.8a4 4 0 00-.3-1.6c-.2-.5-.5-.9-.9-1.2a4 4 0 00-1.3-.8c-.5-.2-1.1-.3-1.8-.3-.6 0-1.2.1-1.7.3-.6.2-1 .4-1.4.8-.4.3-.6.7-.8 1.2a4 4 0 00-.4 1.6v2.5c0 .6.1 1.1.4 1.6a3.5 3.5 0 002.2 2c.5.2 1.1.3 1.8.3zM396 32H392v-.3c0-.7.2-1.2.5-1.5a2 2 0 011.6-.6 2 2 0 011.5.6c.3.3.5.8.5 1.5v.3zm8.3 6c.5 0 1 0 1.2-.4.3-.3.5-.8.5-1.3s-.2-1-.5-1.3c-.3-.3-.7-.4-1.3-.4-.5 0-.9.1-1.2.4-.3.3-.5.8-.5 1.3s.2 1 .5 1.3c.3.3.7.5 1.3.5zm8.4-.1v-5h2.3c.6 0 1.2-.2 1.7-.4a4 4 0 001.4-.8c.4-.3.7-.7.9-1.2.2-.5.3-1 .3-1.6 0-.6-.1-1.2-.3-1.6a3.5 3.5 0 00-2.3-2c-.5-.3-1-.4-1.7-.4h-4.5v13h2.2zm2.3-7h-2.3v-4h2.3a2 2 0 011.4.5c.4.4.6.9.6 1.5a2 2 0 01-.6 1.4 2 2 0 01-1.4.6zm10.6-4.4c.4 0 .7-.1 1-.3.1-.2.3-.5.3-.9 0-.3-.2-.6-.4-.8-.2-.3-.5-.4-1-.4h-.4c-.4 0-.7.1-1 .4-.1.2-.3.5-.3.8 0 .4.2.7.4.9.2.2.5.3 1 .3h.4zm4 11.4v-2h-3V28h-5.2v2h3V36H421V38h8.6zm3.7 3v-3a8.5 8.5 0 000-1 6.3 6.3 0 000-.7h.1c.1.6.4 1 .9 1.4.4.3 1 .5 1.8.5.5 0 1-.1 1.4-.3.4-.2.7-.4 1-.8.3-.3.5-.7.7-1.2.2-.5.3-1 .3-1.6v-2.5a5 5 0 00-.3-1.6c-.2-.5-.4-.9-.7-1.2a3 3 0 00-1-.8l-1.4-.3a3 3 0 00-1.8.5c-.5.4-.8.8-.9 1.4h-.2v-1.7h-2.1v13h2.2zm2-4.8c-.6 0-1.1-.2-1.5-.5a2 2 0 01-.5-1.4v-2.5c0-.6.2-1 .6-1.4.3-.4.8-.5 1.3-.5.7 0 1.1.1 1.5.5.3.3.5.8.5 1.4v2.4a2 2 0 01-.5 1.5c-.4.3-.8.5-1.5.5zm10.1 2c.6 0 1 0 1.5-.2l1.3-.5.9-.9c.3-.3.4-.7.5-1.1h-2.2c-.1.3-.4.5-.7.6a3 3 0 01-1.3.3 2 2 0 01-1.5-.6c-.3-.3-.5-.9-.5-1.5v-.7h6.3v-1.8a4 4 0 00-.3-1.6c-.2-.5-.5-.9-.9-1.2a4 4 0 00-1.3-.8c-.5-.2-1.1-.3-1.8-.3-.6 0-1.2.1-1.7.3-.6.2-1 .4-1.4.8-.4.3-.6.7-.8 1.2a4 4 0 00-.4 1.6v2.5c0 .6.1 1.1.4 1.6a3.5 3.5 0 002.2 2c.5.2 1.1.3 1.8.3zm2.1-6.1h-4.1v-.3c0-.7.2-1.2.5-1.5a2 2 0 011.6-.6 2 2 0 011.5.6c.3.3.5.8.5 1.5v.3z"/>
    <path fill="#3D4251" fill-rule="nonzero" d="M287.7 251v-20.5a27.2 27.2 0 00-.2-2.8l9.8 18.2.8 1c.4.1.8.3 1.3.3h.8a2.5 2.5 0 002-1.3l9.7-18a30.8 30.8 0 00-.1 2.6V251h5.2v-31.8h-4.5a9 9 0 00-.7 0l-.5.1-.4.3-.4.5-9.4 17.7a19.6 19.6 0 00-1.3 3 95.1 95.1 0 00-1.3-3l-9.5-17.7-.4-.5-.5-.3h-.5a9 9 0 00-.7-.1h-4.4V251h5.2zm45 .3c1.7 0 3.2-.2 4.6-.8a9.7 9.7 0 005.8-6c.5-1.4.8-3 .8-4.8 0-1.8-.3-3.4-.8-4.8a9.9 9.9 0 00-5.8-6c-1.4-.6-2.9-.8-4.6-.8-1.7 0-3.2.2-4.6.8a10 10 0 00-5.8 6c-.5 1.4-.8 3-.8 4.8 0 1.8.3 3.4.8 4.8a9.8 9.8 0 005.8 6c1.4.6 3 .8 4.6.8zm0-4.2c-1.9 0-3.3-.6-4.2-1.9a9.4 9.4 0 01-1.4-5.5c0-2.4.5-4.3 1.4-5.5 1-1.3 2.3-2 4.2-2 2 0 3.3.7 4.2 2a9.6 9.6 0 011.4 5.5c0 2.4-.5 4.3-1.4 5.6-.9 1.2-2.3 1.8-4.2 1.8zm22.2 4.2a9.2 9.2 0 004.1-1c.6-.2 1.2-.6 1.7-1l1.5-1.5.4 2.2c.2.7.7 1 1.4 1h3.3v-32.7H362v12a7.8 7.8 0 00-5.6-2.2 8.8 8.8 0 00-7.1 3.3c-.9 1-1.5 2.3-2 3.7a18.3 18.3 0 000 9.6c.4 1.4 1 2.7 1.7 3.6.7 1 1.6 1.7 2.6 2.3 1 .5 2.2.7 3.4.7zm1.9-4.3c-.7 0-1.4-.1-2-.4-.5-.2-1-.6-1.4-1.2-.4-.6-.7-1.3-1-2.3a15 15 0 01.1-6.7c.3-1 .6-1.8 1.1-2.4.5-.6 1-1 1.7-1.4.7-.3 1.4-.5 2.2-.5a5.3 5.3 0 014.4 2v10.2c-.7.9-1.5 1.5-2.3 2-.8.5-1.7.7-2.8.7zm26 4.3a17.8 17.8 0 005-.8l2.3-1a9 9 0 002-1.9l-1.6-2-.4-.3-.6-.2a38.9 38.9 0 01-4 1.7c-.6.2-1.4.3-2.2.3-1.8 0-3.3-.5-4.3-1.6-1.1-1-1.8-2.8-2-5.1h14l.6-.1c.2 0 .3-.2.4-.3l.2-.7v-1c0-1.6-.2-3-.6-4.3a8.6 8.6 0 00-5.1-5.2 11 11 0 00-4-.7c-1.7 0-3.2.3-4.5.9a10.1 10.1 0 00-5.6 5.9 14.6 14.6 0 00.1 9.6c.6 1.5 1.4 2.7 2.4 3.7s2.2 1.8 3.5 2.3c1.4.6 2.8.8 4.4.8zm4.6-14.2h-10.2c.2-1.6.8-2.9 1.7-3.8a5 5 0 013.7-1.3 5 5 0 012.1.4c.6.2 1.1.6 1.5 1l1 1.7.2 2zm15 13.9v-32.7h-5.3V251h5.4zM238.6 335.8v-3H231v-16h-3.6v19h11.2zm5.6.2l1.3-.1a5.2 5.2 0 002.1-1l1-.8.3 1c.1.3.2.5.4.6l.7.1h1.5v-8.6c0-.7-.1-1.4-.3-2a4.5 4.5 0 00-2.6-2.7c-.6-.4-1.3-.5-2.1-.5a8 8 0 00-5.6 2.1l.6 1c0 .3.2.4.3.5l.6.2c.3 0 .5 0 .7-.2a33.5 33.5 0 001.7-.8 4 4 0 011.3-.2c.7 0 1.3.2 1.7.6.3.5.5 1.1.5 2v.8c-1.5 0-2.8.2-3.8.5s-2 .6-2.5 1c-.7.4-1.1.8-1.4 1.3-.2.5-.4 1-.4 1.5 0 .6.1 1.2.3 1.6a3.1 3.1 0 002 1.9l1.7.2zm1-2.2c-.6 0-1-.2-1.4-.4-.3-.2-.5-.7-.5-1.2 0-.3.1-.6.3-.8.1-.3.4-.5.8-.7l1.5-.4c.7-.2 1.5-.2 2.4-.3v2.3c-.2.2-.4.5-.7.6l-.7.5-.8.3h-1zm13.2 6.4c.4 0 .6 0 .7-.2.2 0 .3-.2.4-.5l7.4-17.2h-2.6a1 1 0 00-.9.6l-2.7 7a21.5 21.5 0 00-.5 1.4 11.3 11.3 0 00-.5-1.4l-2.9-7c0-.2-.1-.3-.3-.5l-.6-.1h-2.8l5.4 12.5-2.5 5.4h2.4zm16.2-4.2a10.7 10.7 0 003-.5c.4-.1.9-.4 1.3-.7.5-.2.9-.6 1.2-1l-1-1.2c0-.1 0-.2-.2-.2l-.3-.1c-.2 0-.4 0-.6.2a23.3 23.3 0 01-1.8.8l-1.4.2c-1 0-1.9-.3-2.5-1-.7-.7-1-1.7-1.2-3h8.4l.4-.1.2-.2.1-.4v-.6c0-1 0-1.9-.4-2.6-.3-.8-.7-1.4-1.2-2-.5-.5-1.1-.9-1.8-1.1a6.7 6.7 0 00-5 .1 6 6 0 00-3.5 3.5c-.3.8-.4 1.7-.4 2.6 0 1.2.2 2.3.5 3.2.4.9.8 1.6 1.4 2.2.6.7 1.3 1.1 2.1 1.4.8.3 1.7.5 2.7.5zm2.7-8.5h-6a4 4 0 011-2.3 3 3 0 012.2-.8c.4 0 .9 0 1.2.2l1 .7.5 1 .1 1.2zm8.9 8.3v-8.4c.3-.8.7-1.3 1.2-1.7.5-.4 1-.5 1.7-.5h1l.5.1h.4l.1-.4.4-2.4c-.4-.3-1-.5-1.6-.5-.8 0-1.6.2-2.2.7-.7.5-1.2 1.2-1.7 2l-.2-1.6c0-.3-.1-.5-.3-.7l-.7-.1H283v13.5h3.3zm11 .2c.9 0 1.7-.1 2.3-.3.7-.2 1.3-.6 1.7-1a4 4 0 001-1.4c.3-.5.4-1.1.4-1.8 0-.5 0-1-.3-1.4l-.7-1-1-.7a13.1 13.1 0 00-2.5-.8l-1-.4-.8-.6a1 1 0 01-.3-.7c0-.4.2-.8.5-1 .4-.3 1-.5 1.6-.5a3.9 3.9 0 011.9.5 34.7 34.7 0 011 .4l.5-.1.2-.3.8-1.2a6.8 6.8 0 00-4.5-1.7c-.8 0-1.6.2-2.2.4-.6.2-1.2.5-1.6.9a3.7 3.7 0 00-1.3 2.9c0 .6.1 1 .3 1.5.2.4.4.8.7 1l1.1.8a11.4 11.4 0 002.5.9l1 .4.8.5c.2.2.3.5.3.8 0 .2 0 .4-.2.6 0 .2-.2.4-.3.5l-.7.4-1 .1a3.7 3.7 0 01-2-.5l-.7-.4a1 1 0 00-.6-.2 1 1 0 00-.5.2 1 1 0 00-.3.3l-.8 1.2 1 .7a7 7 0 002.3.9l1.4.1zM369.6 335.8l4.2-13a30.5 30.5 0 00.4-1.2 12.4 12.4 0 00.3 1.2l4.2 13h3.2l6-19H385c-.3 0-.5 0-.7.2a1 1 0 00-.4.5l-3.3 11.4a19.3 19.3 0 00-.4 2l-.5-2-3.7-11.4-.4-.6-.8-.2h-1c-.3 0-.6.1-.8.3-.2.1-.4.3-.4.5l-3.8 11.4a11.6 11.6 0 00-.5 2 33.2 33.2 0 00-.4-2l-3.2-11.4a1 1 0 00-.4-.6l-.8-.2h-3l6 19.1h3.1zm25.9.2a10.7 10.7 0 003-.5c.4-.1.9-.4 1.3-.7.5-.2.9-.6 1.3-1l-1-1.2-.3-.2-.3-.1c-.2 0-.4 0-.6.2a23.3 23.3 0 01-1.8.8l-1.3.2c-1.1 0-2-.3-2.6-1-.7-.7-1-1.7-1.2-3h8.4l.4-.1.2-.2.1-.4v-.6c0-1 0-1.9-.4-2.6-.3-.8-.7-1.4-1.2-2-.5-.5-1.1-.9-1.8-1.1a6.7 6.7 0 00-5 .1 6 6 0 00-3.5 3.5 8.8 8.8 0 000 5.7c.5 1 1 1.7 1.5 2.3.6.7 1.3 1.1 2.1 1.4.8.3 1.7.5 2.7.5zm2.7-8.5h-6a4 4 0 011-2.3 3 3 0 012.2-.8c.5 0 .9 0 1.2.2l1 .7.5 1 .1 1.2zm7.5-7.1l.8-.2a2.2 2.2 0 001.1-1.1l.2-.8c0-.3 0-.6-.2-.8a2.1 2.1 0 00-2-1.3 2.1 2.1 0 00-1.9 1.3 2 2 0 001.2 2.7l.8.2zm1.6 15.4v-13.5H404v13.5h3.3zm8.4 4.8c1 0 2-.2 2.8-.4.8-.3 1.5-.7 2-1.1.6-.4 1-1 1.3-1.5.3-.6.4-1.1.4-1.7a3 3 0 00-.3-1.6c-.3-.4-.6-.8-1-1l-1.4-.5a12.6 12.6 0 00-3.2-.3l-1.4-.1a3 3 0 01-1-.3.6.6 0 01-.4-.6c0-.3.2-.6.7-.9a7.6 7.6 0 003.6-.1c.6-.2 1.2-.5 1.6-.9a4 4 0 001.3-4.7l1.2-.3c.2 0 .4 0 .5-.2l.2-.5v-1.2h-3.9l-1.4-.5a7.2 7.2 0 00-5.5 1 4 4 0 00-1.5 3.2 4 4 0 002.2 3.6 3.8 3.8 0 00-1.3 1.2l-.4.6v.6c0 .5 0 1 .2 1.2l.8.8a4 4 0 00-1.6 1c-.3.4-.5 1-.5 1.6 0 .5 0 .9.3 1.3.3.5.6.8 1.1 1.2.5.3 1.2.6 2 .8.7.2 1.6.3 2.6.3zm0-11.9a3 3 0 01-1-.2 2 2 0 01-1.2-1.2c-.2-.2-.2-.5-.2-.8 0-.7.2-1.2.6-1.6.4-.4 1-.6 1.8-.6s1.4.2 1.8.6c.4.4.6 1 .6 1.6 0 .3 0 .6-.2.9a1.9 1.9 0 01-1.2 1.1 3 3 0 01-1 .2zm0 9.5h-1.5l-1-.4-.5-.6c-.2-.2-.2-.4-.2-.6 0-.4 0-.7.3-1 .2-.3.5-.5 1-.7a16 16 0 002.4.2 17.6 17.6 0 012.2.3c.2 0 .4.2.6.4.2.1.2.3.2.6s0 .5-.2.7c0 .3-.3.5-.6.6l-1 .4-1.6.1zm12.2-2.4V326l1.4-1c.5-.3 1-.4 1.6-.4.7 0 1.3.2 1.7.7.4.4.6 1 .6 1.9v8.6h3.2v-8.6c0-.8 0-1.5-.3-2.1-.2-.6-.4-1.2-.8-1.6-.4-.5-.9-.8-1.5-1-.5-.3-1.2-.5-2-.5a5 5 0 00-2.2.5c-.6.3-1.2.7-1.7 1.2v-7.5h-3.3v19.6h3.3zm16.2.2a6 6 0 002-.3 5 5 0 001.5-.9l-1-1.6-.1-.2h-.3-.2a4.6 4.6 0 01-.6.3h-.5a1 1 0 01-.9-.3c-.2-.2-.3-.5-.3-1v-7.3h3.6v-2.3h-3.6V318H442c-.2 0-.3 0-.5.2l-.2.4-.7 3.7-2.2.3v1.3c0 .2 0 .4.2.5l.5.2h1.3v7.6c0 1.1.4 2 1 2.7.6.7 1.5 1 2.7 1zm9.3 0c.8 0 1.6-.1 2.3-.3.7-.2 1.2-.6 1.7-1a4 4 0 001-1.4c.3-.5.4-1.1.4-1.8 0-.5-.1-1-.3-1.4l-.7-1-1.1-.7a13.1 13.1 0 00-2.4-.8l-1.1-.4-.8-.6a1 1 0 01-.2-.7c0-.4.1-.8.5-1 .4-.3.9-.5 1.5-.5a3.9 3.9 0 012 .5 34.7 34.7 0 011 .4l.4-.1.3-.3.7-1.2c-.5-.5-1.1-.9-1.9-1.2a6.7 6.7 0 00-4.8-.1c-.6.2-1.1.5-1.5.9a3.7 3.7 0 00-1.3 2.9c0 .6 0 1 .3 1.5.1.4.4.8.7 1 .3.4.7.6 1 .8a11.4 11.4 0 002.5.9l1.1.4.8.5.2.8v.6l-.5.5-.7.4-1 .1a3.7 3.7 0 01-2-.5l-.7-.4a1 1 0 00-.5-.2 1 1 0 00-.5.2 1 1 0 00-.4.3l-.7 1.2c.2.3.5.5.9.7a7 7 0 002.4.9l1.4.1z"/>
    <g fill-rule="nonzero">
      <path fill="#3D4251" d="M150.3 242v-2h-5.6v-11h-2.3v13h8zm6.8-11.4c.4 0 .7-.1 1-.3.1-.2.3-.5.3-.9 0-.3-.2-.6-.4-.8-.2-.3-.5-.4-1-.4h-.4c-.4 0-.7.1-1 .4-.1.2-.3.5-.3.8 0 .4.2.7.4.9.2.2.5.3 1 .3h.4zm4 11.4v-2h-3V232H153v2h3v5.8h-3.5v2.1h8.6zm5.9.2c1.3 0 2.3-.3 3-.8.6-.5 1-1.3 1-2.3 0-.9-.3-1.6-.9-2-.5-.6-1.4-.9-2.6-1l-1.4-.2c-1-.1-1.4-.5-1.4-1.1 0-.8.6-1.2 1.6-1.2h.7c.5 0 .8.1 1 .3l.6.6h2.3c-.2-.8-.6-1.4-1.2-1.9-.7-.4-1.6-.7-2.7-.7h-.7c-1.2 0-2.2.3-2.8.8-.7.5-1 1.2-1 2.1 0 1 .3 1.6.8 2.1.6.5 1.4.8 2.5 1l1.4.1c1 .1 1.6.5 1.6 1.2 0 .4-.2.7-.5 1-.3.1-.7.3-1.3.3h-.7c-.5 0-.8-.1-1.1-.3-.3-.2-.5-.4-.6-.7h-2.3c.1.8.5 1.5 1.2 2 .7.4 1.6.7 2.8.7h.7zm14-.2v-2h-2.6a1 1 0 01-.8-.3 1 1 0 01-.3-.8v-4.8h3.8v-2h-3.8v-3h-2.2v3h-2.7v2h2.7v4.8c0 1 .3 1.7.8 2.3.6.5 1.4.8 2.3.8h2.7z"/>
      <path fill="#67708A" d="M190.2 244v-2.1h-2.8v-12.7h2.8V227h-5V244z"/>
      <path fill="#3D4251" d="M197.5 242l1.8-.3a3.7 3.7 0 002.3-2.1c.1-.5.3-1.1.3-1.7V233c0-.6-.2-1.1-.4-1.6a3.7 3.7 0 00-2.2-2.2l-1.8-.3h-4v13h4zm0-2h-1.8V231h1.8c.6 0 1.1.2 1.5.6.4.3.6.8.6 1.4v4.8a2 2 0 01-.6 1.5c-.4.3-.9.5-1.5.5zm10.3 2.2c.7 0 1.3-.1 1.8-.3a3.5 3.5 0 002.2-2c.2-.5.4-1 .4-1.6v-2.5a4 4 0 00-.4-1.6 3.5 3.5 0 00-2.2-2c-.5-.2-1.1-.3-1.8-.3-.6 0-1.2.1-1.7.3a3.5 3.5 0 00-2.2 2 4 4 0 00-.4 1.6v2.5c0 .5.2 1 .4 1.6.2.4.4.8.8 1.2.4.3.8.6 1.4.8.5.2 1.1.3 1.8.3zm0-2a2 2 0 01-1.5-.5c-.3-.4-.5-.8-.5-1.4v-2.5c0-.6.2-1 .5-1.4a2 2 0 011.5-.5 2 2 0 011.6.5c.3.4.5.8.5 1.4v2.5c0 .6-.2 1-.5 1.4a2 2 0 01-1.5.5zm10.5 2a5 5 0 001.6-.3 4.1 4.1 0 002.2-1.8l.5-1.4h-2.3c0 .4-.3.8-.7 1-.3.4-.8.5-1.3.5-.7 0-1.2-.1-1.5-.5-.4-.3-.6-.8-.6-1.4v-2.5c0-.6.2-1 .6-1.4.3-.4.8-.5 1.5-.5.5 0 1 .1 1.3.4.4.3.6.7.7 1.1h2.3a4.1 4.1 0 00-1.4-2.5 4 4 0 00-1.3-.7 5.3 5.3 0 00-3.4 0 4 4 0 00-1.4.8 4 4 0 00-1.2 2.8v2.5c0 .6.2 1.1.4 1.6s.5.9.8 1.2c.4.4.9.6 1.4.8.5.2 1.1.3 1.8.3z"/>
      <path fill="#67708A" d="M230.5 244v-17h-5v2.2h2.7v12.7h-2.8v2z"/>
    </g>
    <path fill="#3D4251" fill-rule="nonzero" d="M446.9 242.2l1.8-.3a4 4 0 001.3-.8c.4-.4.7-.8.9-1.3.2-.5.3-1 .3-1.6v-5.4c0-.6-.1-1.1-.3-1.6a3.6 3.6 0 00-2.2-2l-1.8-.3c-.6 0-1.2 0-1.8.2l-1.3.8c-.4.4-.7.8-.9 1.3-.2.5-.3 1-.3 1.6v5.4c0 .6.1 1.1.3 1.6a3.6 3.6 0 002.2 2.1l1.8.3zm0-2a2 2 0 01-1.5-.5 2 2 0 01-.6-1.5v-5.4c0-.6.2-1 .6-1.4a2 2 0 011.5-.6 2 2 0 011.5.6c.4.3.6.8.6 1.4v5.4a2 2 0 01-.6 1.5 2 2 0 01-1.5.5zm10.3 2c1.3 0 2.3-.4 3-1 .7-.7 1-1.7 1-3v-6.1H459v6.2c0 1.3-.6 2-1.8 2-1.2 0-1.8-.7-1.8-2V232h-2.3v6.2c0 1.2.4 2.2 1.1 2.9.7.6 1.7 1 3 1zm14.3-.2v-2H469a1 1 0 01-.8-.3 1 1 0 01-.3-.8v-4.8h3.8v-2h-3.8v-3h-2.3v3H463v2h2.7v4.8c0 1 .3 1.7.9 2.3.6.5 1.3.8 2.3.8h2.7zm4.5 3v-3a8.5 8.5 0 000-1 6.3 6.3 0 00-.1-.7h.2c0 .6.4 1 .8 1.4.5.3 1 .5 1.8.5.5 0 1-.1 1.4-.3.4-.2.8-.4 1-.8.4-.3.6-.7.8-1.2l.2-1.6v-2.5a5 5 0 00-.2-1.6c-.2-.5-.4-.9-.7-1.2a3 3 0 00-1.1-.8c-.4-.2-.9-.3-1.4-.3a3 3 0 00-1.8.5c-.4.4-.7.8-.8 1.4h-.2v-1.7h-2.2v13h2.3zm1.9-4.8c-.6 0-1-.2-1.4-.5a2 2 0 01-.5-1.4v-2.5c0-.6.2-1 .5-1.4.4-.4.8-.5 1.4-.5.6 0 1 .1 1.4.5.4.3.6.8.6 1.4v2.4a2 2 0 01-.6 1.5c-.3.3-.8.5-1.4.5zm10.2 2c1.3 0 2.3-.4 3-1 .7-.7 1-1.7 1-3v-6.1H490v6.2c0 1.3-.6 2-1.8 2-1.2 0-1.8-.7-1.8-2V232H484v6.2c0 1.2.4 2.2 1.1 2.9.7.6 1.7 1 3 1zm14.3-.2v-2h-2.5a1 1 0 01-.8-.3 1 1 0 01-.3-.8v-4.8h3.8v-2h-3.8v-3h-2.3v3h-2.7v2h2.7v4.8c0 1 .3 1.7.9 2.3.6.5 1.3.8 2.3.8h2.7zm7.4 0v-10.9h3.6v-2H504v2h3.6V242h2.2zm9.3 3l4.7-12.9h-2.4l-1.8 5.3a5.9 5.9 0 00-.3 1.3l-.1.7h-.1a13.3 13.3 0 00-.5-2l-1.9-5.3h-2.5l3.8 9.3-1.3 3.7h2.4zm8.4 0v-3a8.5 8.5 0 000-1 6.3 6.3 0 00-.1-.7h.2c0 .6.4 1 .8 1.4.5.3 1 .5 1.8.5.5 0 1-.1 1.4-.3.4-.2.8-.4 1-.8.4-.3.6-.7.8-1.2l.2-1.6v-2.5a5 5 0 00-.2-1.6c-.2-.5-.4-.9-.7-1.2a3 3 0 00-1.1-.8c-.4-.2-.9-.3-1.4-.3a3 3 0 00-1.8.5c-.4.4-.7.8-.8 1.4h-.2v-1.7h-2.2v13h2.3zm1.9-4.8c-.6 0-1-.2-1.4-.5a2 2 0 01-.5-1.4v-2.5c0-.6.2-1 .5-1.4.4-.4.8-.5 1.4-.5.6 0 1 .1 1.4.5.4.3.6.8.6 1.4v2.4a2 2 0 01-.6 1.5c-.3.3-.8.5-1.4.5zm10.2 2c.5 0 1 0 1.5-.2l1.2-.5 1-.9.5-1.1h-2.2c-.2.3-.4.5-.8.6a3 3 0 01-1.2.3 2 2 0 01-1.5-.6c-.4-.4-.6-.9-.6-1.5v-.7h6.4v-1.8a4 4 0 00-.3-1.6c-.2-.5-.5-.9-.9-1.2a4 4 0 00-1.3-.8l-1.8-.3c-.7 0-1.3.1-1.8.3-.5.2-1 .4-1.3.8-.4.3-.7.7-.9 1.2a4 4 0 00-.3 1.6v2.5c0 .6.1 1.1.3 1.6a3.5 3.5 0 002.2 2l1.8.3zm2-6.1h-4v-.3c0-.7.1-1.2.5-1.5a2 2 0 011.5-.6 2 2 0 011.5.6c.4.3.6.8.6 1.5v.3z"/>
    <path fill="#FFF" fill-rule="nonzero" d="M270.1 192v-2h-2.5a1 1 0 01-.8-.3 1 1 0 01-.3-.8v-4.8h3.8v-2h-3.8v-3h-2.2v3h-2.7v2h2.7v4.8c0 1 .3 1.7.8 2.3.6.5 1.4.8 2.3.8h2.7zm4.5 0v-6.2c0-.6.2-1 .5-1.4.3-.4.8-.5 1.3-.5.6 0 1 .1 1.4.5.3.3.5.8.5 1.4v6.2h2.2v-6.5c0-1-.3-2-.9-2.6a3 3 0 00-2.3-1 3 3 0 00-1.8.5c-.5.3-.7.8-.9 1.4h-.1v-.2a235.4 235.4 0 01.1-1.5v-3h-2.3V192h2.3zm12.9-11.4c.4 0 .7-.1 1-.3.1-.2.3-.5.3-.9 0-.3-.2-.6-.4-.8-.2-.3-.5-.4-1-.4h-.4c-.4 0-.7.1-1 .4-.1.2-.3.5-.3.8 0 .4.2.7.4.9.2.2.5.3 1 .3h.4zm4 11.4v-2h-3V182h-5.2v2h3v5.8h-3.5v2.1h8.6zm3.7 0v-6.2c0-.6.2-1 .5-1.4.3-.4.8-.5 1.4-.5.5 0 1 .1 1.3.5.3.3.5.8.5 1.4v6.2h2.2v-6.5c0-1-.3-2-.8-2.6a3 3 0 00-2.4-1 3 3 0 00-1.8.5c-.5.3-.7.8-.9 1.4h-.1v-1.7h-2.2v9.9h2.3zm12.3.2a5 5 0 001.6-.3 4.1 4.1 0 002.2-1.8l.5-1.4h-2.3c0 .4-.3.8-.7 1-.3.4-.8.5-1.3.5-.7 0-1.2-.1-1.5-.5-.4-.3-.6-.8-.6-1.4v-2.5c0-.6.2-1 .6-1.4.3-.3.8-.5 1.5-.5.5 0 1 .1 1.3.4.4.3.6.7.7 1.1h2.3a4.1 4.1 0 00-1.4-2.5 4 4 0 00-1.3-.7 5.3 5.3 0 00-3.4 0 4 4 0 00-1.4.8 4 4 0 00-1.2 2.8v2.5c0 .6.2 1.1.4 1.6s.5.9.8 1.2c.4.4.9.6 1.4.8.5.2 1.1.3 1.8.3zm10.1 0c.6 0 1-.2 1.3-.5.3-.3.5-.8.5-1.3s-.2-1-.5-1.3c-.3-.3-.7-.4-1.3-.4-.5 0-.9.1-1.2.4-.3.3-.5.8-.5 1.3s.2 1 .5 1.3c.3.3.7.5 1.3.5zm9 0c.9 0 1.6-.2 2.2-.6.5-.4.9-.9 1-1.5h.1v1.9h2.2v-6.8a3 3 0 00-1.1-2.4l-1.4-.7a6.2 6.2 0 00-3.3 0l-1.2.6c-.4.2-.6.5-.9.8a3 3 0 00-.4 1.2h2.2c0-.3.3-.5.6-.7.4-.2.8-.3 1.3-.3.6 0 1 .1 1.4.4.3.3.5.6.5 1.1v.8h-2.5c-.6 0-1.1.1-1.6.3-.4.1-.9.3-1.2.6l-.8 1-.2 1.3c0 1 .3 1.6.8 2.2.6.5 1.4.8 2.4.8zm.9-1.8a2 2 0 01-1.3-.4c-.3-.2-.5-.6-.5-1 0-.5.2-.9.4-1.1.3-.3.7-.4 1.2-.4h2.5v1.2c0 .5-.2.9-.7 1.2-.4.4-1 .5-1.6.5zm9 4.7V192a8.5 8.5 0 00-.1-1 6.3 6.3 0 000-.7h.1c.1.6.4 1 .9 1.4.4.3 1 .5 1.8.5.5 0 1-.1 1.4-.3.4-.2.7-.4 1-.8.3-.3.5-.7.7-1.2.2-.5.3-1 .3-1.6v-2.5a5 5 0 00-.3-1.6c-.2-.5-.4-.9-.7-1.2a3 3 0 00-1-.8l-1.5-.3a3 3 0 00-1.7.5c-.5.4-.8.8-.9 1.4h-.2v-1.7h-2.1v13h2.2zm1.8-4.9c-.5 0-1-.2-1.4-.5a2 2 0 01-.5-1.4v-2.5c0-.6.2-1 .6-1.4.3-.4.8-.5 1.3-.5.7 0 1.1.1 1.5.5.3.3.5.8.5 1.4v2.4a2 2 0 01-.5 1.5c-.4.3-.8.5-1.5.5zm11-9.6c.4 0 .7-.1 1-.3.1-.2.3-.5.3-.9 0-.3-.2-.6-.4-.8-.2-.3-.5-.4-1-.4h-.4c-.4 0-.7.1-1 .4-.1.2-.3.5-.3.8 0 .4.2.7.4.9.2.2.5.3 1 .3h.4zm4 11.4v-2h-3V182h-5.2v2h3v5.8h-3.5v2.1h8.6zm5.6.2c.5 0 1-.2 1.2-.5.3-.3.5-.8.5-1.3s-.2-1-.5-1.3c-.3-.3-.7-.4-1.3-.4-.5 0-.9.1-1.2.4-.3.3-.5.8-.5 1.3s.2 1 .5 1.3c.3.3.7.5 1.3.5zm7.8-.2v-8.4a15 15 0 00-.2-3h.2a107.9 107.9 0 01.7 2.6l1 3h1.6l1-3a10.3 10.3 0 00.4-1.7l.2-.9h.2a23.1 23.1 0 00-.2 3v8.4h2v-13h-2.7l-1.3 4.2a4.9 4.9 0 00-.2 1.2l-.1.6h-.2a12 12 0 00-.3-1.8l-1.4-4.2h-2.7v13h2zm12.8.2c.6 0 1.2-.1 1.7-.3a3.5 3.5 0 002.2-2c.2-.5.4-1 .4-1.6v-2.5a4 4 0 00-.4-1.6 3.5 3.5 0 00-2.2-2c-.5-.2-1.1-.3-1.8-.3-.6 0-1.2.1-1.7.3a3.5 3.5 0 00-2.2 2 4 4 0 00-.4 1.6v2.5c0 .5.1 1 .4 1.6.2.4.4.8.8 1.2.4.3.8.6 1.4.8.5.2 1.1.3 1.8.3zm0-2a2 2 0 01-1.6-.5c-.3-.4-.5-.8-.5-1.4v-2.5c0-.6.2-1 .5-1.4a2 2 0 011.6-.5 2 2 0 011.5.5c.3.4.5.8.5 1.4v2.5c0 .6-.2 1-.5 1.4a2 2 0 01-1.6.5zm9.4 2a3 3 0 001.7-.5c.5-.4.8-.8.9-1.4h.2v1.7h2.1v-13h-2.2v3.1a17.7 17.7 0 000 1.1v.6h-.1c-.1-.6-.4-1-.9-1.4a3 3 0 00-1.8-.5c-.5 0-1 .1-1.3.3a3 3 0 00-1.1.8c-.3.3-.5.7-.7 1.2a5 5 0 00-.3 1.6v2.5c0 .6.1 1.1.3 1.6.2.5.4.9.7 1.2.3.4.6.6 1 .8l1.5.3zm.8-2c-.7 0-1.1-.2-1.5-.5a2 2 0 01-.5-1.5v-2.4c0-.6.2-1 .5-1.4a2 2 0 011.5-.5c.5 0 1 .1 1.4.5.3.4.5.8.5 1.4v2.5c0 .5-.2 1-.5 1.4-.4.3-.9.5-1.4.5zm10.4 2c.5 0 1 0 1.4-.2l1.3-.5.9-.9c.3-.3.4-.7.5-1.1H402c-.1.3-.4.5-.7.6a3 3 0 01-1.3.3 2 2 0 01-1.5-.6c-.3-.4-.5-.9-.5-1.5v-.7h6.3v-1.8a4 4 0 00-.3-1.6c-.2-.5-.5-.9-.9-1.2a4 4 0 00-1.3-.8c-.5-.2-1.1-.3-1.8-.3-.6 0-1.2.1-1.7.3-.6.2-1 .4-1.4.8-.4.3-.6.7-.8 1.2a4 4 0 00-.4 1.6v2.5c0 .6.2 1.1.4 1.6a3.5 3.5 0 002.2 2c.5.2 1.1.3 1.8.3zm2-6.1H398v-.3c0-.7.2-1.2.5-1.5a2 2 0 011.6-.6 2 2 0 011.5.6c.3.3.5.8.5 1.5v.3zm13 5.9v-2h-3c-.4 0-.7-.1-.9-.3-.2-.2-.3-.5-.3-.9V179h-5.4v2h3.2v7.8c0 1 .2 1.8.8 2.4.6.5 1.4.8 2.4.8h3.1z"/>
    <path fill="#3D4251" fill-rule="nonzero" d="M694.7 206.3c2.1 0 4-.4 5.5-1 1.6-.8 2.9-1.8 4-3l-2-2.1a1 1 0 00-1.1-.2l-.4.2a8 8 0 01-2.5 1.5l-1.4.4H695c-1.1 0-2.2-.1-3.1-.5-1-.5-1.8-1-2.5-1.8a8.6 8.6 0 01-1.7-3c-.4-1-.6-2.4-.6-3.8s.2-2.7.6-3.8c.4-1.2 1-2.1 1.7-3 .8-.7 1.6-1.3 2.7-1.8 1-.4 2.1-.6 3.3-.6a8.7 8.7 0 015.4 1.7c.3.3.6.4.8.4l.7-.2.3-.4 1.7-2.2a11.8 11.8 0 00-8.8-3.4c-2 0-3.8.3-5.5 1a12.4 12.4 0 00-7 7c-.6 1.5-.9 3.3-.9 5.3s.3 3.7.9 5.3a11.5 11.5 0 006.5 7c1.5.7 3.2 1 5.2 1zm20.7 0c1.4 0 2.6-.3 3.8-.7a8 8 0 004.7-5c.4-1 .6-2.4.6-3.9 0-1.4-.2-2.7-.6-4-.5-1-1-2-1.9-2.9a8 8 0 00-2.8-1.9c-1.2-.4-2.4-.7-3.8-.7s-2.6.3-3.8.7a8.2 8.2 0 00-4.7 4.9c-.4 1.2-.7 2.5-.7 4 0 1.4.3 2.7.7 3.9a8 8 0 004.7 5c1.2.3 2.4.6 3.8.6zm0-3.5c-1.6 0-2.7-.5-3.5-1.5-.7-1-1-2.6-1-4.5 0-2 .3-3.5 1-4.6.8-1 2-1.6 3.5-1.6s2.7.6 3.4 1.6c.7 1 1.1 2.6 1.1 4.6 0 2-.4 3.5-1 4.5-.8 1-2 1.5-3.5 1.5zm17 3.2v-13.5c.5-.6 1-1 1.6-1.3.5-.3 1.1-.5 1.8-.5 1 0 1.7.3 2.2.8.5.6.7 1.5.7 2.7V206h4.5v-11.8c0-.5 0-1 .2-1.5.2-.4.4-.8.7-1a3 3 0 011-.8l1.3-.2c1 0 1.8.3 2.3.9.5.6.8 1.5.8 2.6V206h4.4v-11.8c0-1-.1-2-.4-3a6 6 0 00-1.2-2.1c-.6-.6-1.2-1-2-1.4a8 8 0 00-6.1.3 5.9 5.9 0 00-2.6 2.7c-.3-1-.9-1.9-1.6-2.5-.8-.6-1.7-1-3-1a5.8 5.8 0 00-3.9 1.5l-1 1-.3-1.4c-.1-.5-.5-.8-1.1-.8H728V206h4.4zm30.3 6v-7.5c.6.5 1.3 1 2 1.3a7.3 7.3 0 008.4-2.3c.7-.8 1.3-1.9 1.6-3a14.9 14.9 0 000-7.9 8.8 8.8 0 00-1.3-3 6 6 0 00-5-2.5 7 7 0 00-3.3.9c-1 .5-1.9 1.2-2.6 2l-.4-1.7a1 1 0 00-.4-.6l-.7-.2h-2.7V212h4.4zm3.6-9.1a4.2 4.2 0 01-3.6-1.7V193c.6-.7 1.2-1.2 1.9-1.6a4.5 4.5 0 014-.3c.4.2.8.6 1 1 .4.5.7 1.1.8 1.9a12.3 12.3 0 010 5.5c-.2.8-.5 1.4-.9 2-.4.5-.8.9-1.4 1.1-.5.3-1.1.4-1.8.4zm20.2 3.4c1.4 0 2.7-.3 3.8-.7a8 8 0 004.7-5c.4-1 .6-2.4.6-3.9 0-1.4-.2-2.7-.6-4-.4-1-1-2-1.8-2.9a8 8 0 00-3-1.9 10.2 10.2 0 00-7.5 0 8.2 8.2 0 00-4.7 4.9c-.4 1.2-.6 2.5-.6 4 0 1.4.2 2.7.6 3.9.5 1.2 1 2.2 1.9 3a8 8 0 002.9 1.9c1.1.4 2.4.7 3.7.7zm0-3.5c-1.5 0-2.7-.5-3.4-1.5-.8-1-1.1-2.6-1.1-4.5 0-2 .3-3.5 1-4.6.8-1 2-1.6 3.5-1.6 1.6 0 2.7.6 3.4 1.6.8 1 1.2 2.6 1.2 4.6 0 2-.4 3.5-1.2 4.5-.7 1-1.8 1.5-3.4 1.5zm17 3.2v-13.4l2-1.4c.6-.3 1.4-.5 2.1-.5 1 0 1.9.3 2.4 1 .5.5.8 1.4.8 2.5V206h4.4v-11.8c0-1-.1-2-.4-2.8-.3-.8-.7-1.6-1.2-2.2a5.3 5.3 0 00-2-1.4c-.7-.4-1.6-.6-2.6-.6a7.8 7.8 0 00-3.2.7 8.2 8.2 0 00-2.5 1.9l-.3-1.5c-.2-.5-.6-.8-1.2-.8h-2.7V206h4.5zm24 .3a14.6 14.6 0 004-.7c.6-.2 1.3-.5 1.9-1 .6-.3 1.2-.8 1.6-1.4l-1.3-1.6a1 1 0 00-.3-.3 1 1 0 00-.5 0c-.2 0-.5 0-.8.2a31.8 31.8 0 01-2.4 1c-.5.2-1.2.3-1.9.3-1.4 0-2.6-.4-3.5-1.3-.9-.9-1.4-2.3-1.5-4.2h11.9l.3-.3.2-.5v-.9a10 10 0 00-.6-3.5c-.4-1-1-2-1.6-2.7a7 7 0 00-2.6-1.6 9 9 0 00-3.2-.6c-1.4 0-2.6.3-3.7.8a8.3 8.3 0 00-4.5 4.8c-.5 1.1-.7 2.3-.7 3.6 0 1.6.3 3 .7 4.2a8.9 8.9 0 002 3.1 8 8 0 002.8 2c1.2.4 2.3.6 3.6.6zm3.7-11.7H823c.2-1.3.6-2.3 1.4-3 .7-.8 1.7-1.2 3-1.2.7 0 1.2.1 1.7.4.5.2 1 .5 1.3.9l.7 1.3.2 1.6zm12 11.4v-13.4l2-1.4c.6-.3 1.4-.5 2.1-.5 1 0 1.9.3 2.4 1 .5.5.8 1.4.8 2.5V206h4.4v-11.8c0-1-.1-2-.4-2.8-.3-.8-.7-1.6-1.2-2.2a5.3 5.3 0 00-2-1.4c-.7-.4-1.6-.6-2.6-.6a7.8 7.8 0 00-3.2.7 8.2 8.2 0 00-2.5 1.9l-.3-1.5c-.2-.5-.6-.8-1.2-.8h-2.7V206h4.5zm22.2.3c.9 0 1.7-.2 2.6-.4.8-.3 1.5-.7 2.2-1.3l-1.3-2.1-.3-.3-.3-.1h-.4a6.3 6.3 0 01-.8.5 2 2 0 01-.7.1c-.5 0-.9-.2-1.2-.5a2 2 0 01-.4-1.3v-10h4.9v-3.2h-4.9v-5.8h-2.3a1 1 0 00-.6.2l-.4.5-1 5-2.9.6v1.7c0 .3.1.6.3.7l.6.3h1.9v10.3c0 1.6.4 2.8 1.3 3.7.8 1 2 1.4 3.7 1.4zm9.5 0a2.8 2.8 0 002-.8 2.8 2.8 0 00.5-3 2.7 2.7 0 00-1.4-1.4c-.4-.2-.7-.3-1.1-.3a2.7 2.7 0 00-2 .8l-.5.9a2.8 2.8 0 00.5 3 2.7 2.7 0 002 .8zm10.9 5.7v-7.5a6.6 6.6 0 004.6 1.8 7.3 7.3 0 005.8-2.8c.7-.8 1.2-1.9 1.6-3 .3-1.2.5-2.5.5-3.9 0-1.5-.2-2.8-.5-4a8.8 8.8 0 00-1.4-3 6 6 0 00-5-2.5 7 7 0 00-3.3.9c-1 .5-1.8 1.2-2.6 2l-.3-1.7a1 1 0 00-.4-.6l-.8-.2h-2.7V212h4.5zm3.5-9.1a4.2 4.2 0 01-3.6-1.7V193c.6-.7 1.2-1.2 1.9-1.6a4.5 4.5 0 014-.3c.4.2.8.6 1.1 1 .3.5.6 1.1.8 1.9a12.3 12.3 0 010 5.5l-1 2c-.3.5-.8.9-1.3 1.1-.6.3-1.2.4-1.9.4zm16.8 3.1v-11.5c.5-1 1-1.7 1.7-2.2.7-.6 1.5-.8 2.4-.8l1.2.1.8.1h.4l.3-.5.6-3.4c-.6-.4-1.4-.6-2.3-.6-1.1 0-2.1.3-3 1-.9.6-1.7 1.5-2.3 2.7l-.3-2.3c0-.4-.2-.6-.4-.8-.1-.2-.5-.3-1-.3h-2.5V206h4.4zm18.1.3a14.6 14.6 0 004-.7c.7-.2 1.4-.5 2-1 .6-.3 1.2-.8 1.6-1.4l-1.2-1.6a1 1 0 00-.4-.3 1 1 0 00-.5 0c-.2 0-.5 0-.8.2a31.8 31.8 0 01-2.4 1c-.5.2-1.1.3-1.9.3-1.4 0-2.6-.4-3.5-1.3-.9-.9-1.4-2.3-1.5-4.2h11.9l.3-.3.2-.5v-.9a10 10 0 00-.6-3.5c-.4-1-1-2-1.6-2.7a7 7 0 00-2.6-1.6 9 9 0 00-3.2-.6c-1.4 0-2.6.3-3.7.8a8.3 8.3 0 00-4.5 4.8c-.5 1.1-.7 2.3-.7 3.6 0 1.6.3 3 .7 4.2a8.9 8.9 0 002 3.1 8 8 0 002.9 2c1 .4 2.3.6 3.5.6zm3.8-11.7h-8.3c.2-1.3.6-2.3 1.4-3 .7-.8 1.7-1.2 3-1.2.7 0 1.2.1 1.7.4.5.2 1 .5 1.3.9l.7 1.3.2 1.6zm13.2 11.7a7.5 7.5 0 003.4-.8l1.3-1 1.2-1 .4 1.7c.2.5.5.8 1.1.8h2.7v-26.7H947v9.7a6.4 6.4 0 00-4.6-1.8 7.2 7.2 0 00-5.8 2.7c-.7 1-1.2 2-1.6 3.1a15 15 0 000 7.8c.3 1.2.7 2.2 1.3 3a6.1 6.1 0 005 2.5zm1.5-3.6c-.6 0-1.1 0-1.6-.3-.4-.2-.8-.5-1.2-1-.3-.5-.5-1-.7-1.8a12.3 12.3 0 010-5.6c.3-.7.5-1.4 1-2 .3-.4.8-.8 1.3-1 .6-.3 1.2-.4 1.8-.4a4.4 4.4 0 013.6 1.7v8.2a7 7 0 01-1.8 1.7c-.7.4-1.5.5-2.4.5zm16-17.8c.4 0 .7 0 1-.2a3 3 0 001.6-1.5c.2-.3.2-.7.2-1 0-.4 0-.8-.2-1.2a2.9 2.9 0 00-2.6-1.7c-.4 0-.8 0-1.1.2a2.9 2.9 0 00-1.5 1.5 2.8 2.8 0 001.5 3.7c.3.2.7.2 1 .2zm2.2 21.1v-18.5h-4.5V206h4.5zm12 .3a13.6 13.6 0 004-.7 8.7 8.7 0 003.3-2.4l-1.2-1.6a.9.9 0 00-.9-.4c-.2 0-.5.1-.7.3l-.8.5c-.3.3-.7.5-1 .6-.5.2-1.1.3-1.8.3s-1.4-.1-2-.4a4 4 0 01-1.4-1.2c-.4-.5-.7-1.2-.9-2a10 10 0 01-.3-2.6c0-1 .1-1.8.3-2.5.2-.8.5-1.4.9-2 .4-.5.9-.9 1.4-1.1.6-.3 1.3-.5 2.1-.5a5 5 0 012.6.7l.8.5.6.2c.3 0 .5 0 .6-.2l.4-.4 1.2-1.6a8.9 8.9 0 00-2.8-1.9c-1-.4-2.3-.7-3.7-.7-1.4 0-2.7.3-3.8.8a7.9 7.9 0 00-4.6 5c-.3 1.1-.5 2.4-.5 3.7 0 1.5.2 2.9.6 4a9 9 0 001.8 3c.8.9 1.6 1.5 2.6 2 1 .4 2.1.6 3.3.6zm16.2 0c1 0 1.8-.2 2.7-.4.8-.3 1.5-.7 2.2-1.3l-1.3-2.1-.3-.3-.3-.1h-.4a6.3 6.3 0 01-.8.5 2 2 0 01-.7.1c-.5 0-.9-.2-1.2-.5a2 2 0 01-.4-1.3v-10h4.9v-3.2h-4.9v-5.8h-2.3a1 1 0 00-.7.2l-.3.5-1 5-2.9.6v1.7c0 .3 0 .6.3.7.1.2.3.3.6.3h1.9v10.3c0 1.6.4 2.8 1.3 3.7.8 1 2 1.4 3.6 1.4zM1303.7 202.3c2.1 0 4-.4 5.5-1 1.6-.8 2.9-1.8 4-3l-2-2.1a1 1 0 00-1.1-.2l-.4.2a8 8 0 01-2.5 1.5l-1.4.4h-1.8c-1.1 0-2.2-.1-3.1-.5-1-.5-1.8-1-2.5-1.8a8.6 8.6 0 01-1.7-3c-.4-1-.6-2.4-.6-3.8s.2-2.7.6-3.8c.4-1.2 1-2.1 1.7-3 .8-.7 1.6-1.3 2.7-1.8 1-.4 2.1-.6 3.3-.6a8.7 8.7 0 015.4 1.7c.3.3.6.4.8.4l.7-.2.3-.4 1.7-2.2a11.8 11.8 0 00-8.8-3.4c-2 0-3.8.3-5.5 1a12.4 12.4 0 00-7 7c-.6 1.5-.9 3.3-.9 5.3s.3 3.7.9 5.3a11.5 11.5 0 006.5 7c1.5.7 3.2 1 5.2 1zm20.7 0c1.4 0 2.6-.3 3.8-.7a8 8 0 004.7-5c.4-1 .6-2.4.6-3.9 0-1.4-.2-2.7-.6-4-.5-1-1-2-1.9-2.9a8 8 0 00-2.8-1.9c-1.2-.4-2.4-.7-3.8-.7s-2.6.3-3.8.7a8.2 8.2 0 00-4.7 4.9c-.4 1.2-.7 2.5-.7 4 0 1.4.3 2.7.7 3.9a8 8 0 004.7 5c1.2.3 2.4.6 3.8.6zm0-3.5c-1.6 0-2.7-.5-3.5-1.5-.7-1-1-2.6-1-4.5 0-2 .3-3.5 1-4.6.8-1 2-1.6 3.5-1.6s2.7.6 3.4 1.6c.7 1 1.1 2.6 1.1 4.6 0 2-.4 3.5-1 4.5-.8 1-2 1.5-3.5 1.5zm17 3.2v-13.5c.5-.6 1-1 1.6-1.3.5-.3 1.1-.5 1.8-.5 1 0 1.7.3 2.2.8.5.6.7 1.5.7 2.7V202h4.5v-11.8c0-.5 0-1 .2-1.5.2-.4.4-.8.7-1a3 3 0 011-.8l1.3-.2c1 0 1.8.3 2.3.9.5.6.8 1.5.8 2.6V202h4.4v-11.8c0-1-.1-2-.4-3a6 6 0 00-1.2-2.1c-.6-.6-1.2-1-2-1.4a8 8 0 00-6.1.3 5.9 5.9 0 00-2.6 2.7c-.3-1-.9-1.9-1.6-2.5-.8-.6-1.7-1-3-1a5.8 5.8 0 00-3.9 1.5l-1 1-.3-1.4c-.1-.5-.5-.8-1.1-.8h-2.7V202h4.4zm30.3 6v-7.5c.6.5 1.3 1 2 1.3a7.3 7.3 0 008.4-2.3c.7-.8 1.3-1.9 1.6-3a14.9 14.9 0 000-7.9 8.8 8.8 0 00-1.3-3 6 6 0 00-5-2.5 7 7 0 00-3.3.9c-1 .5-1.9 1.2-2.6 2l-.4-1.7a1 1 0 00-.4-.6l-.7-.2h-2.7V208h4.4zm3.6-9.1a4.2 4.2 0 01-3.6-1.7V189c.6-.7 1.2-1.2 1.9-1.6a4.5 4.5 0 014-.3c.4.2.8.6 1 1 .4.5.7 1.1.8 1.9a12.3 12.3 0 010 5.5c-.2.8-.5 1.4-.9 2-.4.5-.8.9-1.4 1.1-.5.3-1.1.4-1.8.4zm20.2 3.4c1.4 0 2.7-.3 3.8-.7a8 8 0 004.7-5c.4-1 .6-2.4.6-3.9 0-1.4-.2-2.7-.6-4-.4-1-1-2-1.8-2.9a8 8 0 00-3-1.9 10.2 10.2 0 00-7.5 0 8.2 8.2 0 00-4.7 4.9c-.4 1.2-.6 2.5-.6 4 0 1.4.2 2.7.6 3.9.5 1.2 1 2.2 1.9 3a8 8 0 002.9 1.9c1.1.4 2.4.7 3.7.7zm0-3.5c-1.5 0-2.7-.5-3.4-1.5-.8-1-1.1-2.6-1.1-4.5 0-2 .3-3.5 1-4.6.8-1 2-1.6 3.5-1.6 1.6 0 2.7.6 3.4 1.6.8 1 1.2 2.6 1.2 4.6 0 2-.4 3.5-1.2 4.5-.7 1-1.8 1.5-3.4 1.5zm17 3.2v-13.4l2-1.4c.6-.3 1.4-.5 2.1-.5 1 0 1.9.3 2.4 1 .5.5.8 1.4.8 2.5V202h4.4v-11.8c0-1-.1-2-.4-2.8-.3-.8-.7-1.6-1.2-2.2a5.3 5.3 0 00-2-1.4c-.7-.4-1.6-.6-2.6-.6a7.8 7.8 0 00-3.2.7 8.2 8.2 0 00-2.5 1.9l-.3-1.5c-.2-.5-.6-.8-1.2-.8h-2.7V202h4.5zm24 .3a14.6 14.6 0 004-.7c.6-.2 1.3-.5 1.9-1 .6-.3 1.2-.8 1.6-1.4l-1.3-1.6a1 1 0 00-.3-.3 1 1 0 00-.5 0c-.2 0-.5 0-.8.2a31.8 31.8 0 01-2.4 1c-.5.2-1.2.3-1.9.3-1.4 0-2.6-.4-3.5-1.3-.9-.9-1.4-2.3-1.5-4.2h11.9l.3-.3.2-.5v-.9a10 10 0 00-.6-3.5c-.4-1-1-2-1.6-2.7a7 7 0 00-2.6-1.6 9 9 0 00-3.2-.6c-1.4 0-2.6.3-3.7.8a8.3 8.3 0 00-4.5 4.8c-.5 1.1-.7 2.3-.7 3.6 0 1.6.3 3 .7 4.2a8.9 8.9 0 002 3.1 8 8 0 002.8 2c1.2.4 2.3.6 3.6.6zm3.7-11.7h-8.3c.2-1.3.6-2.3 1.4-3 .7-.8 1.7-1.2 3-1.2.7 0 1.2.1 1.7.4.5.2 1 .5 1.3.9l.7 1.3.2 1.6zm12 11.4v-13.4l2-1.4c.6-.3 1.4-.5 2.1-.5 1 0 1.9.3 2.4 1 .5.5.8 1.4.8 2.5V202h4.4v-11.8c0-1-.1-2-.4-2.8-.3-.8-.7-1.6-1.2-2.2a5.3 5.3 0 00-2-1.4c-.7-.4-1.6-.6-2.6-.6a7.8 7.8 0 00-3.2.7 8.2 8.2 0 00-2.5 1.9l-.3-1.5c-.2-.5-.6-.8-1.2-.8h-2.7V202h4.5zm22.2.3c.9 0 1.7-.2 2.6-.4.8-.3 1.5-.7 2.2-1.3l-1.3-2.1-.3-.3-.3-.1h-.4a6.3 6.3 0 01-.8.5 2 2 0 01-.7.1c-.5 0-.9-.2-1.2-.5a2 2 0 01-.4-1.3v-10h4.9v-3.2h-4.9v-5.8h-2.3a1 1 0 00-.6.2l-.4.5-1 5-2.9.6v1.7c0 .3.1.6.3.7l.6.3h1.9v10.3c0 1.6.4 2.8 1.3 3.7.8 1 2 1.4 3.7 1.4zm9.5 0a2.8 2.8 0 002-.8 2.8 2.8 0 00.5-3 2.7 2.7 0 00-1.4-1.4c-.4-.2-.7-.3-1.1-.3a2.7 2.7 0 00-2 .8l-.5.9a2.8 2.8 0 00.5 3 2.7 2.7 0 002 .8zm18.2 5v-2.9H1488v2.9h14.2zm14.2 0v-2.9h-14.2v2.9h14.2zm9.4-5a13.6 13.6 0 004-.7 8.7 8.7 0 003.3-2.4l-1.3-1.6a.9.9 0 00-.8-.4c-.2 0-.5.1-.7.3l-.8.5c-.3.3-.7.5-1.1.6-.4.2-1 .3-1.7.3s-1.4-.1-2-.4a4 4 0 01-1.4-1.2c-.4-.5-.7-1.2-.9-2a10 10 0 01-.3-2.6c0-1 .1-1.8.3-2.5.2-.8.5-1.4.9-2 .4-.5.8-.9 1.4-1.1a5 5 0 014.7.3c.3 0 .5.2.8.4l.6.2c.3 0 .5 0 .6-.2l.4-.4 1.1-1.6a8.9 8.9 0 00-2.8-1.9c-1-.4-2.2-.7-3.6-.7s-2.7.3-3.8.8a7.9 7.9 0 00-4.6 5c-.4 1.1-.6 2.4-.6 3.7 0 1.5.3 2.9.7 4a9 9 0 001.8 3c.7.9 1.6 1.5 2.6 2 1 .4 2.1.6 3.2.6zm14.6 0c.7 0 1.3 0 1.8-.2a7.1 7.1 0 003-1.3l1.3-1 .4 1.2c.1.4.3.7.5.8l1 .2h2v-11.7c0-1-.1-2-.4-2.8-.3-1-.8-1.7-1.4-2.3a6.1 6.1 0 00-2.1-1.5 11 11 0 00-10.6 2.4l.8 1.4.5.6c.3.2.5.2.8.2.4 0 .7 0 1-.2a45.7 45.7 0 002.2-1.1c.5-.2 1.1-.3 1.8-.3 1 0 1.8.3 2.3.9.5.6.8 1.5.8 2.7v1.1a24 24 0 00-5.3.6c-1.4.4-2.5.8-3.4 1.4-.8.5-1.4 1.1-1.8 1.8-.4.7-.6 1.4-.6 2 0 1 .2 1.6.4 2.3a4.3 4.3 0 002.8 2.5 7 7 0 002.2.3zm1.4-3a3 3 0 01-1.8-.6c-.5-.3-.7-.9-.7-1.6 0-.4.1-.8.3-1.1.2-.4.6-.7 1.2-1l2-.6 3.3-.3v3.1a9 9 0 01-1 .9c-.3.2-.6.5-1 .6l-1 .4-1.3.1zm17.7 2.7v-26.7h-4.4V202h4.4zm9.8 0v-26.7h-4.4V202h4.4zm16.8 5.3v-2.9h-14.2v2.9h14.2zm14.2 0v-2.9H1586v2.9h14.2zM1303.7 286.3c2.1 0 4-.4 5.5-1 1.6-.8 2.9-1.8 4-3l-2-2.1a1 1 0 00-1.1-.2l-.4.2a8 8 0 01-2.5 1.5l-1.4.4h-1.8c-1.1 0-2.2-.1-3.1-.5-1-.5-1.8-1-2.5-1.8a8.6 8.6 0 01-1.7-3c-.4-1-.6-2.4-.6-3.8s.2-2.7.6-3.8c.4-1.2 1-2.1 1.7-3 .8-.7 1.6-1.3 2.7-1.8 1-.4 2.1-.6 3.3-.6a8.7 8.7 0 015.4 1.7c.3.3.6.4.8.4l.7-.2.3-.4 1.7-2.2a11.8 11.8 0 00-8.8-3.4c-2 0-3.8.3-5.5 1a12.4 12.4 0 00-7 7c-.6 1.5-.9 3.3-.9 5.3s.3 3.7.9 5.3a11.5 11.5 0 006.5 7c1.5.7 3.2 1 5.2 1zm20.7 0c1.4 0 2.6-.3 3.8-.7a8 8 0 004.7-5c.4-1 .6-2.4.6-3.9 0-1.4-.2-2.7-.6-4-.5-1-1-2-1.9-2.9a8 8 0 00-2.8-1.9c-1.2-.4-2.4-.7-3.8-.7s-2.6.3-3.8.7a8.2 8.2 0 00-4.7 4.9c-.4 1.2-.7 2.5-.7 4 0 1.4.3 2.7.7 3.9a8 8 0 004.7 5c1.2.3 2.4.6 3.8.6zm0-3.4c-1.6 0-2.7-.6-3.5-1.6-.7-1-1-2.6-1-4.5 0-2 .3-3.5 1-4.6.8-1 2-1.6 3.5-1.6s2.7.6 3.4 1.6c.7 1 1.1 2.6 1.1 4.6 0 2-.4 3.5-1 4.5-.8 1-2 1.6-3.5 1.6zm17 3.1v-13.5c.5-.6 1-1 1.6-1.3.5-.3 1.1-.5 1.8-.5 1 0 1.7.3 2.2.8.5.6.7 1.5.7 2.7V286h4.5v-11.8c0-.5 0-1 .2-1.5.2-.4.4-.8.7-1a3 3 0 011-.8l1.3-.2c1 0 1.8.3 2.3.9.5.6.8 1.5.8 2.6V286h4.4v-11.8c0-1-.1-2-.4-3a6 6 0 00-1.2-2.1c-.6-.6-1.2-1-2-1.4a8 8 0 00-6.1.3 5.9 5.9 0 00-2.6 2.7c-.3-1-.9-1.9-1.6-2.5-.8-.6-1.7-1-3-1a5.8 5.8 0 00-3.9 1.5l-1 1-.3-1.4c-.1-.5-.5-.8-1.1-.8h-2.7V286h4.4zm30.3 6v-7.5c.6.5 1.3 1 2 1.3a7.3 7.3 0 008.4-2.3c.7-.8 1.3-1.9 1.6-3a14.9 14.9 0 000-7.9 8.8 8.8 0 00-1.3-3 6 6 0 00-5-2.5 7 7 0 00-3.3.9c-1 .5-1.9 1.2-2.6 2l-.4-1.7a1 1 0 00-.4-.6l-.7-.2h-2.7V292h4.4zm3.6-9.1a4.2 4.2 0 01-3.6-1.7V273c.6-.7 1.2-1.2 1.9-1.6a4.5 4.5 0 014-.3c.4.2.8.6 1 1 .4.5.7 1.1.8 1.9a12.3 12.3 0 010 5.5c-.2.8-.5 1.4-.9 2-.4.5-.8.9-1.4 1.1-.5.3-1.1.4-1.8.4zm20.2 3.4c1.4 0 2.7-.3 3.8-.7a8 8 0 004.7-5c.4-1 .6-2.4.6-3.9 0-1.4-.2-2.7-.6-4-.4-1-1-2-1.8-2.9a8 8 0 00-3-1.9 10.2 10.2 0 00-7.5 0 8.2 8.2 0 00-4.7 4.9c-.4 1.2-.6 2.5-.6 4 0 1.4.2 2.7.6 3.9.5 1.2 1 2.2 1.9 3a8 8 0 002.9 1.9c1.1.4 2.4.7 3.7.7zm0-3.4c-1.5 0-2.7-.6-3.4-1.6-.8-1-1.1-2.6-1.1-4.5 0-2 .3-3.5 1-4.6.8-1 2-1.6 3.5-1.6 1.6 0 2.7.6 3.4 1.6.8 1 1.2 2.6 1.2 4.6 0 2-.4 3.5-1.2 4.5-.7 1-1.8 1.6-3.4 1.6zm17 3.1v-13.4l2-1.4c.6-.3 1.4-.5 2.1-.5 1 0 1.9.3 2.4 1 .5.5.8 1.4.8 2.5V286h4.4v-11.8c0-1-.1-2-.4-2.8-.3-.8-.7-1.6-1.2-2.2a5.3 5.3 0 00-2-1.4c-.7-.4-1.6-.6-2.6-.6a7.8 7.8 0 00-3.2.7 8.2 8.2 0 00-2.5 1.9l-.3-1.5c-.2-.5-.6-.8-1.2-.8h-2.7V286h4.5zm24 .3a14.6 14.6 0 004-.7c.6-.2 1.3-.5 1.9-1 .6-.3 1.2-.8 1.6-1.4l-1.3-1.6a1 1 0 00-.3-.3 1 1 0 00-.5 0c-.2 0-.5 0-.8.2a31.8 31.8 0 01-2.4 1c-.5.2-1.2.3-1.9.3-1.4 0-2.6-.4-3.5-1.3-.9-.9-1.4-2.3-1.5-4.2h11.9l.3-.3.2-.5v-.9a10 10 0 00-.6-3.5c-.4-1-1-2-1.6-2.7a7 7 0 00-2.6-1.6 9 9 0 00-3.2-.6c-1.4 0-2.6.3-3.7.8a8.3 8.3 0 00-4.5 4.8c-.5 1.1-.7 2.3-.7 3.6 0 1.6.3 3 .7 4.2a8.9 8.9 0 002 3.1 8 8 0 002.8 2c1.2.4 2.3.6 3.6.6zm3.7-11.7h-8.3c.2-1.3.6-2.3 1.4-3 .7-.8 1.7-1.2 3-1.2.7 0 1.2.1 1.7.4.5.2 1 .5 1.3.9l.7 1.3.2 1.6zm12 11.4v-13.4l2-1.4c.6-.3 1.4-.5 2.1-.5 1 0 1.9.3 2.4 1 .5.5.8 1.4.8 2.5V286h4.4v-11.8c0-1-.1-2-.4-2.8-.3-.8-.7-1.6-1.2-2.2a5.3 5.3 0 00-2-1.4c-.7-.4-1.6-.6-2.6-.6a7.8 7.8 0 00-3.2.7 8.2 8.2 0 00-2.5 1.9l-.3-1.5c-.2-.5-.6-.8-1.2-.8h-2.7V286h4.5zm22.2.3c.9 0 1.7-.2 2.6-.4.8-.3 1.5-.7 2.2-1.3l-1.3-2.1-.3-.3-.3-.1h-.4a6.3 6.3 0 01-.8.5 2 2 0 01-.7.1c-.5 0-.9-.2-1.2-.5a2 2 0 01-.4-1.3v-10h4.9v-3.2h-4.9v-5.8h-2.3a1 1 0 00-.6.2l-.4.5-1 5-2.9.6v1.7c0 .3.1.6.3.7l.6.3h1.9v10.3c0 1.6.4 2.8 1.3 3.7.8 1 2 1.4 3.7 1.4zm9.5 0a2.8 2.8 0 002-.8 2.8 2.8 0 00.5-3 2.7 2.7 0 00-1.4-1.4c-.4-.2-.7-.3-1.1-.3a2.7 2.7 0 00-2 .8l-.5.9a2.8 2.8 0 00.5 3 2.7 2.7 0 002 .8zm10.9 5.7v-7.5a6.6 6.6 0 004.6 1.8 7.3 7.3 0 005.8-2.8c.7-.8 1.2-1.9 1.6-3 .3-1.2.5-2.5.5-3.9 0-1.5-.2-2.8-.5-4a8.8 8.8 0 00-1.4-3 6 6 0 00-5-2.5 7 7 0 00-3.3.9c-1 .5-1.8 1.2-2.6 2l-.3-1.7a1 1 0 00-.4-.6l-.8-.2h-2.7V292h4.5zm3.5-9.1a4.2 4.2 0 01-3.6-1.7V273c.6-.7 1.2-1.2 1.9-1.6a4.5 4.5 0 014-.3c.4.2.8.6 1.1 1 .3.5.6 1.1.8 1.9a12.3 12.3 0 010 5.5l-1 2c-.3.5-.8.9-1.3 1.1-.6.3-1.2.4-1.9.4zm14.9-18c.4 0 .8 0 1.1-.2a3 3 0 001.5-1.5c.2-.3.3-.7.3-1l-.3-1.2a2.9 2.9 0 00-2.6-1.7c-.4 0-.7 0-1 .2a2.9 2.9 0 00-1.6 1.5 2.8 2.8 0 001.5 3.7c.4.2.7.2 1.1.2zm2.2 21.1v-18.5h-4.4V286h4.4zm9.5 6v-7.5c.6.5 1.2 1 2 1.3a7.3 7.3 0 008.4-2.3c.7-.8 1.2-1.9 1.6-3 .3-1.2.5-2.5.5-3.9 0-1.5-.1-2.8-.5-4a8.8 8.8 0 00-1.4-3 6 6 0 00-5-2.5 7 7 0 00-3.3.9c-1 .5-1.8 1.2-2.6 2l-.3-1.7a1 1 0 00-.4-.6l-.7-.2h-2.8V292h4.5zm3.5-9.1a4.2 4.2 0 01-3.6-1.7V273c.6-.7 1.3-1.2 2-1.6a4.5 4.5 0 013.9-.3c.4.2.8.6 1.1 1 .4.5.6 1.1.8 1.9a12.3 12.3 0 010 5.5l-1 2c-.3.5-.8.9-1.3 1.1-.6.3-1.2.4-1.9.4zm20.2 3.4a14.6 14.6 0 004-.7c.7-.2 1.4-.5 2-1 .6-.3 1.2-.8 1.7-1.4l-1.3-1.6a1 1 0 00-.4-.3 1 1 0 00-.4 0c-.3 0-.6 0-.9.2a31.8 31.8 0 01-2.4 1c-.5.2-1.1.3-1.9.3-1.4 0-2.6-.4-3.5-1.3-.9-.9-1.4-2.3-1.5-4.2h11.9l.3-.3.2-.5v-.9a10 10 0 00-.6-3.5c-.4-1-1-2-1.6-2.7a7 7 0 00-2.6-1.6 9 9 0 00-3.2-.6c-1.4 0-2.6.3-3.7.8a8.3 8.3 0 00-4.5 4.8 12 12 0 000 7.8 8.9 8.9 0 002 3.1 8 8 0 002.9 2c1 .4 2.3.6 3.5.6zm3.8-11.7h-8.3c.2-1.3.6-2.3 1.4-3 .7-.8 1.7-1.2 3-1.2.7 0 1.3.1 1.7.4.5.2 1 .5 1.3.9l.7 1.3.2 1.6zM694.7 290.3c2.1 0 4-.4 5.5-1 1.6-.8 2.9-1.8 4-3l-2-2.1a1 1 0 00-1.1-.2l-.4.2a8 8 0 01-2.5 1.5l-1.4.4H695c-1.1 0-2.2-.1-3.1-.5-1-.5-1.8-1-2.5-1.8a8.6 8.6 0 01-1.7-3c-.4-1-.6-2.4-.6-3.8s.2-2.7.6-3.8c.4-1.2 1-2.1 1.7-3 .8-.7 1.6-1.3 2.7-1.8 1-.4 2.1-.6 3.3-.6a8.7 8.7 0 015.4 1.7c.3.3.6.4.8.4l.7-.2.3-.4 1.7-2.2a11.8 11.8 0 00-8.8-3.4c-2 0-3.8.3-5.5 1a12.4 12.4 0 00-7 7c-.6 1.5-.9 3.3-.9 5.3s.3 3.7.9 5.3a11.5 11.5 0 006.5 7c1.5.7 3.2 1 5.2 1zm20.7 0c1.4 0 2.6-.3 3.8-.7a8 8 0 004.7-5c.4-1 .6-2.4.6-3.9 0-1.4-.2-2.7-.6-4-.5-1-1-2-1.9-2.9a8 8 0 00-2.8-1.9c-1.2-.4-2.4-.7-3.8-.7s-2.6.3-3.8.7a8.2 8.2 0 00-4.7 4.9c-.4 1.2-.7 2.5-.7 4 0 1.4.3 2.7.7 3.9a8 8 0 004.7 5c1.2.3 2.4.6 3.8.6zm0-3.4c-1.6 0-2.7-.6-3.5-1.6-.7-1-1-2.6-1-4.5 0-2 .3-3.5 1-4.6.8-1 2-1.6 3.5-1.6s2.7.6 3.4 1.6c.7 1 1.1 2.6 1.1 4.6 0 2-.4 3.5-1 4.5-.8 1-2 1.6-3.5 1.6zm17 3.1v-13.5c.5-.6 1-1 1.6-1.3.5-.3 1.1-.5 1.8-.5 1 0 1.7.3 2.2.8.5.6.7 1.5.7 2.7V290h4.5v-11.8c0-.5 0-1 .2-1.5.2-.4.4-.8.7-1a3 3 0 011-.8l1.3-.2c1 0 1.8.3 2.3.9.5.6.8 1.5.8 2.6V290h4.4v-11.8c0-1-.1-2-.4-3a6 6 0 00-1.2-2.1c-.6-.6-1.2-1-2-1.4a8 8 0 00-6.1.3 5.9 5.9 0 00-2.6 2.7c-.3-1-.9-1.9-1.6-2.5-.8-.6-1.7-1-3-1a5.8 5.8 0 00-3.9 1.5l-1 1-.3-1.4c-.1-.5-.5-.8-1.1-.8H728V290h4.4zm30.3 6v-7.5c.6.5 1.3 1 2 1.3a7.3 7.3 0 008.4-2.3c.7-.8 1.3-1.9 1.6-3a14.9 14.9 0 000-7.9 8.8 8.8 0 00-1.3-3 6 6 0 00-5-2.5 7 7 0 00-3.3.9c-1 .5-1.9 1.2-2.6 2l-.4-1.7a1 1 0 00-.4-.6l-.7-.2h-2.7V296h4.4zm3.6-9.1a4.2 4.2 0 01-3.6-1.7V277c.6-.7 1.2-1.2 1.9-1.6a4.5 4.5 0 014-.3c.4.2.8.6 1 1 .4.5.7 1.1.8 1.9a12.3 12.3 0 010 5.5c-.2.8-.5 1.4-.9 2-.4.5-.8.9-1.4 1.1-.5.3-1.1.4-1.8.4zm20.2 3.4c1.4 0 2.7-.3 3.8-.7a8 8 0 004.7-5c.4-1 .6-2.4.6-3.9 0-1.4-.2-2.7-.6-4-.4-1-1-2-1.8-2.9a8 8 0 00-3-1.9 10.2 10.2 0 00-7.5 0 8.2 8.2 0 00-4.7 4.9c-.4 1.2-.6 2.5-.6 4 0 1.4.2 2.7.6 3.9.5 1.2 1 2.2 1.9 3a8 8 0 002.9 1.9c1.1.4 2.4.7 3.7.7zm0-3.4c-1.5 0-2.7-.6-3.4-1.6-.8-1-1.1-2.6-1.1-4.5 0-2 .3-3.5 1-4.6.8-1 2-1.6 3.5-1.6 1.6 0 2.7.6 3.4 1.6.8 1 1.2 2.6 1.2 4.6 0 2-.4 3.5-1.2 4.5-.7 1-1.8 1.6-3.4 1.6zm17 3.1v-13.4l2-1.4c.6-.3 1.4-.5 2.1-.5 1 0 1.9.3 2.4 1 .5.5.8 1.4.8 2.5V290h4.4v-11.8c0-1-.1-2-.4-2.8-.3-.8-.7-1.6-1.2-2.2a5.3 5.3 0 00-2-1.4c-.7-.4-1.6-.6-2.6-.6a7.8 7.8 0 00-3.2.7 8.2 8.2 0 00-2.5 1.9l-.3-1.5c-.2-.5-.6-.8-1.2-.8h-2.7V290h4.5zm24 .3a14.6 14.6 0 004-.7c.6-.2 1.3-.5 1.9-1 .6-.3 1.2-.8 1.6-1.4l-1.3-1.6a1 1 0 00-.3-.3 1 1 0 00-.5 0c-.2 0-.5 0-.8.2a31.8 31.8 0 01-2.4 1c-.5.2-1.2.3-1.9.3-1.4 0-2.6-.4-3.5-1.3-.9-.9-1.4-2.3-1.5-4.2h11.9l.3-.3.2-.5v-.9a10 10 0 00-.6-3.5c-.4-1-1-2-1.6-2.7a7 7 0 00-2.6-1.6 9 9 0 00-3.2-.6c-1.4 0-2.6.3-3.7.8a8.3 8.3 0 00-4.5 4.8c-.5 1.1-.7 2.3-.7 3.6 0 1.6.3 3 .7 4.2a8.9 8.9 0 002 3.1 8 8 0 002.8 2c1.2.4 2.3.6 3.6.6zm3.7-11.7H823c.2-1.3.6-2.3 1.4-3 .7-.8 1.7-1.2 3-1.2.7 0 1.2.1 1.7.4.5.2 1 .5 1.3.9l.7 1.3.2 1.6zm12 11.4v-13.4l2-1.4c.6-.3 1.4-.5 2.1-.5 1 0 1.9.3 2.4 1 .5.5.8 1.4.8 2.5V290h4.4v-11.8c0-1-.1-2-.4-2.8-.3-.8-.7-1.6-1.2-2.2a5.3 5.3 0 00-2-1.4c-.7-.4-1.6-.6-2.6-.6a7.8 7.8 0 00-3.2.7 8.2 8.2 0 00-2.5 1.9l-.3-1.5c-.2-.5-.6-.8-1.2-.8h-2.7V290h4.5zm22.2.3c.9 0 1.7-.2 2.6-.4.8-.3 1.5-.7 2.2-1.3l-1.3-2.1-.3-.3-.3-.1h-.4a6.3 6.3 0 01-.8.5 2 2 0 01-.7.1c-.5 0-.9-.2-1.2-.5a2 2 0 01-.4-1.3v-10h4.9v-3.2h-4.9v-5.8h-2.3a1 1 0 00-.6.2l-.4.5-1 5-2.9.6v1.7c0 .3.1.6.3.7l.6.3h1.9v10.3c0 1.6.4 2.8 1.3 3.7.8 1 2 1.4 3.7 1.4zm9.5 0a2.8 2.8 0 002-.8 2.8 2.8 0 00.5-3 2.7 2.7 0 00-1.4-1.4c-.4-.2-.7-.3-1.1-.3a2.7 2.7 0 00-2 .8l-.5.9a2.8 2.8 0 00.5 3 2.7 2.7 0 002 .8zm11.2 0a10 10 0 003.2-.5c.9-.3 1.7-.7 2.3-1.2a6.1 6.1 0 002-4.4c-.1-.8-.2-1.4-.5-2-.3-.5-.6-1-1-1.3-.4-.4-1-.7-1.5-1a18 18 0 00-3.3-1.1l-1.4-.6c-.5-.2-.8-.4-1-.7-.3-.3-.4-.6-.4-1 0-.6.2-1 .7-1.5.5-.3 1.2-.5 2-.5a5.3 5.3 0 012.7.6 47.3 47.3 0 011.5.6c.2 0 .4 0 .5-.2l.4-.4 1-1.6a7.8 7.8 0 00-2.6-1.6c-1-.4-2.2-.7-3.5-.7a9 9 0 00-3 .5c-.9.3-1.6.7-2.2 1.2a5 5 0 00-1.8 4c0 .8.2 1.5.4 2 .3.6.6 1.1 1 1.5l1.5 1a15.5 15.5 0 003.4 1.2l1.4.6c.4.2.8.4 1 .7.3.3.4.6.4 1l-.1.9-.6.7c-.2.2-.5.4-1 .5l-1.3.2a5 5 0 01-2.8-.8l-.8-.5-.8-.2c-.3 0-.5 0-.7.2-.2 0-.3.2-.5.4l-1 1.7 1.3 1a9.7 9.7 0 003.2 1.1l2 .2zm18.8 0a14.6 14.6 0 004-.7c.7-.2 1.3-.5 2-1 .6-.3 1.1-.8 1.6-1.4l-1.3-1.6a1 1 0 00-.3-.3 1 1 0 00-.5 0c-.3 0-.6 0-.8.2a31.8 31.8 0 01-2.4 1c-.6.2-1.2.3-1.9.3-1.5 0-2.6-.4-3.5-1.3-1-.9-1.4-2.3-1.6-4.2h12l.3-.3.1-.5v-.9a10 10 0 00-.5-3.5 7 7 0 00-4.2-4.3 9 9 0 00-3.2-.6c-1.4 0-2.6.3-3.7.8a8.3 8.3 0 00-4.6 4.8 12 12 0 000 7.8 8.9 8.9 0 002 3.1 8 8 0 003 2c1 .4 2.2.6 3.5.6zm3.8-11.7h-8.4c.2-1.3.7-2.3 1.4-3 .8-.8 1.8-1.2 3-1.2.7 0 1.3.1 1.8.4.5.2.9.5 1.2.9.4.4.6.8.7 1.3.2.5.3 1 .3 1.6zm13.7 11.7c.9 0 1.7-.2 2.6-.4.8-.3 1.6-.7 2.2-1.3l-1.3-2.1-.3-.3-.3-.1h-.3a6.3 6.3 0 01-.9.5 2 2 0 01-.7.1c-.5 0-.9-.2-1.1-.5a2 2 0 01-.5-1.3v-10h4.9v-3.2h-4.9v-5.8h-2.3a1 1 0 00-.6.2l-.4.5-1 5-2.9.6v1.7c0 .3.1.6.3.7l.6.3h1.9v10.3c0 1.6.4 2.8 1.3 3.7.8 1 2 1.4 3.7 1.4zm19.6 5v-2.9H928v2.9H942zm6.9-5c.6 0 1.2 0 1.8-.2a7.1 7.1 0 002.9-1.3l1.4-1 .4 1.2c0 .4.3.7.5.8l1 .2h2v-11.7c0-1-.2-2-.5-2.8-.3-1-.7-1.7-1.3-2.3a6.1 6.1 0 00-2.2-1.5 11 11 0 00-10.6 2.4l.9 1.4c.1.3.3.4.5.6.2.2.5.2.8.2.3 0 .7 0 1-.2a45.7 45.7 0 002.2-1.1c.5-.2 1-.3 1.8-.3 1 0 1.7.3 2.3.9.5.6.7 1.5.7 2.7v1.1a24 24 0 00-5.2.6c-1.4.4-2.6.8-3.4 1.4a4.3 4.3 0 00-2.4 3.9c0 .8.1 1.5.4 2.2a4.3 4.3 0 002.8 2.5 7 7 0 002.2.3zm1.3-3a3 3 0 01-1.8-.6c-.4-.3-.7-.9-.7-1.6 0-.4.2-.8.4-1.1.2-.4.6-.7 1.1-1l2.1-.6 3.2-.3v3.1a9 9 0 01-1 .9c-.2.2-.6.5-1 .6-.2.2-.6.3-1 .4l-1.3.1zm17.5 2.7v-13.4c.6-.6 1.2-1 2-1.4.6-.3 1.3-.5 2-.5 1.1 0 1.9.3 2.4 1 .5.5.8 1.4.8 2.5V290h4.5v-11.8c0-1-.2-2-.5-2.8a5.3 5.3 0 00-3.1-3.7 7.8 7.8 0 00-5.9.2 8.2 8.2 0 00-2.5 1.9l-.3-1.5c-.2-.5-.5-.8-1.1-.8h-2.7V290h4.4zm20.5 0v-13.4c.6-.6 1.2-1 1.9-1.4.6-.3 1.4-.5 2.1-.5 1 0 1.9.3 2.4 1 .5.5.8 1.4.8 2.5V290h4.4v-11.8c0-1-.1-2-.4-2.8-.3-.8-.7-1.6-1.2-2.2a5.3 5.3 0 00-2-1.4c-.7-.4-1.6-.6-2.6-.6a7.8 7.8 0 00-3.2.7 8.2 8.2 0 00-2.5 1.9l-.3-1.5c-.2-.5-.6-.8-1.2-.8h-2.7V290h4.5zm23.9.3c1.4 0 2.6-.3 3.7-.7a8 8 0 004.7-5c.5-1 .7-2.4.7-3.9 0-1.4-.2-2.7-.7-4-.4-1-1-2-1.8-2.9a8 8 0 00-2.9-1.9 10.2 10.2 0 00-7.5 0 8.2 8.2 0 00-4.7 4.9c-.5 1.2-.7 2.5-.7 4 0 1.4.2 2.7.7 3.9a8 8 0 004.7 5c1.1.3 2.4.6 3.8.6zm0-3.4c-1.6 0-2.7-.6-3.5-1.6-.7-1-1.1-2.6-1.1-4.5 0-2 .4-3.5 1.1-4.6.8-1 2-1.6 3.5-1.6s2.6.6 3.4 1.6c.7 1 1 2.6 1 4.6 0 2-.3 3.5-1 4.5-.8 1-1.9 1.6-3.4 1.6zm18.6 3.4c1 0 1.8-.2 2.6-.4.9-.3 1.6-.7 2.3-1.3l-1.4-2.1-.2-.3-.4-.1h-.3a6.3 6.3 0 01-.8.5 2 2 0 01-.7.1c-.5 0-.9-.2-1.2-.5a2 2 0 01-.4-1.3v-10h4.8v-3.2h-4.8v-5.8h-2.3a1 1 0 00-.7.2c-.2.1-.3.3-.3.5l-1 5-3 .6v1.7c0 .3.2.6.3.7.2.2.4.3.7.3h1.8v10.3c0 1.6.5 2.8 1.3 3.7.9 1 2.1 1.4 3.7 1.4zm12.3 0c.7 0 1.3 0 1.8-.2a7.1 7.1 0 003-1.3l1.3-1 .4 1.2c.2.4.3.7.6.8l1 .2h2v-11.7c0-1-.2-2-.5-2.8-.3-1-.8-1.7-1.3-2.3a6.1 6.1 0 00-2.2-1.5 11 11 0 00-10.6 2.4l.8 1.4.6.6c.2.2.4.2.7.2.4 0 .7 0 1-.2a45.7 45.7 0 002.3-1.1c.4-.2 1-.3 1.8-.3 1 0 1.7.3 2.2.9.6.6.8 1.5.8 2.7v1.1a24 24 0 00-5.3.6c-1.4.4-2.5.8-3.4 1.4-.8.5-1.4 1.1-1.8 1.8-.3.7-.5 1.4-.5 2 0 1 .1 1.6.4 2.3a4.3 4.3 0 002.8 2.5 7 7 0 002.1.3zm1.4-3a3 3 0 01-1.8-.6c-.5-.3-.7-.9-.7-1.6 0-.4.1-.8.4-1.1.2-.4.5-.7 1-1l2.2-.6 3.2-.3v3.1a9 9 0 01-1 .9c-.3.2-.6.5-1 .6l-1 .4-1.3.1zm19.1 3c.9 0 1.8-.2 2.6-.4.9-.3 1.6-.7 2.2-1.3l-1.3-2.1-.3-.3-.3-.1h-.3a6.3 6.3 0 01-.9.5 2 2 0 01-.7.1c-.4 0-.8-.2-1.1-.5a2 2 0 01-.4-1.3v-10h4.8v-3.2h-4.8v-5.8h-2.3a1 1 0 00-.7.2c-.2.1-.3.3-.3.5l-1 5-3 .6v1.7c0 .3.1.6.3.7l.6.3h2v10.3c0 1.6.3 2.8 1.2 3.7.9 1 2.1 1.4 3.7 1.4zm10.4-21.4c.4 0 .8 0 1.1-.2a3 3 0 001.5-1.5c.2-.3.3-.7.3-1l-.3-1.2a2.9 2.9 0 00-2.6-1.7c-.4 0-.8 0-1.1.2a2.9 2.9 0 00-1.5 1.5 2.8 2.8 0 001.5 3.7c.3.2.7.2 1 .2zm2.2 21.1v-18.5h-4.4V290h4.4zm13 .3c1.3 0 2.5-.3 3.7-.7a8 8 0 004.7-5c.4-1 .6-2.4.6-3.9 0-1.4-.2-2.7-.6-4-.5-1-1-2-1.9-2.9a8 8 0 00-2.8-1.9c-1.2-.4-2.4-.7-3.8-.7s-2.6.3-3.8.7a8.2 8.2 0 00-4.7 4.9c-.4 1.2-.7 2.5-.7 4 0 1.4.3 2.7.7 3.9.4 1.2 1 2.2 1.9 3a8 8 0 002.8 1.9c1.2.4 2.4.7 3.8.7zm0-3.4c-1.7 0-2.8-.6-3.5-1.6-.8-1-1.2-2.6-1.2-4.5 0-2 .4-3.5 1.1-4.6.8-1 2-1.6 3.5-1.6s2.7.6 3.4 1.6c.8 1 1.1 2.6 1.1 4.6 0 2-.3 3.5-1 4.5-.8 1-2 1.6-3.5 1.6zm17 3.1v-13.4c.5-.6 1.2-1 1.8-1.4.7-.3 1.4-.5 2.2-.5 1 0 1.8.3 2.4 1 .5.5.7 1.4.7 2.5V290h4.5v-11.8c0-1-.2-2-.4-2.8-.3-.8-.7-1.6-1.2-2.2a5.3 5.3 0 00-2-1.4c-.7-.4-1.6-.6-2.6-.6a7.8 7.8 0 00-3.3.7 8.2 8.2 0 00-2.5 1.9l-.3-1.5c-.1-.5-.5-.8-1-.8h-2.8V290h4.4zm20.7.3a10 10 0 003.2-.5 5.4 5.4 0 003.7-3.2c.4-.7.5-1.6.5-2.5 0-.7-.1-1.3-.4-1.9-.2-.5-.6-1-1-1.3l-1.4-1a18 18 0 00-3.4-1.1l-1.4-.6c-.4-.2-.8-.4-1-.7-.3-.3-.4-.6-.4-1 0-.6.2-1 .7-1.5a5.3 5.3 0 014.6 0 47.3 47.3 0 011.6.7c.2 0 .4 0 .5-.2.2 0 .3-.2.4-.4l1-1.6a7.8 7.8 0 00-2.6-1.6c-1-.4-2.2-.7-3.5-.7a9 9 0 00-3 .5c-.8.3-1.6.7-2.2 1.2a5 5 0 00-1.7 4c0 .8.1 1.5.4 2 .2.6.6 1.1 1 1.5l1.4 1a15.5 15.5 0 003.4 1.2l1.5.6 1 .7c.2.3.4.6.4 1 0 .3 0 .6-.2.9l-.5.7-1 .5-1.3.2a5 5 0 01-2.8-.8c-.4-.1-.7-.3-.9-.5l-.8-.2c-.3 0-.5 0-.7.2-.2 0-.3.2-.4.4l-1 1.7 1.2 1a9.7 9.7 0 003.3 1.1l1.8.2zM694.7 404.3c2.1 0 4-.4 5.5-1 1.6-.8 2.9-1.8 4-3l-2-2.1a1 1 0 00-1.1-.2l-.4.2a8 8 0 01-2.5 1.5l-1.4.4H695c-1.1 0-2.2-.1-3.1-.5-1-.5-1.8-1-2.5-1.8a8.6 8.6 0 01-1.7-3c-.4-1-.6-2.4-.6-3.8s.2-2.7.6-3.8c.4-1.2 1-2.1 1.7-3 .8-.7 1.6-1.3 2.7-1.8 1-.4 2.1-.6 3.3-.6a8.7 8.7 0 015.4 1.7c.3.3.6.4.8.4l.7-.2.3-.4 1.7-2.2a11.8 11.8 0 00-8.8-3.4c-2 0-3.8.3-5.5 1a12.4 12.4 0 00-7 7c-.6 1.5-.9 3.3-.9 5.3s.3 3.7.9 5.3a11.5 11.5 0 006.5 7c1.5.7 3.2 1 5.2 1zm20.7 0c1.4 0 2.6-.3 3.8-.7a8 8 0 004.7-5c.4-1 .6-2.4.6-3.9 0-1.4-.2-2.7-.6-4-.5-1-1-2-1.9-2.9a8 8 0 00-2.8-1.9c-1.2-.4-2.4-.7-3.8-.7s-2.6.3-3.8.7a8.2 8.2 0 00-4.7 4.9c-.4 1.2-.7 2.5-.7 4 0 1.4.3 2.7.7 3.9a8 8 0 004.7 5c1.2.3 2.4.6 3.8.6zm0-3.4c-1.6 0-2.7-.6-3.5-1.6-.7-1-1-2.6-1-4.5 0-2 .3-3.5 1-4.6.8-1 2-1.6 3.5-1.6s2.7.6 3.4 1.6c.7 1 1.1 2.6 1.1 4.6 0 2-.4 3.5-1 4.5-.8 1-2 1.6-3.5 1.6zm17 3.1v-13.5c.5-.6 1-1 1.6-1.3.5-.3 1.1-.5 1.8-.5 1 0 1.7.3 2.2.8.5.6.7 1.5.7 2.7V404h4.5v-11.8c0-.5 0-1 .2-1.5.2-.4.4-.8.7-1a3 3 0 011-.8l1.3-.2c1 0 1.8.3 2.3.9.5.6.8 1.5.8 2.6V404h4.4v-11.8c0-1-.1-2-.4-3a6 6 0 00-1.2-2.1c-.6-.6-1.2-1-2-1.4a8 8 0 00-6.1.3 5.9 5.9 0 00-2.6 2.7c-.3-1-.9-1.9-1.6-2.5-.8-.6-1.7-1-3-1a5.8 5.8 0 00-3.9 1.5l-1 1-.3-1.4c-.1-.5-.5-.8-1.1-.8H728V404h4.4zm30.3 6v-7.5c.6.5 1.3 1 2 1.3a7.3 7.3 0 008.4-2.3c.7-.8 1.3-1.9 1.6-3a14.9 14.9 0 000-7.9 8.8 8.8 0 00-1.3-3 6 6 0 00-5-2.5 7 7 0 00-3.3.9c-1 .5-1.9 1.2-2.6 2l-.4-1.7a1 1 0 00-.4-.6l-.7-.2h-2.7V410h4.4zm3.6-9.1a4.2 4.2 0 01-3.6-1.7V391c.6-.7 1.2-1.2 1.9-1.6a4.5 4.5 0 014-.3c.4.2.8.6 1 1 .4.5.7 1.1.8 1.9a12.3 12.3 0 010 5.5c-.2.8-.5 1.4-.9 2-.4.5-.8.9-1.4 1.1-.5.3-1.1.4-1.8.4zm20.2 3.4c1.4 0 2.7-.3 3.8-.7a8 8 0 004.7-5c.4-1 .6-2.4.6-3.9 0-1.4-.2-2.7-.6-4-.4-1-1-2-1.8-2.9a8 8 0 00-3-1.9 10.2 10.2 0 00-7.5 0 8.2 8.2 0 00-4.7 4.9c-.4 1.2-.6 2.5-.6 4 0 1.4.2 2.7.6 3.9.5 1.2 1 2.2 1.9 3a8 8 0 002.9 1.9c1.1.4 2.4.7 3.7.7zm0-3.4c-1.5 0-2.7-.6-3.4-1.6-.8-1-1.1-2.6-1.1-4.5 0-2 .3-3.5 1-4.6.8-1 2-1.6 3.5-1.6 1.6 0 2.7.6 3.4 1.6.8 1 1.2 2.6 1.2 4.6 0 2-.4 3.5-1.2 4.5-.7 1-1.8 1.6-3.4 1.6zm17 3.1v-13.4l2-1.4c.6-.3 1.4-.5 2.1-.5 1 0 1.9.3 2.4 1 .5.5.8 1.4.8 2.5V404h4.4v-11.8c0-1-.1-2-.4-2.8-.3-.8-.7-1.6-1.2-2.2a5.3 5.3 0 00-2-1.4c-.7-.4-1.6-.6-2.6-.6a7.8 7.8 0 00-3.2.7 8.2 8.2 0 00-2.5 1.9l-.3-1.5c-.2-.5-.6-.8-1.2-.8h-2.7V404h4.5zm24 .3a14.6 14.6 0 004-.7c.6-.2 1.3-.5 1.9-1 .6-.3 1.2-.8 1.6-1.4l-1.3-1.6a1 1 0 00-.3-.3 1 1 0 00-.5 0c-.2 0-.5 0-.8.2a31.8 31.8 0 01-2.4 1c-.5.2-1.2.3-1.9.3-1.4 0-2.6-.4-3.5-1.3-.9-.9-1.4-2.3-1.5-4.2h11.9l.3-.3.2-.5v-.9a10 10 0 00-.6-3.5c-.4-1-1-2-1.6-2.7a7 7 0 00-2.6-1.6 9 9 0 00-3.2-.6c-1.4 0-2.6.3-3.7.8a8.3 8.3 0 00-4.5 4.8c-.5 1.1-.7 2.3-.7 3.6 0 1.6.3 3 .7 4.2a8.9 8.9 0 002 3.1 8 8 0 002.8 2c1.2.4 2.3.6 3.6.6zm3.7-11.7H823c.2-1.3.6-2.3 1.4-3 .7-.8 1.7-1.2 3-1.2.7 0 1.2.1 1.7.4.5.2 1 .5 1.3.9l.7 1.3.2 1.6zm12 11.4v-13.4l2-1.4c.6-.3 1.4-.5 2.1-.5 1 0 1.9.3 2.4 1 .5.5.8 1.4.8 2.5V404h4.4v-11.8c0-1-.1-2-.4-2.8-.3-.8-.7-1.6-1.2-2.2a5.3 5.3 0 00-2-1.4c-.7-.4-1.6-.6-2.6-.6a7.8 7.8 0 00-3.2.7 8.2 8.2 0 00-2.5 1.9l-.3-1.5c-.2-.5-.6-.8-1.2-.8h-2.7V404h4.5zm22.2.3c.9 0 1.7-.2 2.6-.4.8-.3 1.5-.7 2.2-1.3l-1.3-2.1-.3-.3-.3-.1h-.4a6.3 6.3 0 01-.8.5 2 2 0 01-.7.1c-.5 0-.9-.2-1.2-.5a2 2 0 01-.4-1.3v-10h4.9v-3.2h-4.9v-5.8h-2.3a1 1 0 00-.6.2l-.4.5-1 5-2.9.6v1.7c0 .3.1.6.3.7l.6.3h1.9v10.3c0 1.6.4 2.8 1.3 3.7.8 1 2 1.4 3.7 1.4zm9.5 0a2.8 2.8 0 002-.8 2.8 2.8 0 00.5-3 2.7 2.7 0 00-1.4-1.4c-.4-.2-.7-.3-1.1-.3a2.7 2.7 0 00-2 .8l-.5.9a2.8 2.8 0 00.5 3 2.7 2.7 0 002 .8zm9-21.4c.3 0 .7 0 1-.2a3 3 0 001.6-1.5l.2-1c0-.4 0-.8-.2-1.2a2.9 2.9 0 00-2.7-1.7c-.3 0-.7 0-1 .2a2.9 2.9 0 00-1.5 1.5 2.8 2.8 0 001.5 3.7c.3.2.7.2 1 .2zM886 404v-18.5h-4.5V404h4.5zm9.4 0v-13.4c.6-.6 1.3-1 2-1.4.6-.3 1.3-.5 2-.5 1.1 0 2 .3 2.4 1 .6.5.8 1.4.8 2.5V404h4.5v-11.8c0-1-.2-2-.4-2.8-.3-.8-.7-1.6-1.2-2.2a5.3 5.3 0 00-2-1.4c-.8-.4-1.6-.6-2.7-.6a7.8 7.8 0 00-3.2.7 8.2 8.2 0 00-2.5 1.9l-.3-1.5c-.1-.5-.5-.8-1.1-.8h-2.7V404h4.4zm18.6-21c.4 0 .7-.1 1-.3a3 3 0 001.6-1.5c.2-.3.2-.7.2-1 0-.4 0-.8-.2-1.2a2.9 2.9 0 00-2.6-1.7c-.4 0-.8 0-1.1.2a2.9 2.9 0 00-1.5 1.5 2.8 2.8 0 001.5 3.7c.3.2.7.2 1 .2zm2.2 21v-18.5h-4.5V404h4.5zm11 .3c1 0 1.8-.2 2.7-.4.8-.3 1.6-.7 2.2-1.3l-1.3-2.1-.3-.3-.3-.1h-.3a6.3 6.3 0 01-.9.5 2 2 0 01-.7.1c-.5 0-.9-.2-1.1-.5a2 2 0 01-.5-1.3v-10h4.9v-3.2h-4.9v-5.8h-2.3a1 1 0 00-.6.2l-.4.5-.9 5-3 .6v1.7c0 .3.1.6.3.7l.6.3h1.9v10.3c0 1.6.4 2.8 1.3 3.7.8 1 2 1.4 3.7 1.4zm10.5-21.4c.3 0 .7 0 1-.2a3 3 0 001.6-1.5c.2-.3.2-.7.2-1 0-.4 0-.8-.2-1.2a2.9 2.9 0 00-2.6-1.7c-.4 0-.8 0-1.1.2a2.9 2.9 0 00-1.5 1.5 2.8 2.8 0 001.5 3.7c.3.2.7.2 1 .2zM940 404v-18.5h-4.5V404h4.5zm9.4.3c.7 0 1.3 0 1.8-.2a7.1 7.1 0 003-1.3l1.3-1 .4 1.2c.2.4.3.7.6.8l1 .2h2v-11.7c0-1-.2-2-.5-2.8-.3-1-.8-1.7-1.3-2.3a6.1 6.1 0 00-2.2-1.5 11 11 0 00-10.6 2.4l.8 1.4.6.6c.2.2.4.2.7.2.4 0 .7 0 1-.2a45.7 45.7 0 002.3-1.1c.4-.2 1-.3 1.8-.3 1 0 1.7.3 2.2.9.6.6.8 1.5.8 2.7v1.1a24 24 0 00-5.3.6c-1.4.4-2.5.8-3.4 1.4-.8.5-1.4 1.1-1.8 1.8-.3.7-.5 1.4-.5 2 0 1 .1 1.6.4 2.3a4.3 4.3 0 002.8 2.5 7 7 0 002.1.3zm1.4-3a3 3 0 01-1.8-.6c-.5-.3-.7-.9-.7-1.6 0-.4.1-.8.4-1.1.2-.4.5-.7 1-1l2.2-.6 3.2-.3v3.1a9 9 0 01-1 .9c-.3.2-.6.5-1 .6l-1 .4-1.3.1zm17.8 2.7v-26.7H964V404h4.5zm7.5-21c.4 0 .8-.1 1.1-.3a3 3 0 001.6-1.5l.2-1c0-.4 0-.8-.2-1.2a2.9 2.9 0 00-2.7-1.7c-.4 0-.7 0-1 .2a2.9 2.9 0 00-1.6 1.5 2.8 2.8 0 001.5 3.7c.4.2.7.2 1.1.2zm2.2 21v-18.5H974V404h4.4zm18.2 0v-3.4h-9.2l8.8-11.6a3 3 0 00.6-1.6v-1.9h-14v3.4h9l-9 11.7a2.6 2.6 0 00-.5 1.5v1.9h14.3zm11.6.3a14.6 14.6 0 004-.7c.7-.2 1.3-.5 2-1 .6-.3 1.1-.8 1.6-1.4l-1.3-1.6a1 1 0 00-.3-.3 1 1 0 00-.5 0c-.3 0-.6 0-.9.2a31.8 31.8 0 01-2.3 1c-.6.2-1.2.3-2 .3-1.4 0-2.5-.4-3.4-1.3-1-.9-1.4-2.3-1.6-4.2h12l.3-.3.1-.5v-.9a10 10 0 00-.5-3.5 7 7 0 00-4.2-4.3 9 9 0 00-3.2-.6c-1.4 0-2.6.3-3.7.8a8.3 8.3 0 00-4.6 4.8 12 12 0 000 7.8 8.9 8.9 0 002 3.1 8 8 0 003 2c1 .4 2.2.6 3.5.6zm3.8-11.7h-8.4c.2-1.3.7-2.3 1.4-3 .8-.8 1.8-1.2 3-1.2.7 0 1.3.1 1.8.4.5.2.9.5 1.2.9.3.4.6.8.7 1.3.2.5.3 1 .3 1.6zM694.7 95.3c2.1 0 4-.4 5.5-1 1.6-.8 2.9-1.8 4-3l-2-2.1a1 1 0 00-1.1-.2l-.4.2a8 8 0 01-2.5 1.5l-1.4.4H695c-1.1 0-2.2-.1-3.1-.5-1-.5-1.8-1-2.5-1.8a8.6 8.6 0 01-1.7-3c-.4-1-.6-2.3-.6-3.8 0-1.4.2-2.7.6-3.8.4-1.2 1-2.1 1.7-3 .8-.7 1.6-1.3 2.7-1.8 1-.4 2.1-.6 3.3-.6a8.7 8.7 0 015.4 1.7c.3.3.6.4.8.4l.7-.2.3-.4 1.7-2.2a11.8 11.8 0 00-8.8-3.4c-2 0-3.8.3-5.5 1a12.4 12.4 0 00-7 7c-.6 1.5-.9 3.3-.9 5.3s.3 3.7.9 5.3a11.5 11.5 0 006.5 7c1.5.7 3.2 1 5.2 1zm20.7 0c1.4 0 2.6-.3 3.8-.7a8 8 0 004.7-5c.4-1 .6-2.4.6-3.9 0-1.4-.2-2.7-.6-4-.5-1-1-2-1.9-2.9a8 8 0 00-2.8-1.9c-1.2-.4-2.4-.7-3.8-.7s-2.6.3-3.8.7a8.2 8.2 0 00-4.7 4.9c-.4 1.2-.7 2.5-.7 4 0 1.4.3 2.7.7 3.9a8 8 0 004.7 5c1.2.3 2.4.6 3.8.6zm0-3.5c-1.6 0-2.7-.5-3.5-1.5-.7-1-1-2.6-1-4.5 0-2 .3-3.5 1-4.6.8-1 2-1.6 3.5-1.6s2.7.6 3.4 1.6c.7 1 1.1 2.6 1.1 4.6 0 2-.4 3.5-1 4.5-.8 1-2 1.5-3.5 1.5zm17 3.2V81.5c.5-.6 1-1 1.6-1.3.5-.3 1.1-.5 1.8-.5 1 0 1.7.3 2.2.8.5.6.7 1.5.7 2.7V95h4.5V83.2c0-.5 0-1 .2-1.5.2-.4.4-.8.7-1a3 3 0 011-.8l1.3-.2c1 0 1.8.3 2.3.9.5.6.8 1.5.8 2.6V95h4.4V83.2c0-1-.1-2-.4-3a6 6 0 00-1.2-2.1c-.6-.6-1.2-1-2-1.4a8 8 0 00-6.1.3 5.9 5.9 0 00-2.6 2.7c-.3-1-.9-1.9-1.6-2.5-.8-.6-1.7-1-3-1a5.8 5.8 0 00-3.9 1.5l-1 1-.3-1.4c-.1-.5-.5-.8-1.1-.8H728V95h4.4zm30.3 6v-7.5c.6.5 1.3 1 2 1.3a7.3 7.3 0 008.4-2.3c.7-.8 1.3-1.9 1.6-3a14.9 14.9 0 000-7.9 8.8 8.8 0 00-1.3-3 6 6 0 00-5-2.5 7 7 0 00-3.3.9c-1 .5-1.9 1.2-2.6 2l-.4-1.7a1 1 0 00-.4-.6l-.7-.2h-2.7V101h4.4zm3.6-9.1a4.2 4.2 0 01-3.6-1.7V82c.6-.7 1.2-1.2 1.9-1.6a4.5 4.5 0 014-.3c.4.2.8.6 1 1 .4.5.7 1.1.8 1.9a12.3 12.3 0 010 5.5c-.2.8-.5 1.4-.9 2-.4.5-.8.9-1.4 1.1-.5.3-1.1.4-1.8.4zm20.2 3.4c1.4 0 2.7-.3 3.8-.7a8 8 0 004.7-5c.4-1 .6-2.4.6-3.9 0-1.4-.2-2.7-.6-4-.4-1-1-2-1.8-2.9a8 8 0 00-3-1.9 10.2 10.2 0 00-7.5 0 8.2 8.2 0 00-4.7 4.9c-.4 1.2-.6 2.5-.6 4 0 1.4.2 2.7.6 3.9.5 1.2 1 2.2 1.9 3a8 8 0 002.9 1.9c1.1.4 2.4.7 3.7.7zm0-3.5c-1.5 0-2.7-.5-3.4-1.5-.8-1-1.1-2.6-1.1-4.5 0-2 .3-3.5 1-4.6.8-1 2-1.6 3.5-1.6 1.6 0 2.7.6 3.4 1.6.8 1 1.2 2.6 1.2 4.6 0 2-.4 3.5-1.2 4.5-.7 1-1.8 1.5-3.4 1.5zm17 3.2V81.6l2-1.4c.6-.3 1.4-.5 2.1-.5 1 0 1.9.3 2.4 1 .5.5.8 1.4.8 2.5V95h4.4V83.2c0-1-.1-2-.4-2.8-.3-.8-.7-1.6-1.2-2.2a5.3 5.3 0 00-2-1.4c-.7-.4-1.6-.6-2.6-.6a7.8 7.8 0 00-3.2.7 8.2 8.2 0 00-2.5 1.9l-.3-1.5c-.2-.5-.6-.8-1.2-.8h-2.7V95h4.5zm24 .3a14.6 14.6 0 004-.7c.6-.2 1.3-.5 1.9-1 .6-.3 1.2-.8 1.6-1.4l-1.3-1.6a1 1 0 00-.3-.3 1 1 0 00-.5 0c-.2 0-.5 0-.8.2a31.8 31.8 0 01-2.4 1c-.5.2-1.2.3-1.9.3-1.4 0-2.6-.4-3.5-1.3-.9-.9-1.4-2.3-1.5-4.2h11.9l.3-.3.2-.5v-.9a10 10 0 00-.6-3.5c-.4-1-1-2-1.6-2.7a7 7 0 00-2.6-1.6 9 9 0 00-3.2-.6c-1.4 0-2.6.3-3.7.8a8.3 8.3 0 00-4.5 4.8c-.5 1.1-.7 2.3-.7 3.6 0 1.6.3 3 .7 4.2a8.9 8.9 0 002 3.1 8 8 0 002.8 2c1.2.4 2.3.6 3.6.6zm3.7-11.7H823c.2-1.3.6-2.3 1.4-3 .7-.8 1.7-1.2 3-1.2.7 0 1.2.1 1.7.4.5.2 1 .5 1.3.9l.7 1.3.2 1.6zm12 11.4V81.6l2-1.4c.6-.3 1.4-.5 2.1-.5 1 0 1.9.3 2.4 1 .5.5.8 1.4.8 2.5V95h4.4V83.2c0-1-.1-2-.4-2.8-.3-.8-.7-1.6-1.2-2.2a5.3 5.3 0 00-2-1.4c-.7-.4-1.6-.6-2.6-.6a7.8 7.8 0 00-3.2.7 8.2 8.2 0 00-2.5 1.9l-.3-1.5c-.2-.5-.6-.8-1.2-.8h-2.7V95h4.5zm22.2.3c.9 0 1.7-.1 2.6-.4.8-.3 1.5-.7 2.2-1.3l-1.3-2.1-.3-.3-.3-.1h-.4a6.3 6.3 0 01-.8.5 2 2 0 01-.7.1c-.5 0-.9-.2-1.2-.5a2 2 0 01-.4-1.3v-10h4.9v-3.2h-4.9v-5.8h-2.3a1 1 0 00-.6.2l-.4.5-1 5-2.9.6v1.7c0 .3.1.6.3.7l.6.3h1.9v10.3c0 1.6.4 2.8 1.3 3.7.8 1 2 1.4 3.7 1.4zm9.5 0a2.8 2.8 0 002-.8 2.8 2.8 0 00.5-3A2.7 2.7 0 00876 90l-1.1-.2a2.7 2.7 0 00-2 .8l-.5.9a2.8 2.8 0 00.5 3 2.7 2.7 0 002 .8zm18.2 5v-2.9H879v2.9h14.2zm14.2 0v-2.9h-14.2v2.9h14.2zm5-26.4c.3 0 .7 0 1-.2a3 3 0 001.6-1.5l.2-1c0-.4 0-.8-.2-1.2a2.9 2.9 0 00-2.7-1.7c-.4 0-.7 0-1 .2a2.9 2.9 0 00-1.6 1.5 2.8 2.8 0 001.5 3.7c.4.2.7.2 1.1.2zm2.1 21.1V76.5H910V95h4.4zm9.5 0V81.6c.6-.6 1.2-1 1.9-1.4.7-.3 1.4-.5 2.2-.5 1 0 1.8.3 2.3 1 .5.5.8 1.4.8 2.5V95h4.4V83.2c0-1-.1-2-.4-2.8-.2-.8-.6-1.6-1.2-2.2a5.3 5.3 0 00-2-1.4c-.7-.4-1.6-.6-2.6-.6a7.8 7.8 0 00-3.2.7 8.2 8.2 0 00-2.5 1.9l-.3-1.5c-.2-.5-.6-.8-1.1-.8h-2.8V95h4.5zm18.5-21c.4 0 .8-.1 1.1-.3a3 3 0 001.6-1.5l.2-1c0-.4 0-.8-.2-1.2a2.9 2.9 0 00-2.7-1.7c-.4 0-.7 0-1 .2a2.9 2.9 0 00-1.6 1.5 2.8 2.8 0 001.5 3.7c.4.2.7.2 1.1.2zm2.2 21V76.5h-4.4V95h4.4zm11.1.3c1 0 1.8-.1 2.6-.4.9-.3 1.6-.7 2.3-1.3l-1.4-2.1-.2-.3-.4-.1h-.3a6.3 6.3 0 01-.8.5 2 2 0 01-.7.1c-.5 0-.9-.2-1.2-.5a2 2 0 01-.4-1.3v-10h4.9v-3.2h-5v-5.8H953a1 1 0 00-.7.2c-.1.1-.3.3-.3.5l-1 5-3 .6v1.7c0 .3.2.6.4.7.1.2.3.3.6.3h1.8v10.3c0 1.6.5 2.8 1.3 3.7 1 1 2.1 1.4 3.7 1.4zm19.7 5v-2.9h-14.2v2.9h14.2zm14.2 0v-2.9h-14.2v2.9h14.2zM694.7 488.3c2.1 0 4-.4 5.5-1 1.6-.8 2.9-1.8 4-3l-2-2.1a1 1 0 00-1.1-.2l-.4.2a8 8 0 01-2.5 1.5l-1.4.4H695c-1.1 0-2.2-.1-3.1-.5-1-.5-1.8-1-2.5-1.8a8.6 8.6 0 01-1.7-3c-.4-1-.6-2.4-.6-3.8s.2-2.7.6-3.8c.4-1.2 1-2.1 1.7-3 .8-.7 1.6-1.3 2.7-1.8 1-.4 2.1-.6 3.3-.6a8.7 8.7 0 015.4 1.7c.3.3.6.4.8.4l.7-.2.3-.4 1.7-2.2a11.8 11.8 0 00-8.8-3.4c-2 0-3.8.3-5.5 1a12.4 12.4 0 00-7 7c-.6 1.5-.9 3.3-.9 5.3s.3 3.7.9 5.3a11.5 11.5 0 006.5 7c1.5.7 3.2 1 5.2 1zm20.7 0c1.4 0 2.6-.3 3.8-.7a8 8 0 004.7-5c.4-1 .6-2.4.6-3.9 0-1.4-.2-2.7-.6-4-.5-1-1-2-1.9-2.9a8 8 0 00-2.8-1.9c-1.2-.4-2.4-.7-3.8-.7s-2.6.3-3.8.7a8.2 8.2 0 00-4.7 4.9c-.4 1.2-.7 2.5-.7 4 0 1.4.3 2.7.7 3.9a8 8 0 004.7 5c1.2.3 2.4.6 3.8.6zm0-3.4c-1.6 0-2.7-.6-3.5-1.6-.7-1-1-2.6-1-4.5 0-2 .3-3.5 1-4.6.8-1 2-1.6 3.5-1.6s2.7.6 3.4 1.6c.7 1 1.1 2.6 1.1 4.6 0 2-.4 3.5-1 4.5-.8 1-2 1.6-3.5 1.6zm17 3.1v-13.5c.5-.6 1-1 1.6-1.3.5-.3 1.1-.5 1.8-.5 1 0 1.7.3 2.2.8.5.6.7 1.5.7 2.7V488h4.5v-11.8c0-.5 0-1 .2-1.5.2-.4.4-.8.7-1a3 3 0 011-.8l1.3-.2c1 0 1.8.3 2.3.9.5.6.8 1.5.8 2.6V488h4.4v-11.8c0-1-.1-2-.4-3a6 6 0 00-1.2-2.1c-.6-.6-1.2-1-2-1.4a8 8 0 00-6.1.3 5.9 5.9 0 00-2.6 2.7c-.3-1-.9-1.9-1.6-2.5-.8-.6-1.7-1-3-1a5.8 5.8 0 00-3.9 1.5l-1 1-.3-1.4c-.1-.5-.5-.8-1.1-.8H728V488h4.4zm30.3 6v-7.5c.6.5 1.3 1 2 1.3a7.3 7.3 0 008.4-2.3c.7-.8 1.3-1.9 1.6-3a14.9 14.9 0 000-7.9 8.8 8.8 0 00-1.3-3 6 6 0 00-5-2.5 7 7 0 00-3.3.9c-1 .5-1.9 1.2-2.6 2l-.4-1.7a1 1 0 00-.4-.6l-.7-.2h-2.7V494h4.4zm3.6-9.1a4.2 4.2 0 01-3.6-1.7V475c.6-.7 1.2-1.2 1.9-1.6a4.5 4.5 0 014-.3c.4.2.8.6 1 1 .4.5.7 1.1.8 1.9a12.3 12.3 0 010 5.5c-.2.8-.5 1.4-.9 2-.4.5-.8.9-1.4 1.1-.5.3-1.1.4-1.8.4zm20.2 3.4c1.4 0 2.7-.3 3.8-.7a8 8 0 004.7-5c.4-1 .6-2.4.6-3.9 0-1.4-.2-2.7-.6-4-.4-1-1-2-1.8-2.9a8 8 0 00-3-1.9 10.2 10.2 0 00-7.5 0 8.2 8.2 0 00-4.7 4.9c-.4 1.2-.6 2.5-.6 4 0 1.4.2 2.7.6 3.9.5 1.2 1 2.2 1.9 3a8 8 0 002.9 1.9c1.1.4 2.4.7 3.7.7zm0-3.4c-1.5 0-2.7-.6-3.4-1.6-.8-1-1.1-2.6-1.1-4.5 0-2 .3-3.5 1-4.6.8-1 2-1.6 3.5-1.6 1.6 0 2.7.6 3.4 1.6.8 1 1.2 2.6 1.2 4.6 0 2-.4 3.5-1.2 4.5-.7 1-1.8 1.6-3.4 1.6zm17 3.1v-13.4l2-1.4c.6-.3 1.4-.5 2.1-.5 1 0 1.9.3 2.4 1 .5.5.8 1.4.8 2.5V488h4.4v-11.8c0-1-.1-2-.4-2.8-.3-.8-.7-1.6-1.2-2.2a5.3 5.3 0 00-2-1.4c-.7-.4-1.6-.6-2.6-.6a7.8 7.8 0 00-3.2.7 8.2 8.2 0 00-2.5 1.9l-.3-1.5c-.2-.5-.6-.8-1.2-.8h-2.7V488h4.5zm24 .3a14.6 14.6 0 004-.7c.6-.2 1.3-.5 1.9-1 .6-.3 1.2-.8 1.6-1.4l-1.3-1.6a1 1 0 00-.3-.3 1 1 0 00-.5 0c-.2 0-.5 0-.8.2a31.8 31.8 0 01-2.4 1c-.5.2-1.2.3-1.9.3-1.4 0-2.6-.4-3.5-1.3-.9-.9-1.4-2.3-1.5-4.2h11.9l.3-.3.2-.5v-.9a10 10 0 00-.6-3.5c-.4-1-1-2-1.6-2.7a7 7 0 00-2.6-1.6 9 9 0 00-3.2-.6c-1.4 0-2.6.3-3.7.8a8.3 8.3 0 00-4.5 4.8c-.5 1.1-.7 2.3-.7 3.6 0 1.6.3 3 .7 4.2a8.9 8.9 0 002 3.1 8 8 0 002.8 2c1.2.4 2.3.6 3.6.6zm3.7-11.7H823c.2-1.3.6-2.3 1.4-3 .7-.8 1.7-1.2 3-1.2.7 0 1.2.1 1.7.4.5.2 1 .5 1.3.9l.7 1.3.2 1.6zm12 11.4v-13.4l2-1.4c.6-.3 1.4-.5 2.1-.5 1 0 1.9.3 2.4 1 .5.5.8 1.4.8 2.5V488h4.4v-11.8c0-1-.1-2-.4-2.8-.3-.8-.7-1.6-1.2-2.2a5.3 5.3 0 00-2-1.4c-.7-.4-1.6-.6-2.6-.6a7.8 7.8 0 00-3.2.7 8.2 8.2 0 00-2.5 1.9l-.3-1.5c-.2-.5-.6-.8-1.2-.8h-2.7V488h4.5zm22.2.3c.9 0 1.7-.2 2.6-.4.8-.3 1.5-.7 2.2-1.3l-1.3-2.1-.3-.3-.3-.1h-.4a6.3 6.3 0 01-.8.5 2 2 0 01-.7.1c-.5 0-.9-.2-1.2-.5a2 2 0 01-.4-1.3v-10h4.9v-3.2h-4.9v-5.8h-2.3a1 1 0 00-.6.2l-.4.5-1 5-2.9.6v1.7c0 .3.1.6.3.7l.6.3h1.9v10.3c0 1.6.4 2.8 1.3 3.7.8 1 2 1.4 3.7 1.4zm9.5 0a2.8 2.8 0 002-.8 2.8 2.8 0 00.5-3 2.7 2.7 0 00-1.4-1.4c-.4-.2-.7-.3-1.1-.3a2.7 2.7 0 00-2 .8l-.5.9a2.8 2.8 0 00.5 3 2.7 2.7 0 002 .8zm12.3 0a7.5 7.5 0 005.7-2.6l.3 1.5c.2.5.5.8 1.1.8h2.7v-18.5h-4.4V483c-.6.6-1.2 1-2 1.4-.6.3-1.3.5-2 .5-1.1 0-1.9-.3-2.4-1a4 4 0 01-.8-2.5v-11.8h-4.5v11.8c0 1 .2 2 .4 2.8.3.9.7 1.6 1.2 2.2.6.6 1.2 1.1 2 1.5.8.3 1.7.5 2.7.5zm19 5.7v-7.5c.6.5 1.3 1 2 1.3a7.3 7.3 0 008.4-2.3c.7-.8 1.3-1.9 1.6-3a14.9 14.9 0 000-7.9 8.8 8.8 0 00-1.3-3 6 6 0 00-5-2.5 7 7 0 00-3.3.9c-1 .5-1.9 1.2-2.6 2l-.4-1.7a1 1 0 00-.4-.6l-.7-.2h-2.7V494h4.4zm3.6-9.1a4.2 4.2 0 01-3.6-1.7V475c.6-.7 1.2-1.2 1.9-1.6a4.5 4.5 0 013.9-.3c.5.2.9.6 1.2 1 .3.5.6 1.1.7 1.9a12.3 12.3 0 010 5.5c-.2.8-.5 1.4-.9 2-.4.5-.8.9-1.4 1.1-.5.3-1.1.4-1.8.4zm18 3.4a7.5 7.5 0 003.3-.8c.5-.3 1-.6 1.3-1l1.2-1 .4 1.7c.2.5.6.8 1.1.8h2.8v-26.7h-4.5v9.7a6.4 6.4 0 00-4.6-1.8 7.2 7.2 0 00-5.8 2.7c-.7 1-1.2 2-1.6 3.1a15 15 0 000 7.8c.3 1.2.8 2.2 1.4 3 .6.8 1.3 1.4 2.1 1.8.9.5 1.8.7 2.8.7zm1.4-3.6c-.6 0-1 0-1.5-.3-.5-.2-1-.5-1.2-1-.4-.5-.6-1-.8-1.8a12.3 12.3 0 010-5.6c.3-.7.6-1.4 1-1.9.3-.5.8-.9 1.3-1.1a4.9 4.9 0 013.7 0c.7.2 1.2.6 1.7 1.2v8.3a7 7 0 01-1.8 1.7c-.7.4-1.5.5-2.4.5zm18 3.6c.6 0 1.2 0 1.7-.2a7.1 7.1 0 003-1.3l1.3-1 .4 1.2c.1.4.3.7.5.8l1 .2h2v-11.7c0-1-.1-2-.4-2.8-.3-1-.8-1.7-1.4-2.3a6.1 6.1 0 00-2.1-1.5 11 11 0 00-10.6 2.4l.8 1.4.5.6c.3.2.5.2.8.2.4 0 .7 0 1-.2a45.7 45.7 0 002.2-1.1c.5-.2 1.1-.3 1.8-.3 1 0 1.8.3 2.3.9.5.6.8 1.5.8 2.7v1.1a24 24 0 00-5.3.6c-1.4.4-2.5.8-3.4 1.4-.8.5-1.4 1.1-1.8 1.8-.4.7-.6 1.4-.6 2 0 1 .2 1.6.4 2.3a4.3 4.3 0 002.9 2.5 7 7 0 002.1.3zm1.3-3a3 3 0 01-1.8-.6c-.5-.3-.7-.9-.7-1.6 0-.4.1-.8.3-1.1.3-.4.6-.7 1.2-1l2-.6 3.3-.3v3.1a9 9 0 01-1 .9c-.3.2-.6.5-1 .6l-1 .4-1.3.1zm19 3c1 0 1.8-.2 2.7-.4.8-.3 1.6-.7 2.2-1.3l-1.3-2.1-.3-.3-.3-.1h-.3a6.3 6.3 0 01-.9.5 2 2 0 01-.7.1c-.5 0-.8-.2-1.1-.5a2 2 0 01-.5-1.3v-10h4.9v-3.2H967v-5.8h-2.3a1 1 0 00-.6.2l-.4.5-.9 5-3 .6v1.7c0 .3.1.6.3.7l.6.3h1.9v10.3c0 1.6.4 2.8 1.3 3.7.9 1 2 1.4 3.7 1.4zm15.8 0a14.6 14.6 0 004-.7c.7-.2 1.3-.5 2-1 .6-.3 1.1-.8 1.6-1.4l-1.3-1.6a1 1 0 00-.3-.3 1 1 0 00-.5 0c-.3 0-.6 0-.9.2a31.8 31.8 0 01-2.3 1c-.6.2-1.2.3-2 .3-1.4 0-2.6-.4-3.4-1.3-1-.9-1.4-2.3-1.6-4.2h11.9l.4-.3.1-.5v-.9a10 10 0 00-.5-3.5 7 7 0 00-4.2-4.3 9 9 0 00-3.2-.6c-1.4 0-2.6.3-3.7.8a8.3 8.3 0 00-4.6 4.8 12 12 0 000 7.8 8.9 8.9 0 002 3.1 8 8 0 003 2c1 .4 2.2.6 3.5.6zm3.8-11.7h-8.4c.2-1.3.7-2.3 1.4-3 .8-.8 1.8-1.2 3-1.2.7 0 1.3.1 1.8.4.5.2.9.5 1.2.9.3.4.6.8.7 1.3.2.5.3 1 .3 1.6zM1627.4 196l1.8-.3a3.7 3.7 0 002.3-2.1c.1-.5.3-1.1.3-1.7V187c0-.6-.2-1.1-.4-1.6a3.7 3.7 0 00-2.2-2.2l-1.8-.3h-4v13h4zm0-2h-1.8V185h1.8c.6 0 1.1.2 1.5.6.4.3.6.8.6 1.4v4.8a2 2 0 01-.6 1.5c-.4.3-.9.5-1.5.5zm10.3 2.2c.7 0 1.3-.1 1.8-.3a3.5 3.5 0 002.2-2c.3-.5.4-1 .4-1.6v-2.5a4 4 0 00-.4-1.6 3.5 3.5 0 00-2.2-2c-.5-.2-1.1-.3-1.8-.3-.6 0-1.2.1-1.7.3a3.5 3.5 0 00-2.2 2 4 4 0 00-.4 1.6v2.5c0 .5.1 1 .4 1.6.2.4.4.8.8 1.2.4.3.8.6 1.4.8.5.2 1.1.3 1.8.3zm0-2a2 2 0 01-1.5-.5c-.3-.4-.5-.8-.5-1.4v-2.5c0-.6.2-1 .5-1.4a2 2 0 011.5-.5 2 2 0 011.6.5c.3.4.5.8.5 1.4v2.5c0 .6-.2 1-.5 1.4a2 2 0 01-1.5.5zm10.5 2a5 5 0 001.6-.3 4.1 4.1 0 002.2-1.8l.5-1.4h-2.3c0 .4-.3.8-.7 1-.3.4-.8.5-1.3.5-.7 0-1.2-.1-1.5-.5-.4-.3-.6-.8-.6-1.4v-2.5c0-.6.2-1 .6-1.4.3-.3.8-.5 1.5-.5.5 0 1 .1 1.3.4.4.3.6.7.7 1.1h2.3a4.1 4.1 0 00-1.4-2.5 4 4 0 00-1.3-.7 5.3 5.3 0 00-3.4 0 4 4 0 00-1.4.8 4 4 0 00-1.2 2.8v2.5c0 .6.2 1.1.4 1.6s.5.9.8 1.2c.4.4.9.6 1.4.8.5.2 1.1.3 1.8.3z"/>
    <g fill-rule="nonzero">
      <path fill="#3D4251" d="M1591.4 278v-2h-2.8v-9h2.8v-2h-7.9v2h2.8v9h-2.8v2h7.9zm10.3 0v-2h-2.5a1 1 0 01-.8-.3 1 1 0 01-.3-.8v-4.8h3.8v-2h-3.8v-3h-2.2v3h-2.7v2h2.7v4.8c0 1 .3 1.7.8 2.3.6.5 1.4.8 2.3.8h2.7zm6.4.2c.5 0 1 0 1.4-.2l1.3-.5.9-.9c.3-.3.4-.7.5-1.1h-2.2c-.1.3-.4.5-.7.6a3 3 0 01-1.3.3 2 2 0 01-1.5-.6c-.3-.4-.5-.9-.5-1.5v-.7h6.3v-1.8a4 4 0 00-.3-1.6c-.2-.5-.5-.9-.9-1.2a4 4 0 00-1.3-.8c-.5-.2-1.1-.3-1.8-.3-.6 0-1.2.1-1.7.3-.6.2-1 .4-1.4.8-.4.3-.6.7-.8 1.2a4 4 0 00-.4 1.6v2.5c0 .6.1 1.1.4 1.6a3.5 3.5 0 002.2 2c.5.2 1.1.3 1.7.3zm2-6.1h-4.1v-.3c0-.7.2-1.2.5-1.5a2 2 0 011.5-.6 2 2 0 011.6.6c.3.3.5.8.5 1.5v.3zm6.8 5.9v-6.2c0-.6.2-1 .5-1.4.3-.4.8-.6 1.4-.6.6 0 1 .2 1.4.6.4.3.5.8.5 1.4v.6h2.4v-.8a4 4 0 00-1-2.7c-.5-.7-1.4-1-2.4-1-.8 0-1.4.2-1.9.5-.4.3-.7.8-.9 1.4h-.1v-1.7h-2.1v9.9h2.2zm10.5.2c.8 0 1.5-.2 2-.6.6-.4 1-.9 1-1.5h.2v1.9h2.2v-6.8a3 3 0 00-1.1-2.4l-1.4-.7a6.2 6.2 0 00-3.3 0l-1.2.6c-.4.2-.6.5-.9.8a3 3 0 00-.4 1.2h2.2c0-.3.3-.5.6-.7.4-.2.8-.3 1.3-.3.6 0 1 .1 1.4.4.3.3.5.6.5 1.1v.8h-2.5c-.6 0-1.1.1-1.6.3-.4.1-.9.3-1.2.6l-.8 1-.2 1.3c0 1 .3 1.6.8 2.2.6.5 1.4.8 2.4.8zm.8-1.8a2 2 0 01-1.3-.4c-.3-.2-.5-.6-.5-1 0-.5.2-.9.4-1.1.3-.3.7-.4 1.2-.4h2.5v1.2c0 .5-.2.9-.7 1.2-.4.4-1 .5-1.6.5zm14.7 1.6v-2h-2.5a1 1 0 01-.8-.3 1 1 0 01-.3-.8v-4.8h3.8v-2h-3.8v-3h-2.2v3h-2.7v2h2.7v4.8c0 1 .3 1.7.8 2.3.6.5 1.4.8 2.3.8h2.7zm6.3.2c.7 0 1.3-.1 1.8-.3a3.5 3.5 0 002.2-2c.2-.5.4-1 .4-1.6v-2.5a4 4 0 00-.4-1.6 3.5 3.5 0 00-2.2-2c-.5-.2-1.1-.3-1.8-.3-.6 0-1.2.1-1.7.3a3.5 3.5 0 00-2.2 2 4 4 0 00-.4 1.6v2.5c0 .5.1 1 .4 1.6.2.4.4.8.8 1.2.4.3.8.6 1.4.8.5.2 1.1.3 1.7.3zm0-2a2 2 0 01-1.5-.5c-.3-.4-.5-.8-.5-1.4v-2.5c0-.6.2-1 .5-1.4a2 2 0 011.5-.5 2 2 0 011.6.5c.3.4.5.8.5 1.4v2.5c0 .6-.2 1-.5 1.4a2 2 0 01-1.6.5zm9 1.8v-6.2c0-.6 0-1 .4-1.4.3-.4.8-.6 1.4-.6.6 0 1 .2 1.4.6.4.3.5.8.5 1.4v.6h2.4v-.8a4 4 0 00-1-2.7c-.5-.7-1.4-1-2.4-1-.8 0-1.4.2-1.9.5-.4.3-.7.8-.9 1.4h-.1v-1.7h-2.1v9.9h2.2z"/>
      <path fill="#67708A" d="M1672.8 280v-2.1h-2.8v-12.7h2.8V263h-5V280z"/>
      <path fill="#3D4251" d="M1680 278c.7 0 1.3-.1 1.9-.3a3.7 3.7 0 002.3-2.1c.1-.5.3-1.1.3-1.7V269c0-.6-.2-1.1-.4-1.6a3.7 3.7 0 00-2.2-2.2l-1.8-.3h-4v13h4zm0-2h-1.7V267h1.8c.6 0 1.1.2 1.5.6.4.3.6.8.6 1.4v4.8a2 2 0 01-.6 1.5c-.4.3-.9.5-1.5.5zm10.5 2.2c.6 0 1.2-.1 1.7-.3a3.5 3.5 0 002.2-2c.3-.5.4-1 .4-1.6v-2.5a4 4 0 00-.4-1.6 3.5 3.5 0 00-2.2-2 5.4 5.4 0 00-3.5 0 3.5 3.5 0 00-2.2 2 4 4 0 00-.4 1.6v2.5c0 .5.2 1 .4 1.6.2.4.4.8.8 1.2.4.3.8.6 1.4.8.5.2 1.1.3 1.8.3zm0-2a2 2 0 01-1.6-.5c-.3-.4-.5-.8-.5-1.4v-2.5c0-.6.2-1 .5-1.4a2 2 0 011.6-.5 2 2 0 011.5.5c.3.4.5.8.5 1.4v2.5c0 .6-.2 1-.5 1.4a2 2 0 01-1.5.5zm10.4 2a5 5 0 001.6-.3 4.1 4.1 0 002.2-1.8l.5-1.4h-2.3c0 .4-.3.8-.7 1-.3.4-.8.5-1.3.5-.7 0-1.2-.2-1.5-.5-.4-.3-.6-.8-.6-1.4v-2.5c0-.6.2-1 .6-1.4.3-.4.8-.5 1.5-.5.5 0 1 .1 1.3.4.4.3.6.7.7 1.1h2.3a4.1 4.1 0 00-1.4-2.5 4 4 0 00-1.3-.7 5.3 5.3 0 00-3.4 0 4 4 0 00-1.4.8 4 4 0 00-1.2 2.8v2.5c0 .6.2 1.1.4 1.6s.5.9.8 1.2c.4.4.9.6 1.4.8.5.2 1.1.3 1.8.3z"/>
      <path fill="#67708A" d="M1713.1 280v-17h-5v2.2h2.7v12.7h-2.8v2z"/>
    </g>
    <path fill="#3D4251" fill-rule="nonzero" d="M1031.9 199.2l1.8-.3a4 4 0 001.3-.8c.4-.4.7-.8.9-1.3.2-.5.3-1 .3-1.6v-5.4c0-.6-.1-1.1-.3-1.6a3.6 3.6 0 00-2.2-2l-1.8-.3c-.6 0-1.2 0-1.8.2l-1.3.8c-.4.4-.7.8-.9 1.3-.2.5-.3 1-.3 1.6v5.4c0 .6.1 1.1.3 1.6a3.6 3.6 0 002.2 2.1l1.8.3zm0-2a2 2 0 01-1.5-.5 2 2 0 01-.6-1.5v-5.4c0-.6.2-1 .6-1.4a2 2 0 011.5-.6 2 2 0 011.5.6c.4.3.6.8.6 1.4v5.4a2 2 0 01-.6 1.5 2 2 0 01-1.5.5zm10.3 2c1.3 0 2.3-.4 3-1 .7-.7 1-1.7 1-3v-6.1h-2.2v6.2c0 1.3-.6 2-1.8 2-1.2 0-1.8-.7-1.8-2V189h-2.3v6.2c0 1.2.4 2.2 1.1 2.9.7.6 1.7 1 3 1zm14.3-.2v-2h-2.5a1 1 0 01-.8-.3 1 1 0 01-.3-.8v-4.8h3.8v-2h-3.8v-3h-2.3v3h-2.7v2h2.7v4.8c0 1 .3 1.7.9 2.3.6.5 1.3.8 2.3.8h2.7zm4.5 3v-3a8.5 8.5 0 000-1 6.3 6.3 0 00-.1-.7h.2c0 .6.4 1 .8 1.4.5.3 1 .5 1.8.5.5 0 1-.1 1.4-.3.4-.2.8-.4 1-.8.4-.3.6-.7.8-1.2l.2-1.6v-2.5a5 5 0 00-.2-1.6c-.2-.5-.4-.9-.7-1.2a3 3 0 00-1.1-.8c-.4-.2-.9-.3-1.4-.3a3 3 0 00-1.8.5c-.4.4-.7.8-.8 1.4h-.2v-1.7h-2.2v13h2.3zm1.9-4.8c-.6 0-1-.2-1.4-.5a2 2 0 01-.5-1.4v-2.5c0-.6.2-1 .5-1.4.4-.4.8-.5 1.4-.5.6 0 1 .1 1.4.5.4.3.6.8.6 1.4v2.4a2 2 0 01-.6 1.5c-.3.3-.8.5-1.4.5zm10.2 2c1.3 0 2.3-.4 3-1 .7-.7 1-1.7 1-3v-6.1h-2.2v6.2c0 1.3-.6 2-1.8 2-1.2 0-1.8-.7-1.8-2V189h-2.3v6.2c0 1.2.4 2.2 1.1 2.9.7.6 1.7 1 3 1zm14.3-.2v-2h-2.5a1 1 0 01-.8-.3 1 1 0 01-.3-.8v-4.8h3.8v-2h-3.8v-3h-2.3v3h-2.7v2h2.7v4.8c0 1 .3 1.7.9 2.3.6.5 1.3.8 2.3.8h2.7zm7.4 0v-10.9h3.6v-2h-9.4v2h3.6V199h2.2zm9.3 3l4.7-12.9h-2.4l-1.8 5.3a5.9 5.9 0 00-.3 1.3l-.1.7h-.1a13.3 13.3 0 00-.5-2l-1.9-5.3h-2.5l3.8 9.3-1.3 3.7h2.4zm8.4 0v-3a8.5 8.5 0 000-1 6.3 6.3 0 00-.1-.7h.2c0 .6.4 1 .8 1.4.5.3 1 .5 1.8.5.5 0 1-.1 1.4-.3.4-.2.8-.4 1-.8.4-.3.6-.7.8-1.2l.2-1.6v-2.5a5 5 0 00-.2-1.6c-.2-.5-.4-.9-.7-1.2a3 3 0 00-1.1-.8c-.4-.2-.9-.3-1.4-.3a3 3 0 00-1.8.5c-.4.4-.7.8-.8 1.4h-.2v-1.7h-2.2v13h2.3zm1.9-4.8c-.6 0-1-.2-1.4-.5a2 2 0 01-.5-1.4v-2.5c0-.6.2-1 .5-1.4.4-.4.8-.5 1.4-.5.6 0 1 .1 1.4.5.4.3.6.8.6 1.4v2.4a2 2 0 01-.6 1.5c-.3.3-.8.5-1.4.5zm10.2 2c.5 0 1 0 1.5-.2l1.2-.5 1-.9.5-1.1h-2.2c-.2.3-.4.5-.8.6a3 3 0 01-1.2.3 2 2 0 01-1.5-.6c-.4-.4-.6-.9-.6-1.5v-.7h6.4v-1.8a4 4 0 00-.3-1.6c-.2-.5-.5-.9-.9-1.2a4 4 0 00-1.3-.8l-1.8-.3c-.7 0-1.3.1-1.8.3-.5.2-1 .4-1.3.8-.4.3-.7.7-.9 1.2a4 4 0 00-.3 1.6v2.5c0 .6.1 1.1.3 1.6a3.5 3.5 0 002.2 2l1.8.3zm2-6.1h-4v-.3c0-.7.1-1.2.5-1.5a2 2 0 011.5-.6 2 2 0 011.5.6c.4.3.6.8.6 1.5v.3z"/>
  </g>
</svg>
