<svg height="100" viewBox="0 0 100 100" width="100" xmlns="http://www.w3.org/2000/svg">
    <path d="M22.8 11.9l1.5 1.7-4.4 3.8 1.8 2 4-3.5 1.4 1.6-4 3.5 1.9 2.2 4.4-3.8 1.5 1.7-6.3 5.5-8-9.3 6.2-5.4zm17.1-1.2l5.9 4.8-2.8.8-4-3.3-1.5 4.9-2.7.8 2.3-7.2-5.6-4.6 2.8-.8 3.7 3 1.5-4.6 2.7-.8-2.3 7zm14.1.9l-.6 4.2-2.5-.4 1.8-12.1 4.9.7c2.6.4 4.1 2 3.7 4.6s-2.3 3.7-4.9 3.3l-2.4-.3zm3.2-5.4l-2.3-.3-.5 3.6 2.3.3c1.3.2 2.1-.5 2.2-1.5.1-1.1-.4-1.9-1.7-2.1zm14.5 2.4l2.2 1.4-5.4 8.4 4.8 3.1-1.2 1.9-7-4.5 6.6-10.3zm6.8 22.8c-1.9-2.9-.9-6.3 2.1-8.3 3.1-2 6.6-1.5 8.5 1.4s1 6.3-2.1 8.3c-3 2-6.6 1.4-8.5-1.4zm8.7-5.7c-1.1-1.6-3.1-1.8-5.1-.5s-2.7 3.3-1.6 4.9 3.2 1.8 5.2.5c1.9-1.3 2.6-3.3 1.5-4.9zm-.1 17c-1 .5-1.4 1.4-1.2 2.6s.8 2 1.8 1.8c.7-.1 1.1-.6 1.2-1.7l.2-2.2c.2-1.8.9-3.3 2.9-3.5 2.2-.3 4 1.3 4.3 3.9.4 2.8-.9 4.6-2.9 5.2l-.3-2.5c.8-.4 1.3-1.2 1.2-2.4-.2-1.1-.8-1.8-1.7-1.7-.7.1-1 .6-1.1 1.5l-.3 2.3c-.2 2-1.2 3.4-3 3.6-2.4.3-4-1.4-4.4-4-.4-2.7.7-4.8 3-5.5l.3 2.6zm-3.8 15.6l.5-2.5 12 2.5-.5 2.5-12-2.5zm-4.7 10.3c1.9-2.9 5.4-3.4 8.5-1.4s4 5.5 2.1 8.3-5.4 3.4-8.5 1.4-4-5.5-2.1-8.3zm8.7 5.6c1.1-1.6.4-3.6-1.7-4.9-2-1.3-4.1-1.2-5.1.5-1.1 1.6-.4 3.6 1.6 4.9 2 1.4 4.1 1.2 5.2-.5zm-24.7 8.1l1.8-1 9.1 4.2-4.1-7.1 2.1-1.2 6.1 10.6-2 1.2-8.6-4 3.9 6.7-2.1 1.2-6.2-10.6zM50 92.2C26.7 92.2 7.8 73.3 7.8 50c0-7.2 1.8-14.3 5.3-20.5.4-.7 1.3-1 2-.6s1 1.3.6 2a39.53 39.53 0 0 0-4.9 19c0 21.6 17.6 39.2 39.2 39.2 2.2 0 4.4-.2 6.6-.5.8-.1 1.6.4 1.7 1.2s-.4 1.6-1.2 1.7c-2.4.5-4.7.7-7.1.7z"/>
</svg>