<svg xmlns="http://www.w3.org/2000/svg" viewBox="0 308.5 595.3 213" width="675" height="215" style="color: #09a3d5">
    <path fill="currentColor" d="M73.7 395.2c-13.5-1.6-14.5-19.7-31.8-18.1-8.4 0-16.2 3.5-16.2 11.2 0 11.6 17.9 12.7 28.7 15.6 18.4 5.6 36.2 9.4 36.2 29.4 0 25.4-19.9 34.2-46.2 34.2-22 0-44.3-7.8-44.3-28 0-5.6 5.4-10 10.6-10 6.6 0 8.9 2.8 11.2 7.4 5.1 9 10.8 13.8 25 13.8 9 0 18.2-3.4 18.2-11.2 0-11.1-11.3-13.5-23-16.2-20.7-5.8-38.5-8.8-40.6-31.8-2.2-39.2 79.5-40.7 84.2-6.3-.1 6.2-5.9 10-12 10zm97.2-34.4c28.7 0 45 24 45 53.6 0 29.7-15.8 53.6-45 53.6-16.2 0-26.3-6.9-33.6-17.5v39.2c0 11.8-3.8 17.5-12.4 17.5-10.5 0-12.4-6.7-12.4-17.5v-114c0-9.3 3.9-15 12.4-15 8 0 12.4 6.3 12.4 15v3.2c8.1-10.2 17.4-18.1 33.6-18.1zm-6.8 86.8c16.8 0 24.3-15.5 24.3-33.6 0-17.7-7.6-33.6-24.3-33.6-17.5 0-25.6 14.4-25.6 33.6 0 18.7 8.2 33.6 25.6 33.6zm71.3-58.8c0-20.6 23.7-28 46.7-28 32.3 0 45.6 9.4 45.6 40.6v30c0 7.1 4.4 21.3 4.4 25.6 0 6.5-6 10.6-12.4 10.6-7.1 0-12.4-8.4-16.2-14.4-10.5 8.4-21.6 14.4-38.6 14.4-18.8 0-33.6-11.1-33.6-29.4 0-16.2 11.6-25.5 25.6-28.7 0 .1 45-10.6 45-10.7 0-13.8-4.9-19.9-19.4-19.9-12.8 0-19.3 3.5-24.3 11.2-4 5.8-3.5 9.3-11.2 9.3-6.2-.1-11.6-4.3-11.6-10.6zm38.4 61.9c19.7 0 28-10.4 28-31.1v-4.4c-5.3 1.8-26.7 7.1-32.5 8-6.2 1.2-12.4 5.8-12.4 13.1.2 8 8.4 14.4 16.9 14.4zm144.7-129c27.8 0 57.9 16.6 57.9 43 0 6.8-5.1 12.4-11.8 12.4-9.1 0-10.4-4.9-14.4-11.8-6.7-12.3-14.6-20.5-31.8-20.5-26.6-.2-38.5 22.6-38.5 51 0 28.6 9.9 49.2 37.4 49.2 18.3 0 28.4-10.6 33.6-24.3 2.1-6.3 5.9-12.4 13.8-12.4 6.2 0 12.4 6.3 12.4 13.1 0 28-28.6 47.4-58 47.4-32.2 0-50.4-13.6-60.4-36.2-4.9-10.8-8-22-8-37.4-.2-43.4 25.1-73.5 67.8-73.5zm159 39.1c7.1 0 11.2 4.6 11.2 11.8 0 2.9-2.3 8.7-3.2 11.8l-34.2 89.9c-7.6 19.5-13.3 33-39.2 33-12.3 0-23-1.1-23-11.8 0-6.2 4.7-9.3 11.2-9.3 1.2 0 3.2.6 4.4.6 1.9 0 3.2.6 4.4.6 13 0 14.8-13.3 19.4-22.5l-33-81.7c-1.9-4.4-3.2-7.4-3.2-10 0-7.2 5.6-12.4 13.1-12.4 8.4 0 11.7 6.6 13.8 13.8l21.8 64.8 21.8-59.9c3.3-9.3 3.6-18.7 14.7-18.7z"/>
</svg>
