<svg xmlns="http://www.w3.org/2000/svg" width="1080" height="1254" viewBox="0 0 1080 1254">
  <!-- Icons: Twemoji (https://twemoji.twitter.com/) -->
  <defs>
    <linearGradient id="a" x1="50%" x2="50%" y1="0%" y2="100%">
      <stop offset="0%" stop-color="#95AAB6"/>
      <stop offset="100%" stop-color="#3AC"/>
    </linearGradient>
    <linearGradient id="b" x1="50%" x2="50%" y1="0%" y2="100%">
      <stop offset="0%" stop-color="#3AC"/>
      <stop offset="100%" stop-color="#F03969"/>
    </linearGradient>
    <linearGradient id="c" x1="50%" x2="50%" y1="0%" y2="100%">
      <stop offset="0%" stop-color="#8978B5"/>
      <stop offset="100%" stop-color="#F03969"/>
    </linearGradient>
    <linearGradient id="d" x1="50%" x2="50%" y1="0%" y2="100%">
      <stop offset="0%" stop-color="#8978B5"/>
      <stop offset="100%" stop-color="#95AAB6"/>
    </linearGradient>
    <linearGradient id="e" x1="50%" x2="50%" y1="0%" y2="100%">
      <stop offset="0%" stop-color="#8978B5"/>
      <stop offset="100%" stop-color="#CDB217"/>
    </linearGradient>
    <linearGradient id="f" x1="50%" x2="50%" y1="0%" y2="100%">
      <stop offset="0%" stop-color="#00BEAB"/>
      <stop offset="100%" stop-color="#CDB217"/>
    </linearGradient>
    <linearGradient id="g" x1="50%" x2="50%" y1="0%" y2="100%">
      <stop offset="0%" stop-color="#F03969"/>
      <stop offset="100%" stop-color="#8978B5"/>
    </linearGradient>
    <linearGradient id="h" x1="50%" x2="50%" y1="0%" y2="100%">
      <stop offset="0%" stop-color="#F03969"/>
      <stop offset="100%" stop-color="#8978B5"/>
    </linearGradient>
    <linearGradient id="i" x1="0%" x2="100%" y1="50%" y2="50%">
      <stop offset="0%" stop-color="#00BEAB"/>
      <stop offset="100%" stop-color="#3AC"/>
    </linearGradient>
  </defs>
  <g fill="none" fill-rule="evenodd">
    <g transform="translate(392 292)">
      <rect width="283" height="110" x="2.5" y="2.5" fill="#C3E7F1" stroke="#3AC" stroke-width="5" rx="12"/>
      <path fill="#3D4251" fill-rule="nonzero" d="M60.2 65.1h12.7V70H54.3V38.2h5.9v27zM94.4 70h-2.5c-.5 0-.9 0-1.2-.2-.3-.2-.5-.5-.6-1l-.5-1.6a18.6 18.6 0 01-3.4 2.4l-1.9.6a11.3 11.3 0 01-4.8-.2c-.8-.3-1.5-.7-2-1.2-.7-.5-1.1-1.1-1.4-1.9-.4-.8-.5-1.7-.5-2.7 0-.8.2-1.7.7-2.5.4-.8 1.1-1.6 2.2-2.2 1-.7 2.4-1.2 4.1-1.7 1.8-.4 4-.7 6.5-.7v-1.4c0-1.5-.3-2.6-1-3.3-.6-.7-1.5-1.1-2.8-1.1a6.7 6.7 0 00-3.7 1l-1.2.7c-.3.2-.8.3-1.2.3-.4 0-.7 0-1-.3l-.6-.7-1-1.7c2.6-2.4 5.8-3.6 9.4-3.6a9 9 0 013.6.7 7.5 7.5 0 014.2 4.5c.4 1 .6 2.3.6 3.5V70zm-10.6-3.4l1.6-.1a5.8 5.8 0 002.5-1.3l1.2-1v-3.8c-1.6 0-3 .2-4 .4s-1.9.4-2.5.7c-.7.3-1.2.7-1.4 1.1-.3.4-.4.9-.4 1.4 0 .9.3 1.6.8 2 .6.4 1.3.6 2.2.6zm16 3.4V47.4h3.3c.7 0 1.1.4 1.3 1l.4 1.8a12.4 12.4 0 013-2.3 8.2 8.2 0 014-.8 8 8 0 013.3.6c1 .4 1.7 1 2.4 1.8.6.7 1 1.6 1.4 2.7.3 1 .5 2.2.5 3.4V70H114V55.6c0-1.3-.3-2.4-1-3.2-.6-.7-1.6-1.1-2.9-1.1-.9 0-1.8.2-2.6.6-.8.5-1.6 1-2.3 1.8V70h-5.5zm32.8-23c1 0 1.8.1 2.7.3.8.2 1.6.5 2.3.9h6.5v2c0 .4 0 .6-.3.8-.1.2-.4.3-.9.4l-2 .4a7 7 0 01.5 2.5 6.7 6.7 0 01-2.5 5.4c-.8.6-1.8 1-2.8 1.4a11.5 11.5 0 01-6 .3c-.7.4-1 .9-1 1.4 0 .5.1.8.5 1 .5.2 1 .4 1.7.5l2.3.1a48.4 48.4 0 015.3.6c.9.2 1.7.4 2.4.8a5 5 0 012.3 4.2c0 1-.3 2-.8 3s-1.2 1.8-2.1 2.5c-1 .7-2.1 1.3-3.5 1.8a17.8 17.8 0 01-9 .2c-1.3-.4-2.3-.8-3.2-1.4a5.7 5.7 0 01-1.8-1.9c-.4-.7-.7-1.4-.7-2.2 0-1 .4-2 1-2.7.7-.7 1.6-1.3 2.7-1.7-.6-.3-1-.7-1.3-1.2-.4-.5-.5-1.2-.5-2l.1-1c.1-.4.3-.8.6-1.1.2-.4.5-.7.9-1 .3-.4.8-.6 1.3-.9-1.2-.6-2-1.4-2.7-2.5-.7-1-1-2.2-1-3.6a6.7 6.7 0 012.5-5.3c.8-.6 1.8-1.1 2.9-1.5 1-.3 2.3-.5 3.6-.5zm6 24c0-.4-.2-.8-.5-1-.2-.3-.6-.6-1-.7a29.4 29.4 0 00-5.6-.6l-2.2-.2a5 5 0 00-1.5 1.2c-.4.4-.5 1-.5 1.6 0 .4 0 .7.3 1 .2.4.5.7.9 1l1.7.6 2.5.2c1 0 1.9-.1 2.6-.3.8-.1 1.4-.3 1.8-.6.5-.3.9-.6 1-1 .3-.3.4-.7.4-1.2zm-6-12.8c.6 0 1.2-.1 1.7-.3.5-.2 1-.4 1.3-.8l.7-1.1.3-1.5c0-1.1-.4-2-1-2.7-.7-.6-1.7-1-3-1-1.4 0-2.4.4-3 1-.7.7-1 1.6-1 2.7 0 .5 0 1 .2 1.4a3.2 3.2 0 002 2c.5.2 1.1.3 1.8.3zm19.9-10.8v14.4c0 1.4.3 2.4 1 3.2.6.7 1.5 1.1 2.8 1.1 1 0 1.8-.2 2.7-.6.8-.4 1.6-1 2.3-1.7V47.4h5.4V70h-3.3c-.7 0-1.2-.3-1.4-1l-.4-1.8-1.4 1.3a8.8 8.8 0 01-5.5 1.9 8 8 0 01-3.3-.7c-1-.4-1.7-1-2.4-1.7a7.8 7.8 0 01-1.4-2.8c-.4-1-.5-2.2-.5-3.4V47.4h5.4zM190.2 70h-2.4c-.5 0-1 0-1.2-.2-.3-.2-.5-.5-.7-1l-.5-1.6a18.6 18.6 0 01-3.4 2.4l-1.8.6a11.3 11.3 0 01-4.9-.2c-.8-.3-1.5-.7-2-1.2-.6-.5-1-1.1-1.4-1.9-.3-.8-.5-1.7-.5-2.7 0-.8.2-1.7.7-2.5.4-.8 1.2-1.6 2.2-2.2 1-.7 2.4-1.2 4.2-1.7 1.7-.4 3.9-.7 6.4-.7v-1.4c0-1.5-.3-2.6-1-3.3-.6-.7-1.5-1.1-2.7-1.1a6.7 6.7 0 00-3.8 1l-1.1.7c-.4.2-.8.3-1.3.3-.3 0-.6 0-1-.3l-.5-.7-1-1.7c2.6-2.4 5.7-3.6 9.4-3.6a9 9 0 013.5.7 7.5 7.5 0 014.3 4.5c.3 1 .5 2.3.5 3.5V70zm-10.5-3.4l1.5-.1a5.8 5.8 0 002.5-1.3l1.2-1v-3.8c-1.6 0-2.9.2-4 .4-1 .2-1.9.4-2.5.7-.7.3-1.1.7-1.4 1.1-.3.4-.4.9-.4 1.4 0 .9.3 1.6.8 2 .6.4 1.4.6 2.3.6zM203.4 47c1 0 1.9.1 2.7.3.9.2 1.6.5 2.3.9h6.5v2c0 .4 0 .6-.2.8-.2.2-.5.3-1 .4l-2 .4a7 7 0 01.5 2.5 6.7 6.7 0 01-2.5 5.4c-.8.6-1.7 1-2.8 1.4a11.5 11.5 0 01-6 .3c-.7.4-1 .9-1 1.4 0 .5.1.8.6 1l1.6.5 2.3.1a48.4 48.4 0 015.4.6c.8.2 1.6.4 2.3.8a5 5 0 012.3 4.2c0 1-.3 2-.8 3s-1.2 1.8-2.1 2.5c-1 .7-2 1.3-3.4 1.8-1.4.4-3 .6-4.7.6-1.7 0-3.2-.1-4.4-.5-1.3-.3-2.3-.7-3.2-1.3a5.7 5.7 0 01-1.8-1.9c-.4-.7-.6-1.4-.6-2.2 0-1 .3-2 1-2.7.6-.7 1.5-1.3 2.6-1.7-.5-.3-1-.7-1.3-1.2-.4-.5-.5-1.2-.5-2l.1-1c.2-.4.3-.8.6-1.1.2-.4.5-.7.9-1 .4-.4.8-.6 1.3-.9-1.1-.6-2-1.4-2.7-2.5-.7-1-1-2.2-1-3.6A6.7 6.7 0 01197 49c.8-.6 1.7-1.1 2.8-1.5 1-.3 2.3-.5 3.6-.5zm6 24c0-.4-.2-.8-.5-1-.2-.3-.6-.6-1-.7a29.4 29.4 0 00-5.6-.6l-2.2-.2a5 5 0 00-1.5 1.2c-.3.4-.5 1-.5 1.6 0 .4 0 .7.3 1 .2.4.5.7 1 1l1.6.6 2.5.2c1 0 2-.1 2.6-.3.8-.1 1.4-.3 1.9-.6.4-.3.8-.6 1-1 .2-.3.3-.7.3-1.2zm-6-12.8c.7 0 1.2-.1 1.7-.3.5-.2 1-.4 1.3-.8.3-.3.6-.7.7-1.1l.3-1.5c0-1.1-.4-2-1-2.7-.7-.6-1.7-1-3-1-1.4 0-2.4.4-3 1-.7.7-1 1.6-1 2.7 0 .5 0 1 .2 1.4a3.2 3.2 0 002 2c.5.2 1.1.3 1.8.3zM227.7 47c1.4 0 2.7.2 3.9.7a8.6 8.6 0 015.1 5.2 12.1 12.1 0 01.7 5.3l-.2.7-.4.3-.6.1h-14c.2 2.3.8 4 1.9 5.1 1 1 2.5 1.6 4.3 1.6.9 0 1.7 0 2.3-.3l1.7-.7 1.2-.6c.4-.2.7-.4 1-.4.3 0 .5 0 .6.2.2 0 .3.2.5.4l1.5 2a9 9 0 01-2 1.7 11.4 11.4 0 01-4.8 1.8l-2.5.1c-1.5 0-3-.2-4.3-.8a9.8 9.8 0 01-3.6-2.3c-1-1-1.8-2.2-2.3-3.7a14.6 14.6 0 01-.1-9.6c.5-1.4 1.2-2.6 2.1-3.6a11.2 11.2 0 018-3.3zm0 3.9a5 5 0 00-3.6 1.3c-1 1-1.5 2.2-1.8 3.8h10.2c0-.7 0-1.3-.2-2-.2-.6-.5-1.1-1-1.6-.3-.5-.8-.9-1.4-1.1a5 5 0 00-2.1-.4z"/>
    </g>
    <g transform="translate(507 281)">
      <rect width="50" height="22" x="3.5" y="2.5" fill="#3AC" stroke="#3AC" stroke-width="5" rx="11"/>
      <path fill="#FFF" fill-rule="nonzero" d="M15.3 10.1h2.2v1.7h.1c.2-.6.4-1 .9-1.4a3 3 0 011.8-.5c1 0 1.8.3 2.4 1 .5.7.8 1.5.8 2.6V20h-2.2v-6.2c0-.6-.2-1-.5-1.4-.3-.4-.8-.5-1.4-.5-.5 0-1 .1-1.3.5a2 2 0 00-.5 1.4V20h-2.3v-9.9zM25 9V7h5.4v9.8c0 .4.1.7.3.9.2.2.5.3.9.3h3v2h-3.2c-1 0-1.8-.3-2.4-.8-.6-.6-.8-1.4-.8-2.4V9h-3.2zm11 1.1h2.2v1.7h.2c.1-.6.4-1 .9-1.4A3 3 0 0141 10c.5 0 1 .1 1.4.3.4.2.7.4 1 .8.3.3.5.7.7 1.2.2.5.3 1 .3 1.6v2.5c0 .6-.1 1.1-.3 1.6-.2.5-.4.9-.7 1.2-.3.4-.6.6-1 .8l-1.4.3a3 3 0 01-1.8-.5c-.5-.4-.8-.8-.9-1.4h-.2V18.9a18.5 18.5 0 00.1 1.1v3H36V10.2zm2.3 3.7v2.5c0 .5.2 1 .5 1.4.4.3.9.5 1.4.5.7 0 1.1-.2 1.5-.5.3-.4.5-.9.5-1.5v-2.4c0-.6-.2-1-.5-1.4a2 2 0 00-1.5-.5c-.5 0-1 .1-1.3.5a2 2 0 00-.6 1.4z"/>
    </g>
    <g transform="translate(646 376)">
      <rect width="197" height="43" x="2.5" y="2.5" fill="#C3E7F1" stroke="#3AC" stroke-width="5" rx="12"/>
      <path fill="#3D4251" fill-rule="nonzero" d="M22.3 30.1h7.5V33h-11V14.2h3.5v16zM42.5 33h-1.4l-.7-.1c-.2-.1-.3-.3-.4-.6l-.3-1a11 11 0 01-2 1.4l-1.1.4a6.6 6.6 0 01-2.9-.1c-.4-.2-.9-.4-1.2-.7l-.8-1.1a4 4 0 01-.3-1.6c0-.5.1-1 .4-1.5.3-.5.7-1 1.3-1.3.6-.4 1.5-.7 2.5-1 1-.3 2.3-.4 3.8-.4v-.8c0-1-.2-1.6-.6-2-.3-.4-.9-.7-1.6-.7a4 4 0 00-2.2.6l-.7.5-.7.1a1 1 0 01-.6-.1l-.4-.5-.6-1a8 8 0 015.6-2c.8 0 1.5 0 2 .3a4.4 4.4 0 012.6 2.7c.2.6.3 1.3.3 2V33zm-6.2-2h.9a3.4 3.4 0 001.5-.8l.7-.6v-2.3l-2.3.2-1.6.5a2 2 0 00-.8.6l-.2.8c0 .6.2 1 .5 1.2.3.3.8.4 1.3.4zm9.4 2V19.7h2c.4 0 .6.2.8.5l.2 1.1a7.3 7.3 0 011.8-1.3 4.8 4.8 0 012.3-.5c.7 0 1.4 0 2 .3l1.4 1a6.8 6.8 0 011.2 3.6v8.6H54v-8.5c0-.8-.2-1.4-.6-1.9-.3-.4-1-.7-1.7-.7-.5 0-1 .2-1.5.4l-1.4 1V33h-3.2zM65 19.4c.6 0 1.1 0 1.6.2l1.4.5h3.8v1.2l-.1.5-.6.2-1.2.2a4.1 4.1 0 01.3 1.5 4 4 0 01-1.5 3.2 5 5 0 01-1.6.9 6.8 6.8 0 01-3.6.1c-.4.3-.6.5-.6.9 0 .2.1.4.4.6l1 .2 1.3.1a28.6 28.6 0 013.2.3l1.3.5c.4.3.8.6 1 1 .3.4.4 1 .4 1.6a4.6 4.6 0 01-1.7 3.2l-2 1a10.5 10.5 0 01-5.4.1c-.8-.2-1.4-.5-1.9-.8-.5-.3-.8-.7-1-1.1-.3-.4-.4-.9-.4-1.3 0-.7.2-1.2.5-1.6a4 4 0 011.6-1l-.8-.7c-.2-.3-.3-.7-.3-1.2l.1-.6.4-.7.5-.6.8-.5c-.7-.3-1.2-.8-1.6-1.4-.4-.6-.6-1.3-.6-2.2a4 4 0 011.5-3.1 5 5 0 011.7-.9c.6-.2 1.3-.3 2-.3zm3.5 14.2c0-.3 0-.5-.2-.6l-.7-.4-.9-.2a17.4 17.4 0 00-2.4-.2l-1.2-.1-1 .7-.2 1 .1.6c.1.2.3.4.6.5.2.2.6.3 1 .4l1.5.1 1.5-.1 1.1-.4.6-.6.2-.7zM65.1 26c.4 0 .7 0 1-.2.3 0 .6-.2.8-.4l.4-.7.2-.9a2 2 0 00-.6-1.5c-.4-.4-1-.6-1.8-.6s-1.4.2-1.8.6a2 2 0 00-.6 1.5c0 .3 0 .6.2.9a2 2 0 001.2 1.1c.3.2.6.2 1 .2zm11.8-6.3V28c0 .9.2 1.5.5 2 .4.4 1 .6 1.7.6.6 0 1.1-.1 1.6-.4.5-.2 1-.6 1.4-1v-9.6h3.2V33h-2c-.4 0-.7-.2-.8-.6l-.2-1-.9.7a5.2 5.2 0 01-3.2 1.1c-.8 0-1.4-.1-2-.4-.5-.2-1-.6-1.4-1-.4-.5-.7-1-.9-1.6l-.2-2v-8.5h3.2zM99.2 33h-1.5l-.7-.1c-.2-.1-.3-.3-.4-.6l-.3-1a11 11 0 01-2 1.4l-1 .4a6.6 6.6 0 01-3-.1l-1.2-.7-.8-1.1a4 4 0 01-.3-1.6c0-.5.2-1 .4-1.5.3-.5.7-1 1.4-1.3.6-.4 1.4-.7 2.4-1 1-.3 2.3-.4 3.8-.4v-.8c0-1-.2-1.6-.5-2-.4-.4-1-.7-1.7-.7a4 4 0 00-2.2.6l-.7.5-.7.1a1 1 0 01-.6-.1c-.1-.1-.3-.3-.3-.5l-.6-1a8 8 0 015.5-2c.8 0 1.5 0 2.1.3a4.4 4.4 0 012.5 2.7c.3.6.4 1.3.4 2V33zm-6.3-2h1a3.4 3.4 0 001.4-.8l.7-.6v-2.3l-2.3.2-1.5.5a2 2 0 00-.8.6c-.2.3-.3.5-.3.8 0 .6.2 1 .5 1.2.3.3.8.4 1.3.4zm14-11.6c.6 0 1.1 0 1.6.2l1.4.5h3.9v1.2c0 .2 0 .4-.2.5l-.5.2-1.2.2a4.1 4.1 0 01.2 1.5 4 4 0 01-1.4 3.2 5 5 0 01-1.7.9 6.8 6.8 0 01-3.5.1c-.5.3-.7.5-.7.9 0 .2.2.4.4.6l1 .2 1.4.1a28.6 28.6 0 013.1.3l1.4.5 1 1c.2.4.3 1 .3 1.6 0 .5-.1 1.1-.4 1.7-.3.5-.7 1-1.3 1.5-.5.4-1.2.7-2 1a10.5 10.5 0 01-5.4.1c-.7-.2-1.3-.5-1.8-.8-.5-.3-.9-.7-1.1-1.1-.3-.4-.4-.9-.4-1.3 0-.7.2-1.2.6-1.6a4 4 0 011.6-1c-.4-.2-.6-.4-.8-.7-.2-.3-.3-.7-.3-1.2V29l.4-.7.5-.6.8-.5c-.7-.3-1.2-.8-1.6-1.4-.4-.6-.6-1.3-.6-2.2a4 4 0 011.5-3.1 5 5 0 011.7-.9l2.1-.3zm3.6 14.2c0-.3-.1-.5-.3-.6-.1-.2-.3-.3-.6-.4l-1-.2a17.4 17.4 0 00-2.3-.2l-1.3-.1-.9.7c-.2.3-.3.6-.3 1 0 .2 0 .4.2.6 0 .2.3.4.5.5l1 .4 1.5.1 1.6-.1c.4-.1.8-.2 1-.4l.7-.6.2-.7zm-3.6-7.6c.4 0 .8 0 1-.2.4 0 .6-.2.8-.4l.5-.7.1-.9a2 2 0 00-.6-1.5c-.4-.4-1-.6-1.8-.6s-1.3.2-1.7.6a2 2 0 00-.6 1.5l.1.9a2 2 0 001.2 1.1c.3.2.6.2 1 .2zm14.4-6.5c.8 0 1.6 0 2.3.4a5 5 0 013 3 7.2 7.2 0 01.4 3.2v.4l-.3.2a1 1 0 01-.4 0h-8.2c0 1.4.4 2.4 1 3 .7.7 1.6 1 2.6 1 .5 0 1 0 1.4-.2.4 0 .7-.2 1-.4l.7-.4.6-.2.4.1.2.2 1 1.2c-.4.4-.8.8-1.3 1a6.7 6.7 0 01-2.8 1c-.5.2-1 .2-1.5.2-.9 0-1.7-.2-2.5-.5s-1.5-.7-2.1-1.3c-.6-.6-1-1.4-1.4-2.3a8.7 8.7 0 010-5.6c.2-.8.6-1.5 1.2-2.1a6 6 0 012-1.4c.8-.4 1.7-.5 2.7-.5zm0 2.3a3 3 0 00-2.1.7 4 4 0 00-1 2.3h6c0-.4 0-.8-.2-1.2l-.5-1-.9-.6a3 3 0 00-1.2-.2zM144.2 33c-.4 0-.7-.2-.8-.6l-.3-1.3a8 8 0 01-.9.9 5.5 5.5 0 01-2 1l-1.4.2a4.4 4.4 0 01-3.6-1.8c-.4-.6-.7-1.3-1-2.1a10.8 10.8 0 010-5.7c.3-.8.7-1.6 1.2-2.2.5-.6 1.1-1.1 1.8-1.5.7-.3 1.5-.5 2.4-.5a4.6 4.6 0 013.3 1.3v-7h3.2V33h-2zm-4.3-2.4c.7 0 1.2 0 1.7-.4a5 5 0 001.3-1.2v-6a3.2 3.2 0 00-2.5-1.1c-.5 0-1 0-1.4.2-.4.2-.7.5-1 .9a4 4 0 00-.6 1.4 9 9 0 000 4l.5 1.3c.2.3.5.6.9.7.3.2.7.2 1.1.2zM160 33h-1.5l-.7-.1c-.2-.1-.3-.3-.4-.6l-.3-1a11 11 0 01-2 1.4l-1 .4a6.6 6.6 0 01-3-.1l-1.2-.7-.8-1.1a4 4 0 01-.3-1.6c0-.5.2-1 .4-1.5.3-.5.7-1 1.4-1.3.6-.4 1.4-.7 2.4-1 1-.3 2.3-.4 3.8-.4v-.8c0-1-.2-1.6-.5-2-.4-.4-1-.7-1.7-.7a4 4 0 00-2.2.6l-.7.5-.7.1a1 1 0 01-.6-.1l-.3-.5-.6-1a8 8 0 015.5-2c.8 0 1.5 0 2.1.3a4.4 4.4 0 012.5 2.7c.3.6.4 1.3.4 2V33zm-6.3-2h1a3.4 3.4 0 001.4-.8l.7-.6v-2.3l-2.3.2-1.5.5a2 2 0 00-.8.6c-.2.3-.3.5-.3.8 0 .6.2 1 .5 1.2.3.3.8.4 1.3.4zm13.8 2.2c-1.2 0-2-.3-2.7-1-.6-.6-.9-1.5-.9-2.7v-7.4h-1.4c-.1 0-.3 0-.4-.2l-.2-.5V20l2.2-.3.6-3.7.3-.4.4-.1h1.7v4.2h3.5V22h-3.5v7.2c0 .4.1.7.3 1 .2.2.5.3.9.3h.5a2.8 2.8 0 00.6-.3l.2-.1h.2l.2.3 1 1.5-1.6 1a6 6 0 01-1.9.2zm16.1-.2h-1.4l-.7-.1c-.2-.1-.3-.3-.4-.6l-.3-1a11 11 0 01-2 1.4l-1.1.4a6.6 6.6 0 01-2.9-.1c-.4-.2-.9-.4-1.2-.7l-.8-1.1a4 4 0 01-.3-1.6c0-.5.2-1 .4-1.5.3-.5.7-1 1.3-1.3.7-.4 1.5-.7 2.5-1 1-.3 2.3-.4 3.8-.4v-.8c0-1-.2-1.6-.6-2-.3-.4-.9-.7-1.6-.7a4 4 0 00-2.2.6l-.7.5-.7.1a1 1 0 01-.6-.1l-.4-.5-.6-1a8 8 0 015.6-2c.8 0 1.5 0 2 .3a4.4 4.4 0 012.6 2.7c.2.6.3 1.3.3 2V33zm-6.2-2h.9a3.4 3.4 0 001.5-.8l.7-.6v-2.3l-2.3.2-1.6.5a2 2 0 00-.8.6l-.2.8c0 .6.2 1 .5 1.2.3.3.8.4 1.3.4z"/>
    </g>
    <g transform="translate(646 322)">
      <rect width="197" height="43" x="2.5" y="2.5" fill="#C3E7F1" stroke="#3AC" stroke-width="5" rx="12"/>
      <path fill="#3D4251" fill-rule="nonzero" d="M32.6 28.6c.2 0 .4 0 .5.2l1.4 1.5c-.8 1-1.7 1.7-2.8 2.2-1.1.5-2.5.7-4 .7-1.4 0-2.7-.2-3.8-.7a8.3 8.3 0 01-4.7-5 11.4 11.4 0 01.1-7.8 8.9 8.9 0 015-5 10.5 10.5 0 017.6 0c1 .4 2 1 2.7 1.7l-1.2 1.7s-.1.2-.3.2l-.4.2a1 1 0 01-.6-.3 7.6 7.6 0 00-2-1c-.5-.2-1.1-.2-1.9-.2a5.4 5.4 0 00-4.3 1.8 6 6 0 00-1.3 2 8 8 0 00-.4 2.8c0 1 .1 2 .4 2.8.3.8.7 1.5 1.2 2.1.5.6 1.1 1 1.8 1.3.7.3 1.5.4 2.3.4h1.3a5.5 5.5 0 002-.7l.8-.7.3-.2h.3zm10-9.1c1 0 2 .1 2.7.4a5.8 5.8 0 013.4 3.6c.4.8.5 1.8.5 2.8 0 1-.1 2-.5 2.9a5.8 5.8 0 01-3.4 3.5c-.8.3-1.7.5-2.7.5-1 0-1.9-.2-2.7-.5a5.8 5.8 0 01-3.4-3.5c-.3-.9-.5-1.8-.5-2.9 0-1 .2-2 .5-2.8a5.9 5.9 0 013.4-3.5c.8-.4 1.7-.5 2.7-.5zm0 11.2c1.1 0 2-.3 2.5-1 .5-.8.8-2 .8-3.4s-.3-2.5-.8-3.3c-.5-.7-1.4-1-2.5-1s-2 .3-2.5 1c-.5.8-.8 1.9-.8 3.3 0 1.5.3 2.6.8 3.3.6.8 1.4 1.1 2.5 1.1zm9.1 2.3V19.7h2c.4 0 .7.2.8.5l.2 1.1a7.3 7.3 0 011.8-1.3 4.8 4.8 0 012.3-.5c.8 0 1.4 0 2 .3l1.4 1c.4.5.7 1 .8 1.7.2.6.3 1.3.3 2V33h-3.2v-8.5c0-.8-.2-1.4-.5-1.9-.4-.4-1-.7-1.7-.7-.6 0-1.1.2-1.6.4l-1.4 1V33h-3.2zm15.4 0V22l-1.2-.1-.6-.3a.7.7 0 01-.2-.5v-1.3h2v-.4c0-.9.1-1.6.4-2.3.2-.7.6-1.3 1.2-1.8.5-.5 1.2-1 2-1.2a9 9 0 014.1-.4c.4 0 .7 0 1 .2v1.6c-.1.2-.2.4-.4.4a4 4 0 01-.8 0c-.8 0-1.5.1-2 .3-.6.1-1 .3-1.4.6-.4.3-.6.7-.8 1.1l-.2 1.6v.3h8.2V33h-3.2V22h-5v11h-3.1zm19.6-13.6c.6 0 1.1 0 1.7.2l1.3.5h3.9v1.2c0 .2 0 .4-.2.5l-.5.2-1.2.2a4.1 4.1 0 01.3 1.5 4 4 0 01-1.5 3.2 5 5 0 01-1.7.9 6.8 6.8 0 01-3.5.1c-.4.3-.7.5-.7.9 0 .2.2.4.4.6l1 .2 1.4.1a28.6 28.6 0 013.1.3l1.4.5 1 1c.2.4.3 1 .3 1.6 0 .5-.1 1.1-.4 1.7-.3.5-.7 1-1.3 1.5-.5.4-1.2.7-2 1a10.5 10.5 0 01-5.4.1c-.7-.2-1.3-.5-1.8-.8-.5-.3-.9-.7-1.1-1.1-.3-.4-.4-.9-.4-1.3 0-.7.2-1.2.6-1.6a4 4 0 011.6-1l-.8-.7c-.2-.3-.3-.7-.3-1.2V29l.4-.7.6-.6.7-.5c-.7-.3-1.2-.8-1.6-1.4-.4-.6-.6-1.3-.6-2.2a4 4 0 011.5-3.1 5 5 0 011.7-.9l2.1-.3zm3.6 14.2c0-.3-.1-.5-.3-.6-.1-.2-.3-.3-.6-.4l-1-.2a17.4 17.4 0 00-2.3-.2l-1.3-.1-.9.7c-.2.3-.3.6-.3 1 0 .2 0 .4.2.6l.5.5 1 .4 1.5.1 1.6-.1c.4-.1.8-.2 1-.4l.7-.6.2-.7zM86.7 26c.4 0 .8 0 1-.2.4 0 .6-.2.8-.4l.5-.7.1-.9a2 2 0 00-.6-1.5c-.4-.4-1-.6-1.8-.6-.7 0-1.3.2-1.7.6a2 2 0 00-.6 1.5l.1.9a2 2 0 001.2 1.1c.3.2.6.2 1 .2zm20.8-12a5 5 0 013.6 1.3 4.5 4.5 0 011.4 2.9l-2 .4h-.2l-.4-.1a.8.8 0 01-.2-.4l-.3-.6-.5-.6a2 2 0 00-1.4-.5l-1 .2a2.2 2.2 0 00-1.2 1.3l-.1.9a3.3 3.3 0 00.3 1.4l.5.8.7.8 5 5.2a9.1 9.1 0 001-3.6l.2-.4c.2-.2.3-.2.5-.2h2a11.4 11.4 0 01-1.8 6.1l3.9 4.1h-3.6a1.4 1.4 0 01-.7-.3l-.3-.3-1.3-1.3a9.8 9.8 0 01-6 2.1 6.3 6.3 0 01-4-1.4c-.6-.5-1-1-1.4-1.7a5 5 0 01-.5-2.3c0-.6.1-1.1.3-1.6.2-.6.5-1 .8-1.5a7.9 7.9 0 012.7-2.2c-.4-.6-.8-1.2-1-1.9l-.3-1.8c0-.7.1-1.3.4-1.9.2-.5.5-1 1-1.5a5 5 0 011.7-1c.6-.3 1.4-.4 2.2-.4zM103 27.6c0 .4 0 .9.2 1.3a2.8 2.8 0 001.7 1.5c.4.2.8.2 1.2.2a5.8 5.8 0 003.8-1.3l-5-5c-.6.4-1.1.9-1.4 1.4-.4.6-.5 1.2-.5 1.9zm30.8-2.4a10.6 10.6 0 01.8 1.8 29.3 29.3 0 01.8-1.8l5.5-10.4.3-.4.2-.1h.3l.4-.1h2.6V33h-3V20.9a15.4 15.4 0 010-1.6L136.1 30l-.5.5c-.3.2-.5.2-.8.2h-.5c-.2 0-.5 0-.7-.2l-.5-.5-5.7-10.7a11.5 11.5 0 010 1.6V33h-3V14.2h3.3l.3.2.2.4 5.6 10.4zm20-5.7c1 0 1.7 0 2.4.4a5 5 0 013 3 7.2 7.2 0 01.4 3.2l-.1.4-.2.2a1 1 0 01-.4 0h-8.2c0 1.4.4 2.4 1 3 .7.7 1.6 1 2.6 1 .5 0 1 0 1.4-.2a23 23 0 001.7-.8l.6-.2.3.1.3.2 1 1.2c-.4.4-.8.8-1.3 1a6.7 6.7 0 01-2.8 1c-.5.2-1 .2-1.5.2-.9 0-1.8-.2-2.6-.5s-1.5-.7-2-1.3c-.6-.6-1-1.4-1.4-2.3a8.7 8.7 0 01-.1-5.6 6 6 0 013.3-3.5c.8-.4 1.7-.5 2.7-.5zm.1 2.3a3 3 0 00-2.2.7 4 4 0 00-1 2.3h6l-.1-1.2-.5-1-1-.6a3 3 0 00-1.2-.2zm12.7 11.4c-1.1 0-2-.3-2.6-1-.7-.6-1-1.5-1-2.7v-7.4h-1.3c-.2 0-.3 0-.5-.2l-.2-.5V20l2.2-.3.7-3.7c0-.1 0-.3.2-.4l.5-.1h1.6v4.2h3.6V22h-3.6v7.2c0 .4.2.7.4 1 .2.2.4.3.8.3h.5a2.8 2.8 0 00.6-.3l.2-.1h.3l.2.3 1 1.5-1.7 1a6 6 0 01-1.9.2zm16.2-.2h-1.5l-.7-.1c-.2-.1-.3-.3-.4-.6l-.3-1a11 11 0 01-2 1.4l-1 .4a6.6 6.6 0 01-3-.1l-1.2-.7-.8-1.1a4 4 0 01-.2-1.6c0-.5 0-1 .4-1.5.2-.5.7-1 1.3-1.3.6-.4 1.4-.7 2.4-1 1-.3 2.3-.4 3.8-.4v-.8c0-1-.2-1.6-.5-2-.4-.4-1-.7-1.7-.7a4 4 0 00-2.2.6l-.7.5-.7.1a1 1 0 01-.6-.1l-.3-.5-.6-1a8 8 0 015.5-2c.8 0 1.5 0 2.1.3a4.4 4.4 0 012.5 2.7c.3.6.4 1.3.4 2V33zm-6.3-2h1a3.4 3.4 0 001.4-.8l.7-.6v-2.3l-2.3.2-1.5.5a2 2 0 00-.8.6c-.2.3-.3.5-.3.8 0 .6.2 1 .5 1.2.4.3.8.4 1.3.4z"/>
    </g>
    <g transform="translate(407 729)">
      <rect width="257" height="129" x="2.5" y="2.5" fill="#D7CCF4" stroke="#8978B5" stroke-width="5" rx="12"/>
      <path fill="#3D4251" fill-rule="nonzero" d="M124 63c0 2.4-.4 4.6-1.2 6.5a14.8 14.8 0 01-8.3 8.3c-2 .8-4.2 1.2-6.6 1.2H95.8V47.2h12.1c2.4 0 4.6.4 6.6 1.2a14.9 14.9 0 018.3 8.3c.8 2 1.2 4 1.2 6.4zm-6 0c0-1.7-.3-3.2-.7-4.6a10 10 0 00-2-3.5c-1-1-2-1.7-3.2-2.2-1.2-.5-2.6-.8-4.2-.8h-6.2v22.4h6.2c1.6 0 3-.3 4.2-.8a8.6 8.6 0 003.2-2.2 10 10 0 002-3.5c.4-1.4.7-3 .7-4.7zm20-7c1.7 0 3.2.3 4.6.9a9.9 9.9 0 015.7 6c.6 1.4.8 3 .8 4.8a14 14 0 01-.8 4.8c-.5 1.4-1.3 2.7-2.2 3.7-1 1-2.2 1.8-3.5 2.3-1.4.6-3 .8-4.6.8-1.7 0-3.2-.2-4.6-.8a9.8 9.8 0 01-5.8-6c-.5-1.4-.8-3-.8-4.8 0-1.8.3-3.4.8-4.8a10 10 0 015.8-6c1.4-.6 2.9-.8 4.6-.8zm0 19.2c1.9 0 3.3-.7 4.2-2a9.5 9.5 0 001.3-5.5c0-2.4-.4-4.3-1.3-5.6-1-1.2-2.3-1.9-4.2-1.9-2 0-3.3.7-4.2 2a9.5 9.5 0 00-1.4 5.5c0 2.4.5 4.3 1.4 5.5.9 1.3 2.3 2 4.2 2zm31.2-14l-.4.5a1 1 0 01-.7.2c-.3 0-.6-.1-.8-.3a26.2 26.2 0 00-2.3-1.1 6 6 0 00-1.9-.3c-1 0-1.8.2-2.5.5-.7.4-1.3.9-1.8 1.5-.4.7-.8 1.4-1 2.4a12.2 12.2 0 000 6.3c.3 1 .6 1.7 1.1 2.3.5.7 1 1.2 1.8 1.5.7.3 1.4.5 2.3.5a5.8 5.8 0 003.5-1l1-.7c.2-.2.5-.4.8-.4.5 0 .8.2 1 .6l1.6 2a9.8 9.8 0 01-4.2 2.8l-2.3.7-2.4.1a10 10 0 01-4-.8 9.2 9.2 0 01-3.2-2.2 11 11 0 01-2.2-3.7c-.5-1.4-.8-3-.8-5 0-1.6.3-3.1.8-4.5.4-1.5 1.1-2.7 2-3.7 1-1 2.1-1.9 3.5-2.4 1.4-.6 3-1 4.7-1a10.8 10.8 0 017.9 3.1l-1.5 2.1z"/>
    </g>
    <g transform="translate(775 799)">
      <rect width="173" height="59" x="2.5" y="2.5" fill="#D7CCF4" stroke="#8978B5" stroke-width="5" rx="12"/>
      <path fill="#3D4251" fill-rule="nonzero" d="M51.4 17.8v3h-9v5.6h7.1v2.9h-7V35h9v3H38.6V17.8h12.7zM58 30.6l-4.7-7h3.3l.6.1.3.4 3 4.8a4 4 0 01.4-1l2.5-3.7c0-.2.2-.4.3-.4l.5-.2h3.1l-4.7 6.8 5 7.6H64a1 1 0 01-.6-.2l-.4-.4-3-5-.4.8-2.7 4.2-.4.4-.5.2H53l4.9-7.4zm23 7.4h-1.6l-.8-.1-.4-.6-.3-1a11.9 11.9 0 01-2.1 1.4l-1.2.4a7.2 7.2 0 01-3.1-.1c-.5-.2-1-.4-1.3-.8-.4-.3-.7-.7-.9-1.2-.2-.5-.3-1-.3-1.7 0-.5.1-1 .4-1.6.3-.5.8-1 1.4-1.4a9 9 0 012.7-1c1-.3 2.5-.5 4-.5v-.9c0-1-.1-1.6-.5-2.1s-1-.7-1.8-.7a4.3 4.3 0 00-2.4.6l-.7.5-.8.2a1 1 0 01-.6-.2l-.4-.5-.6-1a8.5 8.5 0 016-2.3c.8 0 1.5.1 2.2.4a4.8 4.8 0 012.7 2.9c.2.7.4 1.4.4 2.2V38zM74 35.8h1a3.7 3.7 0 001.6-.8l.8-.7v-2.4L75 32l-1.7.5c-.4.2-.7.4-.8.7-.2.3-.3.5-.3.9 0 .6.2 1 .5 1.3.4.2.9.3 1.4.3zM84.3 38V23.6h2c.5 0 .8.2 1 .7l.2 1 .8-.7a5 5 0 011.9-1l1.2-.2c.9 0 1.6.3 2.2.7.6.5 1 1.2 1.3 2a4.4 4.4 0 012-2 6.2 6.2 0 014.8-.3 4 4 0 011.5 1l1 1.7.2 2.4V38H101v-9.1c0-1-.2-1.6-.6-2.1-.4-.5-1-.7-1.8-.7-.3 0-.7 0-1 .2a2.4 2.4 0 00-1.3 1.4l-.2 1.2V38h-3.5v-9.1c0-1-.2-1.7-.6-2.1-.3-.5-1-.7-1.7-.7-.5 0-1 .1-1.4.4-.4.2-.8.6-1.2 1V38h-3.4zm23.5 4.7v-19h2.7l.3.6.3 1.3c.6-.7 1.3-1.2 2-1.6a5.4 5.4 0 014.8-.1c.7.3 1.2.8 1.7 1.4.5.6.8 1.4 1 2.3a11.6 11.6 0 010 6c-.3 1-.7 1.8-1.2 2.5a5.7 5.7 0 01-6.6 1.7 5 5 0 01-1.5-1v5.9h-3.5zm6.8-16.6c-.8 0-1.4.2-1.9.5s-1 .7-1.4 1.2v6.5a3.3 3.3 0 002.8 1.3c.5 0 1-.1 1.4-.3.4-.2.8-.5 1-1 .4-.3.6-.8.8-1.4l.2-2.2c0-.8 0-1.5-.2-2.1-.1-.6-.3-1-.6-1.5-.2-.3-.5-.6-1-.7-.3-.2-.7-.3-1.1-.3zm12.8-8.9V38h-3.5V17.2h3.5zm9.8 6.2c1 0 1.7.2 2.5.4a5.5 5.5 0 013.3 3.4 7.7 7.7 0 01.4 3.4l-.1.4-.3.2a1 1 0 01-.4 0h-8.9c.1 1.5.5 2.6 1.2 3.3.7.7 1.6 1 2.8 1 .5 0 1 0 1.4-.2a24.7 24.7 0 001.9-.9l.7-.1h.3l.3.3 1 1.3c-.4.4-.8.8-1.3 1a7.2 7.2 0 01-3 1.2l-1.6.1c-1 0-2-.2-2.8-.5-.9-.3-1.6-.8-2.3-1.5a6.9 6.9 0 01-1.5-2.4 9.3 9.3 0 010-6c.3-1 .8-1.7 1.3-2.3a7.1 7.1 0 015-2zm0 2.5c-1 0-1.7.3-2.3.8-.6.6-1 1.4-1 2.5h6.4c0-.5 0-.9-.2-1.3a3 3 0 00-.5-1l-1-.8-1.3-.2z"/>
    </g>
    <g transform="translate(790 846)">
      <rect width="67" height="43" x="2.5" y="2.5" fill="#D7CCF4" stroke="#8978B5" stroke-width="5" rx="12"/>
      <path fill="#3D4251" fill-rule="nonzero" d="M31.3 22.6c0 1.4-.2 2.6-.7 3.8a8.7 8.7 0 01-5 5c-1.1.4-2.4.6-3.8.6h-7.2V13.2h7.2c1.4 0 2.7.2 3.9.7a8.8 8.8 0 014.9 4.9c.5 1.2.7 2.4.7 3.8zm-3.6 0c0-1-.1-2-.4-2.8-.3-.8-.7-1.5-1.2-2-.5-.6-1.1-1-1.9-1.4-.7-.3-1.5-.4-2.4-.4H18v13.2h3.7c.9 0 1.7-.1 2.4-.4.8-.3 1.4-.8 2-1.3a8.6 8.6 0 001.6-4.9zm11.8-4.1c1 0 2 .1 2.7.4a5.8 5.8 0 013.4 3.6c.4.8.5 1.8.5 2.8 0 1-.1 2-.5 2.9a5.8 5.8 0 01-3.4 3.5c-.8.3-1.7.5-2.7.5-1 0-1.9-.2-2.7-.5a5.8 5.8 0 01-3.4-3.5c-.3-.9-.5-1.8-.5-2.9 0-1 .2-2 .5-2.8a5.9 5.9 0 013.4-3.5c.8-.4 1.7-.5 2.7-.5zm0 11.2c1.1 0 2-.3 2.5-1 .5-.8.8-2 .8-3.4s-.3-2.5-.8-3.3c-.5-.7-1.4-1-2.5-1-1 0-2 .3-2.5 1-.5.8-.8 1.9-.8 3.3 0 1.5.3 2.6.8 3.3.6.8 1.4 1.1 2.5 1.1zM58 21.5l-.3.3h-.9a15.5 15.5 0 00-1.3-.8l-1.1-.1c-.6 0-1 .1-1.5.3-.4.2-.8.5-1 .9a4 4 0 00-.7 1.4l-.2 1.8c0 .7 0 1.3.2 1.9l.7 1.4c.3.4.6.7 1 .9.4.2 1 .3 1.4.3a3.4 3.4 0 002-.7c.3-.1.5-.2.6-.4l.6-.2c.2 0 .4.1.5.3l1 1.2a5.8 5.8 0 01-2.5 1.7l-1.4.4h-1.4a6 6 0 01-2.3-.4c-.7-.3-1.4-.7-2-1.3a8.4 8.4 0 01-1.8-5l.5-2.8c.3-.9.7-1.6 1.3-2.2.5-.6 1.2-1 2-1.4a7 7 0 012.8-.5c1 0 1.9.1 2.6.4.8.4 1.4.8 2 1.4l-.8 1.2z"/>
    </g>
    <g transform="translate(867 846)">
      <rect width="67" height="43" x="2.5" y="2.5" fill="#D7CCF4" stroke="#8978B5" stroke-width="5" rx="12"/>
      <path fill="#3D4251" fill-rule="nonzero" d="M31.3 22.6c0 1.4-.2 2.6-.7 3.8a8.7 8.7 0 01-5 5c-1.1.4-2.4.6-3.8.6h-7.2V13.2h7.2c1.4 0 2.7.2 3.9.7a8.8 8.8 0 014.9 4.9c.5 1.2.7 2.4.7 3.8zm-3.6 0c0-1-.1-2-.4-2.8-.3-.8-.7-1.5-1.2-2-.5-.6-1.1-1-1.9-1.4-.7-.3-1.5-.4-2.4-.4H18v13.2h3.7c.9 0 1.7-.1 2.4-.4.8-.3 1.4-.8 2-1.3a8.6 8.6 0 001.6-4.9zm11.8-4.1c1 0 2 .1 2.7.4a5.8 5.8 0 013.4 3.6c.4.8.5 1.8.5 2.8 0 1-.1 2-.5 2.9a5.8 5.8 0 01-3.4 3.5c-.8.3-1.7.5-2.7.5-1 0-1.9-.2-2.7-.5a5.8 5.8 0 01-3.4-3.5c-.3-.9-.5-1.8-.5-2.9 0-1 .2-2 .5-2.8a5.9 5.9 0 013.4-3.5c.8-.4 1.7-.5 2.7-.5zm0 11.2c1.1 0 2-.3 2.5-1 .5-.8.8-2 .8-3.4s-.3-2.5-.8-3.3c-.5-.7-1.4-1-2.5-1-1 0-2 .3-2.5 1-.5.8-.8 1.9-.8 3.3 0 1.5.3 2.6.8 3.3.6.8 1.4 1.1 2.5 1.1zM58 21.5l-.3.3h-.9a15.5 15.5 0 00-1.3-.8l-1.1-.1c-.6 0-1 .1-1.5.3-.4.2-.8.5-1 .9a4 4 0 00-.7 1.4l-.2 1.8c0 .7 0 1.3.2 1.9l.7 1.4c.3.4.6.7 1 .9.4.2 1 .3 1.4.3a3.4 3.4 0 002-.7c.3-.1.5-.2.6-.4l.6-.2c.2 0 .4.1.5.3l1 1.2a5.8 5.8 0 01-2.5 1.7l-1.4.4h-1.4a6 6 0 01-2.3-.4c-.7-.3-1.4-.7-2-1.3a8.4 8.4 0 01-1.8-5l.5-2.8c.3-.9.7-1.6 1.3-2.2.5-.6 1.2-1 2-1.4a7 7 0 012.8-.5c1 0 1.9.1 2.6.4.8.4 1.4.8 2 1.4l-.8 1.2z"/>
    </g>
    <g transform="translate(287 922)">
      <rect width="178" height="115" fill="#F2E7A6" stroke="#CDB217" stroke-linejoin="round" stroke-width="5" rx="12"/>
      <path fill="#3D4251" fill-rule="nonzero" d="M53.7 41.2V46H44v27h-6V46h-9.5v-4.8h25zm13 8.9c1.7 0 3.3.2 4.6.8a9.9 9.9 0 015.8 6c.5 1.4.8 3 .8 4.8a14 14 0 01-.8 4.8c-.5 1.4-1.3 2.7-2.2 3.7-1 1-2.2 1.8-3.6 2.3-1.3.6-2.9.8-4.5.8-1.7 0-3.3-.2-4.6-.8a9.8 9.8 0 01-5.8-6c-.6-1.4-.8-3-.8-4.8 0-1.8.2-3.4.8-4.8.5-1.5 1.3-2.7 2.2-3.7 1-1 2.2-1.8 3.6-2.3 1.3-.6 2.9-.8 4.6-.8zm0 19c2 0 3.3-.6 4.2-1.8a9.5 9.5 0 001.4-5.6c0-2.4-.5-4.3-1.4-5.6-.9-1.2-2.3-1.9-4.1-1.9-2 0-3.4.7-4.3 2a9.5 9.5 0 00-1.3 5.5c0 2.4.4 4.3 1.3 5.5 1 1.3 2.4 2 4.3 2zm21-28.8V59h1l.8-.1.7-.6 5.6-7c.2-.2.5-.5.8-.6.2-.2.6-.3 1-.3h5l-7 8.4-.7.9a5 5 0 01-1 .6l1 .8.6 1L103 73h-4.9c-.4 0-.8 0-1-.2-.3-.2-.6-.4-.8-.8l-5.8-8.5c-.2-.4-.4-.6-.6-.7l-1-.1h-1.3V73h-5.4V40.3h5.4zm28 9.8c1.5 0 2.8.2 4 .7a8.6 8.6 0 015 5.2 12.1 12.1 0 01.7 5.3c0 .3 0 .5-.2.7l-.3.3-.7.1h-13.9c.2 2.3.8 4 1.9 5.1 1 1 2.5 1.6 4.3 1.6.9 0 1.6 0 2.3-.3.6-.2 1.2-.4 1.6-.7l1.3-.6c.3-.2.7-.4 1-.4.2 0 .4 0 .6.2.2 0 .3.2.4.4l1.6 2a9 9 0 01-2 1.7 11.4 11.4 0 01-4.9 1.8l-2.4.1c-1.6 0-3-.2-4.4-.8a9.8 9.8 0 01-3.5-2.3c-1-1-1.8-2.2-2.4-3.7a14.6 14.6 0 010-9.6c.4-1.4 1.1-2.6 2-3.6a11.2 11.2 0 018-3.3zm.1 3.9a5 5 0 00-3.7 1.3c-.9 1-1.4 2.2-1.7 3.8h10.2c0-.7 0-1.3-.3-2-.2-.6-.5-1.1-.9-1.6-.3-.5-.8-.9-1.4-1.1a5 5 0 00-2.2-.4zM130 73V50.4h3.3c.7 0 1.2.4 1.4 1l.4 1.8a12.4 12.4 0 013-2.3 8.2 8.2 0 014-.8 8 8 0 013.3.6c1 .4 1.7 1 2.3 1.8.7.7 1.2 1.6 1.5 2.7.3 1 .5 2.2.5 3.4V73h-5.4V58.6c0-1.3-.4-2.4-1-3.2-.6-.7-1.6-1.1-2.9-1.1-1 0-1.8.2-2.6.6-.8.5-1.6 1-2.3 1.8V73h-5.5z"/>
    </g>
    <g transform="translate(334 909)">
      <rect width="75.3" height="23.5" x="3.8" y="1.8" fill="#CDB217" stroke="#CDB217" stroke-width="3.5" rx="11.8"/>
      <path fill="#FFF" fill-rule="nonzero" d="M12.7 13.8c0-.6 0-1.1.2-1.6s.4-.9.7-1.2a3 3 0 011.1-.8c.4-.2.9-.3 1.4-.3a3 3 0 011.8.5c.5.4.7.8.8 1.4h.2v-.6a5.6 5.6 0 010-1.1v-3H21V20h-2.2v-1.7h-.2c0 .6-.3 1-.8 1.4a3 3 0 01-1.8.5c-.5 0-1-.1-1.4-.3a3 3 0 01-1-.8c-.4-.3-.6-.7-.8-1.2l-.2-1.6v-2.5zm2.2 0v2.4c0 .6.2 1.1.6 1.5.3.3.8.5 1.4.5.6 0 1-.2 1.4-.5.4-.4.5-.9.5-1.4v-2.5c0-.6-.1-1-.5-1.4-.3-.4-.8-.5-1.4-.5a2 2 0 00-1.4.5 2 2 0 00-.6 1.4zm12.4 6.4l-1.8-.3a4 4 0 01-1.3-.8l-.9-1.2a4 4 0 01-.3-1.6v-2.5c0-.6.1-1.1.3-1.6a3.5 3.5 0 012.2-2l1.8-.3 1.8.3c.5.2 1 .4 1.3.8.4.3.7.7.9 1.2.2.5.3 1 .3 1.6v2.5l-.3 1.6a3.5 3.5 0 01-2.2 2c-.5.2-1.1.3-1.8.3zm-2-4c0 .7.1 1.1.5 1.5.4.3.9.5 1.5.5a2 2 0 001.5-.5c.4-.4.6-.8.6-1.4v-2.5c0-.6-.2-1-.6-1.4a2 2 0 00-1.5-.5 2 2 0 00-1.5.5c-.4.4-.6.8-.6 1.4v2.5zm12.4 4l-1.8-.3c-.5-.2-1-.4-1.3-.8-.4-.3-.7-.7-.9-1.2a4 4 0 01-.3-1.6v-2.5c0-.6.1-1.1.3-1.6.2-.5.5-.9.9-1.2a4 4 0 011.3-.8 5.3 5.3 0 013.4 0 4 4 0 012.7 3.2h-2.2c-.1-.4-.3-.8-.7-1.1-.4-.3-.8-.4-1.4-.4-.6 0-1.1.1-1.5.5-.3.3-.5.8-.5 1.4v2.5c0 .6.2 1 .5 1.4.4.4.9.5 1.5.5.5 0 1-.1 1.4-.4.4-.3.6-.7.7-1.1H42c0 .5-.2 1-.5 1.4a4 4 0 01-2.2 1.8 5 5 0 01-1.6.3zM46 22V5h5v2.1h-2.8V20H51v2h-5zm8.4-4h3.5V12h-3v-2H60v7.8h2.9V20h-8.6v-2zm2.9-10.6c0-.3.1-.6.3-.8.3-.3.6-.4 1-.4h.4c.4 0 .7.1 1 .4.2.2.3.5.3.8 0 .4-.1.7-.3.9-.3.2-.6.3-1 .3h-.4c-.4 0-.7-.1-1-.3-.2-.2-.3-.5-.3-.9zM65.5 22v-2h2.8V7h-2.8v-2h5V22h-5z"/>
    </g>
    <g transform="translate(158 652)">
      <rect width="173" height="61" fill="#F2E7A6" stroke="#CDB217" stroke-linejoin="round" stroke-width="5" rx="12"/>
      <path fill="#3D4251" fill-rule="nonzero" d="M40.2 38.7h8.7V42H36.2V20.3h4v18.4zm17.6-12.3c1 0 1.9.1 2.7.4a5.9 5.9 0 013.5 3.6 8.3 8.3 0 01.4 3.6l-.1.5-.3.2h-9.9c.1 1.7.5 2.8 1.3 3.5a4 4 0 003 1.2 5 5 0 001.5-.3 26.5 26.5 0 002-1H63l.3.3 1 1.3c-.4.5-.8.9-1.3 1.2a7.7 7.7 0 01-3.3 1.2l-1.7.1c-1 0-2-.2-3-.5-1-.4-1.7-.9-2.4-1.6a7.4 7.4 0 01-1.6-2.6 10 10 0 010-6.5c.3-1 .8-1.7 1.4-2.4.6-.7 1.4-1.2 2.3-1.6 1-.4 2-.6 3.1-.6zm0 2.6c-1 0-1.8.3-2.4 1-.7.6-1 1.4-1.2 2.5h7c0-.4-.1-.9-.3-1.3 0-.4-.3-.8-.6-1.1-.2-.4-.6-.6-1-.8-.4-.2-.9-.3-1.4-.3zm13.3 5l-5-7.4h3.5l.6.1.4.4 3.2 5.1a4.2 4.2 0 01.5-1l2.6-4 .4-.5H81l-5 7.2 5.2 8.1h-3.5a1 1 0 01-.7-.2 2 2 0 01-.4-.5L73.4 36l-.3.9-3 4.4c0 .2-.2.3-.3.5l-.6.2h-3.3l5.2-8zm19-7.6c1 0 1.8.1 2.6.4a5.9 5.9 0 013.5 3.6 8.3 8.3 0 01.5 3.6l-.2.5-.2.2h-10c.2 1.7.6 2.8 1.3 3.5a4 4 0 003 1.2A5 5 0 0092 39c.4 0 .8-.2 1.2-.4l.8-.5.7-.2.4.1.3.3 1 1.3c-.3.5-.8.9-1.3 1.2a7.7 7.7 0 01-3.3 1.2l-1.7.1c-1 0-2-.2-3-.5-.9-.4-1.7-.9-2.4-1.6a7.4 7.4 0 01-1.6-2.6 10 10 0 010-6.5c.3-1 .8-1.7 1.4-2.4a7.7 7.7 0 015.4-2.2zm0 2.6c-1 0-1.9.3-2.5 1-.6.6-1 1.4-1.2 2.5h7c0-.4 0-.9-.2-1.3-.1-.4-.3-.8-.6-1.1-.3-.4-.6-.6-1-.8-.4-.2-1-.3-1.5-.3zm9.6 13V26.6h2.3c.5 0 .8.2 1 .7l.2 1.1.8-.8a5.4 5.4 0 012-1c.4-.2.9-.2 1.3-.2 1 0 1.8.2 2.4.8.6.5 1.1 1.2 1.4 2a4.7 4.7 0 012-2.2l1.5-.5a6.6 6.6 0 013.7.3c.7.2 1.2.6 1.7 1.1a5 5 0 011 1.8c.2.8.3 1.6.3 2.5V42h-3.7v-9.8c0-1-.2-1.7-.6-2.2-.4-.5-1-.8-1.9-.8l-1 .2a2.5 2.5 0 00-1.5 1.5l-.2 1.3V42h-3.7v-9.8c0-1-.2-1.8-.6-2.2-.5-.5-1-.8-1.9-.8a3 3 0 00-1.5.4 5 5 0 00-1.3 1.1V42h-3.7zm31.6-15.6c1 0 1.9.1 2.7.4a5.9 5.9 0 013.5 3.6 8.3 8.3 0 01.5 3.6l-.2.5-.2.2h-10c.1 1.7.6 2.8 1.3 3.5a4 4 0 003 1.2 5 5 0 001.5-.3 26.5 26.5 0 002-1h1.1l.3.3 1 1.3c-.3.5-.8.9-1.3 1.2a7.7 7.7 0 01-3.3 1.2l-1.7.1c-1 0-2-.2-3-.5-.9-.4-1.7-.9-2.4-1.6a7.4 7.4 0 01-1.6-2.6 10 10 0 010-6.5c.3-1 .8-1.7 1.4-2.4.7-.7 1.4-1.2 2.3-1.6 1-.4 2-.6 3.1-.6zm.1 2.6c-1 0-2 .3-2.5 1-.6.6-1 1.4-1.2 2.5h7c0-.4 0-.9-.2-1.3l-.6-1.1c-.3-.4-.6-.6-1-.8l-1.5-.3z"/>
    </g>
    <g transform="translate(179 638)">
      <rect width="116.5" height="23.5" x="4.8" y="1.8" fill="#CDB217" stroke="#CDB217" stroke-width="3.5" rx="11.8"/>
      <path fill="#FFF" fill-rule="nonzero" d="M14.6 13.8c0-.6 0-1.1.2-1.6s.4-.9.7-1.2a3 3 0 011.1-.8c.4-.2.9-.3 1.4-.3a3 3 0 011.8.5c.5.4.7.8.8 1.4h.2v-.6a5.6 5.6 0 010-1.1v-3H23V20h-2.2v-1.7h-.2c0 .6-.3 1-.8 1.4a3 3 0 01-1.8.5c-.5 0-1-.1-1.4-.3a3 3 0 01-1-.8c-.4-.3-.6-.7-.8-1.2l-.2-1.6v-2.5zm2.2 0v2.4c0 .6.2 1.1.6 1.5.3.3.8.5 1.4.5.6 0 1-.2 1.4-.5.4-.4.5-.9.5-1.4v-2.5c0-.6-.1-1-.5-1.4-.3-.4-.8-.5-1.4-.5a2 2 0 00-1.4.5 2 2 0 00-.6 1.4zm12.4 6.4l-1.8-.3a4 4 0 01-1.3-.8l-.9-1.2a4 4 0 01-.3-1.6v-2.5c0-.6.1-1.1.3-1.6a3.5 3.5 0 012.2-2l1.8-.3 1.8.3c.5.2 1 .4 1.3.8.4.3.7.7.9 1.2.2.5.3 1 .3 1.6v2.5l-.3 1.6a3.5 3.5 0 01-2.2 2c-.5.2-1.1.3-1.8.3zm-2-4c0 .7.1 1.1.5 1.5.4.3.9.5 1.5.5a2 2 0 001.5-.5c.4-.4.6-.8.6-1.4v-2.5c0-.6-.2-1-.6-1.4a2 2 0 00-1.5-.5 2 2 0 00-1.5.5c-.4.4-.6.8-.6 1.4v2.5zm12.4 4l-1.8-.3c-.5-.2-1-.4-1.3-.8-.4-.3-.7-.7-.9-1.2a4 4 0 01-.3-1.6v-2.5c0-.6.1-1.1.3-1.6.2-.5.5-.9.9-1.2a4 4 0 011.3-.8 5.3 5.3 0 013.4 0 4 4 0 012.7 3.2h-2.2c-.1-.4-.3-.8-.7-1.1-.4-.3-.8-.4-1.4-.4-.6 0-1.1.1-1.5.5-.3.3-.5.8-.5 1.4v2.5c0 .6.2 1 .5 1.4.4.4.9.5 1.5.5.5 0 1-.1 1.4-.4.4-.3.6-.7.7-1.1h2.2c0 .5-.2 1-.5 1.4a4 4 0 01-2.2 1.8 5 5 0 01-1.6.3zm8.2 1.8V5h5v2.1H50V20h2.8v2h-5zm8.4-4h3.5V12h-3v-2h5.2v7.8h2.9V20h-8.6v-2zM59 7.3c0-.3.1-.6.3-.8.3-.3.6-.4 1-.4h.4c.4 0 .7.1 1 .4.2.2.3.5.3.8 0 .4-.1.7-.3.9-.3.2-.6.3-1 .3h-.4c-.4 0-.7-.1-1-.3-.2-.2-.3-.5-.3-.9zM67.4 22v-2h2.8V7h-2.8v-2h5V22h-5zM79 18.4c0-.5.1-1 .4-1.3.3-.3.8-.4 1.3-.4s1 .1 1.3.4c.3.3.4.8.4 1.3s-.1 1-.4 1.3c-.3.3-.8.5-1.3.5s-1-.2-1.3-.5c-.3-.3-.4-.8-.4-1.3zM86.2 9V7h5.4v9.8c0 .4 0 .7.3.9.2.2.5.3.8.3h3v2h-3.2c-1 0-1.8-.3-2.3-.8-.6-.6-.9-1.4-.9-2.4V9h-3.1zM97 13.8c0-.6.1-1.1.3-1.6.2-.5.5-.9.9-1.2.3-.4.8-.6 1.3-.8.5-.2 1.1-.3 1.8-.3l1.8.3c.5.2 1 .4 1.3.8.4.3.7.7.9 1.2.2.5.3 1 .3 1.6v1.8h-6.4v.7c0 .6.2 1.1.6 1.5.3.4.9.6 1.5.6.5 0 .9-.1 1.2-.3.4-.1.6-.3.8-.6h2.2l-.5 1.1-1 .9-1.2.5a5.6 5.6 0 01-3.3 0c-.5-.3-1-.5-1.3-.9-.4-.3-.7-.7-.9-1.2a4 4 0 01-.3-1.6v-2.5zm2.2.3h4.2v-.3a2 2 0 00-.6-1.5 2 2 0 00-1.5-.6 2 2 0 00-1.5.6 2 2 0 00-.6 1.5v.3zm11.1.8L107 10h2.6l1.6 2.5.3.5v.2h.2V13l.1-.2.2-.3 1.7-2.5h2.5l-3.3 4.8 3.5 5.1h-2.6l-1.8-2.8a5.1 5.1 0 01-.3-.7h-.2v.2a2 2 0 01-.3.5l-1.9 2.8h-2.5l3.5-5.1z"/>
    </g>
    <g transform="translate(160 291.3)">
      <rect width="176" height="115" fill="#AAE2DC" stroke="#00BEAB" stroke-linejoin="round" stroke-width="5" rx="12"/>
      <path fill="#3D4251" fill-rule="nonzero" d="M25.4 38.2h4.8a2 2 0 012 1.3L39.6 59a26.2 26.2 0 011.4 4.5c.3-1.7.8-3.2 1.3-4.5l7.4-19.4.7-.9c.4-.3.8-.4 1.3-.4h4.8L43.6 70h-5.3L25.4 38.2zM69.1 47c1.7 0 3.2.2 4.6.8a9.9 9.9 0 015.7 6c.6 1.4.8 3 .8 4.8a14 14 0 01-.8 4.8 9.7 9.7 0 01-5.8 6c-1.3.6-2.8.8-4.5.8-1.7 0-3.2-.2-4.6-.8a9.8 9.8 0 01-5.8-6c-.5-1.4-.8-3-.8-4.8 0-1.8.3-3.4.8-4.8a10 10 0 015.8-6c1.4-.6 3-.8 4.6-.8zm0 19c1.9 0 3.3-.6 4.2-1.8a9.5 9.5 0 001.3-5.6c0-2.4-.4-4.3-1.3-5.6-1-1.2-2.3-1.9-4.2-1.9-1.9 0-3.3.7-4.2 2a9.5 9.5 0 00-1.4 5.5c0 2.4.5 4.3 1.4 5.5.9 1.3 2.3 2 4.2 2zm31.2-13.9l-.4.5a1 1 0 01-.7.2c-.3 0-.6-.1-.8-.3a26.2 26.2 0 00-2.3-1.1 6 6 0 00-1.9-.3c-1 0-1.7.2-2.5.5-.7.4-1.3.9-1.8 1.5-.4.7-.8 1.4-1 2.4a12.2 12.2 0 000 6.3c.3 1 .6 1.7 1.1 2.3.5.7 1 1.2 1.8 1.5.7.3 1.5.5 2.3.5a5.8 5.8 0 003.5-1l1-.7c.2-.2.5-.4.8-.4.5 0 .8.2 1 .6l1.6 2a9.8 9.8 0 01-4.2 2.8l-2.3.7-2.4.1a10 10 0 01-4-.8 9.2 9.2 0 01-3.2-2.2 11 11 0 01-2.1-3.7c-.6-1.4-.8-3-.8-5 0-1.6.2-3.1.7-4.5.5-1.5 1.2-2.7 2-3.7 1-1 2.1-1.9 3.5-2.4 1.4-.6 3-1 4.7-1a10.8 10.8 0 017.9 3.1l-1.5 2.1zM123.2 70h-2.5c-.5 0-.9 0-1.2-.2-.3-.2-.5-.5-.7-1l-.4-1.6a18.6 18.6 0 01-3.4 2.4l-1.9.6a11.3 11.3 0 01-4.8-.2c-.8-.3-1.5-.7-2.1-1.2-.6-.5-1-1.1-1.4-1.9-.3-.8-.5-1.7-.5-2.7 0-.8.3-1.7.7-2.5.5-.8 1.2-1.6 2.3-2.2 1-.7 2.4-1.2 4.1-1.7 1.7-.4 3.9-.7 6.5-.7v-1.4c0-1.5-.4-2.6-1-3.3-.6-.7-1.6-1.1-2.8-1.1a6.7 6.7 0 00-3.7 1l-1.2.7-1.2.3c-.4 0-.7 0-1-.3l-.6-.7-1-1.7c2.6-2.4 5.7-3.6 9.4-3.6a9 9 0 013.5.7 7.5 7.5 0 014.3 4.5c.4 1 .6 2.3.6 3.5V70zm-10.6-3.4l1.5-.1a5.8 5.8 0 002.6-1.3l1.2-1v-3.8c-1.6 0-3 .2-4 .4s-2 .4-2.6.7c-.6.3-1 .7-1.4 1.1-.2.4-.4.9-.4 1.4 0 .9.3 1.6.9 2 .5.4 1.3.6 2.2.6zm16 3.4V37.3h5.4v12.9c.9-1 2-1.7 3-2.3a8.7 8.7 0 017.4 0c1 .4 1.9 1.2 2.6 2.1.8 1 1.3 2.2 1.7 3.6a18 18 0 010 9.6c-.5 1.5-1.1 2.7-2 3.8a9 9 0 01-7 3.3 8 8 0 01-3.5-.8c-.5-.2-1-.5-1.3-.9l-1.2-1.2-.2 1.5c-.1.4-.3.7-.5.9l-.8.2h-3.6zM139 51.3c-1.1 0-2 .2-2.9.7-.8.5-1.5 1.2-2.2 2v10.1a5.2 5.2 0 004.4 2c.8 0 1.5 0 2.2-.4.7-.3 1.2-.7 1.7-1.4a7 7 0 001-2.4 15 15 0 000-6.8c-.1-.8-.4-1.6-.8-2.1-.4-.6-.9-1-1.4-1.3-.6-.3-1.3-.4-2-.4z"/>
    </g>
    <g transform="translate(190 280)">
      <rect width="103" height="20" x="5.5" y="2.5" fill="#00BEAB" stroke="#00BEAB" stroke-width="5" rx="10"/>
      <path fill="#FFF" fill-rule="nonzero" d="M13 9.1h2v1.7h.2c.2-.6.4-1 .9-1.4a3 3 0 011.8-.5c1 0 1.8.3 2.4 1 .5.7.8 1.5.8 2.6V19H19v-6.2c0-.6-.2-1-.5-1.4-.3-.4-.8-.5-1.3-.5-.6 0-1 .1-1.4.5a2 2 0 00-.5 1.4V19h-2.3V9.1zM22.4 8V6H28v9.8c0 .4.1.7.3.9.2.2.5.3.9.3h3v2h-3.2c-1 0-1.8-.3-2.4-.8-.6-.6-.8-1.4-.8-2.4V8h-3.2zm11 1.1h2.2v1.7h.2c.1-.6.4-1 .9-1.4a3 3 0 011.8-.5c.5 0 1 .1 1.4.3.4.2.7.4 1 .8.3.3.5.7.7 1.2.2.5.3 1 .3 1.6v2.5c0 .6-.1 1.1-.3 1.6-.2.5-.4.9-.7 1.2-.3.4-.6.6-1 .8l-1.5.3a3 3 0 01-1.7-.5c-.5-.4-.8-.8-.9-1.4h-.2V17.9a18.5 18.5 0 00.1 1.1v3h-2.2V9.2zm2.3 3.7v2.5c0 .5.2 1 .5 1.4.4.3.9.5 1.4.5.7 0 1.1-.2 1.5-.5.3-.4.5-.9.5-1.5v-2.4c0-.6-.2-1-.5-1.4a2 2 0 00-1.5-.5c-.5 0-1 .1-1.3.5a2 2 0 00-.6 1.4zm10.4 4.6c0-.5.2-1 .5-1.3.3-.3.7-.4 1.3-.4.5 0 1 .1 1.2.4.3.3.5.8.5 1.3s-.2 1-.5 1.3c-.3.3-.7.5-1.3.5-.5 0-.9-.2-1.2-.5-.3-.3-.5-.8-.5-1.3zm7.3-8.3h2.3l2.1 6.4a4.8 4.8 0 01.3 1.3v.6h.2a5 5 0 01.1-1.2l.2-.7 2-6.4H63L59.6 19H57l-3.5-9.9zm15 10c-.6 0-1.2 0-1.7-.2a4 4 0 01-1.4-.8c-.4-.4-.6-.8-.8-1.2a4 4 0 01-.4-1.6v-2.5c0-.6.1-1.1.4-1.6a3.5 3.5 0 012.2-2c.5-.2 1.1-.3 1.8-.3.6 0 1.2.1 1.7.3a3.5 3.5 0 012.2 2c.3.5.4 1 .4 1.6v2.5c0 .5-.1 1-.4 1.6a3.5 3.5 0 01-2.2 2c-.5.2-1 .3-1.8.3zm-2-3.8c0 .6.2 1 .5 1.4.4.3 1 .5 1.5.5a2 2 0 001.6-.5c.3-.4.5-.8.5-1.4v-2.5c0-.6-.2-1-.5-1.4a2 2 0 00-1.5-.5 2 2 0 00-1.6.5c-.3.4-.5.8-.5 1.4v2.5zM79 19.2c-.7 0-1.3-.1-1.8-.3-.5-.2-1-.4-1.4-.8a4 4 0 01-1.2-2.8v-2.5c0-.6.2-1.1.4-1.6s.5-.9.8-1.2a4 4 0 011.4-.8 5.3 5.3 0 013.4 0 4 4 0 012.7 3.2H81c0-.4-.3-.8-.7-1.1-.3-.3-.8-.4-1.3-.4-.7 0-1.2.1-1.5.5-.4.3-.6.8-.6 1.4v2.5c0 .6.2 1 .6 1.4.3.4.8.5 1.5.5.5 0 1-.1 1.3-.4.4-.3.6-.7.7-1.1h2.3l-.5 1.4a4 4 0 01-2.2 1.8 5 5 0 01-1.6.3zm5.7-3c0-.5 0-.9.2-1.3l.8-1c.3-.3.8-.5 1.2-.6.5-.2 1-.3 1.6-.3H91v-.8c0-.5-.2-.8-.5-1-.4-.4-.8-.5-1.4-.5-.5 0-1 0-1.3.3-.3.2-.5.4-.6.7H85a3 3 0 011.3-2l1.2-.6 1.6-.2c.6 0 1.2 0 1.7.2s1 .4 1.3.7a3 3 0 011.2 2.4V19H91v-2H91c-.1.7-.5 1.2-1 1.6-.6.4-1.3.6-2.1.6-1 0-1.8-.3-2.4-.8-.5-.6-.8-1.3-.8-2.2zm2.2-.2c0 .4.2.8.5 1 .3.3.7.4 1.3.4.6 0 1.2-.1 1.6-.5.5-.3.7-.7.7-1.2v-1.2h-2.5c-.5 0-.9.1-1.2.4-.2.2-.4.6-.4 1zm8.5-10h2.2v3a20 20 0 010 1.8h.1c.1-.6.4-1 .9-1.4a3 3 0 011.8-.5c.5 0 1 .1 1.4.3.4.2.7.4 1 .8.3.3.5.7.7 1.2.2.5.3 1 .3 1.6v2.5c0 .6-.1 1.1-.3 1.6-.2.5-.4.9-.7 1.2-.3.4-.6.6-1 .8l-1.5.3a3 3 0 01-1.7-.5c-.5-.4-.8-.8-.9-1.4h-.2V19h-2.1V6zm2.2 9.3c0 .5.2 1 .5 1.4.4.3.9.5 1.4.5.7 0 1.1-.2 1.5-.5.3-.4.5-.9.5-1.5v-2.4c0-.6-.2-1-.5-1.4a2 2 0 00-1.5-.5c-.5 0-1 .1-1.3.5a2 2 0 00-.6 1.4v2.5z"/>
    </g>
    <g transform="translate(73 388)">
      <rect width="149" height="48" fill="#AAE2DC" stroke="#00BEAB" stroke-linejoin="round" stroke-width="5" rx="12"/>
      <path fill="#3D4251" fill-rule="nonzero" d="M19.9 16.6a1 1 0 01-.4.4l-.4.1c-.2 0-.4 0-.6-.2a19.9 19.9 0 00-1.8-.9l-1.4-.2-1.3.2-.9.5a2 2 0 00-.5.8c-.2.2-.2.6-.2 1 0 .3.1.7.4 1 .2.3.5.6 1 .8l1.3.5a68 68 0 013.2 1.2c.5.2 1 .6 1.4 1a4.2 4.2 0 011.4 3.3c0 .9-.2 1.7-.5 2.4a5.5 5.5 0 01-3.3 3.2c-.8.3-1.7.5-2.8.5a9 9 0 01-6.1-2.5l1-1.6c0-.2.2-.3.3-.3l.5-.2.7.3a21.2 21.2 0 002 1.2c.5.2 1 .2 1.7.2 1 0 1.8-.2 2.3-.7.6-.4.9-1.1.9-2 0-.5-.2-.9-.4-1.2a3 3 0 00-1-.8l-1.4-.5A46.1 46.1 0 0112 23c-.6-.3-1-.6-1.4-1-.4-.4-.8-.9-1-1.4a5.6 5.6 0 011.2-6l2-1.2a8.8 8.8 0 015.7 0 7 7 0 012.3 1.6l-.8 1.6zm8 15.6c-1.1 0-2-.3-2.6-1-.7-.6-1-1.5-1-2.7v-7.4H23c-.2 0-.3 0-.5-.2l-.2-.5V19l2.2-.3.7-3.7c0-.1 0-.3.2-.4l.5-.1h1.6v4.2h3.6V21h-3.6v7.2c0 .4.1.7.4 1 .2.2.4.3.8.3h.5a2.8 2.8 0 00.6-.3l.2-.1h.3l.2.3 1 1.5-1.7 1a6 6 0 01-1.9.2zm5.7-.2V18.7h1.9l.7.1.2.7.2 1.6c.5-.8 1-1.5 1.7-2 .7-.4 1.4-.7 2.2-.7.6 0 1.2.2 1.6.5l-.4 2.4c0 .1 0 .2-.2.3l-.3.1h-.6l-.8-.2c-.7 0-1.3.2-1.8.6-.4.3-.8.9-1.2 1.6V32h-3.2zm14-13.3V32h-3.2V18.7h3.3zm.5-4l-.1.9a2.1 2.1 0 01-1.1 1 2 2 0 01-2.3-.4l-.4-.6-.2-.8a2 2 0 01.6-1.5 2 2 0 011.5-.6c.2 0 .5 0 .8.2a2.1 2.1 0 011 1c.2.3.2.6.2.9zM51.3 32V18.7h2c.4 0 .6.2.8.5l.2 1.1A7.3 7.3 0 0156 19a4.8 4.8 0 012.3-.5c.7 0 1.4 0 2 .3l1.4 1a6.8 6.8 0 011.2 3.6l-.1 8.6h-3.2v-8.5c0-.8-.2-1.4-.6-1.9-.3-.4-1-.7-1.7-.7-.5 0-1 .2-1.5.4l-1.4 1V32h-3.2zm19.4-13.6c.6 0 1 0 1.6.2l1.4.5h3.8v1.2c0 .2 0 .4-.2.5 0 0-.2.2-.5.2l-1.2.2a4.1 4.1 0 01.3 1.5 4 4 0 01-1.5 3.2 5 5 0 01-1.6.9 6.8 6.8 0 01-3.6.1c-.4.3-.6.5-.6.9 0 .2.1.4.4.6l1 .2 1.3.1a28.6 28.6 0 013.1.3c.6.1 1 .3 1.4.5l1 1c.2.4.4 1 .4 1.6a4.6 4.6 0 01-1.7 3.2l-2 1a10.5 10.5 0 01-5.4.1c-.8-.2-1.4-.5-1.9-.8-.5-.3-.8-.7-1-1.1-.3-.4-.4-.9-.4-1.3 0-.7.2-1.2.5-1.6a4 4 0 011.6-1l-.8-.7c-.2-.3-.3-.7-.3-1.2l.1-.6.4-.7c0-.2.3-.4.5-.6l.8-.5c-.7-.3-1.2-.8-1.6-1.4-.4-.6-.6-1.3-.6-2.2a4 4 0 011.5-3.1 5 5 0 011.7-.9c.6-.2 1.3-.3 2-.3zm3.5 14.2c0-.3 0-.5-.2-.6l-.7-.4-1-.2a17.4 17.4 0 00-2.3-.2l-1.2-.1-1 .7c-.1.3-.3.6-.3 1l.2.6c.1.2.3.4.6.5.2.2.6.3 1 .4l1.5.1 1.5-.1c.4-.1.8-.2 1-.4.4-.2.6-.4.7-.6l.2-.7zM70.7 25c.4 0 .7 0 1-.2.3 0 .6-.2.8-.4l.4-.7.1-.9a2 2 0 00-.5-1.5c-.4-.4-1-.6-1.8-.6s-1.4.2-1.8.6a2 2 0 00-.6 1.5c0 .3 0 .6.2.9a2 2 0 001.1 1.1c.3.2.7.2 1 .2zm19-8.4a1 1 0 01-.3.4l-.4.1c-.2 0-.4 0-.6-.2a19.9 19.9 0 00-1.8-.9l-1.4-.2-1.3.2-.9.5a2 2 0 00-.5.8l-.2 1c0 .3.1.7.4 1 .2.3.5.6 1 .8l1.3.5a68 68 0 013.2 1.2c.5.2 1 .6 1.4 1A4.2 4.2 0 0191 26c0 .9-.2 1.7-.5 2.4a5.5 5.5 0 01-3.3 3.2c-.8.3-1.7.5-2.8.5a9 9 0 01-6.1-2.5l1-1.6c0-.2.2-.3.3-.3l.5-.2.7.3a21.2 21.2 0 002 1.2c.5.2 1.1.2 1.7.2 1 0 1.8-.2 2.4-.7.5-.4.8-1.1.8-2 0-.5-.1-.9-.4-1.2a3 3 0 00-1-.8c-.4-.2-.8-.4-1.4-.5a46.1 46.1 0 01-3.1-1.1c-.6-.3-1-.6-1.4-1-.4-.4-.8-.9-1-1.4a5.6 5.6 0 011.2-6l2-1.2a8.8 8.8 0 015.7 0 7 7 0 012.3 1.6l-.8 1.6zm8.1 15.6c-1.1 0-2-.3-2.6-1-.6-.6-1-1.5-1-2.7v-7.4H93c-.2 0-.3 0-.5-.2l-.1-.5V19l2.1-.3.7-3.7c0-.1 0-.3.2-.4l.5-.1h1.7v4.2h3.5V21h-3.5v7.2c0 .4 0 .7.3 1 .2.2.5.3.8.3h.5a2.8 2.8 0 00.6-.3l.3-.1h.2l.2.3 1 1.5-1.7 1a6 6 0 01-1.9.2zm11.4-13.7c1 0 2 .1 2.7.4a5.8 5.8 0 013.4 3.6 8.2 8.2 0 010 5.7 5.8 5.8 0 01-3.4 3.5c-.8.3-1.7.5-2.7.5-1 0-1.9-.2-2.7-.5a5.8 5.8 0 01-3.4-3.5c-.3-.9-.5-1.8-.5-2.9 0-1 .2-2 .5-2.8a5.9 5.9 0 013.4-3.5c.8-.4 1.7-.5 2.7-.5zm0 11.2c1.1 0 2-.3 2.5-1 .5-.8.8-2 .8-3.4s-.3-2.5-.8-3.3c-.5-.7-1.4-1-2.5-1s-2 .3-2.5 1c-.5.8-.8 1.9-.8 3.3 0 1.5.3 2.6.8 3.3.6.8 1.4 1.1 2.5 1.1zm9.1 2.3V18.7h1.9l.7.1.2.7.2 1.6c.5-.8 1-1.5 1.7-2 .7-.4 1.4-.7 2.2-.7.6 0 1.2.2 1.6.5l-.4 2.4c0 .1 0 .2-.2.3l-.3.1h-.6l-.9-.2c-.6 0-1.2.2-1.7.6-.4.3-.8.9-1.2 1.6V32h-3.2zm16.1-13.5c.9 0 1.7 0 2.4.4a5 5 0 013 3 7.2 7.2 0 01.4 3.2l-.1.4-.3.2a1 1 0 01-.3 0h-8.3c.1 1.4.5 2.4 1.1 3 .7.7 1.5 1 2.6 1 .5 0 1 0 1.3-.2.4 0 .7-.2 1-.4l.8-.4.6-.2.3.1.3.2.9 1.2c-.4.4-.8.8-1.2 1a6.7 6.7 0 01-2.9 1c-.4.2-1 .2-1.4.2-1 0-1.8-.2-2.6-.5s-1.5-.7-2-1.3c-.7-.6-1.1-1.4-1.5-2.3a8.7 8.7 0 010-5.6c.3-.8.7-1.5 1.2-2.1a6 6 0 012-1.4c.9-.4 1.7-.5 2.7-.5zm.1 2.3a3 3 0 00-2.2.7 4 4 0 00-1 2.3h6l-.1-1.2c-.2-.3-.3-.7-.6-1l-.8-.6a3 3 0 00-1.3-.2z"/>
    </g>
    <g transform="translate(261 390)">
      <rect width="114" height="48" fill="#AAE2DC" stroke="#00BEAB" stroke-linejoin="round" stroke-width="5" rx="12"/>
      <path fill="#3D4251" fill-rule="nonzero" d="M11.3 13.2H14a1.2 1.2 0 011.2.8l4.4 11.5a15.5 15.5 0 01.8 2.6c.2-1 .4-1.9.7-2.6L25.6 14l.4-.6.8-.2h2.8L22 32H19l-7.6-18.8zm25.6 5.3c.8 0 1.6 0 2.3.4a5 5 0 013 3 7.2 7.2 0 01.4 3.2v.4l-.3.2a1 1 0 01-.4 0h-8.2c0 1.4.4 2.4 1 3 .7.7 1.6 1 2.6 1 .6 0 1 0 1.4-.2.4 0 .7-.2 1-.4l.7-.4.6-.2.4.1.2.2 1 1.2c-.4.4-.8.8-1.2 1a6.7 6.7 0 01-2.9 1c-.5.2-1 .2-1.4.2-1 0-1.8-.2-2.6-.5s-1.5-.7-2.1-1.3c-.6-.6-1-1.4-1.4-2.3a8.7 8.7 0 010-5.6c.2-.8.6-1.5 1.2-2.1a6 6 0 012-1.4c.8-.4 1.7-.5 2.7-.5zm0 2.3a3 3 0 00-2.1.7 4 4 0 00-1 2.3h6c0-.4 0-.8-.2-1.2l-.5-1-.9-.6a3 3 0 00-1.2-.2zm17.8.7l-.3.3h-.9a15.5 15.5 0 00-1.3-.8L51 21c-.6 0-1.1.1-1.5.3-.5.2-.8.5-1 .9a4 4 0 00-.7 1.4c-.2.5-.2 1.1-.2 1.8s0 1.3.2 1.9l.7 1.4c.2.4.6.7 1 .9.4.2.9.3 1.4.3a3.4 3.4 0 002-.7l.6-.4.5-.2c.3 0 .5.1.6.3l1 1.2a5.8 5.8 0 01-2.5 1.7l-1.4.4h-1.4a6 6 0 01-2.4-.4c-.7-.3-1.3-.7-1.9-1.3-.5-.6-1-1.3-1.2-2.2-.4-.8-.5-1.8-.5-2.9 0-1 .1-1.9.4-2.7.3-.9.7-1.6 1.2-2.2.6-.6 1.3-1 2-1.4a7 7 0 012.9-.5c1 0 1.8.1 2.6.4.7.4 1.4.8 2 1.4l-.8 1.2zM62 32.2c-1.2 0-2-.3-2.7-1-.6-.6-1-1.5-1-2.7v-7.4h-1.3c-.2 0-.3 0-.4-.2-.2-.1-.2-.3-.2-.5V19l2.1-.3.7-3.7.2-.4.5-.1h1.7v4.2h3.5V21h-3.5v7.2c0 .4 0 .7.3 1 .2.2.5.3.8.3h.5a2.8 2.8 0 00.6-.3l.3-.1h.2l.2.3 1 1.5-1.7 1a6 6 0 01-1.8.2zm11.3-13.7c1 0 2 .1 2.7.4a5.8 5.8 0 013.4 3.6c.4.8.5 1.8.5 2.8 0 1-.1 2-.5 2.9a5.8 5.8 0 01-3.4 3.5c-.8.3-1.7.5-2.7.5-1 0-1.9-.2-2.7-.5a5.8 5.8 0 01-3.4-3.5c-.3-.9-.5-1.8-.5-2.9 0-1 .2-2 .5-2.8a5.9 5.9 0 013.4-3.5c.8-.4 1.7-.5 2.7-.5zm0 11.2c1.1 0 2-.3 2.5-1 .5-.8.8-2 .8-3.4s-.3-2.5-.8-3.3c-.5-.7-1.4-1-2.5-1-1 0-2 .3-2.5 1-.5.8-.8 1.9-.8 3.3 0 1.5.3 2.6.8 3.3.6.8 1.4 1.1 2.5 1.1zm9.1 2.3V18.7h2l.6.1.3.7.2 1.6c.4-.8 1-1.5 1.6-2 .7-.4 1.4-.7 2.2-.7.6 0 1.2.2 1.6.5l-.4 2.4c0 .1 0 .2-.2.3l-.3.1h-.5l-1-.2c-.6 0-1.2.2-1.7.6-.4.3-.8.9-1.2 1.6V32h-3.2zm18.6-10.7l-.3.3h-.9a34.2 34.2 0 00-1.4-.7l-1-.1c-.7 0-1.2.1-1.5.4-.4.3-.6.6-.6 1 0 .3.1.6.3.8l.7.5 1 .4a34.3 34.3 0 012.5.8l1 .7.8 1 .2 1.4c0 .6 0 1.2-.3 1.7l-1 1.5c-.5.3-1 .7-1.7.9a7.2 7.2 0 01-3.6.2 8 8 0 01-2.4-.9l-1-.6.8-1.3.4-.3.4-.1c.2 0 .4 0 .6.2a12.5 12.5 0 001.5.7l1.2.2c.3 0 .7 0 1-.2l.6-.3.4-.5.1-.7c0-.3 0-.5-.2-.7l-.8-.5-1-.4a34.8 34.8 0 01-2.5-1c-.4 0-.7-.3-1-.6l-.8-1-.2-1.6a3.8 3.8 0 011.2-2.8l1.6-1 2.2-.2c1 0 1.8.1 2.5.4.8.3 1.4.7 1.9 1.2l-.7 1.2z"/>
    </g>
    <g transform="translate(611 922)">
      <rect width="178" height="115" fill="#F2E7A6" stroke="#CDB217" stroke-linejoin="round" stroke-width="5" rx="12"/>
      <path fill="#3D4251" fill-rule="nonzero" d="M62 47l-.5.7-.8.2a2 2 0 01-1-.4 33.6 33.6 0 00-3-1.5c-.7-.2-1.5-.3-2.4-.3a7 7 0 00-2.1.3c-.6.1-1.2.4-1.6.8-.4.3-.7.7-1 1.2l-.2 1.7c0 .7.2 1.3.6 1.8.4.5 1 1 1.7 1.3l2.3 1a115.2 115.2 0 015.4 2A7.2 7.2 0 0164 63a11 11 0 01-.7 4 9.3 9.3 0 01-5.6 5.4c-1.4.6-3 .9-4.7.9a15.1 15.1 0 01-10.4-4.2l1.7-2.9.6-.5.7-.2c.4 0 .8.2 1.2.5a36 36 0 003.6 2 8 8 0 002.8.4c1.7 0 3-.4 3.9-1.2 1-.8 1.4-2 1.4-3.4 0-.9-.2-1.5-.6-2a5 5 0 00-1.7-1.4l-2.4-1a78 78 0 01-5.3-1.8 7.3 7.3 0 01-4-4 9.4 9.4 0 012-10c1-.9 2-1.6 3.3-2 1.3-.6 2.8-.9 4.4-.9 2 0 3.6.3 5.2 1 1.6.5 3 1.3 4 2.4L62 47zm6.3 33.4v-30h3.3c.4 0 .7.1.9.3.3.1.4.4.5.7l.4 2.1c1-1 2-1.9 3.2-2.5a8.5 8.5 0 017.5-.2c1 .5 1.9 1.2 2.6 2.2.8 1 1.3 2.2 1.7 3.6a18.2 18.2 0 010 9.6c-.5 1.5-1.1 2.7-2 3.8a9 9 0 01-10.3 2.7 8 8 0 01-2.4-1.6v9.3h-5.4zm10.5-26.1c-1 0-2 .2-2.9.7-.8.5-1.5 1.2-2.2 2v10.1a5.2 5.2 0 004.4 2c.8 0 1.5 0 2.2-.4.7-.3 1.2-.7 1.7-1.4a7 7 0 001-2.4 15 15 0 000-6.8c-.1-.8-.4-1.6-.8-2.1-.4-.6-.9-1-1.4-1.3-.6-.3-1.2-.4-2-.4zm32 18.7h-2.4c-.5 0-1 0-1.2-.2-.3-.2-.5-.5-.7-1l-.4-1.6a18.6 18.6 0 01-3.4 2.4l-2 .6A11.3 11.3 0 0196 73c-.9-.3-1.5-.7-2.1-1.2-.6-.5-1-1.1-1.4-1.9-.3-.8-.5-1.7-.5-2.7 0-.8.3-1.7.7-2.5.5-.8 1.2-1.6 2.2-2.2 1-.7 2.5-1.2 4.2-1.7 1.7-.4 3.9-.7 6.4-.7v-1.4c0-1.5-.3-2.6-1-3.3-.6-.7-1.5-1.1-2.7-1.1a6.7 6.7 0 00-3.7 1l-1.2.7-1.2.3c-.4 0-.7 0-1-.3-.2-.2-.5-.4-.6-.7l-1-1.7c2.6-2.4 5.7-3.6 9.4-3.6a9 9 0 013.5.7 7.5 7.5 0 014.3 4.5c.4 1 .5 2.3.5 3.5V73zm-10.5-3.4l1.5-.1a5.8 5.8 0 002.6-1.3l1.1-1v-3.8c-1.5 0-2.9.2-4 .4-1 .2-1.8.4-2.5.7-.6.3-1 .7-1.4 1.1-.2.4-.4.9-.4 1.4 0 .9.3 1.6.9 2 .5.4 1.3.6 2.2.6zm15.9 3.4V50.4h3.3c.7 0 1.2.4 1.4 1l.4 1.8a12.4 12.4 0 013-2.3 8.2 8.2 0 014-.8 8 8 0 013.2.6c1 .4 1.8 1 2.4 1.8.7.7 1.1 1.6 1.5 2.7.3 1 .5 2.2.5 3.4V73h-5.5V58.6c0-1.3-.3-2.4-1-3.2-.6-.7-1.5-1.1-2.8-1.1-1 0-1.8.2-2.6.6-.9.5-1.6 1-2.4 1.8V73h-5.4z"/>
    </g>
    <g transform="translate(641 909)">
      <rect width="107.2" height="23.5" x="4.9" y="1.8" fill="#CDB217" stroke="#CDB217" stroke-width="3.5" rx="11.8"/>
      <path fill="#FFF" fill-rule="nonzero" d="M19.4 13.8c0-.6 0-1.1.2-1.6s.4-.9.7-1.2a3 3 0 011.1-.8c.4-.2.9-.3 1.4-.3a3 3 0 011.8.5c.5.4.7.8.8 1.4h.2v-.6a5.6 5.6 0 010-1.1v-3h2.2V20h-2.2v-1.7h-.2c0 .6-.3 1-.8 1.4a3 3 0 01-1.8.5c-.5 0-1-.1-1.4-.3a3 3 0 01-1-.8c-.4-.3-.6-.7-.8-1.2l-.2-1.6v-2.5zm2.2 0v2.4c0 .6.2 1.1.6 1.5.3.3.8.5 1.4.5.6 0 1-.2 1.4-.5.4-.4.5-.9.5-1.4v-2.5c0-.6-.1-1-.5-1.4-.3-.4-.8-.5-1.4-.5a2 2 0 00-1.4.5 2 2 0 00-.6 1.4zM34 20.2l-1.8-.3A4 4 0 0131 19l-.9-1.2a4 4 0 01-.3-1.6v-2.5c0-.6.1-1.1.3-1.6a3.5 3.5 0 012.2-2l1.8-.3 1.8.3c.5.2 1 .4 1.3.8.4.3.7.7.9 1.2.2.5.3 1 .3 1.6v2.5l-.3 1.6a3.5 3.5 0 01-2.2 2c-.5.2-1.1.3-1.8.3zm-2-4c0 .7.1 1.1.5 1.5.4.3.9.5 1.5.5a2 2 0 001.5-.5c.4-.4.6-.8.6-1.4v-2.5c0-.6-.2-1-.6-1.4a2 2 0 00-1.5-.5 2 2 0 00-1.5.5c-.4.4-.6.8-.6 1.4v2.5zm12.4 4l-1.8-.3c-.5-.2-1-.4-1.3-.8-.4-.3-.7-.7-.9-1.2a4 4 0 01-.3-1.6v-2.5c0-.6.1-1.1.3-1.6.2-.5.5-.9.9-1.2a4 4 0 011.3-.8 5.3 5.3 0 013.4 0 4 4 0 012.7 3.2h-2.2c-.1-.4-.3-.8-.7-1.1-.4-.3-.8-.4-1.4-.4-.6 0-1.1.1-1.5.5-.3.3-.5.8-.5 1.4v2.5c0 .6.2 1 .5 1.4.4.4.9.5 1.5.5.5 0 1-.1 1.4-.4.4-.3.6-.7.7-1.1h2.2c0 .5-.2 1-.5 1.4A4 4 0 0146 20a5 5 0 01-1.6.3zm8.2 1.8V5h5v2.1h-2.8V20h2.8v2h-5zm7.8-4.8c0-.5.1-.9.3-1.3.2-.4.4-.7.8-1 .3-.3.7-.5 1.2-.6.5-.2 1-.3 1.6-.3h2.5v-.8c0-.5-.2-.8-.6-1-.3-.4-.8-.5-1.4-.5-.5 0-.9 0-1.2.3-.4.2-.6.4-.7.7h-2.2a3 3 0 011.4-2c.3-.3.7-.4 1.2-.6l1.5-.2c.7 0 1.2 0 1.8.2.5.2 1 .4 1.3.7a3 3 0 011.1 2.4V20h-2.1v-2h-.2c0 .7-.4 1.2-1 1.6-.6.4-1.3.6-2.1.6-1 0-1.7-.3-2.3-.8-.6-.6-.9-1.3-.9-2.2zm2.3-.2c0 .4.1.8.4 1 .3.3.8.4 1.3.4.7 0 1.2-.1 1.7-.5.4-.3.7-.7.7-1.2v-1.2h-2.5c-.5 0-1 .1-1.2.4-.3.2-.4.6-.4 1zm10.8 1.6c0-.5.2-1 .5-1.2.3-.3.7-.5 1.2-.5s.9.2 1.2.5c.3.3.5.7.5 1.2 0 .4-.2.8-.5 1.1-.3.3-.7.5-1.2.5s-.9-.2-1.2-.5c-.3-.3-.5-.7-.5-1.1zm0-7c0-.5.2-1 .5-1.2.3-.3.7-.5 1.2-.5s.9.2 1.2.5c.3.3.5.7.5 1.2s-.2.8-.5 1.1c-.3.3-.7.5-1.2.5s-.9-.2-1.2-.5c-.3-.3-.5-.6-.5-1.1zm8-4.6h2.2v3a20 20 0 01-.1 1.8h.2c0-.6.4-1 .8-1.4a3 3 0 011.8-.5c.5 0 1 .1 1.4.3.4.2.8.4 1 .8.4.3.6.7.8 1.2l.2 1.6v2.5c0 .6 0 1.1-.2 1.6s-.4.9-.7 1.2c-.3.4-.7.6-1.1.8-.4.2-.9.3-1.4.3a3 3 0 01-1.8-.5c-.4-.4-.7-.8-.8-1.4h-.2V20h-2.2V7zm2.2 9.3c0 .5.2 1 .5 1.4.3.3.8.5 1.4.5.6 0 1-.2 1.4-.5.4-.4.6-.9.6-1.5v-2.4c0-.6-.2-1-.6-1.4a2 2 0 00-1.4-.5c-.6 0-1 .1-1.4.5a2 2 0 00-.5 1.4v2.5zm9.1 5.7v-2h2.8V7h-2.8v-2h5V22h-5z"/>
    </g>
    <path fill="#EAC1CC" stroke="#F03969" stroke-linejoin="round" stroke-width="5" d="M340 524h179l23.5 43.4L519 609H340l23.5-41.5z"/>
    <path fill="#3D4251" fill-rule="nonzero" d="M392.3 554.8v3h-6V575h-3.8v-17.1h-6.2v-3.1h16zm8.3 5.6c1.1 0 2 .2 3 .5a6.3 6.3 0 013.6 3.8c.4 1 .5 2 .5 3 0 1.2-.1 2.3-.5 3.2a6.2 6.2 0 01-3.7 3.8c-.8.3-1.8.5-2.9.5-1 0-2-.2-2.9-.5a6.3 6.3 0 01-3.7-3.8c-.3-1-.5-2-.5-3.1s.2-2.2.5-3a6.4 6.4 0 013.7-3.8 8 8 0 013-.6zm0 12.1c1.2 0 2.1-.4 2.7-1.2.6-.8.9-2 .9-3.5s-.3-2.7-1-3.5c-.5-.8-1.4-1.2-2.6-1.2-1.2 0-2 .4-2.6 1.2a6 6 0 00-1 3.5 6 6 0 001 3.5c.5.8 1.4 1.2 2.6 1.2zm13.3-18.3v12h.7l.5-.2.4-.4 3.6-4.4.5-.4.7-.2h3.2L419 566l-.5.5-.5.4.5.5.4.6 4.8 7h-3.1l-.7-.1-.5-.5-3.6-5.5-.5-.4H414v6.5h-3.4v-20.8h3.4zm17.9 6.2c1 0 1.7.2 2.5.4a5.5 5.5 0 013.3 3.4 7.7 7.7 0 01.4 3.4l-.1.4-.3.2a1 1 0 01-.4 0h-8.9c.1 1.5.5 2.6 1.2 3.3.7.7 1.6 1 2.8 1 .5 0 1 0 1.4-.2a24.7 24.7 0 001.9-.9l.7-.1h.3l.3.3 1 1.3c-.4.4-.8.8-1.3 1a7.2 7.2 0 01-3 1.2l-1.6.1c-1 0-2-.2-2.8-.5-.9-.3-1.6-.8-2.3-1.5a6.9 6.9 0 01-1.5-2.4 9.3 9.3 0 010-6c.3-1 .8-1.7 1.3-2.3a7.1 7.1 0 015-2zm0 2.5c-1 0-1.7.3-2.3.8-.6.6-1 1.4-1 2.5h6.4c0-.5 0-.9-.2-1.3a3 3 0 00-.5-1l-1-.8-1.3-.2zm9 12.1v-14.4h2.1c.5 0 .8.2 1 .7l.2 1.1a7.9 7.9 0 012-1.4 5.2 5.2 0 012.4-.6c.8 0 1.5.1 2 .4.7.3 1.2.7 1.6 1.1.4.5.7 1 1 1.8l.2 2.2v9.1H450v-9.1a3 3 0 00-.6-2c-.4-.6-1-.8-1.8-.8-.6 0-1.2.1-1.7.4a6 6 0 00-1.5 1.1V575h-3.5zm19.6-14.4V575H457v-14.4h3.4zm.6-4.2l-.2.9a2.3 2.3 0 01-1.2 1.1 2.2 2.2 0 01-2.4-.4l-.5-.7a2.2 2.2 0 01.5-2.4 2.2 2.2 0 011.5-.7l.9.2a2.3 2.3 0 011.2 1.2l.2.8zm13.7 5.7l-.1.7-.3.6-6.9 9h7.1v2.6h-11v-1.4-.6l.4-.6 6.9-9.1h-7v-2.7h11v1.5zm8.7-1.7c1 0 1.8.2 2.5.4a5.5 5.5 0 013.3 3.4 7.7 7.7 0 01.4 3.4l-.1.4-.3.2a1 1 0 01-.4 0H480c0 1.5.5 2.6 1.2 3.3.6.7 1.6 1 2.7 1 .6 0 1 0 1.4-.2.5 0 .8-.2 1.1-.4l.8-.4c.2-.2.5-.2.7-.2h.3l.3.3 1 1.3c-.4.4-.8.8-1.3 1a7.2 7.2 0 01-3 1.2l-1.6.1c-1 0-2-.2-2.8-.5-.9-.3-1.6-.8-2.2-1.5a6.9 6.9 0 01-1.5-2.4 9.3 9.3 0 01-.1-6c.3-1 .8-1.7 1.4-2.3.6-.6 1.3-1.2 2.1-1.5.9-.4 1.8-.6 3-.6zm0 2.5c-1 0-1.7.3-2.3.8-.5.6-1 1.4-1 2.5h6.4c0-.5 0-.9-.2-1.3a3 3 0 00-.5-1l-1-.8-1.3-.2zm9 12.1v-14.4h2l.8.2c.2.2.3.4.3.7l.2 1.7c.5-.8 1.1-1.5 1.8-2 .7-.6 1.5-.8 2.3-.8a3 3 0 011.8.5l-.4 2.5-.2.4-.4.1h-.6c-.2-.2-.5-.2-1-.2a3 3 0 00-1.8.6c-.5.4-1 1-1.3 1.8v8.9h-3.4z"/>
    <g transform="translate(358 512)">
      <rect width="140.5" height="23.5" x="5.8" y="1.8" fill="#F03969" stroke="#F03969" stroke-width="3.5" rx="11.8"/>
      <path fill="#FFF" fill-rule="nonzero" d="M11.8 10.1H14v1.7h.1c.2-.6.4-1 .9-1.4a3 3 0 011.8-.5c1 0 1.8.3 2.4 1 .5.7.8 1.5.8 2.6V20h-2.2v-6.2c0-.6-.2-1-.5-1.4-.3-.4-.8-.5-1.4-.5-.5 0-1 .1-1.3.5a2 2 0 00-.5 1.4V20h-2.3v-9.9zM21.4 9V7h5.4v9.8c0 .4.1.7.3.9.2.2.5.3.9.3h3v2h-3.2c-1 0-1.8-.3-2.4-.8-.6-.6-.8-1.4-.8-2.4V9h-3.2zm11 1.1h2.2v1.7h.2c.1-.6.4-1 .9-1.4a3 3 0 011.8-.5c.5 0 1 .1 1.4.3.4.2.7.4 1 .8.3.3.5.7.7 1.2.2.5.3 1 .3 1.6v2.5c0 .6-.1 1.1-.3 1.6-.2.5-.4.9-.7 1.2-.3.4-.6.6-1 .8l-1.4.3a3 3 0 01-1.8-.5c-.5-.4-.8-.8-.9-1.4h-.2V18.9a18.5 18.5 0 00.1 1.1v3h-2.2V10.2zm2.3 3.7v2.5c0 .5.2 1 .5 1.4.4.3.9.5 1.4.5.7 0 1.1-.2 1.5-.5.3-.4.5-.9.5-1.5v-2.4c0-.6-.2-1-.5-1.4a2 2 0 00-1.5-.5c-.5 0-1 .1-1.3.5a2 2 0 00-.6 1.4zm10.4 4.6c0-.5.2-1 .5-1.3.3-.3.7-.4 1.3-.4.5 0 1 .1 1.2.4.3.3.5.8.5 1.3s-.2 1-.5 1.3c-.3.3-.7.5-1.3.5-.5 0-.9-.2-1.2-.5-.3-.3-.5-.8-.5-1.3zm7.5-8.3h2.7v-3h2.2v3h3.8v2h-3.8V17c0 .4.1.6.3.8.2.2.5.3.8.3h2.5v2h-2.7c-1 0-1.7-.3-2.3-.8a3 3 0 01-.8-2.3v-4.8h-2.7v-2zm14.9 10c-.7 0-1.3 0-1.8-.2a4 4 0 01-1.4-.8c-.4-.4-.6-.8-.8-1.2a4 4 0 01-.4-1.6v-2.5c0-.6.1-1.1.4-1.6a3.5 3.5 0 012.2-2c.5-.2 1.1-.3 1.8-.3.6 0 1.2.1 1.7.3a3.5 3.5 0 012.2 2c.3.5.4 1 .4 1.6v2.5c0 .5-.1 1-.4 1.6a3.5 3.5 0 01-2.2 2c-.5.2-1 .3-1.8.3zm-2.1-3.8c0 .6.2 1 .5 1.4.4.3 1 .5 1.5.5a2 2 0 001.6-.5c.3-.4.5-.8.5-1.4v-2.5c0-.6-.2-1-.5-1.4a2 2 0 00-1.5-.5 2 2 0 00-1.6.5c-.3.4-.5.8-.5 1.4v2.5zM73.8 7H76v7h1.6l2.5-3.9h2.5l-3 4.8 3 5.1h-2.5l-2.5-4H76v4h-2.2V7zm10 6.8c0-.6 0-1.1.3-1.6.2-.5.4-.9.8-1.2.4-.4.8-.6 1.4-.8.5-.2 1-.3 1.8-.3.6 0 1.2.1 1.7.3.5.2 1 .4 1.3.8.4.3.7.7 1 1.2l.2 1.6v1.8H86v.7c0 .6.2 1.1.5 1.5.4.4.9.6 1.5.6.5 0 1-.1 1.3-.3.3-.1.6-.3.7-.6h2.2c0 .4-.2.8-.5 1.1l-1 .9-1.2.5a5.6 5.6 0 01-3.2 0c-.6-.3-1-.5-1.4-.9-.4-.3-.6-.7-.8-1.2a4 4 0 01-.4-1.6v-2.5zm2.2.3H90v-.3a2 2 0 00-.5-1.5 2 2 0 00-1.5-.6 2 2 0 00-1.6.6 2 2 0 00-.5 1.5v.3zm8.2-4h2.2v1.7h.1c.2-.6.4-1 .9-1.4a3 3 0 011.8-.5c1 0 1.8.3 2.4 1 .5.7.8 1.5.8 2.6V20h-2.2v-6.2c0-.6-.2-1-.5-1.4-.3-.4-.8-.5-1.4-.5-.5 0-1 .1-1.3.5a2 2 0 00-.5 1.4V20h-2.3v-9.9zm10.5 7.8h3.6v-5.8h-3.1v-2h5.3v7.8h2.8V20h-8.6v-2zm3-10.5c0-.3 0-.6.3-.8.2-.3.5-.4 1-.4h.4c.4 0 .7.1 1 .4.1.2.3.5.3.8 0 .4-.2.7-.4.9-.2.2-.5.3-1 .3h-.4c-.4 0-.7-.1-1-.3-.1-.2-.3-.5-.3-.9zm7.1 10.5l5.4-5.9h-.4a4.2 4.2 0 01-1 0H115v-1.9h7.9v2.1l-5.5 5.9v.1a5 5 0 011.5-.2h4.2v2h-8.3v-2.1zm10.1-4.1c0-.6.1-1.1.4-1.6.2-.5.4-.9.8-1.2.4-.4.8-.6 1.4-.8.5-.2 1-.3 1.8-.3.6 0 1.2.1 1.7.3.5.2 1 .4 1.3.8.4.3.7.7 1 1.2l.2 1.6v1.8h-6.3v.7c0 .6.2 1.1.5 1.5.4.4.9.6 1.5.6.5 0 1-.1 1.3-.3.3-.1.6-.3.7-.6h2.2c0 .4-.2.8-.5 1.1l-1 .9-1.2.5a5.6 5.6 0 01-3.2 0c-.6-.3-1-.5-1.4-.9-.4-.3-.6-.7-.8-1.2a4 4 0 01-.4-1.6v-2.5zm2.3.3h4.1v-.3a2 2 0 00-.5-1.5 2 2 0 00-1.6-.6 2 2 0 00-1.5.6 2 2 0 00-.5 1.5v.3zm10.8-4v1.7h.1c.2-.6.5-1 1-1.4.4-.3 1-.5 1.8-.5 1 0 1.9.3 2.5 1 .6.7.9 1.6.9 2.7v.8h-2.4v-.6a2 2 0 00-.5-1.4 2 2 0 00-1.4-.6c-.6 0-1 .2-1.4.6-.3.3-.5.8-.5 1.4V20H136v-9.9h2z"/>
    </g>
    <path fill="#EAC1CC" stroke="#F03969" stroke-linejoin="round" stroke-width="5" d="M738 524h193l23.5 43.4L931 609H738l23.5-41.5z"/>
    <path fill="#3D4251" fill-rule="nonzero" d="M790 570.2c.2 0 .3.1.5.3l1.5 1.6c-.8 1-1.9 1.8-3 2.3-1.3.6-2.7.8-4.4.8a9 9 0 01-9-6.2 12.3 12.3 0 010-8.3 9.6 9.6 0 015.4-5.4 11.3 11.3 0 018.2 0c1.1.4 2 1 2.9 1.9l-1.3 1.7-.3.3-.4.1c-.3 0-.5 0-.7-.2a8.1 8.1 0 00-2.2-1.1c-.5-.2-1.2-.3-2-.3-1 0-1.8.2-2.6.5-.8.4-1.5.8-2 1.5-.6.6-1 1.3-1.4 2.2-.3.9-.5 1.9-.5 3s.2 2.1.5 3c.3.9.8 1.6 1.3 2.3.6.6 1.2 1 2 1.3a6 6 0 002.4.5h1.4a6 6 0 002.1-.8l1-.7.2-.2h.4zm10.8-9.8c1 0 2 .2 2.9.5a6.3 6.3 0 013.6 3.8c.4 1 .5 2 .5 3 0 1.2-.1 2.3-.5 3.2a6.2 6.2 0 01-3.7 3.8c-.8.3-1.8.5-2.8.5-1.1 0-2-.2-3-.5a6.3 6.3 0 01-3.7-3.8c-.3-1-.5-2-.5-3.1s.2-2.2.5-3a6.4 6.4 0 013.7-3.8 8 8 0 013-.6zm0 12.2c1.1 0 2-.5 2.6-1.3.6-.8.9-2 .9-3.5s-.3-2.7-.9-3.5c-.6-.8-1.5-1.2-2.6-1.2-1.3 0-2.2.4-2.7 1.2a6 6 0 00-.9 3.5 6 6 0 00.9 3.5c.5.8 1.4 1.3 2.7 1.3zm9.7 2.4v-14.4h2.2c.4 0 .7.2.8.7l.3 1 .8-.7a5 5 0 011.8-1l1.2-.2c1 0 1.7.3 2.3.7.5.5 1 1.2 1.3 2a4.4 4.4 0 012-2 6.2 6.2 0 014.8-.3 4 4 0 011.4 1c.4.5.8 1 1 1.7.2.7.3 1.5.3 2.4v9.1h-3.4v-9.1c0-1-.2-1.6-.6-2.1-.4-.5-1-.7-1.8-.7-.4 0-.7 0-1 .2a2.4 2.4 0 00-1.3 1.4c-.2.3-.2.7-.2 1.2v9.1h-3.5v-9.1c0-1-.2-1.7-.6-2.1-.4-.5-1-.7-1.7-.7-.5 0-1 .1-1.4.4-.4.2-.8.6-1.2 1V575h-3.5zm23.6 4.7v-19h2.7l.3.6.3 1.3c.6-.7 1.2-1.2 2-1.6a5.4 5.4 0 014.8-.1c.6.3 1.2.8 1.7 1.4.4.6.8 1.4 1 2.3a11.6 11.6 0 010 6c-.3 1-.7 1.8-1.2 2.5a5.7 5.7 0 01-6.6 1.7 5 5 0 01-1.5-1v5.9H834zm6.7-16.6c-.7 0-1.3.2-1.8.5s-1 .7-1.4 1.2v6.5a3.3 3.3 0 002.7 1.3c.6 0 1-.1 1.5-.3.4-.2.8-.5 1-1 .3-.3.6-.8.7-1.4a9.6 9.6 0 000-4.3c0-.6-.3-1-.5-1.4-.3-.4-.6-.7-1-.8-.3-.2-.7-.3-1.2-.3zm15.3-2.7c1 0 2 .2 2.9.5a6.3 6.3 0 013.7 3.8c.3 1 .5 2 .5 3 0 1.2-.2 2.3-.5 3.2-.4.9-.8 1.7-1.5 2.3-.6.7-1.3 1.1-2.2 1.5-.9.3-1.8.5-3 .5-1 0-2-.2-2.8-.5a6.3 6.3 0 01-3.7-3.8c-.4-1-.5-2-.5-3.1s.1-2.2.5-3c.3-1 .8-1.8 1.4-2.4.6-.6 1.4-1.1 2.3-1.5a8 8 0 012.9-.5zm0 12.2c1.2 0 2-.5 2.6-1.3.6-.8.9-2 .9-3.5s-.3-2.7-.9-3.5c-.5-.8-1.4-1.2-2.6-1.2-1.2 0-2.1.4-2.7 1.2a6 6 0 00-.9 3.5 6 6 0 00.9 3.5c.6.8 1.5 1.3 2.7 1.3zm9.8 2.4v-14.4h2c.5 0 .8.2 1 .7l.2 1.1a7.9 7.9 0 012-1.4 5.2 5.2 0 012.4-.6c.8 0 1.5.1 2.1.4.6.3 1.1.7 1.5 1.1.5.5.8 1 1 1.8.2.6.3 1.4.3 2.2v9.1h-3.5v-9.1a3 3 0 00-.6-2c-.4-.6-1-.8-1.8-.8-.6 0-1.2.1-1.7.4a6 6 0 00-1.5 1.1V575H866zm21.8-14.6c1 0 1.8.2 2.5.4a5.5 5.5 0 013.3 3.4 7.7 7.7 0 01.4 3.4l-.1.4-.3.2a1 1 0 01-.4 0h-8.8c0 1.5.5 2.6 1.2 3.3.6.7 1.6 1 2.7 1 .6 0 1 0 1.4-.2.5 0 .8-.2 1.1-.4l.8-.4c.2-.2.5-.2.7-.2h.3l.3.3 1 1.3c-.4.4-.8.8-1.3 1a7.2 7.2 0 01-3 1.2l-1.6.1c-1 0-2-.2-2.8-.5-.9-.3-1.6-.8-2.2-1.5a6.9 6.9 0 01-1.5-2.4 9.3 9.3 0 01-.1-6c.3-1 .8-1.7 1.4-2.3.6-.6 1.3-1.2 2.1-1.5.9-.4 1.8-.6 3-.6zm0 2.5c-1 0-1.7.3-2.3.8-.5.6-1 1.4-1 2.5h6.4c0-.5 0-.9-.2-1.3a3 3 0 00-.5-1l-1-.8-1.3-.2zm9 12.1v-14.4h2.2c.4 0 .7.2.8.7l.3 1.1a7.9 7.9 0 012-1.4 5.2 5.2 0 012.4-.6c.8 0 1.5.1 2.1.4.6.3 1.1.7 1.5 1.1.4.5.7 1 1 1.8.2.6.3 1.4.3 2.2v9.1h-3.5v-9.1a3 3 0 00-.6-2c-.4-.6-1-.8-1.8-.8-.6 0-1.2.1-1.7.4a6 6 0 00-1.5 1.1V575h-3.4zm20.7.2c-1.3 0-2.2-.3-2.9-1a4 4 0 01-1-3v-8h-1.4c-.2 0-.4 0-.5-.2-.2 0-.2-.3-.2-.5v-1.4l2.3-.4.7-3.9c0-.2.1-.3.3-.4l.5-.2h1.8v4.6h3.7v2.4H917v7.8c0 .5 0 .8.3 1 .2.3.5.4.9.4h.5a3 3 0 00.7-.4h.5l.2.3 1 1.7c-.5.4-1 .7-1.7.9-.6.2-1.3.3-2 .3z"/>
    <path fill="#EAC1CC" stroke="#F03969" stroke-linejoin="round" stroke-width="5" d="M549 524h193l23.5 43.4L742 609H549l23.5-41.5z"/>
    <path fill="#3D4251" fill-rule="nonzero" d="M601 570.2c.2 0 .3.1.5.3l1.5 1.6c-.8 1-1.9 1.8-3 2.3-1.3.6-2.7.8-4.4.8a9 9 0 01-9-6.2 12.3 12.3 0 010-8.3 9.6 9.6 0 015.4-5.4 11.3 11.3 0 018.2 0c1.1.4 2 1 2.9 1.9l-1.3 1.7-.3.3-.4.1c-.3 0-.5 0-.7-.2a8.1 8.1 0 00-2.2-1.1c-.5-.2-1.2-.3-2-.3-1 0-1.8.2-2.6.5-.8.4-1.5.8-2 1.5-.6.6-1 1.3-1.4 2.2-.3.9-.5 1.9-.5 3s.2 2.1.5 3c.3.9.8 1.6 1.3 2.3.6.6 1.2 1 2 1.3a6 6 0 002.4.5h1.4a6 6 0 002.1-.8l1-.7.2-.2h.4zm10.8-9.8c1 0 2 .2 2.9.5a6.3 6.3 0 013.6 3.8c.4 1 .5 2 .5 3 0 1.2-.1 2.3-.5 3.2a6.2 6.2 0 01-3.7 3.8c-.8.3-1.8.5-2.8.5-1.1 0-2-.2-3-.5a6.3 6.3 0 01-3.7-3.8c-.3-1-.5-2-.5-3.1s.2-2.2.5-3a6.4 6.4 0 013.7-3.8 8 8 0 013-.6zm0 12.2c1.1 0 2-.5 2.6-1.3.6-.8.9-2 .9-3.5s-.3-2.7-.9-3.5c-.6-.8-1.5-1.2-2.6-1.2-1.3 0-2.2.4-2.7 1.2a6 6 0 00-.9 3.5 6 6 0 00.9 3.5c.5.8 1.4 1.3 2.7 1.3zm9.7 2.4v-14.4h2.2c.4 0 .7.2.8.7l.3 1 .8-.7a5 5 0 011.8-1l1.2-.2c1 0 1.7.3 2.3.7.5.5 1 1.2 1.3 2a4.4 4.4 0 012-2 6.2 6.2 0 014.8-.3 4 4 0 011.4 1c.4.5.8 1 1 1.7.2.7.3 1.5.3 2.4v9.1h-3.4v-9.1c0-1-.2-1.6-.6-2.1-.4-.5-1-.7-1.8-.7-.4 0-.7 0-1 .2a2.4 2.4 0 00-1.3 1.4c-.2.3-.2.7-.2 1.2v9.1h-3.5v-9.1c0-1-.2-1.7-.6-2.1-.4-.5-1-.7-1.7-.7-.5 0-1 .1-1.4.4-.4.2-.8.6-1.2 1V575h-3.5zm23.6 4.7v-19h2.7l.3.6.3 1.3c.6-.7 1.2-1.2 2-1.6a5.4 5.4 0 014.8-.1c.6.3 1.2.8 1.7 1.4.4.6.8 1.4 1 2.3a11.6 11.6 0 010 6c-.3 1-.7 1.8-1.2 2.5a5.7 5.7 0 01-6.6 1.7 5 5 0 01-1.5-1v5.9H645zm6.7-16.6c-.7 0-1.3.2-1.8.5s-1 .7-1.4 1.2v6.5a3.3 3.3 0 002.7 1.3c.6 0 1-.1 1.5-.3.4-.2.8-.5 1-1 .3-.3.6-.8.7-1.4a9.6 9.6 0 000-4.3c0-.6-.3-1-.5-1.4-.3-.4-.6-.7-1-.8-.3-.2-.7-.3-1.2-.3zm15.3-2.7c1 0 2 .2 2.9.5a6.3 6.3 0 013.7 3.8c.3 1 .5 2 .5 3 0 1.2-.2 2.3-.5 3.2-.4.9-.8 1.7-1.5 2.3-.6.7-1.3 1.1-2.2 1.5-.9.3-1.8.5-3 .5-1 0-2-.2-2.8-.5a6.3 6.3 0 01-3.7-3.8c-.4-1-.5-2-.5-3.1s.1-2.2.5-3c.3-1 .8-1.8 1.4-2.4.6-.6 1.4-1.1 2.3-1.5a8 8 0 012.9-.5zm0 12.2c1.2 0 2-.5 2.6-1.3.6-.8.9-2 .9-3.5s-.3-2.7-.9-3.5c-.5-.8-1.4-1.2-2.6-1.2-1.2 0-2.1.4-2.7 1.2a6 6 0 00-.9 3.5 6 6 0 00.9 3.5c.6.8 1.5 1.3 2.7 1.3zm9.8 2.4v-14.4h2c.5 0 .8.2 1 .7l.2 1.1a7.9 7.9 0 012-1.4 5.2 5.2 0 012.4-.6c.8 0 1.5.1 2.1.4.6.3 1.1.7 1.5 1.1.5.5.8 1 1 1.8.2.6.3 1.4.3 2.2v9.1h-3.5v-9.1a3 3 0 00-.6-2c-.4-.6-1-.8-1.8-.8-.6 0-1.2.1-1.7.4a6 6 0 00-1.5 1.1V575H677zm21.8-14.6c1 0 1.8.2 2.5.4a5.5 5.5 0 013.3 3.4 7.7 7.7 0 01.4 3.4l-.1.4-.3.2a1 1 0 01-.4 0h-8.8c0 1.5.5 2.6 1.2 3.3.6.7 1.6 1 2.7 1 .6 0 1 0 1.4-.2.5 0 .8-.2 1.1-.4l.8-.4c.2-.2.5-.2.7-.2h.3l.3.3 1 1.3c-.4.4-.8.8-1.3 1a7.2 7.2 0 01-3 1.2l-1.6.1c-1 0-2-.2-2.8-.5-.9-.3-1.6-.8-2.2-1.5a6.9 6.9 0 01-1.5-2.4 9.3 9.3 0 01-.1-6c.3-1 .8-1.7 1.4-2.3.6-.6 1.3-1.2 2.1-1.5.9-.4 1.8-.6 3-.6zm0 2.5c-1 0-1.7.3-2.3.8-.5.6-1 1.4-1 2.5h6.4c0-.5 0-.9-.2-1.3a3 3 0 00-.5-1l-1-.8-1.3-.2zm9 12.1v-14.4h2.2c.4 0 .7.2.8.7l.3 1.1a7.9 7.9 0 012-1.4 5.2 5.2 0 012.4-.6c.8 0 1.5.1 2.1.4.6.3 1.1.7 1.5 1.1.4.5.7 1 1 1.8.2.6.3 1.4.3 2.2v9.1h-3.5v-9.1a3 3 0 00-.6-2c-.4-.6-1-.8-1.8-.8-.6 0-1.2.1-1.7.4a6 6 0 00-1.5 1.1V575h-3.4zm20.7.2c-1.3 0-2.2-.3-2.9-1a4 4 0 01-1-3v-8h-1.4c-.2 0-.4 0-.5-.2-.2 0-.2-.3-.2-.5v-1.4l2.3-.4.7-3.9c0-.2.1-.3.3-.4l.5-.2h1.8v4.6h3.7v2.4H728v7.8c0 .5 0 .8.3 1 .2.3.5.4.9.4h.5a3 3 0 00.7-.4h.5l.2.3 1 1.7c-.5.4-1 .7-1.7.9-.6.2-1.3.3-2 .3z"/>
    <g transform="translate(808 596)">
      <rect width="107" height="48" fill="#EAC1CC" stroke="#F03969" stroke-linejoin="round" stroke-width="5" rx="12"/>
      <path fill="#3D4251" fill-rule="nonzero" d="M27.5 24.2a10.6 10.6 0 01.8 1.8 29.3 29.3 0 01.7-1.8l5.6-10.4.2-.4.3-.1h.3l.4-.1h2.6V32h-3V19.9a15.4 15.4 0 010-1.6L29.7 29c0 .2-.3.4-.5.5-.2.2-.4.2-.7.2H28c-.3 0-.5 0-.7-.2l-.5-.5L21 18.3a11.5 11.5 0 01.1 1.6V32h-3V13.2h3.3l.2.2.3.4 5.6 10.4zm20.2-5.7c1 0 2 .1 2.7.4a5.8 5.8 0 013.4 3.6c.4.8.5 1.8.5 2.8 0 1-.1 2-.5 2.9a5.8 5.8 0 01-3.4 3.5c-.8.3-1.7.5-2.7.5-1 0-1.9-.2-2.7-.5a5.8 5.8 0 01-3.4-3.5c-.3-.9-.5-1.8-.5-2.9 0-1 .2-2 .5-2.8A5.9 5.9 0 0145 19c.8-.4 1.7-.5 2.7-.5zm0 11.2c1.1 0 2-.3 2.5-1 .5-.8.8-2 .8-3.4s-.3-2.5-.8-3.3c-.5-.7-1.4-1-2.5-1s-2 .3-2.5 1c-.5.8-.8 1.9-.8 3.3 0 1.5.3 2.6.8 3.3.6.8 1.4 1.1 2.5 1.1zM66.2 32c-.4 0-.7-.2-.8-.6l-.3-1.3a8 8 0 01-.8.9 5.5 5.5 0 01-2.2 1l-1.3.2a4.4 4.4 0 01-3.5-1.8c-.5-.6-.8-1.3-1-2.1a10.8 10.8 0 010-5.7c.3-.8.6-1.6 1.2-2.2.5-.6 1-1.1 1.8-1.5.7-.3 1.4-.5 2.3-.5a4.6 4.6 0 013.4 1.3v-7h3.2V32h-2zm-4.3-2.4c.7 0 1.3 0 1.7-.4A5 5 0 0065 28v-6a3.2 3.2 0 00-2.6-1.1c-.5 0-1 0-1.3.2-.4.2-.8.5-1 .9a4 4 0 00-.7 1.4 9 9 0 000 4l.5 1.3c.3.3.6.6.9.7.3.2.7.2 1.1.2zm15.2-11.1c.9 0 1.7 0 2.4.4a5 5 0 013 3 7.2 7.2 0 01.4 3.2l-.1.4-.3.2a1 1 0 01-.3 0h-8.3c.1 1.4.5 2.4 1.1 3 .7.7 1.5 1 2.6 1 .5 0 1 0 1.3-.2.4 0 .7-.2 1-.4l.8-.4.6-.2.3.1.3.2.9 1.2c-.4.4-.8.8-1.2 1a6.7 6.7 0 01-2.8 1c-.5.2-1 .2-1.5.2-1 0-1.8-.2-2.6-.5s-1.5-.7-2-1.3c-.7-.6-1.1-1.4-1.5-2.3a8.7 8.7 0 010-5.6c.3-.8.7-1.5 1.2-2.1a6 6 0 012-1.4c.9-.4 1.8-.5 2.7-.5zm.1 2.3a3 3 0 00-2.2.7 4 4 0 00-1 2.3h6l-.1-1.2c-.1-.3-.3-.7-.6-1l-.8-.6a3 3 0 00-1.3-.2zM89 12.7V32h-3.3V12.7H89z"/>
    </g>
    <g transform="translate(795 660)">
      <rect width="133" height="48" fill="#EAC1CC" stroke="#F03969" stroke-linejoin="round" stroke-width="5" rx="12"/>
      <path fill="#3D4251" fill-rule="nonzero" d="M17.8 13.2h2.9c.3 0 .5 0 .7.2.3.2.4.4.5.6L25 25.2a12.1 12.1 0 01.4 2 17.7 17.7 0 01.5-2L29.6 14a1.2 1.2 0 011.2-.8h1c.3 0 .6 0 .8.2l.4.6 3.7 11.2.5 1.9a35.8 35.8 0 01.3-1.9L40.7 14l.4-.6.8-.2h2.7L38.8 32h-3.1l-4.2-12.8a30 30 0 01-.3-1.2 12.2 12.2 0 01-.3 1.2L26.7 32h-3.1l-5.9-18.8zM52 18.5c.9 0 1.6 0 2.4.4a5 5 0 013 3 7.2 7.2 0 01.4 3.2l-.1.4-.3.2a1 1 0 01-.3 0h-8.3c.1 1.4.5 2.4 1.1 3 .7.7 1.5 1 2.6 1 .5 0 1 0 1.3-.2.4 0 .7-.2 1-.4l.7-.4.7-.2.3.1.3.2.9 1.2c-.4.4-.8.8-1.2 1a6.7 6.7 0 01-2.9 1c-.5.2-1 .2-1.4.2-1 0-1.8-.2-2.6-.5s-1.5-.7-2-1.3c-.7-.6-1.1-1.4-1.5-2.3a8.7 8.7 0 010-5.6c.3-.8.7-1.5 1.2-2.1a6 6 0 012-1.4c.8-.4 1.7-.5 2.7-.5zm.1 2.3a3 3 0 00-2.2.7 4 4 0 00-1 2.3h6c0-.4 0-.8-.2-1.2 0-.3-.2-.7-.5-1l-.9-.6a3 3 0 00-1.2-.2zm11.7-2.1V32h-3.2V18.7h3.2zm.5-4c0 .4 0 .6-.2.9a2.1 2.1 0 01-1 1 2 2 0 01-2.3-.4l-.4-.6-.2-.8a2 2 0 01.6-1.5 2 2 0 011.4-.6c.3 0 .6 0 .8.2a2.1 2.1 0 011.1 1c.2.3.2.6.2.9zm7.8 3.7c.5 0 1 0 1.6.2l1.4.5h3.8v1.2c0 .2 0 .4-.2.5 0 0-.2.2-.5.2l-1.2.2a4.1 4.1 0 01.3 1.5 4 4 0 01-1.5 3.2 5 5 0 01-1.6.9 6.8 6.8 0 01-3.6.1c-.4.3-.6.5-.6.9 0 .2.1.4.4.6l1 .2 1.3.1a28.6 28.6 0 013.1.3c.6.1 1 .3 1.4.5l1 1c.2.4.4 1 .4 1.6a4.6 4.6 0 01-1.7 3.2l-2 1a10.5 10.5 0 01-5.4.1c-.8-.2-1.4-.5-1.9-.8-.5-.3-.8-.7-1-1.1-.3-.4-.4-.9-.4-1.3 0-.7.2-1.2.5-1.6a4 4 0 011.6-1l-.8-.7c-.2-.3-.3-.7-.3-1.2l.1-.6.4-.7c0-.2.3-.4.5-.6l.8-.5c-.7-.3-1.2-.8-1.6-1.4-.4-.6-.6-1.3-.6-2.2a4 4 0 011.5-3.1 5 5 0 011.7-.9c.6-.2 1.3-.3 2-.3zm3.5 14.2c0-.3 0-.5-.2-.6l-.7-.4-1-.2a17.4 17.4 0 00-2.3-.2l-1.2-.1-1 .7c-.1.3-.3.6-.3 1l.2.6c.1.2.3.4.6.5.2.2.6.3 1 .4l1.5.1 1.5-.1c.4-.1.8-.2 1-.4.4-.2.6-.4.7-.6l.2-.7zM72.1 25c.4 0 .7 0 1-.2.3 0 .6-.2.8-.4l.4-.7.1-.9a2 2 0 00-.5-1.5c-.4-.4-1-.6-1.8-.6s-1.4.2-1.8.6a2 2 0 00-.6 1.5c0 .3 0 .6.2.9a2 2 0 001.1 1.1c.3.2.7.2 1 .2zm8.8 7V12.7h3.2V20c.5-.5 1.1-.9 1.7-1.2a5 5 0 012.2-.4c.8 0 1.4 0 2 .3l1.4 1c.4.5.7 1 .8 1.7.2.6.3 1.3.3 2V32h-3.2v-8.5c0-.8-.2-1.4-.5-1.9-.4-.4-1-.7-1.7-.7-.6 0-1.1.2-1.6.4l-1.4 1V32H81zm19.2.2c-1.2 0-2-.3-2.7-1-.6-.6-1-1.5-1-2.7v-7.4h-1.3c-.1 0-.3 0-.4-.2l-.2-.5V19l2.1-.3.7-3.7.3-.4.4-.1h1.7v4.2h3.5V21h-3.5v7.2c0 .4 0 .7.3 1 .2.2.5.3.8.3h.5a2.8 2.8 0 00.7-.3l.2-.1h.2l.2.3 1 1.5-1.6 1a6 6 0 01-2 .2zm13.6-11l-.3.4h-.9a34.2 34.2 0 00-1.4-.7l-1-.1c-.7 0-1.2.1-1.5.4-.4.3-.6.6-.6 1 0 .3.1.6.3.8l.7.5 1 .4a34.3 34.3 0 012.5.8l1 .7.8 1c.2.4.2.8.2 1.4 0 .6 0 1.2-.3 1.7-.2.6-.6 1-1 1.5-.5.3-1 .7-1.7.9a7.2 7.2 0 01-3.6.2 8 8 0 01-2.4-.9l-1-.6.8-1.3.4-.3.5-.1c.2 0 .4 0 .5.2a12.5 12.5 0 001.5.7l1.2.2c.4 0 .7 0 1-.2l.6-.3.4-.5.1-.7c0-.3 0-.5-.2-.7l-.8-.5-1-.4a34.8 34.8 0 01-2.4-1c-.4 0-.8-.3-1.1-.6l-.7-1c-.2-.5-.3-1-.3-1.6a3.8 3.8 0 011.3-2.8c.4-.4 1-.7 1.5-1l2.2-.2c1 0 1.8.1 2.5.4.8.3 1.4.7 2 1.2l-.8 1.2z"/>
    </g>
    <g transform="translate(674 512)">
      <rect width="140.5" height="23.5" x="5.8" y="1.8" fill="#F03969" stroke="#F03969" stroke-width="3.5" rx="11.8"/>
      <path fill="#FFF" fill-rule="nonzero" d="M17 10.1h2.1v1.7h.2c.1-.6.4-1 .8-1.4A3 3 0 0122 10c1 0 1.8.3 2.4 1 .6.7.9 1.5.9 2.6V20h-2.3v-6.2c0-.6-.1-1-.5-1.4-.3-.4-.7-.5-1.3-.5-.6 0-1 .1-1.4.5a2 2 0 00-.5 1.4V20H17v-9.9zM26.6 9V7H32v9.8c0 .4 0 .7.3.9.2.2.5.3.8.3h3v2h-3.2c-1 0-1.8-.3-2.3-.8-.6-.6-.9-1.4-.9-2.4V9h-3.1zm11 1.1h2.2v1.7h.2c0-.6.4-1 .8-1.4a3 3 0 011.8-.5c.5 0 1 .1 1.4.3.4.2.8.4 1 .8.4.3.6.7.8 1.2l.2 1.6v2.5c0 .6 0 1.1-.2 1.6s-.4.9-.7 1.2c-.3.4-.7.6-1.1.8-.4.2-.9.3-1.4.3a3 3 0 01-1.8-.5c-.4-.4-.7-.8-.8-1.4h-.2V18.9a18.5 18.5 0 000 1.1v3h-2.2V10.2zm2.3 3.7v2.5c0 .5.2 1 .5 1.4.3.3.8.5 1.4.5.6 0 1-.2 1.4-.5.4-.4.6-.9.6-1.5v-2.4c0-.6-.2-1-.6-1.4a2 2 0 00-1.4-.5c-.6 0-1 .1-1.4.5a2 2 0 00-.5 1.4zm10.4 4.6c0-.5.1-1 .4-1.3.3-.3.8-.4 1.3-.4s1 .1 1.3.4c.3.3.4.8.4 1.3s-.1 1-.4 1.3c-.3.3-.8.5-1.3.5s-1-.2-1.3-.5c-.3-.3-.4-.8-.4-1.3zm8-8.3h2v1.7h.3c0-.6.4-1 .8-1.4a3 3 0 011.8-.5c.5 0 1 .1 1.4.3.4.2.8.4 1 .8.4.3.6.7.8 1.2l.2 1.6v2.5c0 .6 0 1.1-.2 1.6s-.4.9-.7 1.2c-.3.4-.7.6-1.1.8-.4.2-.9.3-1.4.3a3 3 0 01-1.8-.5c-.4-.4-.7-.8-.8-1.4h-.2V18.9a18.5 18.5 0 000 1.1v3h-2.2V10.2zm2.2 3.7v2.5c0 .5.2 1 .5 1.4.3.3.8.5 1.4.5.6 0 1-.2 1.4-.5.4-.4.6-.9.6-1.5v-2.4c0-.6-.2-1-.6-1.4a2 2 0 00-1.4-.5c-.6 0-1 .1-1.4.5a2 2 0 00-.5 1.4zm8.2 4.1h3.5v-5.8h-3v-2h5.2v7.8h2.9V20h-8.6v-2zm2.9-10.5c0-.3.1-.6.3-.8.3-.3.6-.4 1-.4h.4c.4 0 .7.1 1 .4.2.2.3.5.3.8 0 .4-.1.7-.3.9-.3.2-.6.3-1 .3H73c-.4 0-.7-.1-1-.3-.2-.2-.3-.5-.3-.9zm7.2 2.7H81v1.7h.2c0-.6.4-1 .8-1.4a3 3 0 011.8-.5c.5 0 1 .1 1.4.3.4.2.8.4 1 .8.4.3.6.7.8 1.2l.2 1.6v2.5c0 .6 0 1.1-.2 1.6s-.4.9-.7 1.2c-.3.4-.7.6-1.1.8-.4.2-.9.3-1.4.3a3 3 0 01-1.8-.5c-.4-.4-.7-.8-.8-1.4H81V18.9a18.5 18.5 0 000 1.1v3h-2.2V10.2zm2.3 3.7v2.5c0 .5.2 1 .5 1.4.3.3.8.5 1.4.5.6 0 1-.2 1.4-.5.4-.4.6-.9.6-1.5v-2.4c0-.6-.2-1-.6-1.4a2 2 0 00-1.4-.5c-.6 0-1 .1-1.4.5a2 2 0 00-.5 1.4zm7.8 0c0-.6.1-1.1.3-1.6.2-.5.5-.9.9-1.2.3-.4.8-.6 1.3-.8.5-.2 1.1-.3 1.8-.3l1.8.3c.5.2 1 .4 1.3.8.4.3.7.7.9 1.2.2.5.3 1 .3 1.6v1.8H91v.7c0 .6.2 1.1.6 1.5.3.4.9.6 1.5.6.5 0 .9-.1 1.2-.3.4-.1.6-.3.8-.6h2.2l-.5 1.1-1 .9-1.2.5a5.6 5.6 0 01-3.3 0c-.5-.3-1-.5-1.3-.9-.4-.3-.7-.7-.9-1.2a4 4 0 01-.3-1.6v-2.5zm2.2.3h4.2v-.3a2 2 0 00-.6-1.5 2 2 0 00-1.5-.6 2 2 0 00-1.5.6 2 2 0 00-.6 1.5v.3zM98.7 9V7h5.4v9.8c0 .4 0 .7.3.9.2.2.5.3.8.3h3v2H105c-1 0-1.8-.3-2.3-.8-.6-.6-.9-1.4-.9-2.4V9h-3.1zm11.2 9h3.5V12h-3v-2h5.2v7.8h2.9V20h-8.6v-2zm2.9-10.6c0-.3.1-.6.3-.8.3-.3.6-.4 1-.4h.4c.4 0 .7.1 1 .4.2.2.3.5.3.8 0 .4-.1.7-.3.9-.3.2-.6.3-1 .3h-.4c-.4 0-.7-.1-1-.3-.2-.2-.3-.5-.3-.9zm7.2 2.7h2.1v1.7h.2c.1-.6.4-1 .8-1.4a3 3 0 011.8-.5c1 0 1.8.3 2.4 1 .6.7.9 1.5.9 2.6V20h-2.3v-6.2c0-.6-.1-1-.5-1.4-.3-.4-.7-.5-1.3-.5-.6 0-1 .1-1.4.5a2 2 0 00-.5 1.4V20H120v-9.9zm10.1 3.7c0-.6.1-1.1.3-1.6.2-.5.5-.9.9-1.2.3-.4.8-.6 1.3-.8.5-.2 1.1-.3 1.8-.3l1.8.3c.5.2 1 .4 1.3.8.4.3.7.7.9 1.2.2.5.3 1 .3 1.6v1.8h-6.4v.7c0 .6.2 1.1.6 1.5.3.4.9.6 1.5.6.5 0 .9-.1 1.2-.3.4-.1.6-.3.8-.6h2.2l-.5 1.1-1 .9-1.2.5a5.6 5.6 0 01-3.3 0c-.5-.3-1-.5-1.3-.9-.4-.3-.7-.7-.9-1.2a4 4 0 01-.3-1.6v-2.5zm2.2.3h4.2v-.3a2 2 0 00-.6-1.5 2 2 0 00-1.5-.6 2 2 0 00-1.5.6 2 2 0 00-.6 1.5v.3z"/>
    </g>
    <path fill="#F03969" fill-rule="nonzero" d="M859.3 642.8v19.5h6.5v-19.5z"/>
    <g>
      <g fill-rule="nonzero">
        <path fill="#E1E8ED" d="M585 62l-30-30a6.7 6.7 0 00-9.4 9.4l-12.8 12.8 30 30 12.8-12.8A6.7 6.7 0 00585 62z"/>
        <path fill="#CCD6DD" d="M550.3 30h-50C493 30 487 36 487 43.3v93.4c0 7.3 6 13.3 13.3 13.3h73.4c7.3 0 13.3-6 13.3-13.3v-70h-30a7.2 7.2 0 01-6.7-6.7V30z"/>
        <path fill="#99AAB5" d="M550.3 30h-6.6v30c0 7.4 6 13.3 13.3 13.3h30v-6.6h-30a7.2 7.2 0 01-6.7-6.7V30zm-16.6 29.3c0 2.2-1.5 4-3.4 4h-26.6c-1.9 0-3.4-1.8-3.4-4s1.5-4 3.4-4h26.6c1.9 0 3.4 1.8 3.4 4zm0 13.4c0 2.2-1.5 4-3.4 4h-26.6c-1.9 0-3.4-1.8-3.4-4s1.5-4 3.4-4h26.6c1.9 0 3.4 1.8 3.4 4zm40 13.3c0 2.2-1.5 4-3.4 4h-66.6c-1.9 0-3.4-1.8-3.4-4s1.5-4 3.4-4h66.6c1.9 0 3.4 1.8 3.4 4zm0 13.3c0 2.2-1.5 4-3.4 4h-66.6c-1.9 0-3.4-1.8-3.4-4s1.5-4 3.4-4h66.6c1.9 0 3.4 1.8 3.4 4zm0 13.4c0 2.2-1.5 4-3.4 4h-66.6c-1.9 0-3.4-1.8-3.4-4s1.5-4 3.4-4h66.6c1.9 0 3.4 1.8 3.4 4zm0 13.3c0 2.2-1.5 4-3.4 4h-66.6c-1.9 0-3.4-1.8-3.4-4s1.5-4 3.4-4h66.6c1.9 0 3.4 1.8 3.4 4z"/>
      </g>
      <g fill-rule="nonzero" opacity=".6">
        <path fill="#E1E8ED" d="M699 62l-30-30a6.7 6.7 0 00-9.4 9.4l-12.8 12.8 30 30 12.8-12.8A6.7 6.7 0 00699 62z"/>
        <path fill="#CCD6DD" d="M664.3 30h-50C607 30 601 36 601 43.3v93.4c0 7.3 6 13.3 13.3 13.3h73.4c7.3 0 13.3-6 13.3-13.3v-70h-30a7.2 7.2 0 01-6.7-6.7V30z"/>
        <path fill="#99AAB5" d="M664.3 30h-6.6v30c0 7.4 6 13.3 13.3 13.3h30v-6.6h-30a7.2 7.2 0 01-6.7-6.7V30zm-16.6 29.3c0 2.2-1.5 4-3.4 4h-26.6c-1.9 0-3.4-1.8-3.4-4s1.5-4 3.4-4h26.6c1.9 0 3.4 1.8 3.4 4zm0 13.4c0 2.2-1.5 4-3.4 4h-26.6c-1.9 0-3.4-1.8-3.4-4s1.5-4 3.4-4h26.6c1.9 0 3.4 1.8 3.4 4zm40 13.3c0 2.2-1.5 4-3.4 4h-66.6c-1.9 0-3.4-1.8-3.4-4s1.5-4 3.4-4h66.6c1.9 0 3.4 1.8 3.4 4zm0 13.3c0 2.2-1.5 4-3.4 4h-66.6c-1.9 0-3.4-1.8-3.4-4s1.5-4 3.4-4h66.6c1.9 0 3.4 1.8 3.4 4zm0 13.4c0 2.2-1.5 4-3.4 4h-66.6c-1.9 0-3.4-1.8-3.4-4s1.5-4 3.4-4h66.6c1.9 0 3.4 1.8 3.4 4zm0 13.3c0 2.2-1.5 4-3.4 4h-66.6c-1.9 0-3.4-1.8-3.4-4s1.5-4 3.4-4h66.6c1.9 0 3.4 1.8 3.4 4z"/>
      </g>
      <g fill-rule="nonzero" opacity=".6">
        <path fill="#E1E8ED" d="M471 62l-30-30a6.7 6.7 0 00-9.4 9.4l-12.8 12.8 30 30 12.8-12.8A6.7 6.7 0 00471 62z"/>
        <path fill="#CCD6DD" d="M436.3 30h-50C379 30 373 36 373 43.3v93.4c0 7.3 6 13.3 13.3 13.3h73.4c7.3 0 13.3-6 13.3-13.3v-70h-30a7.2 7.2 0 01-6.7-6.7V30z"/>
        <path fill="#99AAB5" d="M436.3 30h-6.6v30c0 7.4 6 13.3 13.3 13.3h30v-6.6h-30a7.2 7.2 0 01-6.7-6.7V30zm-16.6 29.3c0 2.2-1.5 4-3.4 4h-26.6c-1.9 0-3.4-1.8-3.4-4s1.5-4 3.4-4h26.6c1.9 0 3.4 1.8 3.4 4zm0 13.4c0 2.2-1.5 4-3.4 4h-26.6c-1.9 0-3.4-1.8-3.4-4s1.5-4 3.4-4h26.6c1.9 0 3.4 1.8 3.4 4zm40 13.3c0 2.2-1.5 4-3.4 4h-66.6c-1.9 0-3.4-1.8-3.4-4s1.5-4 3.4-4h66.6c1.9 0 3.4 1.8 3.4 4zm0 13.3c0 2.2-1.5 4-3.4 4h-66.6c-1.9 0-3.4-1.8-3.4-4s1.5-4 3.4-4h66.6c1.9 0 3.4 1.8 3.4 4zm0 13.4c0 2.2-1.5 4-3.4 4h-66.6c-1.9 0-3.4-1.8-3.4-4s1.5-4 3.4-4h66.6c1.9 0 3.4 1.8 3.4 4zm0 13.3c0 2.2-1.5 4-3.4 4h-66.6c-1.9 0-3.4-1.8-3.4-4s1.5-4 3.4-4h66.6c1.9 0 3.4 1.8 3.4 4z"/>
      </g>
      <g transform="translate(505 137)">
        <rect width="56.5" height="23.5" x="2.8" y="1.8" fill="#3D4251" stroke="#3D4251" stroke-width="3.5" rx="11.8"/>
        <path fill="#FFF" fill-rule="nonzero" d="M12.1 9.1v-2h9.4v2h-3.6V20h-2.2V9.1H12zm10.7 4.7c0-.6.1-1.1.3-1.6.2-.5.5-.9.9-1.2.3-.4.8-.6 1.3-.8.5-.2 1.1-.3 1.8-.3l1.8.3c.5.2 1 .4 1.3.8.4.3.7.7.9 1.2.2.5.3 1 .3 1.6v1.8H25v.7c0 .6.2 1.1.6 1.5.3.4.9.6 1.5.6.5 0 .9-.1 1.2-.3.4-.1.6-.3.8-.6h2.2l-.5 1.1-1 .9-1.2.5a5.6 5.6 0 01-3.3 0c-.5-.3-1-.5-1.3-.9-.4-.3-.7-.7-.9-1.2a4 4 0 01-.3-1.6v-2.5zm2.2.3h4.2v-.3a2 2 0 00-.6-1.5 2 2 0 00-1.5-.6 2 2 0 00-1.5.6 2 2 0 00-.6 1.5v.3zm11.1.8L32.8 10h2.6l1.6 2.5.3.5v.2h.2V13l.1-.2.2-.3 1.7-2.5H42l-3.3 4.8 3.5 5.1h-2.6l-1.8-2.8a5.1 5.1 0 01-.3-.7h-.2v.2a2 2 0 01-.3.5L35.1 20h-2.5l3.5-5.1zm7-4.8h2.7v-3h2.3v3h3.8v2H48V17c0 .4 0 .6.3.8.2.2.4.3.8.3h2.5v2H49c-1 0-1.7-.3-2.3-.8a3 3 0 01-.9-2.3v-4.8h-2.7v-2z"/>
      </g>
    </g>
    <g>
      <g fill-rule="nonzero">
        <path fill="#CCD6DD" d="M583 1123.3h-86.7a10 10 0 00-10 10v86.7a10 10 0 0010 10H583a10 10 0 0010-10v-86.7a10 10 0 00-10-10z"/>
        <path fill="#E1E8ED" d="M583 1120h-86.7c-7.3 0-13.3 6-13.3 13.3v86.7c0 7.4 6 13.3 13.3 13.3H583c7.4 0 13.3-6 13.3-13.3v-86.7c0-7.3-6-13.3-13.3-13.3zm0 6.7c3.7 0 6.7 3 6.7 6.6v13.4h-20v-20H583zm-13.3 53.3h20v20h-20v-20zm0-6.7v-20h20v20h-20zm-6.7-46.6v20h-20v-20h20zm-20 26.6h20v20h-20v-20zm0 26.7h20v20h-20v-20zm-6.7-53.3v20h-20v-20h20zm-20 26.6h20v20h-20v-20zm0 26.7h20v20h-20v-20zm-26.6-46.7c0-3.6 3-6.6 6.6-6.6h13.4v20h-20v-13.4zm0 20h20v20h-20v-20zm0 26.7h20v20h-20v-20zm6.6 46.7c-3.6 0-6.6-3-6.6-6.7v-13.3h20v20h-13.4zm20 0v-20h20v20h-20zm26.7 0v-20h20v20h-20zm40 0h-13.3v-20h20v13.3c0 3.7-3 6.7-6.7 6.7z"/>
        <path fill="#5C913B" d="M523 1226.7h-20V1170c0-3.7 3-6.7 6.7-6.7h6.6c3.7 0 6.7 3 6.7 6.7v56.7z"/>
        <path fill="#3B94D9" d="M576.3 1226.7h-20v-80c0-3.7 3-6.7 6.7-6.7h6.7c3.6 0 6.6 3 6.6 6.7v80z"/>
        <path fill="#DD2E44" d="M549.7 1226.7h-20v-33.4c0-3.6 3-6.6 6.6-6.6h6.7c3.7 0 6.7 3 6.7 6.6v33.4z"/>
      </g>
      <g transform="translate(509 1107)">
        <rect width="54.5" height="23.5" x="2.8" y="1.8" fill="#3D4251" stroke="#3D4251" stroke-width="3.5" rx="11.8"/>
        <path fill="#FFF" fill-rule="nonzero" d="M11.7 7h4c.7 0 1.3.1 1.8.3.6.2 1 .5 1.4.9.4.3.7.8.9 1.3.2.5.3 1 .3 1.6V16c0 .6-.1 1.2-.3 1.7a3.7 3.7 0 01-2.3 2.1c-.5.2-1.1.3-1.8.3h-4V7zM14 18h1.7c.7 0 1.2-.3 1.6-.6.3-.4.5-1 .5-1.5V11a2 2 0 00-.5-1.4c-.4-.4-1-.6-1.6-.6H14V18zm7.6-.8c0-.5.1-.9.3-1.3.2-.4.4-.7.8-1 .3-.3.7-.5 1.2-.6.5-.2 1-.3 1.6-.3H28v-.8c0-.5-.2-.8-.6-1-.3-.4-.8-.5-1.4-.5-.5 0-.9 0-1.2.3-.4.2-.6.4-.7.7H22a3 3 0 011.4-2c.3-.3.7-.4 1.2-.6L26 10c.7 0 1.2 0 1.8.2.5.2 1 .4 1.3.7a3 3 0 011.1 2.4V20h-2.1v-2h-.2c0 .7-.4 1.2-1 1.6-.6.4-1.3.6-2.1.6-1 0-1.7-.3-2.3-.8-.6-.6-.9-1.3-.9-2.2zM24 17c0 .4.1.8.4 1 .3.3.8.4 1.3.4.7 0 1.2-.1 1.7-.5.4-.3.7-.7.7-1.2v-1.2h-2.5c-.5 0-1 .1-1.2.4-.3.2-.4.6-.4 1zm8-6.9h2.6v-3h2.3v3h3.8v2h-3.8V17c0 .4 0 .6.3.8.2.2.4.3.8.3h2.5v2h-2.7c-1 0-1.7-.3-2.3-.8a3 3 0 01-.9-2.3v-4.8h-2.7v-2zm10.3 7.1c0-.5.1-.9.3-1.3.2-.4.4-.7.8-1 .3-.3.7-.5 1.2-.6.5-.2 1-.3 1.6-.3h2.5v-.8c0-.5-.2-.8-.6-1-.3-.4-.8-.5-1.4-.5-.5 0-.9 0-1.2.3-.4.2-.6.4-.7.7h-2.2a3 3 0 011.4-2c.3-.3.7-.4 1.2-.6l1.5-.2c.7 0 1.2 0 1.8.2.5.2 1 .4 1.3.7a3 3 0 011.1 2.4V20h-2.1v-2h-.2c0 .7-.4 1.2-1 1.6-.6.4-1.3.6-2.1.6-1 0-1.7-.3-2.3-.8-.6-.6-.9-1.3-.9-2.2zm2.3-.2c0 .4.1.8.4 1 .3.3.8.4 1.3.4.7 0 1.2-.1 1.7-.5.4-.3.7-.7.7-1.2v-1.2H46c-.5 0-1 .1-1.2.4-.3.2-.4.6-.4 1z"/>
      </g>
    </g>
    <g fill="url(#a)" fill-rule="nonzero" transform="translate(525 187)">
      <path d="M15.3 52H25L12.5 77 0 52h8.8V.7h6.4V52z"/>
    </g>
    <g fill-rule="nonzero">
      <path fill="url(#b)" d="M48.3 44v19H58L45.5 88 33 63h8.8V44H9c-5 0-9-4-9-9v-4c0-5 4-9 9-9h32.8V.7h6.5V22H83c5 0 9 4 9 9v4c0 5-4 9-9 9H48.2z" transform="translate(492 420)"/>
      <path fill="#FFF" d="M506 455.3l.3.1.9 1c-.5.5-1 1-1.8 1.3a6 6 0 01-2.4.4 5.1 5.1 0 01-5.2-3.5 7 7 0 010-4.8 5.5 5.5 0 013.1-3 6.4 6.4 0 014.7 0c.6.2 1.2.6 1.6 1l-.7 1-.1.2h-.3l-.4-.1a4.7 4.7 0 00-1.2-.6l-1.2-.2-1.5.3-1.2.8-.7 1.3a5 5 0 00-.3 1.7c0 .7 0 1.2.3 1.8.2.5.4.9.7 1.2.3.4.7.6 1.1.8l1.4.3h.8a3.4 3.4 0 001.2-.5c.2 0 .4-.2.6-.4h.1l.2-.1zm13.9-3c0 .8-.1 1.5-.4 2.3-.3.7-.7 1.3-1.2 1.8-.5.6-1.2 1-1.9 1.3-.7.3-1.5.4-2.4.4a5.4 5.4 0 01-5.4-3.6c-.3-.7-.4-1.4-.4-2.3 0-.8.1-1.6.4-2.3a5.6 5.6 0 013-3.2c.8-.2 1.6-.4 2.4-.4 1 0 1.7.2 2.4.5a5.5 5.5 0 013 3c.4.8.5 1.6.5 2.4zm-2.2 0c0-.7-.1-1.3-.3-1.8a3.1 3.1 0 00-1.9-2 4 4 0 00-1.5-.4l-1.5.3-1.1.8c-.4.4-.6.8-.8 1.3-.2.5-.2 1-.2 1.7s0 1.2.2 1.7.4 1 .8 1.3c.3.4.7.6 1.1.8l1.5.3c.6 0 1.1-.1 1.6-.3.4-.2.8-.4 1.1-.8.3-.3.6-.8.7-1.3.2-.5.3-1 .3-1.7zm5-5.9h.4l.2.2.1.2 6.1 7.7a8 8 0 010-1v-7h1.8V458h-1a1 1 0 01-.5 0 1 1 0 01-.3-.4l-6-7.7a11.1 11.1 0 010 1v7.1h-2v-11.6h1.2zm19.1 0v1.8h-3.4v9.8h-2.2v-9.8h-3.5v-1.8h9.1zm11.6 11.6h-1.7a.7.7 0 01-.7-.5l-.9-2.3h-4.8l-.8 2.3a.8.8 0 01-.7.5H542l4.5-11.6h2.2l4.6 11.6zm-7.5-4.4h3.7l-1.4-3.8a17.6 17.6 0 01-.5-1.4 26.7 26.7 0 01-.4 1.4l-1.4 3.8zm11 4.4h-2v-11.6h2V458zm3.8-11.6h.4l.2.2.1.2 6.1 7.7a8 8 0 010-1v-7h1.8V458h-1a1 1 0 01-.5 0 1 1 0 01-.3-.4l-6-7.7a11.1 11.1 0 010 1v7.1h-2v-11.6h1.2zm17.2 2.1c0 .2-.1.2-.2.3h-.7a12.2 12.2 0 00-1-.6l-1-.1h-.7l-.6.4-.3.4-.1.6c0 .3 0 .5.2.7l.6.5.9.3a41.9 41.9 0 012 .7l.8.6a2.6 2.6 0 01.8 2c0 .6 0 1-.2 1.5a3.4 3.4 0 01-2 2l-1.8.3a5.5 5.5 0 01-3.8-1.5l.6-1 .2-.2h.7a13 13 0 001.3.8l1 .2c.7 0 1.2-.2 1.5-.5.3-.3.5-.7.5-1.2 0-.3 0-.6-.2-.8l-.6-.4-.9-.4a28.4 28.4 0 01-2-.7l-.8-.5c-.3-.3-.5-.6-.6-1a3.4 3.4 0 01.8-3.6l1.1-.7a5.4 5.4 0 013.5 0c.6.2 1.1.5 1.5 1l-.5 1z"/>
    </g>
    <g>
      <path stroke="#CDB217" stroke-linecap="square" stroke-width="6.5" d="M242 984.8V757.2M267.2 984.9H242"/>
      <path fill="#CDB217" d="M241.5 735l12.5 25h-25z"/>
    </g>
    <g>
      <path stroke="#CDB217" stroke-linecap="square" stroke-width="6.5" d="M554.5 982h27.3"/>
      <path fill="#CDB217" d="M601 981.5L576 994v-25z"/>
    </g>
    <g>
      <path stroke="#CDB217" stroke-linecap="square" stroke-width="6.5" d="M522.5 982h-27.3"/>
      <path fill="#CDB217" d="M476 981.5l25 12.5v-25z"/>
    </g>
    <g fill-rule="nonzero">
      <path fill="url(#c)" d="M39 38l-.3 13H48L35.5 76 23 51h9.2l.3-13H9c-5 0-9-4-9-9v-4c0-5 4-9 9-9h24L33.3.7l6.5.1-.3 15.2H62c5 0 9 4 9 9v4c0 5-4 9-9 9H39z" transform="rotate(-180 448.5 396.5)"/>
      <path fill="#FFF" d="M841.3 760.4v1.8h-3.5v9.8h-2.1v-9.8h-3.5v-1.8h9zm3.6 7v4.6h-2.2v-11.6h3.6c.7 0 1.4.1 2 .3.5.1 1 .4 1.4.7l.8 1 .2 1.4a3.5 3.5 0 01-.7 2l-.8.8-1 .5.7.6 2.9 4.3h-2a1 1 0 01-.5-.1 1 1 0 01-.3-.3l-2.4-3.7-.3-.3a1 1 0 00-.5-.1h-1zm0-1.5h1.3l1-.1.8-.4.5-.7.1-.8c0-.6-.2-1-.6-1.3-.4-.3-1-.5-1.7-.5h-1.4v3.8zm18.4 6.1h-1.7a.7.7 0 01-.7-.5l-.8-2.3h-4.8l-.9 2.3a.8.8 0 01-.7.5H852l4.6-11.6h2.2l4.5 11.6zm-7.5-4.4h3.7l-1.4-3.8a17.6 17.6 0 01-.4-1.4 26.7 26.7 0 01-.5 1.4l-1.4 3.8zM867 772h-2.1v-11.6h2.1V772zm3.7-11.6h.5l.1.2.2.2 6 7.7a8 8 0 010-1v-7h1.9V772h-1.1a1 1 0 01-.5 0 1 1 0 01-.3-.4l-6-7.7a11.1 11.1 0 010 1v7.1h-1.9v-11.6h1.1zm17.2 2.1c0 .2-.1.2-.2.3h-.3-.3a12.2 12.2 0 00-1.1-.6l-.9-.1h-.8l-.5.4c-.2 0-.3.2-.4.4v.6l.1.7.6.5.9.3a41.9 41.9 0 012 .7l.8.6a2.6 2.6 0 01.9 2c0 .6-.1 1-.3 1.5a3.4 3.4 0 01-2 2 5.5 5.5 0 01-5.5-1.2l.6-1c0-.1 0-.2.2-.2h.7a13 13 0 001.3.8l1 .2c.6 0 1-.2 1.4-.5.4-.3.5-.7.5-1.2 0-.3 0-.6-.2-.8l-.6-.4-.9-.4a28.4 28.4 0 01-2-.7l-.8-.5-.6-1a3.4 3.4 0 01.8-3.6 4.3 4.3 0 012.8-1c.7 0 1.3.1 1.9.3.5.2 1 .5 1.4 1l-.5 1z"/>
    </g>
    <g fill="url(#d)" fill-rule="nonzero" transform="translate(526 883)">
      <path d="M15.2 168H25l-12.5 25L0 168h8.7L9.3.7h6.5L15.2 168z"/>
    </g>
    <g fill-rule="nonzero">
      <path fill="url(#e)" d="M50.8 45H10c-5 0-9-4-9-9v-4c0-5 4-9 9-9h40.8V.7h28v6.5H57.3V23H72c5 0 9 4 9 9v4c0 5-4 9-9 9H57.2v37H67l-12.5 25L42 82h8.8V45z" transform="translate(318 791)"/>
      <path fill="#FFF" d="M332.6 828.3l.3.1.9 1c-.5.5-1 1-1.8 1.3a6 6 0 01-2.4.4 5.1 5.1 0 01-5.2-3.5 7 7 0 010-4.8 5.5 5.5 0 013.1-3 6.4 6.4 0 014.7 0c.6.2 1.2.6 1.6 1l-.7 1-.1.2h-.3l-.4-.1a4.7 4.7 0 00-1.2-.6l-1.2-.2-1.5.3-1.2.8-.7 1.3a5 5 0 00-.3 1.7c0 .7 0 1.2.3 1.8.2.5.4.9.7 1.2.3.4.7.6 1.1.8l1.4.3h.8a3.4 3.4 0 001.2-.5c.2 0 .4-.2.6-.4h.1l.2-.1zm5-1.8v4.5h-2.1v-11.6h3.5c.8 0 1.5.1 2 .3.6.1 1 .4 1.4.7.4.3.6.6.8 1a3.5 3.5 0 01-.4 3.4l-.8.8-1.1.5c.3.1.5.3.7.6l2.9 4.3h-2a1 1 0 01-.4-.1 1 1 0 01-.3-.3l-2.5-3.7c0-.2-.2-.3-.3-.3a1 1 0 00-.5-.1h-.9zm0-1.6h1.4l1-.1.8-.4.4-.7.2-.8c0-.6-.2-1-.6-1.3-.4-.3-1-.5-1.8-.5h-1.4v3.8zm15.6-5.5v1.7H348v3.3h4v1.6h-4v3.3h5.2v1.7h-7.3v-11.6h7.3zm12 11.6h-1.7a.7.7 0 01-.7-.5l-.8-2.3h-4.8l-.9 2.3a.8.8 0 01-.7.5h-1.7l4.6-11.6h2.2l4.5 11.6zm-7.5-4.4h3.7l-1.4-3.8a17.6 17.6 0 01-.4-1.4 26.7 26.7 0 01-.5 1.4l-1.4 3.8zm16.9-7.2v1.8H371v9.8h-2.2v-9.8h-3.5v-1.8h9.2zm8.6 0v1.7h-5.1v3.3h4v1.6h-4v3.3h5.1v1.7H376v-11.6h7.3zm8 2.1l-.1.3h-.7a12.2 12.2 0 00-1-.6l-1-.1h-.7l-.6.4-.3.4-.1.6c0 .3 0 .5.2.7l.6.5.9.3a41.9 41.9 0 012 .7l.8.6a2.6 2.6 0 01.8 2c0 .6 0 1-.3 1.5a3.4 3.4 0 01-2 2c-.5.2-1 .3-1.7.3a5.5 5.5 0 01-3.8-1.5l.6-1 .2-.2h.7a13 13 0 001.3.8l1 .2c.7 0 1.2-.2 1.5-.5.3-.3.5-.7.5-1.2 0-.3 0-.6-.2-.8l-.6-.4-.9-.4a28.4 28.4 0 01-2-.7l-.8-.5c-.3-.3-.5-.6-.6-1a3.4 3.4 0 01.8-3.6l1.1-.7c.5-.2 1-.3 1.6-.3.7 0 1.4.1 2 .3.5.2 1 .5 1.4 1l-.5 1z"/>
    </g>
    <g fill-rule="nonzero">
      <path fill="url(#e)" d="M39.8 45H9c-5 0-9-4-9-9v-4c0-5 4-9 9-9h30.8V.7h28v6.5H46.3V23H71c5 0 9 4 9 9v4c0 5-4 9-9 9H46.2v37H56l-12.5 25L31 82h8.8V45z" transform="matrix(-1 0 0 1 756 791)"/>
      <path fill="#FFF" d="M691.6 828.3l.3.1.9 1c-.5.5-1 1-1.8 1.3a6 6 0 01-2.4.4 5.1 5.1 0 01-5.2-3.5 7 7 0 010-4.8 5.5 5.5 0 013.1-3 6.4 6.4 0 014.7 0c.6.2 1.2.6 1.6 1l-.7 1-.1.2h-.3l-.4-.1a4.7 4.7 0 00-1.2-.6l-1.2-.2-1.5.3-1.2.8-.7 1.3a5 5 0 00-.3 1.7c0 .7 0 1.2.3 1.8.2.5.4.9.7 1.2.3.4.7.6 1.1.8l1.4.3h.8a3.4 3.4 0 001.2-.5c.2 0 .4-.2.6-.4h.1l.2-.1zm5-1.8v4.5h-2.1v-11.6h3.5c.8 0 1.5.1 2 .3.6.1 1 .4 1.4.7.4.3.6.6.8 1a3.5 3.5 0 01-.4 3.4l-.8.8-1.1.5c.3.1.5.3.7.6l2.9 4.3h-2a1 1 0 01-.4-.1 1 1 0 01-.3-.3l-2.5-3.7c0-.2-.2-.3-.3-.3a1 1 0 00-.5-.1h-.9zm0-1.6h1.4l1-.1.8-.4.4-.7.2-.8c0-.6-.2-1-.6-1.3-.4-.3-1-.5-1.8-.5h-1.4v3.8zm15.6-5.5v1.7H707v3.3h4v1.6h-4v3.3h5.2v1.7h-7.3v-11.6h7.3zm12 11.6h-1.7a.7.7 0 01-.7-.5l-.8-2.3h-4.8l-.9 2.3a.8.8 0 01-.7.5h-1.7l4.6-11.6h2.2l4.5 11.6zm-7.5-4.4h3.7l-1.4-3.8a17.6 17.6 0 01-.4-1.4 26.7 26.7 0 01-.5 1.4l-1.4 3.8zm16.9-7.2v1.8H730v9.8h-2.2v-9.8h-3.5v-1.8h9.2zm8.6 0v1.7h-5.1v3.3h4v1.6h-4v3.3h5.1v1.7H735v-11.6h7.3zm8 2.1l-.1.3h-.7a12.2 12.2 0 00-1-.6l-1-.1h-.7l-.6.4-.3.4-.1.6c0 .3 0 .5.2.7l.6.5.9.3a41.9 41.9 0 012 .7l.8.6a2.6 2.6 0 01.8 2c0 .6 0 1-.3 1.5a3.4 3.4 0 01-2 2c-.5.2-1 .3-1.7.3a5.5 5.5 0 01-3.8-1.5l.6-1 .2-.2h.7a13 13 0 001.3.8l1 .2c.7 0 1.2-.2 1.5-.5.3-.3.5-.7.5-1.2 0-.3 0-.6-.2-.8l-.6-.4-.9-.4a28.4 28.4 0 01-2-.7l-.8-.5c-.3-.3-.5-.6-.6-1a3.4 3.4 0 01.8-3.6l1.1-.7c.5-.2 1-.3 1.6-.3.7 0 1.4.1 2 .3.5.2 1 .5 1.4 1l-.5 1z"/>
    </g>
    <g fill-rule="nonzero">
      <path fill="url(#f)" d="M44.3 85v80H54l-12.5 25L29 165h8.8V85H10c-5 0-9-4-9-9v-4c0-5 4-9 9-9h27.8V.8h6.5V63H72c5 0 9 4 9 9v4c0 5-4 9-9 9H44.2z" transform="translate(201 425)"/>
      <path fill="#FFF" d="M215.6 501.3l.3.1.9 1c-.5.5-1 1-1.8 1.3a6 6 0 01-2.4.4 5.1 5.1 0 01-5.2-3.5 7 7 0 010-4.8 5.5 5.5 0 013.1-3 6.4 6.4 0 014.7 0c.6.2 1.2.6 1.6 1l-.7 1-.1.2h-.3l-.4-.1a4.7 4.7 0 00-1.2-.6l-1.2-.2-1.5.3-1.2.8-.7 1.3a5 5 0 00-.3 1.7c0 .7 0 1.2.3 1.8.2.5.4.9.7 1.2.3.4.7.6 1.1.8l1.4.3h.8a3.4 3.4 0 001.2-.5c.2 0 .4-.2.6-.4h.1l.2-.1zm5-1.8v4.5h-2.1v-11.6h3.5c.8 0 1.5.1 2 .3.6.1 1 .4 1.4.7.4.3.6.6.8 1a3.5 3.5 0 01-.4 3.4l-.8.8-1.1.5c.3.1.5.3.7.6l2.9 4.3h-2a1 1 0 01-.4-.1 1 1 0 01-.3-.3l-2.5-3.7c0-.2-.2-.3-.3-.3a1 1 0 00-.5-.1h-.9zm0-1.6h1.4l1-.1.8-.4.4-.7.2-.8c0-.6-.2-1-.6-1.3-.4-.3-1-.5-1.8-.5h-1.4v3.8zm15.6-5.5v1.7H231v3.3h4v1.6h-4v3.3h5.2v1.7h-7.3v-11.6h7.3zm12 11.6h-1.7a.7.7 0 01-.7-.5l-.8-2.3h-4.8l-.9 2.3a.8.8 0 01-.7.5h-1.7l4.6-11.6h2.2l4.5 11.6zm-7.5-4.4h3.7l-1.4-3.8a17.6 17.6 0 01-.4-1.4 26.7 26.7 0 01-.5 1.4l-1.4 3.8zm16.9-7.2v1.8H254v9.8h-2.2v-9.8h-3.5v-1.8h9.2zm8.6 0v1.7h-5.1v3.3h4v1.6h-4v3.3h5.1v1.7H259v-11.6h7.3zm8 2.1l-.1.3h-.7a12.2 12.2 0 00-1-.6l-1-.1h-.7l-.6.4-.3.4-.1.6c0 .3 0 .5.2.7l.6.5.9.3a41.9 41.9 0 012 .7l.8.6a2.6 2.6 0 01.8 2c0 .6 0 1-.3 1.5a3.4 3.4 0 01-2 2c-.5.2-1 .3-1.7.3a5.5 5.5 0 01-3.8-1.5l.6-1 .2-.2h.7a13 13 0 001.3.8l1 .2c.7 0 1.2-.2 1.5-.5.3-.3.5-.7.5-1.2 0-.3 0-.6-.2-.8l-.6-.4-.9-.4a28.4 28.4 0 01-2-.7l-.8-.5c-.3-.3-.5-.6-.6-1a3.4 3.4 0 01.8-3.6l1.1-.7c.5-.2 1-.3 1.6-.3.7 0 1.4.1 2 .3.5.2 1 .5 1.4 1l-.5 1z"/>
    </g>
    <g fill-rule="nonzero">
      <path fill="url(#g)" d="M43.3 45v21H53L40.5 91 28 66h8.8V45H10c-5 0-9-4-9-9v-4c0-5 4-9 9-9h26.8V.2h6.5V23H72c5 0 9 4 9 9v4c0 5-4 9-9 9H43.2z" transform="translate(411 626)"/>
      <path fill="#FFF" d="M425.6 662.3l.3.1.9 1c-.5.5-1 1-1.8 1.3a6 6 0 01-2.4.4 5.1 5.1 0 01-5.2-3.5 7 7 0 010-4.8 5.5 5.5 0 013.1-3 6.4 6.4 0 014.7 0c.6.2 1.2.6 1.6 1l-.7 1-.1.2h-.3l-.4-.1a4.7 4.7 0 00-1.2-.6l-1.2-.2-1.5.3-1.2.8-.7 1.3a5 5 0 00-.3 1.7c0 .7 0 1.2.3 1.8.2.5.4.9.7 1.2.3.4.7.6 1.1.8l1.4.3h.8a3.4 3.4 0 001.2-.5c.2 0 .4-.2.6-.4h.1l.2-.1zm5-1.8v4.5h-2.1v-11.6h3.5c.8 0 1.5.1 2 .3.6.1 1 .4 1.4.7.4.3.6.6.8 1a3.5 3.5 0 01-.4 3.4l-.8.8-1.1.5c.3.1.5.3.7.6l2.9 4.3h-2a1 1 0 01-.4-.1 1 1 0 01-.3-.3l-2.5-3.7c0-.2-.2-.3-.3-.3a1 1 0 00-.5-.1h-.9zm0-1.6h1.4l1-.1.8-.4.4-.7.2-.8c0-.6-.2-1-.6-1.3-.4-.3-1-.5-1.8-.5h-1.4v3.8zm15.6-5.5v1.7H441v3.3h4v1.6h-4v3.3h5.2v1.7h-7.3v-11.6h7.3zm12 11.6h-1.7a.7.7 0 01-.7-.5l-.8-2.3h-4.8l-.9 2.3a.8.8 0 01-.7.5h-1.7l4.6-11.6h2.2l4.5 11.6zm-7.5-4.4h3.7l-1.4-3.8a17.6 17.6 0 01-.4-1.4 26.7 26.7 0 01-.5 1.4l-1.4 3.8zm16.9-7.2v1.8H464v9.8h-2.2v-9.8h-3.5v-1.8h9.2zm8.6 0v1.7h-5.1v3.3h4v1.6h-4v3.3h5.1v1.7H469v-11.6h7.3zm8 2.1l-.1.3h-.7a12.2 12.2 0 00-1-.6l-1-.1h-.7l-.6.4-.3.4-.1.6c0 .3 0 .5.2.7l.6.5.9.3a41.9 41.9 0 012 .7l.8.6a2.6 2.6 0 01.8 2c0 .6 0 1-.3 1.5a3.4 3.4 0 01-2 2c-.5.2-1 .3-1.7.3a5.5 5.5 0 01-3.8-1.5l.6-1 .2-.2h.7a13 13 0 001.3.8l1 .2c.7 0 1.2-.2 1.5-.5.3-.3.5-.7.5-1.2 0-.3 0-.6-.2-.8l-.6-.4-.9-.4a28.4 28.4 0 01-2-.7l-.8-.5c-.3-.3-.5-.6-.6-1a3.4 3.4 0 01.8-3.6l1.1-.7c.5-.2 1-.3 1.6-.3.7 0 1.4.1 2 .3.5.2 1 .5 1.4 1l-.5 1z"/>
    </g>
    <g fill-rule="nonzero">
      <path fill="url(#h)" d="M52.3 45v21H62L49.5 91 37 66h8.8V45H9c-5 0-9-4-9-9v-4c0-5 4-9 9-9h36.8V.2h6.5V23H90c5 0 9 4 9 9v4c0 5-4 9-9 9H52.2z" transform="translate(562 629)"/>
      <path fill="#FFF" d="M571.4 664v4h-2.2v-11.6h3.8c.7 0 1.4.1 2 .3.5.2 1 .4 1.4.8l.8 1.1.3 1.5c0 .6-.1 1-.3 1.6l-.9 1.2a4 4 0 01-1.4.7c-.5.2-1.2.3-2 .3h-1.5zm0-1.8h1.6l1-.1.7-.4.5-.7a2.6 2.6 0 000-1.7l-.5-.7a2 2 0 00-.7-.4l-1-.1h-1.6v4.1zm10 1.3v4.5h-2.2v-11.6h3.5c.8 0 1.5.1 2 .3.6.1 1 .4 1.4.7.4.3.7.6.8 1a3.5 3.5 0 01-.4 3.4l-.8.8-1 .5.6.6 3 4.3h-2a1 1 0 01-.5-.1 1 1 0 01-.3-.3l-2.4-3.7-.3-.3a1 1 0 00-.5-.1h-1zm0-1.6h1.3l1-.1.8-.4.4-.7.2-.8c0-.6-.2-1-.6-1.3-.4-.3-1-.5-1.8-.5h-1.3v3.8zm19.3.3c0 .9-.1 1.6-.4 2.4-.3.7-.7 1.3-1.2 1.8-.5.6-1.1 1-1.9 1.3-.7.3-1.5.4-2.3.4a5.4 5.4 0 01-5.4-3.6c-.4-.7-.5-1.4-.5-2.3 0-.8.1-1.6.4-2.3a5.6 5.6 0 013-3.2c.8-.2 1.6-.4 2.5-.4.8 0 1.6.2 2.3.5a5.5 5.5 0 013 3c.4.8.5 1.6.5 2.4zm-2.2 0c0-.6 0-1.2-.3-1.7a3.1 3.1 0 00-1.9-2 4 4 0 00-1.4-.4c-.6 0-1.1.1-1.6.3l-1.1.8-.8 1.3-.2 1.7c0 .7 0 1.2.2 1.7l.8 1.3c.3.4.7.6 1.1.8.5.2 1 .3 1.6.3l1.5-.3c.4-.2.8-.4 1.1-.8.3-.3.6-.8.7-1.3.2-.5.3-1 .3-1.7zm11.9 3l.3.2.8 1c-.5.5-1 1-1.7 1.3a6 6 0 01-2.5.4 5.1 5.1 0 01-5.2-3.5 7 7 0 010-4.8 5.5 5.5 0 013.2-3 6.4 6.4 0 014.6 0c.7.2 1.2.6 1.7 1l-.7 1-.2.2h-.3l-.4-.1a4.7 4.7 0 00-1.2-.6l-1.1-.2c-.6 0-1 .1-1.5.3-.5.2-.9.5-1.2.8-.4.4-.6.8-.8 1.3a5 5 0 00-.3 1.7c0 .7.1 1.2.3 1.8.2.5.4.9.8 1.2.3.4.6.6 1 .8l1.4.3h.8a3.4 3.4 0 001.3-.5l.5-.4h.2l.2-.1zm10-8.8v1.7h-5.1v3.3h4v1.6h-4v3.3h5.1v1.7h-7.3v-11.6h7.3zm8 2.1l-.1.3h-.3-.3a12.2 12.2 0 00-1.2-.6l-.8-.1h-.8l-.6.4-.3.4-.1.6c0 .3 0 .5.2.7l.6.5.9.3a41.9 41.9 0 012 .7l.8.6a2.6 2.6 0 01.8 2c0 .6 0 1-.2 1.5a3.4 3.4 0 01-2 2 5.5 5.5 0 01-5.5-1.2l.5-1 .2-.2h.8a13 13 0 001.2.8l1 .2c.7 0 1.2-.2 1.5-.5.3-.3.5-.7.5-1.2 0-.3 0-.6-.2-.8l-.6-.4-.9-.4a28.4 28.4 0 01-2-.7l-.8-.5-.6-1a3.4 3.4 0 01.8-3.6 4.3 4.3 0 012.8-1c.6 0 1.3.1 1.8.3.6.2 1.1.5 1.5 1l-.5 1zm8.7 0c0 .2-.2.2-.2.3h-.7a12.2 12.2 0 00-1-.6l-1-.1h-.7l-.6.4-.3.4-.1.6c0 .3 0 .5.2.7l.6.5.9.3a41.9 41.9 0 012 .7l.8.6a2.6 2.6 0 01.8 2c0 .6 0 1-.3 1.5a3.4 3.4 0 01-2 2c-.5.2-1 .3-1.7.3a5.5 5.5 0 01-3.8-1.5l.6-1 .2-.2h.7a13 13 0 001.3.8l1 .2c.7 0 1.1-.2 1.5-.5.3-.3.5-.7.5-1.2 0-.3 0-.6-.2-.8l-.6-.4-.9-.4a28.4 28.4 0 01-2-.7l-.8-.5c-.3-.3-.5-.6-.6-1a3.4 3.4 0 01.7-3.6l1.2-.7c.5-.2 1-.3 1.6-.3.7 0 1.4.1 2 .3.5.2 1 .5 1.4 1l-.5 1zm9.7-2v1.6h-5.2v3.3h4v1.6h-4v3.3h5.2v1.7h-7.3v-11.6h7.3zm8 2c0 .2-.1.2-.2.3h-.3-.3a12.2 12.2 0 00-1.1-.6l-.9-.1h-.8l-.5.4c-.2 0-.3.2-.4.4v.6l.1.7.7.5.8.3a41.9 41.9 0 012 .7l.8.6a2.6 2.6 0 01.9 2c0 .6-.1 1-.3 1.5a3.4 3.4 0 01-2 2 5.5 5.5 0 01-5.5-1.2l.6-1c0-.1 0-.2.2-.2h.7a13 13 0 001.3.8l1 .2c.6 0 1-.2 1.4-.5.4-.3.5-.7.5-1.2 0-.3 0-.6-.2-.8-.1-.2-.3-.3-.6-.4l-.9-.4a28.4 28.4 0 01-2-.7l-.8-.5-.6-1a3.4 3.4 0 01.8-3.6 4.3 4.3 0 012.8-1c.7 0 1.3.1 1.9.3.6.2 1 .5 1.4 1l-.5 1z"/>
    </g>
    <g transform="translate(199 851)">
      <rect width="87" height="22" fill="#CDB217" rx="9"/>
      <path fill="#FFF" fill-rule="nonzero" d="M16.4 16h-1.7a.7.7 0 01-.7-.5l-.9-2.3H8.4l-1 2.3a.8.8 0 01-.6.5H5L9.6 4.4h2.2L16.4 16zm-7.5-4.4h3.7l-1.4-3.8a17.6 17.6 0 01-.5-1.4 26.7 26.7 0 01-.4 1.4L9 11.6zm16.6 1.7l.3.1.9 1c-.5.5-1 1-1.7 1.3a6 6 0 01-2.5.4 5.1 5.1 0 01-5.2-3.5 7 7 0 010-4.8 5.5 5.5 0 013.1-3 6.4 6.4 0 014.7 0c.6.2 1.2.6 1.7 1l-.8 1-.1.2h-.3l-.4-.1a4.7 4.7 0 00-1.2-.6L22.8 6l-1.5.3-1.1.8c-.4.4-.6.8-.8 1.3a5 5 0 00-.3 1.7c0 .7.1 1.2.3 1.8.2.5.4.9.7 1.2l1.1.8 1.4.3h.8a3.4 3.4 0 001.2-.5c.2 0 .4-.2.6-.4h.1l.2-.1zm10.8 0l.3.1.8 1c-.5.5-1 1-1.7 1.3a6 6 0 01-2.5.4 5.1 5.1 0 01-5.2-3.5 7 7 0 010-4.8 5.5 5.5 0 013.2-3 6.4 6.4 0 014.6 0c.7.2 1.2.6 1.7 1l-.7 1-.2.2h-.3L36 7a4.7 4.7 0 00-1.2-.6L33.6 6c-.6 0-1 .1-1.5.3-.5.2-.9.5-1.2.8L30 8.5a5 5 0 00-.3 1.7c0 .7.1 1.2.3 1.8.2.5.4.9.8 1.2.3.4.6.6 1 .8l1.5.3h.7a3.4 3.4 0 001.3-.5c.2 0 .3-.2.5-.4h.2l.2-.1zm10-8.9v1.7h-5v3.3h4V11h-4v3.3h5V16H39V4.4h7.3zm8.1 2.1c0 .2-.1.2-.2.3h-.3-.3a12.2 12.2 0 00-1.1-.6l-1-.1h-.7l-.5.4c-.2 0-.3.2-.4.4l-.1.6c0 .3 0 .5.2.7l.6.5.9.3a41.9 41.9 0 012 .7l.8.6a2.6 2.6 0 01.8 2c0 .6 0 1-.2 1.5a3.4 3.4 0 01-2 2 5.5 5.5 0 01-5.5-1.2l.5-1 .3-.2h.7a13 13 0 001.3.8l1 .2c.6 0 1-.2 1.4-.5.3-.3.5-.7.5-1.2 0-.3 0-.6-.2-.8l-.6-.4-.9-.4a28.4 28.4 0 01-2-.7l-.8-.5-.6-1a3.4 3.4 0 01.8-3.6 4.3 4.3 0 012.8-1c.7 0 1.3.1 1.9.3.5.2 1 .5 1.4 1l-.5 1zm8.6 0c0 .2-.1.2-.2.3H62a12.2 12.2 0 00-1-.6L60 6h-.7l-.6.4-.3.4-.1.6c0 .3 0 .5.2.7l.6.5.9.3a41.9 41.9 0 012 .7l.8.6a2.6 2.6 0 01.8 2c0 .6 0 1-.2 1.5a3.4 3.4 0 01-2 2l-1.8.3a5.5 5.5 0 01-3.8-1.5l.6-1 .2-.2h.7a13 13 0 001.3.8l1 .2c.7 0 1.2-.2 1.5-.5.3-.3.5-.7.5-1.2 0-.3 0-.6-.2-.8l-.6-.4-.9-.4a28.4 28.4 0 01-2-.7l-.8-.5c-.3-.3-.5-.6-.6-1a3.4 3.4 0 01.8-3.6l1.1-.7a5.4 5.4 0 013.5 0c.6.2 1.1.5 1.5 1l-.5 1zm9.7-2V6h-5.2v3.3h4V11h-4v3.3h5.2V16h-7.3V4.4h7.3zm8 2c0 .2-.1.2-.2.3h-.3-.3a12.2 12.2 0 00-1.1-.6l-.9-.1h-.8l-.5.4c-.2 0-.3.2-.4.4v.6c0 .3 0 .5.2.7l.6.5.8.3a41.9 41.9 0 012 .7l.8.6a2.6 2.6 0 01.9 2c0 .6-.1 1-.3 1.5a3.4 3.4 0 01-2 2 5.5 5.5 0 01-5.5-1.2l.6-1 .2-.2h.7a13 13 0 001.3.8l1 .2c.6 0 1.1-.2 1.4-.5.4-.3.5-.7.5-1.2 0-.3 0-.6-.2-.8-.1-.2-.3-.3-.6-.4l-.8-.4a28.4 28.4 0 01-2-.7l-.9-.5-.6-1a3.4 3.4 0 01.8-3.6 4.3 4.3 0 012.8-1c.7 0 1.3.1 1.9.3.6.2 1 .5 1.5 1l-.6 1z"/>
    </g>
    <g fill="#09A3D5" fill-rule="nonzero">
      <path d="M83.4 70.5c-4.9-.5-5.2-7-11.4-6.5-3 0-5.8 1.3-5.8 4 0 4.2 6.4 4.6 10.3 5.7 6.6 2 13 3.4 13 10.6 0 9.2-7.2 12.3-16.6 12.3-8 0-15.9-2.8-15.9-10 0-2.1 2-3.7 3.8-3.7 2.4 0 3.2 1 4 2.7 1.8 3.2 3.9 5 9 5 3.2 0 6.5-1.3 6.5-4 0-4-4-5-8.2-6-7.5-2-13.8-3.1-14.6-11.4C56.7 55 86 54.5 87.7 66.9c0 2.3-2.1 3.6-4.3 3.6zm34.8-12.4c10.3 0 16.2 8.7 16.2 19.4s-5.7 19.3-16.2 19.3c-5.8 0-9.4-2.5-12-6.3v14.1c0 4.3-1.4 6.4-4.5 6.4-3.7 0-4.4-2.5-4.4-6.4V63.5c0-3.4 1.4-5.4 4.4-5.4 3 0 4.5 2.3 4.5 5.4v1.1c2.9-3.6 6.2-6.5 12-6.5zm-2.4 31.3c6 0 8.7-5.5 8.7-12s-2.7-12.2-8.7-12.2c-6.3 0-9.2 5.2-9.2 12.1 0 6.8 3 12.1 9.2 12.1zm25.5-21.2c0-7.4 8.5-10 16.8-10 11.6 0 16.3 3.3 16.3 14.6v10.8c0 2.6 1.6 7.7 1.6 9.2 0 2.4-2.1 3.9-4.4 3.9-2.6 0-4.5-3-5.8-5.2-3.8 3-7.8 5.2-13.9 5.2-6.7 0-12-4-12-10.6 0-5.9 4.1-9.2 9.2-10.4l16-3.9c0-5-1.7-7.2-6.9-7.2-4.6 0-6.9 1.3-8.7 4-1.4 2.2-1.2 3.4-4 3.4-2.2 0-4.2-1.5-4.2-3.8zm13.8 22.4c7 0 10-3.8 10-11.3v-1.5a134 134 0 01-11.6 2.8c-2.2.5-4.4 2.1-4.4 4.8 0 2.9 3 5.2 6 5.2zM207 44c10 0 20.7 6 20.7 15.5 0 2.5-1.8 4.5-4.2 4.5-3.2 0-3.7-1.8-5.1-4.3-2.5-4.4-5.3-7.4-11.4-7.4-9.6 0-13.9 8.2-13.9 18.4 0 10.4 3.6 17.8 13.5 17.8 6.5 0 10.1-3.8 12-8.8.8-2.2 2.1-4.4 5-4.4 2.2 0 4.4 2.2 4.4 4.7C228 90 217.7 97 207.2 97c-11.5 0-18-5-21.6-13a31 31 0 01-3-13.6c0-15.6 9-26.5 24.4-26.5zm57 14.1c2.5 0 4 1.7 4 4.3 0 1-.8 3.1-1.1 4.2l-12.3 32.5c-2.7 7-4.8 11.9-14 11.9-4.5 0-8.3-.4-8.3-4.3 0-2.2 1.7-3.3 4-3.3l1.6.2 1.6.2c4.6 0 5.3-4.8 7-8.1l-12-29.5c-.6-1.6-1-2.7-1-3.6 0-2.6 2-4.5 4.6-4.5 3 0 4.2 2.4 5 5l7.8 23.4 7.8-21.6C260 61.5 260 58 264 58z"/>
    </g>
    <path fill="url(#i)" fill-rule="nonzero" d="M396.3 349.8h-59.5v6.5h59.5z"/>
  </g>
</svg>
