<svg xmlns="http://www.w3.org/2000/svg" width="918" height="633" viewBox="0 0 918 633">
  <defs>
    <linearGradient id="a" x1="50%" x2="50%" y1="0%" y2="100%">
      <stop offset="0%" stop-color="#F03969"/>
      <stop offset="100%" stop-color="#3AD787"/>
    </linearGradient>
    <linearGradient id="b" x1="50%" x2="50%" y1="0%" y2="100%">
      <stop offset="0%" stop-color="#3AD787"/>
      <stop offset="100%" stop-color="#F03969"/>
    </linearGradient>
    <linearGradient id="c" x1="50%" x2="50%" y1="0%" y2="100%">
      <stop offset="0%" stop-color="#8978B5"/>
      <stop offset="100%" stop-color="#F03969"/>
    </linearGradient>
    <linearGradient id="d" x1="50%" x2="50%" y1="0%" y2="100%">
      <stop offset="0%" stop-color="#8978B5"/>
      <stop offset="100%" stop-color="#F03969"/>
    </linearGradient>
    <linearGradient id="e" x1="50%" x2="50%" y1="0%" y2="100%">
      <stop offset="0%" stop-color="#3AD787"/>
      <stop offset="100%" stop-color="#F03969"/>
    </linearGradient>
    <linearGradient id="f" x1="50%" x2="50%" y1="0%" y2="100%">
      <stop offset="0%" stop-color="#F03969"/>
      <stop offset="100%" stop-color="#8978B5"/>
    </linearGradient>
    <linearGradient id="g" x1="50%" x2="50%" y1="0%" y2="100%">
      <stop offset="0%" stop-color="#8978B5"/>
      <stop offset="100%" stop-color="#F03969"/>
    </linearGradient>
  </defs>
  <g fill="none" fill-rule="evenodd">
    <g stroke="#F03969">
      <rect width="289" height="115" fill="#EAC1CC" stroke-linejoin="round" stroke-width="5" rx="12" transform="translate(303 64)"/>
      <rect width="64.3" height="21.5" x="3.8" y="1.8" fill="#F03969" stroke-width="3.5" rx="10.8" transform="translate(409 51)"/>
    </g>
    <rect width="132" height="59" x="2.5" y="2.5" fill="#D7CCF4" stroke="#8978B5" stroke-width="5" rx="12" transform="translate(683 78)"/>
    <rect width="132" height="59" x="2.5" y="2.5" fill="#D7CCF4" stroke="#8978B5" stroke-width="5" rx="12" transform="translate(78 78)"/>
    <path fill="url(#a)" fill-rule="nonzero" d="M12.8 28.8H20l-10 20-10-20h7.2V0h5.6v28.8z" transform="translate(328 213)"/>
    <path fill="url(#b)" fill-rule="nonzero" d="M12.8 28.8H20l-10 20-10-20h7.2V0h5.6v28.8z" transform="rotate(-180 186 131)"/>
    <path fill="url(#c)" fill-rule="nonzero" d="M726.2 144.7h-12V209H709v-69.5h17.2V132l19.8 10-19.8 9.9v-7.2z" transform="matrix(0 -1 -1 0 898 898)"/>
    <path fill="url(#d)" fill-rule="nonzero" d="M199.8 220.3V103H228v5.2h-23v112h6.9l-10 19.8-9.9-19.7h7.8z" transform="rotate(-90 210 171.5)"/>
    <path fill="url(#e)" fill-rule="nonzero" d="M432 178v82h7v-82z" transform="rotate(-180 435.5 219)"/>
    <path fill="#EDFFF6" stroke="#3AD787" stroke-dasharray="0 16" stroke-linecap="round" stroke-linejoin="round" stroke-width="6" d="M107 328h708a30 30 0 0130 30v206a30 30 0 01-30 30H107a30 30 0 01-30-30V358a30 30 0 0130-30z"/>
    <rect width="288" height="99" fill="#B5F3D4" stroke="#3AD787" stroke-linejoin="round" stroke-width="5" rx="12" transform="translate(300 272)"/>
    <path fill="#F2E7A6" stroke="#CDB217" stroke-linejoin="round" stroke-width="3.8" d="M315 304l23 20-23 19h-90a12 12 0 01-12-12v-15a12 12 0 0112-12h90zM664 304l23 20-23 19h-98a12 12 0 01-12-12v-15a12 12 0 0112-12h98z"/>
    <rect width="69.5" height="23.5" x="8.8" y="1.8" fill="#3AD787" stroke="#3AD787" stroke-width="3.5" rx="11.8" transform="translate(396 259)"/>
    <rect width="217" height="119" fill="#B5F3D4" stroke="#3AD787" stroke-linejoin="round" stroke-width="5" rx="12" transform="translate(186 407)"/>
    <rect width="241" height="119" fill="#B5F3D4" stroke="#3AD787" stroke-linejoin="round" stroke-width="5" rx="12" transform="translate(476 407)"/>
    <path fill="#F2E7A6" stroke="#CDB217" stroke-linejoin="round" stroke-width="3.8" d="M803 439l23 20-23 19h-98a12 12 0 01-12-12v-15a12 12 0 0112-12h98zM506 439l23 20-23 19H383a12 12 0 01-12-12v-15a12 12 0 0112-12h123z"/>
    <g stroke="#3AD787">
      <rect width="114" height="55" fill="#B5F3D4" stroke-linejoin="round" stroke-width="5" rx="12" transform="translate(176 509)"/>
      <rect width="69.5" height="23.5" x="8.8" y="1.8" fill="#3AD787" stroke-width="3.5" rx="11.8" transform="translate(190 496)"/>
    </g>
    <g stroke="#3AD787">
      <rect width="114" height="55" fill="#B5F3D4" stroke-linejoin="round" stroke-width="5" rx="12" transform="translate(300 509)"/>
      <rect width="69.5" height="23.5" x="8.8" y="1.8" fill="#3AD787" stroke-width="3.5" rx="11.8" transform="translate(314 496)"/>
    </g>
    <g stroke="#3AD787">
      <rect width="114" height="55" fill="#B5F3D4" stroke-linejoin="round" stroke-width="5" rx="12" transform="translate(542 509)"/>
      <rect width="69.5" height="23.5" x="8.8" y="1.8" fill="#3AD787" stroke-width="3.5" rx="11.8" transform="translate(556 496)"/>
    </g>
    <path fill="#F2E7A6" stroke="#CDB217" stroke-linejoin="round" stroke-width="3.8" d="M197 439l23 20-23 19h-90a12 12 0 01-12-12v-15a12 12 0 0112-12h90z"/>
    <rect width="69.5" height="23.5" x="8.8" y="1.8" fill="#3AD787" stroke="#3AD787" stroke-width="3.5" rx="11.8" transform="translate(251 393)"/>
    <rect width="69.5" height="23.5" x="8.8" y="1.8" fill="#3AD787" stroke="#3AD787" stroke-width="3.5" rx="11.8" transform="translate(559 394)"/>
    <path fill="url(#f)" fill-rule="nonzero" d="M12.2 51H20L10 71 0 51h7V0h5.2v51z" transform="rotate(-90 363 -240.5)"/>
    <path fill="#8978B5" fill-rule="nonzero" d="M850.5 108.3v-7.8l20 10-20 10v-7h-21v-5.2h21zM48.5 108.3v-7.8l20 10-20 10v-7h-21v-5.2h21z"/>
    <path fill="url(#g)" fill-rule="nonzero" d="M12.2 51H20L10 71 0 51h7V0h5.2v51z" transform="rotate(-90 172.5 -51)"/>
    <rect width="119" height="48" fill="#EAC1CC" stroke="#F03969" stroke-linejoin="round" stroke-width="5" rx="12" transform="translate(293 155)"/>
    <rect width="217" height="48" fill="#EAC1CC" stroke="#F03969" stroke-linejoin="round" stroke-width="5" rx="12" transform="translate(453 155)"/>
    <path fill="#3D4251" fill-rule="nonzero" d="M356.7 122c.4 0 .6 0 .9.3l2.3 2.6a12.8 12.8 0 01-4.8 3.7c-1.9.9-4.1 1.3-6.8 1.3-2.3 0-4.4-.4-6.3-1.2a14 14 0 01-8-8.6 19.8 19.8 0 01.2-13.3 15.2 15.2 0 0115.1-9.8 14.5 14.5 0 0110.7 4.2l-2 2.8-.4.4c-.1.2-.4.2-.7.2-.4 0-.7-.1-1-.4a12.8 12.8 0 00-3.5-1.7c-.8-.3-1.8-.4-3.1-.4-1.5 0-2.9.3-4.1.8a9.2 9.2 0 00-3.3 2.2c-.9 1-1.6 2.2-2 3.6-.6 1.4-.8 3-.8 4.7 0 1.9.2 3.5.7 4.9.5 1.4 1.2 2.6 2 3.5a8.8 8.8 0 007 3l2.1-.1a9.2 9.2 0 003.4-1.2l1.4-1.1.5-.3.5-.1zm17-15.7c1.7 0 3.2.3 4.6.9a9.9 9.9 0 015.7 6c.6 1.5.8 3 .8 4.9 0 1.8-.2 3.4-.8 4.9a9.7 9.7 0 01-5.8 6 12.3 12.3 0 01-9.2 0 9.8 9.8 0 01-5.7-6 14 14 0 01-.8-5c0-1.7.3-3.3.8-4.8a10 10 0 015.8-6c1.4-.6 3-.9 4.6-.9zm0 19.3c1.9 0 3.3-.6 4.2-1.9a9.7 9.7 0 001.3-5.6c0-2.4-.4-4.3-1.3-5.6-1-1.3-2.3-2-4.2-2-2 0-3.3.7-4.2 2a9.7 9.7 0 00-1.4 5.6c0 2.5.5 4.3 1.4 5.6.9 1.3 2.3 2 4.2 2zm15.4 4v-22.9h3.3c.7 0 1.2.3 1.4 1l.3 1.7 1.3-1.2a8 8 0 013-1.6 7 7 0 011.8-.3c1.4 0 2.6.4 3.5 1.2a7 7 0 012 3.1 7 7 0 013.2-3.2 9.6 9.6 0 017.5-.4c.9.3 1.7.9 2.4 1.6.6.8 1.1 1.7 1.5 2.7.3 1.1.5 2.3.5 3.7v14.5h-5.4V115c0-1.4-.3-2.5-1-3.3-.6-.7-1.5-1-2.8-1-.5 0-1 0-1.5.2a3.7 3.7 0 00-2.1 2.2c-.2.6-.3 1.2-.3 2v14.4h-5.5V115c0-1.5-.3-2.6-.9-3.3-.6-.7-1.5-1-2.7-1-.8 0-1.5.1-2.2.5-.7.4-1.3 1-1.9 1.6v16.7h-5.4zm37 7.4v-30.3h3.4c.3 0 .6 0 .9.2l.5.8.4 2.1c1-1 2-1.9 3.1-2.5a8.4 8.4 0 017.6-.2c1 .5 1.9 1.2 2.6 2.2.8 1 1.3 2.2 1.7 3.7a18.6 18.6 0 010 9.7c-.5 1.4-1.2 2.7-2 3.8a8.8 8.8 0 01-7 3.4 8 8 0 01-3.3-.6 8 8 0 01-2.4-1.6v9.3h-5.4zm10.6-26.4c-1.1 0-2 .3-2.9.7-.8.5-1.5 1.2-2.2 2v10.3a5.2 5.2 0 004.3 2c.9 0 1.6 0 2.3-.4.7-.3 1.2-.8 1.7-1.4a7 7 0 001-2.4c.3-1 .4-2.1.4-3.5 0-1.3 0-2.4-.3-3.3-.2-1-.5-1.7-1-2.3-.3-.6-.8-1-1.4-1.3-.5-.2-1.2-.4-1.9-.4zm24-4.3c1.7 0 3.2.3 4.6.9a9.9 9.9 0 015.7 6c.6 1.5.8 3 .8 4.9 0 1.8-.2 3.4-.8 4.9a9.7 9.7 0 01-5.8 6 12.3 12.3 0 01-9.2 0 9.8 9.8 0 01-5.7-6 14 14 0 01-.8-5c0-1.7.3-3.3.8-4.8a10 10 0 015.8-6c1.4-.6 2.9-.9 4.6-.9zm0 19.3c1.9 0 3.3-.6 4.2-1.9a9.7 9.7 0 001.3-5.6c0-2.4-.4-4.3-1.3-5.6-1-1.3-2.3-2-4.2-2-2 0-3.3.7-4.2 2a9.7 9.7 0 00-1.4 5.6c0 2.5.5 4.3 1.4 5.6.9 1.3 2.3 2 4.2 2zm15.4 4v-22.9h3.3c.7 0 1.2.3 1.4 1l.4 1.8a12.4 12.4 0 013-2.3 8.1 8.1 0 014-.9 8 8 0 013.2.7c1 .4 1.8 1 2.4 1.8.6.7 1.1 1.6 1.5 2.7.3 1 .5 2.2.5 3.5v14.5h-5.5V115a5 5 0 00-1-3.2c-.6-.8-1.5-1.2-2.8-1.2-1 0-1.8.2-2.7.7-.8.4-1.6 1-2.3 1.7v16.5h-5.4zm34.3-23.3c1.5 0 2.8.3 4 .7a8.6 8.6 0 015 5.3 12.4 12.4 0 01.8 5.4l-.2.7-.4.3-.6.1h-14c.2 2.4.8 4 1.9 5.2 1 1 2.5 1.6 4.3 1.6.9 0 1.6 0 2.3-.3.6-.2 1.2-.4 1.6-.7l1.3-.7a2 2 0 011-.3c.3 0 .4 0 .6.2.2 0 .3.2.4.3l1.6 2a9 9 0 01-2 1.8 11.3 11.3 0 01-4.8 1.8l-2.5.2c-1.6 0-3-.3-4.4-.8a9.8 9.8 0 01-3.5-2.4 11 11 0 01-2.4-3.8 15 15 0 010-9.7c.4-1.3 1.1-2.5 2-3.5 1-1 2.1-1.9 3.5-2.5 1.3-.6 2.8-.9 4.5-.9zm.1 4a5 5 0 00-3.7 1.3c-.9 1-1.4 2.2-1.7 3.9h10.2a7 7 0 00-.3-2c-.2-.6-.4-1.2-.8-1.7s-1-.8-1.5-1.1a5 5 0 00-2.2-.4zm14.1 19.2v-22.8h3.4c.7 0 1.1.3 1.3 1l.4 1.8a12.4 12.4 0 013-2.3 8.1 8.1 0 014-.9 8 8 0 013.3.7c1 .4 1.7 1 2.4 1.8.6.7 1 1.6 1.4 2.7.3 1 .5 2.2.5 3.5v14.5H539V115a5 5 0 00-1-3.2c-.6-.8-1.6-1.2-2.9-1.2-.9 0-1.8.2-2.6.7-.8.4-1.6 1-2.3 1.7v16.5h-5.5zm32.5.4c-2 0-3.5-.6-4.5-1.7a6.5 6.5 0 01-1.6-4.6v-12.8h-2.3a1 1 0 01-.8-.3c-.2-.2-.3-.4-.3-.8v-2.2l3.6-.6 1.2-6.2c0-.3.2-.6.4-.7.2-.2.5-.3.8-.3h2.8v7.2h6v4h-6v12.3c0 .7.2 1.3.5 1.7.4.4.9.6 1.5.6.3 0 .6 0 .8-.2a4.6 4.6 0 001-.5h.8l.4.4 1.6 2.7c-.8.6-1.7 1.1-2.7 1.5-1 .3-2.1.5-3.2.5z"/>
    <path fill="#FFF" fill-rule="nonzero" d="M430.5 56.8c.6 0 1.2.1 1.7.3l1.4.8.8 1.3c.2.4.3 1 .3 1.6 0 .6 0 1.1-.3 1.6l-.8 1.3a4 4 0 01-1.4.8c-.5.2-1.1.3-1.7.3h-2.3v5.1H426V57h4.5zm-2.3 6h2.3a2 2 0 001.4-.5c.4-.4.6-.9.6-1.5a2 2 0 00-.6-1.5 2 2 0 00-1.4-.6h-2.3v4.1zm8.2 5h3.5V62h-3v-2h5.2v7.8h2.8V70h-8.5v-2zm2.9-10.6c0-.4.1-.6.3-.9.3-.2.6-.3 1-.3h.4c.4 0 .7.1 1 .3.2.3.3.5.3.9s-.1.7-.4.9c-.2.2-.5.3-.9.3h-.4c-.4 0-.7-.1-1-.3-.2-.2-.3-.5-.3-.9zm7.2 2.7h2.1v1.7h.2c.1-.6.4-1 .9-1.4.4-.3 1-.5 1.7-.5.5 0 1 .1 1.4.3.4.2.8.4 1 .8.4.3.6.7.8 1.2l.2 1.6v2.5c0 .6 0 1.2-.2 1.7s-.4.9-.7 1.2c-.3.4-.7.6-1 .8l-1.5.3c-.7 0-1.3-.2-1.7-.5-.5-.4-.8-.8-1-1.4V68.8a19 19 0 000 1.1V73h-2.2V60zm2.2 3.8V66c0 .6.2 1.1.5 1.5.4.3.8.5 1.4.5.6 0 1.1-.2 1.4-.5.4-.4.6-1 .6-1.5v-2.4a2 2 0 00-.6-1.5c-.3-.3-.8-.5-1.4-.5-.6 0-1 .2-1.4.5a2 2 0 00-.5 1.5zm7.8 0c0-.7 0-1.2.3-1.7a3.5 3.5 0 012.2-2c.5-.2 1.1-.3 1.8-.3.6 0 1.2.1 1.7.3l1.3.8c.4.3.7.8.9 1.2.2.5.3 1 .3 1.7v1.8h-6.3v.6c0 .7.2 1.2.5 1.6.4.4 1 .6 1.6.6l1.2-.3c.3-.1.6-.3.7-.6h2.2c0 .4-.3.8-.5 1.1l-1 .9-1.2.5-1.4.2c-.7 0-1.3-.1-1.8-.3-.5-.2-1-.4-1.4-.8-.3-.3-.6-.7-.8-1.2-.2-.5-.3-1-.3-1.6v-2.6zm2.2.2h4.1v-.2c0-.7-.2-1.2-.5-1.6a2 2 0 00-1.5-.6 2 2 0 00-1.6.6c-.3.4-.5.9-.5 1.5v.3z"/>
    <path fill="#3D4251" fill-rule="nonzero" d="M749.2 107.9c0 1.6-.3 3-.8 4.4a10.1 10.1 0 01-5.7 5.7 12 12 0 01-4.5.8H730V97h8.2c1.7 0 3.2.3 4.5.8a10 10 0 015.7 5.7c.5 1.3.8 2.8.8 4.4zm-4.1 0a10 10 0 00-.5-3.2c-.3-1-.8-1.8-1.4-2.4a5.9 5.9 0 00-2.1-1.6c-.8-.3-1.8-.5-2.9-.5H734v15.4h4.2c1.1 0 2-.2 2.9-.6.8-.3 1.5-.8 2.1-1.5.6-.6 1-1.4 1.4-2.4.3-1 .5-2 .5-3.2zm13.6-4.8c1.1 0 2.2.2 3 .5a6.7 6.7 0 014 4.1c.3 1 .5 2.1.5 3.3 0 1.2-.2 2.3-.5 3.3a6.6 6.6 0 01-4 4.1 8.4 8.4 0 01-6.2 0 6.7 6.7 0 01-3.9-4c-.4-1-.5-2.2-.5-3.4 0-1.2.1-2.3.5-3.3a6.8 6.8 0 014-4c.9-.4 2-.6 3-.6zm0 13c1.2 0 2.2-.4 2.8-1.3.6-.8 1-2 1-3.8 0-1.6-.4-2.9-1-3.8-.6-.8-1.6-1.3-2.8-1.3-1.3 0-2.3.5-2.9 1.3-.6 1-1 2.2-1 3.8 0 1.7.4 3 1 3.8.6.9 1.6 1.3 2.9 1.3zm21.2-9.5l-.3.3-.5.1a1 1 0 01-.5-.1 17.8 17.8 0 00-1.6-.8 4 4 0 00-1.3-.2c-.6 0-1.2.1-1.7.4-.4.2-.9.5-1.2 1-.3.4-.5 1-.7 1.6-.2.6-.2 1.3-.2 2.1s0 1.6.2 2.2c.2.7.4 1.2.8 1.6a3.3 3.3 0 002.8 1.4 3.9 3.9 0 002.3-.7l.6-.5c.2-.2.4-.2.7-.2.3 0 .5 0 .6.3l1.1 1.4a6.7 6.7 0 01-2.8 2l-1.6.4-1.6.1a6.2 6.2 0 01-4.9-2 7.5 7.5 0 01-1.5-2.6c-.3-1-.5-2.1-.5-3.4 0-1.1.1-2.2.5-3.1.3-1 .8-1.8 1.4-2.6.6-.7 1.4-1.2 2.3-1.6 1-.4 2-.6 3.2-.6 1.2 0 2.2.2 3 .5.9.4 1.7 1 2.4 1.6l-1 1.4zM140.2 107.9c0 1.6-.3 3-.8 4.4a10.1 10.1 0 01-5.7 5.7 12 12 0 01-4.5.8H121V97h8.2c1.7 0 3.2.3 4.5.8a10 10 0 015.7 5.7c.5 1.3.8 2.8.8 4.4zm-4.1 0a10 10 0 00-.5-3.2c-.3-1-.8-1.8-1.4-2.4a5.9 5.9 0 00-2.1-1.6c-.8-.3-1.8-.5-2.9-.5H125v15.4h4.2c1.1 0 2-.2 2.9-.6.8-.3 1.5-.8 2.1-1.5.6-.6 1-1.4 1.4-2.4.3-1 .5-2 .5-3.2zm13.6-4.8c1.1 0 2.2.2 3 .5a6.7 6.7 0 014 4.1c.3 1 .5 2.1.5 3.3 0 1.2-.2 2.3-.5 3.3a6.6 6.6 0 01-4 4.1 8.4 8.4 0 01-6.2 0 6.7 6.7 0 01-3.9-4c-.4-1-.5-2.2-.5-3.4 0-1.2.1-2.3.5-3.3a6.8 6.8 0 014-4c.9-.4 2-.6 3-.6zm0 13c1.2 0 2.2-.4 2.8-1.3.6-.8 1-2 1-3.8 0-1.6-.4-2.9-1-3.8-.6-.8-1.6-1.3-2.8-1.3-1.3 0-2.3.5-2.9 1.3-.6 1-1 2.2-1 3.8 0 1.7.4 3 1 3.8.6.9 1.6 1.3 2.9 1.3zm21.2-9.5l-.3.3-.5.1a1 1 0 01-.5-.1 17.8 17.8 0 00-1.6-.8 4 4 0 00-1.3-.2c-.6 0-1.2.1-1.7.4-.4.2-.9.5-1.2 1-.3.4-.5 1-.7 1.6-.2.6-.2 1.3-.2 2.1s0 1.6.2 2.2c.2.7.4 1.2.8 1.6a3.3 3.3 0 002.8 1.4 3.9 3.9 0 002.3-.7l.6-.5c.2-.2.4-.2.7-.2.3 0 .5 0 .6.3l1.1 1.4a6.7 6.7 0 01-2.8 2l-1.6.4-1.6.1a6.2 6.2 0 01-4.9-2 7.5 7.5 0 01-1.5-2.6c-.3-1-.5-2.1-.5-3.4 0-1.1.1-2.2.5-3.1.3-1 .8-1.8 1.4-2.6.6-.7 1.4-1.2 2.3-1.6 1-.4 2-.6 3.2-.6 1.2 0 2.2.2 3 .5.9.4 1.7 1 2.4 1.6l-1 1.4zM401 323.5a17.9 17.9 0 011.3 3 49.6 49.6 0 011.3-3l9.4-17.7.4-.5.4-.3.5-.1h5.2v31.8h-5.2V316a26 26 0 01.1-2.6l-9.6 18c-.2.4-.5.8-.9 1-.3.2-.7.3-1.2.3h-.8c-.5 0-.9 0-1.2-.3-.4-.2-.7-.6-.9-1l-9.7-18a19.5 19.5 0 01.1 2.6v20.6H385v-31.8h5.1l.6.1.4.3.4.5 9.5 17.7zm34.2-9.7c1.7 0 3.3.2 4.6.8a9.9 9.9 0 015.8 6c.5 1.4.8 3 .8 4.7a14 14 0 01-.8 4.9c-.5 1.4-1.3 2.6-2.3 3.7-1 1-2.1 1.7-3.5 2.3-1.3.5-2.9.8-4.6.8-1.6 0-3.2-.3-4.6-.8a9.8 9.8 0 01-5.8-6c-.5-1.5-.8-3-.8-4.9 0-1.7.3-3.3.8-4.8a10 10 0 015.8-6c1.4-.5 3-.7 4.6-.7zm0 19c2 0 3.3-.6 4.2-1.9a9.5 9.5 0 001.4-5.5c0-2.4-.5-4.3-1.4-5.6-.9-1.2-2.3-1.9-4.2-1.9-1.9 0-3.3.7-4.2 2a9.5 9.5 0 00-1.3 5.5c0 2.4.4 4.3 1.3 5.5 1 1.3 2.3 2 4.2 2zm31.3 3.9c-.7 0-1.2-.4-1.4-1l-.4-2.2-1.5 1.4a9.3 9.3 0 01-3.6 1.8c-.7.2-1.4.3-2.2.3a7.5 7.5 0 01-6-3c-.8-1-1.3-2.2-1.7-3.6a18.3 18.3 0 010-9.6c.5-1.4 1.1-2.7 2-3.7.8-1.1 1.9-2 3-2.5 1.2-.6 2.6-.9 4-.9a7.8 7.8 0 015.7 2.2V304h5.4v32.7h-3.3zm-7.2-4c1.1 0 2-.2 2.8-.7.8-.5 1.6-1.1 2.3-2v-10.1a5.3 5.3 0 00-4.4-2c-.8 0-1.5 0-2.2.4-.7.3-1.2.8-1.7 1.4-.5.6-.8 1.4-1 2.4a15 15 0 000 6.7c.1 1 .4 1.7.8 2.3.4.5.9 1 1.5 1.2.5.3 1.2.4 1.9.4zm25.7-19c1.4 0 2.8.3 4 .7a8.6 8.6 0 015 5.2 12.1 12.1 0 01.7 5.4c0 .3 0 .5-.2.6 0 .2-.2.3-.3.4h-14.7c.3 2.4.9 4 2 5.2 1 1 2.5 1.6 4.3 1.6.9 0 1.6-.1 2.3-.3l1.6-.7 1.3-.7c.3-.2.7-.3 1-.3.2 0 .4 0 .6.2.2 0 .3.2.4.3l1.6 2a9 9 0 01-2 1.8 11.4 11.4 0 01-4.9 1.7l-2.4.2c-1.6 0-3-.3-4.4-.8a9.8 9.8 0 01-3.5-2.3c-1-1-1.8-2.3-2.4-3.8a14.6 14.6 0 010-9.5c.4-1.4 1.1-2.6 2-3.6a11.2 11.2 0 018-3.3zm.1 4a5 5 0 00-3.7 1.3c-.9.9-1.4 2.2-1.7 3.8h10.2c0-.7 0-1.4-.3-2-.2-.6-.5-1.2-.9-1.6-.4-.5-.9-.9-1.5-1.1-.6-.3-1.3-.4-2-.4zM505 304v32.7h-5.4V304h5.4z"/>
    <g fill-rule="nonzero">
      <path fill="#3D4251" d="M225.3 316v10.9h5.6v2H223v-13h2.3zm7.7 10.9h3.6V321h-3.1v-2h5.2v7.8h2.9v2H233v-2zm3-10.5c0-.4 0-.7.3-.9.2-.2.5-.3.9-.3h.5c.3 0 .6 0 .9.3.2.2.3.5.3.9 0 .3 0 .6-.3.8-.3.2-.6.3-1 .3h-.4c-.4 0-.7 0-1-.3-.2-.2-.3-.5-.3-.8zm6.9 10h2.3c0 .3.2.6.5.7.3.2.7.3 1.1.3h.8c.5 0 1-.1 1.3-.3.3-.3.4-.6.4-1 0-.6-.5-1-1.5-1.2l-1.4-.1c-1.1-.2-2-.5-2.5-1-.6-.4-.8-1.1-.8-2 0-1 .3-1.7 1-2.2.6-.5 1.6-.7 2.8-.7h.7c1.1 0 2 .2 2.7.7.6.4 1 1 1.1 1.9h-2.3a1 1 0 00-.5-.7 2 2 0 00-1-.2h-.7c-1 0-1.6.4-1.6 1.1 0 .6.4 1 1.3 1.1l1.5.2c1.2.2 2 .5 2.6 1 .6.5.8 1.2.8 2 0 1-.3 1.8-1 2.3-.7.6-1.7.8-3 .8h-.7c-1.1 0-2-.2-2.7-.7-.7-.5-1.1-1.1-1.2-2zm10-7.4h2.8v-3h2.2v3h3.8v2h-3.8v4.9c0 .3.1.5.3.7.2.2.4.3.8.3h2.5v2h-2.7c-1 0-1.7-.2-2.3-.8a3 3 0 01-.8-2.2V321h-2.8v-2z"/>
      <path fill="#67708A" d="M265.8 330.9V314h5v2.1H268v12.7h2.8v2.1z"/>
      <path fill="#3D4251" d="M274 316h4c.7 0 1.3 0 1.8.3.6.2 1 .5 1.4.8.4.4.7.8.9 1.3.2.5.3 1 .3 1.7v4.7c0 .6 0 1.2-.3 1.7a3.7 3.7 0 01-2.3 2.1c-.5.2-1.1.3-1.8.3h-4v-13zm2.3 10.9h1.7c.7 0 1.2-.2 1.6-.6.4-.4.6-.9.6-1.5v-4.7a2 2 0 00-.6-1.5c-.4-.4-1-.6-1.6-.6h-1.7v8.9zm12.1 2.2c-.6 0-1.2 0-1.8-.3a4 4 0 01-1.3-.8c-.4-.3-.7-.7-.9-1.2a4 4 0 01-.3-1.6v-2.4c0-.6.1-1.2.3-1.6a3.5 3.5 0 012.2-2l1.8-.3c.7 0 1.3 0 1.8.2l1.3.8 1 1.3.2 1.6v2.4c0 .6 0 1.1-.3 1.6a3.5 3.5 0 01-2.2 2c-.5.2-1.1.3-1.8.3zm-2-3.9c0 .6.1 1 .5 1.4.4.4.9.5 1.5.5a2 2 0 001.5-.5c.4-.3.6-.8.6-1.4v-2.4c0-.6-.2-1.1-.6-1.5a2 2 0 00-1.5-.5 2 2 0 00-1.5.5c-.4.4-.5.9-.5 1.5v2.4zm12.4 4c-.6 0-1.2-.2-1.7-.3-.6-.2-1-.5-1.4-.8l-.9-1.2a4 4 0 01-.3-1.6v-2.6c0-.6.1-1 .3-1.6.3-.4.5-.8 1-1.2a4 4 0 011.3-.8 5.3 5.3 0 013.3 0 4 4 0 012.7 3.3H301c0-.5-.3-.9-.7-1.2-.4-.2-.8-.4-1.4-.4-.6 0-1.1.2-1.5.5-.3.4-.5.8-.5 1.4v2.6c0 .6.2 1 .5 1.4.4.3.9.5 1.5.5s1-.2 1.4-.5c.4-.2.6-.6.7-1h2.2c0 .5-.2 1-.4 1.4a4 4 0 01-2.3 1.8 5 5 0 01-1.6.2z"/>
      <path fill="#67708A" d="M306 330.9v-2.1h2.8v-12.7H306V314h5.1v16.9z"/>
    </g>
    <path fill="#3D4251" fill-rule="nonzero" d="M569.3 329.2c-.7 0-1.2-.1-1.8-.3l-1.3-.8c-.4-.4-.7-.8-.9-1.3-.2-.4-.3-1-.3-1.6V320c0-.6.1-1.1.3-1.6a3.6 3.6 0 012.2-2c.6-.2 1.1-.3 1.8-.3.6 0 1.2 0 1.8.3.5.2 1 .4 1.3.8.4.3.7.7.9 1.2.2.5.3 1 .3 1.6v5.3c0 .6-.1 1.1-.3 1.6-.2.5-.5 1-.9 1.3a4 4 0 01-1.4.8c-.5.2-1 .3-1.7.3zm-2-4c0 .6.1 1.1.5 1.5.4.3.9.5 1.5.5a2 2 0 001.5-.5c.4-.4.5-.9.5-1.5V320c0-.6-.1-1-.5-1.4a2 2 0 00-1.5-.6 2 2 0 00-1.5.6c-.4.3-.6.8-.6 1.4v5.3zm10.5-6v6.1c0 1.3.6 2 1.8 2 1.2 0 1.8-.7 1.8-2v-6.1h2.2v6.1c0 1.2-.4 2.2-1 2.9-.8.6-1.8 1-3 1-1.3 0-2.3-.4-3-1-.7-.7-1-1.7-1-2.9v-6.1h2.2zm7.5 0h2.7v-3h2.2v3h3.8v2h-3.8v4.8c0 .3.1.5.3.7.2.2.5.3.8.3h2.5v2h-2.7c-1 0-1.7-.3-2.3-.8a3 3 0 01-.8-2.2v-4.8h-2.7v-2zm10.7 0h2.2v1.7h.2c0-.6.4-1 .8-1.4a3 3 0 011.8-.5c.5 0 1 .1 1.4.3.4.2.8.4 1 .8.4.3.6.7.8 1.2l.2 1.5v2.5a5 5 0 01-.2 1.6c-.2.5-.4.9-.7 1.2-.3.4-.7.6-1 .8l-1.5.3a3 3 0 01-1.8-.5c-.4-.4-.7-.8-.8-1.4h-.2V327.9a18.1 18.1 0 00.1 1v3.1H596v-12.8zm2.3 3.7v2.4c0 .6.2 1 .5 1.4.3.3.8.5 1.4.5.6 0 1-.2 1.4-.5.4-.4.6-.9.6-1.5V323a2 2 0 00-2-2c-.6 0-1 .2-1.4.6a2 2 0 00-.5 1.4zm10.3-3.7v6.1c0 1.3.6 2 1.8 2 1.2 0 1.8-.7 1.8-2v-6.1h2.2v6.1c0 1.2-.3 2.2-1 2.9-.7.6-1.7 1-3 1s-2.3-.4-3-1c-.7-.7-1-1.7-1-2.9v-6.1h2.2zm7.5 0h2.7v-3h2.2v3h3.8v2H621v4.8c0 .3.1.5.3.7.2.2.5.3.8.3h2.5v2H622c-1 0-1.7-.3-2.3-.8a3 3 0 01-.8-2.2v-4.8h-2.7v-2zm10.1-1v-2h9.4v2h-3.5V329h-2.3v-10.8h-3.6zm10.2 1h2.5l2 5.2a4.8 4.8 0 01.3 1.3v.7h.2a7.2 7.2 0 01.2-1.3c0-.3 0-.5.2-.7l1.8-5.2h2.4l-4.7 12.8h-2.4l1.3-3.6-3.8-9.2zm11 0h2.2v1.7h.1c.2-.6.4-1 .9-1.4a3 3 0 011.8-.5c.5 0 1 .1 1.4.3.4.2.7.4 1 .8.3.3.6.7.7 1.2.2.4.3 1 .3 1.5v2.5a5 5 0 01-.3 1.6c-.1.5-.4.9-.7 1.2-.3.4-.6.6-1 .8-.4.2-1 .3-1.4.3a3 3 0 01-1.8-.5c-.5-.4-.7-.8-.9-1.4h-.1V327.9a18.1 18.1 0 000 1v3.1h-2.2v-12.8zm2.3 3.7v2.4c0 .6.1 1 .5 1.4.3.3.8.5 1.4.5.6 0 1-.2 1.4-.5.3-.4.5-.9.5-1.5V323c0-.6-.2-1-.5-1.4a2 2 0 00-1.4-.6c-.6 0-1 .2-1.4.6a2 2 0 00-.5 1.4zm7.8 0c0-.6 0-1.2.3-1.6.2-.5.5-1 .8-1.2.4-.4.8-.6 1.4-.8a5.2 5.2 0 013.5 0c.5.2 1 .4 1.3.8.4.3.7.7.9 1.2.2.5.3 1 .3 1.6v1.7h-6.3v.7c0 .6.2 1.2.5 1.5.4.4.9.6 1.5.6.5 0 1-.1 1.3-.3.3-.1.6-.3.7-.6h2.2a3 3 0 01-.5 1.1l-1 .8c-.3.3-.7.4-1.2.6a5.7 5.7 0 01-3.2-.1c-.6-.2-1-.4-1.4-.8a4 4 0 01-1.2-2.8v-2.5zm2.2.2h4.1v-.2a2 2 0 00-.5-1.6 2 2 0 00-1.6-.5 2 2 0 00-1.5.5 2 2 0 00-.5 1.5v.3z"/>
    <path fill="#FFF" fill-rule="nonzero" d="M417.6 265l1.4 4.1a6.1 6.1 0 01.3 1.2v.6h.2l.1-.6a8.2 8.2 0 01.3-1.2l1.2-4h2.7v12.7h-2v-8.2a11.7 11.7 0 01.1-2l.1-1h-.2l-.2 1a21.5 21.5 0 01-.5 1.6l-.9 3h-1.6l-1-3a24.6 24.6 0 01-.7-2.6h-.2a22.5 22.5 0 01.3 3v8.2h-2v-12.7h2.6zm12 13c-.6 0-1.2 0-1.7-.3a4 4 0 01-1.4-.8c-.4-.3-.6-.7-.8-1.2a4 4 0 01-.3-1.6v-2.4c0-.5 0-1 .3-1.5a3.5 3.5 0 012.2-2 5.4 5.4 0 013.5 0c.5.2 1 .4 1.3.8.4.3.7.7.9 1.2.2.4.3 1 .3 1.5v2.4a4 4 0 01-.3 1.6c-.2.5-.5 1-.9 1.2-.3.4-.8.6-1.3.8-.5.2-1.1.3-1.8.3zm-2-3.9c0 .6.2 1.1.5 1.4.4.4.9.6 1.5.6a2 2 0 001.5-.6c.4-.3.6-.8.6-1.4v-2.4c0-.5-.2-1-.6-1.4a2 2 0 00-1.5-.5 2 2 0 00-1.5.5c-.3.4-.5.9-.5 1.4v2.4zm8-2.4c0-.6 0-1.1.2-1.6l.7-1.2a3 3 0 011.1-.7c.4-.2.9-.3 1.4-.3a3 3 0 011.8.5c.4.3.7.8.8 1.4h.2v-.6a5.4 5.4 0 01-.1-1.1v-3h2.2v12.7h-2.1v-1.7h-.2a2 2 0 01-.8 1.4 3 3 0 01-1.8.5c-.5 0-1 0-1.4-.3a3 3 0 01-1-.7c-.4-.4-.6-.8-.8-1.3a5 5 0 01-.2-1.6v-2.4zm2.2 0v2.4c0 .6.2 1 .6 1.4.3.4.8.6 1.4.6a2 2 0 002-2l-.1-2.3c0-.6-.2-1.1-.5-1.5-.4-.3-.8-.5-1.4-.5a2 2 0 00-1.4.5 2 2 0 00-.6 1.5zm8 0c0-.6.1-1 .3-1.6l.9-1.2c.4-.3.8-.6 1.3-.7l1.8-.3c.7 0 1.2.1 1.8.3.5.2 1 .4 1.3.7a4 4 0 011.2 2.8v1.8H448v.6c0 .7.1 1.2.5 1.6.4.3.9.5 1.5.5.5 0 1 0 1.3-.2l.7-.6h2.2a3 3 0 01-.5 1c-.3.4-.6.7-1 .9l-1.2.5a5.7 5.7 0 01-3.2 0c-.6-.2-1-.5-1.4-.8l-.9-1.2a4 4 0 01-.3-1.6v-2.5zm2.3.3h4v-.3a2 2 0 00-.5-1.5 2 2 0 00-1.5-.5 2 2 0 00-1.5.5 2 2 0 00-.5 1.5v.3zm7.4-5v-2h5.4v9.7c0 .3.1.6.3.8.2.2.5.3.9.3h2.9v2h-3.1c-1 0-1.8-.3-2.4-.8a3 3 0 01-.8-2.3V267h-3.2z"/>
    <path fill="#3D4251" fill-rule="nonzero" d="M257.8 467h10.4v4H253v-26h4.8v22zm27.9 4h-2c-.4 0-.8 0-1-.2-.2-.1-.4-.4-.5-.8l-.4-1.3a15.2 15.2 0 01-2.8 2 7 7 0 01-1.5.4 9.1 9.1 0 01-4-.1c-.6-.3-1.2-.6-1.6-1-.5-.4-.9-1-1.1-1.6-.3-.6-.4-1.3-.4-2.1 0-.7.1-1.4.5-2 .4-.8 1-1.4 1.8-2 .9-.5 2-1 3.4-1.3 1.4-.3 3.2-.5 5.3-.6v-1c0-1.3-.3-2.2-.8-2.8-.5-.6-1.3-.9-2.3-.9a5.5 5.5 0 00-3 .8l-1 .6a2 2 0 01-1 .2c-.3 0-.5 0-.8-.2l-.5-.6-.8-1.4c2.1-2 4.7-2.9 7.7-2.9 1 0 2 .2 2.8.5a6.1 6.1 0 013.5 3.8c.3.8.5 1.8.5 2.8V471zm-8.6-2.8l1.2-.1a4.7 4.7 0 002.1-1 9 9 0 001-.9v-3c-1.3 0-2.4 0-3.3.2-.8.2-1.5.4-2 .7-.6.2-1 .5-1.2.8a2 2 0 00-.3 1.1c0 .8.2 1.4.7 1.7.4.3 1 .5 1.8.5zm19.4 7.8c0 .4-.3.6-.5.8l-1 .2h-3.2l3.4-7.4-7.4-17h3.9c.3 0 .6 0 .8.2l.4.6 4 9.5a8.5 8.5 0 01.5 2 15.3 15.3 0 01.7-2l3.7-9.5a1.3 1.3 0 011.2-.9h3.6l-10 23.5zm20.2-23.7c1.2 0 2.3.1 3.2.5a7 7 0 014.2 4.3 10 10 0 01.5 4.3l-.1.6-.3.2-.5.1h-11.4c.1 2 .6 3.3 1.5 4.2 1 .9 2 1.3 3.5 1.3a6 6 0 001.9-.2l1.4-.6 1-.5.8-.3.5.1.3.3 1.3 1.6-1.6 1.5a9.2 9.2 0 01-4 1.4l-2 .2c-1.2 0-2.4-.3-3.5-.7a8 8 0 01-2.9-1.9 8.9 8.9 0 01-1.9-3 12 12 0 010-7.9c.3-1 .9-2 1.7-2.9.7-.8 1.6-1.4 2.7-2 1.1-.4 2.4-.6 3.7-.6zm.1 3.1a4 4 0 00-3 1.1c-.7.8-1.2 1.8-1.4 3.1h8.3c0-.5 0-1-.2-1.6a3.4 3.4 0 00-2-2.2c-.4-.3-1-.4-1.7-.4zm11.5 15.6v-18.5h2.6c.4 0 .8.1 1 .3l.3.9.3 2.2c.6-1.1 1.4-2 2.3-2.7.9-.7 1.8-1 3-1 .9 0 1.6.2 2.2.6l-.6 3.4c0 .2 0 .3-.2.4l-.5.2a3 3 0 01-.7-.2l-1.3-.1c-.9 0-1.7.3-2.3.8-.7.5-1.2 1.2-1.7 2.2V471h-4.4zM559.8 467h10.4v4H555v-26h4.8v22zm27.9 4h-2c-.4 0-.8 0-1-.2-.2-.1-.4-.4-.5-.8l-.4-1.3a15.2 15.2 0 01-2.8 2 7 7 0 01-1.5.4 9.1 9.1 0 01-4-.1c-.6-.3-1.2-.6-1.6-1-.5-.4-.9-1-1.1-1.6-.3-.6-.4-1.3-.4-2.1 0-.7.1-1.4.5-2 .4-.8 1-1.4 1.8-2 .9-.5 2-1 3.4-1.3 1.4-.3 3.2-.5 5.3-.6v-1c0-1.3-.3-2.2-.8-2.8-.5-.6-1.3-.9-2.3-.9a5.5 5.5 0 00-3 .8l-1 .6a2 2 0 01-1 .2c-.3 0-.5 0-.8-.2l-.5-.6-.8-1.4c2.1-2 4.7-2.9 7.7-2.9 1 0 2 .2 2.8.5a6.1 6.1 0 013.5 3.8c.3.8.5 1.8.5 2.8V471zm-8.6-2.8l1.2-.1a4.7 4.7 0 002.1-1 9 9 0 001-.9v-3c-1.3 0-2.4 0-3.3.2-.8.2-1.5.4-2 .7-.6.2-1 .5-1.2.8a2 2 0 00-.3 1.1c0 .8.2 1.4.7 1.7.4.3 1 .5 1.8.5zm19.4 7.8c0 .4-.3.6-.5.8l-1 .2h-3.2l3.4-7.4-7.4-17h3.9c.3 0 .6 0 .8.2l.4.6 4 9.5a8.5 8.5 0 01.5 2 15.3 15.3 0 01.7-2l3.7-9.5a1.3 1.3 0 011.2-.9h3.6l-10 23.5zm20.2-23.7c1.2 0 2.3.1 3.2.5a7 7 0 014.2 4.3 10 10 0 01.5 4.3l-.1.6-.3.2-.5.1h-11.4c.1 2 .6 3.3 1.5 4.2 1 .9 2 1.3 3.5 1.3a6 6 0 001.9-.2l1.4-.6 1-.5.8-.3.5.1.3.3 1.3 1.6-1.6 1.5a9.2 9.2 0 01-4 1.4l-2 .2c-1.2 0-2.4-.3-3.5-.7a8 8 0 01-2.9-1.9 8.9 8.9 0 01-1.9-3 12 12 0 010-7.9c.3-1 .9-2 1.7-2.9.7-.8 1.6-1.4 2.7-2 1.1-.4 2.4-.6 3.7-.6zm.1 3.1a4 4 0 00-3 1.1c-.7.8-1.2 1.8-1.4 3.1h8.3c0-.5 0-1-.2-1.6a3.4 3.4 0 00-2-2.2c-.4-.3-1-.4-1.7-.4zm11.5 15.6v-18.5h2.6c.4 0 .8.1 1 .3l.3.9.3 2.2c.6-1.1 1.4-2 2.3-2.7.9-.7 1.8-1 3-1 .9 0 1.6.2 2.2.6l-.6 3.4c0 .2 0 .3-.2.4l-.5.2a3 3 0 01-.7-.2l-1.3-.1c-.9 0-1.7.3-2.3.8-.7.5-1.2 1.2-1.7 2.2V471h-4.4zM708.3 464.2c-.7 0-1.2-.1-1.8-.3l-1.3-.8c-.4-.4-.7-.8-.9-1.3-.2-.4-.3-1-.3-1.6V455c0-.6.1-1.1.3-1.6a3.6 3.6 0 012.2-2c.6-.2 1.1-.3 1.8-.3.6 0 1.2 0 1.8.3.5.2 1 .4 1.3.8.4.3.7.7.9 1.2.2.5.3 1 .3 1.6v5.3c0 .6-.1 1.1-.3 1.6-.2.5-.5 1-.9 1.3a4 4 0 01-1.4.8c-.5.2-1 .3-1.7.3zm-2-4c0 .6.1 1.1.5 1.5.4.3.9.5 1.5.5a2 2 0 001.5-.5c.4-.4.5-.9.5-1.5V455c0-.6-.1-1-.5-1.4a2 2 0 00-1.5-.6 2 2 0 00-1.5.6c-.4.3-.6.8-.6 1.4v5.3zm10.5-6v6.1c0 1.3.6 2 1.8 2 1.2 0 1.8-.7 1.8-2v-6.1h2.2v6.1c0 1.2-.4 2.2-1 2.9-.8.6-1.8 1-3 1-1.3 0-2.3-.4-3-1-.7-.7-1-1.7-1-2.9v-6.1h2.2zm7.5 0h2.7v-3h2.2v3h3.8v2h-3.8v4.8c0 .3.1.5.3.7.2.2.5.3.8.3h2.5v2h-2.7c-1 0-1.7-.3-2.3-.8a3 3 0 01-.8-2.2v-4.8h-2.7v-2zm10.7 0h2.2v1.7h.2c0-.6.4-1 .8-1.4a3 3 0 011.8-.5c.5 0 1 .1 1.4.3.4.2.8.4 1 .8.4.3.6.7.8 1.2l.2 1.5v2.5a5 5 0 01-.2 1.6c-.2.5-.4.9-.7 1.2-.3.4-.7.6-1 .8l-1.5.3a3 3 0 01-1.8-.5c-.4-.4-.7-.8-.8-1.4h-.2V462.9a18.1 18.1 0 00.1 1v3.1H735v-12.8zm2.3 3.7v2.4c0 .6.2 1 .5 1.4.3.3.8.5 1.4.5.6 0 1-.2 1.4-.5.4-.4.6-.9.6-1.5V458a2 2 0 00-2-2c-.6 0-1 .2-1.4.6a2 2 0 00-.5 1.4zm10.3-3.7v6.1c0 1.3.6 2 1.8 2 1.2 0 1.8-.7 1.8-2v-6.1h2.2v6.1c0 1.2-.3 2.2-1 2.9-.7.6-1.7 1-3 1s-2.3-.4-3-1c-.7-.7-1-1.7-1-2.9v-6.1h2.2zm7.5 0h2.7v-3h2.2v3h3.8v2H760v4.8c0 .3.1.5.3.7.2.2.5.3.8.3h2.5v2H761c-1 0-1.7-.3-2.3-.8a3 3 0 01-.8-2.2v-4.8h-2.7v-2zm10.1-1v-2h9.4v2h-3.5V464h-2.3v-10.8h-3.6zm10.2 1h2.5l2 5.2a4.8 4.8 0 01.3 1.3v.7h.2a7.2 7.2 0 01.2-1.3c0-.3 0-.5.2-.7l1.8-5.2h2.4l-4.7 12.8h-2.4l1.3-3.6-3.8-9.2zm11 0h2.2v1.7h.1c.2-.6.4-1 .9-1.4a3 3 0 011.8-.5c.5 0 1 .1 1.4.3.4.2.7.4 1 .8.3.3.6.7.7 1.2.2.4.3 1 .3 1.5v2.5a5 5 0 01-.3 1.6c-.1.5-.4.9-.7 1.2-.3.4-.6.6-1 .8-.4.2-1 .3-1.4.3a3 3 0 01-1.8-.5c-.5-.4-.7-.8-.9-1.4h-.1V462.9a18.1 18.1 0 000 1v3.1h-2.2v-12.8zm2.3 3.7v2.4c0 .6.1 1 .5 1.4.3.3.8.5 1.4.5.6 0 1-.2 1.4-.5.3-.4.5-.9.5-1.5V458c0-.6-.2-1-.5-1.4a2 2 0 00-1.4-.6c-.6 0-1 .2-1.4.6a2 2 0 00-.5 1.4zm7.8 0c0-.6 0-1.2.3-1.6.2-.5.5-1 .8-1.2.4-.4.8-.6 1.4-.8a5.2 5.2 0 013.5 0c.5.2 1 .4 1.3.8.4.3.7.7.9 1.2.2.5.3 1 .3 1.6v1.7h-6.3v.7c0 .6.2 1.2.5 1.5.4.4.9.6 1.5.6.5 0 1-.1 1.3-.3.3-.1.6-.3.7-.6h2.2a3 3 0 01-.5 1.1l-1 .8c-.3.3-.7.4-1.2.6a5.7 5.7 0 01-3.2-.1c-.6-.2-1-.4-1.4-.8a4 4 0 01-1.2-2.8v-2.5zm2.2.2h4.1v-.2a2 2 0 00-.5-1.6 2 2 0 00-1.6-.5 2 2 0 00-1.5.5 2 2 0 00-.5 1.5v.3zM386.3 464.2c-.7 0-1.2-.1-1.8-.3l-1.3-.8c-.4-.4-.7-.8-.9-1.3-.2-.4-.3-1-.3-1.6V455c0-.6.1-1.1.3-1.6a3.6 3.6 0 012.2-2c.6-.2 1.1-.3 1.8-.3.6 0 1.2 0 1.8.3.5.2 1 .4 1.3.8.4.3.7.7.9 1.2.2.5.3 1 .3 1.6v5.3c0 .6-.1 1.1-.3 1.6-.2.5-.5 1-.9 1.3a4 4 0 01-1.3.8l-1.8.3zm-2-4c0 .6.1 1.1.5 1.5.4.3.9.5 1.5.5a2 2 0 001.5-.5c.4-.4.5-.9.5-1.5V455c0-.6-.1-1-.5-1.4a2 2 0 00-1.5-.6 2 2 0 00-1.5.6c-.4.3-.6.8-.6 1.4v5.3zm10.5-6v6.1c0 1.3.6 2 1.8 2 1.2 0 1.8-.7 1.8-2v-6.1h2.2v6.1c0 1.2-.3 2.2-1 2.9-.7.6-1.7 1-3 1s-2.3-.4-3-1c-.7-.7-1-1.7-1-2.9v-6.1h2.2zm7.5 0h2.7v-3h2.3v3h3.7v2h-3.7v4.8c0 .3 0 .5.2.7.2.2.5.3.8.3h2.5v2h-2.6c-1 0-1.8-.3-2.3-.8a3 3 0 01-.9-2.2v-4.8h-2.7v-2zm10.8 0h2.2v1.7h.1c.1-.6.4-1 .9-1.4a3 3 0 011.8-.5c.5 0 1 .1 1.4.3.4.2.7.4 1 .8.3.3.6.7.7 1.2.2.4.3 1 .3 1.5v2.5a5 5 0 01-.3 1.6c-.1.5-.4.9-.7 1.2-.3.4-.6.6-1 .8l-1.4.3a3 3 0 01-1.8-.5c-.5-.4-.8-.8-.9-1.4h-.1V462.9a18.1 18.1 0 000 1v3.1h-2.2v-12.8zm2.2 3.7v2.4c0 .6.2 1 .6 1.4.3.3.8.5 1.3.5.7 0 1.1-.2 1.5-.5.3-.4.5-.9.5-1.5V458c0-.6-.2-1-.5-1.4a2 2 0 00-1.5-.6c-.5 0-1 .2-1.3.6a2 2 0 00-.6 1.4zm10.3-3.7v6.1c0 1.3.6 2 1.8 2 1.2 0 1.8-.7 1.8-2v-6.1h2.3v6.1c0 1.2-.4 2.2-1 2.9-.8.6-1.8 1-3 1-1.3 0-2.3-.4-3-1-.7-.7-1.1-1.7-1.1-2.9v-6.1h2.2zm7.5 0h2.8v-3h2.2v3h3.8v2H438v4.8c0 .3.1.5.3.7.2.2.5.3.8.3h2.5v2H439c-1 0-1.7-.3-2.3-.8a3 3 0 01-.8-2.2v-4.8H433v-2zm10.2-1v-2h9.4v2h-3.5V464h-2.3v-10.8h-3.6zm10.2 1h2.5l2 5.2a4.8 4.8 0 01.3 1.3v.7h.2a7.2 7.2 0 01.2-1.3c0-.3 0-.5.2-.7l1.8-5.2h2.4l-4.7 12.8H456l1.4-3.6-3.9-9.2zm11 0h2.2v1.7h.2c0-.6.4-1 .8-1.4a3 3 0 011.8-.5c.5 0 1 .1 1.4.3.4.2.8.4 1 .8.4.3.6.7.7 1.2.2.4.3 1 .3 1.5v2.5a5 5 0 01-.3 1.6c-.1.5-.3.9-.6 1.2-.3.4-.7.6-1.1.8-.4.2-.9.3-1.4.3a3 3 0 01-1.8-.5c-.4-.4-.7-.8-.8-1.4h-.2V462.9a18.1 18.1 0 000 1v3.1h-2.2v-12.8zm2.3 3.7v2.4c0 .6.1 1 .5 1.4.3.3.8.5 1.4.5.6 0 1-.2 1.4-.5.4-.4.5-.9.5-1.5V458c0-.6-.1-1-.5-1.4a2 2 0 00-1.4-.6c-.6 0-1 .2-1.4.6a2 2 0 00-.5 1.4zm7.8 0c0-.6 0-1.2.3-1.6.2-.5.5-1 .9-1.2.3-.4.8-.6 1.3-.8.5-.2 1.1-.3 1.8-.3.6 0 1.2.1 1.7.3.6.2 1 .4 1.4.8a4 4 0 011.2 2.8v1.7h-6.4v.7c0 .6.2 1.2.6 1.5.3.4.8.6 1.5.6.5 0 .9-.1 1.2-.3.4-.1.6-.3.8-.6h2.2a3 3 0 01-.6 1.1c-.2.3-.5.6-.9.8l-1.2.6a5.7 5.7 0 01-3.3-.1c-.5-.2-1-.4-1.3-.8-.4-.3-.7-.7-1-1.2a4 4 0 01-.2-1.6v-2.5zm2.2.2h4.1v-.2a2 2 0 00-.5-1.6 2 2 0 00-1.5-.5 2 2 0 00-1.5.5 2 2 0 00-.6 1.5v.3zm11.4 1.1h1.8l.6-3.3h-1.8v-1.5h2l.6-3.2h1.7l-.6 3.2h2.5l.6-3.2h1.6l-.6 3.2h1.5v1.5h-1.8l-.5 3.3h1.7v1.5h-2l-.6 3.3h-1.6l.5-3.3h-2.5l-.5 3.3H489l.6-3.3h-1.5v-1.5zm3.4 0h2.5l.6-3.3h-2.5l-.6 3.3zm7.9 2.8h3.4v-7.6a13.4 13.4 0 01.1-1.3l-.2.2a6.3 6.3 0 01-.6.4l-2.5 1.7v-2.2l2.9-2h2.6V462h2.8v2h-8.5v-2zM199.7 534.3c0 .2-.1.3-.3.4h-.3a1 1 0 01-.5-.1 16.8 16.8 0 00-1.5-.8l-1.2-.1-1.1.1-.8.4-.4.7a2 2 0 00-.2.8c0 .3.1.7.3.9.2.3.5.5.9.6l1.1.5a57.6 57.6 0 012.7 1c.5.2.9.5 1.2.8a3.6 3.6 0 011.1 2.8c0 .8 0 1.4-.3 2a4.6 4.6 0 01-2.8 2.8 7.6 7.6 0 01-7.6-1.7l.9-1.4.2-.3h.4c.2 0 .4 0 .6.2a18 18 0 001.8 1l1.4.2c.9 0 1.5-.2 2-.6.4-.4.7-1 .7-1.7 0-.5-.1-.8-.4-1-.2-.3-.4-.5-.8-.7l-1.2-.5a39 39 0 01-2.6-1c-.5-.1-.9-.4-1.2-.7-.4-.3-.6-.8-.8-1.2a4.7 4.7 0 011-5 5 5 0 011.6-1 7.4 7.4 0 014.8 0c.8.3 1.5.7 2 1.2l-.7 1.4zm5.6 1.8v7.1c0 .7.2 1.2.5 1.6.3.4.8.6 1.4.6.5 0 1-.1 1.4-.3.4-.2.8-.5 1.1-.9v-8.1h2.7v11.2h-1.6c-.4 0-.6-.1-.7-.5l-.2-.9-.7.7a4.4 4.4 0 01-2.8.9 4 4 0 01-1.6-.3c-.5-.2-.9-.5-1.2-.9-.3-.4-.6-.8-.7-1.4-.2-.5-.3-1-.3-1.7v-7.1h2.7zm10 11.2V531h2.8v6.4l1.5-1.1a4.4 4.4 0 013.7 0c.5.2 1 .6 1.3 1 .4.5.6 1.1.8 1.8a9 9 0 010 4.8c-.2.8-.5 1.4-1 2a4.5 4.5 0 01-4.4 1.5 3.3 3.3 0 01-1.5-.8l-.6-.6v.8l-.3.4-.4.1h-1.8zm5.4-9.3c-.6 0-1 .1-1.5.3l-1.1 1v5.1a2.6 2.6 0 002.2 1c.4 0 .8 0 1-.2l1-.7.5-1.2.1-1.7-.1-1.7-.5-1c-.2-.4-.4-.6-.7-.7l-1-.2zm10-7v16.3H228V531h2.8zm12 16.3h-1.9l-.3-.6-.2-.8a9.3 9.3 0 01-1.7 1.2l-1 .3a5.6 5.6 0 01-2.4-.1c-.4-.1-.7-.3-1-.6-.3-.2-.5-.5-.7-1-.2-.3-.2-.8-.2-1.3 0-.4 0-.8.3-1.2.2-.4.6-.8 1.1-1.1.5-.4 1.2-.6 2.1-.9.9-.2 2-.3 3.2-.3v-.7c0-.8-.1-1.3-.5-1.7-.3-.3-.7-.5-1.4-.5a3.4 3.4 0 00-1.8.5l-.6.3-.6.2c-.2 0-.4 0-.5-.2l-.3-.3-.5-.9a6.7 6.7 0 014.7-1.8c.6 0 1.2.2 1.8.4a3.7 3.7 0 012 2.2c.3.6.4 1.2.4 1.8v7.1zm-5.3-1.7h.8a3 3 0 001.2-.7l.6-.5v-1.9l-2 .2c-.5.1-1 .2-1.2.4-.4.1-.6.3-.7.5-.2.2-.2.5-.2.7 0 .5.1.8.4 1 .3.2.6.3 1 .3zm12 4.8l-.4.5-.6.1h-2l2.1-4.5L244 536h2.3l.5.1c.2.1.2.2.3.4l2.4 5.8a5.2 5.2 0 01.4 1.2 9.3 9.3 0 01.4-1.2l2.3-5.8a.8.8 0 01.7-.5h2.2l-6.2 14.3zm12.3-14.5c.7 0 1.4 0 2 .3a4.3 4.3 0 012.5 2.6 6 6 0 01.4 2.7l-.1.3-.2.2H259c0 1.2.4 2 1 2.6a3 3 0 002.1.8c.4 0 .8 0 1.1-.2.4 0 .6-.2.9-.3l.6-.3.5-.2h.3l.2.3.8 1-1 .8a5.7 5.7 0 01-2.4.9h-1.2a6 6 0 01-2.2-.3c-.7-.3-1.3-.6-1.8-1.2-.5-.5-.9-1.1-1.2-1.8a7.3 7.3 0 010-4.8c.2-.7.6-1.3 1-1.8a5 5 0 011.8-1.2c.6-.3 1.4-.4 2.2-.4zm0 2c-.7 0-1.3.1-1.8.6-.4.4-.7 1-.8 1.9h5v-1l-.5-.8a2 2 0 00-.8-.6l-1-.2zm7.1 9.4v-11.2h1.6l.6.1.2.5.2 1.4c.4-.7.8-1.2 1.4-1.7a3 3 0 011.8-.6c.6 0 1 .2 1.4.4l-.4 2v.3l-.4.1h-.4a3 3 0 00-.8-.1c-.6 0-1 .1-1.5.4-.4.3-.7.8-1 1.4v7h-2.7z"/>
    <path fill="#FFF" fill-rule="nonzero" d="M211.6 502l1.4 4.1a6.1 6.1 0 01.3 1.2v.6h.2l.1-.6a8.2 8.2 0 01.3-1.2l1.2-4h2.7v12.7h-2v-8.2a11.7 11.7 0 01.1-2l.1-1h-.2l-.2 1a21.5 21.5 0 01-.5 1.6l-.9 3h-1.6l-1-3a24.6 24.6 0 01-.7-2.6h-.2a22.5 22.5 0 01.3 3v8.2h-2v-12.7h2.6zm12 13c-.6 0-1.2 0-1.7-.3a4 4 0 01-1.4-.8c-.4-.3-.6-.7-.8-1.2a4 4 0 01-.3-1.6v-2.4c0-.5 0-1 .3-1.5a3.5 3.5 0 012.2-2 5.4 5.4 0 013.5 0c.5.2 1 .4 1.3.8.4.3.7.7.9 1.2.2.4.3 1 .3 1.5v2.4a4 4 0 01-.3 1.6c-.2.5-.5 1-.9 1.2-.3.4-.8.6-1.3.8-.5.2-1.1.3-1.8.3zm-2-3.9c0 .6.2 1.1.5 1.4.4.4.9.6 1.5.6a2 2 0 001.5-.6c.4-.3.6-.8.6-1.4v-2.4c0-.5-.2-1-.6-1.4a2 2 0 00-1.5-.5 2 2 0 00-1.5.5c-.3.4-.5.9-.5 1.4v2.4zm8-2.4c0-.6 0-1.1.2-1.6l.7-1.2a3 3 0 011.1-.7c.4-.2.9-.3 1.4-.3a3 3 0 011.8.5c.4.3.7.8.8 1.4h.2v-.6a5.4 5.4 0 01-.1-1.1v-3h2.2v12.7h-2.1v-1.7h-.2a2 2 0 01-.8 1.4 3 3 0 01-1.8.5c-.5 0-1 0-1.4-.3a3 3 0 01-1-.7c-.4-.4-.6-.8-.8-1.3a5 5 0 01-.2-1.6v-2.4zm2.2 0v2.4c0 .6.2 1 .6 1.4.3.4.8.6 1.4.6a2 2 0 002-2l-.1-2.3c0-.6-.2-1.1-.5-1.5-.4-.3-.8-.5-1.4-.5a2 2 0 00-1.4.5 2 2 0 00-.6 1.5zm8 0c0-.6.1-1 .3-1.6l.9-1.2c.4-.3.8-.6 1.3-.7l1.8-.3c.7 0 1.2.1 1.8.3.5.2 1 .4 1.3.7a4 4 0 011.2 2.8v1.8H242v.6c0 .7.1 1.2.5 1.6.4.3.9.5 1.5.5.5 0 1 0 1.3-.2l.7-.6h2.2a3 3 0 01-.5 1c-.3.4-.6.7-1 .9l-1.2.5a5.7 5.7 0 01-3.2 0c-.6-.2-1-.5-1.4-.8l-.9-1.2a4 4 0 01-.3-1.6v-2.5zm2.3.3h4v-.3a2 2 0 00-.5-1.5 2 2 0 00-1.5-.5 2 2 0 00-1.5.5 2 2 0 00-.5 1.5v.3zm7.4-5v-2h5.4v9.7c0 .3.1.6.3.8.2.2.5.3.9.3h2.9v2h-3.1c-1 0-1.8-.3-2.4-.8a3 3 0 01-.8-2.3V504h-3.2z"/>
    <path fill="#3D4251" fill-rule="nonzero" d="M323.7 534.3c0 .2-.1.3-.3.4h-.3a1 1 0 01-.5-.1 16.8 16.8 0 00-1.5-.8l-1.2-.1-1.1.1-.8.4-.4.7a2 2 0 00-.2.8c0 .3.1.7.3.9.2.3.5.5.9.6l1.1.5a57.6 57.6 0 012.7 1c.5.2.9.5 1.2.8a3.6 3.6 0 011.1 2.8c0 .8 0 1.4-.3 2a4.6 4.6 0 01-2.8 2.8 7.6 7.6 0 01-7.6-1.7l.9-1.4.2-.3h.4c.2 0 .4 0 .6.2a18 18 0 001.8 1l1.4.2c.9 0 1.5-.2 2-.6.4-.4.7-1 .7-1.7 0-.5-.1-.8-.4-1-.2-.3-.4-.5-.8-.7l-1.2-.5a39 39 0 01-2.6-1c-.5-.1-.9-.4-1.2-.7-.4-.3-.6-.8-.8-1.2a4.7 4.7 0 011-5 5 5 0 011.6-1 7.4 7.4 0 014.8 0c.8.3 1.5.7 2 1.2l-.7 1.4zm5.6 1.8v7.1c0 .7.2 1.2.5 1.6.3.4.8.6 1.4.6.5 0 1-.1 1.4-.3.4-.2.8-.5 1.1-.9v-8.1h2.7v11.2h-1.6c-.4 0-.6-.1-.7-.5l-.2-.9-.7.7a4.4 4.4 0 01-2.8.9 4 4 0 01-1.6-.3c-.5-.2-.9-.5-1.2-.9-.3-.4-.6-.8-.7-1.4-.2-.5-.3-1-.3-1.7v-7.1h2.7zm10 11.2V531h2.8v6.4l1.5-1.1a4.4 4.4 0 013.7 0c.5.2 1 .6 1.3 1 .4.5.6 1.1.8 1.8a9 9 0 010 4.8c-.2.8-.5 1.4-1 2a4.5 4.5 0 01-4.4 1.5 3.3 3.3 0 01-1.5-.8l-.6-.6v.8l-.3.4-.4.1h-1.8zm5.4-9.3c-.6 0-1 .1-1.5.3l-1.1 1v5.1a2.6 2.6 0 002.2 1c.4 0 .8 0 1-.2l1-.7.5-1.2.1-1.7-.1-1.7-.5-1c-.2-.4-.4-.6-.7-.7l-1-.2zm10-7v16.3H352V531h2.8zm12 16.3h-1.9l-.3-.6-.2-.8a9.3 9.3 0 01-1.7 1.2l-1 .3a5.6 5.6 0 01-2.4-.1c-.4-.1-.7-.3-1-.6-.3-.2-.5-.5-.7-1-.2-.3-.2-.8-.2-1.3 0-.4 0-.8.3-1.2.2-.4.6-.8 1.1-1.1.5-.4 1.2-.6 2.1-.9.9-.2 2-.3 3.2-.3v-.7c0-.8-.1-1.3-.5-1.7-.3-.3-.7-.5-1.4-.5a3.4 3.4 0 00-1.8.5l-.6.3-.6.2c-.2 0-.4 0-.5-.2l-.3-.3-.5-.9a6.7 6.7 0 014.7-1.8c.6 0 1.2.2 1.8.4a3.7 3.7 0 012 2.2c.3.6.4 1.2.4 1.8v7.1zm-5.3-1.7h.8a3 3 0 001.2-.7l.6-.5v-1.9l-2 .2c-.5.1-1 .2-1.2.4-.4.1-.6.3-.7.5-.2.2-.2.5-.2.7 0 .5.1.8.4 1 .3.2.6.3 1 .3zm12 4.8l-.4.5-.6.1h-2l2.1-4.5L368 536h2.3l.5.1c.2.1.2.2.3.4l2.4 5.8a5.2 5.2 0 01.4 1.2 9.3 9.3 0 01.4-1.2l2.3-5.8a.8.8 0 01.7-.5h2.2l-6.2 14.3zm12.3-14.5c.7 0 1.4 0 2 .3a4.3 4.3 0 012.5 2.6 6 6 0 01.4 2.7l-.1.3-.2.2H383c0 1.2.4 2 1 2.6a3 3 0 002.1.8c.4 0 .8 0 1.1-.2.4 0 .6-.2.9-.3l.6-.3.5-.2h.3l.2.3.8 1-1 .8a5.7 5.7 0 01-2.4.9h-1.2a6 6 0 01-2.2-.3c-.7-.3-1.3-.6-1.8-1.2-.5-.5-.9-1.1-1.2-1.8a7.3 7.3 0 010-4.8c.2-.7.6-1.3 1-1.8a5 5 0 011.8-1.2c.6-.3 1.4-.4 2.2-.4zm0 2c-.7 0-1.3.1-1.8.6-.4.4-.7 1-.8 1.9h5v-1l-.5-.8a2 2 0 00-.8-.6l-1-.2zm7.1 9.4v-11.2h1.6l.6.1.2.5.2 1.4c.4-.7.8-1.2 1.4-1.7a3 3 0 011.8-.6c.6 0 1 .2 1.4.4l-.4 2v.3l-.4.1h-.4a3 3 0 00-.8-.1c-.6 0-1 .1-1.5.4-.4.3-.7.8-1 1.4v7h-2.7z"/>
    <path fill="#FFF" fill-rule="nonzero" d="M335.6 502l1.4 4.1a6.1 6.1 0 01.3 1.2v.6h.2l.1-.6a8.2 8.2 0 01.3-1.2l1.2-4h2.7v12.7h-2v-8.2a11.7 11.7 0 01.1-2l.1-1h-.2l-.2 1a21.5 21.5 0 01-.5 1.6l-.9 3h-1.6l-1-3a24.6 24.6 0 01-.7-2.6h-.2a22.5 22.5 0 01.3 3v8.2h-2v-12.7h2.6zm12 13c-.6 0-1.2 0-1.7-.3a4 4 0 01-1.4-.8c-.4-.3-.6-.7-.8-1.2a4 4 0 01-.3-1.6v-2.4c0-.5 0-1 .3-1.5a3.5 3.5 0 012.2-2 5.4 5.4 0 013.5 0c.5.2 1 .4 1.3.8.4.3.7.7.9 1.2.2.4.3 1 .3 1.5v2.4a4 4 0 01-.3 1.6c-.2.5-.5 1-.9 1.2-.3.4-.8.6-1.3.8-.5.2-1.1.3-1.8.3zm-2-3.9c0 .6.2 1.1.5 1.4.4.4.9.6 1.5.6a2 2 0 001.5-.6c.4-.3.6-.8.6-1.4v-2.4c0-.5-.2-1-.6-1.4a2 2 0 00-1.5-.5 2 2 0 00-1.5.5c-.3.4-.5.9-.5 1.4v2.4zm8-2.4c0-.6 0-1.1.2-1.6l.7-1.2a3 3 0 011.1-.7c.4-.2.9-.3 1.4-.3a3 3 0 011.8.5c.4.3.7.8.8 1.4h.2v-.6a5.4 5.4 0 01-.1-1.1v-3h2.2v12.7h-2.1v-1.7h-.2a2 2 0 01-.8 1.4 3 3 0 01-1.8.5c-.5 0-1 0-1.4-.3a3 3 0 01-1-.7c-.4-.4-.6-.8-.8-1.3a5 5 0 01-.2-1.6v-2.4zm2.2 0v2.4c0 .6.2 1 .6 1.4.3.4.8.6 1.4.6a2 2 0 002-2l-.1-2.3c0-.6-.2-1.1-.5-1.5-.4-.3-.8-.5-1.4-.5a2 2 0 00-1.4.5 2 2 0 00-.6 1.5zm8 0c0-.6.1-1 .3-1.6l.9-1.2c.4-.3.8-.6 1.3-.7l1.8-.3c.7 0 1.2.1 1.8.3.5.2 1 .4 1.3.7a4 4 0 011.2 2.8v1.8H366v.6c0 .7.1 1.2.5 1.6.4.3.9.5 1.5.5.5 0 1 0 1.3-.2l.7-.6h2.2a3 3 0 01-.5 1c-.3.4-.6.7-1 .9l-1.2.5a5.7 5.7 0 01-3.2 0c-.6-.2-1-.5-1.4-.8l-.9-1.2a4 4 0 01-.3-1.6v-2.5zm2.3.3h4v-.3a2 2 0 00-.5-1.5 2 2 0 00-1.5-.5 2 2 0 00-1.5.5 2 2 0 00-.5 1.5v.3zm7.4-5v-2h5.4v9.7c0 .3.1.6.3.8.2.2.5.3.9.3h2.9v2h-3.1c-1 0-1.8-.3-2.4-.8a3 3 0 01-.8-2.3V504h-3.2z"/>
    <path fill="#3D4251" fill-rule="nonzero" d="M565.7 534.3c0 .2-.1.3-.3.4h-.3a1 1 0 01-.5-.1 16.8 16.8 0 00-1.5-.8l-1.2-.1-1.1.1-.8.4-.4.7a2 2 0 00-.2.8c0 .3.1.7.3.9.2.3.5.5.9.6l1.1.5a57.6 57.6 0 012.7 1c.5.2.9.5 1.2.8a3.6 3.6 0 011.1 2.8c0 .8 0 1.4-.3 2a4.6 4.6 0 01-2.8 2.8 7.6 7.6 0 01-7.6-1.7l.9-1.4.2-.3h.4c.2 0 .4 0 .6.2a18 18 0 001.8 1l1.4.2c.9 0 1.5-.2 2-.6.4-.4.7-1 .7-1.7 0-.5-.1-.8-.4-1-.2-.3-.4-.5-.8-.7l-1.2-.5a39 39 0 01-2.6-1c-.5-.1-.9-.4-1.2-.7-.4-.3-.6-.8-.8-1.2a4.7 4.7 0 011-5 5 5 0 011.6-1 7.4 7.4 0 014.8 0c.8.3 1.5.7 2 1.2l-.7 1.4zm5.6 1.8v7.1c0 .7.2 1.2.5 1.6.3.4.8.6 1.4.6.5 0 1-.1 1.4-.3.4-.2.8-.5 1.1-.9v-8.1h2.7v11.2h-1.6c-.4 0-.6-.1-.7-.5l-.2-.9-.7.7a4.4 4.4 0 01-2.8.9 4 4 0 01-1.6-.3c-.5-.2-.9-.5-1.2-.9-.3-.4-.6-.8-.7-1.4-.2-.5-.3-1-.3-1.7v-7.1h2.7zm10 11.2V531h2.8v6.4l1.5-1.1a4.4 4.4 0 013.7 0c.5.2 1 .6 1.3 1 .4.5.6 1.1.8 1.8a9 9 0 010 4.8c-.2.8-.5 1.4-1 2a4.5 4.5 0 01-4.4 1.5 3.3 3.3 0 01-1.5-.8l-.6-.6v.8l-.3.4-.4.1h-1.8zm5.4-9.3c-.6 0-1 .1-1.5.3l-1.1 1v5.1a2.6 2.6 0 002.2 1c.4 0 .8 0 1-.2l1-.7.5-1.2.1-1.7-.1-1.7-.5-1c-.2-.4-.4-.6-.7-.7l-1-.2zm10-7v16.3H594V531h2.8zm12 16.3h-1.9l-.3-.6-.2-.8a9.3 9.3 0 01-1.7 1.2l-1 .3a5.6 5.6 0 01-2.4-.1c-.4-.1-.7-.3-1-.6-.3-.2-.5-.5-.7-1-.2-.3-.2-.8-.2-1.3 0-.4 0-.8.3-1.2.2-.4.6-.8 1.1-1.1.5-.4 1.2-.6 2.1-.9.9-.2 2-.3 3.2-.3v-.7c0-.8-.1-1.3-.5-1.7-.3-.3-.7-.5-1.4-.5a3.4 3.4 0 00-1.8.5l-.6.3-.6.2c-.2 0-.4 0-.5-.2l-.3-.3-.5-.9a6.7 6.7 0 014.7-1.8c.6 0 1.2.2 1.8.4a3.7 3.7 0 012 2.2c.3.6.4 1.2.4 1.8v7.1zm-5.3-1.7h.8a3 3 0 001.2-.7l.6-.5v-1.9l-2 .2c-.5.1-1 .2-1.2.4-.4.1-.6.3-.7.5-.2.2-.2.5-.2.7 0 .5.1.8.4 1 .3.2.6.3 1 .3zm12 4.8l-.4.5-.6.1h-2l2.1-4.5L610 536h2.3l.5.1c.2.1.2.2.3.4l2.4 5.8a5.2 5.2 0 01.4 1.2 9.3 9.3 0 01.4-1.2l2.3-5.8a.8.8 0 01.7-.5h2.2l-6.2 14.3zm12.3-14.5c.7 0 1.4 0 2 .3a4.3 4.3 0 012.5 2.6 6 6 0 01.4 2.7l-.1.3-.2.2H625c0 1.2.4 2 1 2.6a3 3 0 002.1.8c.4 0 .8 0 1.1-.2.4 0 .6-.2.9-.3l.6-.3.5-.2h.3l.2.3.8 1-1 .8a5.7 5.7 0 01-2.4.9h-1.2a6 6 0 01-2.2-.3c-.7-.3-1.3-.6-1.8-1.2-.5-.5-.9-1.1-1.2-1.8a7.3 7.3 0 010-4.8c.2-.7.6-1.3 1-1.8a5 5 0 011.8-1.2c.6-.3 1.4-.4 2.2-.4zm0 2c-.7 0-1.3.1-1.8.6-.4.4-.7 1-.8 1.9h5v-1l-.5-.8a2 2 0 00-.8-.6l-1-.2zm7.1 9.4v-11.2h1.6l.6.1.2.5.2 1.4c.4-.7.8-1.2 1.4-1.7a3 3 0 011.8-.6c.6 0 1 .2 1.4.4l-.4 2v.3l-.4.1h-.4a3 3 0 00-.8-.1c-.6 0-1 .1-1.5.4-.4.3-.7.8-1 1.4v7h-2.7z"/>
    <path fill="#FFF" fill-rule="nonzero" d="M577.6 502l1.4 4.1a6.1 6.1 0 01.3 1.2v.6h.2l.1-.6a8.2 8.2 0 01.3-1.2l1.2-4h2.7v12.7h-2v-8.2a11.7 11.7 0 01.1-2l.1-1h-.2l-.2 1a21.5 21.5 0 01-.5 1.6l-.9 3h-1.6l-1-3a24.6 24.6 0 01-.7-2.6h-.2a22.5 22.5 0 01.3 3v8.2h-2v-12.7h2.6zm12 13c-.6 0-1.2 0-1.7-.3a4 4 0 01-1.4-.8c-.4-.3-.6-.7-.8-1.2a4 4 0 01-.3-1.6v-2.4c0-.5 0-1 .3-1.5a3.5 3.5 0 012.2-2 5.4 5.4 0 013.5 0c.5.2 1 .4 1.3.8.4.3.7.7.9 1.2.2.4.3 1 .3 1.5v2.4a4 4 0 01-.3 1.6c-.2.5-.5 1-.9 1.2-.3.4-.8.6-1.3.8-.5.2-1.1.3-1.8.3zm-2-3.9c0 .6.2 1.1.5 1.4.4.4.9.6 1.5.6a2 2 0 001.5-.6c.4-.3.6-.8.6-1.4v-2.4c0-.5-.2-1-.6-1.4a2 2 0 00-1.5-.5 2 2 0 00-1.5.5c-.3.4-.5.9-.5 1.4v2.4zm8-2.4c0-.6 0-1.1.2-1.6l.7-1.2a3 3 0 011.1-.7c.4-.2.9-.3 1.4-.3a3 3 0 011.8.5c.4.3.7.8.8 1.4h.2v-.6a5.4 5.4 0 01-.1-1.1v-3h2.2v12.7h-2.1v-1.7h-.2a2 2 0 01-.8 1.4 3 3 0 01-1.8.5c-.5 0-1 0-1.4-.3a3 3 0 01-1-.7c-.4-.4-.6-.8-.8-1.3a5 5 0 01-.2-1.6v-2.4zm2.2 0v2.4c0 .6.2 1 .6 1.4.3.4.8.6 1.4.6a2 2 0 002-2l-.1-2.3c0-.6-.2-1.1-.5-1.5-.4-.3-.8-.5-1.4-.5a2 2 0 00-1.4.5 2 2 0 00-.6 1.5zm8 0c0-.6.1-1 .3-1.6l.9-1.2c.4-.3.8-.6 1.3-.7l1.8-.3c.7 0 1.2.1 1.8.3.5.2 1 .4 1.3.7a4 4 0 011.2 2.8v1.8H608v.6c0 .7.1 1.2.5 1.6.4.3.9.5 1.5.5.5 0 1 0 1.3-.2l.7-.6h2.2a3 3 0 01-.5 1c-.3.4-.6.7-1 .9l-1.2.5a5.7 5.7 0 01-3.2 0c-.6-.2-1-.5-1.4-.8l-.9-1.2a4 4 0 01-.3-1.6v-2.5zm2.3.3h4v-.3a2 2 0 00-.5-1.5 2 2 0 00-1.5-.5 2 2 0 00-1.5.5 2 2 0 00-.5 1.5v.3zm7.4-5v-2h5.4v9.7c0 .3.1.6.3.8.2.2.5.3.9.3h2.9v2h-3.1c-1 0-1.8-.3-2.4-.8a3 3 0 01-.8-2.3V504h-3.2z"/>
    <g fill-rule="nonzero">
      <path fill="#3D4251" d="M109.3 451v10.9h5.6v2H107v-13h2.3zm7.7 10.9h3.6V456h-3.1v-2h5.2v7.8h2.9v2H117v-2zm3-10.5c0-.4 0-.7.3-.9.2-.2.5-.3.9-.3h.5c.3 0 .6 0 .9.3.2.2.3.5.3.9 0 .3 0 .6-.3.8-.3.2-.6.3-1 .3h-.4c-.4 0-.7 0-1-.3-.2-.2-.3-.5-.3-.8zm6.9 10h2.3c0 .3.2.6.5.7.3.2.7.3 1.1.3h.8c.5 0 1-.1 1.3-.3.3-.3.4-.6.4-1 0-.6-.5-1-1.5-1.2l-1.4-.1c-1.1-.2-2-.5-2.5-1-.6-.4-.8-1.1-.8-2 0-1 .3-1.7 1-2.2.6-.5 1.6-.7 2.8-.7h.7c1.1 0 2 .2 2.7.7.6.4 1 1 1.1 1.9h-2.3a1 1 0 00-.5-.7 2 2 0 00-1-.2h-.7c-1 0-1.6.4-1.6 1.1 0 .6.4 1 1.3 1.1l1.5.2c1.2.2 2 .5 2.6 1 .6.5.8 1.2.8 2 0 1-.3 1.8-1 2.3-.7.6-1.7.8-3 .8h-.7c-1.1 0-2-.2-2.7-.7-.7-.5-1.1-1.1-1.2-2zm10-7.4h2.8v-3h2.2v3h3.8v2h-3.8v4.9c0 .3.1.5.3.7.2.2.4.3.8.3h2.5v2h-2.7c-1 0-1.7-.2-2.3-.8a3 3 0 01-.8-2.2V456h-2.8v-2z"/>
      <path fill="#67708A" d="M149.8 465.9V449h5v2.1H152v12.7h2.8v2.1z"/>
      <path fill="#3D4251" d="M158 451h4c.7 0 1.3 0 1.8.3.6.2 1 .5 1.4.8l1 1.3.2 1.7v4.7c0 .6 0 1.2-.3 1.7a3.7 3.7 0 01-2.3 2.1c-.5.2-1.1.3-1.8.3h-4v-13zm2.3 10.9h1.7c.7 0 1.2-.2 1.6-.6.4-.4.6-.9.6-1.5v-4.7a2 2 0 00-.6-1.5c-.4-.4-1-.6-1.6-.6h-1.7v8.9zm12.1 2.2c-.6 0-1.2 0-1.8-.3a4 4 0 01-1.3-.8c-.4-.3-.7-.7-.9-1.2a4 4 0 01-.3-1.6v-2.4c0-.6.1-1.2.3-1.6a3.5 3.5 0 012.2-2l1.8-.3c.7 0 1.3 0 1.8.2l1.3.8 1 1.3.2 1.6v2.4c0 .6 0 1.1-.3 1.6a3.5 3.5 0 01-2.2 2c-.5.2-1.1.3-1.8.3zm-2-3.9c0 .6.1 1 .5 1.4.4.4.9.5 1.5.5a2 2 0 001.5-.5c.4-.3.6-.8.6-1.4v-2.4c0-.6-.2-1.1-.6-1.5a2 2 0 00-1.5-.5 2 2 0 00-1.5.5c-.4.4-.5.9-.5 1.5v2.4zm12.4 4c-.6 0-1.2-.2-1.7-.3-.6-.2-1-.5-1.4-.8l-.9-1.2a4 4 0 01-.3-1.6v-2.6c0-.6.1-1 .3-1.6.3-.4.5-.8 1-1.2a4 4 0 011.3-.8 5.3 5.3 0 013.3 0 4 4 0 012.7 3.3H185c0-.5-.3-.9-.7-1.2-.4-.2-.8-.4-1.4-.4-.6 0-1.1.2-1.5.5-.3.4-.5.8-.5 1.4v2.6c0 .6.2 1 .5 1.4.4.3.9.5 1.5.5s1-.2 1.4-.5c.4-.2.6-.6.7-1h2.2c0 .5-.2 1-.4 1.4a4 4 0 01-2.3 1.8 5 5 0 01-1.6.2z"/>
      <path fill="#67708A" d="M190 465.9v-2.1h2.8v-12.7H190V449h5.1v16.9z"/>
    </g>
    <path fill="#FFF" fill-rule="nonzero" d="M272.6 399l1.4 4.1a6.1 6.1 0 01.3 1.2v.6h.2l.1-.6a8.2 8.2 0 01.3-1.2l1.2-4h2.7v12.7h-2v-8.2a11.7 11.7 0 01.1-2l.1-1h-.2l-.2 1a21.5 21.5 0 01-.5 1.6l-.9 3h-1.6l-1-3a24.6 24.6 0 01-.7-2.6h-.2a22.5 22.5 0 01.3 3v8.2h-2v-12.7h2.6zm12 13c-.6 0-1.2 0-1.7-.3a4 4 0 01-1.4-.8c-.4-.3-.6-.7-.8-1.2a4 4 0 01-.3-1.6v-2.4c0-.5 0-1 .3-1.5a3.5 3.5 0 012.2-2 5.4 5.4 0 013.5 0c.5.2 1 .4 1.3.8.4.3.7.7.9 1.2.2.4.3 1 .3 1.5v2.4a4 4 0 01-.3 1.6c-.2.5-.5 1-.9 1.2-.3.4-.8.6-1.3.8-.5.2-1.1.3-1.8.3zm-2-3.9c0 .6.2 1.1.5 1.4.4.4.9.6 1.5.6a2 2 0 001.5-.6c.4-.3.6-.8.6-1.4v-2.4c0-.5-.2-1-.6-1.4a2 2 0 00-1.5-.5 2 2 0 00-1.5.5c-.3.4-.5.9-.5 1.4v2.4zm8-2.4c0-.6 0-1.1.2-1.6l.7-1.2a3 3 0 011.1-.7c.4-.2.9-.3 1.4-.3a3 3 0 011.8.5c.4.3.7.8.8 1.4h.2v-.6a5.4 5.4 0 01-.1-1.1v-3h2.2v12.7h-2.1v-1.7h-.2a2 2 0 01-.8 1.4 3 3 0 01-1.8.5c-.5 0-1 0-1.4-.3a3 3 0 01-1-.7c-.4-.4-.6-.8-.8-1.3a5 5 0 01-.2-1.6v-2.4zm2.2 0v2.4c0 .6.2 1 .6 1.4.3.4.8.6 1.4.6a2 2 0 002-2l-.1-2.3c0-.6-.2-1.1-.5-1.5-.4-.3-.8-.5-1.4-.5a2 2 0 00-1.4.5 2 2 0 00-.6 1.5zm8 0c0-.6.1-1 .3-1.6l.9-1.2c.4-.3.8-.6 1.3-.7l1.8-.3c.7 0 1.2.1 1.8.3.5.2 1 .4 1.3.7a4 4 0 011.2 2.8v1.8H303v.6c0 .7.1 1.2.5 1.6.4.3.9.5 1.5.5.5 0 1 0 1.3-.2l.7-.6h2.2a3 3 0 01-.5 1c-.3.4-.6.7-1 .9l-1.2.5a5.7 5.7 0 01-3.2 0c-.6-.2-1-.5-1.4-.8l-.9-1.2a4 4 0 01-.3-1.6v-2.5zm2.3.3h4v-.3a2 2 0 00-.5-1.5 2 2 0 00-1.5-.5 2 2 0 00-1.5.5 2 2 0 00-.5 1.5v.3zm7.4-5v-2h5.4v9.7c0 .3.1.6.3.8.2.2.5.3.9.3h2.9v2h-3.1c-1 0-1.8-.3-2.4-.8a3 3 0 01-.8-2.3V401h-3.2zM580.6 400l1.4 4.1a6.1 6.1 0 01.3 1.2v.6h.2l.1-.6a8.2 8.2 0 01.3-1.2l1.2-4h2.7v12.7h-2v-8.2a11.7 11.7 0 01.1-2l.1-1h-.2l-.2 1a21.5 21.5 0 01-.5 1.6l-.9 3h-1.6l-1-3a24.6 24.6 0 01-.7-2.6h-.2a22.5 22.5 0 01.3 3v8.2h-2v-12.7h2.6zm12 13c-.6 0-1.2 0-1.7-.3a4 4 0 01-1.4-.8c-.4-.3-.6-.7-.8-1.2a4 4 0 01-.3-1.6v-2.4c0-.5 0-1 .3-1.5a3.5 3.5 0 012.2-2 5.4 5.4 0 013.5 0c.5.2 1 .4 1.3.8.4.3.7.7.9 1.2.2.4.3 1 .3 1.5v2.4a4 4 0 01-.3 1.6c-.2.5-.5 1-.9 1.2-.3.4-.8.6-1.3.8-.5.2-1.1.3-1.8.3zm-2-3.9c0 .6.2 1.1.5 1.4.4.4.9.6 1.5.6a2 2 0 001.5-.6c.4-.3.6-.8.6-1.4v-2.4c0-.5-.2-1-.6-1.4a2 2 0 00-1.5-.5 2 2 0 00-1.5.5c-.3.4-.5.9-.5 1.4v2.4zm8-2.4c0-.6 0-1.1.2-1.6l.7-1.2a3 3 0 011.1-.7c.4-.2.9-.3 1.4-.3a3 3 0 011.8.5c.4.3.7.8.8 1.4h.2v-.6a5.4 5.4 0 01-.1-1.1v-3h2.2v12.7h-2.1v-1.7h-.2a2 2 0 01-.8 1.4 3 3 0 01-1.8.5c-.5 0-1 0-1.4-.3a3 3 0 01-1-.7c-.4-.4-.6-.8-.8-1.3a5 5 0 01-.2-1.6v-2.4zm2.2 0v2.4c0 .6.2 1 .6 1.4.3.4.8.6 1.4.6a2 2 0 002-2l-.1-2.3c0-.6-.2-1.1-.5-1.5-.4-.3-.8-.5-1.4-.5a2 2 0 00-1.4.5 2 2 0 00-.6 1.5zm8 0c0-.6.1-1 .3-1.6l.9-1.2c.4-.3.8-.6 1.3-.7l1.8-.3c.7 0 1.2.1 1.8.3.5.2 1 .4 1.3.7a4 4 0 011.2 2.8v1.8H611v.6c0 .7.1 1.2.5 1.6.4.3.9.5 1.5.5.5 0 1 0 1.3-.2l.7-.6h2.2a3 3 0 01-.5 1c-.3.4-.6.7-1 .9l-1.2.5a5.7 5.7 0 01-3.2 0c-.6-.2-1-.5-1.4-.8l-.9-1.2a4 4 0 01-.3-1.6v-2.5zm2.3.3h4v-.3a2 2 0 00-.5-1.5 2 2 0 00-1.5-.5 2 2 0 00-1.5.5 2 2 0 00-.5 1.5v.3zm7.4-5v-2h5.4v9.7c0 .3.1.6.3.8.2.2.5.3.9.3h2.9v2h-3.1c-1 0-1.8-.3-2.4-.8a3 3 0 01-.8-2.3V402h-3.2z"/>
    <path fill="#3D4251" fill-rule="nonzero" d="M313 193v-18h2l.5.2.3.5.2 1.2c.6-.6 1.2-1.1 1.9-1.5a5 5 0 014.4-.1c.6.3 1.1.7 1.6 1.3.4.6.7 1.3 1 2.2a11 11 0 010 5.7 7 7 0 01-1.2 2.3c-.5.6-1.1 1-1.8 1.4-.7.4-1.5.6-2.4.6-.7 0-1.4-.1-1.9-.4-.5-.2-1-.5-1.4-1v5.6H313zm6.2-15.6c-.7 0-1.2.1-1.7.4a5 5 0 00-1.3 1.2v6a3 3 0 002.6 1.3c.4 0 .9 0 1.3-.3.4-.2.7-.4 1-.8l.6-1.4.2-2c0-.9 0-1.5-.2-2a4 4 0 00-.5-1.4c-.2-.4-.5-.6-.9-.8l-1-.2zm8.4 11.2V175h2l.6.1.3.7.2 1.6c.4-.8 1-1.5 1.6-2 .7-.4 1.4-.7 2.2-.7.6 0 1.2.2 1.6.5l-.4 2.4c0 .2-.1.3-.2.3l-.3.1h-.6l-.9-.1c-.6 0-1.2.1-1.7.5l-1.2 1.7v8.4h-3.2zm16.1-13.7c.8 0 1.6 0 2.3.4a5 5 0 013 3 7.4 7.4 0 01.4 3.3l-.1.4-.2.2h-8.6c.1 1.4.5 2.4 1.1 3 .6.7 1.5 1 2.5 1l1.4-.1 1-.4.7-.4c.2-.2.4-.2.6-.2a.7.7 0 01.6.3l1 1.2-1.3 1a6.6 6.6 0 01-2.8 1l-1.4.2a7 7 0 01-2.6-.5c-.8-.3-1.5-.8-2-1.4-.7-.6-1.1-1.3-1.5-2.2a9 9 0 010-5.8 6 6 0 013.3-3.6c.7-.3 1.6-.4 2.6-.4zm0 2.3a3 3 0 00-2.1.8 4 4 0 00-1 2.3h6c0-.5 0-.9-.2-1.2l-.5-1c-.2-.3-.5-.5-.9-.7a3 3 0 00-1.2-.2zm17.7 11.4c-.4 0-.7-.2-.8-.6l-.3-1.3a8 8 0 01-.9.8 5.5 5.5 0 01-2 1.1l-1.4.2a4.3 4.3 0 01-3.5-1.8c-.4-.6-.8-1.3-1-2.2a11.1 11.1 0 010-5.7c.3-.9.7-1.6 1.2-2.3a5.1 5.1 0 014.2-2 4.5 4.5 0 013.2 1.3V169h3.2v19.6h-2zm-4.3-2.4c.7 0 1.3-.1 1.7-.4a5 5 0 001.3-1.2v-6c-.3-.5-.7-.8-1.1-1a3.4 3.4 0 00-2.7 0c-.4.2-.8.4-1 .8l-.7 1.4-.2 2c0 .9 0 1.5.2 2 .1.6.3 1 .6 1.4.2.4.5.6.8.8l1.1.2zm13.1-11.1v13.5H367V175h3.2zm.5-4c0 .3 0 .6-.2.8a2.2 2.2 0 01-1 1.1 2 2 0 01-2.3-.4l-.4-.7a2 2 0 011.9-2.9c.2 0 .5 0 .7.2a2.1 2.1 0 011.1 1.1l.2.8zM383 178l-.2.3-.4.1-.5-.1a15.4 15.4 0 00-1.3-.7l-1.1-.2c-.6 0-1.1.1-1.5.3-.4.2-.8.5-1 1a4 4 0 00-.7 1.3l-.2 1.9c0 .7 0 1.4.2 2 .2.5.4 1 .7 1.3a2.8 2.8 0 002.4 1.2 3.3 3.3 0 002-.6l.6-.4c.1-.2.3-.2.5-.2.3 0 .5 0 .6.3l1 1.2a5.8 5.8 0 01-2.5 1.7l-1.4.4h-1.4c-.8 0-1.6 0-2.3-.4-.8-.3-1.4-.8-2-1.3-.5-.6-.9-1.4-1.2-2.2-.3-1-.5-1.9-.5-3 0-1 .2-2 .4-2.8.3-.8.7-1.5 1.3-2.2.5-.6 1.2-1 2-1.4.8-.4 1.7-.5 2.8-.5 1 0 1.8.1 2.6.4.7.4 1.4.8 2 1.4l-.9 1.2zm7.4 10.9c-1.1 0-2-.3-2.6-1-.7-.7-1-1.6-1-2.7v-7.6h-1.3c-.2 0-.3 0-.5-.2l-.1-.5v-1.3l2-.3.8-3.7c0-.2 0-.3.2-.4l.5-.2h1.6v4.3h3.5v2.3h-3.5v7.3c0 .5.1.8.3 1 .2.3.5.4.9.4l.5-.1a2.7 2.7 0 00.6-.3h.4l.2.2 1 1.6c-.5.4-1 .7-1.6.9-.6.2-1.2.3-1.9.3zM478.1 177.5l-.3.3h-.8a34.3 34.3 0 00-1.5-.6l-1-.2c-.7 0-1.2.2-1.5.4-.4.3-.6.7-.6 1 0 .4.1.6.3.8.2.2.4.4.8.5l1 .4a34.4 34.4 0 012.4.9c.4.1.7.4 1 .6.4.3.6.6.8 1 .2.4.3.9.3 1.4 0 .6-.1 1.2-.4 1.8-.2.5-.6 1-1 1.4-.5.3-1 .7-1.7.9a7.3 7.3 0 01-3.6.2 8 8 0 01-2.4-.9l-.9-.6.7-1.2.4-.4.5-.1c.2 0 .4 0 .5.2a12.5 12.5 0 001.5.7l1.2.2c.4 0 .7 0 1-.2l.6-.3c.2-.2.4-.3.4-.5l.2-.6c0-.4-.1-.6-.3-.8l-.8-.5-1-.4a35 35 0 01-2.4-.9c-.4-.2-.8-.4-1-.7-.4-.3-.6-.6-.8-1l-.3-1.5a3.8 3.8 0 011.3-2.9l1.5-.9c.7-.2 1.4-.3 2.2-.3 1 0 1.8.2 2.5.5.8.3 1.4.7 2 1.2l-.8 1.1zm9-2.8c.8 0 1.6.1 2.3.4a5 5 0 013 3 7.1 7.1 0 01.4 3.2l-.1.4-.2.2a1 1 0 01-.4 0h-8.3c.1 1.4.5 2.4 1.2 3 .6.7 1.4 1 2.5 1 .5 0 1 0 1.4-.2a23 23 0 001.7-.8l.6-.1h.3l.3.2 1 1.2c-.4.4-.8.8-1.3 1a6.7 6.7 0 01-2.8 1c-.5.2-1 .2-1.5.2-1 0-1.8-.2-2.6-.5a5.8 5.8 0 01-3.4-3.6 8.6 8.6 0 01-.1-5.6c.3-.8.7-1.5 1.3-2a6 6 0 012-1.5c.8-.3 1.7-.5 2.7-.5zm0 2.3a3 3 0 00-2.2.8c-.5.5-.8 1.3-1 2.2h6l-.1-1.1-.5-1-1-.7a3 3 0 00-1.2-.2zm12.7 11.4c-1.1 0-2-.3-2.6-1-.7-.6-1-1.5-1-2.7v-7.4H495c-.2 0-.3 0-.5-.2 0 0-.2-.2-.2-.5v-1.2l2.2-.4.7-3.6c0-.2 0-.3.2-.4l.5-.1h1.6v4.1h3.6v2.3h-3.6v7.2c0 .4.2.7.4 1 .2.2.4.3.8.3h.5a2.8 2.8 0 00.6-.3l.2-.1h.3l.2.3 1 1.5a6 6 0 01-3.5 1.2zm14.3 1.5v2.1h-10.3v-2h10.3zm12.1-1.7h-1.4l-.7-.1c-.2-.1-.3-.3-.4-.6l-.3-1a11 11 0 01-2 1.4l-1.1.4a6.7 6.7 0 01-2.9-.1c-.4-.2-.9-.4-1.2-.7a3 3 0 01-.8-1.1 4 4 0 01-.3-1.6c0-.5.1-1 .4-1.5.3-.5.7-1 1.3-1.3.7-.4 1.5-.7 2.5-1 1-.2 2.3-.4 3.8-.4v-.8c0-.9-.2-1.5-.6-2-.3-.4-.9-.6-1.6-.6a4 4 0 00-2.2.6l-.7.4-.7.2a1 1 0 01-.6-.2l-.4-.4-.6-1a8 8 0 015.6-2.1c.8 0 1.5.1 2 .4a4.4 4.4 0 012.6 2.6l.3 2.1v8.4zm-6.2-2h1a3.5 3.5 0 001.4-.8l.7-.6v-2.3c-1 0-1.7.1-2.3.3-.7 0-1.2.2-1.6.4a2 2 0 00-.8.6l-.2.8c0 .6.2 1 .5 1.2.3.3.8.4 1.3.4zm9.4 2v-13.3h2c.4 0 .7.2.8.6l.2 1a7.3 7.3 0 011.8-1.3 4.9 4.9 0 012.3-.5c.8 0 1.4.1 2 .4.5.2 1 .6 1.4 1 .4.5.7 1 .8 1.6.2.6.3 1.3.3 2v8.5h-3.2v-8.5c0-.8-.2-1.4-.5-1.8-.4-.5-1-.7-1.7-.7-.6 0-1.1.1-1.6.4-.5.2-1 .6-1.4 1v9.6h-3.2zm14.8 0v-13.3h2c.4 0 .7.2.8.6l.2 1a7.3 7.3 0 011.8-1.3 4.9 4.9 0 012.3-.5c.8 0 1.4.1 2 .4.5.2 1 .6 1.4 1 .4.5.6 1 .8 1.6.2.6.3 1.3.3 2v8.5h-3.2v-8.5c0-.8-.2-1.4-.5-1.8-.4-.5-1-.7-1.7-.7-.6 0-1.1.1-1.6.4-.5.2-1 .6-1.4 1v9.6h-3.2zm20.5-13.5c1 0 1.9.2 2.7.5a5.9 5.9 0 013.4 3.5 8.2 8.2 0 010 5.7 5.8 5.8 0 01-3.4 3.5c-.8.3-1.7.5-2.7.5-1 0-2-.2-2.7-.5a5.8 5.8 0 01-3.5-3.5 8 8 0 01-.4-2.9c0-1 .1-2 .4-2.8a6 6 0 013.4-3.5c.9-.3 1.8-.5 2.8-.5zm0 11.2c1.1 0 2-.3 2.5-1 .5-.8.8-2 .8-3.3 0-1.5-.3-2.6-.8-3.3-.6-.8-1.4-1.1-2.5-1.1s-2 .3-2.5 1c-.5.8-.8 2-.8 3.4s.3 2.5.8 3.2c.5.8 1.4 1.1 2.5 1.1zm13.5 2.5c-1.2 0-2-.3-2.7-1-.6-.6-1-1.5-1-2.7v-7.4h-1.3c-.2 0-.3 0-.4-.2-.2 0-.2-.2-.2-.5v-1.2l2.1-.4.7-3.6.2-.4.5-.1h1.7v4.1h3.5v2.3h-3.5v7.2c0 .4 0 .7.3 1 .2.2.5.3.8.3h.5a2.8 2.8 0 00.7-.3l.2-.1h.2l.2.3 1 1.5c-.5.4-1 .7-1.6.9a6 6 0 01-2 .3zm16.1-.2H593l-.7-.1c-.2-.1-.3-.3-.4-.6l-.3-1a11 11 0 01-2 1.4l-1.1.4a6.7 6.7 0 01-2.9-.1c-.5-.2-.9-.4-1.2-.7a3 3 0 01-.8-1.1 4 4 0 01-.3-1.6c0-.5.1-1 .4-1.5.3-.5.7-1 1.3-1.3.6-.4 1.5-.7 2.5-1 1-.2 2.3-.4 3.8-.4v-.8c0-.9-.2-1.5-.6-2-.4-.4-.9-.6-1.6-.6a4 4 0 00-2.2.6l-.7.4-.8.2a1 1 0 01-.5-.2l-.4-.4-.6-1a8 8 0 015.6-2.1c.8 0 1.5.1 2 .4a4.4 4.4 0 012.6 2.6l.3 2.1v8.4zm-6.2-2h.9a3.5 3.5 0 001.5-.8l.7-.6v-2.3c-1 0-1.7.1-2.4.3-.6 0-1 .2-1.5.4a2 2 0 00-.8.6l-.2.8c0 .6.1 1 .5 1.2.3.3.7.4 1.3.4zm13.8 2.2c-1.2 0-2-.3-2.7-1-.6-.6-1-1.5-1-2.7v-7.4H597c-.2 0-.3 0-.4-.2-.2 0-.2-.2-.2-.5v-1.2l2.1-.4.7-3.6.2-.4.5-.1h1.7v4.1h3.5v2.3h-3.5v7.2c0 .4 0 .7.3 1 .2.2.5.3.8.3h.5a2.8 2.8 0 00.6-.3l.3-.1h.2l.2.3 1 1.5c-.5.4-1 .7-1.6.9a6 6 0 01-2 .3zm9-13.5v13.3h-3.1v-13.3h3.2zm.6-3.9c0 .3 0 .6-.2.8a2.1 2.1 0 01-2 1.3 2 2 0 01-1.9-1.2v-.9a2 2 0 01.5-1.4 2 2 0 011.5-.6c.3 0 .5 0 .8.2a2.1 2.1 0 011 1l.3.8zm8.8 3.7c1 0 2 .2 2.7.5a5.9 5.9 0 013.4 3.5 8.2 8.2 0 010 5.7 5.8 5.8 0 01-3.4 3.5c-.8.3-1.7.5-2.7.5-1 0-1.9-.2-2.7-.5a5.8 5.8 0 01-3.4-3.5 8 8 0 01-.5-2.9c0-1 .1-2 .5-2.8a6 6 0 013.4-3.5c.8-.3 1.7-.5 2.7-.5zm0 11.2c1.1 0 2-.3 2.5-1 .5-.8.8-2 .8-3.3 0-1.5-.3-2.6-.8-3.3-.6-.8-1.4-1.1-2.5-1.1s-2 .3-2.5 1c-.5.8-.8 2-.8 3.4s.3 2.5.8 3.2c.6.8 1.4 1.1 2.5 1.1zm9.1 2.3v-13.3h2c.4 0 .7.2.8.6l.2 1a7.3 7.3 0 011.8-1.3 4.9 4.9 0 012.3-.5c.8 0 1.4.1 2 .4.5.2 1 .6 1.4 1 .4.5.7 1 .8 1.6.2.6.3 1.3.3 2v8.5h-3.2v-8.5c0-.8-.2-1.4-.5-1.8-.4-.5-1-.7-1.7-.7-.6 0-1.1.1-1.6.4-.5.2-1 .6-1.4 1v9.6h-3.2zm22.7-10.7l-.2.3h-.9a34.3 34.3 0 00-1.4-.6l-1-.2c-.7 0-1.2.2-1.6.4-.4.3-.5.7-.5 1 0 .4 0 .6.2.8l.8.5 1 .4a34.4 34.4 0 012.4.9c.4.1.8.4 1 .6.4.3.6.6.8 1 .2.4.3.9.3 1.4 0 .6-.1 1.2-.4 1.8-.2.5-.5 1-1 1.4-.4.3-1 .7-1.7.9a7.3 7.3 0 01-3.6.2 8 8 0 01-2.4-.9l-.9-.6.8-1.2c0-.2.2-.3.3-.4l.5-.1c.2 0 .4 0 .6.2a12.5 12.5 0 001.4.7l1.2.2c.4 0 .7 0 1-.2.3 0 .5-.2.7-.3l.4-.5v-.6c0-.4 0-.6-.2-.8l-.7-.5-1-.4a35 35 0 01-2.5-.9l-1-.7c-.4-.3-.6-.6-.8-1l-.3-1.5a3.8 3.8 0 011.3-2.9l1.6-.9c.6-.2 1.3-.3 2.2-.3.9 0 1.7.2 2.5.5.7.3 1.4.7 1.9 1.2l-.8 1.1z"/>
  </g>
</svg>
