<svg xmlns="http://www.w3.org/2000/svg" width="837" height="259" viewBox="0 0 837 259">
  <defs>
    <linearGradient id="a" x1="60.6%" x2="50%" y1="100%" y2="100%">
      <stop offset="0%" stop-color="#B2D73A"/>
      <stop offset="100%" stop-color="#F0A439"/>
    </linearGradient>
    <linearGradient id="b" x1="60.6%" x2="50%" y1="100%" y2="100%">
      <stop offset="0%" stop-color="#CDB217"/>
      <stop offset="100%" stop-color="#F0A439"/>
    </linearGradient>
    <linearGradient id="c" x1="100%" x2="0%" y1="50%" y2="50%">
      <stop offset="0%" stop-color="#3AD787"/>
      <stop offset="100%" stop-color="#CDB217"/>
    </linearGradient>
    <linearGradient id="d" x1="100%" x2="0%" y1="50%" y2="50%">
      <stop offset="0%" stop-color="#3A8DD7"/>
      <stop offset="100%" stop-color="#3AD787"/>
    </linearGradient>
  </defs>
  <g fill="none" fill-rule="evenodd">
    <path fill="#F2D7B2" stroke="#F0A439" stroke-linejoin="round" stroke-width="3.8" d="M27 90h148.6l23.4 40.9-23.4 39.1H27l23.4-39z"/>
    <path fill="#F2E7A6" stroke="#CDB217" stroke-linejoin="round" stroke-width="3.8" d="M161 90h134.6l23.4 40.9-23.4 39.1H161l23.4-39z"/>
    <path fill="#D7E99A" stroke="#B2D73A" stroke-linejoin="round" stroke-width="3.8" d="M286 90h134.6l23.4 40.9-23.4 39.1H286l23.4-39z"/>
    <path fill="#B5F3D4" stroke="#3AD787" stroke-linejoin="round" stroke-width="3.8" d="M417 90h134.6l23.4 40.9-23.4 39.1H417l23.4-39z"/>
    <path fill="#B5D8F3" stroke="#3A8DD7" stroke-linejoin="round" stroke-width="3.8" d="M537 90h134.6l23.4 40.9-23.4 39.1H537l23.4-39z"/>
    <rect width="100.5" height="23.5" x="4.8" y="1.8" fill="#3D4251" stroke="#3D4251" stroke-width="3.5" rx="11.8" transform="translate(169 156)"/>
    <rect width="100.5" height="23.5" x="4.8" y="1.8" fill="#3D4251" stroke="#3D4251" stroke-width="3.5" rx="11.8" transform="translate(296 156)"/>
    <rect width="47.5" height="16.5" x="1.8" y="1.8" fill="#3D4251" stroke="#3D4251" stroke-width="3.5" rx="8.3" transform="translate(453 81)"/>
    <path fill="#FFF" fill-rule="nonzero" d="M462 96v-4.8c0-.5.2-.9.4-1.1.3-.3.6-.5 1-.5.6 0 1 .2 1.2.5.3.2.4.6.4 1.1v.4h1.9v-.5a3 3 0 00-.7-2.2c-.5-.5-1.2-.7-2-.7-.6 0-1 0-1.4.3-.4.3-.6.7-.7 1.1h-.1v-1.3h-1.7V96h1.8zm9.2.1c1 0 1.8-.2 2.3-.8a3 3 0 00.8-2.2v-4.8h-1.7v4.8c0 1-.5 1.5-1.4 1.5-1 0-1.4-.5-1.4-1.5v-4.8H468v4.8c0 1 .3 1.7.9 2.2.5.6 1.3.8 2.3.8zm11.6-.1v-1.6h-2.3c-.2 0-.5 0-.6-.2a.9.9 0 01-.3-.7V86h-4.2v1.5h2.5v6.1c0 .8.2 1.4.7 1.8.4.5 1 .7 1.8.7h2.4zm4.4.1l1.2-.1 1-.4c.2-.2.5-.4.6-.7l.5-.8h-1.8c0 .2-.3.3-.5.5l-1 .1c-.5 0-.9-.1-1.2-.4-.3-.3-.4-.7-.4-1.2v-.5h5v-1.4c0-.5-.2-.9-.3-1.3l-.7-1a3 3 0 00-1-.5 4 4 0 00-1.4-.2c-.5 0-1 0-1.4.2a3 3 0 00-1 .6c-.3.2-.5.6-.7 1-.2.3-.2.7-.2 1.2v2a2.7 2.7 0 002 2.8l1.3.1zm1.6-4.7h-3.2v-.2c0-.5.1-1 .4-1.2.3-.3.7-.4 1.2-.4s.9.1 1.2.4c.3.3.4.7.4 1.2v.2zm6.7 4.7c1 0 1.7-.2 2.3-.6.5-.4.8-1 .8-1.7a2 2 0 00-.7-1.7c-.4-.3-1.1-.6-2-.7l-1.1-.2c-.7 0-1-.3-1-.8 0-.6.3-.9 1.2-.9h.5c.3 0 .6 0 .8.2.2.1.4.3.4.5h1.8c-.1-.6-.4-1.1-1-1.5-.4-.4-1.1-.5-2-.5h-.5c-1 0-1.7.2-2.2.5a2 2 0 00-.8 1.7c0 .7.2 1.3.6 1.6.4.4 1.1.7 2 .8h1c.9.2 1.3.5 1.3 1 0 .3-.2.6-.4.7-.2.2-.6.3-1 .3h-.6c-.3 0-.6 0-.8-.2a.9.9 0 01-.5-.6h-1.8c.1.7.4 1.2 1 1.6.5.4 1.2.5 2.1.5h.6z"/>
    <rect width="47.5" height="16.5" x="1.8" y="1.8" fill="#3D4251" stroke="#3D4251" stroke-width="3.5" rx="8.3" transform="translate(586 81)"/>
    <path fill="#FFF" fill-rule="nonzero" d="M595 96v-4.8c0-.5.2-.9.4-1.1.3-.3.6-.5 1-.5.6 0 1 .2 1.2.5.3.2.4.6.4 1.1v.4h1.9v-.5a3 3 0 00-.7-2.2c-.5-.5-1.2-.7-2-.7-.6 0-1 0-1.4.3-.4.3-.6.7-.7 1.1h-.1v-1.3h-1.7V96h1.8zm9.2.1c1 0 1.8-.2 2.3-.8a3 3 0 00.8-2.2v-4.8h-1.7v4.8c0 1-.5 1.5-1.4 1.5-1 0-1.4-.5-1.4-1.5v-4.8H601v4.8c0 1 .3 1.7.9 2.2.5.6 1.3.8 2.3.8zm11.6-.1v-1.6h-2.3c-.2 0-.5 0-.6-.2a.9.9 0 01-.3-.7V86h-4.2v1.5h2.5v6.1c0 .8.2 1.4.7 1.8.4.5 1 .7 1.8.7h2.4zm4.4.1l1.2-.1 1-.4c.2-.2.5-.4.6-.7l.5-.8h-1.8c0 .2-.3.3-.5.5l-1 .1c-.5 0-.9-.1-1.2-.4-.3-.3-.4-.7-.4-1.2v-.5h5v-1.4c0-.5-.2-.9-.3-1.3l-.7-1a3 3 0 00-1-.5 4 4 0 00-1.4-.2c-.5 0-1 0-1.4.2a3 3 0 00-1 .6c-.3.2-.5.6-.7 1-.2.3-.2.7-.2 1.2v2a2.7 2.7 0 002 2.8l1.3.1zm1.6-4.7h-3.2v-.2c0-.5.1-1 .4-1.2.3-.3.7-.4 1.2-.4s.9.1 1.2.4c.3.3.4.7.4 1.2v.2zm6.7 4.7c1 0 1.7-.2 2.3-.6.5-.4.8-1 .8-1.7a2 2 0 00-.7-1.7c-.4-.3-1.1-.6-2-.7l-1.1-.2c-.7 0-1-.3-1-.8 0-.6.3-.9 1.2-.9h.5c.3 0 .6 0 .8.2.2.1.4.3.4.5h1.8c-.1-.6-.4-1.1-1-1.5-.4-.4-1.1-.5-2-.5h-.5c-1 0-1.7.2-2.2.5a2 2 0 00-.8 1.7c0 .7.2 1.3.6 1.6.4.4 1.1.7 2 .8h1c.9.2 1.3.5 1.3 1 0 .3-.2.6-.4.7-.2.2-.6.3-1 .3h-.6c-.3 0-.6 0-.8-.2a.9.9 0 01-.5-.6h-1.8c.1.7.4 1.2 1 1.6.5.4 1.2.5 2.1.5h.6z"/>
    <path stroke="url(#a)" stroke-linecap="square" stroke-width="4" d="M264 7v39.6L8 46.7V30.9" transform="translate(87 178)"/>
    <path stroke="url(#b)" stroke-linecap="square" stroke-width="4" d="M137 7v27.6L8 34.7V18.9" transform="translate(87 178)"/>
    <path fill="#F0A439" d="M95 179l8 16H87z"/>
    <path fill="#3D4251" fill-rule="nonzero" d="M207.3 133.2l1.8-.3c.6-.2 1-.5 1.5-.8l-1-1.5v-.2l-.3-.1h-.2a4.4 4.4 0 01-.6.3l-.5.1a1 1 0 01-.8-.3c-.2-.3-.3-.6-.3-1v-7h3.4v-2.1h-3.4v-4h-2.1l-.2.5-.7 3.5-2 .3v1.2c0 .3 0 .4.2.5l.4.2h1.3v7.2c0 1 .3 2 .9 2.6.6.6 1.4.9 2.6.9zm8.5 0l1.3-.1a5 5 0 002-1l1-.7.2 1 .4.5.7.1h1.4v-8.1a6 6 0 00-.4-2c-.2-.6-.5-1.1-.9-1.6-.4-.4-.9-.7-1.5-1-.6-.2-1.2-.4-2-.4-2 0-3.8.7-5.3 2l.5 1 .4.4c.2.2.3.2.5.2.3 0 .5 0 .7-.2a31.8 31.8 0 001.6-.8l1.2-.1c.7 0 1.3.2 1.6.6.4.4.6 1 .6 1.9v.8c-1.5 0-2.7.1-3.7.4-1 .2-1.8.5-2.4 1-.6.3-1 .7-1.2 1.2a3 3 0 00-.4 1.4c0 .6 0 1.1.3 1.5a3 3 0 002 1.8l1.4.2zm1-2.1a2 2 0 01-1.3-.4c-.3-.2-.5-.6-.5-1.1 0-.3.1-.6.3-.8l.7-.6a6 6 0 011.5-.4 17 17 0 012.3-.3v2.2l-.7.6a3.3 3.3 0 01-1.4.7h-1zm13.5 6.4c1 0 1.8-.1 2.6-.4.8-.2 1.4-.6 2-1 .5-.4.9-.9 1.2-1.4.2-.5.4-1 .4-1.6 0-.7-.1-1.2-.4-1.5-.2-.4-.5-.7-1-1l-1.2-.5a12 12 0 00-3-.3h-1.4a3 3 0 01-1-.3.6.6 0 01-.3-.6c0-.3.2-.5.6-.8a7.2 7.2 0 003.4-.1c.7-.2 1.2-.5 1.6-.9a3.9 3.9 0 001.2-4.4l1.1-.3c.3 0 .5 0 .6-.2l.1-.4v-1.2h-3.7l-1.3-.5a6.8 6.8 0 00-5.2 1 3.9 3.9 0 00-1.4 3 3.7 3.7 0 002 3.5 3.6 3.6 0 00-1.2 1l-.3.6-.1.6c0 .5 0 .8.3 1.1.2.3.4.6.7.7-.6.3-1.1.6-1.5 1-.4.4-.5 1-.5 1.5s0 .9.3 1.3c.2.4.6.8 1 1 .5.4 1.1.6 1.8.8.8.2 1.6.3 2.6.3zm0-11.2a3 3 0 01-1-.2 1.8 1.8 0 01-1.1-1.1c-.2-.2-.2-.5-.2-.8 0-.7.2-1.2.5-1.5.4-.4 1-.6 1.7-.6.8 0 1.4.2 1.8.6.3.3.5.8.5 1.5l-.1.8a1.8 1.8 0 01-1.2 1.1l-1 .2zm0 9l-1.4-.1c-.4 0-.7-.2-1-.3l-.5-.5-.2-.7c0-.3.1-.6.4-.9.2-.2.4-.5.8-.7a15.1 15.1 0 002.4.2 16.7 16.7 0 012 .3c.3 0 .5.2.6.4.2.1.2.3.2.6 0 .2 0 .5-.2.7 0 .2-.3.4-.6.5-.2.2-.6.3-1 .4l-1.5.1zm13 2.2c.9 0 1.8-.1 2.5-.4.8-.2 1.5-.6 2-1s1-.9 1.2-1.4c.3-.5.4-1 .4-1.6 0-.7-.1-1.2-.3-1.5l-1-1-1.3-.5a12 12 0 00-3-.3h-1.3a3 3 0 01-1-.3.6.6 0 01-.3-.6c0-.3.2-.5.6-.8a7.2 7.2 0 003.4-.1c.6-.2 1.1-.5 1.6-.9a3.9 3.9 0 001.1-4.4l1.2-.3c.2 0 .4 0 .5-.2l.1-.4v-1.2h-3.6l-1.4-.5a6.8 6.8 0 00-5.2 1 3.9 3.9 0 00-1.4 3 3.7 3.7 0 002 3.5 3.6 3.6 0 00-1.2 1l-.3.6v.6c0 .5 0 .8.2 1.1.2.3.5.6.8.7-.7.3-1.2.6-1.6 1-.3.4-.5 1-.5 1.5s.1.9.3 1.3c.3.4.6.8 1.1 1 .5.4 1 .6 1.8.8.7.2 1.5.3 2.5.3zm-.1-11.2a3 3 0 01-1-.2 1.8 1.8 0 01-1.1-1.1l-.2-.8c0-.7.2-1.2.6-1.5.4-.4 1-.6 1.7-.6s1.3.2 1.7.6c.4.3.6.8.6 1.5 0 .3 0 .6-.2.8a1.8 1.8 0 01-1.1 1.1l-1 .2zm0 9l-1.4-.1c-.4 0-.7-.2-1-.3l-.5-.5-.1-.7c0-.3 0-.6.3-.9l.8-.7a15.1 15.1 0 002.4.2 16.7 16.7 0 012 .3c.3 0 .5.2.6.4.2.1.3.3.3.6 0 .2 0 .5-.2.7-.1.2-.3.4-.6.5l-1 .4-1.5.1zm14-2.1a10.1 10.1 0 002.7-.5 5.1 5.1 0 002.5-1.7l-.9-1-.2-.3h-.3c-.2 0-.4 0-.6.2a22 22 0 01-1.7.7l-1.3.2c-1 0-1.8-.3-2.4-1-.7-.5-1-1.5-1.1-2.8h8.3l.2-.3.1-.3v-.6c0-1-.1-1.8-.4-2.5-.3-.7-.6-1.3-1.1-1.8-.5-.5-1.1-.9-1.8-1.1-.7-.3-1.4-.4-2.2-.4-1 0-1.8.1-2.6.5a5.7 5.7 0 00-3.2 3.3c-.2.8-.4 1.6-.4 2.5 0 1.1.2 2.1.5 3a5.6 5.6 0 003.3 3.5c.8.2 1.6.4 2.5.4zm2.6-8H254c.1-1 .4-1.7 1-2.3.4-.5 1.1-.7 2-.7.5 0 .9 0 1.2.2l.9.6.5 1 .2 1.1zm8.3 7.8v-8a4 4 0 011.2-1.5c.5-.4 1-.6 1.6-.6l1 .1.4.1h.4l.1-.4.4-2.3c-.4-.3-1-.5-1.6-.5-.7 0-1.4.3-2 .7a6 6 0 00-1.6 1.9l-.2-1.5c0-.3-.2-.5-.3-.7l-.6-.1H265V133h3.1zM71 138.2l1.8-.3c.6-.2 1-.5 1.5-.8l-.9-1.5-.2-.2-.2-.1h-.2a4.4 4.4 0 01-.6.3l-.5.1a1 1 0 01-.8-.3c-.2-.3-.3-.6-.3-1v-7H74v-2.1h-3.4v-4h-2.1l-.2.5-.6 3.5-2.1.3v1.2c0 .3 0 .4.2.5l.4.2h1.3v7.2c0 1 .3 2 .9 2.6.6.6 1.5.9 2.6.9zm10.9 0a7 7 0 002.6-.5 5.5 5.5 0 003.3-3.4 8 8 0 00.4-2.7c0-1-.1-2-.4-2.8-.3-.8-.8-1.5-1.3-2-.5-.6-1.2-1-2-1.4a7 7 0 00-2.6-.4 7 7 0 00-2.6.4 5.7 5.7 0 00-3.3 3.4c-.3.8-.5 1.8-.5 2.8 0 1 .2 1.9.5 2.7a5.6 5.6 0 003.3 3.4 7 7 0 002.6.5zm0-2.4c-1 0-1.9-.3-2.4-1-.5-.8-.8-1.8-.8-3.2 0-1.4.3-2.4.8-3.2.5-.7 1.3-1 2.4-1 1 0 1.9.3 2.4 1 .5.8.7 1.8.7 3.2 0 1.4-.2 2.4-.7 3.1-.5.8-1.3 1.1-2.4 1.1zm11.9 2.2v-5.9h.7l.5.1c.2 0 .3.2.4.4l3.3 4.8c.1.3.2.4.4.5l.6.1h2.8l-4.3-6.2a10 10 0 00-.4-.6l-.4-.4.5-.4.4-.5 4-4.7h-2.8l-.7.1-.4.4-3.2 4-.4.3h-1v-10.6h-3.1V138h3zm22.4 0v-1.8a1 1 0 00-.3-.8c-.2-.2-.4-.3-.8-.3h-4.6l-1.1.1-1.2.3 4.1-4.2a72.2 72.2 0 002.5-3c.4-.5.6-1 .8-1.6a5.6 5.6 0 000-4 4.7 4.7 0 00-3-2.6 7.4 7.4 0 00-4.5 0 5.6 5.6 0 00-3.2 2.6c-.4.6-.6 1.4-.8 2.3l1.7.3h.4c.3 0 .5 0 .7-.2l.4-.7a3 3 0 011-1.5c.5-.4 1-.6 1.8-.6.4 0 .8 0 1.1.2a2.3 2.3 0 011.4 1.3l.2 1.2-.2 1.3c-.2.5-.3.9-.6 1.3a26 26 0 01-2.1 2.6l-5.5 5.5a1.8 1.8 0 00-.6 1.3v1h12.4zm9.1 0l5.1-12.8H128l-.5.1c-.2.1-.3.3-.3.5l-2.6 6.8a10.8 10.8 0 00-.6 2.3 22.8 22.8 0 00-.6-2.3l-2.5-6.8c0-.2-.2-.4-.3-.5a1 1 0 00-.6-.1h-2.5l5 12.8h2.8zm12.4.2a10.1 10.1 0 002.8-.5c.5-.1 1-.3 1.3-.6.5-.3.9-.6 1.2-1l-.9-1.1-.2-.3h-.4c-.2 0-.4 0-.6.2a22 22 0 01-1.6.7l-1.3.2c-1 0-1.8-.3-2.5-1-.6-.5-1-1.5-1-2.8H142.7l.3-.3v-.3l.1-.6c0-1-.1-1.8-.4-2.5-.3-.7-.7-1.3-1.1-1.8-.5-.5-1.1-.9-1.8-1.1-.7-.3-1.4-.4-2.2-.4-1 0-1.9.1-2.6.5a5.7 5.7 0 00-3.2 3.3c-.3.8-.4 1.6-.4 2.5 0 1.1.2 2.1.5 3a5.6 5.6 0 003.3 3.5c.8.2 1.6.4 2.5.4zm2.6-8h-5.8c.2-1 .5-1.7 1-2.2.5-.6 1.2-.8 2.1-.8.5 0 .9 0 1.2.2l.9.7c.2.2.4.5.5.9l.1 1.1zm10.2 8a9.5 9.5 0 002.7-.5 6 6 0 002.4-1.6l-1-1.1a.6.6 0 00-.5-.3c-.2 0-.3 0-.5.2l-.5.4-.8.4-1.2.1c-.5 0-1 0-1.3-.2-.4-.2-.8-.5-1-.9-.3-.3-.5-.8-.7-1.3a7 7 0 01-.2-1.8c0-.7 0-1.3.2-1.8l.6-1.3c.3-.4.6-.7 1-.9l1.5-.3a3.4 3.4 0 011.8.5l.5.3.5.2.4-.1.2-.3.8-1.1c-.5-.6-1.2-1-1.9-1.4-.7-.3-1.6-.4-2.5-.4-1 0-2 .1-2.7.5a5.5 5.5 0 00-3.1 3.4c-.3.8-.4 1.7-.4 2.7 0 1 .1 2 .4 2.8.3.8.7 1.5 1.3 2 .5.6 1 1 1.8 1.3.7.3 1.4.5 2.2.5zM330.7 137.2v-5.3l1.4 1c.5.2 1.1.3 1.8.3a5 5 0 004-2c.5-.5.9-1.2 1.2-2l.3-2.7c0-1 0-2-.3-2.8a6 6 0 00-1-2c-.4-.6-.9-1-1.5-1.3-.5-.3-1.2-.5-1.9-.5-.9 0-1.7.2-2.3.6-.7.4-1.3.8-1.8 1.4l-.3-1.2c0-.2-.1-.3-.3-.4a1 1 0 00-.5-.1h-1.9v17h3.1zm2.5-6.4c-.5 0-1 0-1.3-.2a3 3 0 01-1.2-1V124c.4-.5.9-.8 1.3-1.1a3.2 3.2 0 012.7-.2l.9.7.5 1.3a8.6 8.6 0 010 3.8 4 4 0 01-.7 1.4c-.2.3-.5.6-1 .8a3 3 0 01-1.2.2zm11.7 2.4l1.2-.1a5 5 0 002-1c.4-.1.7-.4 1-.7l.3 1c0 .2.2.4.4.5l.6.1h1.4v-8.1a6 6 0 00-.3-2c-.2-.6-.5-1.1-1-1.6-.3-.4-.8-.7-1.4-1-.6-.2-1.3-.4-2-.4-2.1 0-3.9.7-5.4 2l.6 1 .4.4c.1.2.3.2.5.2.3 0 .5 0 .7-.2a31.8 31.8 0 001.6-.8l1.2-.1c.7 0 1.2.2 1.6.6.3.4.5 1 .5 1.9v.8c-1.4 0-2.7.1-3.6.4-1 .2-1.8.5-2.4 1-.6.3-1 .7-1.3 1.2a3 3 0 00-.4 1.4c0 .6.1 1.1.3 1.5a3 3 0 002 1.8l1.5.2zm1-2.1a2 2 0 01-1.3-.4c-.3-.2-.5-.6-.5-1.1 0-.3 0-.6.2-.8l.8-.6a6 6 0 011.5-.4 17 17 0 012.2-.3v2.2l-.6.6a3.3 3.3 0 01-1.4.7h-1zm12 1.9v-8a4 4 0 011.2-1.5c.5-.4 1-.6 1.7-.6l.8.1.5.1h.4l.1-.4.4-2.3c-.4-.3-.9-.5-1.5-.5-.8 0-1.5.3-2.1.7a6 6 0 00-1.6 1.9l-.2-1.5c0-.3-.1-.5-.3-.7l-.6-.1h-1.8V133h3zm10.5.2a7 7 0 002.2-.3c.6-.2 1.2-.5 1.6-1 .4-.3.8-.7 1-1.3.2-.5.3-1 .3-1.7 0-.5 0-1-.2-1.3a3 3 0 00-.7-1 4 4 0 00-1-.6 12.5 12.5 0 00-2.4-.8 7 7 0 01-1-.4l-.7-.5a1 1 0 01-.2-.7c0-.4.1-.7.5-1 .3-.2.8-.4 1.4-.4a3.7 3.7 0 011.8.4 32.9 32.9 0 011 .4h.4l.3-.3.7-1.1c-.5-.5-1-.9-1.8-1.2-.7-.3-1.5-.4-2.4-.4-.8 0-1.5 0-2.1.3-.6.2-1.1.5-1.5.8a3.5 3.5 0 00-1.3 2.8c0 .6.1 1 .3 1.4.2.4.4.8.7 1l1 .7a10.8 10.8 0 002.4.9l1 .3.7.6c.2.1.3.4.3.7 0 .2 0 .4-.2.6 0 .2-.2.3-.3.5a2 2 0 01-.7.3 3 3 0 01-1 .1 3.5 3.5 0 01-1.9-.5 12 12 0 01-.6-.3 1 1 0 00-.5-.2 1 1 0 00-.5.1 1 1 0 00-.3.3l-.7 1.2.8.7a6.7 6.7 0 002.3.8l1.3.1zm13 0a10.1 10.1 0 002.9-.5 5.1 5.1 0 002.5-1.7l-1-1-.2-.3h-.3c-.2 0-.4 0-.6.2a22 22 0 01-1.7.7l-1.3.2c-1 0-1.8-.3-2.4-1-.6-.5-1-1.5-1-2.8h8.2l.2-.3.1-.3v-.6c0-1 0-1.8-.4-2.5-.2-.7-.6-1.3-1.1-1.8-.5-.5-1-.9-1.8-1.1-.6-.3-1.4-.4-2.2-.4-1 0-1.8.1-2.6.5a5.7 5.7 0 00-3.1 3.3c-.3.8-.5 1.6-.5 2.5 0 1.1.2 2.1.5 3 .4.8.8 1.6 1.4 2.1.5.6 1.2 1 2 1.3.7.3 1.6.5 2.5.5zm2.7-8h-5.8c.1-1 .5-1.7 1-2.3.5-.5 1.2-.7 2-.7.5 0 1 0 1.3.2l.8.6c.3.3.4.6.5 1l.2 1.1zm8.4 7.8v-8a4 4 0 011.1-1.5c.5-.4 1-.6 1.7-.6l.8.1.5.1h.4l.1-.4.4-2.3c-.4-.3-.9-.5-1.5-.5-.8 0-1.5.3-2.1.7a6 6 0 00-1.6 1.9l-.2-1.5c0-.3-.1-.5-.3-.7l-.6-.1h-1.8V133h3zM454 128.2l1-.1a4 4 0 001.6-.7l.8-.7.2.8c0 .2.2.3.3.4l.5.1h1.2v-6.5c0-.6-.1-1-.3-1.6-.2-.5-.4-.9-.8-1.2-.3-.4-.7-.7-1.1-.9-.5-.2-1-.3-1.6-.3-1.7 0-3.1.6-4.3 1.7l.4.8.3.3.4.1.6-.1a25.4 25.4 0 001.2-.7 3 3 0 011-.1c.6 0 1 .2 1.3.5.3.3.4.8.4 1.5v.6c-1.1 0-2.1.2-2.9.4-.8.2-1.4.4-1.9.7-.5.3-.8.7-1 1l-.3 1.2c0 .4 0 .8.2 1.2a2.4 2.4 0 001.6 1.4l1.2.2zm.8-1.7c-.5 0-.8-.1-1-.3-.3-.2-.4-.5-.4-1l.1-.6.7-.4 1.1-.4 1.8-.2v1.8a5 5 0 01-.5.4l-.5.4-.7.2h-.6zm10.6 1.7c.5 0 1-.1 1.4-.3.5-.1.9-.4 1.2-.7l-.7-1.2-.2-.1h-.1-.2a3.5 3.5 0 01-.5.2h-.4c-.2 0-.4 0-.6-.2a1 1 0 01-.3-.8v-5.5h2.8v-1.8H465v-3.2h-1.2l-.4.1-.2.3-.5 2.8-1.6.3v1.4h1.4v5.8c0 1 .3 1.6.8 2.1s1.2.8 2 .8zm7.7 0c.5 0 1-.1 1.4-.3.5-.1 1-.4 1.3-.7l-.8-1.2-.1-.1h-.2-.2a3.5 3.5 0 01-.4.2h-.4c-.3 0-.5 0-.7-.2a1 1 0 01-.2-.8v-5.5h2.7v-1.8h-2.7v-3.2h-1.3l-.4.1-.1.3-.6 2.8-1.6.3v1l.1.4h1.4v5.8c0 1 .3 1.6.7 2.1.5.5 1.2.8 2 .8zm6.8-.2v-6.4c.3-.5.6-1 1-1.2a2 2 0 011.3-.5l.7.1h.7v-.3l.4-1.8c-.3-.2-.8-.4-1.3-.4-.6 0-1.1.2-1.6.6-.5.4-1 .9-1.3 1.5l-.2-1.2c0-.3 0-.4-.2-.5 0-.1-.2-.2-.5-.2h-1.4V128h2.4zm7.1-11.7l.6-.1a1.6 1.6 0 00.9-.9l.1-.5-.1-.7a1.6 1.6 0 00-1.5-1l-.6.2a1.6 1.6 0 00-.8.8 1.5 1.5 0 00.8 2c.2.2.4.2.6.2zm1.3 11.7v-10.3h-2.5V128h2.5zm7.8.2a4 4 0 003.2-1.6l1-1.7a8.2 8.2 0 000-4.4l-.8-1.6-1.2-1c-.5-.2-1-.3-1.6-.3a4 4 0 00-1.8.4c-.5.2-1 .6-1.3 1v-5.9H491V128h1.6l.4-.1.2-.4.1-.7.5.6a3 3 0 002.2.8zm-.6-2l-1-.1c-.4-.2-.7-.4-1-.8v-4.6l1-.9a2.5 2.5 0 012.3-.1l.6.5.4 1a6.9 6.9 0 010 3.1c-.1.5-.3.8-.5 1.1a2 2 0 01-.8.7l-1 .2zm10.2 2a4.2 4.2 0 003.2-1.5l.1.8c.1.3.4.5.7.5h1.5v-10.3h-2.5v7.5l-1 .7c-.4.2-.8.3-1.3.3s-1-.1-1.3-.5c-.2-.3-.4-.8-.4-1.4v-6.6h-2.5v6.6l.3 1.5c.1.5.3 1 .6 1.3l1.1.8c.4.2 1 .3 1.5.3zm11.5 0c.5 0 1-.1 1.4-.3.5-.1 1-.4 1.3-.7l-.8-1.2-.1-.1h-.2-.2a3.5 3.5 0 01-.4.2h-.4c-.3 0-.5 0-.7-.2a1 1 0 01-.2-.8v-5.5h2.7v-1.8h-2.7v-3.2h-1.3l-.4.1-.1.3-.6 2.8-1.6.3v1l.1.4h1.4v5.8c0 1 .3 1.6.7 2.1.5.5 1.2.8 2 .8zm8.7 0a8 8 0 002.3-.4l1-.5 1-.8-.8-1-.2-.1h-.2a1 1 0 00-.5 0 17.7 17.7 0 01-1.3.7l-1 .1c-.9 0-1.5-.2-2-.7-.5-.5-.8-1.3-.9-2.3h6.7l.1-.2.1-.3v-.5c0-.7 0-1.4-.3-2-.2-.5-.5-1-1-1.4a4 4 0 00-1.3-1 5 5 0 00-1.8-.2c-.8 0-1.5.1-2 .4a4.6 4.6 0 00-2.6 2.7c-.2.6-.3 1.3-.3 2 0 .8.1 1.6.4 2.3a5 5 0 001 1.7c.5.5 1 .9 1.6 1 .6.3 1.3.5 2 .5zm2.1-6.5h-4.6a3 3 0 01.8-1.7 2.3 2.3 0 012.6-.4c.3 0 .5.2.7.4l.4.8.1.9zm10.8 9.2v-1.6H531v1.6h8zM476.4 148v-6.4c.2-.5.5-1 1-1.2a2 2 0 011.2-.5l.7.1h.7l.1-.3.3-1.8c-.3-.2-.7-.3-1.2-.3-.6 0-1.2.1-1.7.5s-.9.9-1.3 1.5l-.1-1.2c0-.3-.1-.4-.2-.5l-.5-.2h-1.5V148h2.5zm9 .2a4.2 4.2 0 003.1-1.5l.2.9c0 .3.3.4.6.4h1.5v-10.3h-2.5v7.5c-.3.3-.6.6-1 .7l-1.2.3c-.6 0-1-.1-1.3-.5-.3-.3-.5-.8-.5-1.4v-6.6H482v6.6c0 .5 0 1 .2 1.5.1.5.4 1 .7 1.3l1 .8 1.5.3zm10.7-.2v-14.9h-2.5V148h2.5zm7.1.2a8 8 0 002.3-.4l1-.5 1-.8-.8-1-.1-.1h-.3a1 1 0 00-.5 0 17.7 17.7 0 01-1.3.7l-1 .1c-.9 0-1.5-.2-2-.7-.5-.5-.8-1.3-.9-2.3h6.7l.1-.2.1-.3v-.5c0-.7 0-1.4-.3-2a4 4 0 00-2.3-2.4 5 5 0 00-1.8-.2c-.8 0-1.4.1-2 .4a4.6 4.6 0 00-2.6 2.7c-.2.6-.3 1.3-.3 2 0 .9.1 1.6.4 2.3a5 5 0 001 1.7c.5.5 1 .9 1.6 1 .7.3 1.3.5 2 .5zm2.1-6.5h-4.6a3 3 0 01.8-1.7c.4-.4 1-.7 1.7-.7l1 .2.6.5.4.8.1.9zm6.7 6.3v-6.4c.3-.5.6-1 1-1.2a2 2 0 011.3-.5l.7.1h.7v-.3l.4-1.8c-.3-.2-.8-.3-1.3-.3-.6 0-1.1.1-1.6.5s-1 .9-1.3 1.5l-.2-1.2c0-.3 0-.4-.2-.5 0-.1-.2-.2-.5-.2h-1.4V148h2.4zM576.6 135v-14.9h-2.5V135h2.5zm7.2.2a8 8 0 002.2-.4l1-.5 1-.8-.7-1-.2-.1h-.3a1 1 0 00-.4 0 17.7 17.7 0 01-1.4.7l-1 .1c-.8 0-1.5-.2-2-.7-.5-.5-.8-1.3-.8-2.3h6.6l.2-.2v-.3-.5c0-.7 0-1.4-.2-2l-1-1.4a4 4 0 00-1.4-1 5 5 0 00-1.8-.2c-.7 0-1.4.1-2 .4a4.6 4.6 0 00-2.5 2.7c-.3.6-.4 1.2-.4 2 0 .9.1 1.6.4 2.3a5 5 0 001 1.7c.5.5 1 .9 1.7 1 .6.3 1.3.5 2 .5zm2-6.5h-4.6a3 3 0 01.8-1.7c.4-.4 1-.7 1.7-.7l1 .2.6.5.4.8.2.9zm6.8 6.3v-7.5c.2-.3.5-.6.8-.7a2 2 0 011-.3c.6 0 1 .2 1.3.5.2.3.4.8.4 1.5v6.5h2.4v-6.5c0-.3 0-.6.2-.9 0-.2.2-.4.4-.6l.5-.4.7-.1c.6 0 1 .2 1.3.5.3.3.4.8.4 1.5v6.5h2.5v-6.5c0-.7 0-1.2-.2-1.7s-.4-.9-.7-1.2l-1.1-.8-1.5-.2a4.4 4.4 0 00-2 .4 3.3 3.3 0 00-1.3 1.5c-.2-.6-.5-1-1-1.4-.4-.3-.9-.5-1.5-.5a3.2 3.2 0 00-2.2.8l-.6.5-.2-.7c0-.3-.3-.5-.6-.5h-1.5V135h2.5zm16.8 0v-7.5c.3-.3.6-.6.9-.7a2 2 0 011-.3c.5 0 1 .2 1.2.5.3.3.4.8.4 1.5v6.5h2.5v-6.5l.1-.9.4-.6.6-.4.7-.1c.5 0 1 .2 1.2.5.3.3.5.8.5 1.5v6.5h2.4v-6.5c0-.7 0-1.2-.2-1.7-.1-.5-.4-.9-.7-1.2l-1-.8-1.6-.2a4.4 4.4 0 00-1.9.4 3.3 3.3 0 00-1.4 1.5c-.2-.6-.5-1-1-1.4-.3-.3-.9-.5-1.5-.5a3.2 3.2 0 00-2.2.8l-.6.5-.1-.7c-.1-.3-.3-.5-.7-.5H607V135h2.5zm16.8.2l1-.1a4 4 0 001.7-.7l.7-.7.3.8c0 .2.1.3.3.4l.5.1h1.1v-6.5c0-.6 0-1-.2-1.6-.2-.5-.5-.9-.8-1.2-.3-.4-.7-.7-1.2-.9-.5-.2-1-.3-1.6-.3-1.7 0-3 .6-4.3 1.7l.5.8.3.3.4.1.6-.1a25.4 25.4 0 001.2-.7 3 3 0 011-.1c.6 0 1 .2 1.3.5.3.3.4.8.4 1.5v.6c-1.2 0-2.1.2-3 .4l-1.8.7c-.5.3-.8.7-1 1l-.3 1.2c0 .4 0 .8.2 1.2a2.4 2.4 0 001.5 1.4l1.2.2zm.8-1.7c-.4 0-.7-.1-1-.3-.2-.2-.4-.5-.4-1 0-.2 0-.4.2-.6l.6-.4 1.2-.4 1.8-.2v1.8a5 5 0 01-.5.4l-.6.4-.6.2h-.7zm10.6 1.7l1.5-.3c.4-.1.8-.3 1.2-.7l-.7-1.1-.2-.2h-.2-.1a3.5 3.5 0 01-.5.2h-.4c-.3 0-.5 0-.6-.2a1 1 0 01-.3-.8v-5.5h2.7v-1.8h-2.7v-3.2H636l-.3.1-.2.3-.5 2.8-1.7.3v1c0 .1 0 .3.2.4h1.3v5.8c0 1 .3 1.6.8 2.1.4.5 1.1.8 2 .8zm5.8-11.9l.6-.1a1.6 1.6 0 00.9-.9v-.5-.7a1.6 1.6 0 00-1.5-1l-.6.2a1.6 1.6 0 00-.8.8 1.5 1.5 0 00.8 2c.2.2.4.2.6.2zm1.2 11.7v-10.3h-2.5V135h2.5zm10 0v-1.9h-5l4.9-6.4a1.7 1.7 0 00.3-1v-1H647v2h5l-5 6.4a1.4 1.4 0 00-.2.9v1h7.9zm6.6.2a8 8 0 002.2-.4l1-.5 1-.8-.7-1-.2-.1h-.3a1 1 0 00-.5 0 17.7 17.7 0 01-1.3.7l-1 .1c-.8 0-1.5-.2-2-.7-.5-.5-.8-1.3-.8-2.3h6.6l.2-.2v-.3-.5c0-.7 0-1.4-.3-2a4 4 0 00-2.3-2.4 5 5 0 00-1.8-.2c-.7 0-1.4.1-2 .4a4.6 4.6 0 00-2.6 2.7c-.2.6-.3 1.2-.3 2 0 .9.1 1.6.4 2.3a5 5 0 001 1.7c.5.5 1 .9 1.7 1 .6.3 1.2.5 2 .5zm2-6.5h-4.6a3 3 0 01.8-1.7c.4-.4 1-.7 1.7-.7l1 .2.6.5.4.8.2.9zm6.8 6.3v-6.4c.2-.5.5-1 .9-1.2a2 2 0 011.3-.5l.7.1h.7l.1-.3.3-1.8c-.3-.2-.7-.4-1.2-.4-.6 0-1.2.2-1.7.6-.5.4-1 .9-1.3 1.5l-.1-1.2c0-.3-.1-.4-.2-.5l-.6-.2h-1.4V135h2.5z"/>
    <path fill="#FFF" fill-rule="nonzero" d="M193.4 175v-2h-3c-.3 0-.6-.1-.8-.3-.2-.2-.3-.5-.3-.9V162h-5.4v2h3.1v7.8c0 1 .3 1.8.9 2.4.5.5 1.3.8 2.3.8h3.2zm6.3-11.4c.4 0 .7-.1 1-.3.2-.2.3-.5.3-.9 0-.3-.1-.6-.3-.8-.3-.3-.6-.4-1-.4h-.4c-.4 0-.7.1-1 .4-.2.2-.3.5-.3.8 0 .4.1.7.3.9.3.2.6.3 1 .3h.4zm4 11.4v-2h-2.9V165h-5.3v2h3.1v5.8h-3.5v2.1h8.6zm6 .2c1.2 0 2.2-.3 2.9-.8.7-.5 1-1.3 1-2.3 0-.9-.3-1.6-.8-2-.6-.6-1.5-.9-2.6-1l-1.5-.2c-.9-.1-1.3-.5-1.3-1.1 0-.8.5-1.2 1.6-1.2h.7c.4 0 .7.1 1 .3.3.2.4.4.5.6h2.3c-.1-.8-.5-1.4-1.2-1.9-.6-.4-1.5-.7-2.6-.7h-.7c-1.3 0-2.2.3-2.9.8-.6.5-1 1.2-1 2.1 0 1 .3 1.6.9 2.1.5.5 1.3.8 2.5 1l1.4.1c1 .1 1.5.6 1.5 1.2 0 .4-.1.7-.5 1-.3.1-.7.3-1.3.3h-.7c-.4 0-.8-.1-1-.3-.4-.2-.6-.4-.7-.7H205c.2.8.6 1.5 1.2 2 .7.4 1.7.7 2.8.7h.7zm13.9-.2v-2H221a1 1 0 01-.8-.3 1 1 0 01-.3-.8v-4.8h3.8v-2H220v-3h-2.3v3H215v2h2.7v4.8c0 1 .3 1.7.9 2.3.6.5 1.3.8 2.3.8h2.7zm6.3.2c.5 0 1 0 1.5-.2l1.2-.5 1-.9.5-1.1h-2.2c-.2.3-.4.5-.8.6a3 3 0 01-1.2.3 2 2 0 01-1.5-.6c-.4-.4-.6-.9-.6-1.5v-.7h6.4v-1.8a4 4 0 00-.3-1.6c-.2-.5-.5-.9-.9-1.2a4 4 0 00-1.3-.8l-1.8-.3c-.7 0-1.3.1-1.8.3-.5.2-1 .4-1.3.8-.4.3-.7.7-.9 1.2a4 4 0 00-.3 1.6v2.5c0 .6.1 1.1.3 1.6a3.5 3.5 0 002.2 2l1.8.3zm2-6.1h-4v-.3c0-.7.1-1.2.5-1.5a2 2 0 011.5-.6 2 2 0 011.5.6c.4.3.6.8.6 1.5v.3zm6.4 5.9v-6.2c0-.6.2-1 .5-1.4.4-.4.8-.5 1.4-.5.6 0 1 .1 1.3.5.4.3.5.8.5 1.4v6.2h2.3v-6.5c0-1-.3-2-.9-2.6a3 3 0 00-2.4-1 3 3 0 00-1.8.5c-.4.3-.7.8-.8 1.4h-.2v-1.7h-2.1v9.9h2.2zm12.2.2c.5 0 1 0 1.5-.2l1.2-.5 1-.9.5-1.1h-2.2c-.2.3-.4.5-.8.6a3 3 0 01-1.2.3 2 2 0 01-1.5-.6c-.4-.4-.6-.9-.6-1.5v-.7h6.4v-1.8a4 4 0 00-.3-1.6c-.2-.5-.5-.9-.9-1.2a4 4 0 00-1.3-.8l-1.8-.3c-.7 0-1.3.1-1.8.3-.5.2-1 .4-1.3.8-.4.3-.7.7-.9 1.2a4 4 0 00-.3 1.6v2.5c0 .6.1 1.1.3 1.6a3.5 3.5 0 002.2 2l1.8.3zm2-6.1h-4v-.3c0-.7.1-1.2.5-1.5a2 2 0 011.5-.6 2 2 0 011.5.6c.4.3.6.8.6 1.5v.3zm6.9 5.9v-6.2c0-.6.1-1 .5-1.4.3-.4.7-.6 1.3-.6.6 0 1.1.2 1.5.6.3.3.5.8.5 1.4v.6h2.3v-.8a4 4 0 00-.9-2.7c-.6-.7-1.4-1-2.5-1-.7 0-1.3.2-1.8.5s-.8.8-.9 1.4h-.2v-1.7h-2v9.9h2.2zM320.4 175v-2h-3c-.3 0-.6-.1-.8-.3-.2-.2-.3-.5-.3-.9V162h-5.4v2h3.1v7.8c0 1 .3 1.8.9 2.4.5.5 1.3.8 2.3.8h3.2zm6.3-11.4c.4 0 .7-.1 1-.3.2-.2.3-.5.3-.9 0-.3-.1-.6-.3-.8-.3-.3-.6-.4-1-.4h-.4c-.4 0-.7.1-1 .4-.2.2-.3.5-.3.8 0 .4.1.7.3.9.3.2.6.3 1 .3h.4zm4 11.4v-2h-2.9V165h-5.3v2h3.1v5.8h-3.5v2.1h8.6zm6 .2c1.2 0 2.2-.3 2.9-.8.7-.5 1-1.3 1-2.3 0-.9-.3-1.6-.8-2-.6-.6-1.5-.9-2.6-1l-1.5-.2c-.9-.1-1.3-.5-1.3-1.1 0-.8.5-1.2 1.6-1.2h.7c.4 0 .7.1 1 .3.3.2.4.4.5.6h2.3c-.1-.8-.5-1.4-1.2-1.9-.6-.4-1.5-.7-2.6-.7h-.7c-1.3 0-2.2.3-2.9.8-.6.5-1 1.2-1 2.1 0 1 .3 1.6.9 2.1.5.5 1.3.8 2.5 1l1.4.1c1 .1 1.5.6 1.5 1.2 0 .4-.1.7-.5 1-.3.1-.7.3-1.3.3h-.7c-.4 0-.8-.1-1-.3-.4-.2-.6-.4-.7-.7H332c.2.8.6 1.5 1.2 2 .7.4 1.7.7 2.8.7h.7zm13.9-.2v-2H348a1 1 0 01-.8-.3 1 1 0 01-.3-.8v-4.8h3.8v-2H347v-3h-2.3v3H342v2h2.7v4.8c0 1 .3 1.7.9 2.3.6.5 1.3.8 2.3.8h2.7zm6.3.2c.5 0 1 0 1.5-.2l1.2-.5 1-.9.5-1.1h-2.2c-.2.3-.4.5-.8.6a3 3 0 01-1.2.3 2 2 0 01-1.5-.6c-.4-.4-.6-.9-.6-1.5v-.7h6.4v-1.8a4 4 0 00-.3-1.6c-.2-.5-.5-.9-.9-1.2a4 4 0 00-1.3-.8l-1.8-.3c-.7 0-1.3.1-1.8.3-.5.2-1 .4-1.3.8-.4.3-.7.7-.9 1.2a4 4 0 00-.3 1.6v2.5c0 .6.1 1.1.3 1.6a3.5 3.5 0 002.2 2l1.8.3zm2-6.1h-4v-.3c0-.7.1-1.2.5-1.5a2 2 0 011.5-.6 2 2 0 011.5.6c.4.3.6.8.6 1.5v.3zm6.4 5.9v-6.2c0-.6.2-1 .5-1.4.4-.4.8-.5 1.4-.5.6 0 1 .1 1.3.5.4.3.5.8.5 1.4v6.2h2.3v-6.5c0-1-.3-2-.9-2.6a3 3 0 00-2.4-1 3 3 0 00-1.8.5c-.4.3-.7.8-.8 1.4h-.2v-1.7h-2.1v9.9h2.2zm12.2.2c.5 0 1 0 1.5-.2l1.2-.5 1-.9.5-1.1h-2.2c-.2.3-.4.5-.8.6a3 3 0 01-1.2.3 2 2 0 01-1.5-.6c-.4-.4-.6-.9-.6-1.5v-.7h6.4v-1.8a4 4 0 00-.3-1.6c-.2-.5-.5-.9-.9-1.2a4 4 0 00-1.3-.8l-1.8-.3c-.7 0-1.3.1-1.8.3-.5.2-1 .4-1.3.8-.4.3-.7.7-.9 1.2a4 4 0 00-.3 1.6v2.5c0 .6.1 1.1.3 1.6a3.5 3.5 0 002.2 2l1.8.3zm2-6.1h-4v-.3c0-.7.1-1.2.5-1.5a2 2 0 011.5-.6 2 2 0 011.5.6c.4.3.6.8.6 1.5v.3zm6.9 5.9v-6.2c0-.6.1-1 .5-1.4.3-.4.7-.6 1.3-.6.6 0 1.1.2 1.5.6.3.3.5.8.5 1.4v.6h2.3v-.8a4 4 0 00-.9-2.7c-.6-.7-1.4-1-2.5-1-.7 0-1.3.2-1.8.5s-.8.8-.9 1.4h-.2v-1.7h-2v9.9h2.2z"/>
    <path fill="#CCBDFE" stroke="#5E3AD7" stroke-linejoin="round" stroke-width="3.8" d="M672 90h123.5l21.5 40.9-21.5 39.1H672l21.5-39z"/>
    <path fill="#B39DFF" stroke="#5E3AD7" stroke-linejoin="round" stroke-width="3.8" d="M817 131l-21.5 39H672l21.5-38.9z"/>
    <path fill="#3D4251" fill-rule="nonzero" d="M727.8 121v-9.3l1.4-1c.4-.2 1-.3 1.5-.3.7 0 1.2.2 1.6.6.4.4.5 1 .5 1.8v8.2h3.1v-8.2c0-.7 0-1.3-.3-2-.1-.5-.4-1-.8-1.5-.3-.4-.8-.7-1.3-1-.6-.2-1.2-.3-1.9-.3a5.4 5.4 0 00-2.2.5 5.7 5.7 0 00-1.8 1.3l-.2-1c0-.4-.4-.6-.8-.6h-1.8V121h3zm16.6.2a10.1 10.1 0 002.8-.5 5.1 5.1 0 002.5-1.7l-.9-1-.2-.3h-.4l-.6.1a22 22 0 01-1.6.8l-1.3.2c-1 0-1.8-.3-2.5-1-.6-.5-1-1.5-1-2.8h8.3l.2-.3v-.3l.1-.6c0-1-.1-1.8-.4-2.5-.3-.7-.7-1.3-1.1-1.8-.5-.5-1.1-.9-1.8-1.1-.7-.3-1.4-.4-2.2-.4-1 0-1.8.1-2.6.5a5.7 5.7 0 00-3.2 3.3c-.3.8-.4 1.6-.4 2.5 0 1.1.2 2.1.5 3a5.6 5.6 0 003.3 3.5c.8.2 1.6.4 2.5.4zm2.6-8h-5.8c.2-1 .5-1.7 1-2.3.5-.5 1.2-.7 2.1-.7.5 0 .9 0 1.2.2l.9.6.5 1 .1 1.1zm8.4 7.8v-8a4 4 0 011.2-1.5c.4-.4 1-.6 1.6-.6l.9.1.5.1h.3l.2-.4.4-2.3c-.4-.3-1-.5-1.6-.5-.7 0-1.4.3-2 .7a6 6 0 00-1.7 1.9l-.1-1.5c0-.3-.2-.5-.3-.7l-.7-.1h-1.8V121h3.1zM716 157.1c.5 0 1 0 1.3-.2.5-.1.8-.3 1.2-.6l-.7-1-.1-.2h-.2-.2a3.2 3.2 0 01-.4.2h-.3c-.3 0-.5 0-.6-.2a1 1 0 01-.2-.7v-5h2.4v-1.6h-2.4V145h-1.2l-.3.1-.2.3-.5 2.5-1.4.3v1.2l.4.1h1v5.2c0 .8.2 1.4.6 1.9.4.4 1 .6 1.8.6zm8 0a5 5 0 001.8-.3 4 4 0 002.3-2.5c.3-.5.4-1.2.4-2 0-.7-.1-1.3-.4-2a4 4 0 00-2.4-2.4 5 5 0 00-1.8-.3c-.7 0-1.3.1-1.9.4a4 4 0 00-2.3 2.4c-.3.6-.4 1.2-.4 2 0 .7.1 1.4.4 2a4 4 0 002.4 2.5l1.8.2zm0-1.7c-.9 0-1.4-.2-1.8-.8-.4-.5-.6-1.2-.6-2.2 0-1 .2-1.8.6-2.3.4-.5 1-.8 1.7-.8.8 0 1.3.3 1.7.8.4.5.6 1.3.6 2.3 0 1-.2 1.7-.6 2.3-.4.5-1 .7-1.7.7zm8.4 1.6v-4.2h1l.2.3 2.4 3.5.3.3.4.1h2l-3-4.5-.3-.4-.4-.3c.2 0 .3-.2.4-.3l.3-.3 2.9-3.4H736l-.3.4-2.3 2.8a1 1 0 01-.3.2h-.8v-7.6h-2.2V157h2.2zm16.2 0v-1.3c0-.3 0-.4-.2-.6a.8.8 0 00-.6-.2h-3.3a7.1 7.1 0 00-1.6.3l2.9-3a52 52 0 001.8-2.1l.6-1.2a4 4 0 000-2.9 3.4 3.4 0 00-2.2-1.9c-.5-.2-1-.3-1.6-.3-.6 0-1.2.1-1.7.3a4 4 0 00-2.3 1.9l-.5 1.6 1.2.2h.3l.5-.1.3-.5c.1-.4.4-.8.7-1a2 2 0 011.3-.5l.8.1a1.6 1.6 0 011 1l.1.8-.1 1-.4 1-.7.8-.9 1-4 4a1.3 1.3 0 00-.3.9v.7h9zm6.6 0l3.7-9.2h-2.2l-.2.4-1.8 5a7.8 7.8 0 00-.5 1.6 16.4 16.4 0 00-.4-1.7l-1.8-5-.2-.2a.7.7 0 00-.5-.1h-1.8l3.7 9.2h2zm8.9.1a7.3 7.3 0 002-.3l1-.5c.3-.1.6-.4.8-.7l-.6-.8-.2-.1h-.3-.4a15.9 15.9 0 01-1.2.6 3 3 0 01-1 .1c-.6 0-1.2-.2-1.7-.7-.4-.4-.7-1-.7-2h5.9l.2-.2v-.3-.4a5 5 0 00-.2-1.8l-.8-1.3-1.3-.8a4.6 4.6 0 00-3.5 0 4.1 4.1 0 00-2.2 2.5c-.3.6-.4 1.2-.4 1.8 0 .8.2 1.5.4 2.1.2.6.6 1.2 1 1.6l1.4 1a5 5 0 001.8.2zm1.9-5.8h-4.2c.1-.7.3-1.2.7-1.5a2 2 0 011.5-.6c.4 0 .6 0 .9.2.2 0 .4.2.6.4l.4.7v.8zm7.3 5.8a6.8 6.8 0 002-.3 4.3 4.3 0 001.7-1.2l-.7-.8-.4-.2-.4.1-.4.3-.5.3-.9.1c-.3 0-.6 0-1-.2a2 2 0 01-.6-.6c-.2-.2-.4-.5-.5-1a5 5 0 01-.2-1.2c0-.5 0-1 .2-1.3 0-.4.2-.7.4-1l.8-.6 1-.2a2.5 2.5 0 011.3.4l.4.2h.6l.2-.2.6-.8-1.4-1-1.8-.3c-.8 0-1.4.1-2 .4a4 4 0 00-2.2 2.5c-.2.6-.3 1.2-.3 1.9s0 1.4.3 2c.2.6.5 1 .9 1.5l1.3 1 1.6.2z"/>
    <g>
      <path fill="url(#c)" fill-rule="nonzero" d="M249.5 40.5v-1a2 2 0 00-4 0v1a2 2 0 004 0zm0-8v-1a2 2 0 00-4 0v1a2 2 0 004 0zm0-8v-1a2 2 0 00-4 0v1a2 2 0 004 0zm0-8v-1a2 2 0 00-4 0v1a2 2 0 004 0zm0-8v-1a2 2 0 00-4 0v1a2 2 0 004 0zm0-8v-1a2 2 0 00-4 0v1a2 2 0 004 0zM240-2h-1a2 2 0 000 4h1a2 2 0 000-4zm-8 0h-1a2 2 0 000 4h1a2 2 0 000-4zm-8 0h-1a2 2 0 000 4h1a2 2 0 000-4zm-8 0h-1a2 2 0 000 4h1a2 2 0 000-4zm-8 0h-1a2 2 0 000 4h1a2 2 0 000-4zm-8 0h-1a2 2 0 000 4h1a2 2 0 000-4zm-8 0h-1a2 2 0 000 4h1a2 2 0 000-4zm-8 0h-1a2 2 0 000 4h1a2 2 0 000-4zm-8 0h-1a2 2 0 000 4h1a2 2 0 000-4zm-8 0h-1a2 2 0 000 4h1a2 2 0 000-4zm-8 0h-1a2 2 0 000 4h1a2 2 0 000-4zm-8 0h-1a2 2 0 000 4h1a2 2 0 000-4zm-8 0h-1a2 2 0 000 4h1a2 2 0 000-4zm-8 0h-1a2 2 0 000 4h1a2 2 0 000-4zm-8 0h-1a2 2 0 000 4h1a2 2 0 000-4zm-8 0h-1a2 2 0 000 4h1a2 2 0 000-4zm-8 0h-1a2 2 0 000 4h1a2 2 0 000-4zm-8 0h-1a2 2 0 000 4h1a2 2 0 000-4zm-8 0h-1a2 2 0 100 4h1a2 2 0 100-4zm-8 0h-1a2 2 0 100 4h1a2 2 0 100-4zm-8 0h-1a2 2 0 100 4h1a2 2 0 100-4zm-8 0h-1a2 2 0 100 4h1a2 2 0 100-4zm-8 0h-1a2 2 0 100 4h1a2 2 0 100-4zm-8 0h-1a2 2 0 100 4h1a2 2 0 100-4zm-8 0h-1a2 2 0 100 4h1a2 2 0 100-4zm-8 0h-1a2 2 0 100 4h1a2 2 0 100-4zm-8 0h-1a2 2 0 100 4h1a2 2 0 100-4zm-8 0h-1a2 2 0 100 4h1a2 2 0 100-4zm-8 0h-1a2 2 0 100 4h1a2 2 0 100-4zM6 0v1a2 2 0 104 0V0a2 2 0 10-4 0zm0 8v1a2 2 0 104 0V8a2 2 0 10-4 0zm0 8v1a2 2 0 104 0v-1a2 2 0 10-4 0zm0 8v1a2 2 0 104 0v-1a2 2 0 10-4 0zm0 8v1a2 2 0 104 0v-1a2 2 0 10-4 0zm0 8v1a2 2 0 104 0v-1a2 2 0 10-4 0z" transform="translate(226 28.5)"/>
      <path fill="#CDB217" d="M234 73l-8-16h16z"/>
    </g>
    <g>
      <path fill="url(#d)" fill-rule="nonzero" d="M129.5 40.5v-1a2 2 0 00-4 0v1a2 2 0 004 0zm0-8v-1a2 2 0 00-4 0v1a2 2 0 004 0zm0-8v-1a2 2 0 00-4 0v1a2 2 0 004 0zm0-8v-1a2 2 0 00-4 0v1a2 2 0 004 0zm0-8v-1a2 2 0 00-4 0v1a2 2 0 004 0zm0-8v-1a2 2 0 00-4 0v1a2 2 0 004 0zM120-2h-1a2 2 0 000 4h1a2 2 0 000-4zm-8 0h-1a2 2 0 000 4h1a2 2 0 000-4zm-8 0h-1a2 2 0 000 4h1a2 2 0 000-4zm-8 0h-1a2 2 0 100 4h1a2 2 0 100-4zm-8 0h-1a2 2 0 100 4h1a2 2 0 100-4zm-8 0h-1a2 2 0 100 4h1a2 2 0 100-4zm-8 0h-1a2 2 0 100 4h1a2 2 0 100-4zm-8 0h-1a2 2 0 100 4h1a2 2 0 100-4zm-8 0h-1a2 2 0 100 4h1a2 2 0 100-4zm-8 0h-1a2 2 0 100 4h1a2 2 0 100-4zm-8 0h-1a2 2 0 100 4h1a2 2 0 100-4zm-8 0h-1a2 2 0 100 4h1a2 2 0 100-4zm-8 0h-1a2 2 0 100 4h1a2 2 0 100-4zm-8 0h-1a2 2 0 100 4h1a2 2 0 100-4zM6 0v1a2 2 0 104 0V0a2 2 0 10-4 0zm0 8v1a2 2 0 104 0V8a2 2 0 10-4 0zm0 8v1a2 2 0 104 0v-1a2 2 0 10-4 0zm0 8v1a2 2 0 104 0v-1a2 2 0 10-4 0zm0 8v1a2 2 0 104 0v-1a2 2 0 10-4 0zm0 8v1a2 2 0 104 0v-1a2 2 0 10-4 0z" transform="translate(485 28.5)"/>
      <path fill="#3AD787" d="M493 73l-8-16h16z"/>
    </g>
  </g>
</svg>
