<svg xmlns="http://www.w3.org/2000/svg" xmlns:xlink="http://www.w3.org/1999/xlink" width="827" height="168" viewBox="0 0 827 168">
  <defs>
    <linearGradient id="c" x1="0%" x2="100%" y1="0%" y2="100%">
      <stop offset="0%" stop-color="#B4FE67"/>
      <stop offset="100%" stop-color="#FE9A98"/>
    </linearGradient>
    <rect id="a" width="116" height="29" x="0" y="0" rx="6"/>
    <mask id="b" width="116" height="29" x="0" y="0" fill="#fff" maskContentUnits="userSpaceOnUse" maskUnits="objectBoundingBox">
      <use xlink:href="#a"/>
    </mask>
  </defs>
  <g fill="none" fill-rule="evenodd">
    <path stroke="#979797" stroke-linecap="square" stroke-width="2.2" d="M562.8 118v36.2h-99.9"/>
    <path stroke="#979797" stroke-linecap="square" stroke-width="2.2" d="M375 154.6l-110 .1v-27.8"/>
    <path fill="#979797" d="M265 117l5 10h-10z"/>
    <path fill="#79E000" d="M378 60l-10 5V55z"/>
    <path stroke="#79E000" stroke-linecap="square" stroke-width="2.2" d="M367 60.2h-41"/>
    <path fill="#979797" d="M502 78l-10 5V73z"/>
    <path stroke="#979797" stroke-linecap="square" stroke-width="2.2" d="M491.2 78H475"/>
    <path fill="#979797" d="M703 78l-10 5V73z"/>
    <path stroke="#979797" stroke-linecap="square" stroke-width="2.2" d="M692.2 78H687"/>
    <path stroke="#979797" stroke-linecap="square" stroke-width="2.2" d="M629 77.3h-4.8"/>
    <path fill="#FF5D59" d="M378 95l-10 5V90z"/>
    <path stroke="#FF5D59" stroke-linecap="square" stroke-width="2.2" d="M367 95.2h-41"/>
    <path fill="#3AC" d="M203 27l-10 5V22z"/>
    <path stroke="#3AC" stroke-linecap="square" stroke-width="2.2" d="M192 27.2h-41"/>
    <path fill="#3AC" d="M203 61l-10 5V56z"/>
    <path stroke="#3AC" stroke-linecap="square" stroke-width="2.2" d="M192 61.2h-41"/>
    <rect width="117.5" height="73.5" x="25.8" y="8.8" fill="#C3E7F1" stroke="#3AC" stroke-width="3.5" rx="12"/>
    <g transform="translate(505 46)">
      <rect width="113" height="60" x="1.5" y="1.5" fill="#FFF" stroke="#B7B7B7" stroke-width="3" rx="12"/>
      <path fill="#3D4251" fill-rule="nonzero" d="M40 31.6a7.3 7.3 0 01.5 1.2 20.3 20.3 0 01.6-1.2l3.8-7.2.2-.2.1-.2h2.4v13h-2.2v-8.4a10.7 10.7 0 010-1l-3.9 7.3c0 .2-.2.3-.3.4a1 1 0 01-.5.1h-.3a1 1 0 01-.5-.1 1 1 0 01-.4-.4l-4-7.4a8 8 0 010 1V37h-2V24H35.7l.1.2.2.2 3.9 7.2zm14-4a5 5 0 011.9.4 4 4 0 012.3 2.4c.3.6.4 1.2.4 2 0 .7-.1 1.4-.4 2-.2.5-.5 1-.9 1.4a4 4 0 01-1.4 1 5 5 0 01-1.9.3c-.7 0-1.3 0-1.9-.3a4 4 0 01-2.3-2.5c-.3-.5-.4-1.2-.4-2 0-.7.1-1.3.4-2a4 4 0 012.4-2.4c.5-.2 1.1-.3 1.8-.3zm0 7.8c.8 0 1.3-.2 1.7-.7.4-.6.6-1.3.6-2.3a4 4 0 00-.6-2.3c-.4-.5-1-.8-1.7-.8-.8 0-1.4.3-1.7.8-.4.5-.6 1.3-.6 2.3 0 1 .2 1.7.6 2.2.3.6 1 .8 1.7.8zM66.8 37c-.3 0-.5-.1-.6-.4l-.2-.9-.6.6a3.8 3.8 0 01-1.4.7l-1 .1a3 3 0 01-2.4-1.2c-.3-.4-.5-.9-.7-1.5a7.5 7.5 0 010-3.9c.2-.6.5-1.1.8-1.5.4-.5.8-.8 1.3-1 .5-.3 1-.4 1.6-.4a3.2 3.2 0 012.3.9v-4.9h2.3V37h-1.4zm-3-1.6c.5 0 .9-.1 1.2-.3l1-.8V30a2.2 2.2 0 00-1.9-.8c-.3 0-.6 0-.9.2l-.7.5-.4 1-.1 1.4v1.4l.5.9.5.5.8.2zm10.6-7.8c.6 0 1 .1 1.6.3a3.5 3.5 0 012 2.1 5 5 0 01.3 2.2v.3l-.2.1h-6c.1 1 .4 1.7.8 2.1.5.5 1 .7 1.8.7l1-.1.6-.3c.2 0 .4-.2.5-.3h.7l.1.1.7.8c-.3.3-.5.6-.8.7a4.6 4.6 0 01-2 .8h-1a5 5 0 01-1.8-.3 4 4 0 01-1.5-1c-.4-.3-.7-.9-1-1.5a6 6 0 010-3.9c.2-.5.5-1 1-1.4.3-.5.8-.8 1.3-1 .6-.3 1.2-.4 1.9-.4zm0 1.6a2 2 0 00-1.5.6c-.4.3-.6.8-.7 1.5h4.2l-.1-.8-.4-.7-.6-.4a2 2 0 00-.9-.2zm8.1-5.6V37h-2.2V23.6h2.2z"/>
    </g>
    <g transform="translate(704 46)">
      <rect width="113" height="60" x="1.5" y="1.5" fill="#FFF" stroke="#B7B7B7" stroke-width="3" rx="12"/>
      <path fill="#3D4251" fill-rule="nonzero" d="M29.6 28c.5 0 1 0 1.3-.2a2.6 2.6 0 001.5-1.7c.2-.4.2-.8.2-1.3V17H35v7.8a6 6 0 01-.3 2.1 4.9 4.9 0 01-2.8 2.8 6 6 0 01-2.3.4 6 6 0 01-2.2-.4 4.9 4.9 0 01-2.8-2.8 6 6 0 01-.3-2.1V17h2.4v7.8c0 .5 0 1 .2 1.3.1.4.3.8.6 1 .2.3.5.6.9.7.4.2.8.2 1.2.2zm7.8 5V20.8H39l.2.4.2.8 1.3-1a3.5 3.5 0 013 0c.5.1.8.4 1.1.8.3.4.6 1 .7 1.5a7.4 7.4 0 010 4c-.2.5-.4 1-.8 1.5a3.7 3.7 0 01-4.2 1.1l-1-.7V33h-2.2zm4.3-10.6c-.5 0-.9 0-1.2.2l-.9.9v4.1a2.1 2.1 0 001.8.8l.9-.1.7-.6.4-1 .2-1.4-.1-1.4-.4-.9-.6-.5-.8-.1zM54.1 30c-.3 0-.5-.1-.6-.4l-.2-.9-.6.6a3.8 3.8 0 01-1.5.7l-.9.1A3 3 0 0148 29c-.3-.4-.6-.9-.7-1.5a7.5 7.5 0 010-3.9c.2-.6.5-1.1.8-1.5.4-.5.8-.8 1.3-1 .4-.3 1-.4 1.6-.4a3.2 3.2 0 012.3.9v-4.9h2.2V30h-1.3zm-3-1.6c.5 0 .9-.1 1.2-.3l.9-.8V23a2.2 2.2 0 00-1.8-.8c-.3 0-.6 0-.9.2l-.7.5-.4 1-.2 1.4c0 .6 0 1 .2 1.4 0 .4.2.7.3.9l.6.5.8.2zm14 1.6h-1a1 1 0 01-.5 0l-.3-.5-.2-.6a7.6 7.6 0 01-1.4 1l-.8.2a4.6 4.6 0 01-2-.1l-.8-.5-.5-.8c-.2-.3-.2-.6-.2-1s0-.7.2-1c.2-.4.5-.7 1-1 .4-.3 1-.5 1.7-.7a12 12 0 012.6-.3v-.5c0-.7-.1-1.1-.4-1.4-.3-.3-.6-.4-1.1-.4a2.8 2.8 0 00-1.6.4l-.5.2a1 1 0 01-.4.2l-.4-.1a1 1 0 01-.3-.3l-.4-.7c1-1 2.3-1.5 3.8-1.5.6 0 1 0 1.5.3a3 3 0 011.7 1.8l.3 1.5V30zm-4.4-1.4h.7a2.4 2.4 0 001-.5l.5-.5v-1.5l-1.6.1-1 .3-.6.5a1 1 0 00-.2.5c0 .4.1.7.3.9l1 .2zm9.6 1.5c-.8 0-1.4-.2-1.9-.6-.4-.5-.6-1.1-.6-2v-5h-1l-.3-.2V21l1.4-.2.5-2.5.1-.3H70v2.8h2.4v1.6H70v5c0 .3 0 .5.2.7l.6.3.3-.1a2 2 0 00.5-.2H71.9l.1.1.7 1.1c-.3.3-.7.5-1.1.6-.4.2-.9.2-1.3.2zm7.7-9.5c.6 0 1.1.1 1.6.3a3.5 3.5 0 012.1 2.1 5 5 0 01.3 2.2v.3l-.2.1h-6c0 1 .3 1.7.8 2.1.4.5 1 .7 1.7.7l1-.1.7-.3.5-.3H81l.2.1.6.8c-.2.3-.5.6-.8.7a4.6 4.6 0 01-2 .8h-1a5 5 0 01-1.8-.3 4 4 0 01-1.4-1c-.4-.3-.7-.9-1-1.5a6 6 0 010-3.9c.2-.5.5-1 .9-1.4.4-.5.8-.8 1.4-1 .5-.3 1.1-.4 1.8-.4zm0 1.6a2 2 0 00-1.4.6c-.4.3-.6.8-.7 1.5H80v-.8l-.4-.7-.7-.4a2 2 0 00-.8-.2zM90.4 30c-.3 0-.4-.1-.5-.4l-.2-.9-.6.6a3.8 3.8 0 01-1.5.7l-.9.1a3 3 0 01-2.5-1.2c-.3-.4-.5-.9-.7-1.5a7.5 7.5 0 010-3.9c.3-.6.5-1.1.9-1.5.3-.5.7-.8 1.2-1 .5-.3 1-.4 1.7-.4a3.2 3.2 0 012.3.9v-4.9h2.2V30h-1.4zm-3-1.6c.5 0 1-.1 1.3-.3l.9-.8V23a2.2 2.2 0 00-1.8-.8c-.3 0-.7 0-1 .2l-.6.5-.5 1-.1 1.4.1 1.4c.1.4.2.7.4.9l.6.5.8.2zM40 42.6a7.3 7.3 0 01.5 1.2 20.3 20.3 0 01.6-1.2l3.8-7.2.2-.2.1-.2h2.4v13h-2.2v-8.4a10.7 10.7 0 010-1l-3.9 7.3c0 .2-.2.3-.3.4a1 1 0 01-.5.1h-.3a1 1 0 01-.5-.1 1 1 0 01-.4-.4l-4-7.4a8 8 0 010 1V48h-2V35H35.7l.1.2.2.2 3.9 7.2zm14-4a5 5 0 011.9.4 4 4 0 012.3 2.4c.3.6.4 1.2.4 2 0 .7-.1 1.4-.4 2-.2.5-.5 1-.9 1.4a4 4 0 01-1.4 1 5 5 0 01-1.9.3c-.7 0-1.3 0-1.9-.3a4 4 0 01-2.3-2.5c-.3-.5-.4-1.2-.4-2 0-.7.1-1.3.4-2a4 4 0 012.4-2.4c.5-.2 1.1-.3 1.8-.3zm0 7.8c.8 0 1.3-.2 1.7-.7.4-.6.6-1.3.6-2.3a4 4 0 00-.6-2.3c-.4-.5-1-.8-1.7-.8-.8 0-1.4.3-1.7.8-.4.5-.6 1.3-.6 2.3 0 1 .2 1.7.6 2.2.3.6 1 .8 1.7.8zM66.8 48c-.3 0-.5-.1-.6-.4l-.2-.9-.6.6a3.8 3.8 0 01-1.4.7l-1 .1a3 3 0 01-2.4-1.2c-.3-.4-.5-.9-.7-1.5a7.5 7.5 0 010-3.9c.2-.6.5-1.1.8-1.5.4-.5.8-.8 1.3-1 .5-.3 1-.4 1.6-.4a3.2 3.2 0 012.3.9v-4.9h2.3V48h-1.4zm-3-1.6c.5 0 .9-.1 1.2-.3l1-.8V41a2.2 2.2 0 00-1.9-.8c-.3 0-.6 0-.9.2l-.7.5-.4 1-.1 1.4v1.4l.5.9.5.5.8.2zm10.6-7.8c.6 0 1 .1 1.6.3a3.5 3.5 0 012 2.1 5 5 0 01.3 2.2v.3l-.2.1h-6c.1 1 .4 1.7.8 2.1.5.5 1 .7 1.8.7l1-.1.6-.3c.2 0 .4-.2.5-.3h.7l.1.1.7.8c-.3.3-.5.6-.8.7a4.6 4.6 0 01-2 .8h-1a5 5 0 01-1.8-.3 4 4 0 01-1.5-1c-.4-.3-.7-.9-1-1.5a6 6 0 010-3.9c.2-.5.5-1 1-1.4.3-.5.8-.8 1.3-1 .6-.3 1.2-.4 1.9-.4zm0 1.6a2 2 0 00-1.5.6c-.4.3-.6.8-.7 1.5h4.2l-.1-.8-.4-.7-.6-.4a2 2 0 00-.9-.2zm8.1-5.6V48h-2.2V34.6h2.2z"/>
    </g>
    <g transform="translate(207 12)">
      <rect width="113.5" height="26.5" x="1.3" y="1.3" fill="#C3E7F1" stroke="#3AC" stroke-width="2.5" rx="6"/>
      <path fill="#3D4251" fill-rule="nonzero" d="M50 8v2h-4v11h-2.4V10h-3.9V8H50zm5.2 3.6c.6 0 1.1.1 1.6.3A3.5 3.5 0 0159 14a5 5 0 01.3 2.2l-.1.3-.2.1H53c0 1 .3 1.7.7 2.1.5.5 1 .7 1.8.7l1-.1.6-.3c.2 0 .4-.2.5-.3h.7l.2.1.6.8c-.2.3-.5.6-.8.7a4.6 4.6 0 01-2 .8h-1a5 5 0 01-1.8-.3 4 4 0 01-1.4-1c-.4-.3-.7-.9-1-1.5a6 6 0 010-3.9c.2-.5.5-1 .9-1.4.3-.5.8-.8 1.3-1 .6-.3 1.2-.4 2-.4zm0 1.6a2 2 0 00-1.5.6c-.3.3-.6.8-.7 1.5h4.2l-.1-.8-.4-.7c-.1-.2-.3-.3-.6-.4a2 2 0 00-.8-.2zm8 3l-3-4.4h2.5l.2.3 2 3a2.5 2.5 0 01.2-.6l1.5-2.4.3-.3h2.3l-3 4.3 3.1 4.9h-2.1l-.4-.1-.3-.3-2-3.2-.1.5-1.8 2.7-.2.3-.4.1h-2l3.2-4.8zm10.6 5c-.8 0-1.4-.3-1.9-.7-.4-.5-.6-1.1-.6-2v-5h-1l-.3-.2-.1-.3v-1l1.5-.2.4-2.5.2-.3h1.5v2.8h2.4v1.6h-2.4v5c0 .3 0 .5.2.7.2.2.3.3.6.3l.3-.1a2 2 0 00.5-.2H75.4l.1.1.7 1.1c-.3.3-.7.5-1.1.6-.5.2-.9.2-1.3.2z"/>
    </g>
    <g transform="translate(207 46)">
      <rect width="113.5" height="26.5" x="1.3" y="1.3" fill="#C3E7F1" stroke="#3AC" stroke-width="2.5" rx="6"/>
      <path fill="#3D4251" fill-rule="nonzero" d="M40 19h5.2v2h-7.6V8H40v11zm14 2h-1a1 1 0 01-.5 0l-.3-.5-.2-.6a7.6 7.6 0 01-1.4 1l-.7.2a4.6 4.6 0 01-2-.1l-.9-.5-.5-.8-.2-1c0-.4 0-.7.3-1 .1-.4.5-.7.9-1 .4-.3 1-.5 1.7-.7a12 12 0 012.6-.3v-.5c0-.7-.1-1.1-.4-1.4-.2-.3-.6-.5-1.1-.5a2.8 2.8 0 00-1.5.5l-.5.2a1 1 0 01-.5.2l-.4-.1a1 1 0 01-.3-.3l-.4-.7c1-1 2.4-1.5 3.9-1.5.5 0 1 0 1.4.3a3 3 0 011.8 1.8l.2 1.5V21zm-4.3-1.4h.6a2.4 2.4 0 001-.5l.5-.5v-1.5l-1.6.1-1 .3-.6.5a1 1 0 00-.2.5c0 .4.1.7.4.9l.9.2zm6.5 1.4V7.6h2.2V13l1.3-1a3.6 3.6 0 013 0c.4.2.7.5 1 1 .3.3.6.8.7 1.4a7.4 7.4 0 010 4c-.2.5-.4 1-.8 1.5a3.7 3.7 0 01-2.9 1.3 3.3 3.3 0 01-1.4-.3c-.2 0-.4-.2-.5-.4l-.5-.5v.7l-.3.3-.3.1h-1.5zm4.3-7.7l-1.2.3-.9.9v4.1a2.1 2.1 0 001.8.8l1-.1.6-.6.4-1c.2-.4.2-.9.2-1.4l-.1-1.4-.4-.9-.6-.5-.8-.2zm9.7-1.7c.6 0 1.2.1 1.7.3a3.5 3.5 0 012 2.1 5 5 0 01.3 2.2v.3l-.2.1h-6c0 1 .3 1.7.8 2.1.4.5 1 .7 1.8.7l.9-.1.7-.3c.2 0 .3-.2.5-.3H73.3l.2.1.7.8c-.3.3-.6.6-.9.7a4.6 4.6 0 01-2 .8h-1a5 5 0 01-1.7-.3 4 4 0 01-1.5-1c-.4-.3-.7-.9-1-1.5a6 6 0 010-3.9c.2-.5.5-1 .9-1.4.4-.5.8-.8 1.4-1 .5-.3 1.2-.4 1.8-.4zm0 1.6a2 2 0 00-1.4.6c-.4.3-.6.8-.7 1.5h4.1v-.8l-.4-.7-.6-.4a2 2 0 00-1-.2zm8.2-5.6V21h-2.2V7.6h2.2z"/>
    </g>
    <g transform="translate(207 80)">
      <use stroke="#3AC" stroke-dasharray="3 3" stroke-width="5" mask="url(#b)" xlink:href="#a"/>
      <path fill="#3D4251" fill-rule="nonzero" d="M40 19h5.2v2h-7.6V8H40v11zm14 2h-1a1 1 0 01-.5 0l-.3-.5-.2-.6a7.6 7.6 0 01-1.4 1l-.7.2a4.6 4.6 0 01-2-.1l-.9-.5-.5-.8-.2-1c0-.4 0-.7.3-1 .1-.4.5-.7.9-1 .4-.3 1-.5 1.7-.7a12 12 0 012.6-.3v-.5c0-.7-.1-1.1-.4-1.4-.2-.3-.6-.5-1.1-.5a2.8 2.8 0 00-1.5.5l-.5.2a1 1 0 01-.5.2l-.4-.1a1 1 0 01-.3-.3l-.4-.7c1-1 2.4-1.5 3.9-1.5.5 0 1 0 1.4.3a3 3 0 011.8 1.8l.2 1.5V21zm-4.3-1.4h.6a2.4 2.4 0 001-.5l.5-.5v-1.5l-1.6.1-1 .3-.6.5a1 1 0 00-.2.5c0 .4.1.7.4.9l.9.2zm6.5 1.4V7.6h2.2V13l1.3-1a3.6 3.6 0 013 0c.4.2.7.5 1 1 .3.3.6.8.7 1.4a7.4 7.4 0 010 4c-.2.5-.4 1-.8 1.5a3.7 3.7 0 01-2.9 1.3 3.3 3.3 0 01-1.4-.3c-.2 0-.4-.2-.5-.4l-.5-.5v.7l-.3.3-.3.1h-1.5zm4.3-7.7l-1.2.3-.9.9v4.1a2.1 2.1 0 001.8.8l1-.1.6-.6.4-1c.2-.4.2-.9.2-1.4l-.1-1.4-.4-.9-.6-.5-.8-.2zm9.7-1.7c.6 0 1.2.1 1.7.3a3.5 3.5 0 012 2.1 5 5 0 01.3 2.2v.3l-.2.1h-6c0 1 .3 1.7.8 2.1.4.5 1 .7 1.8.7l.9-.1.7-.3c.2 0 .3-.2.5-.3H73.3l.2.1.7.8c-.3.3-.6.6-.9.7a4.6 4.6 0 01-2 .8h-1a5 5 0 01-1.7-.3 4 4 0 01-1.5-1c-.4-.3-.7-.9-1-1.5a6 6 0 010-3.9c.2-.5.5-1 .9-1.4.4-.5.8-.8 1.4-1 .5-.3 1.2-.4 1.8-.4zm0 1.6a2 2 0 00-1.4.6c-.4.3-.6.8-.7 1.5h4.1v-.8l-.4-.7-.6-.4a2 2 0 00-1-.2zm8.2-5.6V21h-2.2V7.6h2.2z"/>
    </g>
    <path fill="#3D4251" fill-rule="nonzero" d="M61.5 31v2h-4v11h-2.4V33h-3.9v-2h10.3zm1.4 13v-9.2h1.8l.1.5.2 1.1c.3-.5.7-1 1.1-1.3.5-.3 1-.5 1.5-.5s.9.1 1.2.3l-.3 1.7-.1.2H68h-1c-.4 0-.8 0-1.2.3a3 3 0 00-.8 1.1V44H63zm14.6 0h-1a1 1 0 01-.5 0l-.3-.5-.2-.6a7.6 7.6 0 01-1.4 1l-.7.2a4.6 4.6 0 01-2-.1l-.9-.5-.5-.8c-.2-.3-.2-.6-.2-1s0-.7.3-1c.1-.4.4-.7.9-1 .4-.3 1-.5 1.7-.7a12 12 0 012.6-.3v-.5c0-.7-.1-1.1-.4-1.4-.2-.3-.6-.4-1.1-.4a2.8 2.8 0 00-1.5.4l-.5.2a1 1 0 01-.5.2l-.4-.1a1 1 0 01-.3-.3l-.4-.7c1-1 2.4-1.5 3.9-1.5.5 0 1 0 1.4.3a3 3 0 011.7 1.8l.3 1.5V44zm-4.3-1.4h.6a2.4 2.4 0 001-.5l.5-.5v-1.5l-1.6.1-1 .3-.6.5a1 1 0 00-.2.5c0 .4.1.7.4.9l.9.2zm8.8-7.8V44h-2.2v-9.2H82zm.4-2.7c0 .2 0 .3-.2.5a1.5 1.5 0 01-.7.8 1.4 1.4 0 01-1.6-.3c0-.2-.2-.3-.3-.5v-.5a1.4 1.4 0 01.3-1 1.4 1.4 0 011-.4h.6a1.5 1.5 0 01.7.8l.2.6zM84.5 44v-9.2H86c.3 0 .5.1.6.4l.1.7a5 5 0 011.3-1 3.3 3.3 0 011.6-.3c.5 0 1 .1 1.3.3.4.1.7.4 1 .7.3.3.4.7.6 1.1l.2 1.4V44h-2.2v-5.9c0-.5-.2-1-.4-1.3-.3-.3-.7-.4-1.2-.4-.4 0-.7 0-1 .2l-1 .7V44h-2.3zm12.6-9.2V44H95v-9.2h2.2zm.4-2.7l-.1.5a1.5 1.5 0 01-.8.8A1.4 1.4 0 0195 33c0-.2-.2-.3-.3-.5v-.5a1.4 1.4 0 01.3-1 1.4 1.4 0 011-.4h.6a1.5 1.5 0 01.8.8v.6zM99.7 44v-9.2h1.3c.3 0 .5.1.6.4l.1.7a5 5 0 011.3-1 3.3 3.3 0 011.6-.3c.5 0 1 .1 1.3.3.4.1.7.4 1 .7.3.3.5.7.6 1.1l.2 1.4V44h-2.2v-5.9c0-.5-.2-1-.4-1.3-.3-.3-.7-.4-1.2-.4-.4 0-.7 0-1 .2l-1 .7V44h-2.2zm13.4-9.4l1.1.1 1 .4h2.6v.8l-.1.3-.4.2-.8.1a2.9 2.9 0 01.2 1 2.7 2.7 0 01-1 2.3l-1.2.6a4.7 4.7 0 01-2.4 0c-.3.3-.5.4-.5.7 0 .2.1.3.3.4l.7.2h1a19.8 19.8 0 012 .2c.4.1.8.2 1 .4l.7.7c.2.2.3.6.3 1l-.3 1.2c-.2.4-.5.7-.9 1-.4.4-.9.6-1.4.8a7.3 7.3 0 01-3.7 0c-.5 0-1-.3-1.3-.5l-.8-.8-.2-.9c0-.4.1-.8.4-1 .2-.4.6-.6 1-.8l-.5-.5-.2-.8v-.4l.3-.5.4-.4.5-.3a2.7 2.7 0 01-1.5-2.5 2.7 2.7 0 011-2.2l1.2-.6a5 5 0 011.5-.2zm2.4 9.8l-.1-.4a1 1 0 00-.5-.3l-.6-.1a12 12 0 00-1.7-.1l-.9-.1a2 2 0 00-.6.5 1 1 0 00-.2.6l.1.5.4.3.7.3h2.1c.3 0 .6-.2.8-.3l.4-.4.1-.5zm-2.4-5.2c.3 0 .5 0 .7-.2.2 0 .4-.1.5-.3l.3-.4.1-.7c0-.4-.1-.8-.4-1-.3-.3-.7-.4-1.2-.4-.6 0-1 0-1.2.4-.3.2-.5.6-.5 1l.1.6a1.3 1.3 0 00.9.8l.7.2zM74 62c-.2 0-.4-.1-.5-.4l-.2-.9-.6.6a3.8 3.8 0 01-1.5.7l-.9.1A3 3 0 0168 61c-.3-.4-.6-.9-.7-1.5a7.5 7.5 0 010-3.9c.2-.6.4-1.1.8-1.5.3-.5.8-.8 1.2-1 .5-.3 1-.4 1.7-.4a3.2 3.2 0 012.3.9v-4.9h2.2V62h-1.3zm-3-1.6c.6 0 1-.1 1.3-.3l.9-.8V55a2.2 2.2 0 00-1.8-.8c-.3 0-.6 0-1 .2l-.6.5-.4 1-.2 1.4.1 1.4c.1.4.2.7.4.9l.6.5.8.2zm14 1.6h-1a1 1 0 01-.4 0c-.2-.2-.3-.3-.3-.5l-.2-.6a7.6 7.6 0 01-1.4 1l-.8.2a4.6 4.6 0 01-2-.1l-.8-.5-.5-.8c-.2-.3-.2-.6-.2-1s0-.7.2-1c.2-.4.5-.7 1-1 .4-.3 1-.5 1.6-.7a12 12 0 012.7-.3v-.5c0-.7-.2-1.1-.4-1.4-.3-.3-.7-.4-1.2-.4a2.8 2.8 0 00-1.5.4l-.5.2a1 1 0 01-.5.2l-.3-.1a1 1 0 01-.3-.3l-.4-.7c1-1 2.3-1.5 3.8-1.5.6 0 1 0 1.5.3a3 3 0 011.7 1.8c.2.5.2 1 .2 1.5V62zm-4.3-1.4h.7a2.4 2.4 0 001-.5l.5-.5v-1.5l-1.6.1-1 .3-.7.5a1 1 0 00-.1.5c0 .4 0 .7.3.9l1 .2zm9.6 1.5c-.8 0-1.4-.2-1.9-.6-.4-.5-.6-1.1-.6-2v-5h-1l-.3-.2-.1-.3v-1l1.5-.2.5-2.5.1-.3h1.5v2.8h2.4v1.6h-2.4v5c0 .3 0 .5.2.7.2.2.3.3.6.3l.3-.1a2 2 0 00.5-.2H92l.1.1.7 1.1c-.3.3-.7.5-1.1.6-.4.2-.9.2-1.3.2zm11.1-.1h-1a1 1 0 01-.5 0l-.2-.5-.2-.6a7.6 7.6 0 01-1.4 1l-.8.2a4.6 4.6 0 01-2-.1l-.8-.5-.6-.8-.2-1c0-.4.1-.7.3-1 .2-.4.5-.7 1-1 .4-.3 1-.5 1.6-.7a12 12 0 012.7-.3v-.5c0-.7-.2-1.1-.4-1.4-.3-.3-.7-.4-1.2-.4a2.8 2.8 0 00-1.5.4l-.5.2a1 1 0 01-.5.2L95 55a1 1 0 01-.2-.3l-.4-.7c1-1 2.3-1.5 3.8-1.5.6 0 1 0 1.5.3a3 3 0 011.7 1.8c.2.5.2 1 .2 1.5V62zm-4.3-1.4h.6a2.4 2.4 0 001-.5l.6-.5v-1.5l-1.7.1-1 .3-.6.5a1 1 0 00-.1.5c0 .4 0 .7.3.9l1 .2z"/>
    <path fill="url(#c)" d="M384.1 42.1h73v73h-73z" transform="rotate(45 420.6 78.6)"/>
    <path fill="#3D4251" fill-rule="nonzero" d="M393.4 80.2a6 6 0 002.6-.5v-2.4h-1.6l-.4-.1-.1-.4v-1.3h4.3v5.2a7.2 7.2 0 01-3.5 1.4h-1.5c-1 0-1.8-.1-2.6-.5a6.2 6.2 0 01-3.4-3.4c-.4-.9-.5-1.7-.5-2.7 0-1 .1-1.9.5-2.7a6 6 0 013.4-3.5c.9-.3 1.8-.5 2.9-.5 1 0 2 .2 2.7.5.8.3 1.4.7 2 1.2l-.7 1.1c-.2.3-.3.4-.6.4-.1 0-.3 0-.4-.2a34.3 34.3 0 00-1.3-.6 5.4 5.4 0 00-3.6 0c-.5.2-1 .6-1.3 1-.4.4-.6.8-.8 1.4-.2.6-.3 1.2-.3 1.9s0 1.4.3 2c.2.6.5 1 .9 1.5.3.4.8.7 1.3.9.5.2 1.1.3 1.7.3zm7 1.8v-9.2h1.7l.2.5.1 1.1c.4-.5.7-1 1.2-1.3.4-.3 1-.5 1.5-.5.4 0 .8.1 1.1.3l-.3 1.7v.2H404.5c-.5 0-.9 0-1.2.3a3 3 0 00-.8 1.1V82h-2.3zm14.5 0h-1a1 1 0 01-.5 0l-.2-.5-.2-.6a7.6 7.6 0 01-1.4 1l-.8.2a4.6 4.6 0 01-2-.1l-.8-.5c-.3-.2-.4-.5-.6-.8l-.2-1c0-.4.1-.7.3-1 .2-.4.5-.7 1-1 .3-.3.9-.5 1.6-.7a12 12 0 012.6-.3v-.5c0-.7 0-1.1-.3-1.4-.3-.3-.7-.5-1.2-.5a2.8 2.8 0 00-1.5.5l-.5.2a1 1 0 01-.5.2l-.4-.1a1 1 0 01-.2-.3l-.4-.7c1-1 2.3-1.5 3.8-1.5.5 0 1 0 1.4.3a3 3 0 011.8 1.8l.2 1.5V82zm-4.3-1.4h.6a2.4 2.4 0 001-.5l.5-.5v-1.5l-1.6.1-1 .3-.6.5a1 1 0 00-.2.5c0 .4.2.7.4.9l.9.2zm13 1.4c-.3 0-.5-.1-.6-.4l-.1-.9-.6.6a3.8 3.8 0 01-1.5.7l-1 .1a3 3 0 01-2.4-1.2c-.3-.4-.5-.9-.7-1.5a7.5 7.5 0 010-3.9c.2-.6.5-1.1.8-1.5.4-.5.8-.8 1.3-1 .5-.3 1-.4 1.6-.4a3.2 3.2 0 012.3.9v-4.9h2.3V82h-1.4zm-3-1.6c.5 0 .9-.1 1.2-.3l1-.8V75a2.2 2.2 0 00-1.8-.8c-.4 0-.7 0-1 .2l-.7.5-.4 1-.1 1.4v1.4l.5.9c.1.2.3.4.6.5l.7.2zm9.1-7.6V82h-2.2v-9.2h2.2zm.4-2.7c0 .2 0 .3-.2.5a1.5 1.5 0 01-.7.8 1.4 1.4 0 01-1.6-.3c0-.2-.2-.3-.3-.5v-.5a1.4 1.4 0 01.3-1 1.4 1.4 0 011-.4h.6a1.5 1.5 0 01.7.8l.2.6zm6 2.5l1.6.3a3.5 3.5 0 012 2.1 5 5 0 01.3 2.2v.3l-.2.1h-6c.1 1 .4 1.7.8 2.2.4.4 1 .6 1.8.6l.9-.1c.3 0 .5-.2.7-.3.2 0 .3-.2.5-.3h.7l.1.1.7.8c-.3.3-.5.6-.9.7a4.6 4.6 0 01-2 .8h-1a5 5 0 01-1.7-.3 4 4 0 01-1.5-1c-.4-.3-.7-.9-1-1.5a6 6 0 010-3.9c.2-.5.5-1 .9-1.4.4-.5.9-.8 1.4-1 .5-.3 1.2-.4 1.9-.4zm0 1.6a2 2 0 00-1.5.6c-.4.3-.6.8-.7 1.5h4.2c0-.3 0-.5-.2-.8l-.3-.7-.6-.4a2 2 0 00-.9-.2zm5.8 7.8v-9.2h1.3c.3 0 .5.1.6.4l.1.7a5 5 0 011.3-1 3.3 3.3 0 011.6-.3c.5 0 1 .1 1.3.3.4.1.8.4 1 .7.3.3.5.7.6 1.1l.2 1.4V82h-2.2v-5.9c0-.5-.1-1-.4-1.3-.3-.3-.7-.5-1.2-.5-.4 0-.7.1-1 .3l-1 .7V82h-2.2zm13.2.1c-.8 0-1.4-.2-1.8-.6-.4-.5-.7-1.1-.7-2v-5h-.9l-.3-.2-.1-.3v-1l1.4-.2.5-2.5c0-.1 0-.2.2-.3h1.5v2.8h2.4v1.6h-2.4v5c0 .3 0 .5.2.7.1.2.3.3.6.3l.3-.1a2 2 0 00.4-.2H456.7l.2.1.7 1.1c-.4.3-.7.5-1.2.6-.4.2-.8.2-1.3.2z"/>
    <rect width="80" height="18" x="378" y="145" fill="#37BBAB" rx="9"/>
    <g transform="translate(631 69)">
      <rect width="52" height="18" x="1" fill="#37BBAB" rx="9"/>
      <path fill="#FFF" fill-rule="nonzero" d="M13.6 5.5c0 .2 0 .2-.2.3H12.8a12.2 12.2 0 00-1.1-.6l-.9-.1H10l-.5.4c-.2 0-.3.2-.4.4v.6c0 .3 0 .5.2.7l.6.5.8.3a41.9 41.9 0 012 .7l.8.6a2.6 2.6 0 01.9 2c0 .6-.1 1-.3 1.5a3.4 3.4 0 01-2 2c-.5.2-1.1.3-1.7.3a5.5 5.5 0 01-3.8-1.5l.6-1 .2-.2H8a13 13 0 001.3.8l1 .2c.6 0 1.1-.2 1.4-.5.4-.3.5-.7.5-1.2 0-.3 0-.6-.2-.8-.1-.2-.3-.3-.6-.4l-.8-.4a28.4 28.4 0 01-2-.7L8 9l-.7-1A3.4 3.4 0 018 4.4a4.3 4.3 0 012.8-1c.7 0 1.3.1 1.9.3.6.2 1 .5 1.5 1l-.6 1zM26.2 15h-1.7a.7.7 0 01-.7-.5l-.9-2.3h-4.8l-.8 2.3a.8.8 0 01-.7.5h-1.7l4.5-11.6h2.2L26.2 15zm-7.5-4.4h3.7L21 6.8a17.6 17.6 0 01-.5-1.4 26.7 26.7 0 01-.4 1.4l-1.4 3.8zm7.5-7.2H28a.7.7 0 01.7.5l2.7 7a9.5 9.5 0 01.5 1.7l.5-1.6L35 4l.2-.4.5-.2h1.7L33 15h-2L26.2 3.4zm19.8 0v1.7h-5v3.3h4V10h-4v3.3h5V15h-7.3V3.4H46z"/>
    </g>
    <path fill="#FFF" fill-rule="nonzero" d="M389 156v4h-2.2v-11.6h3.8c.7 0 1.4.1 2 .3.5.2 1 .4 1.4.8l.8 1.1.3 1.5c0 .6-.1 1-.3 1.6l-.9 1.2a4 4 0 01-1.4.7c-.5.2-1.2.3-2 .3H389zm0-1.8h1.6l1-.1.7-.4.5-.7a2.6 2.6 0 000-1.7l-.5-.7a2 2 0 00-.7-.4l-1-.1H389v4.1zm10 1.3v4.5h-2.2v-11.6h3.5c.8 0 1.5.1 2 .3.6.1 1 .4 1.4.7.4.3.7.6.8 1a3.5 3.5 0 01-.4 3.4l-.8.8-1 .5.6.6 3 4.3h-2a1 1 0 01-.5-.1 1 1 0 01-.3-.3l-2.4-3.7-.3-.3a1 1 0 00-.5-.1h-1zm0-1.6h1.3l1-.1.8-.4.4-.7.2-.8c0-.6-.2-1-.6-1.3-.4-.3-1-.5-1.8-.5H399v3.8zm15.5-5.5v1.7h-5.1v3.3h4v1.6h-4v3.3h5.1v1.7h-7.3v-11.6h7.3zm12.1 5.8c0 .9-.1 1.6-.4 2.4a5.4 5.4 0 01-3 3c-.7.3-1.5.4-2.4.4h-4.4v-11.6h4.4c.9 0 1.7.2 2.4.5a5.4 5.4 0 013 3c.3.7.4 1.5.4 2.3zm-2.2 0c0-.6 0-1.2-.2-1.7s-.4-1-.7-1.3c-.4-.3-.7-.6-1.2-.8a4 4 0 00-1.5-.3h-2.3v8.2h2.3c.6 0 1-.1 1.5-.3.5-.2.8-.4 1.2-.8.3-.3.5-.8.7-1.3.2-.5.2-1 .2-1.7zm6.4 5.8h-2.2v-11.6h2.2V160zm10.5-2.7l.3.1.9 1c-.5.5-1 1-1.8 1.3a6 6 0 01-2.4.4 5.1 5.1 0 01-5.2-3.5 7 7 0 010-4.8 5.5 5.5 0 013.1-3 6.4 6.4 0 014.7 0c.6.2 1.2.6 1.6 1l-.7 1-.2.2h-.2l-.4-.1a4.7 4.7 0 00-1.2-.6l-1.2-.2-1.5.3c-.5.2-.8.5-1.2.8-.3.4-.6.8-.7 1.3a5 5 0 00-.3 1.7c0 .7 0 1.2.3 1.8.1.5.4.9.7 1.2.3.4.7.6 1.1.8.4.2 1 .3 1.4.3h.8a3.4 3.4 0 001.2-.5c.2 0 .4-.2.5-.4h.2l.2-.1zm11-8.9v1.8h-3.5v9.8h-2.2v-9.8h-3.5v-1.8h9.1z"/>
  </g>
</svg>
