<svg xmlns="http://www.w3.org/2000/svg" width="584" height="348" viewBox="0 0 584 348">
  <g fill="none" fill-rule="evenodd">
    <g transform="translate(7 8)">
      <rect width="554" height="106" x="2.5" y="2.5" fill="#C3E7F1" stroke="#3AC" stroke-width="5" rx="15"/>
      <path fill="#3AC" stroke="#3AC" stroke-width="5" d="M58.5 108.5V2.5H16C8.5 2.5 2.5 8.5 2.5 16v79c0 7.5 6 13.5 13.5 13.5h42.5z"/>
      <g transform="translate(82 13)">
        <rect width="102" height="65" x="1.5" y="9.5" fill="#FFF" stroke="#6A6A6A" stroke-width="3" rx="12"/>
        <path fill="#3D4251" fill-rule="nonzero" d="M53.9 44h-2.8V29.5h2.8z"/>
        <path fill="#3D4251" fill-rule="nonzero" d="M36.7 55.3a13.2 13.2 0 014.2-.1c.5 0 1 .2 1.3.5.4.2.7.5 1 1 .2.4.3 1 .3 1.6 0 .6 0 1.1-.3 1.5a3 3 0 01-.8 1c-.4.4-.8.6-1.2.7l-1.5.2h-.2a7.7 7.7 0 01-.9 0V65h-1.9v-9.7zm2.9 1.4a6.4 6.4 0 00-1 0V60h.2a3.5 3.5 0 00.5 0H40.2l.7-.3.4-.5c.2-.3.2-.6.2-1l-.1-.7-.5-.5-.6-.2h-.7zm5.4-1.4a17.2 17.2 0 012.8-.2H49l1.2.5a2.4 2.4 0 011.2 2.3c0 .4 0 .7-.2 1 0 .3-.1.6-.3.8l-.5.6-.6.4 2.3 4.3H50l-2-3.8H47V65h-2v-9.7zm3 1.5a12 12 0 00-1.1 0v2.9h.7c.6 0 1-.1 1.3-.4.4-.2.5-.6.5-1.2 0-.4 0-.7-.3-1-.3-.2-.7-.3-1.2-.3zm5 3.3c0-.8 0-1.5.2-2.1.2-.7.4-1.2.7-1.6.3-.5.7-.8 1.2-1 .4-.3 1-.4 1.6-.4.7 0 1.2.1 1.7.4.5.2.9.6 1.1 1 .3.5.6 1 .7 1.6l.2 2.1c0 1.6-.3 2.8-1 3.7-.5 1-1.5 1.4-2.7 1.4-.7 0-1.2-.1-1.7-.4-.5-.2-.9-.6-1.2-1-.3-.5-.5-1-.6-1.6A10 10 0 0153 60zm2 0v1.3l.3 1.1.5.7c.2.2.5.3.9.3.3 0 .6 0 .8-.2l.5-.6c.2-.3.3-.7.3-1.1a12.7 12.7 0 00-.2-3.9l-.5-.7c-.2-.2-.5-.3-.9-.3-.7 0-1.1.3-1.3.9A7 7 0 0055 60zm8.5-.9V65h-1.8v-9.8h1.7l3.4 6-.1-1.2v-4.8h1.8V65h-1.7l-3.3-5.8z"/>
        <g transform="translate(28)">
          <rect width="48" height="20" fill="#6A6A6A" rx="4"/>
          <path fill="#FFF" fill-rule="nonzero" d="M13.3 4.6V6h-2.9v8H8.7V6H5.8V4.6h7.5zM17 7.2c.5 0 1 .1 1.4.3a3 3 0 011.7 1.7l.2 1.5c0 .5 0 1-.2 1.4a2.9 2.9 0 01-1.7 1.8L17 14c-.5 0-1 0-1.3-.2A3 3 0 0114 12a4 4 0 01-.3-1.4c0-.6 0-1 .3-1.5.1-.4.3-.8.6-1a3 3 0 011-.7l1.4-.3zm0 5.7c.6 0 1-.2 1.3-.6.2-.4.4-1 .4-1.6 0-.8-.2-1.3-.4-1.7-.3-.4-.7-.5-1.3-.5-.5 0-1 .1-1.2.5-.3.4-.4 1-.4 1.7s.1 1.2.4 1.6c.2.4.7.6 1.2.6zm6.2-8.6V10h.5l.2-.2 1.7-2c0-.2.1-.2.2-.3H27.7l-2 2.4-.3.3-.2.2.2.2.2.3 2.2 3.2h-1.7l-.3-.3-1.7-2.5c0-.1 0-.2-.2-.2H23.3v3h-1.6V4.3h1.6zm8.3 3l1.2.1A2.5 2.5 0 0134.3 9a3.6 3.6 0 01.2 1.6l-.1.1-.1.1H30c0 .8.2 1.3.5 1.6.4.3.8.5 1.3.5l.7-.1.5-.2.4-.2.3-.1h.1l.2.1.4.6-.6.5a3.4 3.4 0 01-1.4.5l-.7.1c-.5 0-1 0-1.3-.2-.4-.2-.8-.4-1-.7-.4-.3-.6-.7-.8-1.1a4.3 4.3 0 010-2.9l.6-1a3 3 0 011-.7c.4-.2.9-.3 1.4-.3zm0 1c-.4 0-.8.2-1 .5a2 2 0 00-.6 1.1h3v-.6l-.3-.5-.5-.3-.6-.1zm4.2 5.7V7.3h1c.2 0 .3.1.4.3v.6a3.7 3.7 0 011-.7 2.4 2.4 0 011.1-.3c.4 0 .7 0 1 .2l.7.5c.2.3.4.5.4.8l.2 1V14H40V9.8c0-.5-.1-.8-.3-1-.2-.2-.5-.3-.8-.3-.3 0-.6 0-.8.2-.3 0-.5.3-.7.5V14h-1.6z"/>
        </g>
      </g>
      <g transform="translate(257 16)">
        <rect width="102" height="65" x="1.5" y="9.5" fill="#FFF" stroke="#6A6A6A" stroke-width="3" rx="12"/>
        <path fill="#3D4251" fill-rule="nonzero" d="M37.4 29.1V44h-2.5V29.1h2.5zm7.1 4.5c.8 0 1.5.1 2.1.4a4.5 4.5 0 012.6 2.7 6.3 6.3 0 010 4.4c-.2.6-.5 1.2-1 1.6-.4.5-1 .8-1.6 1a5.7 5.7 0 01-4.2 0 4.5 4.5 0 01-2.6-2.7c-.2-.6-.3-1.3-.3-2.1 0-.9 0-1.6.3-2.2l1-1.7c.5-.5 1-.8 1.7-1 .6-.3 1.3-.4 2-.4zm0 8.6c.9 0 1.5-.2 2-.8.4-.6.6-1.4.6-2.5s-.2-2-.7-2.6c-.4-.5-1-.8-1.9-.8-.8 0-1.5.3-1.9.8-.4.6-.6 1.5-.6 2.6 0 1 .2 2 .6 2.5.4.6 1 .9 2 .9zM56.7 44h-2.3l-4-10.3h2c.2 0 .3 0 .5.2l.2.3 2 5.5a10.3 10.3 0 01.5 1.8 18.2 18.2 0 01.5-1.8l2-5.5.3-.3.4-.2h2L56.6 44zm9.7-10.4a5 5 0 011.8.3 4 4 0 012.4 2.4 5.5 5.5 0 01.3 2.4l-.1.3-.2.1H64c0 1.1.3 2 .8 2.4.5.5 1.2.7 2 .7l1-.1c.3 0 .6-.2.8-.3l.6-.3.4-.2.3.1.2.2.7.9-1 .8a5.2 5.2 0 01-2.1.8 8 8 0 01-1.1 0c-.7 0-1.4 0-2-.3-.6-.2-1.2-.6-1.6-1a5 5 0 01-1-1.8 6.7 6.7 0 01-.1-4.3c.2-.6.5-1.2 1-1.6.4-.5.9-.9 1.5-1.1.6-.3 1.3-.4 2-.4zm0 1.8c-.6 0-1.2.2-1.6.6a3 3 0 00-.8 1.7h4.7c0-.3 0-.6-.2-1a2 2 0 00-.4-.7l-.6-.5-1-.1z"/>
        <path fill="#3D4251" fill-rule="nonzero" d="M40 62.4l2-7.2h2L41 65H39l-3-9.8h2l2 7.2zm5-7.2h6.5v1.7H47v2.3h4.2v1.7H47v2.4h4.6V65H45v-9.8zm8.4.1a17.2 17.2 0 012.8-.2h1.3l1.2.5A2.4 2.4 0 0160 58c0 .4 0 .7-.2 1 0 .3-.1.6-.3.8l-.5.6-.6.4 2.3 4.3h-2.2l-2-3.8h-1.1V65h-2v-9.7zm3 1.5a12 12 0 00-1.1 0v2.9h.7c.6 0 1-.1 1.3-.4.4-.2.5-.6.5-1.2 0-.4 0-.7-.3-1-.3-.2-.7-.3-1.2-.3zm12 .7l-.1.7a2 2 0 01-.9 1.2l-.8.4c.3 0 .6.2.8.3a2 2 0 011.1 1.1l.2 1a2.6 2.6 0 01-1.2 2.3 4 4 0 01-1.2.5 6 6 0 01-1.5.1h-.6a16.3 16.3 0 01-2.4-.2v-9.6a17.9 17.9 0 014.3-.1c.4 0 .8.2 1.1.3.4.2.6.5.9.8.2.3.3.7.3 1.2zm-3.5 6h.6c.3 0 .5-.2.6-.3l.4-.4.2-.7c0-.3 0-.5-.2-.7L66 61a2 2 0 00-.6-.2h-1.8v2.7h.2a6.5 6.5 0 001 0zm-.7-4.2a8.6 8.6 0 001 0l.8-.5c.3-.3.4-.6.4-1l-.1-.5a1 1 0 00-.4-.4l-.5-.2h-.6a14.9 14.9 0 00-1.2 0v2.6h.6z"/>
        <g transform="translate(28)">
          <rect width="48" height="20" fill="#6A6A6A" rx="4"/>
          <path fill="#FFF" fill-rule="nonzero" d="M13.3 4.6V6h-2.9v8H8.7V6H5.8V4.6h7.5zM17 7.2c.5 0 1 .1 1.4.3a3 3 0 011.7 1.7l.2 1.5c0 .5 0 1-.2 1.4a2.9 2.9 0 01-1.7 1.8L17 14c-.5 0-1 0-1.3-.2A3 3 0 0114 12a4 4 0 01-.3-1.4c0-.6 0-1 .3-1.5.1-.4.3-.8.6-1a3 3 0 011-.7l1.4-.3zm0 5.7c.6 0 1-.2 1.3-.6.2-.4.4-1 .4-1.6 0-.8-.2-1.3-.4-1.7-.3-.4-.7-.5-1.3-.5-.5 0-1 .1-1.2.5-.3.4-.4 1-.4 1.7s.1 1.2.4 1.6c.2.4.7.6 1.2.6zm6.2-8.6V10h.5l.2-.2 1.7-2c0-.2.1-.2.2-.3H27.7l-2 2.4-.3.3-.2.2.2.2.2.3 2.2 3.2h-1.7l-.3-.3-1.7-2.5c0-.1 0-.2-.2-.2H23.3v3h-1.6V4.3h1.6zm8.3 3l1.2.1A2.5 2.5 0 0134.3 9a3.6 3.6 0 01.2 1.6l-.1.1-.1.1H30c0 .8.2 1.3.5 1.6.4.3.8.5 1.3.5l.7-.1.5-.2.4-.2.3-.1h.1l.2.1.4.6-.6.5a3.4 3.4 0 01-1.4.5l-.7.1c-.5 0-1 0-1.3-.2-.4-.2-.8-.4-1-.7-.4-.3-.6-.7-.8-1.1a4.3 4.3 0 010-2.9l.6-1a3 3 0 011-.7c.4-.2.9-.3 1.4-.3zm0 1c-.4 0-.8.2-1 .5a2 2 0 00-.6 1.1h3v-.6l-.3-.5-.5-.3-.6-.1zm4.2 5.7V7.3h1c.2 0 .3.1.4.3v.6a3.7 3.7 0 011-.7 2.4 2.4 0 011.1-.3c.4 0 .7 0 1 .2l.7.5c.2.3.4.5.4.8l.2 1V14H40V9.8c0-.5-.1-.8-.3-1-.2-.2-.5-.3-.8-.3-.3 0-.6 0-.8.2-.3 0-.5.3-.7.5V14h-1.6z"/>
        </g>
      </g>
      <g transform="translate(432 16)">
        <rect width="102" height="65" x="1.5" y="9.5" fill="#FFF" stroke="#6A6A6A" stroke-width="3" rx="12"/>
        <path fill="#3D4251" fill-rule="nonzero" d="M32.9 36l-.2.1-.3.1-.4-.1a11.9 11.9 0 00-1-.5l-.9-.1c-.4 0-.8 0-1.1.2l-.9.7a3 3 0 00-.4 1l-.2 1.5c0 .5 0 1 .2 1.4l.5 1c.2.4.5.6.8.7.3.2.7.3 1 .3a2.6 2.6 0 001.6-.5l.4-.3.5-.2c.2 0 .3.1.4.3l.7.9a4.5 4.5 0 01-1.9 1.3 7.6 7.6 0 01-2.2.4c-.5 0-1.1-.2-1.7-.4-.6-.2-1-.6-1.5-1a5 5 0 01-1-1.7c-.2-.7-.3-1.4-.3-2.3 0-.7 0-1.4.3-2 .2-.7.5-1.2 1-1.7.4-.5.9-.9 1.5-1.1.6-.3 1.3-.4 2.2-.4a5 5 0 012 .4c.5.2 1 .5 1.5 1l-.6 1zm6.7-2.4c.8 0 1.4.1 2 .4a4.5 4.5 0 012.7 2.7c.2.6.3 1.3.3 2.1 0 .9 0 1.6-.3 2.3-.3.6-.6 1.2-1 1.6-.5.5-1 .8-1.6 1-.7.3-1.3.4-2.1.4s-1.5 0-2.1-.3a4.5 4.5 0 01-2.6-2.8 6.2 6.2 0 010-4.4 4.5 4.5 0 012.6-2.7c.6-.2 1.3-.3 2-.3zm0 8.6c.8 0 1.5-.2 1.9-.8.4-.6.6-1.4.6-2.5s-.2-2-.6-2.6c-.4-.5-1-.8-2-.8-.8 0-1.4.3-1.8.8-.4.6-.7 1.5-.7 2.6 0 1 .3 2 .7 2.5.4.6 1 .9 1.9.9zM47 44v-8.4l-.9-.1a1 1 0 01-.4-.2.5.5 0 01-.2-.5v-1H47v-.7c0-.6.1-1.1.3-1.6a3.3 3.3 0 012-2 4.6 4.6 0 012.9 0v1.2l-.4.4h-.5a3 3 0 00-.8.1 1.3 1.3 0 00-1 1v1.6H52v1.8h-2.6V44H47zm7 0v-8.4l-.9-.1a1 1 0 01-.4-.2.5.5 0 01-.2-.5v-1H54v-.7c0-.6.1-1.1.3-1.6a3.3 3.3 0 012-2 4.6 4.6 0 012.9 0v1.2c0 .2-.2.3-.3.4h-.6a3 3 0 00-.8.1 1.3 1.3 0 00-1 1v1.6H59v1.8h-2.6V44H54zm10.8-10.4a5 5 0 011.8.3 4 4 0 012.3 2.4 5.5 5.5 0 01.3 2.4v.3l-.2.1h-6.6c0 1.1.3 2 .8 2.4.5.5 1.2.7 2 .7l1-.1c.3 0 .6-.2.8-.3l.5-.3.5-.2.3.1.2.2.7.9-1 .8a5.2 5.2 0 01-2.1.8 8 8 0 01-1.1 0c-.8 0-1.4 0-2-.3-.6-.2-1.2-.6-1.6-1a5 5 0 01-1.1-1.8 6.7 6.7 0 010-4.3c.2-.6.5-1.2 1-1.6.3-.5.9-.9 1.5-1.1.6-.3 1.3-.4 2-.4zm0 1.8c-.6 0-1.2.2-1.6.6a3 3 0 00-.8 1.7h4.7c0-.3 0-.6-.2-1a2 2 0 00-.4-.7l-.7-.5-1-.1zm10.7-1.8a5 5 0 011.8.3 4 4 0 012.3 2.4 5.5 5.5 0 01.3 2.4v.3l-.2.1H73c0 1.1.3 2 .8 2.4.5.5 1.2.7 2 .7l1-.1c.3 0 .5-.2.8-.3l.5-.3.5-.2.3.1.2.2.7.9-1 .8a5.2 5.2 0 01-2.1.8 8 8 0 01-1.2 0c-.7 0-1.3 0-2-.3-.6-.2-1-.6-1.5-1A5 5 0 0171 41a6.7 6.7 0 010-4.3c.2-.6.5-1.2 1-1.6.3-.5.8-.9 1.5-1.1.6-.3 1.3-.4 2-.4zm0 1.8c-.6 0-1.2.2-1.6.6a3 3 0 00-.8 1.7h4.6v-1a2 2 0 00-.5-.7l-.7-.5-1-.1z"/>
        <path fill="#3D4251" fill-rule="nonzero" d="M38.3 59.2V65h-1.8v-9.8h1.7l3.4 6-.1-1.2v-4.8h1.8V65h-1.7l-3.3-5.8zm6.3.9c0-.8 0-1.5.2-2.1.2-.7.4-1.2.7-1.6.3-.5.7-.8 1.2-1 .4-.3 1-.4 1.6-.4.7 0 1.2.1 1.7.4.5.2.9.6 1.1 1 .3.5.6 1 .7 1.6l.2 2.1c0 1.6-.3 2.8-1 3.7-.5 1-1.5 1.4-2.7 1.4-.7 0-1.2-.1-1.7-.4-.5-.2-.9-.6-1.2-1-.3-.5-.5-1-.6-1.6a10 10 0 01-.2-2.1zm2 0v1.3l.3 1.1.5.7c.2.2.5.3.9.3.3 0 .6 0 .8-.2l.5-.6c.2-.3.3-.7.3-1.1a12.7 12.7 0 00-.2-3.9l-.5-.7c-.2-.2-.5-.3-.9-.3-.7 0-1.1.3-1.3.9a7 7 0 00-.4 2.5zm11.8-4.9h1.8v6.3c0 .6 0 1.2-.3 1.6a2.9 2.9 0 01-1.8 1.8c-.4.2-.8.3-1.3.3-1.2 0-2.1-.3-2.7-1-.6-.5-.9-1.4-.9-2.5v-6.5h2v6.1c0 .8 0 1.3.3 1.7.3.3.7.5 1.3.5.6 0 1-.2 1.2-.6.3-.3.4-.9.4-1.6v-6.1zm5 4l.1 1.2V65h-1.8v-9.8h1.7l3.4 6-.1-1.2v-4.8h1.8V65h-1.7l-3.3-5.8z"/>
        <g transform="translate(28)">
          <rect width="48" height="20" fill="#6A6A6A" rx="4"/>
          <path fill="#FFF" fill-rule="nonzero" d="M13.3 4.6V6h-2.9v8H8.7V6H5.8V4.6h7.5zM17 7.2c.5 0 1 .1 1.4.3a3 3 0 011.7 1.7l.2 1.5c0 .5 0 1-.2 1.4a2.9 2.9 0 01-1.7 1.8L17 14c-.5 0-1 0-1.3-.2A3 3 0 0114 12a4 4 0 01-.3-1.4c0-.6 0-1 .3-1.5.1-.4.3-.8.6-1a3 3 0 011-.7l1.4-.3zm0 5.7c.6 0 1-.2 1.3-.6.2-.4.4-1 .4-1.6 0-.8-.2-1.3-.4-1.7-.3-.4-.7-.5-1.3-.5-.5 0-1 .1-1.2.5-.3.4-.4 1-.4 1.7s.1 1.2.4 1.6c.2.4.7.6 1.2.6zm6.2-8.6V10h.5l.2-.2 1.7-2c0-.2.1-.2.2-.3H27.7l-2 2.4-.3.3-.2.2.2.2.2.3 2.2 3.2h-1.7l-.3-.3-1.7-2.5c0-.1 0-.2-.2-.2H23.3v3h-1.6V4.3h1.6zm8.3 3l1.2.1A2.5 2.5 0 0134.3 9a3.6 3.6 0 01.2 1.6l-.1.1-.1.1H30c0 .8.2 1.3.5 1.6.4.3.8.5 1.3.5l.7-.1.5-.2.4-.2.3-.1h.1l.2.1.4.6-.6.5a3.4 3.4 0 01-1.4.5l-.7.1c-.5 0-1 0-1.3-.2-.4-.2-.8-.4-1-.7-.4-.3-.6-.7-.8-1.1a4.3 4.3 0 010-2.9l.6-1a3 3 0 011-.7c.4-.2.9-.3 1.4-.3zm0 1c-.4 0-.8.2-1 .5a2 2 0 00-.6 1.1h3v-.6l-.3-.5-.5-.3-.6-.1zm4.2 5.7V7.3h1c.2 0 .3.1.4.3v.6a3.7 3.7 0 011-.7 2.4 2.4 0 011.1-.3c.4 0 .7 0 1 .2l.7.5c.2.3.4.5.4.8l.2 1V14H40V9.8c0-.5-.1-.8-.3-1-.2-.2-.5-.3-.8-.3-.3 0-.6 0-.8.2-.3 0-.5.3-.7.5V14h-1.6z"/>
        </g>
      </g>
      <path fill="#3D4251" fill-rule="nonzero" d="M205.6 54h2.1l.2.8.9-.7c.3-.2.7-.3 1.2-.3.3 0 .6 0 .8.2.3 0 .5.2.7.3l.4.8.2 1.2V60h-1.6v-3.4c0-.5 0-.8-.3-1-.2-.3-.5-.4-.8-.4-.3 0-.6.1-.8.3-.3.1-.4.4-.5.6V60h-1.6v-4.7h-.9V54zm12 4.3l-.4-.3-.7-.3a31.3 31.3 0 00-1.9-.6c-.3-.1-.5-.3-.7-.6-.2-.2-.3-.5-.3-.8 0-.3 0-.6.2-.8l.5-.6c.3-.2.5-.3.8-.3l1-.2a5.6 5.6 0 011.9.3l.5.3c.2 0 .3.2.4.3l-.6 1a5.4 5.4 0 00-1.5-.6 2.7 2.7 0 00-1.3.1c-.2.1-.4.2-.4.4s.1.3.3.4l.8.2a130.2 130.2 0 001.9.6l.7.5c.2.3.3.6.3 1 0 .5-.2 1-.7 1.3-.4.4-1 .6-2 .6-.6 0-1.2-.1-1.7-.3-.5-.2-1-.5-1.2-.8l.7-1a3.7 3.7 0 001 .5l.7.2.7.1.6-.1c.2-.1.3-.2.3-.5zm6.3-4.3h2.2v4.7h.9V60h-1.9l-.3-.9-.8.8c-.4.2-.8.3-1.3.3-.3 0-.5 0-.8-.2-.3 0-.5-.2-.6-.3l-.5-.8a4 4 0 01-.1-1.2v-2.4h-.7V54h2.3v3.4c0 .5 0 .8.2 1 .2.3.4.4.7.4.3 0 .6-.1.8-.3.3-.2.4-.4.5-.6v-2.6h-.6V54zm3-2.4h2.5v2.9l.8-.5 1-.1c.8 0 1.4.2 2 .7.4.5.6 1.2.6 2.2 0 .6 0 1-.2 1.5a2.8 2.8 0 01-1.8 1.6c-.4.2-.9.2-1.4.2a4.9 4.9 0 01-2.5-.6v-6.6h-1v-1.3zm3.9 3.6h-.4a1.8 1.8 0 00-.7.5 1 1 0 00-.3.3v2.5a3.2 3.2 0 001.3.3h.6l.5-.4.3-.6.1-1c0-.5-.1-.9-.4-1.2-.2-.3-.6-.4-1-.4zm4.6-1.2h4.4v5.5c0 1-.2 1.7-.7 2.2-.5.5-1.2.8-2.1.8-.4 0-.8 0-1.2-.2l-.9-.5.7-1.2.5.3a1.8 1.8 0 001.3 0c.2 0 .3 0 .5-.2l.3-.6v-4.8h-2.8V54zm2-1.6c0-.3 0-.5.3-.7l.7-.2c.4 0 .6 0 .8.2.2.2.3.4.3.7 0 .2 0 .4-.3.6-.2.2-.4.2-.8.2-.3 0-.6 0-.7-.2a.8.8 0 01-.3-.6z"/>
      <path fill="#3D4251" fill-rule="nonzero" d="M385.8 52.6h2.5v5.2a16.3 16.3 0 000 1.9h.9V61h-2l-.1-.8-.4.4a2.4 2.4 0 01-1.6.6c-.4 0-.7 0-1-.2-.4-.1-.7-.3-1-.6-.2-.2-.4-.5-.5-1a4 4 0 01-.2-1.3c0-.5 0-1 .2-1.4.1-.4.4-.7.6-1 .3-.3.6-.5 1-.6.4-.2.8-.2 1.2-.2h.8l.5.1v-1h-1v-1.4zm-.4 7.2c.4 0 .6 0 .9-.2.2-.1.3-.3.4-.6v-2.6l-.4-.2H385l-.5.4-.4.6-.1 1c0 .5 0 .9.3 1.2.3.3.7.4 1.1.4zm4.3-1.8l.2-1.3a2.8 2.8 0 011.7-1.7l1.3-.2c.5 0 1 .1 1.4.3.3.1.7.3 1 .6l.6 1 .2 1.3-.2 1.3a2.8 2.8 0 01-1.7 1.7l-1.3.2c-.5 0-1-.1-1.3-.3-.4-.1-.8-.3-1-.6l-.7-1-.2-1.3zm1.6 0l.1.7.3.6a1.4 1.4 0 001.2.5c.5 0 .8-.1 1.1-.4.3-.3.5-.8.5-1.4 0-.6-.2-1-.4-1.3-.3-.4-.7-.5-1.2-.5h-.6l-.5.4c-.2.1-.3.3-.4.6v.8zm5-5.4h2.5v2.9l.8-.5 1-.1c.8 0 1.4.2 2 .7.4.5.6 1.2.6 2.2 0 .6 0 1-.2 1.5a2.8 2.8 0 01-1.8 1.6c-.4.2-.9.2-1.4.2a4.9 4.9 0 01-2.5-.6v-6.6h-1v-1.3zm3.9 3.6h-.4a1.8 1.8 0 00-.7.5 1 1 0 00-.3.3v2.5a3.2 3.2 0 001.3.3h.6l.5-.4.3-.6.1-1c0-.5-.1-.9-.4-1.2-.2-.3-.6-.4-1-.4zm4.6-1.2h4.4v5.5c0 1-.2 1.7-.7 2.2-.5.5-1.2.8-2.1.8-.4 0-.8 0-1.2-.2l-.9-.5.7-1.2.5.3a1.8 1.8 0 001.3 0c.2 0 .3 0 .5-.2l.3-.6v-4.8h-2.8V55zm2-1.6c0-.3 0-.5.3-.7l.7-.2c.4 0 .6 0 .8.2.2.2.3.4.3.7 0 .2 0 .4-.3.6-.2.2-.4.2-.8.2-.3 0-.6 0-.7-.2a.8.8 0 01-.3-.6z"/>
      <path fill="#3AC" d="M189 57l6.4-3v6z"/>
      <path stroke="#3AC" stroke-linecap="square" stroke-width="1.4" d="M196 56.9h6.5"/>
      <path fill="#3AC" d="M428 56.7l-6.4 3v-6z"/>
      <path stroke="#3AC" stroke-linecap="square" stroke-width="1.4" d="M421 56.9h-6.5"/>
      <path stroke="#3AC" stroke-linecap="square" stroke-width="1.4" d="M375.5 56.9H367"/>
      <path stroke="#3AC" stroke-linecap="square" stroke-width="1.4" d="M252.5 56.9H244"/>
      <path fill="#FFF" fill-rule="nonzero" d="M30 66.1c1 0 2 .2 2.9.6a6.7 6.7 0 013.8 3.8c.3.9.5 1.9.5 3V79H22.8v-5.6c0-1 .1-2 .5-3a6.8 6.8 0 013.8-3.7c.9-.4 1.8-.6 2.9-.6zm0 2.8c-.8 0-1.5 0-2.2.3-.6.2-1.1.5-1.6 1a4 4 0 00-1 1.3 5 5 0 00-.3 2v2.8H35v-2.9a5 5 0 00-.4-1.9 4 4 0 00-1-1.4c-.4-.4-1-.7-1.6-.9-.6-.2-1.3-.3-2.1-.3zM30 50c1 0 2 .2 3 .6a6.7 6.7 0 013.9 3.8c.3.9.5 1.9.5 3 0 1-.2 2-.6 3a6.8 6.8 0 01-3.9 3.8 8 8 0 01-3 .5c-1 0-2-.2-2.9-.5a7 7 0 01-3.9-3.8c-.3-1-.5-2-.5-3 0-1.1.2-2.1.6-3a6.8 6.8 0 013.8-3.8 8 8 0 013-.5zm0 2.8c-.8 0-1.5.1-2.2.3-.6.2-1.1.5-1.6 1-.4.3-.7.8-1 1.4a5 5 0 00-.3 1.9c0 .7.1 1.3.3 1.9l1 1.4 1.6 1c.7.2 1.4.3 2.2.3.8 0 1.5-.1 2.1-.4a4 4 0 002.6-2.4 5 5 0 00.4-1.8 5 5 0 00-.4-2 4 4 0 00-1-1.4c-.4-.4-1-.7-1.6-.9-.6-.2-1.3-.3-2.1-.3zm3.8-14.8c0-.2 0-.3.2-.4l1.1-1c.8.5 1.3 1.3 1.7 2.1.4.9.6 1.9.6 3.1 0 1-.2 2-.6 2.9a6.4 6.4 0 01-3.8 3.6 8.8 8.8 0 01-6 0 6.8 6.8 0 01-3.9-4 8 8 0 010-5.8c.4-.8.8-1.5 1.4-2l1.2.9c.1 0 .2 0 .2.2l.1.3c0 .2 0 .3-.2.5a5.8 5.8 0 00-.7 1.5c-.2.4-.2.9-.2 1.5a4.2 4.2 0 001.4 3.3c.4.4 1 .7 1.6 1 .6.2 1.3.3 2 .3.9 0 1.6 0 2.3-.3l1.6-1a4 4 0 001-1.4c.2-.5.3-1 .3-1.7v-1a4.2 4.2 0 00-.6-1.5l-.5-.7-.1-.2v-.2z"/>
    </g>
    <g transform="translate(7 128)">
      <rect width="554" height="89" x="2.5" y="7.5" fill="#D7CCF4" stroke="#8978B5" stroke-width="5" rx="15"/>
      <path fill="#8978B5" stroke="#8978B5" stroke-width="5" d="M58.5 96.5v-89H16c-7.5 0-13.5 6-13.5 13.5v62c0 7.5 6 13.5 13.5 13.5h42.5z"/>
      <g transform="translate(82 21)">
        <rect width="102" height="49" x="1.5" y="8.5" fill="#FFF" stroke="#6A6A6A" stroke-width="3" rx="12"/>
        <path fill="#3D4251" fill-rule="nonzero" d="M30 37.3h-1.7V40h-1.7v-2.7h-4.2V36l4.4-5.9h1.5v5.7H30v1.5zm-3.4-4.6l-2.4 3.1h2.4v-3zM37.9 37a3.1 3.1 0 01-1 2.3c-.2.2-.6.5-1 .6-.4.2-.9.3-1.3.3-.5 0-1 0-1.4-.2a3 3 0 01-1.9-1.9c-.2-.5-.2-1-.2-1.6a6.4 6.4 0 011.7-4.5 6.4 6.4 0 013.5-2l.4 1.4a5.4 5.4 0 00-2.5 1.3l-.8 1c-.3.3-.4.7-.5 1l.8-.5a3.3 3.3 0 012.4 0 2.7 2.7 0 011.6 1.5c.2.4.2.8.2 1.3zm-1.7 0c0-.5-.2-.9-.5-1.1-.3-.3-.7-.4-1.2-.4a2 2 0 00-1.7.8v.7l.1.6a1.6 1.6 0 00.9 1 1.8 1.8 0 001.3 0l.5-.4.4-.5.2-.7zm3.3-3.7c0-.5 0-1 .2-1.3a3 3 0 011.8-1.8l1.3-.2c.6 0 1 0 1.5.2a3 3 0 011.8 2c.2.4.2.9.2 1.5 0 1-.1 2-.4 2.8a4.9 4.9 0 01-2.8 3.2l-2 .5-.3-1.4 1.4-.4c.4-.2.8-.4 1-.7.4-.3.6-.6.8-1 .2-.3.4-.7.4-1l-.7.4-1.2.2c-.3 0-.7 0-1-.2a3 3 0 01-1.8-1.5 3 3 0 01-.2-1.3zm1.7-.1a1.6 1.6 0 00.6 1.2l.5.3h.7l1-.1.6-.5v-.5l-.1-.8a2 2 0 00-.3-.7 1.7 1.7 0 00-1.4-.6c-.4 0-.8.1-1.1.4-.3.3-.5.7-.5 1.3zm6.4 1.9c0-.9.1-1.6.3-2.2.2-.7.4-1.2.7-1.6.4-.5.8-.8 1.2-1l1.5-.3c1.2 0 2 .4 2.7 1.2.7.9 1 2.1 1 3.9 0 .8-.1 1.6-.3 2.2-.2.7-.4 1.2-.7 1.6a3 3 0 01-1.2 1l-1.5.3c-1.2 0-2.1-.4-2.7-1.3-.7-.9-1-2.2-1-3.8zm5.6 0a12.4 12.4 0 000-.8l-3.5 3c.3 1 .8 1.4 1.6 1.4.6 0 1-.3 1.4-.9.3-.6.5-1.5.5-2.7zm-3.8 0a10.8 10.8 0 000 .8l3.5-3.2c-.3-.8-.8-1.2-1.6-1.2-.6 0-1 .3-1.4 1-.3.5-.5 1.4-.5 2.6zm14.2 2.2h-1.7V40h-1.7v-2.7H56V36l4.4-5.9h1.5v5.7h1.7v1.5zm-3.4-4.6l-2.4 3.1h2.4v-3zm6.8 6.4c0-.4 0-.6.3-.8.2-.2.4-.3.8-.3.3 0 .6.1.8.3.2.2.3.4.3.8 0 .3 0 .6-.3.8-.2.2-.5.3-.8.3-.4 0-.6-.1-.8-.3a1 1 0 01-.3-.8zm8.4 0c0-.4 0-.6.3-.8.2-.2.4-.3.8-.3.3 0 .6.1.8.3.2.2.3.4.3.8 0 .3 0 .6-.3.8-.2.2-.5.3-.8.3-.4 0-.6-.1-.8-.3a1 1 0 01-.3-.8zm8.4 0c0-.4 0-.6.3-.8.2-.2.4-.3.8-.3.3 0 .6.1.8.3.2.2.3.4.3.8 0 .3 0 .6-.3.8-.2.2-.5.3-.8.3-.4 0-.6-.1-.8-.3a1 1 0 01-.3-.8z"/>
        <rect width="54" height="20" x="25" fill="#6A6A6A" rx="4"/>
        <path fill="#FFF" fill-rule="nonzero" d="M32 12.6h3.7V14h-5.5V4.6h1.7v8zm7.6-5.4c.4 0 .8 0 1.1.2A2.5 2.5 0 0142.2 9a3.6 3.6 0 01.2 1.6v.1l-.1.1H38c0 .8.2 1.3.5 1.6.3.3.8.5 1.3.5l.7-.1.5-.2.3-.2.3-.1h.2l.1.1.5.6-.6.5a3.4 3.4 0 01-1.4.5l-.8.1c-.4 0-.8 0-1.2-.2-.4-.2-.8-.4-1-.7-.4-.3-.6-.7-.8-1.1a4.3 4.3 0 010-2.9c.1-.4.3-.7.6-1a3 3 0 011-.7c.4-.2.9-.3 1.4-.3zm0 1.2c-.5 0-.8.1-1.1.4a2 2 0 00-.5 1.1h3v-.6l-.3-.5-.5-.3-.6-.1zm5.7 2.2l-2.1-3.3H45l.1.2 1.4 2.3a1.8 1.8 0 01.2-.5l1.1-1.7.2-.2h1.7l-2.2 3 2.3 3.6H47.9l-.1-.3-1.5-2.3-.1.4-1.3 1.9-.1.2-.3.1h-1.4l2.2-3.4zm8.2-3.4c.5 0 .8 0 1.2.2A2.5 2.5 0 0156.2 9a3.6 3.6 0 01.2 1.6v.1l-.2.1H52c0 .8.3 1.3.6 1.6.3.3.7.5 1.3.5l.6-.1.5-.2.4-.2.3-.1h.2l.1.1.5.6-.6.5a3.4 3.4 0 01-1.5.5l-.7.1c-.4 0-.9 0-1.3-.2l-1-.7-.7-1.1a4.3 4.3 0 010-2.9c.1-.4.3-.7.6-1a3 3 0 011-.7c.4-.2.8-.3 1.3-.3zm0 1.2c-.4 0-.8.1-1 .4a2 2 0 00-.5 1.1h3l-.1-.6c0-.2-.1-.3-.3-.5l-.4-.3-.6-.1zm4.2 5.6V7.3h1c.2 0 .4.1.4.3l.1.5.4-.3a2.4 2.4 0 01.9-.5h.5c.4 0 .8 0 1 .3.3.2.5.5.7.9a2 2 0 01.9-1l.6-.2a2.9 2.9 0 011.6.1l.7.5.4.8.2 1V14h-1.6V9.8c0-.5-.1-.8-.3-1-.2-.2-.4-.3-.8-.3h-.5a1 1 0 00-.6.7V14h-1.7V9.8c0-.5 0-.8-.3-1-.1-.2-.4-.3-.8-.3l-.6.1-.6.5V14h-1.6zm13.7-6.8c.5 0 .8 0 1.2.2A2.5 2.5 0 0174 9a3.6 3.6 0 01.2 1.6v.1l-.2.1H70c0 .8.2 1.3.5 1.6.3.3.7.5 1.3.5l.6-.1.5-.2.4-.2.3-.1h.2v.1l.6.6-.6.5a3.4 3.4 0 01-1.5.5l-.7.1c-.5 0-.9 0-1.3-.2l-1-.7c-.3-.3-.6-.7-.7-1.1a4.3 4.3 0 010-2.9c.1-.4.3-.7.6-1a3 3 0 011-.7c.4-.2.8-.3 1.3-.3zm0 1.2c-.4 0-.8.1-1 .4a2 2 0 00-.5 1.1h3l-.1-.6c0-.2-.2-.3-.3-.5l-.4-.3-.6-.1z"/>
      </g>
      <g transform="translate(432 21)">
        <rect width="102" height="49" x="1.5" y="8.5" fill="#FFF" stroke="#6A6A6A" stroke-width="3" rx="12"/>
        <path fill="#3D4251" fill-rule="nonzero" d="M25.4 38.7c.3 0 .6 0 .8-.2.3 0 .5-.2.7-.3l.4-.5.2-.6-.2-.7-.5-.5-.7-.2-1-.1h-.8v-1l2.4-2.9H23v-1.5H29v1.3l-2.5 2.8h.3c.3 0 .7 0 1 .2a2.4 2.4 0 011.4 1.3l.2 1.2a2.9 2.9 0 01-1.2 2.4 5.2 5.2 0 01-2.7.8 7.2 7.2 0 01-2.5-.5l.5-1.5.4.2a8.4 8.4 0 001 .2h.6zm6.4-.2h2.1v-6.2l-1.8 1.5-.9-1.2 3.2-2.4h1.3v8.3h2V40h-6v-1.5zm7.7-5.2c0-.5 0-1 .2-1.3a3 3 0 011.8-1.8l1.3-.2c.6 0 1 0 1.5.2a3 3 0 011.8 2c.2.4.2.9.2 1.5 0 1-.1 2-.4 2.8a4.9 4.9 0 01-2.8 3.2l-2 .5-.3-1.4 1.4-.4c.4-.2.8-.4 1-.7.4-.3.6-.6.8-1 .2-.3.4-.7.4-1l-.7.4-1.2.2c-.3 0-.7 0-1-.2a3 3 0 01-1.8-1.5 3 3 0 01-.2-1.3zm1.7-.1a1.6 1.6 0 00.6 1.2l.5.3h.7l1-.1.6-.5v-.5l-.1-.8a2 2 0 00-.3-.7 1.7 1.7 0 00-1.4-.6c-.4 0-.8.1-1.1.4-.3.3-.5.7-.5 1.3zm7.3 6.8l4-8.1H48v-1.7h6.4v1.4l-4 8.4h-1.9zm7.8-6.7c0-.5 0-1 .2-1.3a3 3 0 011.8-1.8l1.3-.2c.6 0 1 0 1.5.2a3 3 0 011.8 2c.2.4.2.9.2 1.5 0 1-.1 2-.4 2.8a4.9 4.9 0 01-2.8 3.2l-2 .5-.3-1.4 1.4-.4c.4-.2.8-.4 1-.7.4-.3.6-.6.8-1 .2-.3.4-.7.4-1l-.7.4-1.1.2c-.4 0-.8 0-1.2-.2a3 3 0 01-1.7-1.5 3 3 0 01-.2-1.3zm1.7-.1a1.6 1.6 0 00.6 1.2l.5.3h.7l1-.1.6-.5v-.5l-.1-.8a2 2 0 00-.3-.7 1.7 1.7 0 00-1.4-.6c-.4 0-.8.1-1.1.4-.3.3-.5.7-.5 1.3zm9 5.9c0-.4 0-.6.3-.8.2-.2.4-.3.8-.3.3 0 .6.1.8.3.2.2.3.4.3.8 0 .3 0 .6-.3.8-.2.2-.5.3-.8.3-.4 0-.6-.1-.8-.3a1 1 0 01-.3-.8zm8.4 0c0-.4 0-.6.3-.8.2-.2.4-.3.8-.3.3 0 .6.1.8.3.2.2.3.4.3.8 0 .3 0 .6-.3.8-.2.2-.5.3-.8.3-.4 0-.6-.1-.8-.3a1 1 0 01-.3-.8zm8.4 0c0-.4 0-.6.3-.8.2-.2.4-.3.8-.3.3 0 .6.1.8.3.2.2.3.4.3.8 0 .3 0 .6-.3.8-.2.2-.5.3-.8.3-.4 0-.6-.1-.8-.3a1 1 0 01-.3-.8z"/>
        <rect width="54" height="20" x="25" fill="#6A6A6A" rx="4"/>
        <path fill="#FFF" fill-rule="nonzero" d="M32 12.6h3.7V14h-5.5V4.6h1.7v8zm7.6-5.4c.4 0 .8 0 1.1.2A2.5 2.5 0 0142.2 9a3.6 3.6 0 01.2 1.6v.1l-.1.1H38c0 .8.2 1.3.5 1.6.3.3.8.5 1.3.5l.7-.1.5-.2.3-.2.3-.1h.2l.1.1.5.6-.6.5a3.4 3.4 0 01-1.4.5l-.8.1c-.4 0-.8 0-1.2-.2-.4-.2-.8-.4-1-.7-.4-.3-.6-.7-.8-1.1a4.3 4.3 0 010-2.9c.1-.4.3-.7.6-1a3 3 0 011-.7c.4-.2.9-.3 1.4-.3zm0 1.2c-.5 0-.8.1-1.1.4a2 2 0 00-.5 1.1h3v-.6l-.3-.5-.5-.3-.6-.1zm5.7 2.2l-2.1-3.3H45l.1.2 1.4 2.3a1.8 1.8 0 01.2-.5l1.1-1.7.2-.2h1.7l-2.2 3 2.3 3.6H47.9l-.1-.3-1.5-2.3-.1.4-1.3 1.9-.1.2-.3.1h-1.4l2.2-3.4zm8.2-3.4c.5 0 .8 0 1.2.2A2.5 2.5 0 0156.2 9a3.6 3.6 0 01.2 1.6v.1l-.2.1H52c0 .8.3 1.3.6 1.6.3.3.7.5 1.3.5l.6-.1.5-.2.4-.2.3-.1h.2l.1.1.5.6-.6.5a3.4 3.4 0 01-1.5.5l-.7.1c-.4 0-.9 0-1.3-.2l-1-.7-.7-1.1a4.3 4.3 0 010-2.9c.1-.4.3-.7.6-1a3 3 0 011-.7c.4-.2.8-.3 1.3-.3zm0 1.2c-.4 0-.8.1-1 .4a2 2 0 00-.5 1.1h3l-.1-.6c0-.2-.1-.3-.3-.5l-.4-.3-.6-.1zm4.2 5.6V7.3h1c.2 0 .4.1.4.3l.1.5.4-.3a2.4 2.4 0 01.9-.5h.5c.4 0 .8 0 1 .3.3.2.5.5.7.9a2 2 0 01.9-1l.6-.2a2.9 2.9 0 011.6.1l.7.5.4.8.2 1V14h-1.6V9.8c0-.5-.1-.8-.3-1-.2-.2-.4-.3-.8-.3h-.5a1 1 0 00-.6.7V14h-1.7V9.8c0-.5 0-.8-.3-1-.1-.2-.4-.3-.8-.3l-.6.1-.6.5V14h-1.6zm13.7-6.8c.5 0 .8 0 1.2.2A2.5 2.5 0 0174 9a3.6 3.6 0 01.2 1.6v.1l-.2.1H70c0 .8.2 1.3.5 1.6.3.3.7.5 1.3.5l.6-.1.5-.2.4-.2.3-.1h.2v.1l.6.6-.6.5a3.4 3.4 0 01-1.5.5l-.7.1c-.5 0-.9 0-1.3-.2l-1-.7c-.3-.3-.6-.7-.7-1.1a4.3 4.3 0 010-2.9c.1-.4.3-.7.6-1a3 3 0 011-.7c.4-.2.8-.3 1.3-.3zm0 1.2c-.4 0-.8.1-1 .4a2 2 0 00-.5 1.1h3l-.1-.6c0-.2-.2-.3-.3-.5l-.4-.3-.6-.1z"/>
      </g>
      <g transform="translate(257 21)">
        <rect width="102" height="49" x="1.5" y="8.5" fill="#FFF" stroke="#6A6A6A" stroke-width="3" rx="12"/>
        <path fill="#3D4251" fill-rule="nonzero" d="M25.4 38.7c.3 0 .6 0 .8-.2.3 0 .5-.2.7-.3l.4-.5.2-.6-.2-.7-.5-.5-.7-.2-1-.1h-.8v-1l2.4-2.9H23v-1.5H29v1.3l-2.5 2.8h.3c.3 0 .7 0 1 .2a2.4 2.4 0 011.4 1.3l.2 1.2a2.9 2.9 0 01-1.2 2.4 5.2 5.2 0 01-2.7.8 7.2 7.2 0 01-2.5-.5l.5-1.5.4.2a8.4 8.4 0 001 .2h.6zm6.3 1.3l4-8.1h-4.5v-1.7h6.4v1.4l-4 8.4h-1.9zm7.5-5c0-.8.1-1.5.3-2.1.2-.7.4-1.2.7-1.6.4-.5.8-.8 1.2-1l1.5-.3c1.2 0 2 .4 2.7 1.2.7.9 1 2.1 1 3.9 0 .8-.1 1.6-.3 2.2-.2.7-.4 1.2-.7 1.6a3 3 0 01-1.2 1l-1.5.3c-1.2 0-2.1-.4-2.7-1.3-.7-.9-1-2.2-1-3.8zm5.6 0a12.4 12.4 0 000-.7l-3.5 3c.3 1 .8 1.4 1.6 1.4.6 0 1-.3 1.4-.9.3-.6.5-1.5.5-2.7zM41 35a10.8 10.8 0 000 .9l3.5-3.2c-.3-.8-.8-1.2-1.6-1.2-.6 0-1 .3-1.4 1-.3.5-.5 1.4-.5 2.6zm13.4 5h-6.2v-1.4a12.3 12.3 0 001-.9 27 27 0 002.7-3.1l.4-.8v-.7-.6l-.4-.4-.5-.4a2 2 0 00-.7 0 2.6 2.6 0 00-1.8.6l-.7-1.3 1.3-.7a4.5 4.5 0 012.8-.1c.4 0 .7.2 1 .5a2.4 2.4 0 011 2 4.2 4.2 0 01-.8 2.3 12.8 12.8 0 01-2 2.3 16 16 0 01-1.1 1.2h4V40zm1.6-5c0-.8.1-1.5.3-2.1.2-.7.4-1.2.7-1.6.4-.5.8-.8 1.2-1l1.5-.3c1.2 0 2 .4 2.7 1.2.7.9 1 2.1 1 3.9 0 .8-.1 1.6-.3 2.2-.2.7-.4 1.2-.7 1.6a3 3 0 01-1.2 1l-1.5.3c-1.2 0-2.1-.4-2.7-1.3-.7-.9-1-2.2-1-3.8zm5.6 0a12.4 12.4 0 000-.7l-3.5 3c.3 1 .8 1.4 1.6 1.4.6 0 1-.3 1.4-.9.3-.6.5-1.5.5-2.7zm-3.8 0a10.8 10.8 0 000 .9l3.5-3.2c-.3-.8-.8-1.2-1.6-1.2-.6 0-1 .3-1.4 1-.3.5-.5 1.4-.5 2.6zm9.2 4c0-.3 0-.5.3-.7.2-.2.4-.3.8-.3.3 0 .6.1.8.3.2.2.3.4.3.8 0 .3 0 .6-.3.8-.2.2-.5.3-.8.3-.4 0-.6-.1-.8-.3a1 1 0 01-.3-.8zm8.4 0c0-.3 0-.5.3-.7.2-.2.4-.3.8-.3.3 0 .6.1.8.3.2.2.3.4.3.8 0 .3 0 .6-.3.8-.2.2-.5.3-.8.3-.4 0-.6-.1-.8-.3a1 1 0 01-.3-.8zm8.4 0c0-.3 0-.5.3-.7.2-.2.4-.3.8-.3.3 0 .6.1.8.3.2.2.3.4.3.8 0 .3 0 .6-.3.8-.2.2-.5.3-.8.3-.4 0-.6-.1-.8-.3a1 1 0 01-.3-.8z"/>
        <rect width="54" height="20" x="25" fill="#6A6A6A" rx="4"/>
        <path fill="#FFF" fill-rule="nonzero" d="M32 12.6h3.7V14h-5.5V4.6h1.7v8zm7.6-5.4c.4 0 .8 0 1.1.2A2.5 2.5 0 0142.2 9a3.6 3.6 0 01.2 1.6v.1l-.1.1H38c0 .8.2 1.3.5 1.6.3.3.8.5 1.3.5l.7-.1.5-.2.3-.2.3-.1h.2l.1.1.5.6-.6.5a3.4 3.4 0 01-1.4.5l-.8.1c-.4 0-.8 0-1.2-.2-.4-.2-.8-.4-1-.7-.4-.3-.6-.7-.8-1.1a4.3 4.3 0 010-2.9c.1-.4.3-.7.6-1a3 3 0 011-.7c.4-.2.9-.3 1.4-.3zm0 1.2c-.5 0-.8.1-1.1.4a2 2 0 00-.5 1.1h3v-.6l-.3-.5-.5-.3-.6-.1zm5.7 2.2l-2.1-3.3H45l.1.2 1.4 2.3a1.8 1.8 0 01.2-.5l1.1-1.7.2-.2h1.7l-2.2 3 2.3 3.6H47.9l-.1-.3-1.5-2.3-.1.4-1.3 1.9-.1.2-.3.1h-1.4l2.2-3.4zm8.2-3.4c.5 0 .8 0 1.2.2A2.5 2.5 0 0156.2 9a3.6 3.6 0 01.2 1.6v.1l-.2.1H52c0 .8.3 1.3.6 1.6.3.3.7.5 1.3.5l.6-.1.5-.2.4-.2.3-.1h.2l.1.1.5.6-.6.5a3.4 3.4 0 01-1.5.5l-.7.1c-.4 0-.9 0-1.3-.2l-1-.7-.7-1.1a4.3 4.3 0 010-2.9c.1-.4.3-.7.6-1a3 3 0 011-.7c.4-.2.8-.3 1.3-.3zm0 1.2c-.4 0-.8.1-1 .4a2 2 0 00-.5 1.1h3l-.1-.6c0-.2-.1-.3-.3-.5l-.4-.3-.6-.1zm4.2 5.6V7.3h1c.2 0 .4.1.4.3l.1.5.4-.3a2.4 2.4 0 01.9-.5h.5c.4 0 .8 0 1 .3.3.2.5.5.7.9a2 2 0 01.9-1l.6-.2a2.9 2.9 0 011.6.1l.7.5.4.8.2 1V14h-1.6V9.8c0-.5-.1-.8-.3-1-.2-.2-.4-.3-.8-.3h-.5a1 1 0 00-.6.7V14h-1.7V9.8c0-.5 0-.8-.3-1-.1-.2-.4-.3-.8-.3l-.6.1-.6.5V14h-1.6zm13.7-6.8c.5 0 .8 0 1.2.2A2.5 2.5 0 0174 9a3.6 3.6 0 01.2 1.6v.1l-.2.1H70c0 .8.2 1.3.5 1.6.3.3.7.5 1.3.5l.6-.1.5-.2.4-.2.3-.1h.2v.1l.6.6-.6.5a3.4 3.4 0 01-1.5.5l-.7.1c-.5 0-.9 0-1.3-.2l-1-.7c-.3-.3-.6-.7-.7-1.1a4.3 4.3 0 010-2.9c.1-.4.3-.7.6-1a3 3 0 011-.7c.4-.2.8-.3 1.3-.3zm0 1.2c-.4 0-.8.1-1 .4a2 2 0 00-.5 1.1h3l-.1-.6c0-.2-.2-.3-.3-.5l-.4-.3-.6-.1z"/>
      </g>
      <path fill="#FFF" fill-rule="nonzero" d="M22.4 88.2v-2.1a1 1 0 01.6-1l8.8-3.3a12 12 0 012-.7l-2-.5-8.8-3.4a1 1 0 01-.4-.3.9.9 0 01-.2-.6v-2.2L36.8 80v2.4l-14.4 5.8zm7.2-29.5c1 0 2 .2 3 .6a6.7 6.7 0 013.9 3.8c.3.9.5 1.9.5 3 0 1-.2 2-.6 3a6.8 6.8 0 01-3.9 3.8 8 8 0 01-3 .5c-1 0-2-.2-2.9-.5a7 7 0 01-3.8-3.8c-.4-1-.6-2-.6-3 0-1.1.2-2.1.6-3a6.8 6.8 0 013.8-3.8 8 8 0 013-.6zm0 2.8c-.8 0-1.5.1-2.1.3-.7.2-1.2.5-1.6 1-.5.3-.8.8-1 1.4a5 5 0 00-.4 1.9c0 .7.1 1.3.3 1.9l1 1.4 1.7 1c.6.2 1.3.3 2 .3.9 0 1.6-.1 2.2-.4a4 4 0 002.6-2.4 5 5 0 00.4-1.8 5 5 0 00-.4-2 4 4 0 00-1-1.4c-.4-.4-1-.7-1.6-.9-.6-.2-1.3-.3-2.1-.3zm3.8-14.8c0-.2 0-.3.2-.4l1.1-1c.8.5 1.3 1.3 1.7 2.1.4.9.6 1.9.6 3.1 0 1-.2 2-.6 2.9a6.4 6.4 0 01-3.8 3.6 8.8 8.8 0 01-6 0 6.8 6.8 0 01-3.9-4 8 8 0 010-5.8c.4-.8.8-1.5 1.4-2l1.2.9c.1 0 .2 0 .2.2l.1.3-.1.5a5.8 5.8 0 00-.8 1.5l-.2 1.5a4.2 4.2 0 001.4 3.3c.4.4 1 .7 1.6 1 .6.2 1.3.3 2 .3 1 0 1.6 0 2.3-.3l1.6-1a4 4 0 001-1.4c.2-.5.3-1 .3-1.7v-1a4.2 4.2 0 00-.6-1.5l-.5-.7-.1-.2v-.2zm3.4-16.2v2a1 1 0 01-.6 1l-3 1v6l3 1.1a1 1 0 01.6 1v2L22.4 39v-2.7l14.4-5.7zM31.4 40v-4.6L26.6 37a22 22 0 01-1.7.6 33.3 33.3 0 011.7.5l4.8 1.8zM36.8 29H22.4v-5c0-1 0-1.7.2-2.4s.5-1.2.8-1.6a3 3 0 011.2-1 4 4 0 012.6-.1c.3 0 .6.2.9.4l.7.8.6 1.2c.4-2 1.5-3 3.2-3 .6 0 1.2.1 1.7.3.5.3 1 .6 1.3 1 .4.5.7 1 .9 1.7.2.7.3 1.4.3 2.3V29zm-6.3-2.7h4.2v-2.7c0-.5 0-1-.2-1.3 0-.3-.2-.6-.4-.8l-.7-.4a2.6 2.6 0 00-1.7 0l-.7.5-.4.8-.1 1.2v2.7zm-1.9 0v-2.1c0-1-.1-1.6-.5-2.1-.3-.5-.8-.7-1.6-.7-.7 0-1.3.2-1.6.6-.3.5-.5 1.1-.5 2v2.3h4.2z"/>
    </g>
    <g transform="translate(7 238)">
      <rect width="559" height="94" y="5" fill="#AAE2DC" stroke="#00BEAB" stroke-linejoin="round" stroke-width="3.8" rx="15"/>
      <path fill="#00BEAB" stroke="#00BEAB" stroke-linejoin="round" stroke-width="3.8" d="M16 5h45v94H16A16 16 0 010 83V21A16 16 0 0116 5z"/>
      <g transform="translate(82 18)">
        <rect width="102" height="49" x="1.5" y="8.5" fill="#FFF" stroke="#6A6A6A" stroke-width="3" rx="12"/>
        <path fill="#3D4251" fill-rule="nonzero" d="M47.4 29.5v3L47 34c0 .3 0 .5-.2.7l-.6.2c-.3 0-.4 0-.6-.2l-.3-.7-.2-1.6v-2.9h2.2zm3.7 0v3l-.3 1.5-.2.7-.6.2c-.3 0-.5 0-.6-.2l-.3-.7-.2-1.6v-2.9h2.2zM56.9 44H54V29.5H57V44zM62 29.5v3l-.2 1.5c0 .3-.2.5-.3.7l-.6.2c-.2 0-.4 0-.6-.2l-.2-.7-.3-1.6v-2.9h2.2zm3.7 0v3l-.3 1.5c0 .3 0 .5-.2.7l-.6.2c-.3 0-.4 0-.6-.2L64 34l-.3-1.6v-2.9h2.2z"/>
        <rect width="54" height="20" x="25" fill="#6A6A6A" rx="4"/>
        <path fill="#FFF" fill-rule="nonzero" d="M34.9 10.5H36v.9l-.1.2-.3.1H35V14h-1.4v-2.3h-4l-.3-.1-.1-.2-.2-.9 4.5-6h1.5v6zm-1.4-3.1a8.3 8.3 0 010-1l-2.9 4h2.9v-3zm7.2.7c.3 0 .7 0 1 .2a2.5 2.5 0 011.5 1.4c.2.4.2.8.2 1.2a3.2 3.2 0 01-.9 2.3l-1 .7-1.4.2c-.5 0-1 0-1.3-.2a2.9 2.9 0 01-1.7-1.7 3.9 3.9 0 010-2.8c.2-.4.5-1 .9-1.4l2.2-3 .4-.3.5-.1h1.4L39.7 8a46.6 46.6 0 01-.3.4 2.8 2.8 0 011.3-.3zm-2.3 3l.1.7c0 .2.2.4.3.5l.6.4h1.4a1.6 1.6 0 00.9-1l.1-.6-.1-.8c0-.2-.2-.4-.3-.5l-.6-.4a2 2 0 00-1.4 0 1.6 1.6 0 00-.9 1v.6zm8.9-.9l-1-.1A2.4 2.4 0 0145 8.7a3 3 0 01-.2-1.2 3 3 0 011.9-2.8l1.3-.2c.5 0 1 0 1.3.2l1 .7c.2.2.5.6.6 1l.2 1.2a4.4 4.4 0 01-.6 2.3 9 9 0 01-.4.7l-2.2 3-.3.3-.5.1h-1.5l3-3.6a9.1 9.1 0 00.3-.6c-.2.2-.4.3-.7.3a3 3 0 01-.8.1zm2.2-2.8l-.1-.7a1.4 1.4 0 00-.9-.8 1.8 1.8 0 00-1.3 0 1.4 1.4 0 00-.8.9l-.1.6c0 .5.1 1 .4 1.2.3.3.7.4 1.2.4h.6l.6-.4c0-.2.2-.3.3-.5v-.7zm9.1 1.9c0 .8 0 1.5-.3 2.1-.1.6-.4 1.1-.7 1.5a3 3 0 01-1 1L55 14c-.5 0-.9 0-1.3-.3a3 3 0 01-1.1-.9c-.3-.4-.6-.9-.7-1.5a7.8 7.8 0 010-4.3c.1-.5.4-1 .7-1.4A3 3 0 0155 4.5c.5 0 1 0 1.4.3.4.2.8.5 1.1.9.3.4.6.9.7 1.5.2.6.3 1.3.3 2.1zm-1.7 0a8 8 0 00-.1-1.7c-.1-.4-.2-.8-.4-1l-.6-.6a1.5 1.5 0 00-1.3 0c-.2 0-.4.3-.6.5l-.4 1.1-.1 1.7.1 1.7c.1.4.2.8.4 1l.6.6a1.5 1.5 0 001.3 0c.2 0 .4-.3.6-.5l.4-1.1.1-1.7zm8.1 1.2h1.2v1.1l-.3.1H65V14h-1.4v-2.3h-4l-.2-.1-.2-.2-.1-.9 4.4-6H65v6zm-1.4-3.1a8.3 8.3 0 01.1-1l-3 4h3v-3zM67 13a1 1 0 01.3-.7 1 1 0 01.7-.3 1 1 0 01.7.3 1 1 0 01.2 1.1c0 .1 0 .2-.2.3l-.3.2a1 1 0 01-1-.2c-.2 0-.2-.2-.3-.3v-.4zm3 0a1 1 0 01.2-.7 1 1 0 01.8-.3 1 1 0 01.6.3 1 1 0 01.3 1.1l-.3.3c0 .1-.1.2-.3.2a1 1 0 01-1-.2l-.3-.3v-.4zm2.9 0a1 1 0 01.3-.7 1 1 0 01.7-.3 1 1 0 01.7.3 1 1 0 01.2 1.1l-.2.3-.3.2a1 1 0 01-1-.2c-.2 0-.3-.2-.3-.3l-.1-.4z"/>
      </g>
      <g transform="translate(432 18)">
        <rect width="102" height="49" x="1.5" y="8.5" fill="#FFF" stroke="#6A6A6A" stroke-width="3" rx="12"/>
        <path fill="#3D4251" fill-rule="nonzero" d="M22.4 29.5v3L22 34l-.2.7-.6.2c-.3 0-.5 0-.6-.2l-.3-.7-.2-1.6v-2.9h2.2zm3.6 0v3l-.2 1.5-.2.7-.6.2c-.3 0-.5 0-.6-.2-.2-.2-.2-.4-.3-.7l-.2-1.6v-2.9H26zM36 36l-.2.2-.3.1-.4-.1a11.9 11.9 0 00-1-.5l-.9-.1c-.4 0-.8 0-1.1.2l-.9.7a3 3 0 00-.4 1l-.2 1.5c0 .5 0 1 .2 1.4l.5 1c.2.4.5.6.8.7.3.2.7.3 1 .3a2.6 2.6 0 001.6-.5l.4-.3.5-.2c.2 0 .3.1.4.3l.7.9a4.5 4.5 0 01-1.9 1.3 7.6 7.6 0 01-2.2.4c-.5 0-1.1-.2-1.7-.4-.6-.2-1-.6-1.5-1a5 5 0 01-1-1.7c-.2-.7-.3-1.4-.3-2.3 0-.7 0-1.4.3-2 .2-.7.5-1.2 1-1.7.4-.5.9-.9 1.5-1.1.6-.3 1.3-.4 2.2-.4a5 5 0 012 .4c.5.2 1 .5 1.5 1l-.6 1zm6.7-2.3c.8 0 1.4.1 2 .4a4.5 4.5 0 012.7 2.7c.2.6.3 1.3.3 2.1 0 .9 0 1.6-.3 2.3-.3.6-.6 1.2-1 1.6-.5.5-1 .8-1.6 1-.7.3-1.3.4-2.1.4s-1.5 0-2.1-.3a4.5 4.5 0 01-2.6-2.8 6.2 6.2 0 010-4.4 4.5 4.5 0 012.6-2.7c.6-.2 1.3-.3 2-.3zm0 8.6c.8 0 1.5-.2 1.9-.8.4-.6.6-1.4.6-2.5s-.2-2-.6-2.6c-.4-.5-1-.8-2-.8-.8 0-1.4.3-1.8.8-.4.6-.7 1.5-.7 2.6 0 1 .3 2 .7 2.5.4.6 1 .9 1.9.9zM50 44v-8.4l-.9-.1a1 1 0 01-.4-.2.5.5 0 01-.2-.5v-1H50v-.7c0-.6.1-1.1.3-1.6a3.3 3.3 0 012-2 4.6 4.6 0 012.9 0v1.2l-.4.4h-.5a3 3 0 00-.8.1 1.3 1.3 0 00-1 1v1.6H55v1.8h-2.6V44H50zm7 0v-8.4l-.9-.1a1 1 0 01-.4-.2.5.5 0 01-.2-.5v-1H57v-.7c0-.6.1-1.1.3-1.6a3.3 3.3 0 012-2 4.6 4.6 0 012.9 0v1.2c0 .2-.2.3-.3.4h-.6a3 3 0 00-.8.1 1.3 1.3 0 00-1 1v1.6H62v1.8h-2.6V44H57zm10.8-10.4a5 5 0 011.8.3 4 4 0 012.3 2.4 5.5 5.5 0 01.3 2.4v.3l-.2.1h-6.6c0 1.1.3 2 .8 2.4.5.5 1.2.7 2 .7l1-.1c.3 0 .6-.2.8-.3l.5-.3.5-.2.3.1.2.2.7.9-1 .8a5.2 5.2 0 01-2.1.8 8 8 0 01-1.1 0c-.8 0-1.4 0-2-.3-.6-.2-1.2-.6-1.6-1a5 5 0 01-1.1-1.8 6.7 6.7 0 010-4.3c.2-.6.5-1.2 1-1.6.3-.5.9-.9 1.5-1.1.6-.3 1.3-.4 2-.4zm0 1.8c-.6 0-1.2.2-1.6.6a3 3 0 00-.8 1.7h4.7c0-.3 0-.6-.2-1a2 2 0 00-.4-.7l-.7-.5-1-.1zm10.7-1.8a5 5 0 011.8.3 4 4 0 012.3 2.4 5.5 5.5 0 01.3 2.4v.3l-.2.1H76c0 1.1.3 2 .8 2.4.5.5 1.2.7 2 .7l1-.1c.3 0 .5-.2.8-.3l.5-.3.5-.2.3.1.2.2.7.9-1 .8a5.2 5.2 0 01-2.1.8 8 8 0 01-1.2 0c-.7 0-1.3 0-2-.3-.6-.2-1-.6-1.5-1A5 5 0 0174 41a6.7 6.7 0 010-4.3c.2-.6.5-1.2 1-1.6.3-.5.8-.9 1.5-1.1.6-.3 1.3-.4 2-.4zm0 1.8c-.6 0-1.2.2-1.6.6a3 3 0 00-.8 1.7h4.6v-1a2 2 0 00-.5-.7l-.7-.5-1-.1zm8.6-5.9v3L87 34c0 .3-.1.5-.3.7l-.6.2c-.2 0-.4 0-.5-.2-.2-.2-.3-.4-.3-.7l-.2-1.6v-2.9H87zm3.7 0v3l-.2 1.5c0 .3-.2.5-.3.7l-.6.2c-.2 0-.4 0-.6-.2L89 34l-.3-1.6v-2.9h2.2z"/>
        <rect width="54" height="20" x="25" fill="#6A6A6A" rx="4"/>
        <path fill="#FFF" fill-rule="nonzero" d="M32.8 4.5c.5 0 .8 0 1.2.2l.9.5a2.2 2.2 0 01.8 1.7l-.1.8-.3.6-.5.4-.6.3c.5.2 1 .5 1.2.8.3.4.4.9.4 1.4 0 .5 0 .9-.2 1.3l-.7.9a3 3 0 01-1 .5 4.2 4.2 0 01-2.5 0 2.7 2.7 0 01-1.6-1.2l-.5-1 .8-.4h.6l.2.2.3.5.3.4a1.6 1.6 0 001.1.4c.3 0 .5 0 .7-.2.2 0 .4-.2.5-.3a1.4 1.4 0 00.4-1v-.7a1 1 0 00-.3-.4c-.2-.2-.4-.3-.7-.3l-1.1-.1V8.6h1l.6-.4.3-.4v-.6c0-.4 0-.8-.3-1-.2-.2-.5-.4-1-.4A1.5 1.5 0 0031.3 7c0 .2-.2.3-.3.4h-.3-1.1c0-.5.2-1 .4-1.3a2.8 2.8 0 011.7-1.3l1.1-.2zm5.3 8.3H40V7.3v-.7l-1.4 1.2h-.1l-.2.1a.5.5 0 01-.4-.2l-.5-.7 2.8-2.4h1.4v8.2h1.7V14H38v-1.2zm9.2-2.6l-1-.1A2.4 2.4 0 0145 8.7a3 3 0 01-.2-1.2 3 3 0 011.9-2.8l1.3-.2c.5 0 1 0 1.3.2l1 .7c.2.2.5.6.6 1l.2 1.2a4.4 4.4 0 01-.6 2.3 9 9 0 01-.4.7l-2.2 3-.3.3-.5.1h-1.5l3-3.6a9.1 9.1 0 00.3-.6c-.2.2-.4.3-.7.3a3 3 0 01-.8.1zm2.2-2.8l-.1-.7a1.4 1.4 0 00-.9-.8 1.8 1.8 0 00-1.3 0 1.4 1.4 0 00-.8.9l-.1.6c0 .5.1 1 .4 1.2.3.3.7.4 1.2.4h.6l.6-.4c0-.2.2-.3.3-.5v-.7zm9-2.8v.7a1.5 1.5 0 01-.2.8l-3.6 7.4-.3.3-.5.2h-1.2l3.7-7.2.5-.7h-4.5c-.1 0-.2 0-.3-.2V4.6h6.4zm3.9 5.6l-1-.1A2.4 2.4 0 0160 8.7a3 3 0 01-.2-1.2 3 3 0 011.9-2.8l1.3-.2c.5 0 .9 0 1.3.2l1 .7.6 1 .2 1.2a4.4 4.4 0 01-.6 2.3 9 9 0 01-.5.7l-2.1 3-.3.3-.5.1h-1.5l3-3.6a9.1 9.1 0 00.3-.6c-.2.2-.5.3-.7.3a3 3 0 01-.8.1zm2.2-2.8c0-.2 0-.4-.2-.7a1.4 1.4 0 00-.8-.8 1.8 1.8 0 00-1.3 0 1.4 1.4 0 00-.8.9l-.1.6c0 .5.1 1 .4 1.2.3.3.6.4 1.1.4h.7l.5-.4.4-.5v-.7zm2.3 5.7a1 1 0 01.3-.7 1 1 0 01.7-.3 1 1 0 01.7.3 1 1 0 01.2 1.1c0 .1 0 .2-.2.3l-.3.2a1 1 0 01-1-.2c-.2 0-.2-.2-.3-.3v-.4zm3 0a1 1 0 01.2-.7 1 1 0 01.8-.3 1 1 0 01.6.3 1 1 0 01.3 1.1l-.3.3c0 .1-.1.2-.3.2a1 1 0 01-1-.2l-.3-.3v-.4zm2.9 0a1 1 0 01.3-.7 1 1 0 01.7-.3 1 1 0 01.7.3 1 1 0 01.2 1.1l-.2.3-.3.2a1 1 0 01-1-.2c-.2 0-.3-.2-.3-.3l-.1-.4z"/>
      </g>
      <g transform="translate(257 18)">
        <rect width="102" height="49" x="1.5" y="8.5" fill="#FFF" stroke="#6A6A6A" stroke-width="3" rx="12"/>
        <path fill="#3D4251" fill-rule="nonzero" d="M31.4 29.5v3l-.2 1.5-.2.7-.6.2c-.3 0-.5 0-.6-.2-.2-.2-.2-.4-.3-.7l-.2-1.6v-2.9h2.1zm3.7 0v3L35 34c0 .3-.1.5-.3.7l-.6.2c-.2 0-.4 0-.5-.2-.2-.2-.3-.4-.3-.7l-.2-1.6v-2.9H35zm5.3-.4V44h-2.5V29.1h2.5zm7.1 4.5c.8 0 1.5.1 2.1.4a4.5 4.5 0 012.6 2.7 6.3 6.3 0 010 4.4c-.2.6-.5 1.2-1 1.6-.4.5-1 .8-1.6 1a5.7 5.7 0 01-4.2 0 4.5 4.5 0 01-2.6-2.7c-.2-.6-.3-1.3-.3-2.1 0-.9 0-1.6.3-2.2l1-1.7c.5-.5 1-.8 1.7-1 .6-.3 1.3-.4 2-.4zm0 8.6c.9 0 1.5-.2 2-.8.4-.6.6-1.4.6-2.5s-.2-2-.7-2.6c-.4-.5-1-.8-1.9-.8-.8 0-1.5.3-1.9.8-.4.6-.6 1.5-.6 2.6 0 1 .2 2 .6 2.5.4.6 1 .9 2 .9zM59.7 44h-2.3l-4-10.3h2c.2 0 .3 0 .5.2l.2.3 2 5.5a10.3 10.3 0 01.5 1.8 18.2 18.2 0 01.5-1.8l2-5.5.3-.3.4-.2h2L59.6 44zm9.7-10.4a5 5 0 011.8.3 4 4 0 012.4 2.4 5.5 5.5 0 01.3 2.4l-.1.3-.2.1H67c0 1.1.3 2 .8 2.4.5.5 1.2.7 2 .7l1-.1c.3 0 .6-.2.8-.3l.6-.3.4-.2.3.1.2.2.7.9-1 .8a5.2 5.2 0 01-2.1.8 8 8 0 01-1.1 0c-.7 0-1.4 0-2-.3-.6-.2-1.2-.6-1.6-1a5 5 0 01-1-1.8 6.7 6.7 0 01-.1-4.3c.2-.6.5-1.2 1-1.6.4-.5.9-.9 1.5-1.1.6-.3 1.3-.4 2-.4zm0 1.8c-.6 0-1.2.2-1.6.6a3 3 0 00-.8 1.7h4.7c0-.3 0-.6-.2-1a2 2 0 00-.4-.7l-.6-.5-1-.1zm8.6-5.9v3l-.2 1.5c0 .3-.1.5-.3.7l-.6.2c-.2 0-.4 0-.5-.2-.2-.2-.3-.4-.3-.7l-.2-1.6v-2.9H78zm3.7 0v3l-.2 1.5c0 .3-.1.5-.3.7l-.6.2c-.2 0-.4 0-.5-.2-.2-.2-.3-.4-.3-.7l-.2-1.6v-2.9h2.1z"/>
        <rect width="54" height="20" x="25" fill="#6A6A6A" rx="4"/>
        <path fill="#FFF" fill-rule="nonzero" d="M32.8 4.5c.5 0 .8 0 1.2.2l.9.5a2.2 2.2 0 01.8 1.7l-.1.8-.3.6-.5.4-.6.3c.5.2 1 .5 1.2.8.3.4.4.9.4 1.4 0 .5 0 .9-.2 1.3l-.7.9a3 3 0 01-1 .5 4.2 4.2 0 01-2.5 0 2.7 2.7 0 01-1.6-1.2l-.5-1 .8-.4h.6l.2.2.3.5.3.4a1.6 1.6 0 001.1.4c.3 0 .5 0 .7-.2.2 0 .4-.2.5-.3a1.4 1.4 0 00.4-1v-.7a1 1 0 00-.3-.4c-.2-.2-.4-.3-.7-.3l-1.1-.1V8.6h1l.6-.4.3-.4v-.6c0-.4 0-.8-.3-1-.2-.2-.5-.4-1-.4A1.5 1.5 0 0031.3 7c0 .2-.2.3-.3.4h-.3-1.1c0-.5.2-1 .4-1.3a2.8 2.8 0 011.7-1.3l1.1-.2zm10.6.1v.7a1.5 1.5 0 01-.2.8l-3.5 7.4-.3.3-.6.2h-1.2l3.7-7.2.5-.7h-4.5c-.1 0-.2 0-.3-.2V4.6h6.4zm7.7 4.7c0 .8-.1 1.5-.3 2.1-.2.6-.4 1.1-.7 1.5a3 3 0 01-1.1 1l-1.4.2c-.5 0-1 0-1.4-.3a3 3 0 01-1-.9c-.4-.4-.6-.9-.8-1.5l-.2-2.1c0-.8 0-1.5.2-2.1.2-.6.4-1.1.7-1.5a3 3 0 012.5-1.2c.5 0 1 0 1.4.3.4.2.8.5 1 .9.4.4.6.9.8 1.5.2.6.3 1.3.3 2.1zm-1.7 0a8 8 0 00-.1-1.7l-.4-1-.6-.6a1.5 1.5 0 00-1.4 0c-.2 0-.4.3-.5.5L46 7.6l-.2 1.7c0 .7 0 1.2.2 1.7 0 .4.2.8.4 1 .1.3.3.5.5.6a1.5 1.5 0 001.4 0c.2 0 .4-.3.6-.5l.4-1.1.1-1.7zm5.9-4.8c.4 0 .8 0 1.2.2l1 .5c.2.3.4.5.5.9l.2 1-.1 1a4 4 0 01-.4.9l-.6.8-.8.7-2 2.2a5.1 5.1 0 011.1-.2h2.4c.2 0 .3 0 .4.2l.2.3v1h-6.5v-.5a1 1 0 01.3-.7l2.9-2.9a13.5 13.5 0 001-1.3l.4-.7v-.7-.6a1.2 1.2 0 00-.7-.7h-.6c-.4 0-.7 0-1 .2l-.5.8c0 .2 0 .3-.2.4h-1.4c0-.5.2-1 .4-1.3A2.8 2.8 0 0154 4.7l1.2-.2zm10.8 4.8c0 .8 0 1.5-.2 2.1-.2.6-.4 1.1-.8 1.5a3 3 0 01-1 1l-1.4.2c-.5 0-1 0-1.4-.3a3 3 0 01-1-.9c-.4-.4-.6-.9-.8-1.5a7.8 7.8 0 010-4.3l.7-1.4a3 3 0 012.5-1.2c.5 0 1 0 1.3.3.5.2.8.5 1.1.9.4.4.6.9.8 1.5l.2 2.1zm-1.6 0a8 8 0 00-.2-1.7c0-.4-.2-.8-.4-1-.1-.3-.3-.5-.5-.6A1.5 1.5 0 0062 6c-.2 0-.4.3-.6.5-.1.3-.3.7-.3 1.1l-.2 1.7c0 .7 0 1.2.2 1.7 0 .4.2.8.3 1l.6.6a1.5 1.5 0 001.4 0c.2 0 .4-.3.5-.5l.4-1.1.2-1.7zm2.4 3.8a1 1 0 01.3-.7 1 1 0 01.7-.3 1 1 0 01.7.3 1 1 0 01.2 1.1c0 .1 0 .2-.2.3l-.3.2a1 1 0 01-1-.2c-.2 0-.2-.2-.3-.3v-.4zm3 0a1 1 0 01.2-.7 1 1 0 01.8-.3 1 1 0 01.6.3 1 1 0 01.3 1.1l-.3.3c0 .1-.1.2-.3.2a1 1 0 01-1-.2l-.3-.3v-.4zm2.9 0a1 1 0 01.3-.7 1 1 0 01.7-.3 1 1 0 01.7.3 1 1 0 01.2 1.1l-.2.3-.3.2a1 1 0 01-1-.2c-.2 0-.3-.2-.3-.3l-.1-.4z"/>
      </g>
      <path fill="#FFF" fill-rule="nonzero" d="M14 79.5c.2 0 .3.2.4.3v.3l-.1.5a15.3 15.3 0 00-.7 1.3l-.1 1.1v1l.5.7.5.4.8.2c.3 0 .6-.1.8-.3.3-.2.4-.5.6-.8l.4-1a52.4 52.4 0 011-2.5c.1-.4.4-.8.7-1a3.3 3.3 0 012.6-1.1 5 5 0 011.8.3 4.2 4.2 0 012.5 2.6 6.9 6.9 0 01-1.5 6.9l-1.3-.8-.3-.3V87l.1-.6a16.3 16.3 0 001-1.6l.1-1.3c0-.7-.1-1.3-.5-1.7-.4-.5-.9-.7-1.6-.7-.3 0-.7.1-.9.3l-.6.8-.4 1a35.5 35.5 0 01-.9 2.5 4 4 0 01-.7 1c-.3.4-.7.6-1.1.8a4.3 4.3 0 01-4.6-1c-.3-.4-.7-.9-.9-1.4a6.7 6.7 0 010-4.4c.3-.7.7-1.3 1.2-1.8l1.3.6zm-2.6-13.2h2.2v4.4H26v2.7H13.6v4.3h-2.2V66.3zm8.8-4.4H26v2.6H11.4v-4.4c0-1 .1-1.8.3-2.5.2-.7.5-1.3.9-1.7.4-.5.8-.8 1.3-1 .5-.2 1-.3 1.7-.3a4.4 4.4 0 012.5.8l1 1c.2.4.5.8.6 1.4l.8-1 5.4-3.5v2.4c0 .2 0 .4-.2.6l-.4.4-4.6 3a1 1 0 00-.4.4V61.9zm-1.9 0v-1.7c0-.5 0-1-.2-1.4l-.5-.9-.8-.5c-.3-.2-.6-.2-1-.2a2 2 0 00-1.7.7c-.4.5-.6 1.2-.6 2.2v1.7h4.8zM26 48.5v2.7H11.4v-2.7H26zm-14.5-4.7v-.3l.1-.2.1-.2s.2 0 .3-.2l9.6-7.5a10 10 0 01-1.3 0h-8.8v-2.3H26v1.3l-.1.6-.4.4-9.6 7.5a13.9 13.9 0 011.2 0h8.9v2.4H11.4v-1.5zM24 23.5a6.7 6.7 0 00-.6-2.9h-2.6v1.8c0 .2 0 .3-.2.4l-.3.2h-1.6v-4.8h5.9a8 8 0 011.4 3.8l.1 1.7a7 7 0 01-4.4 6.7 8 8 0 01-3 .6c-1 0-2-.2-3-.6a6.7 6.7 0 01-3.8-3.8c-.4-1-.5-2-.5-3.1a7 7 0 011.9-5.3l1.2.8c.2.1.3.3.3.6l-.1.5a38 38 0 00-.7 1.4 6 6 0 000 4l1 1.5a6.3 6.3 0 003.7 1.3c.9 0 1.6-.2 2.3-.4.6-.3 1.2-.6 1.6-1 .5-.4.8-1 1-1.5a5 5 0 00.4-2zm14.2 51.8l.3.3v.3l-.1.5a15.3 15.3 0 00-.7 1.3l-.1 1.1v1l.5.7.5.4.8.2c.3 0 .6-.1.8-.3.3-.2.4-.5.6-.8l.4-1a52.4 52.4 0 011-2.5c.1-.4.4-.8.7-1a3.3 3.3 0 012.6-1.1 5 5 0 011.8.3 4.2 4.2 0 012.5 2.6 6.9 6.9 0 01-1.5 6.9l-1.3-.8-.3-.3v-.3l.1-.6a16.3 16.3 0 001-1.6l.1-1.3c0-.7-.1-1.3-.5-1.8-.4-.4-.9-.6-1.6-.6-.3 0-.7.1-.9.3l-.6.8-.4 1a35.5 35.5 0 01-.9 2.5 4 4 0 01-.7 1l-1.1.8a4.3 4.3 0 01-4.6-1c-.3-.4-.7-.9-.9-1.5-.2-.5-.3-1.2-.3-2s.1-1.6.4-2.3c.2-.7.6-1.4 1-1.9l1.4.7zm-2.7-13.2h2.2v4.4H50v2.7H37.6v4.3h-2.2V62.1zm7.3-15.5c1 0 2 .1 2.9.5a6.7 6.7 0 013.9 3.8c.4.9.5 1.9.5 3a6.8 6.8 0 01-4.4 6.8 8 8 0 01-3 .5c-1 0-2-.2-2.9-.5a7 7 0 01-3.9-3.8c-.4-1-.5-2-.5-3 0-1.1.2-2.1.5-3a6.8 6.8 0 014-3.8 8 8 0 012.9-.5zm0 2.7c-.8 0-1.5.1-2.2.3-.6.2-1.1.5-1.6 1-.4.3-.8.8-1 1.4a5 5 0 00-.3 1.9c0 .7 0 1.3.3 1.9.2.5.6 1 1 1.4l1.6 1c.7.2 1.4.3 2.2.3.7 0 1.5-.1 2-.4a4 4 0 002.6-2.4 5 5 0 00.4-1.8 5 5 0 00-.3-2 4 4 0 00-1-1.4c-.4-.4-1-.7-1.6-.9-.6-.2-1.4-.3-2.1-.3zm1.5-7.6H50v2.6H35.4V40c0-1 .1-1.8.3-2.5.2-.7.5-1.3.9-1.7.4-.5.8-.8 1.3-1 .5-.2 1-.3 1.7-.3a4.4 4.4 0 012.5.8l1 1c.2.4.5.8.6 1.4l.8-1 5.4-3.5v2.4c0 .2 0 .4-.2.6l-.4.4-4.6 3a1 1 0 00-.4.4V41.7zm-1.9 0V40c0-.5 0-1-.2-1.4l-.5-.9-.8-.5c-.3-.2-.6-.2-1-.2a2 2 0 00-1.7.7c-.4.5-.6 1.2-.6 2.2v1.8h4.8zm-6.9-19.5h2.2v6.4h4v-5h2v5h4.1v-6.4H50v9.1H35.4v-9z"/>
    </g>
    <path fill="#6A6A6A" d="M140.5 146.4L137 142h7z"/>
    <path fill="#6A6A6A" d="M140.5 105l3.5 4.4h-7z"/>
    <path stroke="#6A6A6A" stroke-linecap="square" stroke-width="2" d="M140.4 141v-30.7"/>
    <g>
      <path fill="#6A6A6A" d="M316.5 146.4L313 142h7z"/>
      <path fill="#6A6A6A" d="M316.5 105l3.5 4.4h-7z"/>
      <path stroke="#6A6A6A" stroke-linecap="square" stroke-width="2" d="M316.4 141v-30.7"/>
    </g>
    <g>
      <path fill="#6A6A6A" d="M492.5 146.4L489 142h7z"/>
      <path fill="#6A6A6A" d="M492.5 105l3.5 4.4h-7z"/>
      <path stroke="#6A6A6A" stroke-linecap="square" stroke-width="2" d="M492.4 141v-30.7"/>
    </g>
    <g>
      <path fill="#6A6A6A" d="M140 253l-3.5-4.5h7z"/>
      <path fill="#6A6A6A" d="M140 211.5l3.5 4.4h-7z"/>
      <path stroke="#6A6A6A" stroke-linecap="square" stroke-width="2" d="M140 247.6v-30.8"/>
      <g>
        <path fill="#6A6A6A" d="M316 253l-3.5-4.5h7z"/>
        <path fill="#6A6A6A" d="M316 211.5l3.5 4.4h-7z"/>
        <path stroke="#6A6A6A" stroke-linecap="square" stroke-width="2" d="M316 247.6v-30.8"/>
      </g>
      <g>
        <path fill="#6A6A6A" d="M492 253l-3.5-4.5h7z"/>
        <path fill="#6A6A6A" d="M492 211.5l3.5 4.4h-7z"/>
        <path stroke="#6A6A6A" stroke-linecap="square" stroke-width="2" d="M492 247.6v-30.8"/>
      </g>
    </g>
  </g>
</svg>
