#define wn_width 135
#define wn_height 116
static char wn_bits[] = {
   0x00, 0x00, 0x00, 0x00, 0x00, 0x00, 0x00, 0x00, 0x00, 0x00, 0x00, 0x00,
   0x00, 0x00, 0x00, 0x00, 0x80, 0x00, 0x00, 0x00, 0x00, 0x00, 0x00, 0x00,
   0x00, 0x00, 0x00, 0x00, 0x00, 0x00, 0x00, 0x00, 0x00, 0x80, 0x00, 0x00,
   0x00, 0x00, 0x00, 0x00, 0x00, 0x00, 0x00, 0x00, 0x00, 0x00, 0x00, 0x00,
   0x00, 0x00, 0x80, 0x00, 0x00, 0x00, 0x00, 0x00, 0x00, 0x00, 0x00, 0x00,
   0x00, 0x00, 0x00, 0x00, 0x00, 0x00, 0x00, 0x80, 0x00, 0x00, 0x00, 0x00,
   0x00, 0x00, 0x00, 0x00, 0x00, 0x00, 0x00, 0x00, 0x00, 0x00, 0x00, 0x00,
   0x80, 0x00, 0x00, 0x00, 0x00, 0x00, 0x00, 0x00, 0x00, 0x00, 0x80, 0xff,
   0x07, 0x00, 0x00, 0x00, 0x00, 0x80, 0x00, 0x00, 0x00, 0x00, 0x00, 0x00,
   0x00, 0x00, 0x00, 0xf0, 0x00, 0x78, 0x00, 0x00, 0x00, 0x00, 0x80, 0x00,
   0x00, 0x00, 0x00, 0x00, 0x00, 0x00, 0x00, 0x00, 0x3c, 0xfe, 0x87, 0x0f,
   0x00, 0x00, 0x00, 0x80, 0x00, 0x00, 0x00, 0x00, 0x00, 0x00, 0x00, 0x00,
   0x00, 0x86, 0xff, 0x3f, 0x30, 0x00, 0x00, 0x00, 0x80, 0x00, 0x00, 0x00,
   0x00, 0x00, 0x00, 0x00, 0x00, 0x00, 0x63, 0x00, 0xf0, 0xc7, 0x00, 0x00,
   0x00, 0x80, 0x00, 0x00, 0x00, 0x00, 0x00, 0x00, 0x00, 0x00, 0x80, 0x19,
   0x00, 0x80, 0x1f, 0x01, 0x00, 0x00, 0x80, 0x00, 0x00, 0x00, 0x00, 0x00,
   0x00, 0x00, 0x00, 0xc0, 0x04, 0x00, 0x00, 0x78, 0x02, 0x00, 0x00, 0x80,
   0x00, 0x00, 0x00, 0x00, 0x00, 0x00, 0x00, 0x00, 0xc0, 0x06, 0x00, 0x00,
   0xc0, 0x04, 0x00, 0x00, 0x80, 0x00, 0x00, 0x00, 0x00, 0x00, 0x00, 0x00,
   0x00, 0x60, 0x02, 0x00, 0xc0, 0x80, 0x09, 0x00, 0x00, 0x80, 0x00, 0x00,
   0x00, 0x0c, 0x00, 0x00, 0x00, 0x00, 0x70, 0x02, 0x00, 0x80, 0x00, 0x13,
   0x00, 0x00, 0x80, 0x00, 0x78, 0x00, 0x1e, 0x00, 0x00, 0x00, 0x00, 0x1f,
   0x01, 0x00, 0xc0, 0x00, 0x36, 0x00, 0x00, 0x80, 0x00, 0x7f, 0x00, 0x7e,
   0x00, 0x00, 0x00, 0x02, 0xff, 0xc0, 0x03, 0x80, 0x01, 0xee, 0x00, 0x00,
   0x80, 0xc0, 0x7f, 0x00, 0xfc, 0x00, 0x00, 0x00, 0x06, 0xff, 0x80, 0x0f,
   0x80, 0x01, 0xcc, 0x00, 0x00, 0x80, 0xe0, 0x7f, 0x00, 0xfc, 0x03, 0x00,
   0x00, 0x06, 0xff, 0x80, 0x1f, 0x80, 0x03, 0xcc, 0x01, 0x00, 0x80, 0xf0,
   0x7f, 0x00, 0xfc, 0x0f, 0x00, 0x00, 0x0e, 0xfe, 0x81, 0x1f, 0x80, 0x07,
   0x5c, 0x02, 0x00, 0x80, 0xe0, 0x7f, 0x00, 0xfc, 0x3f, 0x00, 0x00, 0x0c,
   0xfe, 0x81, 0x1f, 0x80, 0x07, 0x58, 0x04, 0x00, 0x80, 0xc0, 0x7f, 0x00,
   0xfc, 0x3f, 0x00, 0x00, 0x1c, 0xfe, 0x81, 0x1f, 0x80, 0x07, 0x58, 0x08,
   0x00, 0x80, 0xc0, 0x7f, 0x00, 0xfc, 0x3f, 0x00, 0x00, 0x3c, 0xfe, 0x83,
   0x1f, 0x80, 0x07, 0x58, 0x10, 0x00, 0x80, 0x80, 0xff, 0x00, 0xfc, 0x1f,
   0x00, 0x00, 0x7c, 0xfe, 0x83, 0x1f, 0x80, 0x07, 0x58, 0x20, 0x00, 0x80,
   0x80, 0xff, 0x00, 0xfc, 0x0f, 0x00, 0x00, 0x7c, 0xfe, 0x87, 0x1f, 0x80,
   0x07, 0xd8, 0x20, 0x00, 0x80, 0x00, 0xff, 0x00, 0xfc, 0x0f, 0x00, 0x00,
   0x7c, 0xfe, 0x87, 0x0f, 0x80, 0x07, 0x58, 0x41, 0x00, 0x80, 0x00, 0xff,
   0x00, 0xfc, 0x07, 0x00, 0x00, 0x3c, 0xfe, 0x87, 0x0f, 0x80, 0x07, 0x5c,
   0x81, 0x00, 0x80, 0x00, 0xff, 0x00, 0xfc, 0x07, 0x00, 0x00, 0xbc, 0xfe,
   0x8f, 0x0f, 0x00, 0x07, 0x2c, 0x03, 0x01, 0x80, 0x00, 0xfe, 0x00, 0xfc,
   0x03, 0x00, 0x00, 0xbc, 0xfe, 0x8f, 0x0f, 0x00, 0x07, 0x6c, 0x02, 0x02,
   0x80, 0x00, 0xfe, 0x18, 0xfe, 0x03, 0x00, 0x00, 0xbc, 0xfe, 0x9f, 0x0f,
   0x00, 0x07, 0xa4, 0x03, 0x02, 0x80, 0x00, 0xfe, 0x19, 0xfe, 0x03, 0x00,
   0x00, 0x3c, 0xfe, 0x9f, 0x0f, 0x00, 0x07, 0x24, 0xfe, 0x07, 0x80, 0x00,
   0xfe, 0x39, 0xfe, 0x03, 0x00, 0x00, 0x3e, 0xfe, 0x9f, 0x0f, 0x00, 0x07,
   0x16, 0x04, 0x04, 0x80, 0x00, 0xfe, 0x39, 0xfe, 0x01, 0x00, 0x00, 0x3e,
   0xfe, 0xbf, 0x0f, 0x00, 0x07, 0x12, 0x04, 0x0c, 0x80, 0x00, 0xfc, 0x3d,
   0xfe, 0x01, 0x00, 0x03, 0xbe, 0xfe, 0xbf, 0x0f, 0x00, 0x07, 0x0b, 0x04,
   0x08, 0x80, 0x00, 0xfc, 0x7d, 0xfe, 0x61, 0xd8, 0x07, 0xbe, 0xbe, 0xff,
   0x8f, 0x0f, 0x87, 0x05, 0x04, 0x08, 0x80, 0x00, 0xfc, 0x7f, 0xfe, 0xf0,
   0xf8, 0x87, 0x9f, 0xbe, 0xff, 0xcf, 0xdf, 0xcf, 0x05, 0x04, 0x10, 0x80,
   0x00, 0xfc, 0xff, 0xfe, 0xf8, 0xf9, 0xcf, 0x3f, 0x3f, 0xff, 0xcf, 0xdf,
   0xcf, 0x02, 0x08, 0x10, 0x80, 0x00, 0xfc, 0xff, 0xff, 0xfc, 0xf1, 0xef,
   0x3f, 0x3f, 0xff, 0xef, 0xd9, 0x6f, 0x01, 0x08, 0x20, 0x80, 0x00, 0xf8,
   0xff, 0xff, 0xfc, 0xf9, 0xef, 0x3f, 0x3f, 0xfe, 0xef, 0xdf, 0x37, 0x01,
   0x08, 0x20, 0x80, 0x00, 0xf8, 0xff, 0x7f, 0xde, 0xfb, 0xe6, 0x3e, 0x3f,
   0xfe, 0xef, 0x1f, 0x93, 0x00, 0x08, 0x20, 0x80, 0x00, 0xf8, 0xff, 0x7f,
   0xde, 0x79, 0xf0, 0xbc, 0x3f, 0xfe, 0xef, 0x07, 0x4b, 0x07, 0x08, 0x20,
   0x80, 0x00, 0xf8, 0xff, 0x7f, 0xde, 0x79, 0xf0, 0xbc, 0x3f, 0xfe, 0xef,
   0x90, 0xa7, 0x1c, 0x08, 0x20, 0x80, 0x00, 0xf8, 0xff, 0x3f, 0xfe, 0x7d,
   0xf0, 0xbe, 0x3f, 0xfc, 0xef, 0x9d, 0x9b, 0xf1, 0x0d, 0x20, 0x80, 0x00,
   0xf8, 0xff, 0x3f, 0xfe, 0x7c, 0xf0, 0x9f, 0x3f, 0xfc, 0xef, 0x9f, 0x2d,
   0x01, 0x1f, 0x20, 0x80, 0x00, 0xf0, 0xef, 0x3f, 0x7c, 0x7c, 0xf0, 0xdf,
   0x3f, 0xfc, 0xc7, 0x9f, 0x3e, 0x01, 0xf0, 0x21, 0x80, 0x00, 0xf0, 0xc7,
   0x1f, 0x38, 0xfe, 0xe0, 0x9f, 0x3f, 0xf8, 0x87, 0x4f, 0x3e, 0x02, 0x10,
   0x3e, 0x80, 0x00, 0xf0, 0xc7, 0x1f, 0x00, 0x7e, 0xe0, 0x17, 0x3c, 0x78,
   0x00, 0x30, 0x01, 0x02, 0x10, 0x40, 0x80, 0x00, 0xf0, 0x87, 0x1f, 0x00,
   0x00, 0x00, 0x16, 0x00, 0x00, 0x00, 0xd8, 0x00, 0x02, 0x10, 0x40, 0x80,
   0x00, 0xe0, 0x83, 0x03, 0x00, 0x00, 0x00, 0x16, 0x00, 0x00, 0x00, 0x6c,
   0x00, 0x02, 0x10, 0x40, 0x80, 0x00, 0xe0, 0x00, 0x00, 0x00, 0x00, 0x00,
   0x16, 0x00, 0x00, 0x00, 0x36, 0x00, 0x02, 0x10, 0x40, 0x80, 0x00, 0x00,
   0x00, 0x00, 0x00, 0x00, 0x00, 0x16, 0x00, 0x00, 0x00, 0x3b, 0x00, 0x02,
   0x10, 0x40, 0x80, 0x00, 0x00, 0x00, 0x00, 0x00, 0x00, 0x00, 0x16, 0x00,
   0x00, 0x80, 0x35, 0x00, 0x02, 0x10, 0x40, 0x80, 0x00, 0x00, 0x00, 0x00,
   0x00, 0x00, 0x00, 0x16, 0x00, 0x00, 0xe0, 0xf6, 0x00, 0x02, 0x10, 0x20,
   0x80, 0x00, 0x00, 0x00, 0x00, 0x00, 0x00, 0x00, 0x2c, 0x00, 0x00, 0x38,
   0x11, 0x07, 0x02, 0x00, 0x20, 0x80, 0x00, 0x00, 0x00, 0x00, 0x00, 0x00,
   0x00, 0x2c, 0x00, 0x00, 0x8e, 0x08, 0x7c, 0x02, 0x10, 0x20, 0x80, 0x00,
   0x00, 0x00, 0x00, 0x00, 0x00, 0x00, 0x58, 0x00, 0x80, 0x61, 0x08, 0x00,
   0x0f, 0x10, 0x20, 0x80, 0x00, 0x00, 0x00, 0x00, 0x00, 0x00, 0x00, 0x90,
   0x01, 0x60, 0x1e, 0x08, 0x00, 0xf6, 0x10, 0x20, 0x80, 0x00, 0x00, 0x00,
   0x00, 0x00, 0x00, 0x00, 0x30, 0x0e, 0x1c, 0x01, 0x0c, 0x00, 0x81, 0xdf,
   0x1f, 0x80, 0x00, 0x00, 0x00, 0x00, 0x00, 0x00, 0x00, 0xe0, 0xf0, 0xc7,
   0x00, 0x04, 0x00, 0x00, 0x10, 0x18, 0x80, 0x00, 0x00, 0x00, 0x00, 0x00,
   0x00, 0x00, 0xe0, 0x03, 0xb8, 0x01, 0x04, 0x00, 0x03, 0x10, 0x10, 0x80,
   0x00, 0x00, 0x00, 0x00, 0x00, 0x00, 0x00, 0x30, 0xff, 0x07, 0x03, 0x02,
   0x00, 0x01, 0x10, 0x10, 0x80, 0x00, 0x00, 0x00, 0x00, 0x00, 0x00, 0x00,
   0xb0, 0x78, 0x00, 0x0e, 0x00, 0x80, 0x00, 0x18, 0x10, 0x80, 0x00, 0x00,
   0x00, 0x00, 0x00, 0x00, 0x00, 0x58, 0xc0, 0x01, 0x38, 0x02, 0x80, 0x00,
   0x08, 0x10, 0x80, 0x00, 0x00, 0x00, 0x00, 0x00, 0x00, 0x00, 0x4c, 0x00,
   0x02, 0xe0, 0x02, 0x80, 0x00, 0x08, 0x10, 0x80, 0x00, 0x00, 0x00, 0x00,
   0x00, 0x00, 0x00, 0x2c, 0x00, 0x3c, 0x80, 0x03, 0x40, 0x00, 0x08, 0x10,
   0x80, 0x00, 0x00, 0x00, 0x00, 0x00, 0x00, 0x00, 0x26, 0x00, 0xc0, 0x03,
   0x07, 0x40, 0x00, 0x0c, 0x08, 0x80, 0x00, 0x00, 0x00, 0x00, 0x00, 0x00,
   0x00, 0x17, 0x00, 0x00, 0x9c, 0x1c, 0x20, 0x00, 0x04, 0x08, 0x80, 0x00,
   0x00, 0x00, 0x00, 0x00, 0x00, 0x00, 0x13, 0x00, 0x00, 0xe0, 0xe0, 0x20,
   0x00, 0x04, 0x08, 0x80, 0x00, 0x00, 0x00, 0x00, 0x00, 0x00, 0x80, 0x0b,
   0x00, 0x00, 0x00, 0x81, 0x13, 0x00, 0x06, 0x08, 0x80, 0x00, 0x00, 0x00,
   0x00, 0x00, 0x00, 0x80, 0x09, 0x00, 0x00, 0x00, 0x06, 0x1e, 0x00, 0x02,
   0x08, 0x80, 0x00, 0x00, 0x00, 0x00, 0x00, 0x00, 0xc0, 0x04, 0x00, 0x00,
   0x00, 0x08, 0xb0, 0x01, 0x02, 0x08, 0x80, 0x00, 0x00, 0x00, 0x00, 0x00,
   0x00, 0xc0, 0x06, 0x00, 0x00, 0x00, 0x10, 0x18, 0x07, 0x02, 0x08, 0x80,
   0x00, 0x00, 0x00, 0x00, 0x00, 0x00, 0x60, 0x02, 0x00, 0x00, 0x00, 0x20,
   0x08, 0x38, 0x02, 0x08, 0x80, 0x00, 0x00, 0x00, 0x00, 0x00, 0x00, 0x60,
   0x01, 0x00, 0x00, 0x00, 0x40, 0x0c, 0xe0, 0x03, 0x08, 0x80, 0x00, 0x00,
   0x00, 0x00, 0x00, 0x00, 0x30, 0x01, 0x00, 0x00, 0x00, 0x40, 0x04, 0x00,
   0x3f, 0x08, 0x80, 0x00, 0x00, 0x00, 0x00, 0x00, 0x00, 0x98, 0x00, 0x00,
   0x00, 0x00, 0x80, 0x06, 0x00, 0xc1, 0x0f, 0x80, 0x00, 0x00, 0x00, 0x00,
   0x00, 0x00, 0x58, 0x00, 0x00, 0x00, 0x00, 0x00, 0x03, 0x80, 0x01, 0x08,
   0x80, 0x00, 0x00, 0x00, 0x00, 0x00, 0x00, 0x4c, 0x00, 0x00, 0x00, 0x00,
   0x00, 0x01, 0x80, 0x00, 0x08, 0x80, 0x00, 0x00, 0x00, 0x00, 0x00, 0x00,
   0x26, 0x00, 0x00, 0x00, 0x00, 0x00, 0x01, 0x80, 0x00, 0x0c, 0x80, 0x00,
   0x00, 0x00, 0x00, 0x00, 0x00, 0x26, 0x00, 0x00, 0x00, 0x00, 0x00, 0x01,
   0x40, 0x00, 0x0c, 0x80, 0x00, 0x00, 0x00, 0x00, 0x00, 0x00, 0x13, 0x00,
   0x00, 0x00, 0x00, 0x00, 0x02, 0x40, 0x00, 0x14, 0x80, 0x00, 0x00, 0x00,
   0x00, 0x00, 0x80, 0x13, 0x00, 0x00, 0x00, 0x00, 0x00, 0x02, 0x40, 0x00,
   0x16, 0x80, 0x00, 0x00, 0x00, 0x00, 0x00, 0x80, 0x09, 0x00, 0x00, 0x00,
   0x00, 0x00, 0x02, 0x20, 0x00, 0x22, 0x80, 0x00, 0x00, 0x00, 0x00, 0x00,
   0xc0, 0x04, 0x00, 0x00, 0x00, 0x00, 0x00, 0x02, 0x20, 0x00, 0x22, 0x80,
   0x00, 0x00, 0x00, 0x00, 0x00, 0x60, 0x04, 0x00, 0x00, 0x00, 0x00, 0x00,
   0x06, 0x20, 0x00, 0x22, 0x80, 0x00, 0x00, 0x00, 0x00, 0x00, 0x60, 0x02,
   0x00, 0x00, 0x00, 0x00, 0x00, 0x0e, 0x20, 0x00, 0x41, 0x80, 0x00, 0x00,
   0x00, 0x00, 0x00, 0x30, 0x01, 0x00, 0x00, 0x00, 0x00, 0x00, 0x3a, 0x30,
   0x00, 0x41, 0x80, 0x00, 0x00, 0x00, 0x00, 0x00, 0x38, 0x01, 0x00, 0x00,
   0x00, 0x00, 0x00, 0xe2, 0x10, 0x00, 0x41, 0x80, 0x00, 0x00, 0x00, 0x00,
   0x00, 0x98, 0x00, 0x00, 0x00, 0x00, 0x00, 0x00, 0x82, 0x1b, 0x80, 0x81,
   0x80, 0x00, 0x00, 0x00, 0x00, 0x00, 0x8c, 0x00, 0x00, 0x00, 0x00, 0x00,
   0x00, 0x02, 0x1e, 0x80, 0x80, 0x80, 0x00, 0x00, 0x00, 0x00, 0x00, 0x4e,
   0x00, 0x00, 0x00, 0x00, 0x00, 0x00, 0x02, 0x76, 0xc0, 0x80, 0x80, 0x00,
   0x00, 0x00, 0x00, 0x00, 0x26, 0x00, 0x00, 0x00, 0x00, 0x00, 0x00, 0x04,
   0xc2, 0x4f, 0x80, 0x80, 0x00, 0x00, 0x00, 0x00, 0x00, 0x23, 0x00, 0x00,
   0x00, 0x00, 0x00, 0x00, 0x04, 0x03, 0x78, 0x80, 0x80, 0x00, 0x00, 0x00,
   0x00, 0x80, 0x13, 0x00, 0x00, 0x00, 0x00, 0x00, 0x00, 0x84, 0x00, 0xe0,
   0x81, 0x80, 0x00, 0x00, 0x00, 0x00, 0x80, 0x09, 0x00, 0x00, 0x00, 0x00,
   0x00, 0x00, 0xc4, 0x00, 0x20, 0xff, 0x81, 0x00, 0x00, 0x00, 0x00, 0xc0,
   0x09, 0x00, 0x00, 0x00, 0x00, 0x00, 0x00, 0x64, 0x00, 0x10, 0x40, 0x81,
   0x00, 0x00, 0x00, 0x00, 0xc0, 0x05, 0x00, 0x00, 0x00, 0x00, 0x00, 0x00,
   0x34, 0x00, 0x18, 0x60, 0x81, 0x00, 0x00, 0x00, 0x00, 0xe0, 0x04, 0x00,
   0x00, 0x00, 0x00, 0x00, 0x00, 0x08, 0x00, 0x08, 0x20, 0x81, 0x00, 0x00,
   0x00, 0x00, 0x60, 0x02, 0x00, 0x00, 0x00, 0x00, 0x00, 0x00, 0x08, 0x00,
   0x0c, 0x10, 0x81, 0x00, 0x00, 0x00, 0x00, 0x70, 0x01, 0x00, 0x00, 0x00,
   0x00, 0x00, 0x00, 0x38, 0x00, 0x04, 0x10, 0x81, 0x00, 0x00, 0x00, 0x00,
   0x38, 0x01, 0x00, 0x00, 0x00, 0x00, 0x00, 0x00, 0x70, 0x00, 0x04, 0x10,
   0x81, 0x00, 0x00, 0x00, 0x00, 0xb8, 0x00, 0x00, 0x00, 0x00, 0x00, 0x00,
   0x00, 0x90, 0x01, 0x06, 0x90, 0x80, 0x00, 0x00, 0x00, 0x00, 0x9c, 0x00,
   0x00, 0x00, 0x00, 0x00, 0x00, 0x00, 0x20, 0x06, 0x02, 0x88, 0x80, 0x00,
   0x00, 0x00, 0x00, 0x4c, 0x00, 0x00, 0x00, 0x00, 0x00, 0x00, 0x00, 0x20,
   0x38, 0x03, 0x88, 0x80, 0x00, 0x00, 0x00, 0x00, 0x2e, 0x00, 0x00, 0x00,
   0x00, 0x00, 0x00, 0x00, 0x40, 0xc0, 0x03, 0x44, 0x80, 0x00, 0x00, 0x00,
   0x00, 0x2f, 0x00, 0x00, 0x00, 0x00, 0x00, 0x00, 0x00, 0x40, 0x80, 0x7d,
   0x26, 0x80, 0x00, 0x00, 0x00, 0x00, 0x19, 0x00, 0x00, 0x00, 0x00, 0x00,
   0x00, 0x00, 0x80, 0x80, 0xc0, 0x1b, 0x80, 0x00, 0x00, 0x00, 0x00, 0x0e,
   0x00, 0x00, 0x00, 0x00, 0x00, 0x00, 0x00, 0x00, 0xc1, 0x00, 0x0d, 0x80,
   0x00, 0x00, 0x00, 0x00, 0x00, 0x00, 0x00, 0x00, 0x00, 0x00, 0x00, 0x00,
   0x00, 0x66, 0x80, 0x05, 0x80, 0x00, 0x00, 0x00, 0x00, 0x00, 0x00, 0x00,
   0x00, 0x00, 0x00, 0x00, 0x00, 0x00, 0x38, 0x80, 0x03, 0x80, 0x00, 0x00,
   0x00, 0x00, 0x00, 0x00, 0x00, 0x00, 0x00, 0x00, 0x00, 0x00, 0x00, 0xf0,
   0x7f, 0x00, 0x80, 0x00, 0x00, 0x00, 0x00, 0x00, 0x00, 0x00, 0x00, 0x00,
   0x00, 0x00, 0x00, 0x00, 0x00, 0x00, 0x00, 0x80, 0x00, 0x00, 0x00, 0x00,
   0x00, 0x00, 0x00, 0x00, 0x00, 0x00, 0x00, 0x00, 0x00, 0x00, 0x00, 0x00,
   0x80, 0x00, 0x00, 0x00, 0x00, 0x00, 0x00, 0x00, 0x00, 0x00, 0x00, 0x00,
   0x00, 0x00, 0x00, 0x00, 0x00, 0x80, 0x00, 0x00, 0x00, 0x00, 0x00, 0x00,
   0x00, 0x00, 0x00, 0x00, 0x00, 0x00, 0x00, 0x00, 0x00, 0x00, 0x80, 0x00,
   0x00, 0x00, 0x00, 0x00, 0x00, 0x00, 0x00, 0x00, 0x00, 0x00, 0x00, 0x00,
   0x00, 0x00, 0x00, 0x80};
